  0
SECTION
  2
HEADER
  9
$ACADVER
  1
AC1015
  9
$ACADMAINTVER
 70
     6
  9
$DWGCODEPAGE
  3
ANSI_1252
  9
$INSBASE
 10
0.0
 20
0.0
 30
0.0
  9
$EXTMIN
 10
0.0
 20
0.0
 30
0.0
  9
$EXTMAX
 10
1189.0
 20
841.0
 30
0.0
  9
$LIMMIN
 10
0.0
 20
0.0
  9
$LIMMAX
 10
1189.0
 20
841.0
  9
$ORTHOMODE
 70
     0
  9
$REGENMODE
 70
     1
  9
$FILLMODE
 70
     1
  9
$QTEXTMODE
 70
     0
  9
$MIRRTEXT
 70
     1
  9
$LTSCALE
 40
1.0
  9
$ATTMODE
 70
     1
  9
$TEXTSIZE
 40
3.5
  9
$TRACEWID
 40
1.0
  9
$TEXTSTYLE
  7
Standard
  9
$CLAYER
  8
0
  9
$CELTYPE
  6
ByLayer
  9
$CECOLOR
 62
   256
  9
$CELTSCALE
 40
1.0
  9
$DISPSILH
 70
     0
  9
$DIMSCALE
 40
1.0
  9
$DIMASZ
 40
3.556
  9
$DIMEXO
 40
1.0
  9
$DIMDLI
 40
3.75
  9
$DIMRND
 40
0.0
  9
$DIMDLE
 40
0.0
  9
$DIMEXE
 40
1.0
  9
$DIMTP
 40
0.0
  9
$DIMTM
 40
0.0
  9
$DIMTXT
 40
3.5
  9
$DIMCEN
 40
2.5
  9
$DIMTSZ
 40
0.0
  9
$DIMTOL
 70
     0
  9
$DIMLIM
 70
     0
  9
$DIMTIH
 70
     1
  9
$DIMTOH
 70
     1
  9
$DIMSE1
 70
     0
  9
$DIMSE2
 70
     0
  9
$DIMTAD
 70
     1
  9
$DIMZIN
 70
     0
  9
$DIMBLK
  1

  9
$DIMASO
 70
     1
  9
$DIMSHO
 70
     1
  9
$DIMPOST
  1

  9
$DIMAPOST
  1

  9
$DIMALT
 70
     0
  9
$DIMALTD
 70
     3
  9
$DIMALTF
 40
0.0393700787
  9
$DIMLFAC
 40
1.0
  9
$DIMTOFL
 70
     1
  9
$DIMTVP
 40
0.0
  9
$DIMTIX
 70
     0
  9
$DIMSOXD
 70
     0
  9
$DIMSAH
 70
     0
  9
$DIMBLK1
  1

  9
$DIMBLK2
  1

  9
$DIMSTYLE
  2
ISO-25
  9
$DIMCLRD
 70
     0
  9
$DIMCLRE
 70
     0
  9
$DIMCLRT
 70
     0
  9
$DIMTFAC
 40
1.0
  9
$DIMGAP
 40
1.524
  9
$DIMJUST
 70
     0
  9
$DIMSD1
 70
     0
  9
$DIMSD2
 70
     0
  9
$DIMTOLJ
 70
     0
  9
$DIMTZIN
 70
     0
  9
$DIMALTZ
 70
     0
  9
$DIMALTTZ
 70
     0
  9
$DIMUPT
 70
     0
  9
$DIMDEC
 70
     2
  9
$DIMTDEC
 70
     2
  9
$DIMALTU
 70
     2
  9
$DIMALTTD
 70
     3
  9
$DIMTXSTY
  7
Standard
  9
$DIMAUNIT
 70
     0
  9
$DIMADEC
 70
     2
  9
$DIMALTRND
 40
0.0
  9
$DIMAZIN
 70
     0
  9
$DIMDSEP
 70
    44
  9
$DIMATFIT
 70
     3
  9
$DIMFRAC
 70
     0
  9
$DIMLDRBLK
  1

  9
$DIMLUNIT
 70
     2
  9
$DIMLWD
 70
    -2
  9
$DIMLWE
 70
    -2
  9
$DIMTMOVE
 70
     0
  9
$LUNITS
 70
     2
  9
$LUPREC
 70
     5
  9
$SKETCHINC
 40
1.0
  9
$FILLETRAD
 40
10.0
  9
$AUNITS
 70
     0
  9
$AUPREC
 70
     2
  9
$MENU
  1
.
  9
$ELEVATION
 40
0.0
  9
$PELEVATION
 40
0.0
  9
$THICKNESS
 40
0.0
  9
$LIMCHECK
 70
     0
  9
$CHAMFERA
 40
0.0
  9
$CHAMFERB
 40
0.0
  9
$CHAMFERC
 40
0.0
  9
$CHAMFERD
 40
0.0
  9
$SKPOLY
 70
     0
  9
$TDCREATE
 40
2457821.89605478
  9
$TDUCREATE
 40
2457821.89605478
  9
$TDUPDATE
 40
2457821.896055174
  9
$TDUUPDATE
 40
2457821.896055174
  9
$TDINDWG
 40
0.0000000116
  9
$TDUSRTIMER
 40
0.0000000116
  9
$USRTIMER
 70
     1
  9
$ANGBASE
 50
0.0
  9
$ANGDIR
 70
     0
  9
$PDMODE
 70
     0
  9
$PDSIZE
 40
-1.0
  9
$PLINEWID
 40
0.0
  9
$SPLFRAME
 70
     0
  9
$SPLINETYPE
 70
     6
  9
$SPLINESEGS
 70
     8
  9
$HANDSEED
  5
F6
  9
$SURFTAB1
 70
     6
  9
$SURFTAB2
 70
     6
  9
$SURFTYPE
 70
     6
  9
$SURFU
 70
     6
  9
$SURFV
 70
     6
  9
$UCSBASE
  2

  9
$UCSNAME
  2

  9
$UCSORG
 10
0.0
 20
0.0
 30
0.0
  9
$UCSXDIR
 10
1.0
 20
0.0
 30
0.0
  9
$UCSYDIR
 10
0.0
 20
1.0
 30
0.0
  9
$UCSORTHOREF
  2

  9
$UCSORTHOVIEW
 70
     0
  9
$UCSORGTOP
 10
0.0
 20
0.0
 30
0.0
  9
$UCSORGBOTTOM
 10
0.0
 20
0.0
 30
0.0
  9
$UCSORGLEFT
 10
0.0
 20
0.0
 30
0.0
  9
$UCSORGRIGHT
 10
0.0
 20
0.0
 30
0.0
  9
$UCSORGFRONT
 10
0.0
 20
0.0
 30
0.0
  9
$UCSORGBACK
 10
0.0
 20
0.0
 30
0.0
  9
$PUCSBASE
  2

  9
$PUCSNAME
  2

  9
$PUCSORG
 10
0.0
 20
0.0
 30
0.0
  9
$PUCSXDIR
 10
1.0
 20
0.0
 30
0.0
  9
$PUCSYDIR
 10
0.0
 20
1.0
 30
0.0
  9
$PUCSORTHOREF
  2

  9
$PUCSORTHOVIEW
 70
     0
  9
$PUCSORGTOP
 10
0.0
 20
0.0
 30
0.0
  9
$PUCSORGBOTTOM
 10
0.0
 20
0.0
 30
0.0
  9
$PUCSORGLEFT
 10
0.0
 20
0.0
 30
0.0
  9
$PUCSORGRIGHT
 10
0.0
 20
0.0
 30
0.0
  9
$PUCSORGFRONT
 10
0.0
 20
0.0
 30
0.0
  9
$PUCSORGBACK
 10
0.0
 20
0.0
 30
0.0
  9
$USERI1
 70
     0
  9
$USERI2
 70
     0
  9
$USERI3
 70
     0
  9
$USERI4
 70
     0
  9
$USERI5
 70
     0
  9
$USERR1
 40
0.0
  9
$USERR2
 40
0.0
  9
$USERR3
 40
0.0
  9
$USERR4
 40
0.0
  9
$USERR5
 40
0.0
  9
$WORLDVIEW
 70
     1
  9
$SHADEDGE
 70
     3
  9
$SHADEDIF
 70
    70
  9
$TILEMODE
 70
     1
  9
$MAXACTVP
 70
    64
  9
$PINSBASE
 10
0.0
 20
0.0
 30
0.0
  9
$PLIMCHECK
 70
     0
  9
$PEXTMIN
 10
1.0000000000E+20
 20
1.0000000000E+20
 30
1.0000000000E+20
  9
$PEXTMAX
 10
-1.0000000000E+20
 20
-1.0000000000E+20
 30
-1.0000000000E+20
  9
$PLIMMIN
 10
0.0
 20
0.0
  9
$PLIMMAX
 10
420.0
 20
297.0
  9
$UNITMODE
 70
     0
  9
$VISRETAIN
 70
     1
  9
$PLINEGEN
 70
     0
  9
$PSLTSCALE
 70
     1
  9
$TREEDEPTH
 70
  3020
  9
$CMLSTYLE
  2
Standard
  9
$CMLJUST
 70
     0
  9
$CMLSCALE
 40
20.0
  9
$PROXYGRAPHICS
 70
     1
  9
$MEASUREMENT
 70
     1
  9
$CELWEIGHT
370
    -1
  9
$ENDCAPS
280
     0
  9
$JOINSTYLE
280
     0
  9
$LWDISPLAY
290
     1
  9
$INSUNITS
 70
     4
  9
$HYPERLINKBASE
  1

  9
$STYLESHEET
  1

  9
$XEDIT
290
     1
  9
$CEPSNTYPE
380
     0
  9
$PSTYLEMODE
290
     1
  9
$FINGERPRINTGUID
  2
{EFADD49E-2308-4FE0-A272-DE45778E6975}
  9
$VERSIONGUID
  2
{FAEB1C32-E019-11D5-929B-00C0DF256EC4}
  9
$EXTNAMES
290
     1
  9
$PSVPSCALE
 40
0.0
  9
$OLESTARTUP
290
     0
  0
ENDSEC
  0
SECTION
  2
CLASSES
  0
CLASS
  1
ACDBDICTIONARYWDFLT
  2
AcDbDictionaryWithDefault
  3
ObjectDBX Classes
 90
        0
280
     0
281
     0
  0
CLASS
  1
VISUALSTYLE
  2
AcDbVisualStyle
  3
ObjectDBX Classes
 90
     4095
280
     0
281
     0
  0
CLASS
  1
MATERIAL
  2
AcDbMaterial
  3
ObjectDBX Classes
 90
     1153
280
     0
281
     0
  0
CLASS
  1
SCALE
  2
AcDbScale
  3
ObjectDBX Classes
 90
     1153
280
     0
281
     0
  0
CLASS
  1
TABLESTYLE
  2
AcDbTableStyle
  3
ObjectDBX Classes
 90
     4095
280
     0
281
     0
  0
CLASS
  1
MLEADERSTYLE
  2
AcDbMLeaderStyle
  3
ACDB_MLEADERSTYLE_CLASS
 90
     4095
280
     0
281
     0
  0
CLASS
  1
SUN
  2
AcDbSun
  3
SCENEOE
 90
     1153
280
     0
281
     0
  0
CLASS
  1
ACDBPLACEHOLDER
  2
AcDbPlaceHolder
  3
ObjectDBX Classes
 90
        0
280
     0
281
     0
  0
CLASS
  1
LAYOUT
  2
AcDbLayout
  3
ObjectDBX Classes
 90
        0
280
     0
281
     0
  0
ENDSEC
  0
SECTION
  2
TABLES
  0
TABLE
  2
VPORT
  5
8
330
0
100
AcDbSymbolTable
 70
     1
  0
VPORT
  5
29
330
8
100
AcDbSymbolTableRecord
100
AcDbViewportTableRecord
  2
*Active
 70
     0
 10
0.0
 20
0.0
 11
1.0
 21
1.0
 12
594.5
 22
420.5
 13
0.0
 23
0.0
 14
10.0
 24
10.0
 15
10.0
 25
10.0
 16
0.0
 26
0.0
 36
1.0
 17
0.0
 27
0.0
 37
0.0
 40
841.0
 41
1.4137931034
 42
50.0
 43
0.0
 44
0.0
 50
0.0
 51
0.0
 71
     0
 72
  2000
 73
     1
 74
     3
 75
     0
 76
     0
 77
     0
 78
     0
281
     0
 65
     1
110
0.0
120
0.0
130
0.0
111
1.0
121
0.0
131
0.0
112
0.0
122
1.0
132
0.0
 79
     0
146
0.0
  0
ENDTAB
  0
TABLE
  2
LTYPE
  5
5
330
0
100
AcDbSymbolTable
 70
     6
  0
LTYPE
  5
14
330
5
100
AcDbSymbolTableRecord
100
AcDbLinetypeTableRecord
  2
ByBlock
 70
     0
  3

 72
    65
 73
     0
 40
0.0
  0
LTYPE
  5
15
330
5
100
AcDbSymbolTableRecord
100
AcDbLinetypeTableRecord
  2
ByLayer
 70
     0
  3

 72
    65
 73
     0
 40
0.0
  0
LTYPE
  5
16
330
5
100
AcDbSymbolTableRecord
100
AcDbLinetypeTableRecord
  2
Continuous
 70
     0
  3
Solid line
 72
    65
 73
     0
 40
0.0
  0
LTYPE
  5
6E
330
5
100
AcDbSymbolTableRecord
100
AcDbLinetypeTableRecord
  2
HIDDEN
 70
     0
  3
Hidden __ __ __ __ __ __ __ __ __ __ __ __ __ __
 72
    65
 73
     2
 40
1.905
 49
1.27
 74
     0
 49
-0.635
 74
     0
  0
LTYPE
  5
6F
330
5
100
AcDbSymbolTableRecord
100
AcDbLinetypeTableRecord
  2
PHANTOM
 70
     0
  3
Phantom ______  __  __  ______  __  __  ______
 72
    65
 73
     6
 40
12.7
 49
6.35
 74
     0
 49
-1.27
 74
     0
 49
1.27
 74
     0
 49
-1.27
 74
     0
 49
1.27
 74
     0
 49
-1.27
 74
     0
  0
LTYPE
  5
70
330
5
100
AcDbSymbolTableRecord
100
AcDbLinetypeTableRecord
  2
CENTER
 70
     0
  3
Center ____ _ ____ _ ____ _ ____ _ ____ _ ____
 72
    65
 73
     4
 40
10.16
 49
6.35
 74
     0
 49
-1.27
 74
     0
 49
1.27
 74
     0
 49
-1.27
 74
     0
  0
LTYPE
  5
71
330
5
100
AcDbSymbolTableRecord
100
AcDbLinetypeTableRecord
  2
CENTERX2
 70
     0
  3
Center (2x) ________  __  ________  __  _____
 72
    65
 73
     4
 40
20.32
 49
12.7
 74
     0
 49
-2.54
 74
     0
 49
2.54
 74
     0
 49
-2.54
 74
     0
  0
LTYPE
  5
72
330
5
100
AcDbSymbolTableRecord
100
AcDbLinetypeTableRecord
  2
DOT2
 70
     0
  3
Dot (.5x) ........................................
 72
    65
 73
     2
 40
0.635
 49
0.0
 74
     0
 49
-0.635
 74
     0
  0
ENDTAB
  0
TABLE
  2
LAYER
  5
2
330
0
100
AcDbSymbolTable
 70
     2
  0
LAYER
  5
10
330
2
100
AcDbSymbolTableRecord
100
AcDbLayerTableRecord
  2
0
 70
     0
 62
     7
  6
Continuous
370
    -3
390
F
  0
LAYER
  5
73
330
2
100
AcDbSymbolTableRecord
100
AcDbLayerTableRecord
  2
FORMAT
 70
     0
 62
     7
  6
Continuous
370
    -3
390
F
  0
ENDTAB
  0
TABLE
  2
STYLE
  5
3
330
0
100
AcDbSymbolTable
 70
     1
  0
STYLE
  5
11
330
3
100
AcDbSymbolTableRecord
100
AcDbTextStyleTableRecord
  2
Standard
 70
     0
 40
0.0
 41
1.0
 50
0.0
 71
     0
 42
3.5
  3
txt
  4

  0
ENDTAB
  0
TABLE
  2
VIEW
  5
6
330
0
100
AcDbSymbolTable
 70
     0
  0
ENDTAB
  0
TABLE
  2
UCS
  5
7
330
0
100
AcDbSymbolTable
 70
     0
  0
ENDTAB
  0
TABLE
  2
APPID
  5
9
330
0
100
AcDbSymbolTable
 70
     1
  0
APPID
  5
12
330
9
100
AcDbSymbolTableRecord
100
AcDbRegAppTableRecord
  2
ACAD
 70
     0
  0
ENDTAB
  0
TABLE
  2
DIMSTYLE
  5
A
330
0
100
AcDbSymbolTable
 70
     1
100
AcDbDimStyleTable
  0
DIMSTYLE
105
27
330
A
100
AcDbSymbolTableRecord
100
AcDbDimStyleTableRecord
  2
ISO-25
 70
     0
 41
2.5
 42
0.625
 43
3.75
 44
1.25
 73
     0
 74
     0
 77
     1
 78
     8
140
2.5
141
2.5
143
0.0393700787
147
0.625
171
     3
172
     1
178
     0
271
     2
272
     2
274
     3
278
    44
283
     0
284
     8
340
11
  0
ENDTAB
  0
TABLE
  2
BLOCK_RECORD
  5
1
330
0
100
AcDbSymbolTable
 70
     1
  0
BLOCK_RECORD
  5
1F
330
1
100
AcDbSymbolTableRecord
100
AcDbBlockTableRecord
  2
*Model_Space
340
22
  0
BLOCK_RECORD
  5
1B
330
1
100
AcDbSymbolTableRecord
100
AcDbBlockTableRecord
  2
*Paper_Space
340
1E
  0
BLOCK_RECORD
  5
23
330
1
100
AcDbSymbolTableRecord
100
AcDbBlockTableRecord
  2
*Paper_Space0
340
26
  0
ENDTAB
  0
ENDSEC
  0
SECTION
  2
BLOCKS
  0
BLOCK
  5
20
330
1F
100
AcDbEntity
  8
0
100
AcDbBlockBegin
  2
*Model_Space
 70
     0
 10
0.0
 20
0.0
 30
0.0
  3
*Model_Space
  1

  0
ENDBLK
  5
21
330
1F
100
AcDbEntity
  8
0
100
AcDbBlockEnd
  0
BLOCK
  5
1C
330
1B
100
AcDbEntity
 67
     1
  8
0
100
AcDbBlockBegin
  2
*Paper_Space
 70
     0
 10
0.0
 20
0.0
 30
0.0
  3
*Paper_Space
  1

  0
ENDBLK
  5
1D
330
1B
100
AcDbEntity
 67
     1
  8
0
100
AcDbBlockEnd
  0
BLOCK
  5
24
330
23
100
AcDbEntity
  8
0
100
AcDbBlockBegin
  2
*Paper_Space0
 70
     0
 10
0.0
 20
0.0
 30
0.0
  3
*Paper_Space0
  1

  0
ENDBLK
  5
25
330
23
100
AcDbEntity
  8
0
100
AcDbBlockEnd
  0
ENDSEC
  0
SECTION
  2
ENTITIES
  0
CIRCLE
  5
74
330
1F
100
AcDbEntity
  8
0
  6
Continuous
 62
     7
370
    15
100
AcDbCircle
 10
258.4262054625
 20
43.6124416114
 30
0.0
 40
4.250000000000028
  0
CIRCLE
  5
75
330
1F
100
AcDbEntity
  8
0
  6
Continuous
 62
     7
370
    15
100
AcDbCircle
 10
344.4262054625
 20
43.6124416114
 30
0.0
 40
4.249999999999972
  0
CIRCLE
  5
76
330
1F
100
AcDbEntity
  8
0
  6
Continuous
 62
     7
370
    15
100
AcDbCircle
 10
172.4262054625
 20
586.6035901865
 30
0.0
 40
4.25
  0
CIRCLE
  5
77
330
1F
100
AcDbEntity
  8
0
  6
Continuous
 62
     7
370
    15
100
AcDbCircle
 10
258.4262054625
 20
586.6035901865
 30
0.0
 40
4.250000000000114
  0
CIRCLE
  5
78
330
1F
100
AcDbEntity
  8
0
  6
Continuous
 62
     7
370
    15
100
AcDbCircle
 10
344.4262054625
 20
586.6035901865
 30
0.0
 40
4.25
  0
SPLINE
  5
79
330
1F
100
AcDbEntity
  8
0
  6
Continuous
 62
     7
370
    15
100
AcDbSpline
210
0.0
220
0.0
230
1.0
 70
     8
 71
     3
 72
    14
 73
    10
 74
     0
 42
0.000000001
 43
0.00000001
 40
0.0
 40
0.0
 40
0.0
 40
0.0
 40
0.250000033341773
 40
0.250000033341773
 40
0.500000066683546
 40
0.500000066683546
 40
0.750000100025319
 40
0.750000100025319
 40
1.000000133367092
 40
1.000000133367092
 40
1.000000133367092
 40
1.000000133367092
 10
44.17860330541179
 20
229.1017970652474
 30
0.0
 10
45.01128428355627
 20
229.1336410513395
 30
0.0
 10
45.70413871512391
 20
228.8966792131675
 30
0.0
 10
46.85752847613456
 20
227.8612594565735
 30
0.0
 10
47.19023142098133
 20
227.1276044926008
 30
0.0
 10
47.1909351365315
 20
225.5881790187849
 30
0.0
 10
46.85177918000056
 20
224.8498546196388
 30
0.0
 10
45.70948606687725
 20
223.8240290529248
 30
0.0
 10
45.00870904266513
 20
223.58309183115
 30
0.0
 10
44.17830151889035
 20
223.6141293171178
 30
0.0
  0
SPLINE
  5
7A
330
1F
100
AcDbEntity
  8
0
  6
Continuous
 62
     7
370
    15
100
AcDbSpline
210
0.0
220
0.0
230
1.0
 70
     8
 71
     3
 72
    16
 73
    12
 74
     0
 42
0.000000001
 43
0.00000001
 40
0.0
 40
0.0
 40
0.0
 40
0.0
 40
0.25
 40
0.25
 40
0.5
 40
0.5
 40
0.625
 40
0.625
 40
0.75
 40
0.75
 40
1.0
 40
1.0
 40
1.0
 40
1.0
 10
44.1783014924706
 20
223.6141286102639
 30
0.0
 10
43.37612303633853
 20
223.5831701989435
 30
0.0
 10
42.68309855939567
 20
223.8388067528301
 30
0.0
 10
41.600718843392
 20
224.8771038715525
 30
0.0
 10
41.29489089137323
 20
225.6044887879947
 30
0.0
 10
41.29450452700001
 20
226.7349994720097
 30
0.0
 10
41.36743201962939
 20
227.0963900831584
 30
0.0
 10
41.66144858646387
 20
227.7931343936191
 30
0.0
 10
41.86759024525277
 20
228.0946755589598
 30
0.0
 10
42.69115721774419
 20
228.8854431060185
 30
0.0
 10
43.36998746307591
 20
229.1332872139967
 30
0.0
 10
44.17860330541179
 20
229.1017970652474
 30
0.0
  0
SPLINE
  5
7B
330
1F
100
AcDbEntity
  8
0
  6
Continuous
 62
     7
370
    15
100
AcDbSpline
210
0.0
220
0.0
230
1.0
 70
     8
 71
     3
 72
    14
 73
    10
 74
     0
 42
0.000000001
 43
0.00000001
 40
0.0
 40
0.0
 40
0.0
 40
0.0
 40
0.2500000333417726
 40
0.2500000333417726
 40
0.5000000666835452
 40
0.5000000666835452
 40
0.7500001000253178
 40
0.7500001000253178
 40
1.00000013336709
 40
1.00000013336709
 40
1.00000013336709
 40
1.00000013336709
 10
44.17860330546364
 20
140.3517970652439
 30
0.0
 10
45.01128428341927
 20
140.3836410513354
 30
0.0
 10
45.70413871495182
 20
140.1466792131658
 30
0.0
 10
46.85752847640867
 20
139.1112594564841
 30
0.0
 10
47.19023142092449
 20
138.3776044924025
 30
0.0
 10
47.19093513658878
 20
136.8381790188428
 30
0.0
 10
46.85177917986788
 20
136.0998546195525
 30
0.0
 10
45.70948606689312
 20
135.0740290529066
 30
0.0
 10
45.00870904267246
 20
134.8330918311484
 30
0.0
 10
44.17830151880531
 20
134.8641293171154
 30
0.0
  0
SPLINE
  5
7C
330
1F
100
AcDbEntity
  8
0
  6
Continuous
 62
     7
370
    15
100
AcDbSpline
210
0.0
220
0.0
230
1.0
 70
     8
 71
     3
 72
    16
 73
    12
 74
     0
 42
0.000000001
 43
0.00000001
 40
0.0
 40
0.0
 40
0.0
 40
0.0
 40
0.25
 40
0.25
 40
0.5
 40
0.5
 40
0.625
 40
0.625
 40
0.75
 40
0.75
 40
1.0
 40
1.0
 40
1.0
 40
1.0
 10
44.17830149238544
 20
134.8641286102581
 30
0.0
 10
43.3761230359958
 20
134.8331701989722
 30
0.0
 10
42.68309855928148
 20
135.0888067527623
 30
0.0
 10
41.60071884340649
 20
136.1271038717162
 30
0.0
 10
41.29489089131766
 20
136.8544887874785
 30
0.0
 10
41.29450452702799
 20
137.9849994723685
 30
0.0
 10
41.36743201952397
 20
138.346390083179
 30
0.0
 10
41.66144858661281
 20
139.0431343937001
 30
0.0
 10
41.86759024537196
 20
139.3446755590015
 30
0.0
 10
42.69115721765687
 20
140.135443106081
 30
0.0
 10
43.36998746298904
 20
140.3832872140418
 30
0.0
 10
44.17860330546364
 20
140.3517970652439
 30
0.0
  0
LINE
  5
7D
330
1F
100
AcDbEntity
  8
0
  6
Continuous
 62
     7
370
    15
100
AcDbLine
 10
49.3230279682
 20
73.6882681191
 30
0.0
 11
49.3230279682
 21
69.5277636788
 31
0.0
  0
SPLINE
  5
7E
330
1F
100
AcDbEntity
  8
0
  6
Continuous
 62
     7
370
    15
100
AcDbSpline
210
0.0
220
0.0
230
1.0
 70
     8
 71
     3
 72
    30
 73
    26
 74
     0
 42
0.000000001
 43
0.00000001
 40
0.0
 40
0.0
 40
0.0
 40
0.0
 40
0.0625
 40
0.0625
 40
0.09375
 40
0.09375
 40
0.109375
 40
0.109375
 40
0.125
 40
0.125
 40
0.25
 40
0.25
 40
0.5
 40
0.5
 40
0.75
 40
0.75
 40
0.8125
 40
0.8125
 40
0.84375
 40
0.84375
 40
0.859375
 40
0.859375
 40
0.875
 40
0.875
 40
1.0
 40
1.0
 40
1.0
 40
1.0
 10
44.17591426728806
 20
76.85484225371985
 30
0.0
 10
44.33517620328764
 20
76.85717357298572
 30
0.0
 10
44.48152689902862
 20
76.85603484032202
 30
0.0
 10
44.68168608225176
 20
76.84912166343219
 30
0.0
 10
44.74517799992817
 20
76.84594975815325
 30
0.0
 10
44.83557416134559
 20
76.83989063076119
 30
0.0
 10
44.86489926263526
 20
76.83765404338492
 30
0.0
 10
44.92193556018221
 20
76.83274711214113
 30
0.0
 10
44.94279182006272
 20
76.83081240403733
 30
0.0
 10
45.24662444112359
 20
76.7982066831466
 30
0.0
 10
45.50970775629387
 20
76.75024812410736
 30
0.0
 10
46.27442406602539
 20
76.55037667634274
 30
0.0
 10
46.76167325500141
 20
76.34204225553276
 30
0.0
 10
47.70494267631192
 20
75.76672538608126
 30
0.0
 10
48.11301337787227
 20
75.42849083328215
 30
0.0
 10
48.54996083658752
 20
74.93535140152449
 30
0.0
 10
48.63382758983204
 20
74.83273181869745
 30
0.0
 10
48.75434361195086
 20
74.67281489974359
 30
0.0
 10
48.79363493469918
 20
74.61851133597335
 30
0.0
 10
48.85125089188469
 20
74.53555910413975
 30
0.0
 10
48.87023603979029
 20
74.50765887916555
 30
0.0
 10
48.90776599328933
 20
74.45135946715759
 30
0.0
 10
48.93003505912608
 20
74.41713778495426
 30
0.0
 10
49.06143842686994
 20
74.21170222891013
 30
0.0
 10
49.18756927184448
 20
73.97635439793105
 30
0.0
 10
49.32302796824361
 20
73.68826811912311
 30
0.0
  0
SPLINE
  5
7F
330
1F
100
AcDbEntity
  8
0
  6
Continuous
 62
     7
370
    15
100
AcDbSpline
210
0.0
220
0.0
230
1.0
 70
     8
 71
     3
 72
    34
 73
    30
 74
     0
 42
0.000000001
 43
0.00000001
 40
0.0
 40
0.0
 40
0.0
 40
0.0
 40
0.03125
 40
0.03125
 40
0.046875
 40
0.046875
 40
0.0625
 40
0.0625
 40
0.125
 40
0.125
 40
0.25
 40
0.25
 40
0.375
 40
0.375
 40
0.5
 40
0.5
 40
0.625
 40
0.625
 40
0.75
 40
0.75
 40
0.875
 40
0.875
 40
0.90625
 40
0.90625
 40
0.921875
 40
0.921875
 40
0.9375
 40
0.9375
 40
1.0
 40
1.0
 40
1.0
 40
1.0
 10
44.17223886474525
 20
66.36103695345652
 30
0.0
 10
43.9785022081624
 20
66.35811065111969
 30
0.0
 10
43.79499238136459
 20
66.3624982181221
 30
0.0
 10
43.53506788584488
 20
66.38005037263453
 30
0.0
 10
43.45098309478451
 20
66.38772955814015
 30
0.0
 10
43.28792692755618
 20
66.40674486382098
 30
0.0
 10
43.21739547775771
 20
66.41662696801828
 30
0.0
 10
42.79312250230149
 20
66.48971998545814
 30
0.0
 10
42.4561316597275
 20
66.58498129724644
 30
0.0
 10
41.47632620841529
 20
66.97169900889227
 30
0.0
 10
40.89332834190262
 20
67.35532977052219
 30
0.0
 10
39.8973528070955
 20
68.34481352820652
 30
0.0
 10
39.51131486509485
 20
68.92464855757191
 30
0.0
 10
38.97538887333229
 20
70.22478626029682
 30
0.0
 10
38.84143859439465
 20
70.9047510170539
 30
0.0
 10
38.84156263726618
 20
72.31500032917587
 30
0.0
 10
38.97518779528381
 20
72.9913587365622
 30
0.0
 10
39.51434448659879
 20
74.29812872862263
 30
0.0
 10
39.89636852525707
 20
74.8703807769381
 30
0.0
 10
40.89958746355288
 20
75.86680169238677
 30
0.0
 10
41.47608476475179
 20
76.2443843729453
 30
0.0
 10
42.29720892031147
 20
76.56829701278802
 30
0.0
 10
42.46291895542581
 20
76.62419259707693
 30
0.0
 10
42.71371181410105
 20
76.69470555799077
 30
0.0
 10
42.79768073466006
 20
76.71598814237548
 30
0.0
 10
42.9663611777793
 20
76.75410983930506
 30
0.0
 10
43.05991380164114
 20
76.77246786838435
 30
0.0
 10
43.44112241293768
 20
76.8379601688369
 30
0.0
 10
43.78770866073356
 20
76.86105214391856
 30
0.0
 10
44.17591426728806
 20
76.85484225371985
 30
0.0
  0
SPLINE
  5
80
330
1F
100
AcDbEntity
  8
0
  6
Continuous
 62
     7
370
    15
100
AcDbSpline
210
0.0
220
0.0
230
1.0
 70
     8
 71
     3
 72
    14
 73
    10
 74
     0
 42
0.000000001
 43
0.00000001
 40
0.0
 40
0.0
 40
0.0
 40
0.0
 40
0.2500000811382302
 40
0.2500000811382302
 40
0.5000001622764604
 40
0.5000001622764604
 40
0.7500002434146906
 40
0.7500002434146906
 40
1.000000649104236
 40
1.000000649104236
 40
1.000000649104236
 40
1.000000649104236
 10
44.17830149247071
 20
406.6019031876251
 30
0.0
 10
45.01113844355437
 20
406.6330473343984
 30
0.0
 10
45.70447557794915
 20
406.3958607844147
 30
0.0
 10
46.85679814482463
 20
405.362310718061
 30
0.0
 10
47.19021918645855
 20
404.6275168243541
 30
0.0
 10
47.19094698761067
 20
403.0887273329126
 30
0.0
 10
46.85223731238286
 20
402.3506603108936
 30
0.0
 10
45.70941818128505
 20
401.3234541610709
 30
0.0
 10
45.00867564972172
 20
401.0825140619037
 30
0.0
 10
44.17860007257285
 20
401.1142348561824
 30
0.0
  0
SPLINE
  5
81
330
1F
100
AcDbEntity
  8
0
  6
Continuous
 62
     7
370
    15
100
AcDbSpline
210
0.0
220
0.0
230
1.0
 70
     8
 71
     3
 72
    16
 73
    12
 74
     0
 42
0.000000001
 43
0.00000001
 40
0.0000003344179118
 40
0.0000003344179118
 40
0.0000003344179118
 40
0.0000003344179118
 40
0.2500002508134339
 40
0.2500002508134339
 40
0.5000001672089559
 40
0.5000001672089559
 40
0.625000125406717
 40
0.625000125406717
 40
0.750000083604478
 40
0.750000083604478
 40
1.0
 40
1.0
 40
1.0
 40
1.0
 10
44.17860006302643
 20
401.1142346063531
 30
0.0
 10
43.37645939853935
 20
401.0829921901944
 30
0.0
 10
42.68373111828006
 20
401.3383512557458
 30
0.0
 10
41.60048207325862
 20
402.3771944435906
 30
0.0
 10
41.29498938994614
 20
403.1037562950671
 30
0.0
 10
41.29445551431959
 20
404.2349520895909
 30
0.0
 10
41.3671753853268
 20
404.595938178186
 30
0.0
 10
41.6614927225854
 20
405.2930517908007
 30
0.0
 10
41.86751742861944
 20
405.5945373633173
 30
0.0
 10
42.69070560279625
 20
406.3851685674354
 30
0.0
 10
43.36950160472702
 20
406.6331092639693
 30
0.0
 10
44.17830149247065
 20
406.6019031876251
 30
0.0
  0
SPLINE
  5
82
330
1F
100
AcDbEntity
  8
0
  6
Continuous
 62
     7
370
    15
100
AcDbSpline
210
0.0
220
0.0
230
1.0
 70
     8
 71
     3
 72
    14
 73
    10
 74
     0
 42
0.000000001
 43
0.00000001
 40
0.0
 40
0.0
 40
0.0
 40
0.0
 40
0.2500000811382148
 40
0.2500000811382148
 40
0.5000001622764296
 40
0.5000001622764296
 40
0.7500002434146444
 40
0.7500002434146444
 40
1.000000649104325
 40
1.000000649104325
 40
1.000000649104325
 40
1.000000649104325
 10
44.17830149238539
 20
495.3519031876309
 30
0.0
 10
45.01113844421706
 20
495.3830473344251
 30
0.0
 10
45.70447557778146
 20
495.1458607848842
 30
0.0
 10
46.85679814485133
 20
494.1123107177172
 30
0.0
 10
47.19021918645777
 20
493.3775168251283
 30
0.0
 10
47.19094698761067
 20
491.8387273322874
 30
0.0
 10
46.85223731191957
 20
491.1006603109493
 30
0.0
 10
45.70941818181539
 20
490.073454161074
 30
0.0
 10
45.00867565025851
 20
489.8325140618982
 30
0.0
 10
44.17860007262541
 20
489.8642348561859
 30
0.0
  0
SPLINE
  5
83
330
1F
100
AcDbEntity
  8
0
  6
Continuous
 62
     7
370
    15
100
AcDbSpline
210
0.0
220
0.0
230
1.0
 70
     8
 71
     3
 72
    16
 73
    12
 74
     0
 42
0.000000001
 43
0.00000001
 40
0.0000003344178488
 40
0.0000003344178488
 40
0.0000003344178488
 40
0.0000003344178488
 40
0.2500002508133866
 40
0.2500002508133866
 40
0.5000001672089244
 40
0.5000001672089244
 40
0.6250001254066933
 40
0.6250001254066933
 40
0.7500000836044622
 40
0.7500000836044622
 40
1.0
 40
1.0
 40
1.0
 40
1.0
 10
44.17860006307905
 20
489.8642346063568
 30
0.0
 10
43.37645939796653
 20
489.832992190146
 30
0.0
 10
42.68373111876511
 20
490.0883512551101
 30
0.0
 10
41.60048207287647
 20
491.1271944441273
 30
0.0
 10
41.29498938997423
 20
491.8537562948922
 30
0.0
 10
41.29445551430555
 20
492.984952089575
 30
0.0
 10
41.36717538525969
 20
493.3459381780677
 30
0.0
 10
41.66149272259156
 20
494.0430517907756
 30
0.0
 10
41.86751742858053
 20
494.3445373632629
 30
0.0
 10
42.69070560270077
 20
495.1351685673779
 30
0.0
 10
43.3695016046225
 20
495.3831092639322
 30
0.0
 10
44.17830149238539
 20
495.3519031876309
 30
0.0
  0
SPLINE
  5
84
330
1F
100
AcDbEntity
  8
0
  6
Continuous
 62
     7
370
    15
100
AcDbSpline
210
0.0
220
0.0
230
1.0
 70
     8
 71
     3
 72
    34
 73
    30
 74
     0
 42
0.000000001
 43
0.00000001
 40
0.0
 40
0.0
 40
0.0
 40
0.0
 40
0.03125
 40
0.03125
 40
0.046875
 40
0.046875
 40
0.0625
 40
0.0625
 40
0.125
 40
0.125
 40
0.25
 40
0.25
 40
0.375
 40
0.375
 40
0.5
 40
0.5
 40
0.625
 40
0.625
 40
0.75
 40
0.75
 40
0.875
 40
0.875
 40
0.90625
 40
0.90625
 40
0.921875
 40
0.921875
 40
0.9375
 40
0.9375
 40
1.0
 40
1.0
 40
1.0
 40
1.0
 10
44.17591963948075
 20
553.361312620585
 30
0.0
 10
43.9823774495563
 20
553.3581276799597
 30
0.0
 10
43.79896013742551
 20
553.3623016108914
 30
0.0
 10
43.53902148591976
 20
553.3796008146248
 30
0.0
 10
43.45490648819955
 20
553.3872069337584
 30
0.0
 10
43.291738931656
 20
553.4060986078042
 30
0.0
 10
43.22099973430154
 20
553.4159582188154
 30
0.0
 10
42.7968262300819
 20
553.4887143023273
 30
0.0
 10
42.45992041206647
 20
553.5837068689754
 30
0.0
 10
41.47909419818024
 20
553.9701464455985
 30
0.0
 10
40.89643354376854
 20
554.3527479057235
 30
0.0
 10
39.89951331616598
 20
555.3421427894735
 30
0.0
 10
39.5131740858371
 20
555.92144627108
 30
0.0
 10
38.97635288592316
 20
557.2211430636705
 30
0.0
 10
38.84193093272681
 20
557.9010857394579
 30
0.0
 10
38.84107035893103
 20
559.3112637274207
 30
0.0
 10
38.97412549178531
 20
559.9874694129122
 30
0.0
 10
39.51258461724111
 20
561.2951752670492
 30
0.0
 10
39.89363348666186
 20
561.8671252441644
 30
0.0
 10
40.89706171312546
 20
562.8648099054593
 30
0.0
 10
41.47299969923185
 20
563.2426968964892
 30
0.0
 10
42.29367527790645
 20
563.5670123400823
 30
0.0
 10
42.45932579787925
 20
563.6230010067608
 30
0.0
 10
42.71007468419546
 20
563.6936723737184
 30
0.0
 10
42.79403649736035
 20
563.7150108905275
 30
0.0
 10
42.96271782580907
 20
563.7532507131259
 30
0.0
 10
43.0562781530941
 20
563.7716773947643
 30
0.0
 10
43.43756592480496
 20
563.8374640169133
 30
0.0
 10
43.78413364390793
 20
563.860850725326
 30
0.0
 10
44.17223886474514
 20
563.8549948444326
 30
0.0
  0
SPLINE
  5
85
330
1F
100
AcDbEntity
  8
0
  6
Continuous
 62
     7
370
    15
100
AcDbSpline
210
0.0
220
0.0
230
1.0
 70
     8
 71
     3
 72
    30
 73
    26
 74
     0
 42
0.000000001
 43
0.00000001
 40
0.0
 40
0.0
 40
0.0
 40
0.0
 40
0.0625
 40
0.0625
 40
0.09375
 40
0.09375
 40
0.109375
 40
0.109375
 40
0.125
 40
0.125
 40
0.25
 40
0.25
 40
0.5
 40
0.5
 40
0.75
 40
0.75
 40
0.8125
 40
0.8125
 40
0.84375
 40
0.84375
 40
0.859375
 40
0.859375
 40
0.875
 40
0.875
 40
1.0
 40
1.0
 40
1.0
 40
1.0
 10
49.32302796824361
 20
556.5277636787658
 30
0.0
 10
49.25548275880354
 20
556.3840863216227
 30
0.0
 10
49.1901731560353
 20
556.2534132955366
 30
0.0
 10
49.09556216189087
 20
556.0769102529929
 30
0.0
 10
49.06458406551067
 20
556.0213269882425
 30
0.0
 10
49.01895527344241
 20
555.9428287152634
 30
0.0
 10
49.0038854015033
 20
555.9174753949615
 30
0.0
 10
48.97402510845911
 20
555.8683942957397
 30
0.0
 10
48.96282998756713
 20
555.8502898903254
 30
0.0
 10
48.79861602445562
 20
555.5934444547171
 30
0.0
 10
48.63597663300606
 20
555.3780641956057
 30
0.0
 10
48.11539638296253
 20
554.7902955510438
 30
0.0
 10
47.70147007214143
 20
554.4475586573532
 30
0.0
 10
46.765063131334
 20
553.8756871466801
 30
0.0
 10
46.27298415883468
 20
553.6652382872791
 30
0.0
 10
45.63755157543714
 20
553.4990235661589
 30
0.0
 10
45.50833507032542
 20
553.470445338011
 30
0.0
 10
45.31131533000953
 20
553.434575069903
 30
0.0
 10
45.24510958612959
 20
553.4237844928859
 30
0.0
 10
45.14500222464751
 20
553.409347895889
 30
0.0
 10
45.11149997987646
 20
553.4048272416447
 30
0.0
 10
45.04422924178036
 20
553.3963690226658
 30
0.0
 10
45.00339269010295
 20
553.391671308894
 30
0.0
 10
44.76189065685509
 20
553.3656984704069
 30
0.0
 10
44.49501082639756
 20
553.3565408646182
 30
0.0
 10
44.17591963948081
 20
553.361312620585
 30
0.0
  0
LINE
  5
86
330
1F
100
AcDbEntity
  8
0
  6
Continuous
 62
     7
370
    15
100
AcDbLine
 10
49.3230279682
 20
560.6882681191
 30
0.0
 11
49.3230279682
 21
556.5277636788
 31
0.0
  0
SPLINE
  5
87
330
1F
100
AcDbEntity
  8
0
  6
Continuous
 62
     7
370
    15
100
AcDbSpline
210
0.0
220
0.0
230
1.0
 70
     8
 71
     3
 72
    24
 73
    20
 74
     0
 42
0.000000001
 43
0.00000001
 40
0.0
 40
0.0
 40
0.0
 40
0.0
 40
0.0625
 40
0.0625
 40
0.09375
 40
0.09375
 40
0.109375
 40
0.109375
 40
0.125
 40
0.125
 40
0.25
 40
0.25
 40
0.5
 40
0.5
 40
0.75
 40
0.75
 40
0.875
 40
0.875
 40
1.0
 40
1.0
 40
1.0
 40
1.0
 10
44.17223886474514
 20
563.8549948444326
 30
0.0
 10
44.32981577885886
 20
563.8573119011432
 30
0.0
 10
44.47531998971277
 20
563.8559917108836
 30
0.0
 10
44.67546725110388
 20
563.8485555550385
 30
0.0
 10
44.73916482908596
 20
563.8451675246808
 30
0.0
 10
44.83018393233667
 20
563.8387215115304
 30
0.0
 10
44.85976908946648
 20
563.8363455125445
 30
0.0
 10
44.91743031581868
 20
563.8311388587018
 30
0.0
 10
44.93943103353087
 20
563.8289881922492
 30
0.0
 10
45.24000292453939
 20
563.7953464514734
 30
0.0
 10
45.50053779432961
 20
563.7473217169254
 30
0.0
 10
46.28077872187036
 20
563.5440501370485
 30
0.0
 10
46.77198056112491
 20
563.335548308042
 30
0.0
 10
47.69145300940442
 20
562.7756229097423
 30
0.0
 10
48.10377766294705
 20
562.4303637523535
 30
0.0
 10
48.6364654228042
 20
561.8291805869889
 30
0.0
 10
48.80085559559694
 20
561.6124101473525
 30
0.0
 10
49.06255018369837
 20
561.2039282321011
 30
0.0
 10
49.19299187656367
 20
560.9639612085667
 30
0.0
 10
49.32302796824367
 20
560.6882681191234
 30
0.0
  0
SPLINE
  5
88
330
1F
100
AcDbEntity
  8
0
  6
Continuous
 62
     7
370
    15
100
AcDbSpline
210
0.0
220
0.0
230
1.0
 70
     8
 71
     3
 72
    10
 73
     6
 74
     0
 42
0.000000001
 43
0.00000001
 40
0.0
 40
0.0
 40
0.0
 40
0.0
 40
0.5
 40
0.5
 40
1.0
 40
1.0
 40
1.0
 40
1.0
 10
41.29463344471607
 20
315.1080158989445
 30
0.0
 10
41.31737005740482
 20
315.9255144722204
 30
0.0
 10
41.59313616422161
 20
316.581083417072
 30
0.0
 10
42.69080164945754
 20
317.6351851590334
 30
0.0
 10
43.36958552491122
 20
317.883107729483
 30
0.0
 10
44.1783205332002
 20
317.8519019994015
 30
0.0
  0
SPLINE
  5
89
330
1F
100
AcDbEntity
  8
0
  6
Continuous
 62
     7
370
    15
100
AcDbSpline
210
0.0
220
0.0
230
1.0
 70
     8
 71
     3
 72
    10
 73
     6
 74
     0
 42
0.000000001
 43
0.00000001
 40
0.0000006788292443
 40
0.0000006788292443
 40
0.0000006788292443
 40
0.0000006788292443
 40
0.5000003394146221
 40
0.5000003394146221
 40
1.0
 40
1.0
 40
1.0
 40
1.0
 10
44.17831724160437
 20
312.3641296713841
 30
0.0
 10
43.37532689048146
 20
312.3331229738028
 30
0.0
 10
42.68422826467911
 20
312.5877070308227
 30
0.0
 10
41.59970359254556
 20
313.6280941132594
 30
0.0
 10
41.31725943124681
 20
314.2947992222273
 30
0.0
 10
41.29463344471607
 20
315.1080158989445
 30
0.0
  0
SPLINE
  5
8A
330
1F
100
AcDbEntity
  8
0
  6
Continuous
 62
     7
370
    15
100
AcDbSpline
210
0.0
220
0.0
230
1.0
 70
     8
 71
     3
 72
    12
 73
     8
 74
     0
 42
0.000000001
 43
0.00000001
 40
0.0
 40
0.0
 40
0.0
 40
0.0
 40
0.2500001647032045
 40
0.2500001647032045
 40
0.500000329406409
 40
0.500000329406409
 40
1.000001317621575
 40
1.000001317621575
 40
1.000001317621575
 40
1.000001317621575
 10
47.19058264275377
 20
315.1080158989445
 30
0.0
 10
47.17834238950203
 20
314.6957058809592
 30
0.0
 10
47.09639725086156
 20
314.3211317499673
 30
0.0
 10
46.79309720280322
 20
313.6474552619706
 30
0.0
 10
46.56629766587772
 20
313.34346373082
 30
0.0
 10
45.70945222854617
 20
312.5740319012018
 30
0.0
 10
45.00866383178304
 20
312.333080426559
 30
0.0
 10
44.17831725094601
 20
312.3641299212222
 30
0.0
  0
SPLINE
  5
8B
330
1F
100
AcDbEntity
  8
0
  6
Continuous
 62
     7
370
    15
100
AcDbSpline
210
0.0
220
0.0
230
1.0
 70
     8
 71
     3
 72
    12
 73
     8
 74
     0
 42
0.000000001
 43
0.00000001
 40
0.0
 40
0.0
 40
0.0
 40
0.0
 40
0.25
 40
0.25
 40
0.5
 40
0.5
 40
1.0
 40
1.0
 40
1.0
 40
1.0
 10
44.1783205332002
 20
317.8519019994015
 30
0.0
 10
44.59320168151743
 20
317.8674208005949
 30
0.0
 10
44.97583934429872
 20
317.8149418996301
 30
0.0
 10
45.67662769878833
 20
317.5739886933838
 30
0.0
 10
45.98964597278682
 20
317.390118404527
 30
0.0
 10
46.86276484443363
 20
316.6068903329342
 30
0.0
 10
47.16606385979522
 20
315.9332148390282
 30
0.0
 10
47.19058264275377
 20
315.1080158989445
 30
0.0
  0
CIRCLE
  5
8C
330
1F
100
AcDbEntity
  8
0
  6
Continuous
 62
     7
370
    15
100
AcDbCircle
 10
369.4262054625
 20
144.2317312189
 30
0.0
 40
4.249999999999943
  0
CIRCLE
  5
8D
330
1F
100
AcDbEntity
  8
0
  6
Continuous
 62
     7
370
    15
100
AcDbCircle
 10
369.4262054625
 20
229.6698735589
 30
0.0
 40
4.249999999999943
  0
LINE
  5
8E
330
1F
100
AcDbEntity
  8
0
  6
Continuous
 62
     7
370
    15
100
AcDbLine
 10
352.3628520122
 20
119.5080158989
 30
0.0
 11
352.3628520122
 21
124.1080158989
 31
0.0
  0
LINE
  5
8F
330
1F
100
AcDbEntity
  8
0
  6
Continuous
 62
     7
370
    15
100
AcDbLine
 10
352.3628520122
 20
124.1080158989
 30
0.0
 11
334.7628520122
 21
124.1080158989
 31
0.0
  0
LINE
  5
90
330
1F
100
AcDbEntity
  8
0
  6
Continuous
 62
     7
370
    15
100
AcDbLine
 10
334.7628520122
 20
124.1080158989
 30
0.0
 11
334.7628520122
 21
119.5080158989
 31
0.0
  0
LINE
  5
91
330
1F
100
AcDbEntity
  8
0
  6
Continuous
 62
     7
370
    15
100
AcDbLine
 10
334.7628520122
 20
119.5080158989
 30
0.0
 11
352.3628520122
 21
119.5080158989
 31
0.0
  0
LINE
  5
92
330
1F
100
AcDbEntity
  8
0
  6
Continuous
 62
     7
370
    15
100
AcDbLine
 10
352.3628520122
 20
109.5080158989
 30
0.0
 11
352.3628520122
 21
114.1080158989
 31
0.0
  0
LINE
  5
93
330
1F
100
AcDbEntity
  8
0
  6
Continuous
 62
     7
370
    15
100
AcDbLine
 10
352.3628520122
 20
114.1080158989
 30
0.0
 11
334.7628520122
 21
114.1080158989
 31
0.0
  0
LINE
  5
94
330
1F
100
AcDbEntity
  8
0
  6
Continuous
 62
     7
370
    15
100
AcDbLine
 10
334.7628520122
 20
114.1080158989
 30
0.0
 11
334.7628520122
 21
109.5080158989
 31
0.0
  0
LINE
  5
95
330
1F
100
AcDbEntity
  8
0
  6
Continuous
 62
     7
370
    15
100
AcDbLine
 10
334.7628520122
 20
109.5080158989
 30
0.0
 11
352.3628520122
 21
109.5080158989
 31
0.0
  0
LINE
  5
96
330
1F
100
AcDbEntity
  8
0
  6
Continuous
 62
     7
370
    15
100
AcDbLine
 10
352.3628520122
 20
97.5080158989
 30
0.0
 11
352.3628520122
 21
102.1080158989
 31
0.0
  0
LINE
  5
97
330
1F
100
AcDbEntity
  8
0
  6
Continuous
 62
     7
370
    15
100
AcDbLine
 10
352.3628520122
 20
102.1080158989
 30
0.0
 11
334.7628520122
 21
102.1080158989
 31
0.0
  0
LINE
  5
98
330
1F
100
AcDbEntity
  8
0
  6
Continuous
 62
     7
370
    15
100
AcDbLine
 10
334.7628520122
 20
102.1080158989
 30
0.0
 11
334.7628520122
 21
97.5080158989
 31
0.0
  0
LINE
  5
99
330
1F
100
AcDbEntity
  8
0
  6
Continuous
 62
     7
370
    15
100
AcDbLine
 10
334.7628520122
 20
97.5080158989
 30
0.0
 11
352.3628520122
 21
97.5080158989
 31
0.0
  0
LINE
  5
9A
330
1F
100
AcDbEntity
  8
0
  6
Continuous
 62
     7
370
    15
100
AcDbLine
 10
352.3628520122
 20
85.5080158989
 30
0.0
 11
352.3628520122
 21
90.1080158989
 31
0.0
  0
LINE
  5
9B
330
1F
100
AcDbEntity
  8
0
  6
Continuous
 62
     7
370
    15
100
AcDbLine
 10
352.3628520122
 20
90.1080158989
 30
0.0
 11
334.7628520122
 21
90.1080158989
 31
0.0
  0
LINE
  5
9C
330
1F
100
AcDbEntity
  8
0
  6
Continuous
 62
     7
370
    15
100
AcDbLine
 10
334.7628520122
 20
90.1080158989
 30
0.0
 11
334.7628520122
 21
85.5080158989
 31
0.0
  0
LINE
  5
9D
330
1F
100
AcDbEntity
  8
0
  6
Continuous
 62
     7
370
    15
100
AcDbLine
 10
334.7628520122
 20
85.5080158989
 30
0.0
 11
352.3628520122
 21
85.5080158989
 31
0.0
  0
LINE
  5
9E
330
1F
100
AcDbEntity
  8
0
  6
Continuous
 62
     7
370
    15
100
AcDbLine
 10
352.3628520122
 20
74.5080158989
 30
0.0
 11
352.3628520122
 21
79.1080158989
 31
0.0
  0
LINE
  5
9F
330
1F
100
AcDbEntity
  8
0
  6
Continuous
 62
     7
370
    15
100
AcDbLine
 10
352.3628520122
 20
79.1080158989
 30
0.0
 11
334.7628520122
 21
79.1080158989
 31
0.0
  0
LINE
  5
A0
330
1F
100
AcDbEntity
  8
0
  6
Continuous
 62
     7
370
    15
100
AcDbLine
 10
334.7628520122
 20
79.1080158989
 30
0.0
 11
334.7628520122
 21
74.5080158989
 31
0.0
  0
LINE
  5
A1
330
1F
100
AcDbEntity
  8
0
  6
Continuous
 62
     7
370
    15
100
AcDbLine
 10
334.7628520122
 20
74.5080158989
 30
0.0
 11
352.3628520122
 21
74.5080158989
 31
0.0
  0
LINE
  5
A2
330
1F
100
AcDbEntity
  8
0
  6
Continuous
 62
     7
370
    15
100
AcDbLine
 10
154.9262054625
 20
554.6080158989
 30
0.0
 11
150.9262054625
 21
554.6080158989
 31
0.0
  0
LINE
  5
A3
330
1F
100
AcDbEntity
  8
0
  6
Continuous
 62
     7
370
    15
100
AcDbLine
 10
154.9262054625
 20
581.4449334888
 30
0.0
 11
154.9262054625
 21
554.6080158989
 31
0.0
  0
ARC
  5
A4
330
1F
100
AcDbEntity
  8
0
  6
Continuous
 62
     7
370
    15
100
AcDbCircle
 10
164.9262054625
 20
581.4449334888
 30
0.0
 40
10.00000000000013
100
AcDbArc
 50
111.8574646097
 51
180.0
  0
LINE
  5
A5
330
1F
100
AcDbEntity
  8
0
  6
Continuous
 62
     7
370
    15
100
AcDbLine
 10
169.4461668158
 20
594.03260093
 30
0.0
 11
161.203216759
 21
590.7260624672
 31
0.0
  0
ARC
  5
A6
330
1F
100
AcDbEntity
  8
0
  6
Continuous
 62
     7
370
    15
100
AcDbCircle
 10
172.4262054663
 20
586.6035901865
 30
0.0
 40
8.004425712432617
100
AcDbArc
 50
68.142535391
 51
111.857464609
  0
LINE
  5
A7
330
1F
100
AcDbEntity
  8
0
  6
Continuous
 62
     7
370
    15
100
AcDbLine
 10
211.7032167629
 20
579.4726029551
 30
0.0
 11
175.4062441168
 21
594.03260093
 31
0.0
  0
ARC
  5
A8
330
1F
100
AcDbEntity
  8
0
  6
Continuous
 62
     7
370
    15
100
AcDbCircle
 10
215.4262054663
 20
588.7537319335
 30
0.0
 40
10.00000000000018
100
AcDbArc
 50
248.142535391
 51
291.8574646097
  0
LINE
  5
A9
330
1F
100
AcDbEntity
  8
0
  6
Continuous
 62
     7
370
    15
100
AcDbLine
 10
255.4461668146
 20
594.03260093
 30
0.0
 11
219.1491941699
 21
579.4726029551
 31
0.0
  0
ARC
  5
AA
330
1F
100
AcDbEntity
  8
0
  6
Continuous
 62
     7
370
    15
100
AcDbCircle
 10
258.4262054625
 20
586.6035901865
 30
0.0
 40
8.004425712432774
100
AcDbArc
 50
68.1425353741
 51
111.8574645921
  0
LINE
  5
AB
330
1F
100
AcDbEntity
  8
0
  6
Continuous
 62
     7
370
    15
100
AcDbLine
 10
297.7032167604
 20
579.4726029556
 30
0.0
 11
261.4062441152
 21
594.0326009292
 31
0.0
  0
ARC
  5
AC
330
1F
100
AcDbEntity
  8
0
  6
Continuous
 62
     7
370
    15
100
AcDbCircle
 10
301.4262054638
 20
588.753731934
 30
0.0
 40
10.00000000000002
100
AcDbArc
 50
248.142535391
 51
291.8574646083
  0
LINE
  5
AD
330
1F
100
AcDbEntity
  8
0
  6
Continuous
 62
     7
370
    15
100
AcDbLine
 10
341.4461668133
 20
594.03260093
 30
0.0
 11
305.1491941672
 21
579.4726029555
 31
0.0
  0
ARC
  5
AE
330
1F
100
AcDbEntity
  8
0
  6
Continuous
 62
     7
370
    15
100
AcDbCircle
 10
344.4262054625
 20
586.6035901865
 30
0.0
 40
8.004425712432527
100
AcDbArc
 50
68.1425353825
 51
111.8574646005
  0
LINE
  5
AF
330
1F
100
AcDbEntity
  8
0
  6
Continuous
 62
     7
370
    15
100
AcDbLine
 10
355.649194166
 20
590.7260624694
 30
0.0
 11
347.4062441141
 21
594.0326009296
 31
0.0
  0
ARC
  5
B0
330
1F
100
AcDbEntity
  8
0
  6
Continuous
 62
     7
370
    15
100
AcDbCircle
 10
351.9262054625
 20
581.4449334909
 30
0.0
 40
10.00000000000007
100
AcDbArc
 50
0.0
 51
68.142535391
  0
ARC
  5
B1
330
1F
100
AcDbEntity
  8
0
  6
Continuous
 62
     7
370
    15
100
AcDbCircle
 10
323.3337249154
 20
591.9625589465
 30
0.0
 40
40.0000000000001
100
AcDbArc
 50
340.4831015221
 51
344.7553790867
  0
LINE
  5
B2
330
1F
100
AcDbEntity
  8
0
  6
Continuous
 62
     7
370
    15
100
AcDbLine
 10
361.007420242
 20
578.5072266523
 30
0.0
 11
361.0354448785
 21
578.5991644741
 31
0.0
  0
SPLINE
  5
B3
330
1F
100
AcDbEntity
  8
0
  6
Continuous
 62
     7
370
    15
100
AcDbSpline
210
0.0
220
0.0
230
1.0
 70
     8
 71
     3
 72
    14
 73
    10
 74
     0
 42
0.000000001
 43
0.00000001
 40
0.0
 40
0.0
 40
0.0
 40
0.0
 40
0.25
 40
0.25
 40
0.5
 40
0.5
 40
0.75
 40
0.75
 40
1.0
 40
1.0
 40
1.0
 40
1.0
 10
360.4386766726392
 20
575.5720211797919
 30
0.0
 10
360.4252404432611
 20
575.8614461525254
 30
0.0
 10
360.4252882569039
 20
576.1178477958733
 30
0.0
 10
360.4523519702315
 20
576.5646044237988
 30
0.0
 10
360.4854873399121
 20
576.8295785362232
 30
0.0
 10
360.5810868011923
 20
577.3231848529031
 30
0.0
 10
360.6470248542466
 20
577.573683360181
 30
0.0
 10
360.791665837806
 20
578.0060181133213
 30
0.0
 10
360.8876908031447
 20
578.2451434184931
 30
0.0
 10
361.0074202420424
 20
578.5072266522668
 30
0.0
  0
SPLINE
  5
B4
330
1F
100
AcDbEntity
  8
0
  6
Continuous
 62
     7
370
    15
100
AcDbSpline
210
0.0
220
0.0
230
1.0
 70
     8
 71
     3
 72
    38
 73
    34
 74
     0
 42
0.000000001
 43
0.00000001
 40
0.0
 40
0.0
 40
0.0
 40
0.0
 40
0.125
 40
0.125
 40
0.1875
 40
0.1875
 40
0.21875
 40
0.21875
 40
0.234375
 40
0.234375
 40
0.2421875
 40
0.2421875
 40
0.25
 40
0.25
 40
0.375
 40
0.375
 40
0.4375
 40
0.4375
 40
0.46875
 40
0.46875
 40
0.484375
 40
0.484375
 40
0.5
 40
0.5
 40
0.625
 40
0.625
 40
0.6875
 40
0.6875
 40
0.71875
 40
0.71875
 40
0.75
 40
0.75
 40
1.0
 40
1.0
 40
1.0
 40
1.0
 10
361.9262054625204
 20
558.6534756092086
 30
0.0
 10
361.9256747465177
 20
559.3491345634224
 30
0.0
 10
361.9221411002646
 20
559.9884912380311
 30
0.0
 10
361.9123362355093
 20
560.8630728305368
 30
0.0
 10
361.9083172146949
 20
561.1405244581373
 30
0.0
 10
361.9011625846294
 20
561.5355885446864
 30
0.0
 10
361.8985900248003
 20
561.6637576810608
 30
0.0
 10
361.8944496603456
 20
561.8507330469095
 30
0.0
 10
361.8930226180755
 20
561.9121784457401
 30
0.0
 10
361.8908116734927
 20
562.0030269593079
 30
0.0
 10
361.8900629617688
 20
562.0330898663842
 30
0.0
 10
361.8885420779284
 20
562.0927758189772
 30
0.0
 10
361.8880249070168
 20
562.1128341144431
 30
0.0
 10
361.8703635472162
 20
562.7752878158407
 30
0.0
 10
361.8473846703067
 20
563.378184635521
 30
0.0
 10
361.8033817240029
 20
564.251646339648
 30
0.0
 10
361.7871249700783
 20
564.5376529867914
 30
0.0
 10
361.7603561814564
 20
564.9589420761581
 30
0.0
 10
361.7510359756266
 20
565.0980849590557
 30
0.0
 10
361.7364597524483
 20
565.3048690630649
 30
0.0
 10
361.7315016923165
 20
565.373475394345
 30
0.0
 10
361.7213869339084
 20
565.5100446501265
 30
0.0
 10
361.7167555958929
 20
565.5712465601159
 30
0.0
 10
361.6647231974077
 20
566.2408666807255
 30
0.0
 10
361.6095385597975
 20
566.8282089701339
 30
0.0
 10
361.5133611782801
 20
567.6974090108797
 30
0.0
 10
361.479068646924
 20
567.9851734589006
 30
0.0
 10
361.4242797436145
 20
568.4138667825899
 30
0.0
 10
361.4054584247987
 20
568.5562723324297
 30
0.0
 10
361.3666990850754
 20
568.8400989826615
 30
0.0
 10
361.3457433918362
 20
568.9885173905676
 30
0.0
 10
361.1704350952381
 20
570.1939015039621
 30
0.0
 10
360.9622483460828
 20
571.3411557355246
 30
0.0
 10
360.7017044447484
 20
572.5642116534104
 30
0.0
  0
LINE
  5
B5
330
1F
100
AcDbEntity
  8
0
  6
Continuous
 62
     7
370
    15
100
AcDbLine
 10
361.9262054625
 20
558.6534756092
 30
0.0
 11
361.9262054625
 21
504.4080158989
 31
0.0
  0
LINE
  5
B6
330
1F
100
AcDbEntity
  8
0
  6
Continuous
 62
     7
370
    15
100
AcDbLine
 10
376.9262054625
 20
504.4080158989
 30
0.0
 11
361.9262054625
 21
504.4080158989
 31
0.0
  0
LINE
  5
B7
330
1F
100
AcDbEntity
  8
0
  6
Continuous
 62
     7
370
    15
100
AcDbLine
 10
376.9262054625
 20
504.4080158989
 30
0.0
 11
376.9262054625
 21
125.8080158989
 31
0.0
  0
LINE
  5
B8
330
1F
100
AcDbEntity
  8
0
  6
Continuous
 62
     7
370
    15
100
AcDbLine
 10
376.9262054625
 20
125.8080158989
 30
0.0
 11
361.9262054625
 21
125.8080158989
 31
0.0
  0
LINE
  5
B9
330
1F
100
AcDbEntity
  8
0
  6
Continuous
 62
     7
370
    15
100
AcDbLine
 10
361.9262054625
 20
61.0687087848
 30
0.0
 11
361.9262054625
 21
125.8080158989
 31
0.0
  0
SPLINE
  5
BA
330
1F
100
AcDbEntity
  8
0
  6
Continuous
 62
     7
370
    15
100
AcDbSpline
210
0.0
220
0.0
230
1.0
 70
     8
 71
     3
 72
    26
 73
    22
 74
     0
 42
0.000000001
 43
0.00000001
 40
0.0
 40
0.0
 40
0.0
 40
0.0
 40
0.125
 40
0.125
 40
0.1875
 40
0.1875
 40
0.25
 40
0.25
 40
0.375
 40
0.375
 40
0.5
 40
0.5
 40
0.625
 40
0.625
 40
0.6875
 40
0.6875
 40
0.71875
 40
0.71875
 40
0.75
 40
0.75
 40
1.0
 40
1.0
 40
1.0
 40
1.0
 10
360.4386764439796
 20
54.64400152604987
 30
0.0
 10
360.4280217020284
 20
54.94018798612382
 30
0.0
 10
360.4266660656409
 20
55.2269946026121
 30
0.0
 10
360.4385812694051
 20
55.6431347619647
 30
0.0
 10
360.4448777803842
 20
55.77950318751896
 30
0.0
 10
360.4621203551239
 20
56.04755011683443
 30
0.0
 10
360.4724508531569
 20
56.17322950557807
 30
0.0
 10
360.5141100707958
 20
56.57922747922456
 30
0.0
 10
360.5516425485053
 20
56.85132337440562
 30
0.0
 10
360.6462268358247
 20
57.39837632360128
 30
0.0
 10
360.7056257092748
 20
57.68304277880565
 30
0.0
 10
360.8345545327148
 20
58.21639924328881
 30
0.0
 10
360.9075340696197
 20
58.4824406501932
 30
0.0
 10
361.0297760627544
 20
58.88054752254418
 30
0.0
 10
361.0726521750955
 20
59.0130906069935
 30
0.0
 10
361.1401595155516
 20
59.21166642416614
 30
0.0
 10
361.1631941576944
 20
59.27781856164016
 30
0.0
 10
361.210327832628
 20
59.41004323342091
 30
0.0
 10
361.2377398699456
 20
59.48499745001357
 30
0.0
 10
361.4296038822389
 20
59.99935690395058
 30
0.0
 10
361.6519863385679
 20
60.50821033208153
 30
0.0
 10
361.9262054625205
 20
61.06870878484405
 30
0.0
  0
SPLINE
  5
BB
330
1F
100
AcDbEntity
  8
0
  6
Continuous
 62
     7
370
    15
100
AcDbSpline
210
0.0
220
0.0
230
1.0
 70
     8
 71
     3
 72
    26
 73
    22
 74
     0
 42
0.000000001
 43
0.00000001
 40
0.0
 40
0.0
 40
0.0
 40
0.0
 40
0.125
 40
0.125
 40
0.1875
 40
0.1875
 40
0.21875
 40
0.21875
 40
0.25
 40
0.25
 40
0.5
 40
0.5
 40
0.625
 40
0.625
 40
0.6875
 40
0.6875
 40
0.71875
 40
0.71875
 40
0.75
 40
0.75
 40
1.0
 40
1.0
 40
1.0
 40
1.0
 10
361.0523419202655
 20
51.61686732340532
 30
0.0
 10
360.9859441297355
 20
51.7562906748007
 30
0.0
 10
360.9274807838376
 20
51.88596103135112
 30
0.0
 10
360.8516874319391
 20
52.06583707390911
 30
0.0
 10
360.8284065924643
 20
52.12335750605052
 30
0.0
 10
360.7964607499891
 20
52.20598078119571
 30
0.0
 10
360.7863080386202
 20
52.23291231073296
 30
0.0
 10
360.7669944214616
 20
52.28555624545189
 30
0.0
 10
360.7599011210115
 20
52.30527871938489
 30
0.0
 10
360.6633076459494
 20
52.58511368765656
 30
0.0
 10
360.5945772590888
 20
52.83656697124134
 30
0.0
 10
360.5175640713229
 20
53.21590890674172
 30
0.0
 10
360.4960640131028
 20
53.34361471013788
 30
0.0
 10
360.4700704323255
 20
53.53706115257623
 30
0.0
 10
360.4624486564919
 20
53.60185792294631
 30
0.0
 10
360.4525801193797
 20
53.69952501283753
 30
0.0
 10
360.4495512947819
 20
53.7321593651906
 30
0.0
 10
360.4440150211325
 20
53.79758538134205
 30
0.0
 10
360.4410755586636
 20
53.83669744028124
 30
0.0
 10
360.4247428279128
 20
54.07564675970422
 30
0.0
 10
360.4245480389719
 20
54.33589814683365
 30
0.0
 10
360.4386764439796
 20
54.64400152604987
 30
0.0
  0
ARC
  5
BC
330
1F
100
AcDbEntity
  8
0
  6
Continuous
 62
     7
370
    15
100
AcDbCircle
 10
367.9262054625
 20
54.6168673238
 30
0.0
 40
7.499999999999799
100
AcDbArc
 50
203.5781784792
 51
216.8698976458
  0
LINE
  5
BD
330
1F
100
AcDbEntity
  8
0
  6
Continuous
 62
     7
370
    15
100
AcDbLine
 10
361.9262054625
 20
48.7710983069
 30
0.0
 11
361.9262054625
 21
50.1168673238
 31
0.0
  0
ARC
  5
BE
330
1F
100
AcDbEntity
  8
0
  6
Continuous
 62
     7
370
    15
100
AcDbCircle
 10
351.9262054625
 20
48.7710983069
 30
0.0
 40
9.999999999999963
100
AcDbArc
 50
291.857464609
 51
0.0
  0
LINE
  5
BF
330
1F
100
AcDbEntity
  8
0
  6
Continuous
 62
     7
370
    15
100
AcDbLine
 10
355.649194166
 20
39.4899693285
 30
0.0
 11
347.4062441141
 21
36.1834308683
 31
0.0
  0
ARC
  5
C0
330
1F
100
AcDbEntity
  8
0
  6
Continuous
 62
     7
370
    15
100
AcDbCircle
 10
344.4262054625
 20
43.6124416114
 30
0.0
 40
8.00442571243258
100
AcDbArc
 50
248.1425353995
 51
291.8574646175
  0
LINE
  5
C1
330
1F
100
AcDbEntity
  8
0
  6
Continuous
 62
     7
370
    15
100
AcDbLine
 10
341.4461668133
 20
36.1834308679
 30
0.0
 11
305.1491941672
 21
50.7434288424
 31
0.0
  0
ARC
  5
C2
330
1F
100
AcDbEntity
  8
0
  6
Continuous
 62
     7
370
    15
100
AcDbCircle
 10
301.4262054638
 20
41.4622998639
 30
0.0
 40
10.00000000000001
100
AcDbArc
 50
68.1425353917
 51
111.857464609
  0
LINE
  5
C3
330
1F
100
AcDbEntity
  8
0
  6
Continuous
 62
     7
370
    15
100
AcDbLine
 10
297.7032167604
 20
50.7434288423
 30
0.0
 11
261.4062441152
 21
36.1834308687
 31
0.0
  0
ARC
  5
C4
330
1F
100
AcDbEntity
  8
0
  6
Continuous
 62
     7
370
    15
100
AcDbCircle
 10
258.4262054625
 20
43.6124416114
 30
0.0
 40
8.004425712432651
100
AcDbArc
 50
261.1553868464
 51
291.8574646259
  0
LINE
  5
C5
330
1F
100
AcDbEntity
  8
0
  6
Continuous
 62
     7
370
    15
100
AcDbLine
 10
257.1954828233
 20
35.7031968452
 30
0.0
 11
161.6961633
 21
50.5634240909
 31
0.0
  0
ARC
  5
C6
330
1F
100
AcDbEntity
  8
0
  6
Continuous
 62
     7
370
    15
100
AcDbCircle
 10
162.9262054625
 20
58.4682957709
 30
0.0
 40
8.000000000000057
100
AcDbArc
 50
238.9179156336
 51
261.1553868464
  0
SPLINE
  5
C7
330
1F
100
AcDbEntity
  8
0
  6
Continuous
 62
     7
370
    15
100
AcDbSpline
210
0.0
220
0.0
230
1.0
 70
     8
 71
     3
 72
    30
 73
    26
 74
     0
 42
0.000000001
 43
0.00000001
 40
0.0
 40
0.0
 40
0.0
 40
0.0
 40
0.125
 40
0.125
 40
0.15625
 40
0.15625
 40
0.1875
 40
0.1875
 40
0.25
 40
0.25
 40
0.375
 40
0.375
 40
0.5
 40
0.5
 40
0.625
 40
0.625
 40
0.75
 40
0.75
 40
0.875
 40
0.875
 40
0.90625
 40
0.90625
 40
0.9375
 40
0.9375
 40
1.0
 40
1.0
 40
1.0
 40
1.0
 10
154.9262054625204
 20
60.12418326795805
 30
0.0
 10
154.9305664426144
 20
59.66708036255275
 30
0.0
 10
154.9480924643988
 20
59.25037645978998
 30
0.0
 10
154.9864562937423
 20
58.7799953346389
 30
0.0
 10
154.9949518747166
 20
58.68844404727375
 30
0.0
 10
155.0135886668766
 20
58.51039134787389
 30
0.0
 10
155.0259659626143
 20
58.40390301195908
 30
0.0
 10
155.0652834036802
 20
58.09919087169413
 30
0.0
 10
155.0961277077785
 20
57.89871701901589
 30
0.0
 10
155.2025586502366
 20
57.30529818347618
 30
0.0
 10
155.2974853958492
 20
56.89561436366341
 30
0.0
 10
155.5285373204332
 20
56.11043520526482
 30
0.0
 10
155.664646404118
 20
55.73100325532904
 30
0.0
 10
155.9780308142735
 20
54.99845461398484
 30
0.0
 10
156.1573090568198
 20
54.63977250027008
 30
0.0
 10
156.5694001566019
 20
53.93724732739224
 30
0.0
 10
156.7966390701333
 20
53.60338149439786
 30
0.0
 10
157.2935036244769
 20
52.97044333529838
 30
0.0
 10
157.5664322448472
 20
52.66774771506999
 30
0.0
 10
157.931643914799
 20
52.31826388519717
 30
0.0
 10
158.0016602111355
 20
52.25359105375915
 30
0.0
 10
158.1357107617155
 20
52.1349847339474
 30
0.0
 10
158.2073348524424
 20
52.07406334697173
 30
0.0
 10
158.4360035709342
 20
51.88644450483532
 30
0.0
 10
158.6068446450101
 20
51.75489236846514
 30
0.0
 10
158.7960809808338
 20
51.61686732381582
 30
0.0
  0
LINE
  5
C8
330
1F
100
AcDbEntity
  8
0
  6
Continuous
 62
     7
370
    15
100
AcDbLine
 10
154.9262054625
 20
60.124183268
 30
0.0
 11
154.9262054625
 21
75.6080158989
 31
0.0
  0
LINE
  5
C9
330
1F
100
AcDbEntity
  8
0
  6
Continuous
 62
     7
370
    15
100
AcDbLine
 10
154.9262054625
 20
75.6080158989
 30
0.0
 11
150.9262054625
 21
75.6080158989
 31
0.0
  0
LINE
  5
CA
330
1F
100
AcDbEntity
  8
0
  6
Continuous
 62
     7
370
    15
100
AcDbLine
 10
150.9262054625
 20
69.6080158989
 30
0.0
 11
150.9262054625
 21
75.6080158989
 31
0.0
  0
ARC
  5
CB
330
1F
100
AcDbEntity
  8
0
  6
Continuous
 62
     7
370
    15
100
AcDbCircle
 10
142.9262054625
 20
69.6080158989
 30
0.0
 40
8.000000000000014
100
AcDbArc
 50
270.0
 51
0.0
  0
LINE
  5
CC
330
1F
100
AcDbEntity
  8
0
  6
Continuous
 62
     7
370
    15
100
AcDbLine
 10
142.9262054625
 20
61.6080158989
 30
0.0
 11
34.1656387887
 21
61.6080158989
 31
0.0
  0
LINE
  5
CD
330
1F
100
AcDbEntity
  8
0
  6
Continuous
 62
     7
370
    15
100
AcDbLine
 10
34.1656387887
 20
61.6080158989
 30
0.0
 11
34.1656387887
 21
568.6080158989
 31
0.0
  0
LINE
  5
CE
330
1F
100
AcDbEntity
  8
0
  6
Continuous
 62
     7
370
    15
100
AcDbLine
 10
142.9262054625
 20
568.6080158989
 30
0.0
 11
34.1656387887
 21
568.6080158989
 31
0.0
  0
ARC
  5
CF
330
1F
100
AcDbEntity
  8
0
  6
Continuous
 62
     7
370
    15
100
AcDbCircle
 10
142.9262054625
 20
560.6080158989
 30
0.0
 40
8.0
100
AcDbArc
 50
0.0
 51
90.0
  0
LINE
  5
D0
330
1F
100
AcDbEntity
  8
0
  6
Continuous
 62
     7
370
    15
100
AcDbLine
 10
150.9262054625
 20
560.6080158989
 30
0.0
 11
150.9262054625
 21
554.6080158989
 31
0.0
  0
CIRCLE
  5
D1
330
1F
100
AcDbEntity
  8
0
  6
Continuous
 62
     7
370
    15
100
AcDbCircle
 10
369.4262054625
 20
485.9843005789
 30
0.0
 40
4.249999999999943
  0
CIRCLE
  5
D2
330
1F
100
AcDbEntity
  8
0
  6
Continuous
 62
     7
370
    15
100
AcDbCircle
 10
369.4262054625
 20
400.5461582389
 30
0.0
 40
4.249999999999943
  0
LINE
  5
D3
330
1F
100
AcDbEntity
  8
0
  6
Continuous
 62
     7
370
    15
100
AcDbLine
 10
334.7628520122
 20
506.1080158989
 30
0.0
 11
334.7628520122
 21
510.7080158989
 31
0.0
  0
LINE
  5
D4
330
1F
100
AcDbEntity
  8
0
  6
Continuous
 62
     7
370
    15
100
AcDbLine
 10
352.3628520122
 20
506.1080158989
 30
0.0
 11
334.7628520122
 21
506.1080158989
 31
0.0
  0
LINE
  5
D5
330
1F
100
AcDbEntity
  8
0
  6
Continuous
 62
     7
370
    15
100
AcDbLine
 10
352.3628520122
 20
510.7080158989
 30
0.0
 11
352.3628520122
 21
506.1080158989
 31
0.0
  0
LINE
  5
D6
330
1F
100
AcDbEntity
  8
0
  6
Continuous
 62
     7
370
    15
100
AcDbLine
 10
334.7628520122
 20
510.7080158989
 30
0.0
 11
352.3628520122
 21
510.7080158989
 31
0.0
  0
LINE
  5
D7
330
1F
100
AcDbEntity
  8
0
  6
Continuous
 62
     7
370
    15
100
AcDbLine
 10
334.7628520122
 20
516.1080158989
 30
0.0
 11
334.7628520122
 21
520.7080158989
 31
0.0
  0
LINE
  5
D8
330
1F
100
AcDbEntity
  8
0
  6
Continuous
 62
     7
370
    15
100
AcDbLine
 10
352.3628520122
 20
516.1080158989
 30
0.0
 11
334.7628520122
 21
516.1080158989
 31
0.0
  0
LINE
  5
D9
330
1F
100
AcDbEntity
  8
0
  6
Continuous
 62
     7
370
    15
100
AcDbLine
 10
352.3628520122
 20
520.7080158989
 30
0.0
 11
352.3628520122
 21
516.1080158989
 31
0.0
  0
LINE
  5
DA
330
1F
100
AcDbEntity
  8
0
  6
Continuous
 62
     7
370
    15
100
AcDbLine
 10
334.7628520122
 20
520.7080158989
 30
0.0
 11
352.3628520122
 21
520.7080158989
 31
0.0
  0
LINE
  5
DB
330
1F
100
AcDbEntity
  8
0
  6
Continuous
 62
     7
370
    15
100
AcDbLine
 10
334.7628520122
 20
528.1080158989
 30
0.0
 11
334.7628520122
 21
532.7080158989
 31
0.0
  0
LINE
  5
DC
330
1F
100
AcDbEntity
  8
0
  6
Continuous
 62
     7
370
    15
100
AcDbLine
 10
352.3628520122
 20
528.1080158989
 30
0.0
 11
334.7628520122
 21
528.1080158989
 31
0.0
  0
LINE
  5
DD
330
1F
100
AcDbEntity
  8
0
  6
Continuous
 62
     7
370
    15
100
AcDbLine
 10
352.3628520122
 20
532.7080158989
 30
0.0
 11
352.3628520122
 21
528.1080158989
 31
0.0
  0
LINE
  5
DE
330
1F
100
AcDbEntity
  8
0
  6
Continuous
 62
     7
370
    15
100
AcDbLine
 10
334.7628520122
 20
532.7080158989
 30
0.0
 11
352.3628520122
 21
532.7080158989
 31
0.0
  0
LINE
  5
DF
330
1F
100
AcDbEntity
  8
0
  6
Continuous
 62
     7
370
    15
100
AcDbLine
 10
334.7628520122
 20
540.1080158989
 30
0.0
 11
334.7628520122
 21
544.7080158989
 31
0.0
  0
LINE
  5
E0
330
1F
100
AcDbEntity
  8
0
  6
Continuous
 62
     7
370
    15
100
AcDbLine
 10
352.3628520122
 20
540.1080158989
 30
0.0
 11
334.7628520122
 21
540.1080158989
 31
0.0
  0
LINE
  5
E1
330
1F
100
AcDbEntity
  8
0
  6
Continuous
 62
     7
370
    15
100
AcDbLine
 10
352.3628520122
 20
544.7080158989
 30
0.0
 11
352.3628520122
 21
540.1080158989
 31
0.0
  0
LINE
  5
E2
330
1F
100
AcDbEntity
  8
0
  6
Continuous
 62
     7
370
    15
100
AcDbLine
 10
334.7628520122
 20
544.7080158989
 30
0.0
 11
352.3628520122
 21
544.7080158989
 31
0.0
  0
LINE
  5
E3
330
1F
100
AcDbEntity
  8
0
  6
Continuous
 62
     7
370
    15
100
AcDbLine
 10
334.7628520122
 20
551.1080158989
 30
0.0
 11
334.7628520122
 21
555.7080158989
 31
0.0
  0
LINE
  5
E4
330
1F
100
AcDbEntity
  8
0
  6
Continuous
 62
     7
370
    15
100
AcDbLine
 10
352.3628520122
 20
551.1080158989
 30
0.0
 11
334.7628520122
 21
551.1080158989
 31
0.0
  0
LINE
  5
E5
330
1F
100
AcDbEntity
  8
0
  6
Continuous
 62
     7
370
    15
100
AcDbLine
 10
352.3628520122
 20
555.7080158989
 30
0.0
 11
352.3628520122
 21
551.1080158989
 31
0.0
  0
LINE
  5
E6
330
1F
100
AcDbEntity
  8
0
  6
Continuous
 62
     7
370
    15
100
AcDbLine
 10
334.7628520122
 20
555.7080158989
 30
0.0
 11
352.3628520122
 21
555.7080158989
 31
0.0
  0
CIRCLE
  5
E7
330
1F
100
AcDbEntity
  8
0
  6
Continuous
 62
     7
370
    15
100
AcDbCircle
 10
369.4262054625
 20
315.1080158989
 30
0.0
 40
4.249999999999943
  0
CIRCLE
  5
E8
330
1F
100
AcDbEntity
  8
0
  6
Continuous
 62
     7
370
    15
100
AcDbCircle
 10
349.7462054625
 20
461.2580158989
 30
0.0
 40
5.249999999999943
  0
CIRCLE
  5
E9
330
1F
100
AcDbEntity
  8
0
  6
Continuous
 62
     7
370
    15
100
AcDbCircle
 10
286.0062054625
 20
461.2580158989
 30
0.0
 40
5.250000000000057
  0
CIRCLE
  5
EA
330
1F
100
AcDbEntity
  8
0
  6
Continuous
 62
     7
370
    15
100
AcDbCircle
 10
273.3811198804
 20
323.2304095913
 30
0.0
 40
5.25
  0
CIRCLE
  5
EB
330
1F
100
AcDbEntity
  8
0
  6
Continuous
 62
     7
370
    15
100
AcDbCircle
 10
349.8811198804
 20
323.2304095913
 30
0.0
 40
5.249999999999943
  0
CIRCLE
  5
EC
330
1F
100
AcDbEntity
  8
0
  6
Continuous
 62
     7
370
    15
100
AcDbCircle
 10
175.8811191998
 20
218.9080158989
 30
0.0
 40
5.25
  0
CIRCLE
  5
ED
330
1F
100
AcDbEntity
  8
0
  6
Continuous
 62
     7
370
    15
100
AcDbCircle
 10
252.3811191998
 20
218.9080158989
 30
0.0
 40
5.25
  0
CIRCLE
  5
EE
330
1F
100
AcDbEntity
  8
0
  6
Continuous
 62
     7
370
    15
100
AcDbCircle
 10
95.3652962647
 20
360.9080158989
 30
0.0
 40
3.249999999999972
  0
CIRCLE
  5
EF
330
1F
100
AcDbEntity
  8
0
  6
Continuous
 62
     7
370
    15
100
AcDbCircle
 10
95.3652962647
 20
270.9080158989
 30
0.0
 40
3.249999999999972
  0
CIRCLE
  5
F0
330
1F
100
AcDbEntity
  8
0
  6
Continuous
 62
     7
370
    15
100
AcDbCircle
 10
95.3652962647
 20
180.9080158989
 30
0.0
 40
3.250000000000028
  0
CIRCLE
  5
F1
330
1F
100
AcDbEntity
  8
0
  6
Continuous
 62
     7
370
    15
100
AcDbCircle
 10
95.3652962647
 20
450.9080158989
 30
0.0
 40
3.250000000000043
  0
CIRCLE
  5
F2
330
1F
100
AcDbEntity
  8
0
  6
Continuous
 62
     7
370
    15
100
AcDbCircle
 10
256.3962054625
 20
482.4780158989
 30
0.0
 40
3.250000000000057
  0
CIRCLE
  5
F3
330
1F
100
AcDbEntity
  8
0
  6
Continuous
 62
     7
370
    15
100
AcDbCircle
 10
201.3962054625
 20
482.4780158989
 30
0.0
 40
3.25
  0
SPLINE
  5
F4
330
1F
100
AcDbEntity
  8
0
  6
Continuous
 62
     7
370
    15
100
AcDbSpline
210
0.0
220
0.0
230
1.0
 70
     8
 71
     3
 72
    10
 73
     6
 74
     0
 42
0.000000001
 43
0.00000001
 40
0.0
 40
0.0
 40
0.0
 40
0.0
 40
0.5
 40
0.5
 40
1.0
 40
1.0
 40
1.0
 40
1.0
 10
360.7017044447484
 20
572.5642116534104
 30
0.0
 10
360.5859714640527
 20
573.1288320262329
 30
0.0
 10
360.512434649999
 20
573.6048098637982
 30
0.0
 10
360.4310909344636
 20
574.5143833765889
 30
0.0
 10
360.4200622279329
 20
575.0185248964548
 30
0.0
 10
360.4386766726392
 20
575.5720211797919
 30
0.0
  0
SPLINE
  5
F5
330
1F
100
AcDbEntity
  8
0
  6
Continuous
 62
     7
370
    15
100
AcDbSpline
210
0.0
220
0.0
230
1.0
 70
     8
 71
     3
 72
    24
 73
    20
 74
     0
 42
0.000000001
 43
0.00000001
 40
0.0
 40
0.0
 40
0.0
 40
0.0
 40
0.125
 40
0.125
 40
0.25
 40
0.25
 40
0.5
 40
0.5
 40
0.75
 40
0.75
 40
0.8125
 40
0.8125
 40
0.84375
 40
0.84375
 40
0.859375
 40
0.859375
 40
0.875
 40
0.875
 40
1.0
 40
1.0
 40
1.0
 40
1.0
 10
49.32302796824361
 20
69.52776367876557
 30
0.0
 10
49.19231961645454
 20
69.25052671874946
 30
0.0
 10
49.06265621659745
 20
69.01162591279666
 30
0.0
 10
48.80541932074689
 20
68.61049660901728
 30
0.0
 10
48.63687831655628
 20
68.38745713867259
 30
0.0
 10
48.10277119763878
 20
67.78455952132606
 30
0.0
 10
47.69104782991101
 20
67.44039165112781
 30
0.0
 10
46.77239211866374
 20
66.88049384075262
 30
0.0
 10
46.27450705607489
 20
66.67053925505734
 30
0.0
 10
45.63214945597804
 20
66.50294518984367
 30
0.0
 10
45.50226466060753
 20
66.47404264546661
 30
0.0
 10
45.30531755452488
 20
66.4376132318995
 30
0.0
 10
45.23931520032626
 20
66.4266241612102
 30
0.0
 10
45.13978169077154
 20
66.4118716559259
 30
0.0
 10
45.10651552454387
 20
66.40724267095605
 30
0.0
 10
45.03980653266964
 20
66.39856173459957
 30
0.0
 10
45.00001900322908
 20
66.39379767301276
 30
0.0
 10
44.75534093917016
 20
66.3663357534593
 30
0.0
 10
44.48847637686293
 20
66.35643262173882
 30
0.0
 10
44.17223886474525
 20
66.36103695345652
 30
0.0
  0
ENDSEC
  0
SECTION
  2
OBJECTS
  0
DICTIONARY
  5
C
330
0
100
AcDbDictionary
281
     1
  3
ACAD_GROUP
350
D
  3
ACAD_LAYOUT
350
1A
  3
ACAD_MLINESTYLE
350
17
  3
ACAD_PLOTSETTINGS
350
19
  3
ACAD_PLOTSTYLENAME
350
E
  3
ACAD_SCALELIST
350
47
  0
DICTIONARY
  5
D
102
{ACAD_REACTORS
330
C
102
}
330
C
100
AcDbDictionary
281
     1
  0
DICTIONARY
  5
1A
102
{ACAD_REACTORS
330
C
102
}
330
C
100
AcDbDictionary
281
     1
  3
Layout1
350
1E
  3
Layout2
350
26
  3
Model
350
22
  0
DICTIONARY
  5
17
102
{ACAD_REACTORS
330
C
102
}
330
C
100
AcDbDictionary
281
     1
  3
Standard
350
18
  0
DICTIONARY
  5
19
102
{ACAD_REACTORS
330
C
102
}
330
C
100
AcDbDictionary
281
     1
  0
ACDBDICTIONARYWDFLT
  5
E
102
{ACAD_REACTORS
330
C
102
}
330
C
100
AcDbDictionary
281
     1
  3
Normal
350
F
100
AcDbDictionaryWithDefault
340
F
  0
DICTIONARY
  5
47
102
{ACAD_REACTORS
330
C
102
}
330
C
100
AcDbDictionary
281
     1
  3
A0
350
48
  3
A1
350
49
  3
A2
350
4A
  3
A3
350
4B
  3
A4
350
4C
  3
A5
350
4D
  3
A6
350
4E
  3
A7
350
4F
  3
A8
350
50
  3
A9
350
51
  3
B0
350
52
  3
B1
350
53
  3
B2
350
54
  3
B3
350
55
  3
B4
350
56
  3
B5
350
57
  3
B6
350
58
  3
B7
350
59
  3
B8
350
5A
  3
B9
350
5B
  3
C0
350
5C
  3
C1
350
5D
  3
C2
350
5E
  3
C3
350
5F
  3
C4
350
60
  3
C5
350
61
  3
C6
350
62
  3
C7
350
63
  3
C8
350
64
  3
C9
350
65
  3
D0
350
66
  3
D1
350
67
  3
D2
350
68
  0
LAYOUT
  5
1E
102
{ACAD_REACTORS
330
1A
102
}
330
1A
100
AcDbPlotSettings
  1

  2
none_device
  4

  6

 40
0.0
 41
0.0
 42
0.0
 43
0.0
 44
0.0
 45
0.0
 46
0.0
 47
0.0
 48
0.0
 49
0.0
140
0.0
141
0.0
142
1.0
143
1.0
 70
   688
 72
     1
 73
     0
 74
     5
  7

 75
    16
147
1.0
148
0.0
149
0.0
100
AcDbLayout
  1
Layout1
 70
     1
 71
     1
 10
0.0
 20
0.0
 11
420.0
 21
297.0
 12
0.0
 22
0.0
 32
0.0
 14
1.0000000000E+20
 24
1.0000000000E+20
 34
1.0000000000E+20
 15
-1.0000000000E+20
 25
-1.0000000000E+20
 35
-1.0000000000E+20
146
0.0
 13
0.0
 23
0.0
 33
0.0
 16
1.0
 26
0.0
 36
0.0
 17
0.0
 27
1.0
 37
0.0
 76
     0
330
1B
  0
LAYOUT
  5
26
102
{ACAD_REACTORS
330
1A
102
}
330
1A
100
AcDbPlotSettings
  1

  2
none_device
  4

  6

 40
0.0
 41
0.0
 42
0.0
 43
0.0
 44
0.0
 45
0.0
 46
0.0
 47
0.0
 48
0.0
 49
0.0
140
0.0
141
0.0
142
1.0
143
1.0
 70
   688
 72
     1
 73
     0
 74
     5
  7

 75
    16
147
1.0
148
0.0
149
0.0
100
AcDbLayout
  1
Layout2
 70
     1
 71
     2
 10
0.0
 20
0.0
 11
0.0
 21
0.0
 12
0.0
 22
0.0
 32
0.0
 14
0.0
 24
0.0
 34
0.0
 15
0.0
 25
0.0
 35
0.0
146
0.0
 13
0.0
 23
0.0
 33
0.0
 16
1.0
 26
0.0
 36
0.0
 17
0.0
 27
1.0
 37
0.0
 76
     0
330
23
  0
LAYOUT
  5
22
102
{ACAD_REACTORS
330
1A
102
}
330
1A
100
AcDbPlotSettings
  1

  2
none_device
  4
Letter_(8.50_x_11.00_Inches)
  6

 40
6.35
 41
6.35
 42
6.35000508
 43
6.35000508
 44
215.9
 45
279.4
 46
0.0
 47
0.0
 48
0.0
 49
0.0
140
0.0
141
0.0
142
1.0
143
1.0
 70
  1712
 72
     1
 73
     0
 74
     0
  7

 75
     0
147
1.0
148
0.0
149
0.0
100
AcDbLayout
  1
Model
 70
     1
 71
     0
 10
0.0
 20
0.0
 11
1189.0
 21
841.0
 12
0.0
 22
0.0
 32
0.0
 14
0.0
 24
0.0
 34
0.0
 15
1189.0
 25
841.0
 35
0.0
146
0.0
 13
0.0
 23
0.0
 33
0.0
 16
1.0
 26
0.0
 36
0.0
 17
0.0
 27
1.0
 37
0.0
 76
     0
330
1F
331
29
  0
MLINESTYLE
  5
18
102
{ACAD_REACTORS
330
17
102
}
330
17
100
AcDbMlineStyle
  2
Standard
 70
     0
  3

 62
   256
 51
90.0
 52
90.0
 71
     2
 49
0.5
 62
   256
  6
BYLAYER
 49
-0.5
 62
   256
  6
BYLAYER
  0
ACDBPLACEHOLDER
  5
F
102
{ACAD_REACTORS
330
E
102
}
330
E
  0
SCALE
  5
48
102
{ACAD_REACTORS
330
47
102
}
330
47
100
AcDbScale
 70
     0
300
1:1
140
1.0
141
1.0
290
     1
  0
SCALE
  5
49
102
{ACAD_REACTORS
330
47
102
}
330
47
100
AcDbScale
 70
     0
300
1:2
140
1.0
141
2.0
290
     0
  0
SCALE
  5
4A
102
{ACAD_REACTORS
330
47
102
}
330
47
100
AcDbScale
 70
     0
300
1:4
140
1.0
141
4.0
290
     0
  0
SCALE
  5
4B
102
{ACAD_REACTORS
330
47
102
}
330
47
100
AcDbScale
 70
     0
300
1:5
140
1.0
141
5.0
290
     0
  0
SCALE
  5
4C
102
{ACAD_REACTORS
330
47
102
}
330
47
100
AcDbScale
 70
     0
300
1:8
140
1.0
141
8.0
290
     0
  0
SCALE
  5
4D
102
{ACAD_REACTORS
330
47
102
}
330
47
100
AcDbScale
 70
     0
300
1:10
140
1.0
141
10.0
290
     0
  0
SCALE
  5
4E
102
{ACAD_REACTORS
330
47
102
}
330
47
100
AcDbScale
 70
     0
300
1:16
140
1.0
141
16.0
290
     0
  0
SCALE
  5
4F
102
{ACAD_REACTORS
330
47
102
}
330
47
100
AcDbScale
 70
     0
300
1:20
140
1.0
141
20.0
290
     0
  0
SCALE
  5
50
102
{ACAD_REACTORS
330
47
102
}
330
47
100
AcDbScale
 70
     0
300
1:30
140
1.0
141
30.0
290
     0
  0
SCALE
  5
51
102
{ACAD_REACTORS
330
47
102
}
330
47
100
AcDbScale
 70
     0
300
1:40
140
1.0
141
40.0
290
     0
  0
SCALE
  5
52
102
{ACAD_REACTORS
330
47
102
}
330
47
100
AcDbScale
 70
     0
300
1:50
140
1.0
141
50.0
290
     0
  0
SCALE
  5
53
102
{ACAD_REACTORS
330
47
102
}
330
47
100
AcDbScale
 70
     0
300
1:100
140
1.0
141
100.0
290
     0
  0
SCALE
  5
54
102
{ACAD_REACTORS
330
47
102
}
330
47
100
AcDbScale
 70
     0
300
2:1
140
2.0
141
1.0
290
     0
  0
SCALE
  5
55
102
{ACAD_REACTORS
330
47
102
}
330
47
100
AcDbScale
 70
     0
300
4:1
140
4.0
141
1.0
290
     0
  0
SCALE
  5
56
102
{ACAD_REACTORS
330
47
102
}
330
47
100
AcDbScale
 70
     0
300
8:1
140
8.0
141
1.0
290
     0
  0
SCALE
  5
57
102
{ACAD_REACTORS
330
47
102
}
330
47
100
AcDbScale
 70
     0
300
10:1
140
10.0
141
1.0
290
     0
  0
SCALE
  5
58
102
{ACAD_REACTORS
330
47
102
}
330
47
100
AcDbScale
 70
     0
300
100:1
140
100.0
141
1.0
290
     0
  0
SCALE
  5
59
102
{ACAD_REACTORS
330
47
102
}
330
47
100
AcDbScale
 70
     0
300
1/128" = 1'-0"
140
0.0078125
141
12.0
290
     0
  0
SCALE
  5
5A
102
{ACAD_REACTORS
330
47
102
}
330
47
100
AcDbScale
 70
     0
300
1/64" = 1'-0"
140
0.015625
141
12.0
290
     0
  0
SCALE
  5
5B
102
{ACAD_REACTORS
330
47
102
}
330
47
100
AcDbScale
 70
     0
300
1/32" = 1'-0"
140
0.03125
141
12.0
290
     0
  0
SCALE
  5
5C
102
{ACAD_REACTORS
330
47
102
}
330
47
100
AcDbScale
 70
     0
300
1/16" = 1'-0"
140
0.0625
141
12.0
290
     0
  0
SCALE
  5
5D
102
{ACAD_REACTORS
330
47
102
}
330
47
100
AcDbScale
 70
     0
300
3/32" = 1'-0"
140
0.09375
141
12.0
290
     0
  0
SCALE
  5
5E
102
{ACAD_REACTORS
330
47
102
}
330
47
100
AcDbScale
 70
     0
300
1/8" = 1'-0"
140
0.125
141
12.0
290
     0
  0
SCALE
  5
5F
102
{ACAD_REACTORS
330
47
102
}
330
47
100
AcDbScale
 70
     0
300
3/16" = 1'-0"
140
0.1875
141
12.0
290
     0
  0
SCALE
  5
60
102
{ACAD_REACTORS
330
47
102
}
330
47
100
AcDbScale
 70
     0
300
1/4" = 1'-0"
140
0.25
141
12.0
290
     0
  0
SCALE
  5
61
102
{ACAD_REACTORS
330
47
102
}
330
47
100
AcDbScale
 70
     0
300
3/8" = 1'-0"
140
0.375
141
12.0
290
     0
  0
SCALE
  5
62
102
{ACAD_REACTORS
330
47
102
}
330
47
100
AcDbScale
 70
     0
300
1/2" = 1'-0"
140
0.5
141
12.0
290
     0
  0
SCALE
  5
63
102
{ACAD_REACTORS
330
47
102
}
330
47
100
AcDbScale
 70
     0
300
3/4" = 1'-0"
140
0.75
141
12.0
290
     0
  0
SCALE
  5
64
102
{ACAD_REACTORS
330
47
102
}
330
47
100
AcDbScale
 70
     0
300
1" = 1'-0"
140
1.0
141
12.0
290
     0
  0
SCALE
  5
65
102
{ACAD_REACTORS
330
47
102
}
330
47
100
AcDbScale
 70
     0
300
1-1/2" = 1'-0"
140
1.5
141
12.0
290
     0
  0
SCALE
  5
66
102
{ACAD_REACTORS
330
47
102
}
330
47
100
AcDbScale
 70
     0
300
3" = 1'-0"
140
3.0
141
12.0
290
     0
  0
SCALE
  5
67
102
{ACAD_REACTORS
330
47
102
}
330
47
100
AcDbScale
 70
     0
300
6" = 1'-0"
140
6.0
141
12.0
290
     0
  0
SCALE
  5
68
102
{ACAD_REACTORS
330
47
102
}
330
47
100
AcDbScale
 70
     0
300
1'-0" = 1'-0"
140
12.0
141
12.0
290
     0
  0
ENDSEC
  0
EOF
