  0
SECTION
  2
HEADER
  9
$ACADVER
  1
AC1015
  9
$ACADMAINTVER
 70
     6
  9
$DWGCODEPAGE
  3
ANSI_1252
  9
$INSBASE
 10
0.0
 20
0.0
 30
0.0
  9
$EXTMIN
 10
0.0
 20
0.0
 30
0.0
  9
$EXTMAX
 10
841.0
 20
594.0
 30
0.0
  9
$LIMMIN
 10
0.0
 20
0.0
  9
$LIMMAX
 10
841.0
 20
594.0
  9
$ORTHOMODE
 70
     0
  9
$REGENMODE
 70
     1
  9
$FILLMODE
 70
     1
  9
$QTEXTMODE
 70
     0
  9
$MIRRTEXT
 70
     1
  9
$LTSCALE
 40
1.0
  9
$ATTMODE
 70
     1
  9
$TEXTSIZE
 40
3.5
  9
$TRACEWID
 40
1.0
  9
$TEXTSTYLE
  7
Standard
  9
$CLAYER
  8
0
  9
$CELTYPE
  6
ByLayer
  9
$CECOLOR
 62
   256
  9
$CELTSCALE
 40
1.0
  9
$DISPSILH
 70
     0
  9
$DIMSCALE
 40
1.0
  9
$DIMASZ
 40
3.556
  9
$DIMEXO
 40
1.0
  9
$DIMDLI
 40
3.75
  9
$DIMRND
 40
0.0
  9
$DIMDLE
 40
0.0
  9
$DIMEXE
 40
1.0
  9
$DIMTP
 40
0.0
  9
$DIMTM
 40
0.0
  9
$DIMTXT
 40
3.5
  9
$DIMCEN
 40
2.5
  9
$DIMTSZ
 40
0.0
  9
$DIMTOL
 70
     0
  9
$DIMLIM
 70
     0
  9
$DIMTIH
 70
     1
  9
$DIMTOH
 70
     1
  9
$DIMSE1
 70
     0
  9
$DIMSE2
 70
     0
  9
$DIMTAD
 70
     1
  9
$DIMZIN
 70
     0
  9
$DIMBLK
  1

  9
$DIMASO
 70
     1
  9
$DIMSHO
 70
     1
  9
$DIMPOST
  1

  9
$DIMAPOST
  1

  9
$DIMALT
 70
     0
  9
$DIMALTD
 70
     3
  9
$DIMALTF
 40
0.0393700787
  9
$DIMLFAC
 40
1.0
  9
$DIMTOFL
 70
     1
  9
$DIMTVP
 40
0.0
  9
$DIMTIX
 70
     0
  9
$DIMSOXD
 70
     0
  9
$DIMSAH
 70
     0
  9
$DIMBLK1
  1

  9
$DIMBLK2
  1

  9
$DIMSTYLE
  2
ISO-25
  9
$DIMCLRD
 70
     0
  9
$DIMCLRE
 70
     0
  9
$DIMCLRT
 70
     0
  9
$DIMTFAC
 40
1.0
  9
$DIMGAP
 40
1.524
  9
$DIMJUST
 70
     0
  9
$DIMSD1
 70
     0
  9
$DIMSD2
 70
     0
  9
$DIMTOLJ
 70
     0
  9
$DIMTZIN
 70
     0
  9
$DIMALTZ
 70
     0
  9
$DIMALTTZ
 70
     0
  9
$DIMUPT
 70
     0
  9
$DIMDEC
 70
     2
  9
$DIMTDEC
 70
     2
  9
$DIMALTU
 70
     2
  9
$DIMALTTD
 70
     3
  9
$DIMTXSTY
  7
Standard
  9
$DIMAUNIT
 70
     0
  9
$DIMADEC
 70
     2
  9
$DIMALTRND
 40
0.0
  9
$DIMAZIN
 70
     0
  9
$DIMDSEP
 70
    44
  9
$DIMATFIT
 70
     3
  9
$DIMFRAC
 70
     0
  9
$DIMLDRBLK
  1

  9
$DIMLUNIT
 70
     2
  9
$DIMLWD
 70
    -2
  9
$DIMLWE
 70
    -2
  9
$DIMTMOVE
 70
     0
  9
$LUNITS
 70
     2
  9
$LUPREC
 70
     5
  9
$SKETCHINC
 40
1.0
  9
$FILLETRAD
 40
10.0
  9
$AUNITS
 70
     0
  9
$AUPREC
 70
     2
  9
$MENU
  1
.
  9
$ELEVATION
 40
0.0
  9
$PELEVATION
 40
0.0
  9
$THICKNESS
 40
0.0
  9
$LIMCHECK
 70
     0
  9
$CHAMFERA
 40
0.0
  9
$CHAMFERB
 40
0.0
  9
$CHAMFERC
 40
0.0
  9
$CHAMFERD
 40
0.0
  9
$SKPOLY
 70
     0
  9
$TDCREATE
 40
2457825.583790579
  9
$TDUCREATE
 40
2457825.583790579
  9
$TDUPDATE
 40
2457825.583791099
  9
$TDUUPDATE
 40
2457825.583791099
  9
$TDINDWG
 40
0.0000000116
  9
$TDUSRTIMER
 40
0.0000000116
  9
$USRTIMER
 70
     1
  9
$ANGBASE
 50
0.0
  9
$ANGDIR
 70
     0
  9
$PDMODE
 70
     0
  9
$PDSIZE
 40
-1.0
  9
$PLINEWID
 40
0.0
  9
$SPLFRAME
 70
     0
  9
$SPLINETYPE
 70
     6
  9
$SPLINESEGS
 70
     8
  9
$HANDSEED
  5
F5
  9
$SURFTAB1
 70
     6
  9
$SURFTAB2
 70
     6
  9
$SURFTYPE
 70
     6
  9
$SURFU
 70
     6
  9
$SURFV
 70
     6
  9
$UCSBASE
  2

  9
$UCSNAME
  2

  9
$UCSORG
 10
0.0
 20
0.0
 30
0.0
  9
$UCSXDIR
 10
1.0
 20
0.0
 30
0.0
  9
$UCSYDIR
 10
0.0
 20
1.0
 30
0.0
  9
$UCSORTHOREF
  2

  9
$UCSORTHOVIEW
 70
     0
  9
$UCSORGTOP
 10
0.0
 20
0.0
 30
0.0
  9
$UCSORGBOTTOM
 10
0.0
 20
0.0
 30
0.0
  9
$UCSORGLEFT
 10
0.0
 20
0.0
 30
0.0
  9
$UCSORGRIGHT
 10
0.0
 20
0.0
 30
0.0
  9
$UCSORGFRONT
 10
0.0
 20
0.0
 30
0.0
  9
$UCSORGBACK
 10
0.0
 20
0.0
 30
0.0
  9
$PUCSBASE
  2

  9
$PUCSNAME
  2

  9
$PUCSORG
 10
0.0
 20
0.0
 30
0.0
  9
$PUCSXDIR
 10
1.0
 20
0.0
 30
0.0
  9
$PUCSYDIR
 10
0.0
 20
1.0
 30
0.0
  9
$PUCSORTHOREF
  2

  9
$PUCSORTHOVIEW
 70
     0
  9
$PUCSORGTOP
 10
0.0
 20
0.0
 30
0.0
  9
$PUCSORGBOTTOM
 10
0.0
 20
0.0
 30
0.0
  9
$PUCSORGLEFT
 10
0.0
 20
0.0
 30
0.0
  9
$PUCSORGRIGHT
 10
0.0
 20
0.0
 30
0.0
  9
$PUCSORGFRONT
 10
0.0
 20
0.0
 30
0.0
  9
$PUCSORGBACK
 10
0.0
 20
0.0
 30
0.0
  9
$USERI1
 70
     0
  9
$USERI2
 70
     0
  9
$USERI3
 70
     0
  9
$USERI4
 70
     0
  9
$USERI5
 70
     0
  9
$USERR1
 40
0.0
  9
$USERR2
 40
0.0
  9
$USERR3
 40
0.0
  9
$USERR4
 40
0.0
  9
$USERR5
 40
0.0
  9
$WORLDVIEW
 70
     1
  9
$SHADEDGE
 70
     3
  9
$SHADEDIF
 70
    70
  9
$TILEMODE
 70
     1
  9
$MAXACTVP
 70
    64
  9
$PINSBASE
 10
0.0
 20
0.0
 30
0.0
  9
$PLIMCHECK
 70
     0
  9
$PEXTMIN
 10
1.0000000000E+20
 20
1.0000000000E+20
 30
1.0000000000E+20
  9
$PEXTMAX
 10
-1.0000000000E+20
 20
-1.0000000000E+20
 30
-1.0000000000E+20
  9
$PLIMMIN
 10
0.0
 20
0.0
  9
$PLIMMAX
 10
420.0
 20
297.0
  9
$UNITMODE
 70
     0
  9
$VISRETAIN
 70
     1
  9
$PLINEGEN
 70
     0
  9
$PSLTSCALE
 70
     1
  9
$TREEDEPTH
 70
  3020
  9
$CMLSTYLE
  2
Standard
  9
$CMLJUST
 70
     0
  9
$CMLSCALE
 40
20.0
  9
$PROXYGRAPHICS
 70
     1
  9
$MEASUREMENT
 70
     1
  9
$CELWEIGHT
370
    -1
  9
$ENDCAPS
280
     0
  9
$JOINSTYLE
280
     0
  9
$LWDISPLAY
290
     1
  9
$INSUNITS
 70
     4
  9
$HYPERLINKBASE
  1

  9
$STYLESHEET
  1

  9
$XEDIT
290
     1
  9
$CEPSNTYPE
380
     0
  9
$PSTYLEMODE
290
     1
  9
$FINGERPRINTGUID
  2
{F15F0DAA-E4C7-4C1C-A1A2-FA1F95FB29DE}
  9
$VERSIONGUID
  2
{FAEB1C32-E019-11D5-929B-00C0DF256EC4}
  9
$EXTNAMES
290
     1
  9
$PSVPSCALE
 40
0.0
  9
$OLESTARTUP
290
     0
  0
ENDSEC
  0
SECTION
  2
CLASSES
  0
CLASS
  1
ACDBDICTIONARYWDFLT
  2
AcDbDictionaryWithDefault
  3
ObjectDBX Classes
 90
        0
280
     0
281
     0
  0
CLASS
  1
VISUALSTYLE
  2
AcDbVisualStyle
  3
ObjectDBX Classes
 90
     4095
280
     0
281
     0
  0
CLASS
  1
MATERIAL
  2
AcDbMaterial
  3
ObjectDBX Classes
 90
     1153
280
     0
281
     0
  0
CLASS
  1
SCALE
  2
AcDbScale
  3
ObjectDBX Classes
 90
     1153
280
     0
281
     0
  0
CLASS
  1
TABLESTYLE
  2
AcDbTableStyle
  3
ObjectDBX Classes
 90
     4095
280
     0
281
     0
  0
CLASS
  1
MLEADERSTYLE
  2
AcDbMLeaderStyle
  3
ACDB_MLEADERSTYLE_CLASS
 90
     4095
280
     0
281
     0
  0
CLASS
  1
SUN
  2
AcDbSun
  3
SCENEOE
 90
     1153
280
     0
281
     0
  0
CLASS
  1
ACDBPLACEHOLDER
  2
AcDbPlaceHolder
  3
ObjectDBX Classes
 90
        0
280
     0
281
     0
  0
CLASS
  1
LAYOUT
  2
AcDbLayout
  3
ObjectDBX Classes
 90
        0
280
     0
281
     0
  0
ENDSEC
  0
SECTION
  2
TABLES
  0
TABLE
  2
VPORT
  5
8
330
0
100
AcDbSymbolTable
 70
     1
  0
VPORT
  5
29
330
8
100
AcDbSymbolTableRecord
100
AcDbViewportTableRecord
  2
*Active
 70
     0
 10
0.0
 20
0.0
 11
1.0
 21
1.0
 12
420.5
 22
297.0
 13
0.0
 23
0.0
 14
10.0
 24
10.0
 15
10.0
 25
10.0
 16
0.0
 26
0.0
 36
1.0
 17
0.0
 27
0.0
 37
0.0
 40
594.0
 41
1.4158249158
 42
50.0
 43
0.0
 44
0.0
 50
0.0
 51
0.0
 71
     0
 72
  2000
 73
     1
 74
     3
 75
     0
 76
     0
 77
     0
 78
     0
281
     0
 65
     1
110
0.0
120
0.0
130
0.0
111
1.0
121
0.0
131
0.0
112
0.0
122
1.0
132
0.0
 79
     0
146
0.0
  0
ENDTAB
  0
TABLE
  2
LTYPE
  5
5
330
0
100
AcDbSymbolTable
 70
     6
  0
LTYPE
  5
14
330
5
100
AcDbSymbolTableRecord
100
AcDbLinetypeTableRecord
  2
ByBlock
 70
     0
  3

 72
    65
 73
     0
 40
0.0
  0
LTYPE
  5
15
330
5
100
AcDbSymbolTableRecord
100
AcDbLinetypeTableRecord
  2
ByLayer
 70
     0
  3

 72
    65
 73
     0
 40
0.0
  0
LTYPE
  5
16
330
5
100
AcDbSymbolTableRecord
100
AcDbLinetypeTableRecord
  2
Continuous
 70
     0
  3
Solid line
 72
    65
 73
     0
 40
0.0
  0
LTYPE
  5
6E
330
5
100
AcDbSymbolTableRecord
100
AcDbLinetypeTableRecord
  2
HIDDEN
 70
     0
  3
Hidden __ __ __ __ __ __ __ __ __ __ __ __ __ __
 72
    65
 73
     2
 40
1.905
 49
1.27
 74
     0
 49
-0.635
 74
     0
  0
LTYPE
  5
6F
330
5
100
AcDbSymbolTableRecord
100
AcDbLinetypeTableRecord
  2
PHANTOM
 70
     0
  3
Phantom ______  __  __  ______  __  __  ______
 72
    65
 73
     6
 40
12.7
 49
6.35
 74
     0
 49
-1.27
 74
     0
 49
1.27
 74
     0
 49
-1.27
 74
     0
 49
1.27
 74
     0
 49
-1.27
 74
     0
  0
LTYPE
  5
70
330
5
100
AcDbSymbolTableRecord
100
AcDbLinetypeTableRecord
  2
CENTER
 70
     0
  3
Center ____ _ ____ _ ____ _ ____ _ ____ _ ____
 72
    65
 73
     4
 40
10.16
 49
6.35
 74
     0
 49
-1.27
 74
     0
 49
1.27
 74
     0
 49
-1.27
 74
     0
  0
LTYPE
  5
71
330
5
100
AcDbSymbolTableRecord
100
AcDbLinetypeTableRecord
  2
CENTERX2
 70
     0
  3
Center (2x) ________  __  ________  __  _____
 72
    65
 73
     4
 40
20.32
 49
12.7
 74
     0
 49
-2.54
 74
     0
 49
2.54
 74
     0
 49
-2.54
 74
     0
  0
LTYPE
  5
72
330
5
100
AcDbSymbolTableRecord
100
AcDbLinetypeTableRecord
  2
DOT2
 70
     0
  3
Dot (.5x) ........................................
 72
    65
 73
     2
 40
0.635
 49
0.0
 74
     0
 49
-0.635
 74
     0
  0
ENDTAB
  0
TABLE
  2
LAYER
  5
2
330
0
100
AcDbSymbolTable
 70
     2
  0
LAYER
  5
10
330
2
100
AcDbSymbolTableRecord
100
AcDbLayerTableRecord
  2
0
 70
     0
 62
     7
  6
Continuous
370
    -3
390
F
  0
LAYER
  5
73
330
2
100
AcDbSymbolTableRecord
100
AcDbLayerTableRecord
  2
FORMAT
 70
     0
 62
     7
  6
Continuous
370
    -3
390
F
  0
ENDTAB
  0
TABLE
  2
STYLE
  5
3
330
0
100
AcDbSymbolTable
 70
     1
  0
STYLE
  5
11
330
3
100
AcDbSymbolTableRecord
100
AcDbTextStyleTableRecord
  2
Standard
 70
     0
 40
0.0
 41
1.0
 50
0.0
 71
     0
 42
3.5
  3
txt
  4

  0
ENDTAB
  0
TABLE
  2
VIEW
  5
6
330
0
100
AcDbSymbolTable
 70
     0
  0
ENDTAB
  0
TABLE
  2
UCS
  5
7
330
0
100
AcDbSymbolTable
 70
     0
  0
ENDTAB
  0
TABLE
  2
APPID
  5
9
330
0
100
AcDbSymbolTable
 70
     1
  0
APPID
  5
12
330
9
100
AcDbSymbolTableRecord
100
AcDbRegAppTableRecord
  2
ACAD
 70
     0
  0
ENDTAB
  0
TABLE
  2
DIMSTYLE
  5
A
330
0
100
AcDbSymbolTable
 70
     1
100
AcDbDimStyleTable
  0
DIMSTYLE
105
27
330
A
100
AcDbSymbolTableRecord
100
AcDbDimStyleTableRecord
  2
ISO-25
 70
     0
 41
2.5
 42
0.625
 43
3.75
 44
1.25
 73
     0
 74
     0
 77
     1
 78
     8
140
2.5
141
2.5
143
0.0393700787
147
0.625
171
     3
172
     1
178
     0
271
     2
272
     2
274
     3
278
    44
283
     0
284
     8
340
11
  0
ENDTAB
  0
TABLE
  2
BLOCK_RECORD
  5
1
330
0
100
AcDbSymbolTable
 70
     1
  0
BLOCK_RECORD
  5
1F
330
1
100
AcDbSymbolTableRecord
100
AcDbBlockTableRecord
  2
*Model_Space
340
22
  0
BLOCK_RECORD
  5
1B
330
1
100
AcDbSymbolTableRecord
100
AcDbBlockTableRecord
  2
*Paper_Space
340
1E
  0
BLOCK_RECORD
  5
23
330
1
100
AcDbSymbolTableRecord
100
AcDbBlockTableRecord
  2
*Paper_Space0
340
26
  0
ENDTAB
  0
ENDSEC
  0
SECTION
  2
BLOCKS
  0
BLOCK
  5
20
330
1F
100
AcDbEntity
  8
0
100
AcDbBlockBegin
  2
*Model_Space
 70
     0
 10
0.0
 20
0.0
 30
0.0
  3
*Model_Space
  1

  0
ENDBLK
  5
21
330
1F
100
AcDbEntity
  8
0
100
AcDbBlockEnd
  0
BLOCK
  5
1C
330
1B
100
AcDbEntity
 67
     1
  8
0
100
AcDbBlockBegin
  2
*Paper_Space
 70
     0
 10
0.0
 20
0.0
 30
0.0
  3
*Paper_Space
  1

  0
ENDBLK
  5
1D
330
1B
100
AcDbEntity
 67
     1
  8
0
100
AcDbBlockEnd
  0
BLOCK
  5
24
330
23
100
AcDbEntity
  8
0
100
AcDbBlockBegin
  2
*Paper_Space0
 70
     0
 10
0.0
 20
0.0
 30
0.0
  3
*Paper_Space0
  1

  0
ENDBLK
  5
25
330
23
100
AcDbEntity
  8
0
100
AcDbBlockEnd
  0
ENDSEC
  0
SECTION
  2
ENTITIES
  0
CIRCLE
  5
74
330
1F
100
AcDbEntity
  8
0
  6
Continuous
 62
     7
370
    15
100
AcDbCircle
 10
44.3393937786
 20
167.0816320588
 30
0.0
 40
4.250000000000028
  0
CIRCLE
  5
75
330
1F
100
AcDbEntity
  8
0
  6
Continuous
 62
     7
370
    15
100
AcDbCircle
 10
44.3393937786
 20
253.0816320588
 30
0.0
 40
4.250000000000028
  0
CIRCLE
  5
76
330
1F
100
AcDbEntity
  8
0
  6
Continuous
 62
     7
370
    15
100
AcDbCircle
 10
44.3393937786
 20
339.0816320588
 30
0.0
 40
4.249999999999979
  0
CIRCLE
  5
77
330
1F
100
AcDbEntity
  8
0
  6
Continuous
 62
     7
370
    15
100
AcDbCircle
 10
585.7451441903
 20
253.0816320588
 30
0.0
 40
4.249999999999886
  0
CIRCLE
  5
78
330
1F
100
AcDbEntity
  8
0
  6
Continuous
 62
     7
370
    15
100
AcDbCircle
 10
585.7451441903
 20
339.0816320588
 30
0.0
 40
4.249999999999773
  0
SPLINE
  5
79
330
1F
100
AcDbEntity
  8
0
  6
Continuous
 62
     7
370
    15
100
AcDbSpline
210
0.0
220
0.0
230
1.0
 70
     8
 71
     3
 72
    14
 73
    10
 74
     0
 42
0.000000001
 43
0.00000001
 40
0.0
 40
0.0
 40
0.0
 40
0.0
 40
0.25
 40
0.25
 40
0.5
 40
0.5
 40
0.75
 40
0.75
 40
1.000000064073885
 40
1.000000064073885
 40
1.000000064073885
 40
1.000000064073885
 10
401.0458092077313
 20
39.05223960068358
 30
0.0
 10
401.0274549261412
 20
39.8727902468953
 30
0.0
 10
401.2723066247277
 20
40.55544994003626
 30
0.0
 10
402.3064352844207
 20
41.67958357988446
 30
0.0
 10
403.0326283237196
 20
42.00245403169748
 30
0.0
 10
404.5520147922023
 20
42.00319483871876
 30
0.0
 10
405.2817774880095
 20
41.67515657210421
 30
0.0
 10
406.3086298716991
 20
40.55971588766097
 30
0.0
 10
406.5564938320663
 20
39.8712714815119
 30
0.0
 10
406.5387955609561
 20
39.05210301143583
 30
0.0
  0
SPLINE
  5
7A
330
1F
100
AcDbEntity
  8
0
  6
Continuous
 62
     7
370
    15
100
AcDbSpline
210
0.0
220
0.0
230
1.0
 70
     8
 71
     3
 72
    16
 73
    12
 74
     0
 42
0.000000001
 43
0.00000001
 40
0.0
 40
0.0
 40
0.0
 40
0.0
 40
0.25
 40
0.25
 40
0.5
 40
0.5
 40
0.625
 40
0.625
 40
0.75
 40
0.75
 40
1.0
 40
1.0
 40
1.0
 40
1.0
 10
406.5387969512003
 20
39.05210235125747
 30
0.0
 10
406.5563068342441
 20
38.25395869796785
 30
0.0
 10
406.2976887539106
 20
37.57215914245945
 30
0.0
 10
405.2610859652619
 20
36.5011926252354
 30
0.0
 10
404.539881133508
 20
36.1989284130291
 30
0.0
 10
403.4183442800945
 20
36.19848139478696
 30
0.0
 10
403.0590153817937
 20
36.27089356561871
 30
0.0
 10
402.3680124680737
 20
36.56141986330505
 30
0.0
 10
402.0671282752275
 20
36.76629625295572
 30
0.0
 10
401.280902660468
 20
37.57774907385517
 30
0.0
 10
401.0278213729426
 20
38.24956876522004
 30
0.0
 10
401.0458092077314
 20
39.05223960068352
 30
0.0
  0
SPLINE
  5
7B
330
1F
100
AcDbEntity
  8
0
  6
Continuous
 62
     7
370
    15
100
AcDbSpline
210
0.0
220
0.0
230
1.0
 70
     8
 71
     3
 72
    14
 73
    10
 74
     0
 42
0.000000001
 43
0.00000001
 40
0.0
 40
0.0
 40
0.0
 40
0.0
 40
0.25
 40
0.25
 40
0.5
 40
0.5
 40
0.75
 40
0.75
 40
1.000000064073879
 40
1.000000064073879
 40
1.000000064073879
 40
1.000000064073879
 10
489.7958092077311
 20
39.05223960067791
 30
0.0
 10
489.7774549261814
 20
39.87279024628362
 30
0.0
 10
490.0223066251727
 20
40.55544994019392
 30
0.0
 10
491.0564352840212
 20
41.67958357977678
 30
0.0
 10
491.7826283240449
 20
42.00245403169752
 30
0.0
 10
493.3020147919559
 20
42.00319483871858
 30
0.0
 10
494.0317774880643
 20
41.67515657218998
 30
0.0
 10
495.0586298717225
 20
40.55971588748994
 30
0.0
 10
495.3064938320773
 20
39.87127148132733
 30
0.0
 10
495.2887955609577
 20
39.0521030113519
 30
0.0
  0
SPLINE
  5
7C
330
1F
100
AcDbEntity
  8
0
  6
Continuous
 62
     7
370
    15
100
AcDbSpline
210
0.0
220
0.0
230
1.0
 70
     8
 71
     3
 72
    16
 73
    12
 74
     0
 42
0.000000001
 43
0.00000001
 40
0.0
 40
0.0
 40
0.0
 40
0.0
 40
0.25
 40
0.25
 40
0.5
 40
0.5
 40
0.625
 40
0.625
 40
0.75
 40
0.75
 40
1.0
 40
1.0
 40
1.0
 40
1.0
 10
495.2887969512045
 20
39.05210235117354
 30
0.0
 10
495.3063068342133
 20
38.25395869830364
 30
0.0
 10
495.0476887534233
 20
37.57215914200521
 30
0.0
 10
494.0110859656546
 20
36.50119262559207
 30
0.0
 10
493.2898811333353
 20
36.1989284130291
 30
0.0
 10
492.1683442801207
 20
36.19848139478702
 30
0.0
 10
491.8090153816432
 20
36.27089356569865
 30
0.0
 10
491.1180124681601
 20
36.56141986325176
 30
0.0
 10
490.8171282752075
 20
36.766296253019
 30
0.0
 10
490.0309026604641
 20
37.57774907377345
 30
0.0
 10
489.7778213729434
 20
38.24956876513166
 30
0.0
 10
489.7958092077311
 20
39.05223960067791
 30
0.0
  0
SPLINE
  5
7D
330
1F
100
AcDbEntity
  8
0
  6
Continuous
 62
     7
370
    15
100
AcDbSpline
210
0.0
220
0.0
230
1.0
 70
     8
 71
     3
 72
    30
 73
    26
 74
     0
 42
0.000000001
 43
0.00000001
 40
0.0
 40
0.0
 40
0.0
 40
0.0
 40
0.0625
 40
0.0625
 40
0.125
 40
0.125
 40
0.25
 40
0.25
 40
0.375
 40
0.375
 40
0.5
 40
0.5
 40
0.625
 40
0.625
 40
0.75
 40
0.75
 40
0.875
 40
0.875
 40
0.9375
 40
0.9375
 40
0.953125
 40
0.953125
 40
0.96875
 40
0.96875
 40
1.0
 40
1.0
 40
1.0
 40
1.0
 10
553.294106976236
 20
39.05143429459049
 30
0.0
 10
553.2923089689591
 20
39.49038448252498
 30
0.0
 10
553.309195035046
 20
39.75924272902029
 30
0.0
 10
553.4280369880499
 20
40.458226824827
 30
0.0
 10
553.5222800304887
 20
40.80246995446809
 30
0.0
 10
553.9001515494067
 20
41.80160439965921
 30
0.0
 10
554.268847043201
 20
42.39280663391345
 30
0.0
 10
555.2545119005865
 20
43.44108238579383
 30
0.0
 10
555.8239161028553
 20
43.84472742119947
 30
0.0
 10
557.1388689639219
 20
44.42111385457423
 30
0.0
 10
557.8273705040083
 20
44.56533085518286
 30
0.0
 10
559.2565127836262
 20
44.56580910758953
 30
0.0
 10
559.9496120372929
 20
44.41895376561736
 30
0.0
 10
561.2554647306931
 20
43.84742382227893
 30
0.0
 10
561.8329664000313
 20
43.43768089214126
 30
0.0
 10
562.8117775623251
 20
42.39717919286831
 30
0.0
 10
563.1830333253646
 20
41.80291290037416
 30
0.0
 10
563.5626922427621
 20
40.80049029734642
 30
0.0
 10
563.6563702774198
 20
40.45809463964348
 30
0.0
 10
563.7306850833407
 20
40.02147729205449
 30
0.0
 10
563.7427016285625
 20
39.93903933556639
 30
0.0
 10
563.7607356541362
 20
39.78541937048405
 30
0.0
 10
563.768181610568
 20
39.70420766465557
 30
0.0
 10
563.7858063107985
 20
39.44736737730828
 30
0.0
 10
563.7912718855322
 20
39.25853362592754
 30
0.0
 10
563.7904532348457
 20
39.05209298139764
 30
0.0
  0
SPLINE
  5
7E
330
1F
100
AcDbEntity
  8
0
  6
Continuous
 62
     7
370
    15
100
AcDbSpline
210
0.0
220
0.0
230
1.0
 70
     8
 71
     3
 72
    34
 73
    30
 74
     0
 42
0.000000001
 43
0.00000001
 40
0.0
 40
0.0
 40
0.0
 40
0.0
 40
0.03125
 40
0.03125
 40
0.046875
 40
0.046875
 40
0.0625
 40
0.0625
 40
0.125
 40
0.125
 40
0.25
 40
0.25
 40
0.375
 40
0.375
 40
0.5
 40
0.5
 40
0.625
 40
0.625
 40
0.75
 40
0.75
 40
0.875
 40
0.875
 40
0.90625
 40
0.90625
 40
0.921875
 40
0.921875
 40
0.9375
 40
0.9375
 40
1.0
 40
1.0
 40
1.0
 40
1.0
 10
563.7904532348457
 20
39.05209298139759
 30
0.0
 10
563.7919168593933
 20
38.85870714833281
 30
0.0
 10
563.7862556548474
 20
38.67561295947444
 30
0.0
 10
563.7670766043884
 20
38.41640914249725
 30
0.0
 10
563.7589023802954
 20
38.33258078122317
 30
0.0
 10
563.7389915175626
 20
38.17006988077856
 30
0.0
 10
563.7287627942832
 20
38.0998773686467
 30
0.0
 10
563.653633987916
 20
37.67687909285808
 30
0.0
 10
563.5574466313182
 20
37.34157579703371
 30
0.0
 10
563.1682504372056
 20
36.36408696795149
 30
0.0
 10
562.7861953657676
 20
35.78418699252758
 30
0.0
 10
561.7981193445049
 20
34.78926845798444
 30
0.0
 10
561.2211274401895
 20
34.4040904858324
 30
0.0
 10
559.9239656016621
 20
33.86769619954291
 30
0.0
 10
559.24594018348
 20
33.73349701718467
 30
0.0
 10
557.8392078124773
 20
33.73309690844242
 30
0.0
 10
557.1638541152986
 20
33.86667316876621
 30
0.0
 10
555.8612738459383
 20
34.40464013953512
 30
0.0
 10
555.2896419914376
 20
34.78655557202384
 30
0.0
 10
554.2959771198306
 20
35.78602481910023
 30
0.0
 10
553.9179474435862
 20
36.36092101596292
 30
0.0
 10
553.5918242167985
 20
37.178733225908
 30
0.0
 10
553.535353898962
 20
37.34380215207003
 30
0.0
 10
553.4637799134883
 20
37.59366526757249
 30
0.0
 10
553.4421105002108
 20
37.67732959378326
 30
0.0
 10
553.403148837416
 20
37.84541148829116
 30
0.0
 10
553.3842916113512
 20
37.9386150628013
 30
0.0
 10
553.3165981559048
 20
38.31865597843883
 30
0.0
 10
553.2910495078962
 20
38.66425966132606
 30
0.0
 10
553.294106976236
 20
39.05143429459043
 30
0.0
  0
SPLINE
  5
7F
330
1F
100
AcDbEntity
  8
0
  6
Continuous
 62
     7
370
    15
100
AcDbSpline
210
0.0
220
0.0
230
1.0
 70
     8
 71
     3
 72
    14
 73
    10
 74
     0
 42
0.000000001
 43
0.00000001
 40
0.0
 40
0.0
 40
0.0
 40
0.0
 40
0.25
 40
0.25
 40
0.5
 40
0.5
 40
0.75
 40
0.75
 40
1.0
 40
1.0
 40
1.0
 40
1.0
 10
223.5457410176916
 20
39.05210235125747
 30
0.0
 10
223.5279715172848
 20
39.87314807671763
 30
0.0
 10
223.7726798749906
 20
40.55552898474976
 30
0.0
 10
224.8059925170209
 20
41.67934648972102
 30
0.0
 10
225.5327035394258
 20
42.00240216778459
 30
0.0
 10
227.0517702473072
 20
42.00324645622885
 30
0.0
 10
227.7811809712439
 20
41.67554153057448
 30
0.0
 10
228.8091588261869
 20
40.55948567780352
 30
0.0
 10
229.0570117803352
 20
39.87106100996843
 30
0.0
 10
229.0387287611604
 20
39.05223960068346
 30
0.0
  0
SPLINE
  5
80
330
1F
100
AcDbEntity
  8
0
  6
Continuous
 62
     7
370
    15
100
AcDbSpline
210
0.0
220
0.0
230
1.0
 70
     8
 71
     3
 72
    16
 73
    12
 74
     0
 42
0.000000001
 43
0.00000001
 40
0.0
 40
0.0
 40
0.0
 40
0.0
 40
0.25
 40
0.25
 40
0.5
 40
0.5
 40
0.625
 40
0.625
 40
0.75
 40
0.75
 40
1.0
 40
1.0
 40
1.0
 40
1.0
 10
229.0387287611604
 20
39.05223960068352
 30
0.0
 10
229.0566137947581
 20
38.25451692177764
 30
0.0
 10
228.7979484409642
 20
37.57251733296693
 30
0.0
 10
227.7610147751667
 20
36.50103719438433
 30
0.0
 10
227.0403045050197
 20
36.19897322809637
 30
0.0
 10
225.9183456592586
 20
36.19845912891515
 30
0.0
 10
225.5592450417053
 20
36.27075615865908
 30
0.0
 10
224.8680578968338
 20
36.56144661375119
 30
0.0
 10
224.5670832705288
 20
36.76638642307714
 30
0.0
 10
223.7812758208543
 20
37.57726408759696
 30
0.0
 10
223.5281403420946
 20
38.24907187871055
 30
0.0
 10
223.5457410176916
 20
39.05210235125753
 30
0.0
  0
SPLINE
  5
81
330
1F
100
AcDbEntity
  8
0
  6
Continuous
 62
     7
370
    15
100
AcDbSpline
210
0.0
220
0.0
230
1.0
 70
     8
 71
     3
 72
    14
 73
    10
 74
     0
 42
0.000000001
 43
0.00000001
 40
0.0
 40
0.0
 40
0.0
 40
0.0
 40
0.25
 40
0.25
 40
0.5
 40
0.5
 40
0.75
 40
0.75
 40
1.0
 40
1.0
 40
1.0
 40
1.0
 10
134.7957410176872
 20
39.05210235117343
 30
0.0
 10
134.7779715172906
 20
39.87314807669287
 30
0.0
 10
135.0226798750528
 20
40.55552898487122
 30
0.0
 10
136.0559925168717
 20
41.67934648950464
 30
0.0
 10
136.782703539346
 20
42.00240216778459
 30
0.0
 10
138.3017702473124
 20
42.00324645622896
 30
0.0
 10
139.0311809712408
 20
41.67554153037914
 30
0.0
 10
140.0591588261787
 20
40.55948567801151
 30
0.0
 10
140.307011780329
 20
39.87106101017199
 30
0.0
 10
140.2887287611607
 20
39.05223960067791
 30
0.0
  0
SPLINE
  5
82
330
1F
100
AcDbEntity
  8
0
  6
Continuous
 62
     7
370
    15
100
AcDbSpline
210
0.0
220
0.0
230
1.0
 70
     8
 71
     3
 72
    16
 73
    12
 74
     0
 42
0.000000001
 43
0.00000001
 40
0.0
 40
0.0
 40
0.0
 40
0.0
 40
0.25
 40
0.25
 40
0.5
 40
0.5
 40
0.625
 40
0.625
 40
0.75
 40
0.75
 40
1.0
 40
1.0
 40
1.0
 40
1.0
 10
140.2887287611607
 20
39.05223960067791
 30
0.0
 10
140.3066137947606
 20
38.25451692119439
 30
0.0
 10
140.0479484416299
 20
37.57251733359249
 30
0.0
 10
139.0110147745282
 20
36.50103719378708
 30
0.0
 10
138.2903045044873
 20
36.19897322806862
 30
0.0
 10
137.1683456595879
 20
36.19845912892936
 30
0.0
 10
136.8092450413641
 20
36.2707561589494
 30
0.0
 10
136.1180578972345
 20
36.56144661343533
 30
0.0
 10
135.8170832705709
 20
36.76638642312594
 30
0.0
 10
135.0312758208806
 20
37.57726408738518
 30
0.0
 10
134.7781403421072
 20
38.24907187848356
 30
0.0
 10
134.7957410176872
 20
39.05210235117343
 30
0.0
  0
SPLINE
  5
83
330
1F
100
AcDbEntity
  8
0
  6
Continuous
 62
     7
370
    15
100
AcDbSpline
210
0.0
220
0.0
230
1.0
 70
     8
 71
     3
 72
    30
 73
    26
 74
     0
 42
0.000000001
 43
0.00000001
 40
0.0
 40
0.0
 40
0.0
 40
0.0
 40
0.0625
 40
0.0625
 40
0.125
 40
0.125
 40
0.25
 40
0.25
 40
0.375
 40
0.375
 40
0.5
 40
0.5
 40
0.625
 40
0.625
 40
0.75
 40
0.75
 40
0.875
 40
0.875
 40
0.9375
 40
0.9375
 40
0.953125
 40
0.953125
 40
0.96875
 40
0.96875
 40
1.0
 40
1.0
 40
1.0
 40
1.0
 10
66.29408473404614
 20
39.05209298139759
 30
0.0
 10
66.29234379525045
 20
39.49089549020027
 30
0.0
 10
66.30932406359538
 20
39.75990815171529
 30
0.0
 10
66.42829415852405
 20
40.45862356609955
 30
0.0
 10
66.52257358939534
 20
40.80303057813575
 30
0.0
 10
66.90037003078001
 20
41.80179461815695
 30
0.0
 10
67.26948828494767
 20
42.3933849485045
 30
0.0
 10
68.25484694342043
 20
43.44147822095476
 30
0.0
 10
68.82437690723626
 20
43.84508890387092
 30
0.0
 10
70.13963212337838
 20
44.42129283251647
 30
0.0
 10
70.82792966250639
 20
44.56541946862905
 30
0.0
 10
72.25730189400836
 20
44.56572028239739
 30
0.0
 10
72.95046571319347
 20
44.41873600831273
 30
0.0
 10
74.25583446906681
 20
43.8471011681382
 30
0.0
 10
74.83377337504041
 20
43.43677804531945
 30
0.0
 10
75.81194723558757
 20
42.39710713218639
 30
0.0
 10
76.18311748394721
 20
41.80285935380332
 30
0.0
 10
76.56299783361592
 20
40.79986920350384
 30
0.0
 10
76.65662170942778
 20
40.45772751597374
 30
0.0
 10
76.73086671598348
 20
40.02088230904313
 30
0.0
 10
76.74286561600277
 20
39.93840573921534
 30
0.0
 10
76.76085375580985
 20
39.78483399339691
 30
0.0
 10
76.76827836932887
 20
39.70363653843093
 30
0.0
 10
76.78584384073228
 20
39.44680942736264
 30
0.0
 10
76.79127632946314
 20
39.25794502509003
 30
0.0
 10
76.79043099265584
 20
39.05143429459043
 30
0.0
  0
SPLINE
  5
84
330
1F
100
AcDbEntity
  8
0
  6
Continuous
 62
     7
370
    15
100
AcDbSpline
210
0.0
220
0.0
230
1.0
 70
     8
 71
     3
 72
    34
 73
    30
 74
     0
 42
0.000000001
 43
0.00000001
 40
0.0
 40
0.0
 40
0.0
 40
0.0
 40
0.03125
 40
0.03125
 40
0.046875
 40
0.046875
 40
0.0625
 40
0.0625
 40
0.125
 40
0.125
 40
0.25
 40
0.25
 40
0.375
 40
0.375
 40
0.5
 40
0.5
 40
0.625
 40
0.625
 40
0.75
 40
0.75
 40
0.875
 40
0.875
 40
0.90625
 40
0.90625
 40
0.921875
 40
0.921875
 40
0.9375
 40
0.9375
 40
1.0
 40
1.0
 40
1.0
 40
1.0
 10
76.7904309926559
 20
39.05143429459049
 30
0.0
 10
76.79195744200865
 20
38.85811326512531
 30
0.0
 10
76.78633259812861
 20
38.67505191577189
 30
0.0
 10
76.76716839245931
 20
38.41584941190931
 30
0.0
 10
76.75899250059467
 20
38.33201349731638
 30
0.0
 10
76.739065070249
 20
38.16947150818636
 30
0.0
 10
76.72880924702521
 20
38.09917687048639
 30
0.0
 10
76.65363386179268
 20
37.67641391375528
 30
0.0
 10
76.5573627365072
 20
37.34114756949828
 30
0.0
 10
76.16773828090741
 20
36.36320946752983
 30
0.0
 10
75.78603041753587
 20
35.7837753608797
 30
0.0
 10
74.79742256003355
 20
34.78880130185133
 30
0.0
 10
74.220596004522
 20
34.40377931854218
 30
0.0
 10
72.92334249462304
 20
33.86753016132446
 30
0.0
 10
72.24532964916611
 20
33.73341072778571
 30
0.0
 10
70.83856809843478
 20
33.73318344920909
 30
0.0
 10
70.1634458756116
 20
33.86674999409781
 30
0.0
 10
68.86052757527597
 20
34.40504062627006
 30
0.0
 10
68.28935884679913
 20
34.78660525174085
 30
0.0
 10
67.2953986322655
 20
35.78685393064465
 30
0.0
 10
66.91744494121679
 20
36.36177555208711
 30
0.0
 10
66.59166651857373
 20
37.17924215409049
 30
0.0
 10
66.53525263669647
 20
37.34428279783311
 30
0.0
 10
66.46374451785758
 20
37.59416474845992
 30
0.0
 10
66.44209392890748
 20
37.67784556283762
 30
0.0
 10
66.40316365233289
 20
37.8459808532641
 30
0.0
 10
66.38430676055246
 20
37.93930043870239
 30
0.0
 10
66.31672159652437
 20
38.31918142617511
 30
0.0
 10
66.29115326529083
 20
38.66478687457533
 30
0.0
 10
66.29408473404617
 20
39.05209298139759
 30
0.0
  0
SPLINE
  5
85
330
1F
100
AcDbEntity
  8
0
  6
Continuous
 62
     7
370
    15
100
AcDbSpline
210
0.0
220
0.0
230
1.0
 70
     8
 71
     3
 72
    10
 73
     6
 74
     0
 42
0.000000001
 43
0.00000001
 40
0.0
 40
0.0
 40
0.0
 40
0.0
 40
0.5
 40
0.5
 40
1.0
 40
1.0
 40
1.0
 40
1.0
 10
315.0422689844459
 20
36.19863064672288
 30
0.0
 10
314.2335518024008
 20
36.22133022650684
 30
0.0
 10
313.5789875607527
 20
36.49604285172289
 30
0.0
 10
312.5312162745418
 20
37.57740955361097
 30
0.0
 10
312.2780967265311
 20
38.24921711913201
 30
0.0
 10
312.2957432736155
 20
39.05214889922961
 30
0.0
  0
SPLINE
  5
86
330
1F
100
AcDbEntity
  8
0
  6
Continuous
 62
     7
370
    15
100
AcDbSpline
210
0.0
220
0.0
230
1.0
 70
     8
 71
     3
 72
    10
 73
     6
 74
     0
 42
0.000000001
 43
0.00000001
 40
0.0
 40
0.0
 40
0.0
 40
0.0
 40
0.5
 40
0.5
 40
1.0
 40
1.0
 40
1.0
 40
1.0
 10
317.7887946952762
 20
39.05214889922961
 30
0.0
 10
317.8063767941986
 20
38.25359631291727
 30
0.0
 10
317.5483318805291
 20
37.57281213452282
 30
0.0
 10
316.5105374974319
 20
36.50063792706695
 30
0.0
 10
315.8481489292537
 20
36.2212731323763
 30
0.0
 10
315.0422689844459
 20
36.19863064672288
 30
0.0
  0
SPLINE
  5
87
330
1F
100
AcDbEntity
  8
0
  6
Continuous
 62
     7
370
    15
100
AcDbSpline
210
0.0
220
0.0
230
1.0
 70
     8
 71
     3
 72
    10
 73
     6
 74
     0
 42
0.000000001
 43
0.00000001
 40
0.0
 40
0.0
 40
0.0
 40
0.0
 40
0.5
 40
0.5
 40
1.0
 40
1.0
 40
1.0
 40
1.0
 10
315.0422689844459
 20
42.00282364121319
 30
0.0
 10
315.8505638402002
 20
41.97897021245481
 30
0.0
 10
316.5316901529808
 20
41.67541608191086
 30
0.0
 10
317.5586589466516
 20
40.55951691283313
 30
0.0
 10
317.8065323284716
 20
39.87107771345252
 30
0.0
 10
317.7887946952762
 20
39.05214889922961
 30
0.0
  0
SPLINE
  5
88
330
1F
100
AcDbEntity
  8
0
  6
Continuous
 62
     7
370
    15
100
AcDbSpline
210
0.0
220
0.0
230
1.0
 70
     8
 71
     3
 72
    10
 73
     6
 74
     0
 42
0.000000001
 43
0.00000001
 40
0.000000302508576
 40
0.000000302508576
 40
0.000000302508576
 40
0.000000302508576
 40
0.500000151254288
 40
0.500000151254288
 40
1.0
 40
1.0
 40
1.0
 40
1.0
 10
312.2957431710515
 20
39.05214889700556
 30
0.0
 10
312.2778766143592
 20
39.87611792871468
 30
0.0
 10
312.5188508045078
 20
40.55130110262914
 30
0.0
 10
313.5598789634123
 20
41.68363458593014
 30
0.0
 10
314.2275136635743
 20
41.97875318490804
 30
0.0
 10
315.0422689844459
 20
42.00282364121325
 30
0.0
  0
CIRCLE
  5
89
330
1F
100
AcDbEntity
  8
0
  6
Continuous
 62
     7
370
    15
100
AcDbCircle
 10
485.9185536644
 20
364.0816320588
 30
0.0
 40
4.25
  0
CIRCLE
  5
8A
330
1F
100
AcDbEntity
  8
0
  6
Continuous
 62
     7
370
    15
100
AcDbCircle
 10
400.4804113244
 20
364.0816320588
 30
0.0
 40
4.25
  0
LINE
  5
8B
330
1F
100
AcDbEntity
  8
0
  6
Continuous
 62
     7
370
    15
100
AcDbLine
 10
510.6422689844
 20
347.0182786085
 30
0.0
 11
506.0422689844
 21
347.0182786085
 31
0.0
  0
LINE
  5
8C
330
1F
100
AcDbEntity
  8
0
  6
Continuous
 62
     7
370
    15
100
AcDbLine
 10
506.0422689844
 20
347.0182786085
 30
0.0
 11
506.0422689844
 21
329.4182786085
 31
0.0
  0
LINE
  5
8D
330
1F
100
AcDbEntity
  8
0
  6
Continuous
 62
     7
370
    15
100
AcDbLine
 10
506.0422689844
 20
329.4182786085
 30
0.0
 11
510.6422689844
 21
329.4182786085
 31
0.0
  0
LINE
  5
8E
330
1F
100
AcDbEntity
  8
0
  6
Continuous
 62
     7
370
    15
100
AcDbLine
 10
510.6422689844
 20
329.4182786085
 30
0.0
 11
510.6422689844
 21
347.0182786085
 31
0.0
  0
LINE
  5
8F
330
1F
100
AcDbEntity
  8
0
  6
Continuous
 62
     7
370
    15
100
AcDbLine
 10
521.9422689844
 20
347.0182786085
 30
0.0
 11
517.3422689844
 21
347.0182786085
 31
0.0
  0
LINE
  5
90
330
1F
100
AcDbEntity
  8
0
  6
Continuous
 62
     7
370
    15
100
AcDbLine
 10
517.3422689844
 20
347.0182786085
 30
0.0
 11
517.3422689844
 21
329.4182786085
 31
0.0
  0
LINE
  5
91
330
1F
100
AcDbEntity
  8
0
  6
Continuous
 62
     7
370
    15
100
AcDbLine
 10
517.3422689844
 20
329.4182786085
 30
0.0
 11
521.9422689844
 21
329.4182786085
 31
0.0
  0
LINE
  5
92
330
1F
100
AcDbEntity
  8
0
  6
Continuous
 62
     7
370
    15
100
AcDbLine
 10
521.9422689844
 20
329.4182786085
 30
0.0
 11
521.9422689844
 21
347.0182786085
 31
0.0
  0
LINE
  5
93
330
1F
100
AcDbEntity
  8
0
  6
Continuous
 62
     7
370
    15
100
AcDbLine
 10
533.4422689844
 20
347.0182786085
 30
0.0
 11
528.8422689844
 21
347.0182786085
 31
0.0
  0
LINE
  5
94
330
1F
100
AcDbEntity
  8
0
  6
Continuous
 62
     7
370
    15
100
AcDbLine
 10
528.8422689844
 20
347.0182786085
 30
0.0
 11
528.8422689844
 21
329.4182786085
 31
0.0
  0
LINE
  5
95
330
1F
100
AcDbEntity
  8
0
  6
Continuous
 62
     7
370
    15
100
AcDbLine
 10
528.8422689844
 20
329.4182786085
 30
0.0
 11
533.4422689844
 21
329.4182786085
 31
0.0
  0
LINE
  5
96
330
1F
100
AcDbEntity
  8
0
  6
Continuous
 62
     7
370
    15
100
AcDbLine
 10
533.4422689844
 20
329.4182786085
 30
0.0
 11
533.4422689844
 21
347.0182786085
 31
0.0
  0
LINE
  5
97
330
1F
100
AcDbEntity
  8
0
  6
Continuous
 62
     7
370
    15
100
AcDbLine
 10
544.9422689844
 20
347.0182786085
 30
0.0
 11
540.3422689844
 21
347.0182786085
 31
0.0
  0
LINE
  5
98
330
1F
100
AcDbEntity
  8
0
  6
Continuous
 62
     7
370
    15
100
AcDbLine
 10
540.3422689844
 20
347.0182786085
 30
0.0
 11
540.3422689844
 21
329.4182786085
 31
0.0
  0
LINE
  5
99
330
1F
100
AcDbEntity
  8
0
  6
Continuous
 62
     7
370
    15
100
AcDbLine
 10
540.3422689844
 20
329.4182786085
 30
0.0
 11
544.9422689844
 21
329.4182786085
 31
0.0
  0
LINE
  5
9A
330
1F
100
AcDbEntity
  8
0
  6
Continuous
 62
     7
370
    15
100
AcDbLine
 10
544.9422689844
 20
329.4182786085
 30
0.0
 11
544.9422689844
 21
347.0182786085
 31
0.0
  0
LINE
  5
9B
330
1F
100
AcDbEntity
  8
0
  6
Continuous
 62
     7
370
    15
100
AcDbLine
 10
564.4125877164
 20
356.5816320588
 30
0.0
 11
504.3422689844
 21
356.5816320588
 31
0.0
  0
SPLINE
  5
9C
330
1F
100
AcDbEntity
  8
0
  6
Continuous
 62
     7
370
    15
100
AcDbSpline
210
0.0
220
0.0
230
1.0
 70
     8
 71
     3
 72
    18
 73
    14
 74
     0
 42
0.000000001
 43
0.00000001
 40
0.0
 40
0.0
 40
0.0
 40
0.0
 40
0.25
 40
0.25
 40
0.375
 40
0.375
 40
0.4375
 40
0.4375
 40
0.46875
 40
0.46875
 40
0.5
 40
0.5
 40
1.0
 40
1.0
 40
1.0
 40
1.0
 10
569.0668013627604
 20
355.9246435899158
 30
0.0
 10
568.7022593379396
 20
356.0474703186873
 30
0.0
 10
568.3284517667073
 20
356.1524137528987
 30
0.0
 10
567.7538420902406
 20
356.2830039623761
 30
0.0
 10
567.5599891448155
 20
356.3220632085619
 30
0.0
 10
567.2657351467734
 20
356.3739458423806
 30
0.0
 10
567.1670713841083
 20
356.3901223477435
 30
0.0
 10
567.018207095135
 20
356.4127105469228
 30
0.0
 10
566.9684408913147
 20
356.4199605201718
 30
0.0
 10
566.8686189353484
 20
356.4339016137147
 30
0.0
 10
566.8110816124148
 20
356.4415482925393
 30
0.0
 10
566.084859368561
 20
356.534302592398
 30
0.0
 10
565.29960105507
 20
356.5791784694024
 30
0.0
 10
564.4125877164201
 20
356.5816320588382
 30
0.0
  0
SPLINE
  5
9D
330
1F
100
AcDbEntity
  8
0
  6
Continuous
 62
     7
370
    15
100
AcDbSpline
210
0.0
220
0.0
230
1.0
 70
     8
 71
     3
 72
    18
 73
    14
 74
     0
 42
0.000000001
 43
0.00000001
 40
0.0
 40
0.0
 40
0.0
 40
0.0
 40
0.25
 40
0.25
 40
0.375
 40
0.375
 40
0.4375
 40
0.4375
 40
0.46875
 40
0.46875
 40
0.5
 40
0.5
 40
1.0
 40
1.0
 40
1.0
 40
1.0
 10
577.748019396177
 20
355.7077685164013
 30
0.0
 10
577.0305102119266
 20
355.4479383665508
 30
0.0
 10
576.3139215975671
 20
355.2637275675673
 30
0.0
 10
575.2404195308638
 20
355.1008403953924
 30
0.0
 10
574.8786683505726
 20
355.0648707470027
 30
0.0
 10
574.3275168905456
 20
355.0367424319267
 30
0.0
 10
574.1426566922871
 20
355.0317640506657
 30
0.0
 10
573.8636518275259
 20
355.0308930644204
 30
0.0
 10
573.7703644447099
 20
355.0317021666131
 30
0.0
 10
573.5832181566196
 20
355.0355192328805
 30
0.0
 10
573.4791786571711
 20
355.0389713614875
 30
0.0
 10
572.0517894275852
 20
355.1012462797064
 30
0.0
 10
570.6089850202243
 20
355.3952492790214
 30
0.0
 10
569.0668013627604
 20
355.9246435899158
 30
0.0
  0
ARC
  5
9E
330
1F
100
AcDbEntity
  8
0
  6
Continuous
 62
     7
370
    15
100
AcDbCircle
 10
573.9708966588
 20
365.9114274965
 30
0.0
 40
10.88031767712281
100
AcDbArc
 50
290.3132099958
 51
297.3404187626
  0
ARC
  5
9F
330
1F
100
AcDbEntity
  8
0
  6
Continuous
 62
     7
370
    15
100
AcDbCircle
 10
580.3457976999
 20
353.5816320588
 30
0.0
 40
3.000000000000111
100
AcDbArc
 50
90.0
 51
117.3404187626
  0
LINE
  5
A0
330
1F
100
AcDbEntity
  8
0
  6
Continuous
 62
     7
370
    15
100
AcDbLine
 10
580.5821225409
 20
356.5816320588
 30
0.0
 11
580.3457976999
 21
356.5816320588
 31
0.0
  0
ARC
  5
A1
330
1F
100
AcDbEntity
  8
0
  6
Continuous
 62
     7
370
    15
100
AcDbCircle
 10
580.5821225409
 20
346.5816320588
 30
0.0
 40
9.999999999999956
100
AcDbArc
 50
21.8365027886
 51
90.0
  0
LINE
  5
A2
330
1F
100
AcDbEntity
  8
0
  6
Continuous
 62
     7
370
    15
100
AcDbLine
 10
589.8646129639
 20
350.3012249863
 30
0.0
 11
593.1684676216
 21
342.0562369413
 31
0.0
  0
ARC
  5
A3
330
1F
100
AcDbEntity
  8
0
  6
Continuous
 62
     7
370
    15
100
AcDbCircle
 10
585.7451441903
 20
339.0816320588
 30
0.0
 40
7.997124794134328
100
AcDbArc
 50
338.1634972114
 51
21.8365027886
  0
LINE
  5
A4
330
1F
100
AcDbEntity
  8
0
  6
Continuous
 62
     7
370
    15
100
AcDbLine
 10
593.1684676216
 20
336.1070271764
 30
0.0
 11
580.1108259777
 21
303.5208179138
 31
0.0
  0
ARC
  5
A5
330
1F
100
AcDbEntity
  8
0
  6
Continuous
 62
     7
370
    15
100
AcDbCircle
 10
598.6758068238
 20
296.0816320588
 30
0.0
 40
19.99999999999985
100
AcDbArc
 50
158.1634972114
 51
201.8365027886
  0
LINE
  5
A6
330
1F
100
AcDbEntity
  8
0
  6
Continuous
 62
     7
370
    15
100
AcDbLine
 10
580.1108259777
 20
288.6424462038
 30
0.0
 11
593.1684676216
 21
256.0562369413
 31
0.0
  0
ARC
  5
A7
330
1F
100
AcDbEntity
  8
0
  6
Continuous
 62
     7
370
    15
100
AcDbCircle
 10
585.7451441903
 20
253.0816320588
 30
0.0
 40
7.997124794134416
100
AcDbArc
 50
351.1634221501
 51
21.8365027886
  0
LINE
  5
A8
330
1F
100
AcDbEntity
  8
0
  6
Continuous
 62
     7
370
    15
100
AcDbLine
 10
593.6473472182
 20
251.853140187
 30
0.0
 11
578.8006625726
 21
156.3526985074
 31
0.0
  0
ARC
  5
A9
330
1F
100
AcDbEntity
  8
0
  6
Continuous
 62
     7
370
    15
100
AcDbCircle
 10
570.895618466
 20
157.5816320588
 30
0.0
 40
8.000000000000123
100
AcDbArc
 50
343.0481491836
 51
351.1634221501
  0
LINE
  5
AA
330
1F
100
AcDbEntity
  8
0
  6
Continuous
 62
     7
370
    15
100
AcDbLine
 10
578.5480193962
 20
149.5816320588
 30
0.0
 11
578.5480193962
 21
155.249088382
 31
0.0
  0
LINE
  5
AB
330
1F
100
AcDbEntity
  8
0
  6
Continuous
 62
     7
370
    15
100
AcDbLine
 10
578.5480193962
 20
149.5816320588
 30
0.0
 11
554.5422689844
 21
149.5816320588
 31
0.0
  0
LINE
  5
AC
330
1F
100
AcDbEntity
  8
0
  6
Continuous
 62
     7
370
    15
100
AcDbLine
 10
554.5422689844
 20
149.5816320588
 30
0.0
 11
554.5422689844
 21
145.5816320588
 31
0.0
  0
LINE
  5
AD
330
1F
100
AcDbEntity
  8
0
  6
Continuous
 62
     7
370
    15
100
AcDbLine
 10
560.5422689844
 20
145.5816320588
 30
0.0
 11
554.5422689844
 21
145.5816320588
 31
0.0
  0
ARC
  5
AE
330
1F
100
AcDbEntity
  8
0
  6
Continuous
 62
     7
370
    15
100
AcDbCircle
 10
560.5422689844
 20
137.5816320588
 30
0.0
 40
8.000000000000028
100
AcDbArc
 50
0.0
 51
90.0
  0
LINE
  5
AF
330
1F
100
AcDbEntity
  8
0
  6
Continuous
 62
     7
370
    15
100
AcDbLine
 10
568.5422689844
 20
137.5816320588
 30
0.0
 11
568.5422689844
 21
29.0392315415
 31
0.0
  0
LINE
  5
B0
330
1F
100
AcDbEntity
  8
0
  6
Continuous
 62
     7
370
    15
100
AcDbLine
 10
568.5422689844
 20
29.0392315415
 30
0.0
 11
61.5422689844
 21
29.0392315415
 31
0.0
  0
LINE
  5
B1
330
1F
100
AcDbEntity
  8
0
  6
Continuous
 62
     7
370
    15
100
AcDbLine
 10
61.5422689844
 20
137.5816320588
 30
0.0
 11
61.5422689844
 21
29.0392315415
 31
0.0
  0
ARC
  5
B2
330
1F
100
AcDbEntity
  8
0
  6
Continuous
 62
     7
370
    15
100
AcDbCircle
 10
69.5422689844
 20
137.5816320588
 30
0.0
 40
8.000000000000028
100
AcDbArc
 50
90.0
 51
180.0
  0
LINE
  5
B3
330
1F
100
AcDbEntity
  8
0
  6
Continuous
 62
     7
370
    15
100
AcDbLine
 10
69.5422689844
 20
145.5816320588
 30
0.0
 11
75.5422689844
 21
145.5816320588
 31
0.0
  0
LINE
  5
B4
330
1F
100
AcDbEntity
  8
0
  6
Continuous
 62
     7
370
    15
100
AcDbLine
 10
75.5422689844
 20
149.5816320588
 30
0.0
 11
75.5422689844
 21
145.5816320588
 31
0.0
  0
LINE
  5
B5
330
1F
100
AcDbEntity
  8
0
  6
Continuous
 62
     7
370
    15
100
AcDbLine
 10
49.502415428
 20
149.5816320588
 30
0.0
 11
75.5422689844
 21
149.5816320588
 31
0.0
  0
ARC
  5
B6
330
1F
100
AcDbEntity
  8
0
  6
Continuous
 62
     7
370
    15
100
AcDbCircle
 10
49.502415428
 20
159.5816320588
 30
0.0
 40
10.00000000000002
100
AcDbArc
 50
201.8365027886
 51
270.0
  0
LINE
  5
B7
330
1F
100
AcDbEntity
  8
0
  6
Continuous
 62
     7
370
    15
100
AcDbLine
 10
36.9160703472
 20
164.1070271764
 30
0.0
 11
40.219925005
 21
155.8620391313
 31
0.0
  0
ARC
  5
B8
330
1F
100
AcDbEntity
  8
0
  6
Continuous
 62
     7
370
    15
100
AcDbCircle
 10
44.3393937786
 20
167.0816320588
 30
0.0
 40
7.997124794134351
100
AcDbArc
 50
158.1634972114
 51
201.8365027886
  0
LINE
  5
B9
330
1F
100
AcDbEntity
  8
0
  6
Continuous
 62
     7
370
    15
100
AcDbLine
 10
49.9737119912
 20
202.6424462038
 30
0.0
 11
36.9160703472
 21
170.0562369413
 31
0.0
  0
ARC
  5
BA
330
1F
100
AcDbEntity
  8
0
  6
Continuous
 62
     7
370
    15
100
AcDbCircle
 10
31.4087311451
 20
210.0816320588
 30
0.0
 40
20.00000000000003
100
AcDbArc
 50
338.1634972114
 51
21.8365027886
  0
LINE
  5
BB
330
1F
100
AcDbEntity
  8
0
  6
Continuous
 62
     7
370
    15
100
AcDbLine
 10
36.9160703472
 20
250.1070271764
 30
0.0
 11
49.9737119912
 21
217.5208179138
 31
0.0
  0
ARC
  5
BC
330
1F
100
AcDbEntity
  8
0
  6
Continuous
 62
     7
370
    15
100
AcDbCircle
 10
44.3393937786
 20
253.0816320588
 30
0.0
 40
7.997124794134435
100
AcDbArc
 50
158.1634972114
 51
201.8365027886
  0
LINE
  5
BD
330
1F
100
AcDbEntity
  8
0
  6
Continuous
 62
     7
370
    15
100
AcDbLine
 10
49.9737119912
 20
288.6424462038
 30
0.0
 11
36.9160703472
 21
256.0562369413
 31
0.0
  0
ARC
  5
BE
330
1F
100
AcDbEntity
  8
0
  6
Continuous
 62
     7
370
    15
100
AcDbCircle
 10
31.4087311451
 20
296.0816320588
 30
0.0
 40
20.00000000000003
100
AcDbArc
 50
338.1634972114
 51
21.8365027886
  0
LINE
  5
BF
330
1F
100
AcDbEntity
  8
0
  6
Continuous
 62
     7
370
    15
100
AcDbLine
 10
36.9160703472
 20
336.1070271764
 30
0.0
 11
49.9737119912
 21
303.5208179138
 31
0.0
  0
ARC
  5
C0
330
1F
100
AcDbEntity
  8
0
  6
Continuous
 62
     7
370
    15
100
AcDbCircle
 10
44.3393937786
 20
339.0816320588
 30
0.0
 40
7.997124794134467
100
AcDbArc
 50
158.1634972114
 51
201.8365027886
  0
LINE
  5
C1
330
1F
100
AcDbEntity
  8
0
  6
Continuous
 62
     7
370
    15
100
AcDbLine
 10
40.219925005
 20
350.3012249863
 30
0.0
 11
36.9160703472
 21
342.0562369413
 31
0.0
  0
ARC
  5
C2
330
1F
100
AcDbEntity
  8
0
  6
Continuous
 62
     7
370
    15
100
AcDbCircle
 10
49.502415428
 20
346.5816320588
 30
0.0
 40
10.00000000000002
100
AcDbArc
 50
90.0
 51
158.1634972114
  0
LINE
  5
C3
330
1F
100
AcDbEntity
  8
0
  6
Continuous
 62
     7
370
    15
100
AcDbLine
 10
49.502415428
 20
356.5816320588
 30
0.0
 11
49.738740269
 21
356.5816320588
 31
0.0
  0
ARC
  5
C4
330
1F
100
AcDbEntity
  8
0
  6
Continuous
 62
     7
370
    15
100
AcDbCircle
 10
49.738740269
 20
353.5816320588
 30
0.0
 40
3.000000000000013
100
AcDbArc
 50
62.6595812374
 51
90.0
  0
ARC
  5
C5
330
1F
100
AcDbEntity
  8
0
  6
Continuous
 62
     7
370
    15
100
AcDbCircle
 10
56.1136413101
 20
365.9114274965
 30
0.0
 40
10.8803176771228
100
AcDbArc
 50
242.6595812374
 51
249.6867900041
  0
SPLINE
  5
C6
330
1F
100
AcDbEntity
  8
0
  6
Continuous
 62
     7
370
    15
100
AcDbSpline
210
0.0
220
0.0
230
1.0
 70
     8
 71
     3
 72
    24
 73
    20
 74
     0
 42
0.000000001
 43
0.00000001
 40
0.0
 40
0.0
 40
0.0
 40
0.0
 40
0.125
 40
0.125
 40
0.15625
 40
0.15625
 40
0.1875
 40
0.1875
 40
0.25
 40
0.25
 40
0.375
 40
0.375
 40
0.4375
 40
0.4375
 40
0.46875
 40
0.46875
 40
0.5
 40
0.5
 40
1.0
 40
1.0
 40
1.0
 40
1.0
 10
61.01773660238802
 20
355.9246435886139
 30
0.0
 10
60.6361732566863
 20
355.7943444659347
 30
0.0
 10
60.27574704110711
 20
355.6812924026359
 30
0.0
 10
59.85163568428581
 20
355.5615361477378
 30
0.0
 10
59.76813448355417
 20
355.5386628379693
 30
0.0
 10
59.60377422335622
 20
355.4950721008552
 30
0.0
 10
59.50987837504778
 20
355.4709749072658
 30
0.0
 10
59.2280869631045
 20
355.4014703629215
 30
0.0
 10
59.04144322542398
 20
355.3589989776605
 30
0.0
 10
58.48516362322692
 20
355.2431797547827
 30
0.0
 10
58.11917936955508
 20
355.1814268500713
 30
0.0
 10
57.57750621073671
 20
355.111987358815
 30
0.0
 10
57.39816569474549
 20
355.0927058393647
 30
0.0
 10
57.130980726181
 20
355.0695810266419
 30
0.0
 10
57.04222337089654
 20
355.0628390001431
 30
0.0
 10
56.86531726213511
 20
355.051287435963
 30
0.0
 10
56.78311632526351
 20
355.0467381219257
 30
0.0
 10
55.18864774922488
 20
354.9769783343473
 30
0.0
 10
53.73771258810162
 20
355.1986896381466
 30
0.0
 10
52.33651857271487
 20
355.707768516407
 30
0.0
  0
SPLINE
  5
C7
330
1F
100
AcDbEntity
  8
0
  6
Continuous
 62
     7
370
    15
100
AcDbSpline
210
0.0
220
0.0
230
1.0
 70
     8
 71
     3
 72
    18
 73
    14
 74
     0
 42
0.000000001
 43
0.00000001
 40
0.0
 40
0.0
 40
0.0
 40
0.0
 40
0.25
 40
0.25
 40
0.375
 40
0.375
 40
0.4375
 40
0.4375
 40
0.46875
 40
0.46875
 40
0.5
 40
0.5
 40
1.0
 40
1.0
 40
1.0
 40
1.0
 10
65.67195025246905
 20
356.5816320588382
 30
0.0
 10
65.22740262546223
 20
356.580237843554
 30
0.0
 10
64.80881399800292
 20
356.568321737638
 30
0.0
 10
64.21986955613463
 20
356.5346647428161
 30
0.0
 10
64.03004449206534
 20
356.5208152718842
 30
0.0
 10
63.75504152079164
 20
356.4960953564994
 30
0.0
 10
63.66499630117212
 20
356.48719776654
 30
0.0
 10
63.53236212795038
 20
356.4728649543542
 30
0.0
 10
63.48855634624445
 20
356.4679229457511
 30
0.0
 10
63.40175600156833
 20
356.4577101194627
 30
0.0
 10
63.36645284028558
 20
356.4534208820669
 30
0.0
 10
62.51168680036162
 20
356.3443352392968
 30
0.0
 10
61.74554150615913
 20
356.1702150756511
 30
0.0
 10
61.01773660238802
 20
355.9246435886139
 30
0.0
  0
LINE
  5
C8
330
1F
100
AcDbEntity
  8
0
  6
Continuous
 62
     7
370
    15
100
AcDbLine
 10
65.6719502525
 20
356.5816320588
 30
0.0
 11
125.7422689844
 21
356.5816320588
 31
0.0
  0
LINE
  5
C9
330
1F
100
AcDbEntity
  8
0
  6
Continuous
 62
     7
370
    15
100
AcDbLine
 10
125.7422689844
 20
361.5816320588
 30
0.0
 11
125.7422689844
 21
356.5816320588
 31
0.0
  0
ARC
  5
CA
330
1F
100
AcDbEntity
  8
0
  6
Continuous
 62
     7
370
    15
100
AcDbCircle
 10
135.7422689844
 20
361.5816320588
 30
0.0
 40
10.0
100
AcDbArc
 50
90.0
 51
180.0
  0
LINE
  5
CB
330
1F
100
AcDbEntity
  8
0
  6
Continuous
 62
     7
370
    15
100
AcDbLine
 10
135.7422689844
 20
371.5816320588
 30
0.0
 11
494.3422689844
 21
371.5816320588
 31
0.0
  0
ARC
  5
CC
330
1F
100
AcDbEntity
  8
0
  6
Continuous
 62
     7
370
    15
100
AcDbCircle
 10
494.3422689844
 20
361.5816320588
 30
0.0
 40
10.00000000000006
100
AcDbArc
 50
0.0
 51
90.0
  0
LINE
  5
CD
330
1F
100
AcDbEntity
  8
0
  6
Continuous
 62
     7
370
    15
100
AcDbLine
 10
504.3422689844
 20
361.5816320588
 30
0.0
 11
504.3422689844
 21
356.5816320588
 31
0.0
  0
CIRCLE
  5
CE
330
1F
100
AcDbEntity
  8
0
  6
Continuous
 62
     7
370
    15
100
AcDbCircle
 10
144.1659843044
 20
364.0816320588
 30
0.0
 40
4.25
  0
CIRCLE
  5
CF
330
1F
100
AcDbEntity
  8
0
  6
Continuous
 62
     7
370
    15
100
AcDbCircle
 10
229.6041266444
 20
364.0816320588
 30
0.0
 40
4.25
  0
LINE
  5
D0
330
1F
100
AcDbEntity
  8
0
  6
Continuous
 62
     7
370
    15
100
AcDbLine
 10
124.0422689844
 20
329.4182786085
 30
0.0
 11
119.4422689844
 21
329.4182786085
 31
0.0
  0
LINE
  5
D1
330
1F
100
AcDbEntity
  8
0
  6
Continuous
 62
     7
370
    15
100
AcDbLine
 10
124.0422689844
 20
347.0182786085
 30
0.0
 11
124.0422689844
 21
329.4182786085
 31
0.0
  0
LINE
  5
D2
330
1F
100
AcDbEntity
  8
0
  6
Continuous
 62
     7
370
    15
100
AcDbLine
 10
119.4422689844
 20
347.0182786085
 30
0.0
 11
124.0422689844
 21
347.0182786085
 31
0.0
  0
LINE
  5
D3
330
1F
100
AcDbEntity
  8
0
  6
Continuous
 62
     7
370
    15
100
AcDbLine
 10
119.4422689844
 20
329.4182786085
 30
0.0
 11
119.4422689844
 21
347.0182786085
 31
0.0
  0
LINE
  5
D4
330
1F
100
AcDbEntity
  8
0
  6
Continuous
 62
     7
370
    15
100
AcDbLine
 10
112.7422689844
 20
329.4182786085
 30
0.0
 11
108.1422689844
 21
329.4182786085
 31
0.0
  0
LINE
  5
D5
330
1F
100
AcDbEntity
  8
0
  6
Continuous
 62
     7
370
    15
100
AcDbLine
 10
112.7422689844
 20
347.0182786085
 30
0.0
 11
112.7422689844
 21
329.4182786085
 31
0.0
  0
LINE
  5
D6
330
1F
100
AcDbEntity
  8
0
  6
Continuous
 62
     7
370
    15
100
AcDbLine
 10
108.1422689844
 20
347.0182786085
 30
0.0
 11
112.7422689844
 21
347.0182786085
 31
0.0
  0
LINE
  5
D7
330
1F
100
AcDbEntity
  8
0
  6
Continuous
 62
     7
370
    15
100
AcDbLine
 10
108.1422689844
 20
329.4182786085
 30
0.0
 11
108.1422689844
 21
347.0182786085
 31
0.0
  0
LINE
  5
D8
330
1F
100
AcDbEntity
  8
0
  6
Continuous
 62
     7
370
    15
100
AcDbLine
 10
101.2422689844
 20
329.4182786085
 30
0.0
 11
96.6422689844
 21
329.4182786085
 31
0.0
  0
LINE
  5
D9
330
1F
100
AcDbEntity
  8
0
  6
Continuous
 62
     7
370
    15
100
AcDbLine
 10
101.2422689844
 20
347.0182786085
 30
0.0
 11
101.2422689844
 21
329.4182786085
 31
0.0
  0
LINE
  5
DA
330
1F
100
AcDbEntity
  8
0
  6
Continuous
 62
     7
370
    15
100
AcDbLine
 10
96.6422689844
 20
347.0182786085
 30
0.0
 11
101.2422689844
 21
347.0182786085
 31
0.0
  0
LINE
  5
DB
330
1F
100
AcDbEntity
  8
0
  6
Continuous
 62
     7
370
    15
100
AcDbLine
 10
96.6422689844
 20
329.4182786085
 30
0.0
 11
96.6422689844
 21
347.0182786085
 31
0.0
  0
LINE
  5
DC
330
1F
100
AcDbEntity
  8
0
  6
Continuous
 62
     7
370
    15
100
AcDbLine
 10
89.7422689844
 20
329.4182786085
 30
0.0
 11
85.1422689844
 21
329.4182786085
 31
0.0
  0
LINE
  5
DD
330
1F
100
AcDbEntity
  8
0
  6
Continuous
 62
     7
370
    15
100
AcDbLine
 10
89.7422689844
 20
347.0182786085
 30
0.0
 11
89.7422689844
 21
329.4182786085
 31
0.0
  0
LINE
  5
DE
330
1F
100
AcDbEntity
  8
0
  6
Continuous
 62
     7
370
    15
100
AcDbLine
 10
85.1422689844
 20
347.0182786085
 30
0.0
 11
89.7422689844
 21
347.0182786085
 31
0.0
  0
LINE
  5
DF
330
1F
100
AcDbEntity
  8
0
  6
Continuous
 62
     7
370
    15
100
AcDbLine
 10
85.1422689844
 20
329.4182786085
 30
0.0
 11
85.1422689844
 21
347.0182786085
 31
0.0
  0
CIRCLE
  5
E0
330
1F
100
AcDbEntity
  8
0
  6
Continuous
 62
     7
370
    15
100
AcDbCircle
 10
315.0422689844
 20
364.0816320588
 30
0.0
 40
4.25
  0
CIRCLE
  5
E1
330
1F
100
AcDbEntity
  8
0
  6
Continuous
 62
     7
370
    15
100
AcDbCircle
 10
168.8922689844
 20
344.4016320588
 30
0.0
 40
5.250000000000057
  0
CIRCLE
  5
E2
330
1F
100
AcDbEntity
  8
0
  6
Continuous
 62
     7
370
    15
100
AcDbCircle
 10
168.8922689844
 20
280.6616320588
 30
0.0
 40
5.25
  0
CIRCLE
  5
E3
330
1F
100
AcDbEntity
  8
0
  6
Continuous
 62
     7
370
    15
100
AcDbCircle
 10
306.9198752921
 20
268.0365464768
 30
0.0
 40
5.25
  0
CIRCLE
  5
E4
330
1F
100
AcDbEntity
  8
0
  6
Continuous
 62
     7
370
    15
100
AcDbCircle
 10
306.9198752921
 20
344.5365464768
 30
0.0
 40
5.250000000000057
  0
CIRCLE
  5
E5
330
1F
100
AcDbEntity
  8
0
  6
Continuous
 62
     7
370
    15
100
AcDbCircle
 10
406.2422689844
 20
170.5365457962
 30
0.0
 40
5.25
  0
CIRCLE
  5
E6
330
1F
100
AcDbEntity
  8
0
  6
Continuous
 62
     7
370
    15
100
AcDbCircle
 10
406.2422689844
 20
247.0365457962
 30
0.0
 40
5.25
  0
CIRCLE
  5
E7
330
1F
100
AcDbEntity
  8
0
  6
Continuous
 62
     7
370
    15
100
AcDbCircle
 10
269.2422689844
 20
90.020722861
 30
0.0
 40
3.249999999999972
  0
CIRCLE
  5
E8
330
1F
100
AcDbEntity
  8
0
  6
Continuous
 62
     7
370
    15
100
AcDbCircle
 10
359.2422689844
 20
90.020722861
 30
0.0
 40
3.249999999999972
  0
CIRCLE
  5
E9
330
1F
100
AcDbEntity
  8
0
  6
Continuous
 62
     7
370
    15
100
AcDbCircle
 10
449.2422689844
 20
90.020722861
 30
0.0
 40
3.250000000000028
  0
CIRCLE
  5
EA
330
1F
100
AcDbEntity
  8
0
  6
Continuous
 62
     7
370
    15
100
AcDbCircle
 10
179.2422689844
 20
90.020722861
 30
0.0
 40
3.250000000000028
  0
CIRCLE
  5
EB
330
1F
100
AcDbEntity
  8
0
  6
Continuous
 62
     7
370
    15
100
AcDbCircle
 10
147.6722689844
 20
251.0516320588
 30
0.0
 40
3.249999999999972
  0
CIRCLE
  5
EC
330
1F
100
AcDbEntity
  8
0
  6
Continuous
 62
     7
370
    15
100
AcDbCircle
 10
147.6722689844
 20
196.0516320588
 30
0.0
 40
3.25
  0
LINE
  5
ED
330
1F
100
AcDbEntity
  8
0
  6
Continuous
 62
     7
370
    15
100
AcDbLine
 10
78.7422689844
 20
329.4182786085
 30
0.0
 11
74.3422689844
 21
329.4182786085
 31
0.0
  0
LINE
  5
EE
330
1F
100
AcDbEntity
  8
0
  6
Continuous
 62
     7
370
    15
100
AcDbLine
 10
78.7422689844
 20
347.0182786085
 30
0.0
 11
78.7422689844
 21
329.4182786085
 31
0.0
  0
LINE
  5
EF
330
1F
100
AcDbEntity
  8
0
  6
Continuous
 62
     7
370
    15
100
AcDbLine
 10
74.3422689844
 20
347.0182786085
 30
0.0
 11
78.7422689844
 21
347.0182786085
 31
0.0
  0
LINE
  5
F0
330
1F
100
AcDbEntity
  8
0
  6
Continuous
 62
     7
370
    15
100
AcDbLine
 10
74.3422689844
 20
329.4182786085
 30
0.0
 11
74.3422689844
 21
347.0182786085
 31
0.0
  0
LINE
  5
F1
330
1F
100
AcDbEntity
  8
0
  6
Continuous
 62
     7
370
    15
100
AcDbLine
 10
555.7422689844
 20
347.0182786085
 30
0.0
 11
551.3422689844
 21
347.0182786085
 31
0.0
  0
LINE
  5
F2
330
1F
100
AcDbEntity
  8
0
  6
Continuous
 62
     7
370
    15
100
AcDbLine
 10
551.3422689844
 20
347.0182786085
 30
0.0
 11
551.3422689844
 21
329.4182786085
 31
0.0
  0
LINE
  5
F3
330
1F
100
AcDbEntity
  8
0
  6
Continuous
 62
     7
370
    15
100
AcDbLine
 10
551.3422689844
 20
329.4182786085
 30
0.0
 11
555.7422689844
 21
329.4182786085
 31
0.0
  0
LINE
  5
F4
330
1F
100
AcDbEntity
  8
0
  6
Continuous
 62
     7
370
    15
100
AcDbLine
 10
555.7422689844
 20
329.4182786085
 30
0.0
 11
555.7422689844
 21
347.0182786085
 31
0.0
  0
ENDSEC
  0
SECTION
  2
OBJECTS
  0
DICTIONARY
  5
C
330
0
100
AcDbDictionary
281
     1
  3
ACAD_GROUP
350
D
  3
ACAD_LAYOUT
350
1A
  3
ACAD_MLINESTYLE
350
17
  3
ACAD_PLOTSETTINGS
350
19
  3
ACAD_PLOTSTYLENAME
350
E
  3
ACAD_SCALELIST
350
47
  0
DICTIONARY
  5
D
102
{ACAD_REACTORS
330
C
102
}
330
C
100
AcDbDictionary
281
     1
  0
DICTIONARY
  5
1A
102
{ACAD_REACTORS
330
C
102
}
330
C
100
AcDbDictionary
281
     1
  3
Layout1
350
1E
  3
Layout2
350
26
  3
Model
350
22
  0
DICTIONARY
  5
17
102
{ACAD_REACTORS
330
C
102
}
330
C
100
AcDbDictionary
281
     1
  3
Standard
350
18
  0
DICTIONARY
  5
19
102
{ACAD_REACTORS
330
C
102
}
330
C
100
AcDbDictionary
281
     1
  0
ACDBDICTIONARYWDFLT
  5
E
102
{ACAD_REACTORS
330
C
102
}
330
C
100
AcDbDictionary
281
     1
  3
Normal
350
F
100
AcDbDictionaryWithDefault
340
F
  0
DICTIONARY
  5
47
102
{ACAD_REACTORS
330
C
102
}
330
C
100
AcDbDictionary
281
     1
  3
A0
350
48
  3
A1
350
49
  3
A2
350
4A
  3
A3
350
4B
  3
A4
350
4C
  3
A5
350
4D
  3
A6
350
4E
  3
A7
350
4F
  3
A8
350
50
  3
A9
350
51
  3
B0
350
52
  3
B1
350
53
  3
B2
350
54
  3
B3
350
55
  3
B4
350
56
  3
B5
350
57
  3
B6
350
58
  3
B7
350
59
  3
B8
350
5A
  3
B9
350
5B
  3
C0
350
5C
  3
C1
350
5D
  3
C2
350
5E
  3
C3
350
5F
  3
C4
350
60
  3
C5
350
61
  3
C6
350
62
  3
C7
350
63
  3
C8
350
64
  3
C9
350
65
  3
D0
350
66
  3
D1
350
67
  3
D2
350
68
  0
LAYOUT
  5
1E
102
{ACAD_REACTORS
330
1A
102
}
330
1A
100
AcDbPlotSettings
  1

  2
none_device
  4

  6

 40
0.0
 41
0.0
 42
0.0
 43
0.0
 44
0.0
 45
0.0
 46
0.0
 47
0.0
 48
0.0
 49
0.0
140
0.0
141
0.0
142
1.0
143
1.0
 70
   688
 72
     1
 73
     0
 74
     5
  7

 75
    16
147
1.0
148
0.0
149
0.0
100
AcDbLayout
  1
Layout1
 70
     1
 71
     1
 10
0.0
 20
0.0
 11
420.0
 21
297.0
 12
0.0
 22
0.0
 32
0.0
 14
1.0000000000E+20
 24
1.0000000000E+20
 34
1.0000000000E+20
 15
-1.0000000000E+20
 25
-1.0000000000E+20
 35
-1.0000000000E+20
146
0.0
 13
0.0
 23
0.0
 33
0.0
 16
1.0
 26
0.0
 36
0.0
 17
0.0
 27
1.0
 37
0.0
 76
     0
330
1B
  0
LAYOUT
  5
26
102
{ACAD_REACTORS
330
1A
102
}
330
1A
100
AcDbPlotSettings
  1

  2
none_device
  4

  6

 40
0.0
 41
0.0
 42
0.0
 43
0.0
 44
0.0
 45
0.0
 46
0.0
 47
0.0
 48
0.0
 49
0.0
140
0.0
141
0.0
142
1.0
143
1.0
 70
   688
 72
     1
 73
     0
 74
     5
  7

 75
    16
147
1.0
148
0.0
149
0.0
100
AcDbLayout
  1
Layout2
 70
     1
 71
     2
 10
0.0
 20
0.0
 11
0.0
 21
0.0
 12
0.0
 22
0.0
 32
0.0
 14
0.0
 24
0.0
 34
0.0
 15
0.0
 25
0.0
 35
0.0
146
0.0
 13
0.0
 23
0.0
 33
0.0
 16
1.0
 26
0.0
 36
0.0
 17
0.0
 27
1.0
 37
0.0
 76
     0
330
23
  0
LAYOUT
  5
22
102
{ACAD_REACTORS
330
1A
102
}
330
1A
100
AcDbPlotSettings
  1

  2
none_device
  4
Letter_(8.50_x_11.00_Inches)
  6

 40
6.35
 41
6.35
 42
6.35000508
 43
6.35000508
 44
215.9
 45
279.4
 46
0.0
 47
0.0
 48
0.0
 49
0.0
140
0.0
141
0.0
142
1.0
143
1.0
 70
  1712
 72
     1
 73
     0
 74
     0
  7

 75
     0
147
1.0
148
0.0
149
0.0
100
AcDbLayout
  1
Model
 70
     1
 71
     0
 10
0.0
 20
0.0
 11
841.0
 21
594.0
 12
0.0
 22
0.0
 32
0.0
 14
0.0
 24
0.0
 34
0.0
 15
841.0
 25
594.0
 35
0.0
146
0.0
 13
0.0
 23
0.0
 33
0.0
 16
1.0
 26
0.0
 36
0.0
 17
0.0
 27
1.0
 37
0.0
 76
     0
330
1F
331
29
  0
MLINESTYLE
  5
18
102
{ACAD_REACTORS
330
17
102
}
330
17
100
AcDbMlineStyle
  2
Standard
 70
     0
  3

 62
   256
 51
90.0
 52
90.0
 71
     2
 49
0.5
 62
   256
  6
BYLAYER
 49
-0.5
 62
   256
  6
BYLAYER
  0
ACDBPLACEHOLDER
  5
F
102
{ACAD_REACTORS
330
E
102
}
330
E
  0
SCALE
  5
48
102
{ACAD_REACTORS
330
47
102
}
330
47
100
AcDbScale
 70
     0
300
1:1
140
1.0
141
1.0
290
     1
  0
SCALE
  5
49
102
{ACAD_REACTORS
330
47
102
}
330
47
100
AcDbScale
 70
     0
300
1:2
140
1.0
141
2.0
290
     0
  0
SCALE
  5
4A
102
{ACAD_REACTORS
330
47
102
}
330
47
100
AcDbScale
 70
     0
300
1:4
140
1.0
141
4.0
290
     0
  0
SCALE
  5
4B
102
{ACAD_REACTORS
330
47
102
}
330
47
100
AcDbScale
 70
     0
300
1:5
140
1.0
141
5.0
290
     0
  0
SCALE
  5
4C
102
{ACAD_REACTORS
330
47
102
}
330
47
100
AcDbScale
 70
     0
300
1:8
140
1.0
141
8.0
290
     0
  0
SCALE
  5
4D
102
{ACAD_REACTORS
330
47
102
}
330
47
100
AcDbScale
 70
     0
300
1:10
140
1.0
141
10.0
290
     0
  0
SCALE
  5
4E
102
{ACAD_REACTORS
330
47
102
}
330
47
100
AcDbScale
 70
     0
300
1:16
140
1.0
141
16.0
290
     0
  0
SCALE
  5
4F
102
{ACAD_REACTORS
330
47
102
}
330
47
100
AcDbScale
 70
     0
300
1:20
140
1.0
141
20.0
290
     0
  0
SCALE
  5
50
102
{ACAD_REACTORS
330
47
102
}
330
47
100
AcDbScale
 70
     0
300
1:30
140
1.0
141
30.0
290
     0
  0
SCALE
  5
51
102
{ACAD_REACTORS
330
47
102
}
330
47
100
AcDbScale
 70
     0
300
1:40
140
1.0
141
40.0
290
     0
  0
SCALE
  5
52
102
{ACAD_REACTORS
330
47
102
}
330
47
100
AcDbScale
 70
     0
300
1:50
140
1.0
141
50.0
290
     0
  0
SCALE
  5
53
102
{ACAD_REACTORS
330
47
102
}
330
47
100
AcDbScale
 70
     0
300
1:100
140
1.0
141
100.0
290
     0
  0
SCALE
  5
54
102
{ACAD_REACTORS
330
47
102
}
330
47
100
AcDbScale
 70
     0
300
2:1
140
2.0
141
1.0
290
     0
  0
SCALE
  5
55
102
{ACAD_REACTORS
330
47
102
}
330
47
100
AcDbScale
 70
     0
300
4:1
140
4.0
141
1.0
290
     0
  0
SCALE
  5
56
102
{ACAD_REACTORS
330
47
102
}
330
47
100
AcDbScale
 70
     0
300
8:1
140
8.0
141
1.0
290
     0
  0
SCALE
  5
57
102
{ACAD_REACTORS
330
47
102
}
330
47
100
AcDbScale
 70
     0
300
10:1
140
10.0
141
1.0
290
     0
  0
SCALE
  5
58
102
{ACAD_REACTORS
330
47
102
}
330
47
100
AcDbScale
 70
     0
300
100:1
140
100.0
141
1.0
290
     0
  0
SCALE
  5
59
102
{ACAD_REACTORS
330
47
102
}
330
47
100
AcDbScale
 70
     0
300
1/128" = 1'-0"
140
0.0078125
141
12.0
290
     0
  0
SCALE
  5
5A
102
{ACAD_REACTORS
330
47
102
}
330
47
100
AcDbScale
 70
     0
300
1/64" = 1'-0"
140
0.015625
141
12.0
290
     0
  0
SCALE
  5
5B
102
{ACAD_REACTORS
330
47
102
}
330
47
100
AcDbScale
 70
     0
300
1/32" = 1'-0"
140
0.03125
141
12.0
290
     0
  0
SCALE
  5
5C
102
{ACAD_REACTORS
330
47
102
}
330
47
100
AcDbScale
 70
     0
300
1/16" = 1'-0"
140
0.0625
141
12.0
290
     0
  0
SCALE
  5
5D
102
{ACAD_REACTORS
330
47
102
}
330
47
100
AcDbScale
 70
     0
300
3/32" = 1'-0"
140
0.09375
141
12.0
290
     0
  0
SCALE
  5
5E
102
{ACAD_REACTORS
330
47
102
}
330
47
100
AcDbScale
 70
     0
300
1/8" = 1'-0"
140
0.125
141
12.0
290
     0
  0
SCALE
  5
5F
102
{ACAD_REACTORS
330
47
102
}
330
47
100
AcDbScale
 70
     0
300
3/16" = 1'-0"
140
0.1875
141
12.0
290
     0
  0
SCALE
  5
60
102
{ACAD_REACTORS
330
47
102
}
330
47
100
AcDbScale
 70
     0
300
1/4" = 1'-0"
140
0.25
141
12.0
290
     0
  0
SCALE
  5
61
102
{ACAD_REACTORS
330
47
102
}
330
47
100
AcDbScale
 70
     0
300
3/8" = 1'-0"
140
0.375
141
12.0
290
     0
  0
SCALE
  5
62
102
{ACAD_REACTORS
330
47
102
}
330
47
100
AcDbScale
 70
     0
300
1/2" = 1'-0"
140
0.5
141
12.0
290
     0
  0
SCALE
  5
63
102
{ACAD_REACTORS
330
47
102
}
330
47
100
AcDbScale
 70
     0
300
3/4" = 1'-0"
140
0.75
141
12.0
290
     0
  0
SCALE
  5
64
102
{ACAD_REACTORS
330
47
102
}
330
47
100
AcDbScale
 70
     0
300
1" = 1'-0"
140
1.0
141
12.0
290
     0
  0
SCALE
  5
65
102
{ACAD_REACTORS
330
47
102
}
330
47
100
AcDbScale
 70
     0
300
1-1/2" = 1'-0"
140
1.5
141
12.0
290
     0
  0
SCALE
  5
66
102
{ACAD_REACTORS
330
47
102
}
330
47
100
AcDbScale
 70
     0
300
3" = 1'-0"
140
3.0
141
12.0
290
     0
  0
SCALE
  5
67
102
{ACAD_REACTORS
330
47
102
}
330
47
100
AcDbScale
 70
     0
300
6" = 1'-0"
140
6.0
141
12.0
290
     0
  0
SCALE
  5
68
102
{ACAD_REACTORS
330
47
102
}
330
47
100
AcDbScale
 70
     0
300
1'-0" = 1'-0"
140
12.0
141
12.0
290
     0
  0
ENDSEC
  0
EOF
