  0
SECTION
  2
HEADER
  9
$ACADVER
  1
AC1015
  9
$ACADMAINTVER
 70
     6
  9
$DWGCODEPAGE
  3
ANSI_1252
  9
$INSBASE
 10
0.0
 20
0.0
 30
0.0
  9
$EXTMIN
 10
0.0
 20
0.0
 30
0.0
  9
$EXTMAX
 10
594.0
 20
420.0
 30
0.0
  9
$LIMMIN
 10
0.0
 20
0.0
  9
$LIMMAX
 10
594.0
 20
420.0
  9
$ORTHOMODE
 70
     0
  9
$REGENMODE
 70
     1
  9
$FILLMODE
 70
     1
  9
$QTEXTMODE
 70
     0
  9
$MIRRTEXT
 70
     1
  9
$LTSCALE
 40
1.0
  9
$ATTMODE
 70
     1
  9
$TEXTSIZE
 40
3.5
  9
$TRACEWID
 40
1.0
  9
$TEXTSTYLE
  7
Standard
  9
$CLAYER
  8
0
  9
$CELTYPE
  6
ByLayer
  9
$CECOLOR
 62
   256
  9
$CELTSCALE
 40
1.0
  9
$DISPSILH
 70
     0
  9
$DIMSCALE
 40
1.0
  9
$DIMASZ
 40
3.556
  9
$DIMEXO
 40
1.0
  9
$DIMDLI
 40
3.75
  9
$DIMRND
 40
0.0
  9
$DIMDLE
 40
0.0
  9
$DIMEXE
 40
1.0
  9
$DIMTP
 40
0.0
  9
$DIMTM
 40
0.0
  9
$DIMTXT
 40
3.5
  9
$DIMCEN
 40
2.5
  9
$DIMTSZ
 40
0.0
  9
$DIMTOL
 70
     0
  9
$DIMLIM
 70
     0
  9
$DIMTIH
 70
     1
  9
$DIMTOH
 70
     1
  9
$DIMSE1
 70
     0
  9
$DIMSE2
 70
     0
  9
$DIMTAD
 70
     1
  9
$DIMZIN
 70
     0
  9
$DIMBLK
  1

  9
$DIMASO
 70
     1
  9
$DIMSHO
 70
     1
  9
$DIMPOST
  1

  9
$DIMAPOST
  1

  9
$DIMALT
 70
     0
  9
$DIMALTD
 70
     3
  9
$DIMALTF
 40
0.0393700787
  9
$DIMLFAC
 40
1.0
  9
$DIMTOFL
 70
     1
  9
$DIMTVP
 40
0.0
  9
$DIMTIX
 70
     0
  9
$DIMSOXD
 70
     0
  9
$DIMSAH
 70
     0
  9
$DIMBLK1
  1

  9
$DIMBLK2
  1

  9
$DIMSTYLE
  2
ISO-25
  9
$DIMCLRD
 70
     0
  9
$DIMCLRE
 70
     0
  9
$DIMCLRT
 70
     0
  9
$DIMTFAC
 40
1.0
  9
$DIMGAP
 40
1.524
  9
$DIMJUST
 70
     0
  9
$DIMSD1
 70
     0
  9
$DIMSD2
 70
     0
  9
$DIMTOLJ
 70
     0
  9
$DIMTZIN
 70
     0
  9
$DIMALTZ
 70
     0
  9
$DIMALTTZ
 70
     0
  9
$DIMUPT
 70
     0
  9
$DIMDEC
 70
     2
  9
$DIMTDEC
 70
     2
  9
$DIMALTU
 70
     2
  9
$DIMALTTD
 70
     3
  9
$DIMTXSTY
  7
Standard
  9
$DIMAUNIT
 70
     0
  9
$DIMADEC
 70
     2
  9
$DIMALTRND
 40
0.0
  9
$DIMAZIN
 70
     0
  9
$DIMDSEP
 70
    44
  9
$DIMATFIT
 70
     3
  9
$DIMFRAC
 70
     0
  9
$DIMLDRBLK
  1

  9
$DIMLUNIT
 70
     2
  9
$DIMLWD
 70
    -2
  9
$DIMLWE
 70
    -2
  9
$DIMTMOVE
 70
     0
  9
$LUNITS
 70
     2
  9
$LUPREC
 70
     5
  9
$SKETCHINC
 40
1.0
  9
$FILLETRAD
 40
10.0
  9
$AUNITS
 70
     0
  9
$AUPREC
 70
     2
  9
$MENU
  1
.
  9
$ELEVATION
 40
0.0
  9
$PELEVATION
 40
0.0
  9
$THICKNESS
 40
0.0
  9
$LIMCHECK
 70
     0
  9
$CHAMFERA
 40
0.0
  9
$CHAMFERB
 40
0.0
  9
$CHAMFERC
 40
0.0
  9
$CHAMFERD
 40
0.0
  9
$SKPOLY
 70
     0
  9
$TDCREATE
 40
2457821.748740151
  9
$TDUCREATE
 40
2457821.748740151
  9
$TDUPDATE
 40
2457821.748740776
  9
$TDUUPDATE
 40
2457821.748740776
  9
$TDINDWG
 40
0.0000000116
  9
$TDUSRTIMER
 40
0.0000000116
  9
$USRTIMER
 70
     1
  9
$ANGBASE
 50
0.0
  9
$ANGDIR
 70
     0
  9
$PDMODE
 70
     0
  9
$PDSIZE
 40
-1.0
  9
$PLINEWID
 40
0.0
  9
$SPLFRAME
 70
     0
  9
$SPLINETYPE
 70
     6
  9
$SPLINESEGS
 70
     8
  9
$HANDSEED
  5
221
  9
$SURFTAB1
 70
     6
  9
$SURFTAB2
 70
     6
  9
$SURFTYPE
 70
     6
  9
$SURFU
 70
     6
  9
$SURFV
 70
     6
  9
$UCSBASE
  2

  9
$UCSNAME
  2

  9
$UCSORG
 10
0.0
 20
0.0
 30
0.0
  9
$UCSXDIR
 10
1.0
 20
0.0
 30
0.0
  9
$UCSYDIR
 10
0.0
 20
1.0
 30
0.0
  9
$UCSORTHOREF
  2

  9
$UCSORTHOVIEW
 70
     0
  9
$UCSORGTOP
 10
0.0
 20
0.0
 30
0.0
  9
$UCSORGBOTTOM
 10
0.0
 20
0.0
 30
0.0
  9
$UCSORGLEFT
 10
0.0
 20
0.0
 30
0.0
  9
$UCSORGRIGHT
 10
0.0
 20
0.0
 30
0.0
  9
$UCSORGFRONT
 10
0.0
 20
0.0
 30
0.0
  9
$UCSORGBACK
 10
0.0
 20
0.0
 30
0.0
  9
$PUCSBASE
  2

  9
$PUCSNAME
  2

  9
$PUCSORG
 10
0.0
 20
0.0
 30
0.0
  9
$PUCSXDIR
 10
1.0
 20
0.0
 30
0.0
  9
$PUCSYDIR
 10
0.0
 20
1.0
 30
0.0
  9
$PUCSORTHOREF
  2

  9
$PUCSORTHOVIEW
 70
     0
  9
$PUCSORGTOP
 10
0.0
 20
0.0
 30
0.0
  9
$PUCSORGBOTTOM
 10
0.0
 20
0.0
 30
0.0
  9
$PUCSORGLEFT
 10
0.0
 20
0.0
 30
0.0
  9
$PUCSORGRIGHT
 10
0.0
 20
0.0
 30
0.0
  9
$PUCSORGFRONT
 10
0.0
 20
0.0
 30
0.0
  9
$PUCSORGBACK
 10
0.0
 20
0.0
 30
0.0
  9
$USERI1
 70
     0
  9
$USERI2
 70
     0
  9
$USERI3
 70
     0
  9
$USERI4
 70
     0
  9
$USERI5
 70
     0
  9
$USERR1
 40
0.0
  9
$USERR2
 40
0.0
  9
$USERR3
 40
0.0
  9
$USERR4
 40
0.0
  9
$USERR5
 40
0.0
  9
$WORLDVIEW
 70
     1
  9
$SHADEDGE
 70
     3
  9
$SHADEDIF
 70
    70
  9
$TILEMODE
 70
     1
  9
$MAXACTVP
 70
    64
  9
$PINSBASE
 10
0.0
 20
0.0
 30
0.0
  9
$PLIMCHECK
 70
     0
  9
$PEXTMIN
 10
1.0000000000E+20
 20
1.0000000000E+20
 30
1.0000000000E+20
  9
$PEXTMAX
 10
-1.0000000000E+20
 20
-1.0000000000E+20
 30
-1.0000000000E+20
  9
$PLIMMIN
 10
0.0
 20
0.0
  9
$PLIMMAX
 10
420.0
 20
297.0
  9
$UNITMODE
 70
     0
  9
$VISRETAIN
 70
     1
  9
$PLINEGEN
 70
     0
  9
$PSLTSCALE
 70
     1
  9
$TREEDEPTH
 70
  3020
  9
$CMLSTYLE
  2
Standard
  9
$CMLJUST
 70
     0
  9
$CMLSCALE
 40
20.0
  9
$PROXYGRAPHICS
 70
     1
  9
$MEASUREMENT
 70
     1
  9
$CELWEIGHT
370
    -1
  9
$ENDCAPS
280
     0
  9
$JOINSTYLE
280
     0
  9
$LWDISPLAY
290
     1
  9
$INSUNITS
 70
     4
  9
$HYPERLINKBASE
  1

  9
$STYLESHEET
  1

  9
$XEDIT
290
     1
  9
$CEPSNTYPE
380
     0
  9
$PSTYLEMODE
290
     1
  9
$FINGERPRINTGUID
  2
{D7C9812A-3CFD-4D7B-A6BC-87938A8825B8}
  9
$VERSIONGUID
  2
{FAEB1C32-E019-11D5-929B-00C0DF256EC4}
  9
$EXTNAMES
290
     1
  9
$PSVPSCALE
 40
0.0
  9
$OLESTARTUP
290
     0
  0
ENDSEC
  0
SECTION
  2
CLASSES
  0
CLASS
  1
ACDBDICTIONARYWDFLT
  2
AcDbDictionaryWithDefault
  3
ObjectDBX Classes
 90
        0
280
     0
281
     0
  0
CLASS
  1
VISUALSTYLE
  2
AcDbVisualStyle
  3
ObjectDBX Classes
 90
     4095
280
     0
281
     0
  0
CLASS
  1
MATERIAL
  2
AcDbMaterial
  3
ObjectDBX Classes
 90
     1153
280
     0
281
     0
  0
CLASS
  1
SCALE
  2
AcDbScale
  3
ObjectDBX Classes
 90
     1153
280
     0
281
     0
  0
CLASS
  1
TABLESTYLE
  2
AcDbTableStyle
  3
ObjectDBX Classes
 90
     4095
280
     0
281
     0
  0
CLASS
  1
MLEADERSTYLE
  2
AcDbMLeaderStyle
  3
ACDB_MLEADERSTYLE_CLASS
 90
     4095
280
     0
281
     0
  0
CLASS
  1
SUN
  2
AcDbSun
  3
SCENEOE
 90
     1153
280
     0
281
     0
  0
CLASS
  1
ACDBPLACEHOLDER
  2
AcDbPlaceHolder
  3
ObjectDBX Classes
 90
        0
280
     0
281
     0
  0
CLASS
  1
LAYOUT
  2
AcDbLayout
  3
ObjectDBX Classes
 90
        0
280
     0
281
     0
  0
ENDSEC
  0
SECTION
  2
TABLES
  0
TABLE
  2
VPORT
  5
8
330
0
100
AcDbSymbolTable
 70
     1
  0
VPORT
  5
29
330
8
100
AcDbSymbolTableRecord
100
AcDbViewportTableRecord
  2
*Active
 70
     0
 10
0.0
 20
0.0
 11
1.0
 21
1.0
 12
297.0
 22
210.0
 13
0.0
 23
0.0
 14
10.0
 24
10.0
 15
10.0
 25
10.0
 16
0.0
 26
0.0
 36
1.0
 17
0.0
 27
0.0
 37
0.0
 40
420.0
 41
1.4142857143
 42
50.0
 43
0.0
 44
0.0
 50
0.0
 51
0.0
 71
     0
 72
  2000
 73
     1
 74
     3
 75
     0
 76
     0
 77
     0
 78
     0
281
     0
 65
     1
110
0.0
120
0.0
130
0.0
111
1.0
121
0.0
131
0.0
112
0.0
122
1.0
132
0.0
 79
     0
146
0.0
  0
ENDTAB
  0
TABLE
  2
LTYPE
  5
5
330
0
100
AcDbSymbolTable
 70
     6
  0
LTYPE
  5
14
330
5
100
AcDbSymbolTableRecord
100
AcDbLinetypeTableRecord
  2
ByBlock
 70
     0
  3

 72
    65
 73
     0
 40
0.0
  0
LTYPE
  5
15
330
5
100
AcDbSymbolTableRecord
100
AcDbLinetypeTableRecord
  2
ByLayer
 70
     0
  3

 72
    65
 73
     0
 40
0.0
  0
LTYPE
  5
16
330
5
100
AcDbSymbolTableRecord
100
AcDbLinetypeTableRecord
  2
Continuous
 70
     0
  3
Solid line
 72
    65
 73
     0
 40
0.0
  0
LTYPE
  5
6E
330
5
100
AcDbSymbolTableRecord
100
AcDbLinetypeTableRecord
  2
HIDDEN
 70
     0
  3
Hidden __ __ __ __ __ __ __ __ __ __ __ __ __ __
 72
    65
 73
     2
 40
1.905
 49
1.27
 74
     0
 49
-0.635
 74
     0
  0
LTYPE
  5
6F
330
5
100
AcDbSymbolTableRecord
100
AcDbLinetypeTableRecord
  2
PHANTOM
 70
     0
  3
Phantom ______  __  __  ______  __  __  ______
 72
    65
 73
     6
 40
12.7
 49
6.35
 74
     0
 49
-1.27
 74
     0
 49
1.27
 74
     0
 49
-1.27
 74
     0
 49
1.27
 74
     0
 49
-1.27
 74
     0
  0
LTYPE
  5
70
330
5
100
AcDbSymbolTableRecord
100
AcDbLinetypeTableRecord
  2
CENTER
 70
     0
  3
Center ____ _ ____ _ ____ _ ____ _ ____ _ ____
 72
    65
 73
     4
 40
10.16
 49
6.35
 74
     0
 49
-1.27
 74
     0
 49
1.27
 74
     0
 49
-1.27
 74
     0
  0
LTYPE
  5
71
330
5
100
AcDbSymbolTableRecord
100
AcDbLinetypeTableRecord
  2
CENTERX2
 70
     0
  3
Center (2x) ________  __  ________  __  _____
 72
    65
 73
     4
 40
20.32
 49
12.7
 74
     0
 49
-2.54
 74
     0
 49
2.54
 74
     0
 49
-2.54
 74
     0
  0
LTYPE
  5
72
330
5
100
AcDbSymbolTableRecord
100
AcDbLinetypeTableRecord
  2
DOT2
 70
     0
  3
Dot (.5x) ........................................
 72
    65
 73
     2
 40
0.635
 49
0.0
 74
     0
 49
-0.635
 74
     0
  0
ENDTAB
  0
TABLE
  2
LAYER
  5
2
330
0
100
AcDbSymbolTable
 70
     1
  0
LAYER
  5
10
330
2
100
AcDbSymbolTableRecord
100
AcDbLayerTableRecord
  2
0
 70
     0
 62
     7
  6
Continuous
370
    -3
390
F
  0
ENDTAB
  0
TABLE
  2
STYLE
  5
3
330
0
100
AcDbSymbolTable
 70
     1
  0
STYLE
  5
11
330
3
100
AcDbSymbolTableRecord
100
AcDbTextStyleTableRecord
  2
Standard
 70
     0
 40
0.0
 41
1.0
 50
0.0
 71
     0
 42
3.5
  3
txt
  4

  0
ENDTAB
  0
TABLE
  2
VIEW
  5
6
330
0
100
AcDbSymbolTable
 70
     0
  0
ENDTAB
  0
TABLE
  2
UCS
  5
7
330
0
100
AcDbSymbolTable
 70
     0
  0
ENDTAB
  0
TABLE
  2
APPID
  5
9
330
0
100
AcDbSymbolTable
 70
     1
  0
APPID
  5
12
330
9
100
AcDbSymbolTableRecord
100
AcDbRegAppTableRecord
  2
ACAD
 70
     0
  0
ENDTAB
  0
TABLE
  2
DIMSTYLE
  5
A
330
0
100
AcDbSymbolTable
 70
     1
100
AcDbDimStyleTable
  0
DIMSTYLE
105
27
330
A
100
AcDbSymbolTableRecord
100
AcDbDimStyleTableRecord
  2
ISO-25
 70
     0
 41
2.5
 42
0.625
 43
3.75
 44
1.25
 73
     0
 74
     0
 77
     1
 78
     8
140
2.5
141
2.5
143
0.0393700787
147
0.625
171
     3
172
     1
178
     0
271
     2
272
     2
274
     3
278
    44
283
     0
284
     8
340
11
  0
ENDTAB
  0
TABLE
  2
BLOCK_RECORD
  5
1
330
0
100
AcDbSymbolTable
 70
     1
  0
BLOCK_RECORD
  5
1F
330
1
100
AcDbSymbolTableRecord
100
AcDbBlockTableRecord
  2
*Model_Space
340
22
  0
BLOCK_RECORD
  5
1B
330
1
100
AcDbSymbolTableRecord
100
AcDbBlockTableRecord
  2
*Paper_Space
340
1E
  0
BLOCK_RECORD
  5
23
330
1
100
AcDbSymbolTableRecord
100
AcDbBlockTableRecord
  2
*Paper_Space0
340
26
  0
ENDTAB
  0
ENDSEC
  0
SECTION
  2
BLOCKS
  0
BLOCK
  5
20
330
1F
100
AcDbEntity
  8
0
100
AcDbBlockBegin
  2
*Model_Space
 70
     0
 10
0.0
 20
0.0
 30
0.0
  3
*Model_Space
  1

  0
ENDBLK
  5
21
330
1F
100
AcDbEntity
  8
0
100
AcDbBlockEnd
  0
BLOCK
  5
1C
330
1B
100
AcDbEntity
 67
     1
  8
0
100
AcDbBlockBegin
  2
*Paper_Space
 70
     0
 10
0.0
 20
0.0
 30
0.0
  3
*Paper_Space
  1

  0
ENDBLK
  5
1D
330
1B
100
AcDbEntity
 67
     1
  8
0
100
AcDbBlockEnd
  0
BLOCK
  5
24
330
23
100
AcDbEntity
  8
0
100
AcDbBlockBegin
  2
*Paper_Space0
 70
     0
 10
0.0
 20
0.0
 30
0.0
  3
*Paper_Space0
  1

  0
ENDBLK
  5
25
330
23
100
AcDbEntity
  8
0
100
AcDbBlockEnd
  0
ENDSEC
  0
SECTION
  2
ENTITIES
  0
LINE
  5
73
330
1F
100
AcDbEntity
  8
0
  6
Continuous
 62
     7
370
    15
100
AcDbLine
 10
350.6826551919
 20
108.3114293165
 30
0.0
 11
350.6826551919
 21
8.3114278264
 31
0.0
  0
LINE
  5
74
330
1F
100
AcDbEntity
  8
0
  6
Continuous
 62
     7
370
    15
100
AcDbLine
 10
350.6826551919
 20
8.3114278264
 30
0.0
 11
6.6826435094
 21
8.3114278264
 31
0.0
  0
ARC
  5
75
330
1F
100
AcDbEntity
  8
0
  6
Continuous
 62
     7
370
    15
100
AcDbCircle
 10
35.3945185266
 20
85.7805835974
 30
0.0
 40
1.000000000000005
100
AcDbArc
 50
251.0706270643
 51
288.9293729357
  0
ARC
  5
76
330
1F
100
AcDbEntity
  8
0
  6
Continuous
 62
     7
370
    15
100
AcDbCircle
 10
28.8788688124
 20
104.7794510381
 30
0.0
 40
21.08508539255467
100
AcDbArc
 50
288.9293729357
 51
323.0706270643
  0
ARC
  5
77
330
1F
100
AcDbEntity
  8
0
  6
Continuous
 62
     7
370
    15
100
AcDbCircle
 10
44.9344190031
 20
92.7117270065
 30
0.0
 40
1.0
100
AcDbArc
 50
323.0706270643
 51
0.9293729357
  0
ARC
  5
78
330
1F
100
AcDbEntity
  8
0
  6
Continuous
 62
     7
370
    15
100
AcDbCircle
 10
24.8519758303
 20
92.385948801
 30
0.0
 40
21.08508539255464
100
AcDbArc
 50
0.9293729357
 51
35.0706270643
  0
ARC
  5
79
330
1F
100
AcDbEntity
  8
0
  6
Continuous
 62
     7
370
    15
100
AcDbCircle
 10
41.2905012703
 20
103.9265526233
 30
0.0
 40
0.9999999999999972
100
AcDbArc
 50
35.0706270643
 51
72.9293729357
  0
ARC
  5
7A
330
1F
100
AcDbEntity
  8
0
  6
Continuous
 62
     7
370
    15
100
AcDbCircle
 10
35.3945185266
 20
84.7263431789
 30
0.0
 40
21.08508539255465
100
AcDbArc
 50
72.9293729357
 51
107.0706270643
  0
ARC
  5
7B
330
1F
100
AcDbEntity
  8
0
  6
Continuous
 62
     7
370
    15
100
AcDbCircle
 10
29.4985357828
 20
103.9265526233
 30
0.0
 40
0.9999999999999999
100
AcDbArc
 50
107.0706270643
 51
144.9293729357
  0
ARC
  5
7C
330
1F
100
AcDbEntity
  8
0
  6
Continuous
 62
     7
370
    15
100
AcDbCircle
 10
45.9370612228
 20
92.385948801
 30
0.0
 40
21.08508539255467
100
AcDbArc
 50
144.9293729357
 51
179.0706270643
  0
ARC
  5
7D
330
1F
100
AcDbEntity
  8
0
  6
Continuous
 62
     7
370
    15
100
AcDbCircle
 10
25.8546180501
 20
92.7117270065
 30
0.0
 40
1.000000000000007
100
AcDbArc
 50
179.0706270643
 51
216.9293729357
  0
ARC
  5
7E
330
1F
100
AcDbEntity
  8
0
  6
Continuous
 62
     7
370
    15
100
AcDbCircle
 10
41.9101682407
 20
104.7794510381
 30
0.0
 40
21.08508539255467
100
AcDbArc
 50
216.9293729357
 51
251.0706270643
  0
ARC
  5
7F
330
1F
100
AcDbEntity
  8
0
  6
Continuous
 62
     7
370
    15
100
AcDbCircle
 10
45.9370612228
 20
66.858768984
 30
0.0
 40
21.08508539255467
100
AcDbArc
 50
166.3601876684
 51
179.0706270643
  0
ARC
  5
80
330
1F
100
AcDbEntity
  8
0
  6
Continuous
 62
     7
370
    15
100
AcDbCircle
 10
25.8546180501
 20
67.1845471895
 30
0.0
 40
1.000000000000007
100
AcDbArc
 50
179.0706270643
 51
216.9293729357
  0
ARC
  5
81
330
1F
100
AcDbEntity
  8
0
  6
Continuous
 62
     7
370
    15
100
AcDbCircle
 10
41.9101682407
 20
79.2522712211
 30
0.0
 40
21.08508539255466
100
AcDbArc
 50
216.9293729357
 51
251.0706270643
  0
ARC
  5
82
330
1F
100
AcDbEntity
  8
0
  6
Continuous
 62
     7
370
    15
100
AcDbCircle
 10
35.3945185266
 20
60.2534037804
 30
0.0
 40
1.000000000000005
100
AcDbArc
 50
251.0706270643
 51
288.9293729357
  0
ARC
  5
83
330
1F
100
AcDbEntity
  8
0
  6
Continuous
 62
     7
370
    15
100
AcDbCircle
 10
28.8788688124
 20
79.2522712211
 30
0.0
 40
21.08508539255466
100
AcDbArc
 50
288.9293729357
 51
323.0706270643
  0
ARC
  5
84
330
1F
100
AcDbEntity
  8
0
  6
Continuous
 62
     7
370
    15
100
AcDbCircle
 10
44.9344190031
 20
67.1845471895
 30
0.0
 40
1.000000000000009
100
AcDbArc
 50
323.0706270643
 51
0.9293729357
  0
ARC
  5
85
330
1F
100
AcDbEntity
  8
0
  6
Continuous
 62
     7
370
    15
100
AcDbCircle
 10
24.8519758303
 20
66.858768984
 30
0.0
 40
21.08508539255465
100
AcDbArc
 50
0.9293729357
 51
13.6398123316
  0
ARC
  5
86
330
1F
100
AcDbEntity
  8
0
  6
Continuous
 62
     7
370
    15
100
AcDbCircle
 10
35.3945185266
 20
70.8114285714
 30
0.0
 40
10.0000000000003
100
AcDbArc
 50
5.8518804588
 51
35.2526441972
  0
ARC
  5
87
330
1F
100
AcDbEntity
  8
0
  6
Continuous
 62
     7
370
    15
100
AcDbCircle
 10
24.8519758303
 20
66.858768984
 30
0.0
 40
21.08508539255465
100
AcDbArc
 50
27.4647123244
 51
35.0706270643
  0
ARC
  5
88
330
1F
100
AcDbEntity
  8
0
  6
Continuous
 62
     7
370
    15
100
AcDbCircle
 10
41.2905012703
 20
78.3993728063
 30
0.0
 40
1.000000000000011
100
AcDbArc
 50
35.0706270643
 51
72.9293729357
  0
ARC
  5
89
330
1F
100
AcDbEntity
  8
0
  6
Continuous
 62
     7
370
    15
100
AcDbCircle
 10
35.3945185266
 20
59.1991633619
 30
0.0
 40
21.08508539255466
100
AcDbArc
 50
72.9293729357
 51
78.247455035
  0
ARC
  5
8A
330
1F
100
AcDbEntity
  8
0
  6
Continuous
 62
     7
370
    15
100
AcDbCircle
 10
35.3945185266
 20
59.1991633619
 30
0.0
 40
21.08508539255466
100
AcDbArc
 50
101.752544965
 51
107.0706270643
  0
ARC
  5
8B
330
1F
100
AcDbEntity
  8
0
  6
Continuous
 62
     7
370
    15
100
AcDbCircle
 10
29.4985357828
 20
78.3993728063
 30
0.0
 40
1.000000000000012
100
AcDbArc
 50
107.0706270643
 51
144.9293729357
  0
ARC
  5
8C
330
1F
100
AcDbEntity
  8
0
  6
Continuous
 62
     7
370
    15
100
AcDbCircle
 10
45.9370612228
 20
66.858768984
 30
0.0
 40
21.08508539255465
100
AcDbArc
 50
144.9293729357
 51
152.5352876756
  0
ARC
  5
8D
330
1F
100
AcDbEntity
  8
0
  6
Continuous
 62
     7
370
    15
100
AcDbCircle
 10
55.0465970287
 20
92.2794510381
 30
0.0
 40
21.08508539255466
100
AcDbArc
 50
288.9293729357
 51
323.0706270643
  0
ARC
  5
8E
330
1F
100
AcDbEntity
  8
0
  6
Continuous
 62
     7
370
    15
100
AcDbCircle
 10
71.1021472193
 20
80.2117270065
 30
0.0
 40
1.000000000000015
100
AcDbArc
 50
323.0706270643
 51
0.9293729357
  0
ARC
  5
8F
330
1F
100
AcDbEntity
  8
0
  6
Continuous
 62
     7
370
    15
100
AcDbCircle
 10
51.0197040466
 20
79.885948801
 30
0.0
 40
21.08508539255464
100
AcDbArc
 50
0.9293729357
 51
35.0706270643
  0
ARC
  5
90
330
1F
100
AcDbEntity
  8
0
  6
Continuous
 62
     7
370
    15
100
AcDbCircle
 10
67.4582294866
 20
91.4265526233
 30
0.0
 40
0.9999999999999972
100
AcDbArc
 50
35.0706270643
 51
72.9293729357
  0
ARC
  5
91
330
1F
100
AcDbEntity
  8
0
  6
Continuous
 62
     7
370
    15
100
AcDbCircle
 10
61.5622467428
 20
72.2263431789
 30
0.0
 40
21.08508539255465
100
AcDbArc
 50
72.9293729357
 51
107.0706270643
  0
ARC
  5
92
330
1F
100
AcDbEntity
  8
0
  6
Continuous
 62
     7
370
    15
100
AcDbCircle
 10
55.6662639991
 20
91.4265526233
 30
0.0
 40
1.000000000000005
100
AcDbArc
 50
107.0706270643
 51
144.9293729357
  0
ARC
  5
93
330
1F
100
AcDbEntity
  8
0
  6
Continuous
 62
     7
370
    15
100
AcDbCircle
 10
72.1047894391
 20
79.885948801
 30
0.0
 40
21.08508539255466
100
AcDbArc
 50
144.9293729357
 51
179.0706270643
  0
ARC
  5
94
330
1F
100
AcDbEntity
  8
0
  6
Continuous
 62
     7
370
    15
100
AcDbCircle
 10
52.0223462663
 20
80.2117270065
 30
0.0
 40
1.000000000000004
100
AcDbArc
 50
179.0706270643
 51
216.9293729357
  0
ARC
  5
95
330
1F
100
AcDbEntity
  8
0
  6
Continuous
 62
     7
370
    15
100
AcDbCircle
 10
68.077896457
 20
92.2794510381
 30
0.0
 40
21.08508539255464
100
AcDbArc
 50
216.9293729357
 51
251.0706270643
  0
ARC
  5
96
330
1F
100
AcDbEntity
  8
0
  6
Continuous
 62
     7
370
    15
100
AcDbCircle
 10
61.5622467428
 20
73.2805835974
 30
0.0
 40
0.9999999999999918
100
AcDbArc
 50
251.0706270643
 51
288.9293729357
  0
ARC
  5
97
330
1F
100
AcDbEntity
  8
0
  6
Continuous
 62
     7
370
    15
100
AcDbCircle
 10
81.2143252449
 20
104.7794510381
 30
0.0
 40
21.08508539255467
100
AcDbArc
 50
288.9293729357
 51
323.0706270643
  0
ARC
  5
98
330
1F
100
AcDbEntity
  8
0
  6
Continuous
 62
     7
370
    15
100
AcDbCircle
 10
97.2698754356
 20
92.7117270065
 30
0.0
 40
1.000000000000006
100
AcDbArc
 50
323.0706270643
 51
0.9293729357
  0
ARC
  5
99
330
1F
100
AcDbEntity
  8
0
  6
Continuous
 62
     7
370
    15
100
AcDbCircle
 10
77.1874322628
 20
92.385948801
 30
0.0
 40
21.08508539255464
100
AcDbArc
 50
0.9293729357
 51
35.0706270643
  0
ARC
  5
9A
330
1F
100
AcDbEntity
  8
0
  6
Continuous
 62
     7
370
    15
100
AcDbCircle
 10
93.6259577028
 20
103.9265526233
 30
0.0
 40
0.9999999999999888
100
AcDbArc
 50
35.0706270643
 51
72.9293729357
  0
ARC
  5
9B
330
1F
100
AcDbEntity
  8
0
  6
Continuous
 62
     7
370
    15
100
AcDbCircle
 10
87.7299749591
 20
84.7263431789
 30
0.0
 40
21.08508539255465
100
AcDbArc
 50
72.9293729357
 51
107.0706270643
  0
ARC
  5
9C
330
1F
100
AcDbEntity
  8
0
  6
Continuous
 62
     7
370
    15
100
AcDbCircle
 10
81.8339922153
 20
103.9265526233
 30
0.0
 40
0.999999999999997
100
AcDbArc
 50
107.0706270643
 51
144.9293729357
  0
ARC
  5
9D
330
1F
100
AcDbEntity
  8
0
  6
Continuous
 62
     7
370
    15
100
AcDbCircle
 10
98.2725176554
 20
92.385948801
 30
0.0
 40
21.08508539255467
100
AcDbArc
 50
144.9293729357
 51
179.0706270643
  0
ARC
  5
9E
330
1F
100
AcDbEntity
  8
0
  6
Continuous
 62
     7
370
    15
100
AcDbCircle
 10
78.1900744826
 20
92.7117270065
 30
0.0
 40
1.000000000000011
100
AcDbArc
 50
179.0706270643
 51
216.9293729357
  0
ARC
  5
9F
330
1F
100
AcDbEntity
  8
0
  6
Continuous
 62
     7
370
    15
100
AcDbCircle
 10
94.2456246732
 20
104.7794510381
 30
0.0
 40
21.08508539255467
100
AcDbArc
 50
216.9293729357
 51
251.0706270643
  0
ARC
  5
A0
330
1F
100
AcDbEntity
  8
0
  6
Continuous
 62
     7
370
    15
100
AcDbCircle
 10
87.7299749591
 20
85.7805835974
 30
0.0
 40
1.000000000000019
100
AcDbArc
 50
251.0706270643
 51
288.9293729357
  0
ARC
  5
A1
330
1F
100
AcDbEntity
  8
0
  6
Continuous
 62
     7
370
    15
100
AcDbCircle
 10
107.3820534612
 20
67.2794510381
 30
0.0
 40
21.08508539255466
100
AcDbArc
 50
288.9293729357
 51
323.0706270643
  0
ARC
  5
A2
330
1F
100
AcDbEntity
  8
0
  6
Continuous
 62
     7
370
    15
100
AcDbCircle
 10
123.4376036518
 20
55.2117270065
 30
0.0
 40
1.000000000000003
100
AcDbArc
 50
323.0706270643
 51
0.9293729357
  0
ARC
  5
A3
330
1F
100
AcDbEntity
  8
0
  6
Continuous
 62
     7
370
    15
100
AcDbCircle
 10
103.3551604791
 20
54.885948801
 30
0.0
 40
21.08508539255463
100
AcDbArc
 50
0.9293729357
 51
35.0706270643
  0
ARC
  5
A4
330
1F
100
AcDbEntity
  8
0
  6
Continuous
 62
     7
370
    15
100
AcDbCircle
 10
119.7936859191
 20
66.4265526233
 30
0.0
 40
0.9999999999999972
100
AcDbArc
 50
35.0706270643
 51
72.9293729357
  0
ARC
  5
A5
330
1F
100
AcDbEntity
  8
0
  6
Continuous
 62
     7
370
    15
100
AcDbCircle
 10
113.8977031753
 20
47.2263431789
 30
0.0
 40
21.08508539255465
100
AcDbArc
 50
72.9293729357
 51
107.0706270643
  0
ARC
  5
A6
330
1F
100
AcDbEntity
  8
0
  6
Continuous
 62
     7
370
    15
100
AcDbCircle
 10
108.0017204316
 20
66.4265526233
 30
0.0
 40
1.000000000000013
100
AcDbArc
 50
107.0706270643
 51
144.9293729357
  0
ARC
  5
A7
330
1F
100
AcDbEntity
  8
0
  6
Continuous
 62
     7
370
    15
100
AcDbCircle
 10
124.4402458716
 20
54.885948801
 30
0.0
 40
21.08508539255467
100
AcDbArc
 50
144.9293729357
 51
179.0706270643
  0
ARC
  5
A8
330
1F
100
AcDbEntity
  8
0
  6
Continuous
 62
     7
370
    15
100
AcDbCircle
 10
104.3578026989
 20
55.2117270065
 30
0.0
 40
1.000000000000011
100
AcDbArc
 50
179.0706270643
 51
216.9293729357
  0
ARC
  5
A9
330
1F
100
AcDbEntity
  8
0
  6
Continuous
 62
     7
370
    15
100
AcDbCircle
 10
120.4133528895
 20
67.2794510381
 30
0.0
 40
21.08508539255465
100
AcDbArc
 50
216.9293729357
 51
251.0706270643
  0
ARC
  5
AA
330
1F
100
AcDbEntity
  8
0
  6
Continuous
 62
     7
370
    15
100
AcDbCircle
 10
113.8977031753
 20
48.2805835974
 30
0.0
 40
0.9999999999999986
100
AcDbArc
 50
251.0706270643
 51
288.9293729357
  0
ARC
  5
AB
330
1F
100
AcDbEntity
  8
0
  6
Continuous
 62
     7
370
    15
100
AcDbCircle
 10
81.2143252449
 20
79.7794510381
 30
0.0
 40
21.08508539255467
100
AcDbArc
 50
288.9293729357
 51
323.0706270643
  0
ARC
  5
AC
330
1F
100
AcDbEntity
  8
0
  6
Continuous
 62
     7
370
    15
100
AcDbCircle
 10
97.2698754356
 20
67.7117270065
 30
0.0
 40
1.000000000000023
100
AcDbArc
 50
323.0706270643
 51
0.9293729357
  0
ARC
  5
AD
330
1F
100
AcDbEntity
  8
0
  6
Continuous
 62
     7
370
    15
100
AcDbCircle
 10
77.1874322628
 20
67.385948801
 30
0.0
 40
21.08508539255463
100
AcDbArc
 50
0.9293729357
 51
35.0706270643
  0
ARC
  5
AE
330
1F
100
AcDbEntity
  8
0
  6
Continuous
 62
     7
370
    15
100
AcDbCircle
 10
93.6259577028
 20
78.9265526233
 30
0.0
 40
0.9999999999999972
100
AcDbArc
 50
35.0706270643
 51
72.9293729357
  0
ARC
  5
AF
330
1F
100
AcDbEntity
  8
0
  6
Continuous
 62
     7
370
    15
100
AcDbCircle
 10
87.7299749591
 20
59.7263431789
 30
0.0
 40
21.08508539255465
100
AcDbArc
 50
72.9293729357
 51
107.0706270643
  0
ARC
  5
B0
330
1F
100
AcDbEntity
  8
0
  6
Continuous
 62
     7
370
    15
100
AcDbCircle
 10
81.8339922153
 20
78.9265526233
 30
0.0
 40
0.9999999999999972
100
AcDbArc
 50
107.0706270643
 51
144.9293729357
  0
ARC
  5
B1
330
1F
100
AcDbEntity
  8
0
  6
Continuous
 62
     7
370
    15
100
AcDbCircle
 10
98.2725176554
 20
67.385948801
 30
0.0
 40
21.08508539255467
100
AcDbArc
 50
144.9293729357
 51
179.0706270643
  0
ARC
  5
B2
330
1F
100
AcDbEntity
  8
0
  6
Continuous
 62
     7
370
    15
100
AcDbCircle
 10
78.1900744826
 20
67.7117270065
 30
0.0
 40
1.000000000000015
100
AcDbArc
 50
179.0706270643
 51
216.9293729357
  0
ARC
  5
B3
330
1F
100
AcDbEntity
  8
0
  6
Continuous
 62
     7
370
    15
100
AcDbCircle
 10
94.2456246732
 20
79.7794510381
 30
0.0
 40
21.08508539255466
100
AcDbArc
 50
216.9293729357
 51
251.0706270643
  0
ARC
  5
B4
330
1F
100
AcDbEntity
  8
0
  6
Continuous
 62
     7
370
    15
100
AcDbCircle
 10
87.7299749591
 20
60.7805835974
 30
0.0
 40
0.9999999999999986
100
AcDbArc
 50
251.0706270643
 51
288.9293729357
  0
ARC
  5
B5
330
1F
100
AcDbEntity
  8
0
  6
Continuous
 62
     7
370
    15
100
AcDbCircle
 10
107.3820534612
 20
92.2794510381
 30
0.0
 40
21.08508539255466
100
AcDbArc
 50
288.9293729357
 51
323.0706270643
  0
ARC
  5
B6
330
1F
100
AcDbEntity
  8
0
  6
Continuous
 62
     7
370
    15
100
AcDbCircle
 10
123.4376036518
 20
80.2117270065
 30
0.0
 40
1.000000000000003
100
AcDbArc
 50
323.0706270643
 51
0.9293729357
  0
ARC
  5
B7
330
1F
100
AcDbEntity
  8
0
  6
Continuous
 62
     7
370
    15
100
AcDbCircle
 10
103.3551604791
 20
79.885948801
 30
0.0
 40
21.08508539255463
100
AcDbArc
 50
0.9293729357
 51
35.0706270643
  0
ARC
  5
B8
330
1F
100
AcDbEntity
  8
0
  6
Continuous
 62
     7
370
    15
100
AcDbCircle
 10
119.7936859191
 20
91.4265526233
 30
0.0
 40
1.000000000000011
100
AcDbArc
 50
35.0706270643
 51
72.9293729357
  0
ARC
  5
B9
330
1F
100
AcDbEntity
  8
0
  6
Continuous
 62
     7
370
    15
100
AcDbCircle
 10
113.8977031753
 20
72.2263431789
 30
0.0
 40
21.08508539255465
100
AcDbArc
 50
72.9293729357
 51
107.0706270643
  0
ARC
  5
BA
330
1F
100
AcDbEntity
  8
0
  6
Continuous
 62
     7
370
    15
100
AcDbCircle
 10
108.0017204316
 20
91.4265526233
 30
0.0
 40
1.000000000000011
100
AcDbArc
 50
107.0706270643
 51
144.9293729357
  0
ARC
  5
BB
330
1F
100
AcDbEntity
  8
0
  6
Continuous
 62
     7
370
    15
100
AcDbCircle
 10
124.4402458716
 20
79.885948801
 30
0.0
 40
21.08508539255467
100
AcDbArc
 50
144.9293729357
 51
179.0706270643
  0
ARC
  5
BC
330
1F
100
AcDbEntity
  8
0
  6
Continuous
 62
     7
370
    15
100
AcDbCircle
 10
104.3578026989
 20
80.2117270065
 30
0.0
 40
1.000000000000011
100
AcDbArc
 50
179.0706270643
 51
216.9293729357
  0
ARC
  5
BD
330
1F
100
AcDbEntity
  8
0
  6
Continuous
 62
     7
370
    15
100
AcDbCircle
 10
120.4133528895
 20
92.2794510381
 30
0.0
 40
21.08508539255465
100
AcDbArc
 50
216.9293729357
 51
251.0706270643
  0
ARC
  5
BE
330
1F
100
AcDbEntity
  8
0
  6
Continuous
 62
     7
370
    15
100
AcDbCircle
 10
113.8977031753
 20
73.2805835974
 30
0.0
 40
1.000000000000005
100
AcDbArc
 50
251.0706270643
 51
288.9293729357
  0
ARC
  5
BF
330
1F
100
AcDbEntity
  8
0
  6
Continuous
 62
     7
370
    15
100
AcDbCircle
 10
133.5497816775
 20
104.7794510381
 30
0.0
 40
21.08508539255467
100
AcDbArc
 50
288.9293729357
 51
323.0706270643
  0
ARC
  5
C0
330
1F
100
AcDbEntity
  8
0
  6
Continuous
 62
     7
370
    15
100
AcDbCircle
 10
149.6053318681
 20
92.7117270065
 30
0.0
 40
1.000000000000006
100
AcDbArc
 50
323.0706270643
 51
0.9293729357
  0
ARC
  5
C1
330
1F
100
AcDbEntity
  8
0
  6
Continuous
 62
     7
370
    15
100
AcDbCircle
 10
129.5228886953
 20
92.385948801
 30
0.0
 40
21.08508539255462
100
AcDbArc
 50
0.9293729357
 51
35.0706270643
  0
ARC
  5
C2
330
1F
100
AcDbEntity
  8
0
  6
Continuous
 62
     7
370
    15
100
AcDbCircle
 10
145.9614141354
 20
103.9265526233
 30
0.0
 40
0.9999999999999837
100
AcDbArc
 50
35.0706270643
 51
72.9293729357
  0
ARC
  5
C3
330
1F
100
AcDbEntity
  8
0
  6
Continuous
 62
     7
370
    15
100
AcDbCircle
 10
140.0654313916
 20
84.7263431789
 30
0.0
 40
21.08508539255466
100
AcDbArc
 50
72.9293729357
 51
107.0706270643
  0
ARC
  5
C4
330
1F
100
AcDbEntity
  8
0
  6
Continuous
 62
     7
370
    15
100
AcDbCircle
 10
134.1694486479
 20
103.9265526233
 30
0.0
 40
1.000000000000009
100
AcDbArc
 50
107.0706270643
 51
144.9293729357
  0
ARC
  5
C5
330
1F
100
AcDbEntity
  8
0
  6
Continuous
 62
     7
370
    15
100
AcDbCircle
 10
150.6079740879
 20
92.385948801
 30
0.0
 40
21.08508539255467
100
AcDbArc
 50
144.9293729357
 51
179.0706270643
  0
ARC
  5
C6
330
1F
100
AcDbEntity
  8
0
  6
Continuous
 62
     7
370
    15
100
AcDbCircle
 10
130.5255309151
 20
92.7117270065
 30
0.0
 40
1.000000000000011
100
AcDbArc
 50
179.0706270643
 51
216.9293729357
  0
ARC
  5
C7
330
1F
100
AcDbEntity
  8
0
  6
Continuous
 62
     7
370
    15
100
AcDbCircle
 10
146.5810811058
 20
104.7794510381
 30
0.0
 40
21.08508539255467
100
AcDbArc
 50
216.9293729357
 51
251.0706270643
  0
ARC
  5
C8
330
1F
100
AcDbEntity
  8
0
  6
Continuous
 62
     7
370
    15
100
AcDbCircle
 10
140.0654313916
 20
85.7805835974
 30
0.0
 40
1.000000000000023
100
AcDbArc
 50
251.0706270643
 51
288.9293729357
  0
ARC
  5
C9
330
1F
100
AcDbEntity
  8
0
  6
Continuous
 62
     7
370
    15
100
AcDbCircle
 10
133.5497816775
 20
79.7794510381
 30
0.0
 40
21.08508539255467
100
AcDbArc
 50
288.9293729357
 51
323.0706270643
  0
ARC
  5
CA
330
1F
100
AcDbEntity
  8
0
  6
Continuous
 62
     7
370
    15
100
AcDbCircle
 10
149.6053318681
 20
67.7117270065
 30
0.0
 40
1.000000000000015
100
AcDbArc
 50
323.0706270643
 51
0.9293729357
  0
ARC
  5
CB
330
1F
100
AcDbEntity
  8
0
  6
Continuous
 62
     7
370
    15
100
AcDbCircle
 10
129.5228886953
 20
67.385948801
 30
0.0
 40
21.08508539255462
100
AcDbArc
 50
0.9293729357
 51
35.0706270643
  0
ARC
  5
CC
330
1F
100
AcDbEntity
  8
0
  6
Continuous
 62
     7
370
    15
100
AcDbCircle
 10
145.9614141354
 20
78.9265526233
 30
0.0
 40
0.9999999999999972
100
AcDbArc
 50
35.0706270643
 51
72.9293729357
  0
ARC
  5
CD
330
1F
100
AcDbEntity
  8
0
  6
Continuous
 62
     7
370
    15
100
AcDbCircle
 10
140.0654313916
 20
59.7263431789
 30
0.0
 40
21.08508539255465
100
AcDbArc
 50
72.9293729357
 51
107.0706270643
  0
ARC
  5
CE
330
1F
100
AcDbEntity
  8
0
  6
Continuous
 62
     7
370
    15
100
AcDbCircle
 10
134.1694486479
 20
78.9265526233
 30
0.0
 40
1.000000000000009
100
AcDbArc
 50
107.0706270643
 51
144.9293729357
  0
ARC
  5
CF
330
1F
100
AcDbEntity
  8
0
  6
Continuous
 62
     7
370
    15
100
AcDbCircle
 10
150.6079740879
 20
67.385948801
 30
0.0
 40
21.08508539255467
100
AcDbArc
 50
144.9293729357
 51
179.0706270643
  0
ARC
  5
D0
330
1F
100
AcDbEntity
  8
0
  6
Continuous
 62
     7
370
    15
100
AcDbCircle
 10
130.5255309151
 20
67.7117270065
 30
0.0
 40
1.000000000000015
100
AcDbArc
 50
179.0706270643
 51
216.9293729357
  0
ARC
  5
D1
330
1F
100
AcDbEntity
  8
0
  6
Continuous
 62
     7
370
    15
100
AcDbCircle
 10
146.5810811058
 20
79.7794510381
 30
0.0
 40
21.08508539255468
100
AcDbArc
 50
216.9293729357
 51
251.0706270643
  0
ARC
  5
D2
330
1F
100
AcDbEntity
  8
0
  6
Continuous
 62
     7
370
    15
100
AcDbCircle
 10
140.0654313916
 20
60.7805835974
 30
0.0
 40
0.9999999999999963
100
AcDbArc
 50
251.0706270643
 51
288.9293729357
  0
ARC
  5
D3
330
1F
100
AcDbEntity
  8
0
  6
Continuous
 62
     7
370
    15
100
AcDbCircle
 10
159.7175098937
 20
92.2794510381
 30
0.0
 40
21.08508539255465
100
AcDbArc
 50
288.9293729357
 51
323.0706270643
  0
ARC
  5
D4
330
1F
100
AcDbEntity
  8
0
  6
Continuous
 62
     7
370
    15
100
AcDbCircle
 10
175.7730600843
 20
80.2117270065
 30
0.0
 40
0.9999999999999833
100
AcDbArc
 50
323.0706270643
 51
0.9293729357
  0
ARC
  5
D5
330
1F
100
AcDbEntity
  8
0
  6
Continuous
 62
     7
370
    15
100
AcDbCircle
 10
155.6906169116
 20
79.885948801
 30
0.0
 40
21.08508539255462
100
AcDbArc
 50
0.9293729357
 51
35.0706270643
  0
ARC
  5
D6
330
1F
100
AcDbEntity
  8
0
  6
Continuous
 62
     7
370
    15
100
AcDbCircle
 10
172.1291423516
 20
91.4265526233
 30
0.0
 40
0.9999999999999972
100
AcDbArc
 50
35.0706270643
 51
72.9293729357
  0
ARC
  5
D7
330
1F
100
AcDbEntity
  8
0
  6
Continuous
 62
     7
370
    15
100
AcDbCircle
 10
166.2331596079
 20
72.2263431789
 30
0.0
 40
21.08508539255464
100
AcDbArc
 50
72.9293729357
 51
107.0706270643
  0
ARC
  5
D8
330
1F
100
AcDbEntity
  8
0
  6
Continuous
 62
     7
370
    15
100
AcDbCircle
 10
160.3371768641
 20
91.4265526233
 30
0.0
 40
1.000000000000009
100
AcDbArc
 50
107.0706270643
 51
144.9293729357
  0
ARC
  5
D9
330
1F
100
AcDbEntity
  8
0
  6
Continuous
 62
     7
370
    15
100
AcDbCircle
 10
176.7757023041
 20
79.885948801
 30
0.0
 40
21.08508539255467
100
AcDbArc
 50
144.9293729357
 51
179.0706270643
  0
ARC
  5
DA
330
1F
100
AcDbEntity
  8
0
  6
Continuous
 62
     7
370
    15
100
AcDbCircle
 10
156.6932591314
 20
80.2117270065
 30
0.0
 40
1.000000000000011
100
AcDbArc
 50
179.0706270643
 51
216.9293729357
  0
ARC
  5
DB
330
1F
100
AcDbEntity
  8
0
  6
Continuous
 62
     7
370
    15
100
AcDbCircle
 10
172.748809322
 20
92.2794510381
 30
0.0
 40
21.08508539255467
100
AcDbArc
 50
216.9293729357
 51
251.0706270643
  0
ARC
  5
DC
330
1F
100
AcDbEntity
  8
0
  6
Continuous
 62
     7
370
    15
100
AcDbCircle
 10
166.2331596079
 20
73.2805835974
 30
0.0
 40
0.9999999999999963
100
AcDbArc
 50
251.0706270643
 51
288.9293729357
  0
ARC
  5
DD
330
1F
100
AcDbEntity
  8
0
  6
Continuous
 62
     7
370
    15
100
AcDbCircle
 10
159.7175098937
 20
67.2794510381
 30
0.0
 40
21.08508539255467
100
AcDbArc
 50
288.9293729357
 51
323.0706270643
  0
ARC
  5
DE
330
1F
100
AcDbEntity
  8
0
  6
Continuous
 62
     7
370
    15
100
AcDbCircle
 10
175.7730600843
 20
55.2117270065
 30
0.0
 40
0.9999999999999919
100
AcDbArc
 50
323.0706270643
 51
0.9293729357
  0
ARC
  5
DF
330
1F
100
AcDbEntity
  8
0
  6
Continuous
 62
     7
370
    15
100
AcDbCircle
 10
155.6906169116
 20
54.885948801
 30
0.0
 40
21.08508539255462
100
AcDbArc
 50
0.9293729357
 51
35.0706270643
  0
ARC
  5
E0
330
1F
100
AcDbEntity
  8
0
  6
Continuous
 62
     7
370
    15
100
AcDbCircle
 10
172.1291423516
 20
66.4265526233
 30
0.0
 40
1.000000000000011
100
AcDbArc
 50
35.0706270643
 51
72.9293729357
  0
ARC
  5
E1
330
1F
100
AcDbEntity
  8
0
  6
Continuous
 62
     7
370
    15
100
AcDbCircle
 10
166.2331596079
 20
47.2263431789
 30
0.0
 40
21.08508539255466
100
AcDbArc
 50
72.9293729357
 51
107.0706270643
  0
ARC
  5
E2
330
1F
100
AcDbEntity
  8
0
  6
Continuous
 62
     7
370
    15
100
AcDbCircle
 10
160.3371768641
 20
66.4265526233
 30
0.0
 40
1.000000000000025
100
AcDbArc
 50
107.0706270643
 51
144.9293729357
  0
ARC
  5
E3
330
1F
100
AcDbEntity
  8
0
  6
Continuous
 62
     7
370
    15
100
AcDbCircle
 10
176.7757023041
 20
54.885948801
 30
0.0
 40
21.08508539255467
100
AcDbArc
 50
144.9293729357
 51
179.0706270643
  0
ARC
  5
E4
330
1F
100
AcDbEntity
  8
0
  6
Continuous
 62
     7
370
    15
100
AcDbCircle
 10
156.6932591314
 20
55.2117270065
 30
0.0
 40
1.000000000000011
100
AcDbArc
 50
179.0706270643
 51
216.9293729357
  0
ARC
  5
E5
330
1F
100
AcDbEntity
  8
0
  6
Continuous
 62
     7
370
    15
100
AcDbCircle
 10
172.748809322
 20
67.2794510381
 30
0.0
 40
21.08508539255467
100
AcDbArc
 50
216.9293729357
 51
251.0706270643
  0
ARC
  5
E6
330
1F
100
AcDbEntity
  8
0
  6
Continuous
 62
     7
370
    15
100
AcDbCircle
 10
166.2331596079
 20
48.2805835974
 30
0.0
 40
1.000000000000016
100
AcDbArc
 50
251.0706270643
 51
288.9293729357
  0
ARC
  5
E7
330
1F
100
AcDbEntity
  8
0
  6
Continuous
 62
     7
370
    15
100
AcDbCircle
 10
159.7175098937
 20
42.2794510381
 30
0.0
 40
21.08508539255465
100
AcDbArc
 50
288.9293729357
 51
323.0706270643
  0
ARC
  5
E8
330
1F
100
AcDbEntity
  8
0
  6
Continuous
 62
     7
370
    15
100
AcDbCircle
 10
175.7730600843
 20
30.2117270065
 30
0.0
 40
1.000000000000015
100
AcDbArc
 50
323.0706270643
 51
0.9293729357
  0
ARC
  5
E9
330
1F
100
AcDbEntity
  8
0
  6
Continuous
 62
     7
370
    15
100
AcDbCircle
 10
155.6906169116
 20
29.885948801
 30
0.0
 40
21.08508539255462
100
AcDbArc
 50
0.9293729357
 51
35.0706270643
  0
ARC
  5
EA
330
1F
100
AcDbEntity
  8
0
  6
Continuous
 62
     7
370
    15
100
AcDbCircle
 10
172.1291423516
 20
41.4265526233
 30
0.0
 40
0.9999999999999905
100
AcDbArc
 50
35.0706270643
 51
72.9293729357
  0
ARC
  5
EB
330
1F
100
AcDbEntity
  8
0
  6
Continuous
 62
     7
370
    15
100
AcDbCircle
 10
166.2331596079
 20
22.2263431789
 30
0.0
 40
21.08508539255465
100
AcDbArc
 50
72.9293729357
 51
107.0706270643
  0
ARC
  5
EC
330
1F
100
AcDbEntity
  8
0
  6
Continuous
 62
     7
370
    15
100
AcDbCircle
 10
160.3371768641
 20
41.4265526233
 30
0.0
 40
1.000000000000013
100
AcDbArc
 50
107.0706270643
 51
144.9293729357
  0
ARC
  5
ED
330
1F
100
AcDbEntity
  8
0
  6
Continuous
 62
     7
370
    15
100
AcDbCircle
 10
176.7757023041
 20
29.885948801
 30
0.0
 40
21.08508539255467
100
AcDbArc
 50
144.9293729357
 51
179.0706270643
  0
ARC
  5
EE
330
1F
100
AcDbEntity
  8
0
  6
Continuous
 62
     7
370
    15
100
AcDbCircle
 10
156.6932591314
 20
30.2117270065
 30
0.0
 40
1.000000000000011
100
AcDbArc
 50
179.0706270643
 51
216.9293729357
  0
ARC
  5
EF
330
1F
100
AcDbEntity
  8
0
  6
Continuous
 62
     7
370
    15
100
AcDbCircle
 10
172.748809322
 20
42.2794510381
 30
0.0
 40
21.08508539255466
100
AcDbArc
 50
216.9293729357
 51
251.0706270643
  0
ARC
  5
F0
330
1F
100
AcDbEntity
  8
0
  6
Continuous
 62
     7
370
    15
100
AcDbCircle
 10
166.2331596079
 20
23.2805835974
 30
0.0
 40
0.9999999999999998
100
AcDbArc
 50
251.0706270643
 51
288.9293729357
  0
ARC
  5
F1
330
1F
100
AcDbEntity
  8
0
  6
Continuous
 62
     7
370
    15
100
AcDbCircle
 10
133.5497816775
 20
54.7794510381
 30
0.0
 40
21.08508539255466
100
AcDbArc
 50
288.9293729357
 51
323.0706270643
  0
ARC
  5
F2
330
1F
100
AcDbEntity
  8
0
  6
Continuous
 62
     7
370
    15
100
AcDbCircle
 10
149.6053318681
 20
42.7117270065
 30
0.0
 40
1.000000000000015
100
AcDbArc
 50
323.0706270643
 51
0.9293729357
  0
ARC
  5
F3
330
1F
100
AcDbEntity
  8
0
  6
Continuous
 62
     7
370
    15
100
AcDbCircle
 10
129.5228886953
 20
42.385948801
 30
0.0
 40
21.08508539255462
100
AcDbArc
 50
0.9293729357
 51
35.0706270643
  0
ARC
  5
F4
330
1F
100
AcDbEntity
  8
0
  6
Continuous
 62
     7
370
    15
100
AcDbCircle
 10
145.9614141354
 20
53.9265526233
 30
0.0
 40
0.9999999999999972
100
AcDbArc
 50
35.0706270643
 51
72.9293729357
  0
ARC
  5
F5
330
1F
100
AcDbEntity
  8
0
  6
Continuous
 62
     7
370
    15
100
AcDbCircle
 10
140.0654313916
 20
34.7263431789
 30
0.0
 40
21.08508539255465
100
AcDbArc
 50
72.9293729357
 51
107.0706270643
  0
ARC
  5
F6
330
1F
100
AcDbEntity
  8
0
  6
Continuous
 62
     7
370
    15
100
AcDbCircle
 10
134.1694486479
 20
53.9265526233
 30
0.0
 40
1.000000000000017
100
AcDbArc
 50
107.0706270643
 51
144.9293729357
  0
ARC
  5
F7
330
1F
100
AcDbEntity
  8
0
  6
Continuous
 62
     7
370
    15
100
AcDbCircle
 10
150.6079740879
 20
42.385948801
 30
0.0
 40
21.08508539255467
100
AcDbArc
 50
144.9293729357
 51
179.0706270643
  0
ARC
  5
F8
330
1F
100
AcDbEntity
  8
0
  6
Continuous
 62
     7
370
    15
100
AcDbCircle
 10
130.5255309151
 20
42.7117270065
 30
0.0
 40
1.000000000000011
100
AcDbArc
 50
179.0706270643
 51
216.9293729357
  0
ARC
  5
F9
330
1F
100
AcDbEntity
  8
0
  6
Continuous
 62
     7
370
    15
100
AcDbCircle
 10
146.5810811058
 20
54.7794510381
 30
0.0
 40
21.08508539255466
100
AcDbArc
 50
216.9293729357
 51
251.0706270643
  0
ARC
  5
FA
330
1F
100
AcDbEntity
  8
0
  6
Continuous
 62
     7
370
    15
100
AcDbCircle
 10
140.0654313916
 20
35.7805835974
 30
0.0
 40
1.00000000000001
100
AcDbArc
 50
251.0706270643
 51
288.9293729357
  0
ARC
  5
FB
330
1F
100
AcDbEntity
  8
0
  6
Continuous
 62
     7
370
    15
100
AcDbCircle
 10
133.5497816775
 20
29.7794510381
 30
0.0
 40
21.08508539255466
100
AcDbArc
 50
288.9293729357
 51
323.0706270643
  0
ARC
  5
FC
330
1F
100
AcDbEntity
  8
0
  6
Continuous
 62
     7
370
    15
100
AcDbCircle
 10
149.6053318681
 20
17.7117270065
 30
0.0
 40
1.000000000000015
100
AcDbArc
 50
323.0706270643
 51
0.9293729357
  0
ARC
  5
FD
330
1F
100
AcDbEntity
  8
0
  6
Continuous
 62
     7
370
    15
100
AcDbCircle
 10
129.5228886953
 20
17.385948801
 30
0.0
 40
21.08508539255462
100
AcDbArc
 50
0.9293729357
 51
35.0706270643
  0
ARC
  5
FE
330
1F
100
AcDbEntity
  8
0
  6
Continuous
 62
     7
370
    15
100
AcDbCircle
 10
145.9614141354
 20
28.9265526233
 30
0.0
 40
0.9999999999999972
100
AcDbArc
 50
35.0706270643
 51
72.9293729357
  0
ARC
  5
FF
330
1F
100
AcDbEntity
  8
0
  6
Continuous
 62
     7
370
    15
100
AcDbCircle
 10
140.0654313916
 20
9.7263431789
 30
0.0
 40
21.08508539255465
100
AcDbArc
 50
72.9293729357
 51
107.0706270643
  0
ARC
  5
100
330
1F
100
AcDbEntity
  8
0
  6
Continuous
 62
     7
370
    15
100
AcDbCircle
 10
134.1694486479
 20
28.9265526233
 30
0.0
 40
1.000000000000015
100
AcDbArc
 50
107.0706270643
 51
144.9293729357
  0
ARC
  5
101
330
1F
100
AcDbEntity
  8
0
  6
Continuous
 62
     7
370
    15
100
AcDbCircle
 10
150.6079740879
 20
17.385948801
 30
0.0
 40
21.08508539255467
100
AcDbArc
 50
144.9293729357
 51
179.0706270643
  0
ARC
  5
102
330
1F
100
AcDbEntity
  8
0
  6
Continuous
 62
     7
370
    15
100
AcDbCircle
 10
130.5255309151
 20
17.7117270065
 30
0.0
 40
1.000000000000011
100
AcDbArc
 50
179.0706270643
 51
216.9293729357
  0
ARC
  5
103
330
1F
100
AcDbEntity
  8
0
  6
Continuous
 62
     7
370
    15
100
AcDbCircle
 10
146.5810811058
 20
29.7794510381
 30
0.0
 40
21.08508539255466
100
AcDbArc
 50
216.9293729357
 51
251.0706270643
  0
ARC
  5
104
330
1F
100
AcDbEntity
  8
0
  6
Continuous
 62
     7
370
    15
100
AcDbCircle
 10
140.0654313916
 20
10.7805835974
 30
0.0
 40
1.000000000000013
100
AcDbArc
 50
251.0706270643
 51
288.9293729357
  0
ARC
  5
105
330
1F
100
AcDbEntity
  8
0
  6
Continuous
 62
     7
370
    15
100
AcDbCircle
 10
107.3820534612
 20
42.2794510381
 30
0.0
 40
21.08508539255466
100
AcDbArc
 50
288.9293729357
 51
323.0706270643
  0
ARC
  5
106
330
1F
100
AcDbEntity
  8
0
  6
Continuous
 62
     7
370
    15
100
AcDbCircle
 10
123.4376036518
 20
30.2117270065
 30
0.0
 40
1.000000000000003
100
AcDbArc
 50
323.0706270643
 51
0.9293729357
  0
ARC
  5
107
330
1F
100
AcDbEntity
  8
0
  6
Continuous
 62
     7
370
    15
100
AcDbCircle
 10
103.3551604791
 20
29.885948801
 30
0.0
 40
21.08508539255463
100
AcDbArc
 50
0.9293729357
 51
35.0706270643
  0
ARC
  5
108
330
1F
100
AcDbEntity
  8
0
  6
Continuous
 62
     7
370
    15
100
AcDbCircle
 10
119.7936859191
 20
41.4265526233
 30
0.0
 40
0.9999999999999905
100
AcDbArc
 50
35.0706270643
 51
72.9293729357
  0
ARC
  5
109
330
1F
100
AcDbEntity
  8
0
  6
Continuous
 62
     7
370
    15
100
AcDbCircle
 10
113.8977031753
 20
22.2263431789
 30
0.0
 40
21.08508539255465
100
AcDbArc
 50
72.9293729357
 51
107.0706270643
  0
ARC
  5
10A
330
1F
100
AcDbEntity
  8
0
  6
Continuous
 62
     7
370
    15
100
AcDbCircle
 10
108.0017204316
 20
41.4265526233
 30
0.0
 40
1.000000000000001
100
AcDbArc
 50
107.0706270643
 51
144.9293729357
  0
ARC
  5
10B
330
1F
100
AcDbEntity
  8
0
  6
Continuous
 62
     7
370
    15
100
AcDbCircle
 10
124.4402458716
 20
29.885948801
 30
0.0
 40
21.08508539255467
100
AcDbArc
 50
144.9293729357
 51
179.0706270643
  0
ARC
  5
10C
330
1F
100
AcDbEntity
  8
0
  6
Continuous
 62
     7
370
    15
100
AcDbCircle
 10
104.3578026989
 20
30.2117270065
 30
0.0
 40
1.000000000000011
100
AcDbArc
 50
179.0706270643
 51
216.9293729357
  0
ARC
  5
10D
330
1F
100
AcDbEntity
  8
0
  6
Continuous
 62
     7
370
    15
100
AcDbCircle
 10
120.4133528895
 20
42.2794510381
 30
0.0
 40
21.08508539255466
100
AcDbArc
 50
216.9293729357
 51
251.0706270643
  0
ARC
  5
10E
330
1F
100
AcDbEntity
  8
0
  6
Continuous
 62
     7
370
    15
100
AcDbCircle
 10
113.8977031753
 20
23.2805835974
 30
0.0
 40
1.000000000000008
100
AcDbArc
 50
251.0706270643
 51
288.9293729357
  0
ARC
  5
10F
330
1F
100
AcDbEntity
  8
0
  6
Continuous
 62
     7
370
    15
100
AcDbCircle
 10
81.2143252449
 20
29.7794510381
 30
0.0
 40
21.08508539255466
100
AcDbArc
 50
288.9293729357
 51
323.0706270643
  0
ARC
  5
110
330
1F
100
AcDbEntity
  8
0
  6
Continuous
 62
     7
370
    15
100
AcDbCircle
 10
97.2698754356
 20
17.7117270065
 30
0.0
 40
1.000000000000015
100
AcDbArc
 50
323.0706270643
 51
0.9293729357
  0
ARC
  5
111
330
1F
100
AcDbEntity
  8
0
  6
Continuous
 62
     7
370
    15
100
AcDbCircle
 10
77.1874322628
 20
17.385948801
 30
0.0
 40
21.08508539255463
100
AcDbArc
 50
0.9293729357
 51
35.0706270643
  0
ARC
  5
112
330
1F
100
AcDbEntity
  8
0
  6
Continuous
 62
     7
370
    15
100
AcDbCircle
 10
93.6259577028
 20
28.9265526233
 30
0.0
 40
0.9999999999999939
100
AcDbArc
 50
35.0706270643
 51
72.9293729357
  0
ARC
  5
113
330
1F
100
AcDbEntity
  8
0
  6
Continuous
 62
     7
370
    15
100
AcDbCircle
 10
87.7299749591
 20
9.7263431789
 30
0.0
 40
21.08508539255465
100
AcDbArc
 50
72.9293729357
 51
107.0706270643
  0
ARC
  5
114
330
1F
100
AcDbEntity
  8
0
  6
Continuous
 62
     7
370
    15
100
AcDbCircle
 10
81.8339922153
 20
28.9265526233
 30
0.0
 40
1.000000000000001
100
AcDbArc
 50
107.0706270643
 51
144.9293729357
  0
ARC
  5
115
330
1F
100
AcDbEntity
  8
0
  6
Continuous
 62
     7
370
    15
100
AcDbCircle
 10
98.2725176554
 20
17.385948801
 30
0.0
 40
21.08508539255466
100
AcDbArc
 50
144.9293729357
 51
179.0706270643
  0
ARC
  5
116
330
1F
100
AcDbEntity
  8
0
  6
Continuous
 62
     7
370
    15
100
AcDbCircle
 10
78.1900744826
 20
17.7117270065
 30
0.0
 40
1.000000000000011
100
AcDbArc
 50
179.0706270643
 51
216.9293729357
  0
ARC
  5
117
330
1F
100
AcDbEntity
  8
0
  6
Continuous
 62
     7
370
    15
100
AcDbCircle
 10
94.2456246732
 20
29.7794510381
 30
0.0
 40
21.08508539255466
100
AcDbArc
 50
216.9293729357
 51
251.0706270643
  0
ARC
  5
118
330
1F
100
AcDbEntity
  8
0
  6
Continuous
 62
     7
370
    15
100
AcDbCircle
 10
87.7299749591
 20
10.7805835974
 30
0.0
 40
1.000000000000008
100
AcDbArc
 50
251.0706270643
 51
288.9293729357
  0
ARC
  5
119
330
1F
100
AcDbEntity
  8
0
  6
Continuous
 62
     7
370
    15
100
AcDbCircle
 10
81.2143252449
 20
54.7794510381
 30
0.0
 40
21.08508539255466
100
AcDbArc
 50
288.9293729357
 51
323.0706270643
  0
ARC
  5
11A
330
1F
100
AcDbEntity
  8
0
  6
Continuous
 62
     7
370
    15
100
AcDbCircle
 10
97.2698754356
 20
42.7117270065
 30
0.0
 40
1.000000000000015
100
AcDbArc
 50
323.0706270643
 51
0.9293729357
  0
ARC
  5
11B
330
1F
100
AcDbEntity
  8
0
  6
Continuous
 62
     7
370
    15
100
AcDbCircle
 10
77.1874322628
 20
42.385948801
 30
0.0
 40
21.08508539255463
100
AcDbArc
 50
0.9293729357
 51
35.0706270643
  0
ARC
  5
11C
330
1F
100
AcDbEntity
  8
0
  6
Continuous
 62
     7
370
    15
100
AcDbCircle
 10
93.6259577028
 20
53.9265526233
 30
0.0
 40
0.9999999999999972
100
AcDbArc
 50
35.0706270643
 51
72.9293729357
  0
ARC
  5
11D
330
1F
100
AcDbEntity
  8
0
  6
Continuous
 62
     7
370
    15
100
AcDbCircle
 10
87.7299749591
 20
34.7263431789
 30
0.0
 40
21.08508539255465
100
AcDbArc
 50
72.9293729357
 51
107.0706270643
  0
ARC
  5
11E
330
1F
100
AcDbEntity
  8
0
  6
Continuous
 62
     7
370
    15
100
AcDbCircle
 10
81.8339922153
 20
53.9265526233
 30
0.0
 40
1.000000000000005
100
AcDbArc
 50
107.0706270643
 51
144.9293729357
  0
ARC
  5
11F
330
1F
100
AcDbEntity
  8
0
  6
Continuous
 62
     7
370
    15
100
AcDbCircle
 10
98.2725176554
 20
42.385948801
 30
0.0
 40
21.08508539255467
100
AcDbArc
 50
144.9293729357
 51
179.0706270643
  0
ARC
  5
120
330
1F
100
AcDbEntity
  8
0
  6
Continuous
 62
     7
370
    15
100
AcDbCircle
 10
78.1900744826
 20
42.7117270065
 30
0.0
 40
1.000000000000011
100
AcDbArc
 50
179.0706270643
 51
216.9293729357
  0
ARC
  5
121
330
1F
100
AcDbEntity
  8
0
  6
Continuous
 62
     7
370
    15
100
AcDbCircle
 10
94.2456246732
 20
54.7794510381
 30
0.0
 40
21.08508539255466
100
AcDbArc
 50
216.9293729357
 51
251.0706270643
  0
ARC
  5
122
330
1F
100
AcDbEntity
  8
0
  6
Continuous
 62
     7
370
    15
100
AcDbCircle
 10
87.7299749591
 20
35.7805835974
 30
0.0
 40
1.000000000000005
100
AcDbArc
 50
251.0706270643
 51
288.9293729357
  0
ARC
  5
123
330
1F
100
AcDbEntity
  8
0
  6
Continuous
 62
     7
370
    15
100
AcDbCircle
 10
55.0465970287
 20
67.2794510381
 30
0.0
 40
21.08508539255467
100
AcDbArc
 50
288.9293729357
 51
323.0706270643
  0
ARC
  5
124
330
1F
100
AcDbEntity
  8
0
  6
Continuous
 62
     7
370
    15
100
AcDbCircle
 10
71.1021472193
 20
55.2117270065
 30
0.0
 40
1.00000000000001
100
AcDbArc
 50
323.0706270643
 51
0.9293729357
  0
ARC
  5
125
330
1F
100
AcDbEntity
  8
0
  6
Continuous
 62
     7
370
    15
100
AcDbCircle
 10
51.0197040466
 20
54.885948801
 30
0.0
 40
21.08508539255464
100
AcDbArc
 50
0.9293729357
 51
35.0706270643
  0
ARC
  5
126
330
1F
100
AcDbEntity
  8
0
  6
Continuous
 62
     7
370
    15
100
AcDbCircle
 10
67.4582294866
 20
66.4265526233
 30
0.0
 40
0.999999999999997
100
AcDbArc
 50
35.0706270643
 51
72.9293729357
  0
ARC
  5
127
330
1F
100
AcDbEntity
  8
0
  6
Continuous
 62
     7
370
    15
100
AcDbCircle
 10
61.5622467428
 20
47.2263431789
 30
0.0
 40
21.08508539255464
100
AcDbArc
 50
72.9293729357
 51
107.0706270643
  0
ARC
  5
128
330
1F
100
AcDbEntity
  8
0
  6
Continuous
 62
     7
370
    15
100
AcDbCircle
 10
55.6662639991
 20
66.4265526233
 30
0.0
 40
1.000000000000005
100
AcDbArc
 50
107.0706270643
 51
144.9293729357
  0
ARC
  5
129
330
1F
100
AcDbEntity
  8
0
  6
Continuous
 62
     7
370
    15
100
AcDbCircle
 10
72.1047894391
 20
54.885948801
 30
0.0
 40
21.08508539255466
100
AcDbArc
 50
144.9293729357
 51
179.0706270643
  0
ARC
  5
12A
330
1F
100
AcDbEntity
  8
0
  6
Continuous
 62
     7
370
    15
100
AcDbCircle
 10
52.0223462663
 20
55.2117270065
 30
0.0
 40
1.000000000000004
100
AcDbArc
 50
179.0706270643
 51
216.9293729357
  0
ARC
  5
12B
330
1F
100
AcDbEntity
  8
0
  6
Continuous
 62
     7
370
    15
100
AcDbCircle
 10
68.077896457
 20
67.2794510381
 30
0.0
 40
21.08508539255467
100
AcDbArc
 50
216.9293729357
 51
251.0706270643
  0
ARC
  5
12C
330
1F
100
AcDbEntity
  8
0
  6
Continuous
 62
     7
370
    15
100
AcDbCircle
 10
61.5622467428
 20
48.2805835974
 30
0.0
 40
1.000000000000012
100
AcDbArc
 50
251.0706270643
 51
288.9293729357
  0
ARC
  5
12D
330
1F
100
AcDbEntity
  8
0
  6
Continuous
 62
     7
370
    15
100
AcDbCircle
 10
55.0465970287
 20
42.2794510381
 30
0.0
 40
21.08508539255467
100
AcDbArc
 50
288.9293729357
 51
323.0706270643
  0
ARC
  5
12E
330
1F
100
AcDbEntity
  8
0
  6
Continuous
 62
     7
370
    15
100
AcDbCircle
 10
71.1021472193
 20
30.2117270065
 30
0.0
 40
1.000000000000015
100
AcDbArc
 50
323.0706270643
 51
0.9293729357
  0
ARC
  5
12F
330
1F
100
AcDbEntity
  8
0
  6
Continuous
 62
     7
370
    15
100
AcDbCircle
 10
51.0197040466
 20
29.885948801
 30
0.0
 40
21.08508539255462
100
AcDbArc
 50
0.9293729357
 51
35.0706270643
  0
ARC
  5
130
330
1F
100
AcDbEntity
  8
0
  6
Continuous
 62
     7
370
    15
100
AcDbCircle
 10
67.4582294866
 20
41.4265526233
 30
0.0
 40
0.9999999999999972
100
AcDbArc
 50
35.0706270643
 51
72.9293729357
  0
ARC
  5
131
330
1F
100
AcDbEntity
  8
0
  6
Continuous
 62
     7
370
    15
100
AcDbCircle
 10
61.5622467428
 20
22.2263431789
 30
0.0
 40
21.08508539255465
100
AcDbArc
 50
72.9293729357
 51
107.0706270643
  0
ARC
  5
132
330
1F
100
AcDbEntity
  8
0
  6
Continuous
 62
     7
370
    15
100
AcDbCircle
 10
55.6662639991
 20
41.4265526233
 30
0.0
 40
1.000000000000001
100
AcDbArc
 50
107.0706270643
 51
144.9293729357
  0
ARC
  5
133
330
1F
100
AcDbEntity
  8
0
  6
Continuous
 62
     7
370
    15
100
AcDbCircle
 10
72.1047894391
 20
29.885948801
 30
0.0
 40
21.08508539255465
100
AcDbArc
 50
144.9293729357
 51
179.0706270643
  0
ARC
  5
134
330
1F
100
AcDbEntity
  8
0
  6
Continuous
 62
     7
370
    15
100
AcDbCircle
 10
52.0223462663
 20
30.2117270065
 30
0.0
 40
1.000000000000011
100
AcDbArc
 50
179.0706270643
 51
216.9293729357
  0
ARC
  5
135
330
1F
100
AcDbEntity
  8
0
  6
Continuous
 62
     7
370
    15
100
AcDbCircle
 10
68.077896457
 20
42.2794510381
 30
0.0
 40
21.08508539255467
100
AcDbArc
 50
216.9293729357
 51
251.0706270643
  0
ARC
  5
136
330
1F
100
AcDbEntity
  8
0
  6
Continuous
 62
     7
370
    15
100
AcDbCircle
 10
61.5622467428
 20
23.2805835974
 30
0.0
 40
1.000000000000008
100
AcDbArc
 50
251.0706270643
 51
288.9293729357
  0
ARC
  5
137
330
1F
100
AcDbEntity
  8
0
  6
Continuous
 62
     7
370
    15
100
AcDbCircle
 10
184.6164893793
 20
67.2794510381
 30
0.0
 40
21.08508539255467
100
AcDbArc
 50
288.9293729357
 51
323.0706270643
  0
ARC
  5
138
330
1F
100
AcDbEntity
  8
0
  6
Continuous
 62
     7
370
    15
100
AcDbCircle
 10
200.6720395699
 20
55.2117270065
 30
0.0
 40
1.000000000000015
100
AcDbArc
 50
323.0706270643
 51
0.9293729357
  0
ARC
  5
139
330
1F
100
AcDbEntity
  8
0
  6
Continuous
 62
     7
370
    15
100
AcDbCircle
 10
180.5895963972
 20
54.885948801
 30
0.0
 40
21.08508539255465
100
AcDbArc
 50
0.9293729357
 51
35.0706270643
  0
ARC
  5
13A
330
1F
100
AcDbEntity
  8
0
  6
Continuous
 62
     7
370
    15
100
AcDbCircle
 10
197.0281218372
 20
66.4265526233
 30
0.0
 40
1.000000000000011
100
AcDbArc
 50
35.0706270643
 51
72.9293729357
  0
ARC
  5
13B
330
1F
100
AcDbEntity
  8
0
  6
Continuous
 62
     7
370
    15
100
AcDbCircle
 10
191.1321390934
 20
47.2263431789
 30
0.0
 40
21.08508539255466
100
AcDbArc
 50
72.9293729357
 51
107.0706270643
  0
ARC
  5
13C
330
1F
100
AcDbEntity
  8
0
  6
Continuous
 62
     7
370
    15
100
AcDbCircle
 10
185.2361563497
 20
66.4265526233
 30
0.0
 40
1.000000000000011
100
AcDbArc
 50
107.0706270643
 51
144.9293729357
  0
ARC
  5
13D
330
1F
100
AcDbEntity
  8
0
  6
Continuous
 62
     7
370
    15
100
AcDbCircle
 10
201.6746817897
 20
54.885948801
 30
0.0
 40
21.08508539255465
100
AcDbArc
 50
144.9293729357
 51
179.0706270643
  0
ARC
  5
13E
330
1F
100
AcDbEntity
  8
0
  6
Continuous
 62
     7
370
    15
100
AcDbCircle
 10
181.592238617
 20
55.2117270065
 30
0.0
 40
1.000000000000011
100
AcDbArc
 50
179.0706270643
 51
216.9293729357
  0
ARC
  5
13F
330
1F
100
AcDbEntity
  8
0
  6
Continuous
 62
     7
370
    15
100
AcDbCircle
 10
197.6477888076
 20
67.2794510381
 30
0.0
 40
21.08508539255467
100
AcDbArc
 50
216.9293729357
 51
251.0706270643
  0
ARC
  5
140
330
1F
100
AcDbEntity
  8
0
  6
Continuous
 62
     7
370
    15
100
AcDbCircle
 10
191.1321390934
 20
48.2805835974
 30
0.0
 40
1.000000000000016
100
AcDbArc
 50
251.0706270643
 51
288.9293729357
  0
ARC
  5
141
330
1F
100
AcDbEntity
  8
0
  6
Continuous
 62
     7
370
    15
100
AcDbCircle
 10
184.6164893793
 20
92.2794510381
 30
0.0
 40
21.08508539255468
100
AcDbArc
 50
288.9293729357
 51
323.0706270643
  0
ARC
  5
142
330
1F
100
AcDbEntity
  8
0
  6
Continuous
 62
     7
370
    15
100
AcDbCircle
 10
200.6720395699
 20
80.2117270065
 30
0.0
 40
1.000000000000015
100
AcDbArc
 50
323.0706270643
 51
0.9293729357
  0
ARC
  5
143
330
1F
100
AcDbEntity
  8
0
  6
Continuous
 62
     7
370
    15
100
AcDbCircle
 10
180.5895963972
 20
79.885948801
 30
0.0
 40
21.08508539255465
100
AcDbArc
 50
0.9293729357
 51
35.0706270643
  0
ARC
  5
144
330
1F
100
AcDbEntity
  8
0
  6
Continuous
 62
     7
370
    15
100
AcDbCircle
 10
197.0281218372
 20
91.4265526233
 30
0.0
 40
1.000000000000011
100
AcDbArc
 50
35.0706270643
 51
72.9293729357
  0
ARC
  5
145
330
1F
100
AcDbEntity
  8
0
  6
Continuous
 62
     7
370
    15
100
AcDbCircle
 10
191.1321390934
 20
72.2263431789
 30
0.0
 40
21.08508539255466
100
AcDbArc
 50
72.9293729357
 51
107.0706270643
  0
ARC
  5
146
330
1F
100
AcDbEntity
  8
0
  6
Continuous
 62
     7
370
    15
100
AcDbCircle
 10
201.6746817897
 20
79.885948801
 30
0.0
 40
21.08508539255465
100
AcDbArc
 50
144.9293729357
 51
179.0706270643
  0
ARC
  5
147
330
1F
100
AcDbEntity
  8
0
  6
Continuous
 62
     7
370
    15
100
AcDbCircle
 10
181.592238617
 20
80.2117270065
 30
0.0
 40
1.000000000000011
100
AcDbArc
 50
179.0706270643
 51
216.9293729357
  0
ARC
  5
148
330
1F
100
AcDbEntity
  8
0
  6
Continuous
 62
     7
370
    15
100
AcDbCircle
 10
197.6477888076
 20
92.2794510381
 30
0.0
 40
21.08508539255465
100
AcDbArc
 50
216.9293729357
 51
251.0706270643
  0
ARC
  5
149
330
1F
100
AcDbEntity
  8
0
  6
Continuous
 62
     7
370
    15
100
AcDbCircle
 10
191.1321390934
 20
73.2805835974
 30
0.0
 40
0.9999999999999963
100
AcDbArc
 50
251.0706270643
 51
288.9293729357
  0
ARC
  5
14A
330
1F
100
AcDbEntity
  8
0
  6
Continuous
 62
     7
370
    15
100
AcDbCircle
 10
184.6164893793
 20
42.2794510381
 30
0.0
 40
21.08508539255467
100
AcDbArc
 50
288.9293729357
 51
323.0706270643
  0
ARC
  5
14B
330
1F
100
AcDbEntity
  8
0
  6
Continuous
 62
     7
370
    15
100
AcDbCircle
 10
200.6720395699
 20
30.2117270065
 30
0.0
 40
1.000000000000012
100
AcDbArc
 50
323.0706270643
 51
0.9293729357
  0
ARC
  5
14C
330
1F
100
AcDbEntity
  8
0
  6
Continuous
 62
     7
370
    15
100
AcDbCircle
 10
180.5895963972
 20
29.885948801
 30
0.0
 40
21.08508539255465
100
AcDbArc
 50
0.9293729357
 51
35.0706270643
  0
ARC
  5
14D
330
1F
100
AcDbEntity
  8
0
  6
Continuous
 62
     7
370
    15
100
AcDbCircle
 10
197.0281218372
 20
41.4265526233
 30
0.0
 40
1.0
100
AcDbArc
 50
35.0706270643
 51
72.9293729357
  0
ARC
  5
14E
330
1F
100
AcDbEntity
  8
0
  6
Continuous
 62
     7
370
    15
100
AcDbCircle
 10
191.1321390934
 20
22.2263431789
 30
0.0
 40
21.08508539255465
100
AcDbArc
 50
72.9293729357
 51
107.0706270643
  0
ARC
  5
14F
330
1F
100
AcDbEntity
  8
0
  6
Continuous
 62
     7
370
    15
100
AcDbCircle
 10
185.2361563497
 20
41.4265526233
 30
0.0
 40
0.9999999999999905
100
AcDbArc
 50
107.0706270643
 51
144.9293729357
  0
ARC
  5
150
330
1F
100
AcDbEntity
  8
0
  6
Continuous
 62
     7
370
    15
100
AcDbCircle
 10
201.6746817897
 20
29.885948801
 30
0.0
 40
21.08508539255465
100
AcDbArc
 50
144.9293729357
 51
179.0706270643
  0
ARC
  5
151
330
1F
100
AcDbEntity
  8
0
  6
Continuous
 62
     7
370
    15
100
AcDbCircle
 10
181.592238617
 20
30.2117270065
 30
0.0
 40
1.000000000000011
100
AcDbArc
 50
179.0706270643
 51
216.9293729357
  0
ARC
  5
152
330
1F
100
AcDbEntity
  8
0
  6
Continuous
 62
     7
370
    15
100
AcDbCircle
 10
197.6477888076
 20
42.2794510381
 30
0.0
 40
21.08508539255466
100
AcDbArc
 50
216.9293729357
 51
251.0706270643
  0
ARC
  5
153
330
1F
100
AcDbEntity
  8
0
  6
Continuous
 62
     7
370
    15
100
AcDbCircle
 10
191.1321390934
 20
23.2805835974
 30
0.0
 40
1.000000000000013
100
AcDbArc
 50
251.0706270643
 51
288.9293729357
  0
ARC
  5
154
330
1F
100
AcDbEntity
  8
0
  6
Continuous
 62
     7
370
    15
100
AcDbCircle
 10
210.7842175955
 20
29.7794510381
 30
0.0
 40
21.08508539255467
100
AcDbArc
 50
288.9293729357
 51
323.0706270643
  0
ARC
  5
155
330
1F
100
AcDbEntity
  8
0
  6
Continuous
 62
     7
370
    15
100
AcDbCircle
 10
226.8397677862
 20
17.7117270065
 30
0.0
 40
1.000000000000012
100
AcDbArc
 50
323.0706270643
 51
0.9293729357
  0
ARC
  5
156
330
1F
100
AcDbEntity
  8
0
  6
Continuous
 62
     7
370
    15
100
AcDbCircle
 10
206.7573246134
 20
17.385948801
 30
0.0
 40
21.08508539255465
100
AcDbArc
 50
0.9293729357
 51
35.0706270643
  0
ARC
  5
157
330
1F
100
AcDbEntity
  8
0
  6
Continuous
 62
     7
370
    15
100
AcDbCircle
 10
223.1958500534
 20
28.9265526233
 30
0.0
 40
1.000000000000002
100
AcDbArc
 50
35.0706270643
 51
72.9293729357
  0
ARC
  5
158
330
1F
100
AcDbEntity
  8
0
  6
Continuous
 62
     7
370
    15
100
AcDbCircle
 10
217.2998673097
 20
9.7263431789
 30
0.0
 40
21.08508539255466
100
AcDbArc
 50
72.9293729357
 51
107.0706270643
  0
ARC
  5
159
330
1F
100
AcDbEntity
  8
0
  6
Continuous
 62
     7
370
    15
100
AcDbCircle
 10
211.4038845659
 20
28.9265526233
 30
0.0
 40
0.9999999999999972
100
AcDbArc
 50
107.0706270643
 51
144.9293729357
  0
ARC
  5
15A
330
1F
100
AcDbEntity
  8
0
  6
Continuous
 62
     7
370
    15
100
AcDbCircle
 10
227.842410006
 20
17.385948801
 30
0.0
 40
21.08508539255467
100
AcDbArc
 50
144.9293729357
 51
179.0706270643
  0
ARC
  5
15B
330
1F
100
AcDbEntity
  8
0
  6
Continuous
 62
     7
370
    15
100
AcDbCircle
 10
207.7599668332
 20
17.7117270065
 30
0.0
 40
1.000000000000011
100
AcDbArc
 50
179.0706270643
 51
216.9293729357
  0
ARC
  5
15C
330
1F
100
AcDbEntity
  8
0
  6
Continuous
 62
     7
370
    15
100
AcDbCircle
 10
223.8155170238
 20
29.7794510381
 30
0.0
 40
21.08508539255466
100
AcDbArc
 50
216.9293729357
 51
251.0706270643
  0
ARC
  5
15D
330
1F
100
AcDbEntity
  8
0
  6
Continuous
 62
     7
370
    15
100
AcDbCircle
 10
217.2998673097
 20
10.7805835974
 30
0.0
 40
1.000000000000013
100
AcDbArc
 50
251.0706270643
 51
288.9293729357
  0
ARC
  5
15E
330
1F
100
AcDbEntity
  8
0
  6
Continuous
 62
     7
370
    15
100
AcDbCircle
 10
210.7842175955
 20
54.7794510381
 30
0.0
 40
21.08508539255467
100
AcDbArc
 50
288.9293729357
 51
323.0706270643
  0
ARC
  5
15F
330
1F
100
AcDbEntity
  8
0
  6
Continuous
 62
     7
370
    15
100
AcDbCircle
 10
226.8397677862
 20
42.7117270065
 30
0.0
 40
1.000000000000015
100
AcDbArc
 50
323.0706270643
 51
0.9293729357
  0
ARC
  5
160
330
1F
100
AcDbEntity
  8
0
  6
Continuous
 62
     7
370
    15
100
AcDbCircle
 10
206.7573246134
 20
42.385948801
 30
0.0
 40
21.08508539255465
100
AcDbArc
 50
0.9293729357
 51
35.0706270643
  0
ARC
  5
161
330
1F
100
AcDbEntity
  8
0
  6
Continuous
 62
     7
370
    15
100
AcDbCircle
 10
223.1958500534
 20
53.9265526233
 30
0.0
 40
1.000000000000004
100
AcDbArc
 50
35.0706270643
 51
72.9293729357
  0
ARC
  5
162
330
1F
100
AcDbEntity
  8
0
  6
Continuous
 62
     7
370
    15
100
AcDbCircle
 10
217.2998673097
 20
34.7263431789
 30
0.0
 40
21.08508539255465
100
AcDbArc
 50
72.9293729357
 51
107.0706270643
  0
ARC
  5
163
330
1F
100
AcDbEntity
  8
0
  6
Continuous
 62
     7
370
    15
100
AcDbCircle
 10
211.4038845659
 20
53.9265526233
 30
0.0
 40
0.9999999999999972
100
AcDbArc
 50
107.0706270643
 51
144.9293729357
  0
ARC
  5
164
330
1F
100
AcDbEntity
  8
0
  6
Continuous
 62
     7
370
    15
100
AcDbCircle
 10
227.842410006
 20
42.385948801
 30
0.0
 40
21.08508539255467
100
AcDbArc
 50
144.9293729357
 51
179.0706270643
  0
ARC
  5
165
330
1F
100
AcDbEntity
  8
0
  6
Continuous
 62
     7
370
    15
100
AcDbCircle
 10
207.7599668332
 20
42.7117270065
 30
0.0
 40
1.000000000000011
100
AcDbArc
 50
179.0706270643
 51
216.9293729357
  0
ARC
  5
166
330
1F
100
AcDbEntity
  8
0
  6
Continuous
 62
     7
370
    15
100
AcDbCircle
 10
223.8155170238
 20
54.7794510381
 30
0.0
 40
21.08508539255466
100
AcDbArc
 50
216.9293729357
 51
251.0706270643
  0
ARC
  5
167
330
1F
100
AcDbEntity
  8
0
  6
Continuous
 62
     7
370
    15
100
AcDbCircle
 10
217.2998673097
 20
35.7805835974
 30
0.0
 40
1.000000000000003
100
AcDbArc
 50
251.0706270643
 51
288.9293729357
  0
ARC
  5
168
330
1F
100
AcDbEntity
  8
0
  6
Continuous
 62
     7
370
    15
100
AcDbCircle
 10
210.7842175955
 20
79.7794510381
 30
0.0
 40
21.08508539255468
100
AcDbArc
 50
288.9293729357
 51
323.0706270643
  0
ARC
  5
169
330
1F
100
AcDbEntity
  8
0
  6
Continuous
 62
     7
370
    15
100
AcDbCircle
 10
226.8397677862
 20
67.7117270065
 30
0.0
 40
1.000000000000023
100
AcDbArc
 50
323.0706270643
 51
0.9293729357
  0
ARC
  5
16A
330
1F
100
AcDbEntity
  8
0
  6
Continuous
 62
     7
370
    15
100
AcDbCircle
 10
206.7573246134
 20
67.385948801
 30
0.0
 40
21.08508539255465
100
AcDbArc
 50
0.9293729357
 51
35.0706270643
  0
ARC
  5
16B
330
1F
100
AcDbEntity
  8
0
  6
Continuous
 62
     7
370
    15
100
AcDbCircle
 10
223.1958500534
 20
78.9265526233
 30
0.0
 40
1.000000000000011
100
AcDbArc
 50
35.0706270643
 51
72.9293729357
  0
ARC
  5
16C
330
1F
100
AcDbEntity
  8
0
  6
Continuous
 62
     7
370
    15
100
AcDbCircle
 10
217.2998673097
 20
59.7263431789
 30
0.0
 40
21.08508539255466
100
AcDbArc
 50
72.9293729357
 51
107.0706270643
  0
ARC
  5
16D
330
1F
100
AcDbEntity
  8
0
  6
Continuous
 62
     7
370
    15
100
AcDbCircle
 10
211.4038845659
 20
78.9265526233
 30
0.0
 40
1.000000000000011
100
AcDbArc
 50
107.0706270643
 51
144.9293729357
  0
ARC
  5
16E
330
1F
100
AcDbEntity
  8
0
  6
Continuous
 62
     7
370
    15
100
AcDbCircle
 10
227.842410006
 20
67.385948801
 30
0.0
 40
21.08508539255467
100
AcDbArc
 50
144.9293729357
 51
179.0706270643
  0
ARC
  5
16F
330
1F
100
AcDbEntity
  8
0
  6
Continuous
 62
     7
370
    15
100
AcDbCircle
 10
207.7599668332
 20
67.7117270065
 30
0.0
 40
1.000000000000015
100
AcDbArc
 50
179.0706270643
 51
216.9293729357
  0
ARC
  5
170
330
1F
100
AcDbEntity
  8
0
  6
Continuous
 62
     7
370
    15
100
AcDbCircle
 10
223.8155170238
 20
79.7794510381
 30
0.0
 40
21.08508539255467
100
AcDbArc
 50
216.9293729357
 51
251.0706270643
  0
ARC
  5
171
330
1F
100
AcDbEntity
  8
0
  6
Continuous
 62
     7
370
    15
100
AcDbCircle
 10
217.2998673097
 20
60.7805835974
 30
0.0
 40
1.00000000000001
100
AcDbArc
 50
251.0706270643
 51
288.9293729357
  0
ARC
  5
172
330
1F
100
AcDbEntity
  8
0
  6
Continuous
 62
     7
370
    15
100
AcDbCircle
 10
210.7842175955
 20
104.7794510381
 30
0.0
 40
21.08508539255467
100
AcDbArc
 50
288.9293729357
 51
323.0706270643
  0
ARC
  5
173
330
1F
100
AcDbEntity
  8
0
  6
Continuous
 62
     7
370
    15
100
AcDbCircle
 10
226.8397677862
 20
92.7117270065
 30
0.0
 40
1.000000000000006
100
AcDbArc
 50
323.0706270643
 51
0.9293729357
  0
ARC
  5
174
330
1F
100
AcDbEntity
  8
0
  6
Continuous
 62
     7
370
    15
100
AcDbCircle
 10
206.7573246134
 20
92.385948801
 30
0.0
 40
21.08508539255465
100
AcDbArc
 50
0.9293729357
 51
35.0706270643
  0
ARC
  5
175
330
1F
100
AcDbEntity
  8
0
  6
Continuous
 62
     7
370
    15
100
AcDbCircle
 10
223.1958500534
 20
103.9265526233
 30
0.0
 40
1.0
100
AcDbArc
 50
35.0706270643
 51
72.9293729357
  0
ARC
  5
176
330
1F
100
AcDbEntity
  8
0
  6
Continuous
 62
     7
370
    15
100
AcDbCircle
 10
217.2998673097
 20
84.7263431789
 30
0.0
 40
21.08508539255466
100
AcDbArc
 50
72.9293729357
 51
107.0706270643
  0
ARC
  5
177
330
1F
100
AcDbEntity
  8
0
  6
Continuous
 62
     7
370
    15
100
AcDbCircle
 10
211.4038845659
 20
103.9265526233
 30
0.0
 40
0.9999999999999972
100
AcDbArc
 50
107.0706270643
 51
144.9293729357
  0
ARC
  5
178
330
1F
100
AcDbEntity
  8
0
  6
Continuous
 62
     7
370
    15
100
AcDbCircle
 10
227.842410006
 20
92.385948801
 30
0.0
 40
21.08508539255467
100
AcDbArc
 50
144.9293729357
 51
179.0706270643
  0
ARC
  5
179
330
1F
100
AcDbEntity
  8
0
  6
Continuous
 62
     7
370
    15
100
AcDbCircle
 10
207.7599668332
 20
92.7117270065
 30
0.0
 40
1.000000000000011
100
AcDbArc
 50
179.0706270643
 51
216.9293729357
  0
ARC
  5
17A
330
1F
100
AcDbEntity
  8
0
  6
Continuous
 62
     7
370
    15
100
AcDbCircle
 10
223.8155170238
 20
104.7794510381
 30
0.0
 40
21.08508539255467
100
AcDbArc
 50
216.9293729357
 51
251.0706270643
  0
ARC
  5
17B
330
1F
100
AcDbEntity
  8
0
  6
Continuous
 62
     7
370
    15
100
AcDbCircle
 10
217.2998673097
 20
85.7805835974
 30
0.0
 40
1.00000000000001
100
AcDbArc
 50
251.0706270643
 51
288.9293729357
  0
ARC
  5
17C
330
1F
100
AcDbEntity
  8
0
  6
Continuous
 62
     7
370
    15
100
AcDbCircle
 10
236.9519458118
 20
92.2794510381
 30
0.0
 40
21.08508539255469
100
AcDbArc
 50
288.9293729357
 51
323.0706270643
  0
ARC
  5
17D
330
1F
100
AcDbEntity
  8
0
  6
Continuous
 62
     7
370
    15
100
AcDbCircle
 10
253.0074960024
 20
80.2117270065
 30
0.0
 40
1.000000000000015
100
AcDbArc
 50
323.0706270643
 51
0.9293729357
  0
ARC
  5
17E
330
1F
100
AcDbEntity
  8
0
  6
Continuous
 62
     7
370
    15
100
AcDbCircle
 10
232.9250528297
 20
79.885948801
 30
0.0
 40
21.08508539255465
100
AcDbArc
 50
0.9293729357
 51
35.0706270643
  0
ARC
  5
17F
330
1F
100
AcDbEntity
  8
0
  6
Continuous
 62
     7
370
    15
100
AcDbCircle
 10
249.3635782697
 20
91.4265526233
 30
0.0
 40
1.000000000000024
100
AcDbArc
 50
35.0706270643
 51
72.9293729357
  0
ARC
  5
180
330
1F
100
AcDbEntity
  8
0
  6
Continuous
 62
     7
370
    15
100
AcDbCircle
 10
243.467595526
 20
72.2263431789
 30
0.0
 40
21.08508539255464
100
AcDbArc
 50
72.9293729357
 51
107.0706270643
  0
ARC
  5
181
330
1F
100
AcDbEntity
  8
0
  6
Continuous
 62
     7
370
    15
100
AcDbCircle
 10
237.5716127822
 20
91.4265526233
 30
0.0
 40
1.000000000000017
100
AcDbArc
 50
107.0706270643
 51
144.9293729357
  0
ARC
  5
182
330
1F
100
AcDbEntity
  8
0
  6
Continuous
 62
     7
370
    15
100
AcDbCircle
 10
254.0101382222
 20
79.885948801
 30
0.0
 40
21.0850853925547
100
AcDbArc
 50
144.9293729357
 51
179.0706270643
  0
ARC
  5
183
330
1F
100
AcDbEntity
  8
0
  6
Continuous
 62
     7
370
    15
100
AcDbCircle
 10
233.9276950495
 20
80.2117270065
 30
0.0
 40
1.000000000000011
100
AcDbArc
 50
179.0706270643
 51
216.9293729357
  0
ARC
  5
184
330
1F
100
AcDbEntity
  8
0
  6
Continuous
 62
     7
370
    15
100
AcDbCircle
 10
249.9832452401
 20
92.2794510381
 30
0.0
 40
21.08508539255466
100
AcDbArc
 50
216.9293729357
 51
251.0706270643
  0
ARC
  5
185
330
1F
100
AcDbEntity
  8
0
  6
Continuous
 62
     7
370
    15
100
AcDbCircle
 10
243.467595526
 20
73.2805835974
 30
0.0
 40
1.000000000000001
100
AcDbArc
 50
251.0706270643
 51
288.9293729357
  0
ARC
  5
186
330
1F
100
AcDbEntity
  8
0
  6
Continuous
 62
     7
370
    15
100
AcDbCircle
 10
236.9519458118
 20
67.2794510381
 30
0.0
 40
21.0850853925547
100
AcDbArc
 50
288.9293729357
 51
323.0706270643
  0
ARC
  5
187
330
1F
100
AcDbEntity
  8
0
  6
Continuous
 62
     7
370
    15
100
AcDbCircle
 10
253.0074960024
 20
55.2117270065
 30
0.0
 40
1.000000000000015
100
AcDbArc
 50
323.0706270643
 51
0.9293729357
  0
ARC
  5
188
330
1F
100
AcDbEntity
  8
0
  6
Continuous
 62
     7
370
    15
100
AcDbCircle
 10
232.9250528297
 20
54.885948801
 30
0.0
 40
21.08508539255466
100
AcDbArc
 50
0.9293729357
 51
35.0706270643
  0
ARC
  5
189
330
1F
100
AcDbEntity
  8
0
  6
Continuous
 62
     7
370
    15
100
AcDbCircle
 10
249.3635782697
 20
66.4265526233
 30
0.0
 40
1.000000000000032
100
AcDbArc
 50
35.0706270643
 51
72.9293729357
  0
ARC
  5
18A
330
1F
100
AcDbEntity
  8
0
  6
Continuous
 62
     7
370
    15
100
AcDbCircle
 10
243.467595526
 20
47.2263431789
 30
0.0
 40
21.08508539255465
100
AcDbArc
 50
72.9293729357
 51
107.0706270643
  0
ARC
  5
18B
330
1F
100
AcDbEntity
  8
0
  6
Continuous
 62
     7
370
    15
100
AcDbCircle
 10
237.5716127822
 20
66.4265526233
 30
0.0
 40
1.000000000000017
100
AcDbArc
 50
107.0706270643
 51
144.9293729357
  0
ARC
  5
18C
330
1F
100
AcDbEntity
  8
0
  6
Continuous
 62
     7
370
    15
100
AcDbCircle
 10
254.0101382222
 20
54.885948801
 30
0.0
 40
21.0850853925547
100
AcDbArc
 50
144.9293729357
 51
179.0706270643
  0
ARC
  5
18D
330
1F
100
AcDbEntity
  8
0
  6
Continuous
 62
     7
370
    15
100
AcDbCircle
 10
233.9276950495
 20
55.2117270065
 30
0.0
 40
1.000000000000011
100
AcDbArc
 50
179.0706270643
 51
216.9293729357
  0
ARC
  5
18E
330
1F
100
AcDbEntity
  8
0
  6
Continuous
 62
     7
370
    15
100
AcDbCircle
 10
249.9832452401
 20
67.2794510381
 30
0.0
 40
21.08508539255467
100
AcDbArc
 50
216.9293729357
 51
251.0706270643
  0
ARC
  5
18F
330
1F
100
AcDbEntity
  8
0
  6
Continuous
 62
     7
370
    15
100
AcDbCircle
 10
243.467595526
 20
48.2805835974
 30
0.0
 40
0.9999999999999939
100
AcDbArc
 50
251.0706270643
 51
288.9293729357
  0
ARC
  5
190
330
1F
100
AcDbEntity
  8
0
  6
Continuous
 62
     7
370
    15
100
AcDbCircle
 10
236.9519458118
 20
42.2794510381
 30
0.0
 40
21.08508539255469
100
AcDbArc
 50
288.9293729357
 51
323.0706270643
  0
ARC
  5
191
330
1F
100
AcDbEntity
  8
0
  6
Continuous
 62
     7
370
    15
100
AcDbCircle
 10
253.0074960024
 20
30.2117270065
 30
0.0
 40
1.000000000000012
100
AcDbArc
 50
323.0706270643
 51
0.9293729357
  0
ARC
  5
192
330
1F
100
AcDbEntity
  8
0
  6
Continuous
 62
     7
370
    15
100
AcDbCircle
 10
232.9250528297
 20
29.885948801
 30
0.0
 40
21.08508539255466
100
AcDbArc
 50
0.9293729357
 51
35.0706270643
  0
ARC
  5
193
330
1F
100
AcDbEntity
  8
0
  6
Continuous
 62
     7
370
    15
100
AcDbCircle
 10
249.3635782697
 20
41.4265526233
 30
0.0
 40
1.000000000000028
100
AcDbArc
 50
35.0706270643
 51
72.9293729357
  0
ARC
  5
194
330
1F
100
AcDbEntity
  8
0
  6
Continuous
 62
     7
370
    15
100
AcDbCircle
 10
243.467595526
 20
22.2263431789
 30
0.0
 40
21.08508539255465
100
AcDbArc
 50
72.9293729357
 51
107.0706270643
  0
ARC
  5
195
330
1F
100
AcDbEntity
  8
0
  6
Continuous
 62
     7
370
    15
100
AcDbCircle
 10
237.5716127822
 20
41.4265526233
 30
0.0
 40
1.000000000000017
100
AcDbArc
 50
107.0706270643
 51
144.9293729357
  0
ARC
  5
196
330
1F
100
AcDbEntity
  8
0
  6
Continuous
 62
     7
370
    15
100
AcDbCircle
 10
254.0101382222
 20
29.885948801
 30
0.0
 40
21.0850853925547
100
AcDbArc
 50
144.9293729357
 51
179.0706270643
  0
ARC
  5
197
330
1F
100
AcDbEntity
  8
0
  6
Continuous
 62
     7
370
    15
100
AcDbCircle
 10
233.9276950495
 20
30.2117270065
 30
0.0
 40
1.000000000000011
100
AcDbArc
 50
179.0706270643
 51
216.9293729357
  0
ARC
  5
198
330
1F
100
AcDbEntity
  8
0
  6
Continuous
 62
     7
370
    15
100
AcDbCircle
 10
249.9832452401
 20
42.2794510381
 30
0.0
 40
21.08508539255466
100
AcDbArc
 50
216.9293729357
 51
251.0706270643
  0
ARC
  5
199
330
1F
100
AcDbEntity
  8
0
  6
Continuous
 62
     7
370
    15
100
AcDbCircle
 10
243.467595526
 20
23.2805835974
 30
0.0
 40
1.000000000000004
100
AcDbArc
 50
251.0706270643
 51
288.9293729357
  0
ARC
  5
19A
330
1F
100
AcDbEntity
  8
0
  6
Continuous
 62
     7
370
    15
100
AcDbCircle
 10
263.1196740281
 20
29.7794510381
 30
0.0
 40
21.08508539255466
100
AcDbArc
 50
288.9293729357
 51
323.0706270643
  0
ARC
  5
19B
330
1F
100
AcDbEntity
  8
0
  6
Continuous
 62
     7
370
    15
100
AcDbCircle
 10
279.1752242187
 20
17.7117270065
 30
0.0
 40
1.000000000000039
100
AcDbArc
 50
323.0706270643
 51
0.9293729357
  0
ARC
  5
19C
330
1F
100
AcDbEntity
  8
0
  6
Continuous
 62
     7
370
    15
100
AcDbCircle
 10
259.0927810459
 20
17.385948801
 30
0.0
 40
21.08508539255462
100
AcDbArc
 50
0.9293729357
 51
35.0706270643
  0
ARC
  5
19D
330
1F
100
AcDbEntity
  8
0
  6
Continuous
 62
     7
370
    15
100
AcDbCircle
 10
275.531306486
 20
28.9265526233
 30
0.0
 40
1.00000000000001
100
AcDbArc
 50
35.0706270643
 51
72.9293729357
  0
ARC
  5
19E
330
1F
100
AcDbEntity
  8
0
  6
Continuous
 62
     7
370
    15
100
AcDbCircle
 10
269.6353237422
 20
9.7263431789
 30
0.0
 40
21.08508539255465
100
AcDbArc
 50
72.9293729357
 51
107.0706270643
  0
ARC
  5
19F
330
1F
100
AcDbEntity
  8
0
  6
Continuous
 62
     7
370
    15
100
AcDbCircle
 10
263.7393409985
 20
28.9265526233
 30
0.0
 40
1.000000000000015
100
AcDbArc
 50
107.0706270643
 51
144.9293729357
  0
ARC
  5
1A0
330
1F
100
AcDbEntity
  8
0
  6
Continuous
 62
     7
370
    15
100
AcDbCircle
 10
280.1778664385
 20
17.385948801
 30
0.0
 40
21.08508539255462
100
AcDbArc
 50
144.9293729357
 51
179.0706270643
  0
ARC
  5
1A1
330
1F
100
AcDbEntity
  8
0
  6
Continuous
 62
     7
370
    15
100
AcDbCircle
 10
260.0954232657
 20
17.7117270065
 30
0.0
 40
1.000000000000039
100
AcDbArc
 50
179.0706270643
 51
216.9293729357
  0
ARC
  5
1A2
330
1F
100
AcDbEntity
  8
0
  6
Continuous
 62
     7
370
    15
100
AcDbCircle
 10
276.1509734564
 20
29.7794510381
 30
0.0
 40
21.08508539255466
100
AcDbArc
 50
216.9293729357
 51
251.0706270643
  0
ARC
  5
1A3
330
1F
100
AcDbEntity
  8
0
  6
Continuous
 62
     7
370
    15
100
AcDbCircle
 10
269.6353237422
 20
10.7805835974
 30
0.0
 40
1.000000000000006
100
AcDbArc
 50
251.0706270643
 51
288.9293729357
  0
ARC
  5
1A4
330
1F
100
AcDbEntity
  8
0
  6
Continuous
 62
     7
370
    15
100
AcDbCircle
 10
263.1196740281
 20
54.7794510381
 30
0.0
 40
21.08508539255465
100
AcDbArc
 50
288.9293729357
 51
323.0706270643
  0
ARC
  5
1A5
330
1F
100
AcDbEntity
  8
0
  6
Continuous
 62
     7
370
    15
100
AcDbCircle
 10
279.1752242187
 20
42.7117270065
 30
0.0
 40
1.000000000000039
100
AcDbArc
 50
323.0706270643
 51
0.9293729357
  0
ARC
  5
1A6
330
1F
100
AcDbEntity
  8
0
  6
Continuous
 62
     7
370
    15
100
AcDbCircle
 10
259.0927810459
 20
42.385948801
 30
0.0
 40
21.08508539255462
100
AcDbArc
 50
0.9293729357
 51
35.0706270643
  0
ARC
  5
1A7
330
1F
100
AcDbEntity
  8
0
  6
Continuous
 62
     7
370
    15
100
AcDbCircle
 10
275.531306486
 20
53.9265526233
 30
0.0
 40
1.000000000000014
100
AcDbArc
 50
35.0706270643
 51
72.9293729357
  0
ARC
  5
1A8
330
1F
100
AcDbEntity
  8
0
  6
Continuous
 62
     7
370
    15
100
AcDbCircle
 10
269.6353237422
 20
34.7263431789
 30
0.0
 40
21.08508539255466
100
AcDbArc
 50
72.9293729357
 51
107.0706270643
  0
ARC
  5
1A9
330
1F
100
AcDbEntity
  8
0
  6
Continuous
 62
     7
370
    15
100
AcDbCircle
 10
263.7393409985
 20
53.9265526233
 30
0.0
 40
1.000000000000017
100
AcDbArc
 50
107.0706270643
 51
144.9293729357
  0
ARC
  5
1AA
330
1F
100
AcDbEntity
  8
0
  6
Continuous
 62
     7
370
    15
100
AcDbCircle
 10
280.1778664385
 20
42.385948801
 30
0.0
 40
21.08508539255462
100
AcDbArc
 50
144.9293729357
 51
179.0706270643
  0
ARC
  5
1AB
330
1F
100
AcDbEntity
  8
0
  6
Continuous
 62
     7
370
    15
100
AcDbCircle
 10
260.0954232657
 20
42.7117270065
 30
0.0
 40
1.000000000000039
100
AcDbArc
 50
179.0706270643
 51
216.9293729357
  0
ARC
  5
1AC
330
1F
100
AcDbEntity
  8
0
  6
Continuous
 62
     7
370
    15
100
AcDbCircle
 10
276.1509734564
 20
54.7794510381
 30
0.0
 40
21.08508539255465
100
AcDbArc
 50
216.9293729357
 51
251.0706270643
  0
ARC
  5
1AD
330
1F
100
AcDbEntity
  8
0
  6
Continuous
 62
     7
370
    15
100
AcDbCircle
 10
269.6353237422
 20
35.7805835974
 30
0.0
 40
0.9999999999999939
100
AcDbArc
 50
251.0706270643
 51
288.9293729357
  0
ARC
  5
1AE
330
1F
100
AcDbEntity
  8
0
  6
Continuous
 62
     7
370
    15
100
AcDbCircle
 10
263.1196740281
 20
79.7794510381
 30
0.0
 40
21.08508539255465
100
AcDbArc
 50
288.9293729357
 51
323.0706270643
  0
ARC
  5
1AF
330
1F
100
AcDbEntity
  8
0
  6
Continuous
 62
     7
370
    15
100
AcDbCircle
 10
279.1752242187
 20
67.7117270065
 30
0.0
 40
1.000000000000039
100
AcDbArc
 50
323.0706270643
 51
0.9293729357
  0
ARC
  5
1B0
330
1F
100
AcDbEntity
  8
0
  6
Continuous
 62
     7
370
    15
100
AcDbCircle
 10
259.0927810459
 20
67.385948801
 30
0.0
 40
21.08508539255462
100
AcDbArc
 50
0.9293729357
 51
35.0706270643
  0
ARC
  5
1B1
330
1F
100
AcDbEntity
  8
0
  6
Continuous
 62
     7
370
    15
100
AcDbCircle
 10
275.531306486
 20
78.9265526233
 30
0.0
 40
1.000000000000014
100
AcDbArc
 50
35.0706270643
 51
72.9293729357
  0
ARC
  5
1B2
330
1F
100
AcDbEntity
  8
0
  6
Continuous
 62
     7
370
    15
100
AcDbCircle
 10
269.6353237422
 20
59.7263431789
 30
0.0
 40
21.08508539255466
100
AcDbArc
 50
72.9293729357
 51
107.0706270643
  0
ARC
  5
1B3
330
1F
100
AcDbEntity
  8
0
  6
Continuous
 62
     7
370
    15
100
AcDbCircle
 10
263.7393409985
 20
78.9265526233
 30
0.0
 40
1.000000000000014
100
AcDbArc
 50
107.0706270643
 51
144.9293729357
  0
ARC
  5
1B4
330
1F
100
AcDbEntity
  8
0
  6
Continuous
 62
     7
370
    15
100
AcDbCircle
 10
280.1778664385
 20
67.385948801
 30
0.0
 40
21.08508539255462
100
AcDbArc
 50
144.9293729357
 51
179.0706270643
  0
ARC
  5
1B5
330
1F
100
AcDbEntity
  8
0
  6
Continuous
 62
     7
370
    15
100
AcDbCircle
 10
260.0954232657
 20
67.7117270065
 30
0.0
 40
1.000000000000039
100
AcDbArc
 50
179.0706270643
 51
216.9293729357
  0
ARC
  5
1B6
330
1F
100
AcDbEntity
  8
0
  6
Continuous
 62
     7
370
    15
100
AcDbCircle
 10
276.1509734564
 20
79.7794510381
 30
0.0
 40
21.08508539255465
100
AcDbArc
 50
216.9293729357
 51
251.0706270643
  0
ARC
  5
1B7
330
1F
100
AcDbEntity
  8
0
  6
Continuous
 62
     7
370
    15
100
AcDbCircle
 10
269.6353237422
 20
60.7805835974
 30
0.0
 40
0.9999999999999939
100
AcDbArc
 50
251.0706270643
 51
288.9293729357
  0
ARC
  5
1B8
330
1F
100
AcDbEntity
  8
0
  6
Continuous
 62
     7
370
    15
100
AcDbCircle
 10
263.1196740281
 20
104.7794510381
 30
0.0
 40
21.08508539255468
100
AcDbArc
 50
288.9293729357
 51
323.0706270643
  0
ARC
  5
1B9
330
1F
100
AcDbEntity
  8
0
  6
Continuous
 62
     7
370
    15
100
AcDbCircle
 10
279.1752242187
 20
92.7117270065
 30
0.0
 40
1.000000000000015
100
AcDbArc
 50
323.0706270643
 51
0.9293729357
  0
ARC
  5
1BA
330
1F
100
AcDbEntity
  8
0
  6
Continuous
 62
     7
370
    15
100
AcDbCircle
 10
259.0927810459
 20
92.385948801
 30
0.0
 40
21.08508539255462
100
AcDbArc
 50
0.9293729357
 51
35.0706270643
  0
ARC
  5
1BB
330
1F
100
AcDbEntity
  8
0
  6
Continuous
 62
     7
370
    15
100
AcDbCircle
 10
275.531306486
 20
103.9265526233
 30
0.0
 40
1.000000000000011
100
AcDbArc
 50
35.0706270643
 51
72.9293729357
  0
ARC
  5
1BC
330
1F
100
AcDbEntity
  8
0
  6
Continuous
 62
     7
370
    15
100
AcDbCircle
 10
269.6353237422
 20
84.7263431789
 30
0.0
 40
21.08508539255467
100
AcDbArc
 50
72.9293729357
 51
107.0706270643
  0
ARC
  5
1BD
330
1F
100
AcDbEntity
  8
0
  6
Continuous
 62
     7
370
    15
100
AcDbCircle
 10
263.7393409985
 20
103.9265526233
 30
0.0
 40
1.000000000000017
100
AcDbArc
 50
107.0706270643
 51
144.9293729357
  0
ARC
  5
1BE
330
1F
100
AcDbEntity
  8
0
  6
Continuous
 62
     7
370
    15
100
AcDbCircle
 10
280.1778664385
 20
92.385948801
 30
0.0
 40
21.08508539255463
100
AcDbArc
 50
144.9293729357
 51
179.0706270643
  0
ARC
  5
1BF
330
1F
100
AcDbEntity
  8
0
  6
Continuous
 62
     7
370
    15
100
AcDbCircle
 10
260.0954232657
 20
92.7117270065
 30
0.0
 40
1.000000000000006
100
AcDbArc
 50
179.0706270643
 51
216.9293729357
  0
ARC
  5
1C0
330
1F
100
AcDbEntity
  8
0
  6
Continuous
 62
     7
370
    15
100
AcDbCircle
 10
276.1509734564
 20
104.7794510381
 30
0.0
 40
21.08508539255466
100
AcDbArc
 50
216.9293729357
 51
251.0706270643
  0
ARC
  5
1C1
330
1F
100
AcDbEntity
  8
0
  6
Continuous
 62
     7
370
    15
100
AcDbCircle
 10
269.6353237422
 20
85.7805835974
 30
0.0
 40
1.000000000000014
100
AcDbArc
 50
251.0706270643
 51
288.9293729357
  0
ARC
  5
1C2
330
1F
100
AcDbEntity
  8
0
  6
Continuous
 62
     7
370
    15
100
AcDbCircle
 10
289.2874022443
 20
92.2794510381
 30
0.0
 40
21.08508539255465
100
AcDbArc
 50
288.9293729357
 51
323.0706270643
  0
ARC
  5
1C3
330
1F
100
AcDbEntity
  8
0
  6
Continuous
 62
     7
370
    15
100
AcDbCircle
 10
305.3429524349
 20
80.2117270065
 30
0.0
 40
1.000000000000015
100
AcDbArc
 50
323.0706270643
 51
0.9293729357
  0
ARC
  5
1C4
330
1F
100
AcDbEntity
  8
0
  6
Continuous
 62
     7
370
    15
100
AcDbCircle
 10
285.2605092622
 20
79.885948801
 30
0.0
 40
21.08508539255462
100
AcDbArc
 50
0.9293729357
 51
35.0706270643
  0
ARC
  5
1C5
330
1F
100
AcDbEntity
  8
0
  6
Continuous
 62
     7
370
    15
100
AcDbCircle
 10
301.6990347022
 20
91.4265526233
 30
0.0
 40
1.000000000000028
100
AcDbArc
 50
35.0706270643
 51
72.9293729357
  0
ARC
  5
1C6
330
1F
100
AcDbEntity
  8
0
  6
Continuous
 62
     7
370
    15
100
AcDbCircle
 10
295.8030519585
 20
72.2263431789
 30
0.0
 40
21.08508539255467
100
AcDbArc
 50
72.9293729357
 51
107.0706270643
  0
ARC
  5
1C7
330
1F
100
AcDbEntity
  8
0
  6
Continuous
 62
     7
370
    15
100
AcDbCircle
 10
289.9070692147
 20
91.4265526233
 30
0.0
 40
1.000000000000028
100
AcDbArc
 50
107.0706270643
 51
144.9293729357
  0
ARC
  5
1C8
330
1F
100
AcDbEntity
  8
0
  6
Continuous
 62
     7
370
    15
100
AcDbCircle
 10
306.3455946547
 20
79.885948801
 30
0.0
 40
21.08508539255467
100
AcDbArc
 50
144.9293729357
 51
179.0706270643
  0
ARC
  5
1C9
330
1F
100
AcDbEntity
  8
0
  6
Continuous
 62
     7
370
    15
100
AcDbCircle
 10
286.263151482
 20
80.2117270065
 30
0.0
 40
1.000000000000096
100
AcDbArc
 50
179.0706270643
 51
216.9293729357
  0
ARC
  5
1CA
330
1F
100
AcDbEntity
  8
0
  6
Continuous
 62
     7
370
    15
100
AcDbCircle
 10
302.3187016726
 20
92.2794510381
 30
0.0
 40
21.08508539255465
100
AcDbArc
 50
216.9293729357
 51
251.0706270643
  0
ARC
  5
1CB
330
1F
100
AcDbEntity
  8
0
  6
Continuous
 62
     7
370
    15
100
AcDbCircle
 10
295.8030519585
 20
73.2805835974
 30
0.0
 40
1.000000000000006
100
AcDbArc
 50
251.0706270643
 51
288.9293729357
  0
ARC
  5
1CC
330
1F
100
AcDbEntity
  8
0
  6
Continuous
 62
     7
370
    15
100
AcDbCircle
 10
289.2874022443
 20
67.2794510381
 30
0.0
 40
21.08508539255465
100
AcDbArc
 50
288.9293729357
 51
323.0706270643
  0
ARC
  5
1CD
330
1F
100
AcDbEntity
  8
0
  6
Continuous
 62
     7
370
    15
100
AcDbCircle
 10
305.3429524349
 20
55.2117270065
 30
0.0
 40
1.000000000000015
100
AcDbArc
 50
323.0706270643
 51
0.9293729357
  0
ARC
  5
1CE
330
1F
100
AcDbEntity
  8
0
  6
Continuous
 62
     7
370
    15
100
AcDbCircle
 10
285.2605092622
 20
54.885948801
 30
0.0
 40
21.08508539255462
100
AcDbArc
 50
0.9293729357
 51
35.0706270643
  0
ARC
  5
1CF
330
1F
100
AcDbEntity
  8
0
  6
Continuous
 62
     7
370
    15
100
AcDbCircle
 10
301.6990347022
 20
66.4265526233
 30
0.0
 40
1.000000000000014
100
AcDbArc
 50
35.0706270643
 51
72.9293729357
  0
ARC
  5
1D0
330
1F
100
AcDbEntity
  8
0
  6
Continuous
 62
     7
370
    15
100
AcDbCircle
 10
295.8030519585
 20
47.2263431789
 30
0.0
 40
21.08508539255467
100
AcDbArc
 50
72.9293729357
 51
107.0706270643
  0
ARC
  5
1D1
330
1F
100
AcDbEntity
  8
0
  6
Continuous
 62
     7
370
    15
100
AcDbCircle
 10
289.9070692147
 20
66.4265526233
 30
0.0
 40
1.000000000000014
100
AcDbArc
 50
107.0706270643
 51
144.9293729357
  0
ARC
  5
1D2
330
1F
100
AcDbEntity
  8
0
  6
Continuous
 62
     7
370
    15
100
AcDbCircle
 10
306.3455946547
 20
54.885948801
 30
0.0
 40
21.08508539255467
100
AcDbArc
 50
144.9293729357
 51
179.0706270643
  0
ARC
  5
1D3
330
1F
100
AcDbEntity
  8
0
  6
Continuous
 62
     7
370
    15
100
AcDbCircle
 10
286.263151482
 20
55.2117270065
 30
0.0
 40
1.000000000000096
100
AcDbArc
 50
179.0706270643
 51
216.9293729357
  0
ARC
  5
1D4
330
1F
100
AcDbEntity
  8
0
  6
Continuous
 62
     7
370
    15
100
AcDbCircle
 10
302.3187016726
 20
67.2794510381
 30
0.0
 40
21.08508539255465
100
AcDbArc
 50
216.9293729357
 51
251.0706270643
  0
ARC
  5
1D5
330
1F
100
AcDbEntity
  8
0
  6
Continuous
 62
     7
370
    15
100
AcDbCircle
 10
295.8030519585
 20
48.2805835974
 30
0.0
 40
1.000000000000012
100
AcDbArc
 50
251.0706270643
 51
288.9293729357
  0
ARC
  5
1D6
330
1F
100
AcDbEntity
  8
0
  6
Continuous
 62
     7
370
    15
100
AcDbCircle
 10
289.2874022443
 20
42.2794510381
 30
0.0
 40
21.08508539255472
100
AcDbArc
 50
288.9293729357
 51
323.0706270643
  0
ARC
  5
1D7
330
1F
100
AcDbEntity
  8
0
  6
Continuous
 62
     7
370
    15
100
AcDbCircle
 10
305.3429524349
 20
30.2117270065
 30
0.0
 40
1.000000000000015
100
AcDbArc
 50
323.0706270643
 51
0.9293729357
  0
ARC
  5
1D8
330
1F
100
AcDbEntity
  8
0
  6
Continuous
 62
     7
370
    15
100
AcDbCircle
 10
285.2605092622
 20
29.885948801
 30
0.0
 40
21.08508539255471
100
AcDbArc
 50
0.9293729357
 51
35.0706270643
  0
ARC
  5
1D9
330
1F
100
AcDbEntity
  8
0
  6
Continuous
 62
     7
370
    15
100
AcDbCircle
 10
301.6990347022
 20
41.4265526233
 30
0.0
 40
1.000000000000004
100
AcDbArc
 50
35.0706270643
 51
72.9293729357
  0
ARC
  5
1DA
330
1F
100
AcDbEntity
  8
0
  6
Continuous
 62
     7
370
    15
100
AcDbCircle
 10
295.8030519585
 20
22.2263431789
 30
0.0
 40
21.08508539255465
100
AcDbArc
 50
72.9293729357
 51
107.0706270643
  0
ARC
  5
1DB
330
1F
100
AcDbEntity
  8
0
  6
Continuous
 62
     7
370
    15
100
AcDbCircle
 10
289.9070692147
 20
41.4265526233
 30
0.0
 40
0.9999999999999806
100
AcDbArc
 50
107.0706270643
 51
144.9293729357
  0
ARC
  5
1DC
330
1F
100
AcDbEntity
  8
0
  6
Continuous
 62
     7
370
    15
100
AcDbCircle
 10
306.3455946547
 20
29.885948801
 30
0.0
 40
21.08508539255467
100
AcDbArc
 50
144.9293729357
 51
179.0706270643
  0
ARC
  5
1DD
330
1F
100
AcDbEntity
  8
0
  6
Continuous
 62
     7
370
    15
100
AcDbCircle
 10
286.263151482
 20
30.2117270065
 30
0.0
 40
1.00000000000001
100
AcDbArc
 50
179.0706270643
 51
216.9293729357
  0
ARC
  5
1DE
330
1F
100
AcDbEntity
  8
0
  6
Continuous
 62
     7
370
    15
100
AcDbCircle
 10
302.3187016726
 20
42.2794510381
 30
0.0
 40
21.08508539255467
100
AcDbArc
 50
216.9293729357
 51
251.0706270643
  0
ARC
  5
1DF
330
1F
100
AcDbEntity
  8
0
  6
Continuous
 62
     7
370
    15
100
AcDbCircle
 10
295.8030519585
 20
23.2805835974
 30
0.0
 40
1.000000000000022
100
AcDbArc
 50
251.0706270643
 51
288.9293729357
  0
ARC
  5
1E0
330
1F
100
AcDbEntity
  8
0
  6
Continuous
 62
     7
370
    15
100
AcDbCircle
 10
315.4551304606
 20
29.7794510381
 30
0.0
 40
21.08508539255466
100
AcDbArc
 50
288.9293729357
 51
323.0706270643
  0
ARC
  5
1E1
330
1F
100
AcDbEntity
  8
0
  6
Continuous
 62
     7
370
    15
100
AcDbCircle
 10
331.5106806512
 20
17.7117270065
 30
0.0
 40
1.000000000000039
100
AcDbArc
 50
323.0706270643
 51
0.9293729357
  0
ARC
  5
1E2
330
1F
100
AcDbEntity
  8
0
  6
Continuous
 62
     7
370
    15
100
AcDbCircle
 10
311.4282374785
 20
17.385948801
 30
0.0
 40
21.08508539255462
100
AcDbArc
 50
0.9293729357
 51
35.0706270643
  0
ARC
  5
1E3
330
1F
100
AcDbEntity
  8
0
  6
Continuous
 62
     7
370
    15
100
AcDbCircle
 10
327.8667629185
 20
28.9265526233
 30
0.0
 40
1.00000000000001
100
AcDbArc
 50
35.0706270643
 51
72.9293729357
  0
ARC
  5
1E4
330
1F
100
AcDbEntity
  8
0
  6
Continuous
 62
     7
370
    15
100
AcDbCircle
 10
321.9707801747
 20
9.7263431789
 30
0.0
 40
21.08508539255465
100
AcDbArc
 50
72.9293729357
 51
107.0706270643
  0
ARC
  5
1E5
330
1F
100
AcDbEntity
  8
0
  6
Continuous
 62
     7
370
    15
100
AcDbCircle
 10
316.074797431
 20
28.9265526233
 30
0.0
 40
1.000000000000013
100
AcDbArc
 50
107.0706270643
 51
144.9293729357
  0
ARC
  5
1E6
330
1F
100
AcDbEntity
  8
0
  6
Continuous
 62
     7
370
    15
100
AcDbCircle
 10
332.513322871
 20
17.385948801
 30
0.0
 40
21.08508539255467
100
AcDbArc
 50
144.9293729357
 51
179.0706270643
  0
ARC
  5
1E7
330
1F
100
AcDbEntity
  8
0
  6
Continuous
 62
     7
370
    15
100
AcDbCircle
 10
312.4308796982
 20
17.7117270065
 30
0.0
 40
1.000000000000039
100
AcDbArc
 50
179.0706270643
 51
216.9293729357
  0
ARC
  5
1E8
330
1F
100
AcDbEntity
  8
0
  6
Continuous
 62
     7
370
    15
100
AcDbCircle
 10
328.4864298889
 20
29.7794510381
 30
0.0
 40
21.08508539255466
100
AcDbArc
 50
216.9293729357
 51
251.0706270643
  0
ARC
  5
1E9
330
1F
100
AcDbEntity
  8
0
  6
Continuous
 62
     7
370
    15
100
AcDbCircle
 10
321.9707801747
 20
10.7805835974
 30
0.0
 40
1.000000000000004
100
AcDbArc
 50
251.0706270643
 51
288.9293729357
  0
ARC
  5
1EA
330
1F
100
AcDbEntity
  8
0
  6
Continuous
 62
     7
370
    15
100
AcDbCircle
 10
315.4551304606
 20
54.7794510381
 30
0.0
 40
21.08508539255472
100
AcDbArc
 50
288.9293729357
 51
323.0706270643
  0
ARC
  5
1EB
330
1F
100
AcDbEntity
  8
0
  6
Continuous
 62
     7
370
    15
100
AcDbCircle
 10
331.5106806512
 20
42.7117270065
 30
0.0
 40
1.000000000000015
100
AcDbArc
 50
323.0706270643
 51
0.9293729357
  0
ARC
  5
1EC
330
1F
100
AcDbEntity
  8
0
  6
Continuous
 62
     7
370
    15
100
AcDbCircle
 10
311.4282374785
 20
42.385948801
 30
0.0
 40
21.08508539255467
100
AcDbArc
 50
0.9293729357
 51
35.0706270643
  0
ARC
  5
1ED
330
1F
100
AcDbEntity
  8
0
  6
Continuous
 62
     7
370
    15
100
AcDbCircle
 10
327.8667629185
 20
53.9265526233
 30
0.0
 40
1.0
100
AcDbArc
 50
35.0706270643
 51
72.9293729357
  0
ARC
  5
1EE
330
1F
100
AcDbEntity
  8
0
  6
Continuous
 62
     7
370
    15
100
AcDbCircle
 10
321.9707801747
 20
34.7263431789
 30
0.0
 40
21.08508539255464
100
AcDbArc
 50
72.9293729357
 51
107.0706270643
  0
ARC
  5
1EF
330
1F
100
AcDbEntity
  8
0
  6
Continuous
 62
     7
370
    15
100
AcDbCircle
 10
316.074797431
 20
53.9265526233
 30
0.0
 40
1.000000000000013
100
AcDbArc
 50
107.0706270643
 51
144.9293729357
  0
ARC
  5
1F0
330
1F
100
AcDbEntity
  8
0
  6
Continuous
 62
     7
370
    15
100
AcDbCircle
 10
332.513322871
 20
42.385948801
 30
0.0
 40
21.08508539255472
100
AcDbArc
 50
144.9293729357
 51
179.0706270643
  0
ARC
  5
1F1
330
1F
100
AcDbEntity
  8
0
  6
Continuous
 62
     7
370
    15
100
AcDbCircle
 10
312.4308796982
 20
42.7117270065
 30
0.0
 40
1.00000000000001
100
AcDbArc
 50
179.0706270643
 51
216.9293729357
  0
ARC
  5
1F2
330
1F
100
AcDbEntity
  8
0
  6
Continuous
 62
     7
370
    15
100
AcDbCircle
 10
328.4864298889
 20
54.7794510381
 30
0.0
 40
21.08508539255471
100
AcDbArc
 50
216.9293729357
 51
251.0706270643
  0
ARC
  5
1F3
330
1F
100
AcDbEntity
  8
0
  6
Continuous
 62
     7
370
    15
100
AcDbCircle
 10
321.9707801747
 20
35.7805835974
 30
0.0
 40
1.000000000000007
100
AcDbArc
 50
251.0706270643
 51
288.9293729357
  0
ARC
  5
1F4
330
1F
100
AcDbEntity
  8
0
  6
Continuous
 62
     7
370
    15
100
AcDbCircle
 10
315.4551304606
 20
79.7794510381
 30
0.0
 40
21.08508539255472
100
AcDbArc
 50
288.9293729357
 51
323.0706270643
  0
ARC
  5
1F5
330
1F
100
AcDbEntity
  8
0
  6
Continuous
 62
     7
370
    15
100
AcDbCircle
 10
331.5106806512
 20
67.7117270065
 30
0.0
 40
1.000000000000015
100
AcDbArc
 50
323.0706270643
 51
0.9293729357
  0
ARC
  5
1F6
330
1F
100
AcDbEntity
  8
0
  6
Continuous
 62
     7
370
    15
100
AcDbCircle
 10
311.4282374785
 20
67.385948801
 30
0.0
 40
21.08508539255467
100
AcDbArc
 50
0.9293729357
 51
35.0706270643
  0
ARC
  5
1F7
330
1F
100
AcDbEntity
  8
0
  6
Continuous
 62
     7
370
    15
100
AcDbCircle
 10
327.8667629185
 20
78.9265526233
 30
0.0
 40
1.0
100
AcDbArc
 50
35.0706270643
 51
72.9293729357
  0
ARC
  5
1F8
330
1F
100
AcDbEntity
  8
0
  6
Continuous
 62
     7
370
    15
100
AcDbCircle
 10
321.9707801747
 20
59.7263431789
 30
0.0
 40
21.08508539255462
100
AcDbArc
 50
72.9293729357
 51
107.0706270643
  0
ARC
  5
1F9
330
1F
100
AcDbEntity
  8
0
  6
Continuous
 62
     7
370
    15
100
AcDbCircle
 10
316.074797431
 20
78.9265526233
 30
0.0
 40
1.000000000000017
100
AcDbArc
 50
107.0706270643
 51
144.9293729357
  0
ARC
  5
1FA
330
1F
100
AcDbEntity
  8
0
  6
Continuous
 62
     7
370
    15
100
AcDbCircle
 10
332.513322871
 20
67.385948801
 30
0.0
 40
21.08508539255472
100
AcDbArc
 50
144.9293729357
 51
179.0706270643
  0
ARC
  5
1FB
330
1F
100
AcDbEntity
  8
0
  6
Continuous
 62
     7
370
    15
100
AcDbCircle
 10
312.4308796982
 20
67.7117270065
 30
0.0
 40
1.000000000000015
100
AcDbArc
 50
179.0706270643
 51
216.9293729357
  0
ARC
  5
1FC
330
1F
100
AcDbEntity
  8
0
  6
Continuous
 62
     7
370
    15
100
AcDbCircle
 10
328.4864298889
 20
79.7794510381
 30
0.0
 40
21.08508539255472
100
AcDbArc
 50
216.9293729357
 51
251.0706270643
  0
ARC
  5
1FD
330
1F
100
AcDbEntity
  8
0
  6
Continuous
 62
     7
370
    15
100
AcDbCircle
 10
321.9707801747
 20
60.7805835974
 30
0.0
 40
0.9999999999999939
100
AcDbArc
 50
251.0706270643
 51
288.9293729357
  0
ARC
  5
1FE
330
1F
100
AcDbEntity
  8
0
  6
Continuous
 62
     7
370
    15
100
AcDbCircle
 10
315.4551304606
 20
104.7794510381
 30
0.0
 40
21.08508539255472
100
AcDbArc
 50
288.9293729357
 51
323.0706270643
  0
ARC
  5
1FF
330
1F
100
AcDbEntity
  8
0
  6
Continuous
 62
     7
370
    15
100
AcDbCircle
 10
331.5106806512
 20
92.7117270065
 30
0.0
 40
1.000000000000015
100
AcDbArc
 50
323.0706270643
 51
0.9293729357
  0
ARC
  5
200
330
1F
100
AcDbEntity
  8
0
  6
Continuous
 62
     7
370
    15
100
AcDbCircle
 10
311.4282374785
 20
92.385948801
 30
0.0
 40
21.08508539255467
100
AcDbArc
 50
0.9293729357
 51
35.0706270643
  0
ARC
  5
201
330
1F
100
AcDbEntity
  8
0
  6
Continuous
 62
     7
370
    15
100
AcDbCircle
 10
327.8667629185
 20
103.9265526233
 30
0.0
 40
1.0
100
AcDbArc
 50
35.0706270643
 51
72.9293729357
  0
ARC
  5
202
330
1F
100
AcDbEntity
  8
0
  6
Continuous
 62
     7
370
    15
100
AcDbCircle
 10
321.9707801747
 20
84.7263431789
 30
0.0
 40
21.08508539255465
100
AcDbArc
 50
72.9293729357
 51
107.0706270643
  0
ARC
  5
203
330
1F
100
AcDbEntity
  8
0
  6
Continuous
 62
     7
370
    15
100
AcDbCircle
 10
316.074797431
 20
103.9265526233
 30
0.0
 40
1.000000000000017
100
AcDbArc
 50
107.0706270643
 51
144.9293729357
  0
ARC
  5
204
330
1F
100
AcDbEntity
  8
0
  6
Continuous
 62
     7
370
    15
100
AcDbCircle
 10
332.513322871
 20
92.385948801
 30
0.0
 40
21.08508539255473
100
AcDbArc
 50
144.9293729357
 51
179.0706270643
  0
ARC
  5
205
330
1F
100
AcDbEntity
  8
0
  6
Continuous
 62
     7
370
    15
100
AcDbCircle
 10
312.4308796982
 20
92.7117270065
 30
0.0
 40
1.000000000000006
100
AcDbArc
 50
179.0706270643
 51
216.9293729357
  0
ARC
  5
206
330
1F
100
AcDbEntity
  8
0
  6
Continuous
 62
     7
370
    15
100
AcDbCircle
 10
328.4864298889
 20
104.7794510381
 30
0.0
 40
21.0850853925547
100
AcDbArc
 50
216.9293729357
 51
251.0706270643
  0
ARC
  5
207
330
1F
100
AcDbEntity
  8
0
  6
Continuous
 62
     7
370
    15
100
AcDbCircle
 10
321.9707801747
 20
85.7805835974
 30
0.0
 40
1.000000000000001
100
AcDbArc
 50
251.0706270643
 51
288.9293729357
  0
ARC
  5
208
330
1F
100
AcDbEntity
  8
0
  6
Continuous
 62
     7
370
    15
100
AcDbCircle
 10
28.8788688124
 20
54.7794510381
 30
0.0
 40
21.08508539255466
100
AcDbArc
 50
288.9293729357
 51
323.0706270643
  0
ARC
  5
209
330
1F
100
AcDbEntity
  8
0
  6
Continuous
 62
     7
370
    15
100
AcDbCircle
 10
44.9344190031
 20
42.7117270065
 30
0.0
 40
1.000000000000009
100
AcDbArc
 50
323.0706270643
 51
0.9293729357
  0
ARC
  5
20A
330
1F
100
AcDbEntity
  8
0
  6
Continuous
 62
     7
370
    15
100
AcDbCircle
 10
24.8519758303
 20
42.385948801
 30
0.0
 40
21.08508539255464
100
AcDbArc
 50
0.9293729357
 51
35.0706270643
  0
ARC
  5
20B
330
1F
100
AcDbEntity
  8
0
  6
Continuous
 62
     7
370
    15
100
AcDbCircle
 10
41.2905012703
 20
53.9265526233
 30
0.0
 40
0.9999999999999905
100
AcDbArc
 50
35.0706270643
 51
72.9293729357
  0
ARC
  5
20C
330
1F
100
AcDbEntity
  8
0
  6
Continuous
 62
     7
370
    15
100
AcDbCircle
 10
35.3945185266
 20
34.7263431789
 30
0.0
 40
21.08508539255465
100
AcDbArc
 50
72.9293729357
 51
107.0706270643
  0
ARC
  5
20D
330
1F
100
AcDbEntity
  8
0
  6
Continuous
 62
     7
370
    15
100
AcDbCircle
 10
29.4985357828
 20
53.9265526233
 30
0.0
 40
1.000000000000004
100
AcDbArc
 50
107.0706270643
 51
144.9293729357
  0
ARC
  5
20E
330
1F
100
AcDbEntity
  8
0
  6
Continuous
 62
     7
370
    15
100
AcDbCircle
 10
45.9370612228
 20
42.385948801
 30
0.0
 40
21.08508539255467
100
AcDbArc
 50
144.9293729357
 51
179.0706270643
  0
ARC
  5
20F
330
1F
100
AcDbEntity
  8
0
  6
Continuous
 62
     7
370
    15
100
AcDbCircle
 10
25.8546180501
 20
42.7117270065
 30
0.0
 40
1.000000000000008
100
AcDbArc
 50
179.0706270643
 51
216.9293729357
  0
ARC
  5
210
330
1F
100
AcDbEntity
  8
0
  6
Continuous
 62
     7
370
    15
100
AcDbCircle
 10
41.9101682407
 20
54.7794510381
 30
0.0
 40
21.08508539255466
100
AcDbArc
 50
216.9293729357
 51
251.0706270643
  0
ARC
  5
211
330
1F
100
AcDbEntity
  8
0
  6
Continuous
 62
     7
370
    15
100
AcDbCircle
 10
35.3945185266
 20
35.7805835974
 30
0.0
 40
1.000000000000005
100
AcDbArc
 50
251.0706270643
 51
288.9293729357
  0
ARC
  5
212
330
1F
100
AcDbEntity
  8
0
  6
Continuous
 62
     7
370
    15
100
AcDbCircle
 10
28.8788688124
 20
29.7794510381
 30
0.0
 40
21.08508539255466
100
AcDbArc
 50
288.9293729357
 51
323.0706270643
  0
ARC
  5
213
330
1F
100
AcDbEntity
  8
0
  6
Continuous
 62
     7
370
    15
100
AcDbCircle
 10
44.9344190031
 20
17.7117270065
 30
0.0
 40
1.000000000000009
100
AcDbArc
 50
323.0706270643
 51
0.9293729357
  0
ARC
  5
214
330
1F
100
AcDbEntity
  8
0
  6
Continuous
 62
     7
370
    15
100
AcDbCircle
 10
24.8519758303
 20
17.385948801
 30
0.0
 40
21.08508539255464
100
AcDbArc
 50
0.9293729357
 51
35.0706270643
  0
ARC
  5
215
330
1F
100
AcDbEntity
  8
0
  6
Continuous
 62
     7
370
    15
100
AcDbCircle
 10
41.2905012703
 20
28.9265526233
 30
0.0
 40
0.9999999999999939
100
AcDbArc
 50
35.0706270643
 51
72.9293729357
  0
ARC
  5
216
330
1F
100
AcDbEntity
  8
0
  6
Continuous
 62
     7
370
    15
100
AcDbCircle
 10
35.3945185266
 20
9.7263431789
 30
0.0
 40
21.08508539255465
100
AcDbArc
 50
72.9293729357
 51
107.0706270643
  0
ARC
  5
217
330
1F
100
AcDbEntity
  8
0
  6
Continuous
 62
     7
370
    15
100
AcDbCircle
 10
29.4985357828
 20
28.9265526233
 30
0.0
 40
1.000000000000006
100
AcDbArc
 50
107.0706270643
 51
144.9293729357
  0
ARC
  5
218
330
1F
100
AcDbEntity
  8
0
  6
Continuous
 62
     7
370
    15
100
AcDbCircle
 10
45.9370612228
 20
17.385948801
 30
0.0
 40
21.08508539255467
100
AcDbArc
 50
144.9293729357
 51
179.0706270643
  0
ARC
  5
219
330
1F
100
AcDbEntity
  8
0
  6
Continuous
 62
     7
370
    15
100
AcDbCircle
 10
25.8546180501
 20
17.7117270065
 30
0.0
 40
1.000000000000008
100
AcDbArc
 50
179.0706270643
 51
216.9293729357
  0
ARC
  5
21A
330
1F
100
AcDbEntity
  8
0
  6
Continuous
 62
     7
370
    15
100
AcDbCircle
 10
41.9101682407
 20
29.7794510381
 30
0.0
 40
21.08508539255466
100
AcDbArc
 50
216.9293729357
 51
251.0706270643
  0
ARC
  5
21B
330
1F
100
AcDbEntity
  8
0
  6
Continuous
 62
     7
370
    15
100
AcDbCircle
 10
35.3945185266
 20
10.7805835974
 30
0.0
 40
1.00000000000001
100
AcDbArc
 50
251.0706270643
 51
288.9293729357
  0
ARC
  5
21C
330
1F
100
AcDbEntity
  8
0
  6
Continuous
 62
     7
370
    15
100
AcDbCircle
 10
185.2361563497
 20
91.4265526233
 30
0.0
 40
1.000000000000011
100
AcDbArc
 50
107.0706270643
 51
144.9293729357
  0
LINE
  5
21D
330
1F
100
AcDbEntity
  8
0
  6
Continuous
 62
     7
370
    15
100
AcDbLine
 10
350.6826551919
 20
108.3114293165
 30
0.0
 11
6.6826435094
 21
108.3114293165
 31
0.0
  0
LINE
  5
21E
330
1F
100
AcDbEntity
  8
0
  6
Continuous
 62
     7
370
    15
100
AcDbLine
 10
6.6826435094
 20
108.3114293165
 30
0.0
 11
6.6826435094
 21
8.3114278264
 31
0.0
  0
ARC
  5
21F
330
1F
100
AcDbEntity
  8
0
  6
Continuous
 62
     7
370
    15
100
AcDbCircle
 10
35.3945185266
 20
70.8114285714
 30
0.0
 40
10.0000000000003
100
AcDbArc
 50
64.5659393302
 51
115.4340606698
  0
ARC
  5
220
330
1F
100
AcDbEntity
  8
0
  6
Continuous
 62
     7
370
    15
100
AcDbCircle
 10
35.3945185266
 20
70.8114285714
 30
0.0
 40
10.0000000000003
100
AcDbArc
 50
144.7473558028
 51
174.1481195412
  0
ENDSEC
  0
SECTION
  2
OBJECTS
  0
DICTIONARY
  5
C
330
0
100
AcDbDictionary
281
     1
  3
ACAD_GROUP
350
D
  3
ACAD_LAYOUT
350
1A
  3
ACAD_MLINESTYLE
350
17
  3
ACAD_PLOTSETTINGS
350
19
  3
ACAD_PLOTSTYLENAME
350
E
  3
ACAD_SCALELIST
350
47
  0
DICTIONARY
  5
D
102
{ACAD_REACTORS
330
C
102
}
330
C
100
AcDbDictionary
281
     1
  0
DICTIONARY
  5
1A
102
{ACAD_REACTORS
330
C
102
}
330
C
100
AcDbDictionary
281
     1
  3
Layout1
350
1E
  3
Layout2
350
26
  3
Model
350
22
  0
DICTIONARY
  5
17
102
{ACAD_REACTORS
330
C
102
}
330
C
100
AcDbDictionary
281
     1
  3
Standard
350
18
  0
DICTIONARY
  5
19
102
{ACAD_REACTORS
330
C
102
}
330
C
100
AcDbDictionary
281
     1
  0
ACDBDICTIONARYWDFLT
  5
E
102
{ACAD_REACTORS
330
C
102
}
330
C
100
AcDbDictionary
281
     1
  3
Normal
350
F
100
AcDbDictionaryWithDefault
340
F
  0
DICTIONARY
  5
47
102
{ACAD_REACTORS
330
C
102
}
330
C
100
AcDbDictionary
281
     1
  3
A0
350
48
  3
A1
350
49
  3
A2
350
4A
  3
A3
350
4B
  3
A4
350
4C
  3
A5
350
4D
  3
A6
350
4E
  3
A7
350
4F
  3
A8
350
50
  3
A9
350
51
  3
B0
350
52
  3
B1
350
53
  3
B2
350
54
  3
B3
350
55
  3
B4
350
56
  3
B5
350
57
  3
B6
350
58
  3
B7
350
59
  3
B8
350
5A
  3
B9
350
5B
  3
C0
350
5C
  3
C1
350
5D
  3
C2
350
5E
  3
C3
350
5F
  3
C4
350
60
  3
C5
350
61
  3
C6
350
62
  3
C7
350
63
  3
C8
350
64
  3
C9
350
65
  3
D0
350
66
  3
D1
350
67
  3
D2
350
68
  0
LAYOUT
  5
1E
102
{ACAD_REACTORS
330
1A
102
}
330
1A
100
AcDbPlotSettings
  1

  2
none_device
  4

  6

 40
0.0
 41
0.0
 42
0.0
 43
0.0
 44
0.0
 45
0.0
 46
0.0
 47
0.0
 48
0.0
 49
0.0
140
0.0
141
0.0
142
1.0
143
1.0
 70
   688
 72
     1
 73
     0
 74
     5
  7

 75
    16
147
1.0
148
0.0
149
0.0
100
AcDbLayout
  1
Layout1
 70
     1
 71
     1
 10
0.0
 20
0.0
 11
420.0
 21
297.0
 12
0.0
 22
0.0
 32
0.0
 14
1.0000000000E+20
 24
1.0000000000E+20
 34
1.0000000000E+20
 15
-1.0000000000E+20
 25
-1.0000000000E+20
 35
-1.0000000000E+20
146
0.0
 13
0.0
 23
0.0
 33
0.0
 16
1.0
 26
0.0
 36
0.0
 17
0.0
 27
1.0
 37
0.0
 76
     0
330
1B
  0
LAYOUT
  5
26
102
{ACAD_REACTORS
330
1A
102
}
330
1A
100
AcDbPlotSettings
  1

  2
none_device
  4

  6

 40
0.0
 41
0.0
 42
0.0
 43
0.0
 44
0.0
 45
0.0
 46
0.0
 47
0.0
 48
0.0
 49
0.0
140
0.0
141
0.0
142
1.0
143
1.0
 70
   688
 72
     1
 73
     0
 74
     5
  7

 75
    16
147
1.0
148
0.0
149
0.0
100
AcDbLayout
  1
Layout2
 70
     1
 71
     2
 10
0.0
 20
0.0
 11
0.0
 21
0.0
 12
0.0
 22
0.0
 32
0.0
 14
0.0
 24
0.0
 34
0.0
 15
0.0
 25
0.0
 35
0.0
146
0.0
 13
0.0
 23
0.0
 33
0.0
 16
1.0
 26
0.0
 36
0.0
 17
0.0
 27
1.0
 37
0.0
 76
     0
330
23
  0
LAYOUT
  5
22
102
{ACAD_REACTORS
330
1A
102
}
330
1A
100
AcDbPlotSettings
  1

  2
none_device
  4
Letter_(8.50_x_11.00_Inches)
  6

 40
6.35
 41
6.35
 42
6.35000508
 43
6.35000508
 44
215.9
 45
279.4
 46
0.0
 47
0.0
 48
0.0
 49
0.0
140
0.0
141
0.0
142
1.0
143
1.0
 70
  1712
 72
     1
 73
     0
 74
     0
  7

 75
     0
147
1.0
148
0.0
149
0.0
100
AcDbLayout
  1
Model
 70
     1
 71
     0
 10
0.0
 20
0.0
 11
594.0
 21
420.0
 12
0.0
 22
0.0
 32
0.0
 14
0.0
 24
0.0
 34
0.0
 15
594.0
 25
420.0
 35
0.0
146
0.0
 13
0.0
 23
0.0
 33
0.0
 16
1.0
 26
0.0
 36
0.0
 17
0.0
 27
1.0
 37
0.0
 76
     0
330
1F
331
29
  0
MLINESTYLE
  5
18
102
{ACAD_REACTORS
330
17
102
}
330
17
100
AcDbMlineStyle
  2
Standard
 70
     0
  3

 62
   256
 51
90.0
 52
90.0
 71
     2
 49
0.5
 62
   256
  6
BYLAYER
 49
-0.5
 62
   256
  6
BYLAYER
  0
ACDBPLACEHOLDER
  5
F
102
{ACAD_REACTORS
330
E
102
}
330
E
  0
SCALE
  5
48
102
{ACAD_REACTORS
330
47
102
}
330
47
100
AcDbScale
 70
     0
300
1:1
140
1.0
141
1.0
290
     1
  0
SCALE
  5
49
102
{ACAD_REACTORS
330
47
102
}
330
47
100
AcDbScale
 70
     0
300
1:2
140
1.0
141
2.0
290
     0
  0
SCALE
  5
4A
102
{ACAD_REACTORS
330
47
102
}
330
47
100
AcDbScale
 70
     0
300
1:4
140
1.0
141
4.0
290
     0
  0
SCALE
  5
4B
102
{ACAD_REACTORS
330
47
102
}
330
47
100
AcDbScale
 70
     0
300
1:5
140
1.0
141
5.0
290
     0
  0
SCALE
  5
4C
102
{ACAD_REACTORS
330
47
102
}
330
47
100
AcDbScale
 70
     0
300
1:8
140
1.0
141
8.0
290
     0
  0
SCALE
  5
4D
102
{ACAD_REACTORS
330
47
102
}
330
47
100
AcDbScale
 70
     0
300
1:10
140
1.0
141
10.0
290
     0
  0
SCALE
  5
4E
102
{ACAD_REACTORS
330
47
102
}
330
47
100
AcDbScale
 70
     0
300
1:16
140
1.0
141
16.0
290
     0
  0
SCALE
  5
4F
102
{ACAD_REACTORS
330
47
102
}
330
47
100
AcDbScale
 70
     0
300
1:20
140
1.0
141
20.0
290
     0
  0
SCALE
  5
50
102
{ACAD_REACTORS
330
47
102
}
330
47
100
AcDbScale
 70
     0
300
1:30
140
1.0
141
30.0
290
     0
  0
SCALE
  5
51
102
{ACAD_REACTORS
330
47
102
}
330
47
100
AcDbScale
 70
     0
300
1:40
140
1.0
141
40.0
290
     0
  0
SCALE
  5
52
102
{ACAD_REACTORS
330
47
102
}
330
47
100
AcDbScale
 70
     0
300
1:50
140
1.0
141
50.0
290
     0
  0
SCALE
  5
53
102
{ACAD_REACTORS
330
47
102
}
330
47
100
AcDbScale
 70
     0
300
1:100
140
1.0
141
100.0
290
     0
  0
SCALE
  5
54
102
{ACAD_REACTORS
330
47
102
}
330
47
100
AcDbScale
 70
     0
300
2:1
140
2.0
141
1.0
290
     0
  0
SCALE
  5
55
102
{ACAD_REACTORS
330
47
102
}
330
47
100
AcDbScale
 70
     0
300
4:1
140
4.0
141
1.0
290
     0
  0
SCALE
  5
56
102
{ACAD_REACTORS
330
47
102
}
330
47
100
AcDbScale
 70
     0
300
8:1
140
8.0
141
1.0
290
     0
  0
SCALE
  5
57
102
{ACAD_REACTORS
330
47
102
}
330
47
100
AcDbScale
 70
     0
300
10:1
140
10.0
141
1.0
290
     0
  0
SCALE
  5
58
102
{ACAD_REACTORS
330
47
102
}
330
47
100
AcDbScale
 70
     0
300
100:1
140
100.0
141
1.0
290
     0
  0
SCALE
  5
59
102
{ACAD_REACTORS
330
47
102
}
330
47
100
AcDbScale
 70
     0
300
1/128" = 1'-0"
140
0.0078125
141
12.0
290
     0
  0
SCALE
  5
5A
102
{ACAD_REACTORS
330
47
102
}
330
47
100
AcDbScale
 70
     0
300
1/64" = 1'-0"
140
0.015625
141
12.0
290
     0
  0
SCALE
  5
5B
102
{ACAD_REACTORS
330
47
102
}
330
47
100
AcDbScale
 70
     0
300
1/32" = 1'-0"
140
0.03125
141
12.0
290
     0
  0
SCALE
  5
5C
102
{ACAD_REACTORS
330
47
102
}
330
47
100
AcDbScale
 70
     0
300
1/16" = 1'-0"
140
0.0625
141
12.0
290
     0
  0
SCALE
  5
5D
102
{ACAD_REACTORS
330
47
102
}
330
47
100
AcDbScale
 70
     0
300
3/32" = 1'-0"
140
0.09375
141
12.0
290
     0
  0
SCALE
  5
5E
102
{ACAD_REACTORS
330
47
102
}
330
47
100
AcDbScale
 70
     0
300
1/8" = 1'-0"
140
0.125
141
12.0
290
     0
  0
SCALE
  5
5F
102
{ACAD_REACTORS
330
47
102
}
330
47
100
AcDbScale
 70
     0
300
3/16" = 1'-0"
140
0.1875
141
12.0
290
     0
  0
SCALE
  5
60
102
{ACAD_REACTORS
330
47
102
}
330
47
100
AcDbScale
 70
     0
300
1/4" = 1'-0"
140
0.25
141
12.0
290
     0
  0
SCALE
  5
61
102
{ACAD_REACTORS
330
47
102
}
330
47
100
AcDbScale
 70
     0
300
3/8" = 1'-0"
140
0.375
141
12.0
290
     0
  0
SCALE
  5
62
102
{ACAD_REACTORS
330
47
102
}
330
47
100
AcDbScale
 70
     0
300
1/2" = 1'-0"
140
0.5
141
12.0
290
     0
  0
SCALE
  5
63
102
{ACAD_REACTORS
330
47
102
}
330
47
100
AcDbScale
 70
     0
300
3/4" = 1'-0"
140
0.75
141
12.0
290
     0
  0
SCALE
  5
64
102
{ACAD_REACTORS
330
47
102
}
330
47
100
AcDbScale
 70
     0
300
1" = 1'-0"
140
1.0
141
12.0
290
     0
  0
SCALE
  5
65
102
{ACAD_REACTORS
330
47
102
}
330
47
100
AcDbScale
 70
     0
300
1-1/2" = 1'-0"
140
1.5
141
12.0
290
     0
  0
SCALE
  5
66
102
{ACAD_REACTORS
330
47
102
}
330
47
100
AcDbScale
 70
     0
300
3" = 1'-0"
140
3.0
141
12.0
290
     0
  0
SCALE
  5
67
102
{ACAD_REACTORS
330
47
102
}
330
47
100
AcDbScale
 70
     0
300
6" = 1'-0"
140
6.0
141
12.0
290
     0
  0
SCALE
  5
68
102
{ACAD_REACTORS
330
47
102
}
330
47
100
AcDbScale
 70
     0
300
1'-0" = 1'-0"
140
12.0
141
12.0
290
     0
  0
ENDSEC
  0
EOF
