  0
SECTION
  2
HEADER
  9
$ACADVER
  1
AC1015
  9
$ACADMAINTVER
 70
     6
  9
$DWGCODEPAGE
  3
ANSI_1252
  9
$INSBASE
 10
0.0
 20
0.0
 30
0.0
  9
$EXTMIN
 10
0.0
 20
0.0
 30
0.0
  9
$EXTMAX
 10
594.0
 20
420.0
 30
0.0
  9
$LIMMIN
 10
0.0
 20
0.0
  9
$LIMMAX
 10
594.0
 20
420.0
  9
$ORTHOMODE
 70
     0
  9
$REGENMODE
 70
     1
  9
$FILLMODE
 70
     1
  9
$QTEXTMODE
 70
     0
  9
$MIRRTEXT
 70
     1
  9
$LTSCALE
 40
1.0
  9
$ATTMODE
 70
     1
  9
$TEXTSIZE
 40
3.5
  9
$TRACEWID
 40
1.0
  9
$TEXTSTYLE
  7
Standard
  9
$CLAYER
  8
0
  9
$CELTYPE
  6
ByLayer
  9
$CECOLOR
 62
   256
  9
$CELTSCALE
 40
1.0
  9
$DISPSILH
 70
     0
  9
$DIMSCALE
 40
1.0
  9
$DIMASZ
 40
3.556
  9
$DIMEXO
 40
1.0
  9
$DIMDLI
 40
3.75
  9
$DIMRND
 40
0.0
  9
$DIMDLE
 40
0.0
  9
$DIMEXE
 40
1.0
  9
$DIMTP
 40
0.0
  9
$DIMTM
 40
0.0
  9
$DIMTXT
 40
3.5
  9
$DIMCEN
 40
2.5
  9
$DIMTSZ
 40
0.0
  9
$DIMTOL
 70
     0
  9
$DIMLIM
 70
     0
  9
$DIMTIH
 70
     1
  9
$DIMTOH
 70
     1
  9
$DIMSE1
 70
     0
  9
$DIMSE2
 70
     0
  9
$DIMTAD
 70
     1
  9
$DIMZIN
 70
     0
  9
$DIMBLK
  1

  9
$DIMASO
 70
     1
  9
$DIMSHO
 70
     1
  9
$DIMPOST
  1

  9
$DIMAPOST
  1

  9
$DIMALT
 70
     0
  9
$DIMALTD
 70
     3
  9
$DIMALTF
 40
0.0393700787
  9
$DIMLFAC
 40
1.0
  9
$DIMTOFL
 70
     1
  9
$DIMTVP
 40
0.0
  9
$DIMTIX
 70
     0
  9
$DIMSOXD
 70
     0
  9
$DIMSAH
 70
     0
  9
$DIMBLK1
  1

  9
$DIMBLK2
  1

  9
$DIMSTYLE
  2
ISO-25
  9
$DIMCLRD
 70
     0
  9
$DIMCLRE
 70
     0
  9
$DIMCLRT
 70
     0
  9
$DIMTFAC
 40
1.0
  9
$DIMGAP
 40
1.524
  9
$DIMJUST
 70
     0
  9
$DIMSD1
 70
     0
  9
$DIMSD2
 70
     0
  9
$DIMTOLJ
 70
     0
  9
$DIMTZIN
 70
     0
  9
$DIMALTZ
 70
     0
  9
$DIMALTTZ
 70
     0
  9
$DIMUPT
 70
     0
  9
$DIMDEC
 70
     2
  9
$DIMTDEC
 70
     2
  9
$DIMALTU
 70
     2
  9
$DIMALTTD
 70
     3
  9
$DIMTXSTY
  7
Standard
  9
$DIMAUNIT
 70
     0
  9
$DIMADEC
 70
     2
  9
$DIMALTRND
 40
0.0
  9
$DIMAZIN
 70
     0
  9
$DIMDSEP
 70
    44
  9
$DIMATFIT
 70
     3
  9
$DIMFRAC
 70
     0
  9
$DIMLDRBLK
  1

  9
$DIMLUNIT
 70
     2
  9
$DIMLWD
 70
    -2
  9
$DIMLWE
 70
    -2
  9
$DIMTMOVE
 70
     0
  9
$LUNITS
 70
     2
  9
$LUPREC
 70
     5
  9
$SKETCHINC
 40
1.0
  9
$FILLETRAD
 40
10.0
  9
$AUNITS
 70
     0
  9
$AUPREC
 70
     2
  9
$MENU
  1
.
  9
$ELEVATION
 40
0.0
  9
$PELEVATION
 40
0.0
  9
$THICKNESS
 40
0.0
  9
$LIMCHECK
 70
     0
  9
$CHAMFERA
 40
0.0
  9
$CHAMFERB
 40
0.0
  9
$CHAMFERC
 40
0.0
  9
$CHAMFERD
 40
0.0
  9
$SKPOLY
 70
     0
  9
$TDCREATE
 40
2457821.844675857
  9
$TDUCREATE
 40
2457821.844675857
  9
$TDUPDATE
 40
2457821.844676482
  9
$TDUUPDATE
 40
2457821.844676482
  9
$TDINDWG
 40
0.0000000116
  9
$TDUSRTIMER
 40
0.0000000116
  9
$USRTIMER
 70
     1
  9
$ANGBASE
 50
0.0
  9
$ANGDIR
 70
     0
  9
$PDMODE
 70
     0
  9
$PDSIZE
 40
-1.0
  9
$PLINEWID
 40
0.0
  9
$SPLFRAME
 70
     0
  9
$SPLINETYPE
 70
     6
  9
$SPLINESEGS
 70
     8
  9
$HANDSEED
  5
310
  9
$SURFTAB1
 70
     6
  9
$SURFTAB2
 70
     6
  9
$SURFTYPE
 70
     6
  9
$SURFU
 70
     6
  9
$SURFV
 70
     6
  9
$UCSBASE
  2

  9
$UCSNAME
  2

  9
$UCSORG
 10
0.0
 20
0.0
 30
0.0
  9
$UCSXDIR
 10
1.0
 20
0.0
 30
0.0
  9
$UCSYDIR
 10
0.0
 20
1.0
 30
0.0
  9
$UCSORTHOREF
  2

  9
$UCSORTHOVIEW
 70
     0
  9
$UCSORGTOP
 10
0.0
 20
0.0
 30
0.0
  9
$UCSORGBOTTOM
 10
0.0
 20
0.0
 30
0.0
  9
$UCSORGLEFT
 10
0.0
 20
0.0
 30
0.0
  9
$UCSORGRIGHT
 10
0.0
 20
0.0
 30
0.0
  9
$UCSORGFRONT
 10
0.0
 20
0.0
 30
0.0
  9
$UCSORGBACK
 10
0.0
 20
0.0
 30
0.0
  9
$PUCSBASE
  2

  9
$PUCSNAME
  2

  9
$PUCSORG
 10
0.0
 20
0.0
 30
0.0
  9
$PUCSXDIR
 10
1.0
 20
0.0
 30
0.0
  9
$PUCSYDIR
 10
0.0
 20
1.0
 30
0.0
  9
$PUCSORTHOREF
  2

  9
$PUCSORTHOVIEW
 70
     0
  9
$PUCSORGTOP
 10
0.0
 20
0.0
 30
0.0
  9
$PUCSORGBOTTOM
 10
0.0
 20
0.0
 30
0.0
  9
$PUCSORGLEFT
 10
0.0
 20
0.0
 30
0.0
  9
$PUCSORGRIGHT
 10
0.0
 20
0.0
 30
0.0
  9
$PUCSORGFRONT
 10
0.0
 20
0.0
 30
0.0
  9
$PUCSORGBACK
 10
0.0
 20
0.0
 30
0.0
  9
$USERI1
 70
     0
  9
$USERI2
 70
     0
  9
$USERI3
 70
     0
  9
$USERI4
 70
     0
  9
$USERI5
 70
     0
  9
$USERR1
 40
0.0
  9
$USERR2
 40
0.0
  9
$USERR3
 40
0.0
  9
$USERR4
 40
0.0
  9
$USERR5
 40
0.0
  9
$WORLDVIEW
 70
     1
  9
$SHADEDGE
 70
     3
  9
$SHADEDIF
 70
    70
  9
$TILEMODE
 70
     1
  9
$MAXACTVP
 70
    64
  9
$PINSBASE
 10
0.0
 20
0.0
 30
0.0
  9
$PLIMCHECK
 70
     0
  9
$PEXTMIN
 10
1.0000000000E+20
 20
1.0000000000E+20
 30
1.0000000000E+20
  9
$PEXTMAX
 10
-1.0000000000E+20
 20
-1.0000000000E+20
 30
-1.0000000000E+20
  9
$PLIMMIN
 10
0.0
 20
0.0
  9
$PLIMMAX
 10
420.0
 20
297.0
  9
$UNITMODE
 70
     0
  9
$VISRETAIN
 70
     1
  9
$PLINEGEN
 70
     0
  9
$PSLTSCALE
 70
     1
  9
$TREEDEPTH
 70
  3020
  9
$CMLSTYLE
  2
Standard
  9
$CMLJUST
 70
     0
  9
$CMLSCALE
 40
20.0
  9
$PROXYGRAPHICS
 70
     1
  9
$MEASUREMENT
 70
     1
  9
$CELWEIGHT
370
    -1
  9
$ENDCAPS
280
     0
  9
$JOINSTYLE
280
     0
  9
$LWDISPLAY
290
     1
  9
$INSUNITS
 70
     4
  9
$HYPERLINKBASE
  1

  9
$STYLESHEET
  1

  9
$XEDIT
290
     1
  9
$CEPSNTYPE
380
     0
  9
$PSTYLEMODE
290
     1
  9
$FINGERPRINTGUID
  2
{6A8C3D95-E730-4BD7-8BB4-E5A8AB9AF839}
  9
$VERSIONGUID
  2
{FAEB1C32-E019-11D5-929B-00C0DF256EC4}
  9
$EXTNAMES
290
     1
  9
$PSVPSCALE
 40
0.0
  9
$OLESTARTUP
290
     0
  0
ENDSEC
  0
SECTION
  2
CLASSES
  0
CLASS
  1
ACDBDICTIONARYWDFLT
  2
AcDbDictionaryWithDefault
  3
ObjectDBX Classes
 90
        0
280
     0
281
     0
  0
CLASS
  1
VISUALSTYLE
  2
AcDbVisualStyle
  3
ObjectDBX Classes
 90
     4095
280
     0
281
     0
  0
CLASS
  1
MATERIAL
  2
AcDbMaterial
  3
ObjectDBX Classes
 90
     1153
280
     0
281
     0
  0
CLASS
  1
SCALE
  2
AcDbScale
  3
ObjectDBX Classes
 90
     1153
280
     0
281
     0
  0
CLASS
  1
TABLESTYLE
  2
AcDbTableStyle
  3
ObjectDBX Classes
 90
     4095
280
     0
281
     0
  0
CLASS
  1
MLEADERSTYLE
  2
AcDbMLeaderStyle
  3
ACDB_MLEADERSTYLE_CLASS
 90
     4095
280
     0
281
     0
  0
CLASS
  1
SUN
  2
AcDbSun
  3
SCENEOE
 90
     1153
280
     0
281
     0
  0
CLASS
  1
ACDBPLACEHOLDER
  2
AcDbPlaceHolder
  3
ObjectDBX Classes
 90
        0
280
     0
281
     0
  0
CLASS
  1
LAYOUT
  2
AcDbLayout
  3
ObjectDBX Classes
 90
        0
280
     0
281
     0
  0
ENDSEC
  0
SECTION
  2
TABLES
  0
TABLE
  2
VPORT
  5
8
330
0
100
AcDbSymbolTable
 70
     1
  0
VPORT
  5
29
330
8
100
AcDbSymbolTableRecord
100
AcDbViewportTableRecord
  2
*Active
 70
     0
 10
0.0
 20
0.0
 11
1.0
 21
1.0
 12
297.0
 22
210.0
 13
0.0
 23
0.0
 14
10.0
 24
10.0
 15
10.0
 25
10.0
 16
0.0
 26
0.0
 36
1.0
 17
0.0
 27
0.0
 37
0.0
 40
420.0
 41
1.4142857143
 42
50.0
 43
0.0
 44
0.0
 50
0.0
 51
0.0
 71
     0
 72
  2000
 73
     1
 74
     3
 75
     0
 76
     0
 77
     0
 78
     0
281
     0
 65
     1
110
0.0
120
0.0
130
0.0
111
1.0
121
0.0
131
0.0
112
0.0
122
1.0
132
0.0
 79
     0
146
0.0
  0
ENDTAB
  0
TABLE
  2
LTYPE
  5
5
330
0
100
AcDbSymbolTable
 70
     6
  0
LTYPE
  5
14
330
5
100
AcDbSymbolTableRecord
100
AcDbLinetypeTableRecord
  2
ByBlock
 70
     0
  3

 72
    65
 73
     0
 40
0.0
  0
LTYPE
  5
15
330
5
100
AcDbSymbolTableRecord
100
AcDbLinetypeTableRecord
  2
ByLayer
 70
     0
  3

 72
    65
 73
     0
 40
0.0
  0
LTYPE
  5
16
330
5
100
AcDbSymbolTableRecord
100
AcDbLinetypeTableRecord
  2
Continuous
 70
     0
  3
Solid line
 72
    65
 73
     0
 40
0.0
  0
LTYPE
  5
6E
330
5
100
AcDbSymbolTableRecord
100
AcDbLinetypeTableRecord
  2
HIDDEN
 70
     0
  3
Hidden __ __ __ __ __ __ __ __ __ __ __ __ __ __
 72
    65
 73
     2
 40
1.905
 49
1.27
 74
     0
 49
-0.635
 74
     0
  0
LTYPE
  5
6F
330
5
100
AcDbSymbolTableRecord
100
AcDbLinetypeTableRecord
  2
PHANTOM
 70
     0
  3
Phantom ______  __  __  ______  __  __  ______
 72
    65
 73
     6
 40
12.7
 49
6.35
 74
     0
 49
-1.27
 74
     0
 49
1.27
 74
     0
 49
-1.27
 74
     0
 49
1.27
 74
     0
 49
-1.27
 74
     0
  0
LTYPE
  5
70
330
5
100
AcDbSymbolTableRecord
100
AcDbLinetypeTableRecord
  2
CENTER
 70
     0
  3
Center ____ _ ____ _ ____ _ ____ _ ____ _ ____
 72
    65
 73
     4
 40
10.16
 49
6.35
 74
     0
 49
-1.27
 74
     0
 49
1.27
 74
     0
 49
-1.27
 74
     0
  0
LTYPE
  5
71
330
5
100
AcDbSymbolTableRecord
100
AcDbLinetypeTableRecord
  2
CENTERX2
 70
     0
  3
Center (2x) ________  __  ________  __  _____
 72
    65
 73
     4
 40
20.32
 49
12.7
 74
     0
 49
-2.54
 74
     0
 49
2.54
 74
     0
 49
-2.54
 74
     0
  0
LTYPE
  5
72
330
5
100
AcDbSymbolTableRecord
100
AcDbLinetypeTableRecord
  2
DOT2
 70
     0
  3
Dot (.5x) ........................................
 72
    65
 73
     2
 40
0.635
 49
0.0
 74
     0
 49
-0.635
 74
     0
  0
ENDTAB
  0
TABLE
  2
LAYER
  5
2
330
0
100
AcDbSymbolTable
 70
     1
  0
LAYER
  5
10
330
2
100
AcDbSymbolTableRecord
100
AcDbLayerTableRecord
  2
0
 70
     0
 62
     7
  6
Continuous
370
    -3
390
F
  0
ENDTAB
  0
TABLE
  2
STYLE
  5
3
330
0
100
AcDbSymbolTable
 70
     1
  0
STYLE
  5
11
330
3
100
AcDbSymbolTableRecord
100
AcDbTextStyleTableRecord
  2
Standard
 70
     0
 40
0.0
 41
1.0
 50
0.0
 71
     0
 42
3.5
  3
txt
  4

  0
ENDTAB
  0
TABLE
  2
VIEW
  5
6
330
0
100
AcDbSymbolTable
 70
     0
  0
ENDTAB
  0
TABLE
  2
UCS
  5
7
330
0
100
AcDbSymbolTable
 70
     0
  0
ENDTAB
  0
TABLE
  2
APPID
  5
9
330
0
100
AcDbSymbolTable
 70
     1
  0
APPID
  5
12
330
9
100
AcDbSymbolTableRecord
100
AcDbRegAppTableRecord
  2
ACAD
 70
     0
  0
ENDTAB
  0
TABLE
  2
DIMSTYLE
  5
A
330
0
100
AcDbSymbolTable
 70
     1
100
AcDbDimStyleTable
  0
DIMSTYLE
105
27
330
A
100
AcDbSymbolTableRecord
100
AcDbDimStyleTableRecord
  2
ISO-25
 70
     0
 41
2.5
 42
0.625
 43
3.75
 44
1.25
 73
     0
 74
     0
 77
     1
 78
     8
140
2.5
141
2.5
143
0.0393700787
147
0.625
171
     3
172
     1
178
     0
271
     2
272
     2
274
     3
278
    44
283
     0
284
     8
340
11
  0
ENDTAB
  0
TABLE
  2
BLOCK_RECORD
  5
1
330
0
100
AcDbSymbolTable
 70
     1
  0
BLOCK_RECORD
  5
1F
330
1
100
AcDbSymbolTableRecord
100
AcDbBlockTableRecord
  2
*Model_Space
340
22
  0
BLOCK_RECORD
  5
1B
330
1
100
AcDbSymbolTableRecord
100
AcDbBlockTableRecord
  2
*Paper_Space
340
1E
  0
BLOCK_RECORD
  5
23
330
1
100
AcDbSymbolTableRecord
100
AcDbBlockTableRecord
  2
*Paper_Space0
340
26
  0
ENDTAB
  0
ENDSEC
  0
SECTION
  2
BLOCKS
  0
BLOCK
  5
20
330
1F
100
AcDbEntity
  8
0
100
AcDbBlockBegin
  2
*Model_Space
 70
     0
 10
0.0
 20
0.0
 30
0.0
  3
*Model_Space
  1

  0
ENDBLK
  5
21
330
1F
100
AcDbEntity
  8
0
100
AcDbBlockEnd
  0
BLOCK
  5
1C
330
1B
100
AcDbEntity
 67
     1
  8
0
100
AcDbBlockBegin
  2
*Paper_Space
 70
     0
 10
0.0
 20
0.0
 30
0.0
  3
*Paper_Space
  1

  0
ENDBLK
  5
1D
330
1B
100
AcDbEntity
 67
     1
  8
0
100
AcDbBlockEnd
  0
BLOCK
  5
24
330
23
100
AcDbEntity
  8
0
100
AcDbBlockBegin
  2
*Paper_Space0
 70
     0
 10
0.0
 20
0.0
 30
0.0
  3
*Paper_Space0
  1

  0
ENDBLK
  5
25
330
23
100
AcDbEntity
  8
0
100
AcDbBlockEnd
  0
ENDSEC
  0
SECTION
  2
ENTITIES
  0
CIRCLE
  5
73
330
1F
100
AcDbEntity
  8
0
  6
Continuous
 62
     7
370
    15
100
AcDbCircle
 10
333.3469770386
 20
223.2981259228
 30
0.0
 40
5.099999999999966
  0
CIRCLE
  5
74
330
1F
100
AcDbEntity
  8
0
  6
Continuous
 62
     7
370
    15
100
AcDbCircle
 10
63.3469770386
 20
223.2981259228
 30
0.0
 40
5.099999999999994
  0
CIRCLE
  5
75
330
1F
100
AcDbEntity
  8
0
  6
Continuous
 62
     7
370
    15
100
AcDbCircle
 10
153.3469770386
 20
223.2981259228
 30
0.0
 40
5.100000000000023
  0
CIRCLE
  5
76
330
1F
100
AcDbEntity
  8
0
  6
Continuous
 62
     7
370
    15
100
AcDbCircle
 10
243.3469770386
 20
223.2981259228
 30
0.0
 40
5.100000000000023
  0
CIRCLE
  5
77
330
1F
100
AcDbEntity
  8
0
  6
Continuous
 62
     7
370
    15
100
AcDbCircle
 10
63.3469770386
 20
19.9348027928
 30
0.0
 40
5.09999999999998
  0
CIRCLE
  5
78
330
1F
100
AcDbEntity
  8
0
  6
Continuous
 62
     7
370
    15
100
AcDbCircle
 10
333.3469770386
 20
19.9348027928
 30
0.0
 40
5.09999999999998
  0
CIRCLE
  5
79
330
1F
100
AcDbEntity
  8
0
  6
Continuous
 62
     7
370
    15
100
AcDbCircle
 10
130.8469770386
 20
19.9348027928
 30
0.0
 40
5.099999999999994
  0
CIRCLE
  5
7A
330
1F
100
AcDbEntity
  8
0
  6
Continuous
 62
     7
370
    15
100
AcDbCircle
 10
265.8469770386
 20
19.9348027928
 30
0.0
 40
5.099999999999994
  0
CIRCLE
  5
7B
330
1F
100
AcDbEntity
  8
0
  6
Continuous
 62
     7
370
    15
100
AcDbCircle
 10
198.3469770386
 20
19.9348027928
 30
0.0
 40
5.099999999999994
  0
CIRCLE
  5
7C
330
1F
100
AcDbEntity
  8
0
  6
Continuous
 62
     7
370
    15
100
AcDbCircle
 10
48.9969770386
 20
53.1982982013
 30
0.0
 40
2.0
  0
CIRCLE
  5
7D
330
1F
100
AcDbEntity
  8
0
  6
Continuous
 62
     7
370
    15
100
AcDbCircle
 10
86.5469770386
 20
53.1982982013
 30
0.0
 40
2.0
  0
CIRCLE
  5
7E
330
1F
100
AcDbEntity
  8
0
  6
Continuous
 62
     7
370
    15
100
AcDbCircle
 10
136.0469770386
 20
53.1982982013
 30
0.0
 40
2.000000000000007
  0
CIRCLE
  5
7F
330
1F
100
AcDbEntity
  8
0
  6
Continuous
 62
     7
370
    15
100
AcDbCircle
 10
260.6469770386
 20
53.1982982013
 30
0.0
 40
1.999999999999993
  0
CIRCLE
  5
80
330
1F
100
AcDbEntity
  8
0
  6
Continuous
 62
     7
370
    15
100
AcDbCircle
 10
173.5969770386
 20
191.1982982013
 30
0.0
 40
2.0
  0
CIRCLE
  5
81
330
1F
100
AcDbEntity
  8
0
  6
Continuous
 62
     7
370
    15
100
AcDbCircle
 10
223.0969770386
 20
191.1982982013
 30
0.0
 40
2.0
  0
CIRCLE
  5
82
330
1F
100
AcDbEntity
  8
0
  6
Continuous
 62
     7
370
    15
100
AcDbCircle
 10
310.1469770386
 20
53.1982982013
 30
0.0
 40
2.0
  0
CIRCLE
  5
83
330
1F
100
AcDbEntity
  8
0
  6
Continuous
 62
     7
370
    15
100
AcDbCircle
 10
347.6969770386
 20
53.1982982013
 30
0.0
 40
2.0
  0
CIRCLE
  5
84
330
1F
100
AcDbEntity
  8
0
  6
Continuous
 62
     7
370
    15
100
AcDbCircle
 10
86.5469770386
 20
191.1982982013
 30
0.0
 40
2.0
  0
CIRCLE
  5
85
330
1F
100
AcDbEntity
  8
0
  6
Continuous
 62
     7
370
    15
100
AcDbCircle
 10
136.0469770386
 20
191.1982982013
 30
0.0
 40
2.0
  0
CIRCLE
  5
86
330
1F
100
AcDbEntity
  8
0
  6
Continuous
 62
     7
370
    15
100
AcDbCircle
 10
260.6469770386
 20
191.1982982013
 30
0.0
 40
2.0
  0
CIRCLE
  5
87
330
1F
100
AcDbEntity
  8
0
  6
Continuous
 62
     7
370
    15
100
AcDbCircle
 10
310.1469770386
 20
191.1982982013
 30
0.0
 40
2.0
  0
ARC
  5
88
330
1F
100
AcDbEntity
  8
0
  6
Continuous
 62
     7
370
    15
100
AcDbCircle
 10
50.7719770386
 20
100.9555009117
 30
0.0
 40
3.000000000000019
100
AcDbArc
 50
0.0
 51
96.253161895
  0
ARC
  5
89
330
1F
100
AcDbEntity
  8
0
  6
Continuous
 62
     7
370
    15
100
AcDbCircle
 10
52.6585567801
 20
83.7380441634
 30
0.0
 40
20.32050807568866
100
AcDbArc
 50
96.253161895
 51
150.0
  0
ARC
  5
8A
330
1F
100
AcDbEntity
  8
0
  6
Continuous
 62
     7
370
    15
100
AcDbCircle
 10
37.6585567801
 20
92.3982982013
 30
0.0
 40
2.999999999999574
100
AcDbArc
 50
150.0
 51
210.0
  0
ARC
  5
8B
330
1F
100
AcDbEntity
  8
0
  6
Continuous
 62
     7
370
    15
100
AcDbCircle
 10
52.6585567801
 20
101.0585522391
 30
0.0
 40
20.32050807568866
100
AcDbArc
 50
210.0
 51
270.0
  0
ARC
  5
8C
330
1F
100
AcDbEntity
  8
0
  6
Continuous
 62
     7
370
    15
100
AcDbCircle
 10
52.6585567801
 20
83.7380441634
 30
0.0
 40
2.999999999999545
100
AcDbArc
 50
270.0
 51
330.0
  0
ARC
  5
8D
330
1F
100
AcDbEntity
  8
0
  6
Continuous
 62
     7
370
    15
100
AcDbCircle
 10
37.6585567801
 20
92.3982982013
 30
0.0
 40
20.32050807568866
100
AcDbArc
 50
330.0
 51
337.5515301408
  0
ARC
  5
8E
330
1F
100
AcDbEntity
  8
0
  6
Continuous
 62
     7
370
    15
100
AcDbCircle
 10
53.666574484
 20
85.7844211846
 30
0.0
 40
2.999999999999987
100
AcDbArc
 50
337.5515301408
 51
44.0871254535
  0
ARC
  5
8F
330
1F
100
AcDbEntity
  8
0
  6
Continuous
 62
     7
370
    15
100
AcDbCircle
 10
59.7719770386
 20
91.6983082013
 30
0.0
 40
5.500000000000004
100
AcDbArc
 50
147.4210296072
 51
224.0871254535
  0
ARC
  5
90
330
1F
100
AcDbEntity
  8
0
  6
Continuous
 62
     7
370
    15
100
AcDbCircle
 10
54.2947514636
 20
95.1983082013
 30
0.0
 40
1.000000000000013
100
AcDbArc
 50
327.4210296072
 51
51.7344986547
  0
ARC
  5
91
330
1F
100
AcDbEntity
  8
0
  6
Continuous
 62
     7
370
    15
100
AcDbCircle
 10
56.7719770386
 20
98.3389058276
 30
0.0
 40
3.000000000000007
100
AcDbArc
 50
180.0
 51
231.7344986547
  0
LINE
  5
92
330
1F
100
AcDbEntity
  8
0
  6
Continuous
 62
     7
370
    15
100
AcDbLine
 10
53.7719770386
 20
100.9555009117
 30
0.0
 11
53.7719770386
 21
98.3389058276
 31
0.0
  0
ARC
  5
93
330
1F
100
AcDbEntity
  8
0
  6
Continuous
 62
     7
370
    15
100
AcDbCircle
 10
42.6585567801
 20
130.0585522391
 30
0.0
 40
3.0
100
AcDbArc
 50
90.0
 51
150.0
  0
ARC
  5
94
330
1F
100
AcDbEntity
  8
0
  6
Continuous
 62
     7
370
    15
100
AcDbCircle
 10
57.6585567801
 20
121.3982982013
 30
0.0
 40
20.32050807568877
100
AcDbArc
 50
150.0
 51
210.0
  0
ARC
  5
95
330
1F
100
AcDbEntity
  8
0
  6
Continuous
 62
     7
370
    15
100
AcDbCircle
 10
42.6585567801
 20
112.7380441634
 30
0.0
 40
3.000000000000014
100
AcDbArc
 50
210.0
 51
270.0
  0
ARC
  5
96
330
1F
100
AcDbEntity
  8
0
  6
Continuous
 62
     7
370
    15
100
AcDbCircle
 10
42.6585567801
 20
130.0585522391
 30
0.0
 40
20.32050807568878
100
AcDbArc
 50
270.0
 51
301.5643056212
  0
ARC
  5
97
330
1F
100
AcDbEntity
  8
0
  6
Continuous
 62
     7
370
    15
100
AcDbCircle
 10
52.7719770386
 20
113.5964514322
 30
0.0
 40
1.0
100
AcDbArc
 50
301.5643056212
 51
0.0
  0
LINE
  5
98
330
1F
100
AcDbEntity
  8
0
  6
Continuous
 62
     7
370
    15
100
AcDbLine
 10
53.7719770386
 20
129.2001449704
 30
0.0
 11
53.7719770386
 21
113.5964514322
 31
0.0
  0
ARC
  5
99
330
1F
100
AcDbEntity
  8
0
  6
Continuous
 62
     7
370
    15
100
AcDbCircle
 10
52.7719770386
 20
129.2001449704
 30
0.0
 40
1.000000000000028
100
AcDbArc
 50
0.0
 51
58.4356943788
  0
ARC
  5
9A
330
1F
100
AcDbEntity
  8
0
  6
Continuous
 62
     7
370
    15
100
AcDbCircle
 10
42.6585567801
 20
112.7380441634
 30
0.0
 40
20.32050807568881
100
AcDbArc
 50
58.4356943788
 51
90.0
  0
ARC
  5
9B
330
1F
100
AcDbEntity
  8
0
  6
Continuous
 62
     7
370
    15
100
AcDbCircle
 10
52.6585567801
 20
159.0585522391
 30
0.0
 40
2.999999999999536
100
AcDbArc
 50
30.0
 51
90.0
  0
ARC
  5
9C
330
1F
100
AcDbEntity
  8
0
  6
Continuous
 62
     7
370
    15
100
AcDbCircle
 10
52.6585567801
 20
141.7380441634
 30
0.0
 40
20.32050807568865
100
AcDbArc
 50
90.0
 51
150.0
  0
ARC
  5
9D
330
1F
100
AcDbEntity
  8
0
  6
Continuous
 62
     7
370
    15
100
AcDbCircle
 10
37.6585567801
 20
150.3982982013
 30
0.0
 40
2.999999999999574
100
AcDbArc
 50
150.0
 51
210.0
  0
ARC
  5
9E
330
1F
100
AcDbEntity
  8
0
  6
Continuous
 62
     7
370
    15
100
AcDbCircle
 10
52.6585567801
 20
159.0585522391
 30
0.0
 40
20.32050807568866
100
AcDbArc
 50
210.0
 51
265.5698916003
  0
ARC
  5
9F
330
1F
100
AcDbEntity
  8
0
  6
Continuous
 62
     7
370
    15
100
AcDbCircle
 10
51.3206694769
 20
141.7897926553
 30
0.0
 40
2.999999999999995
100
AcDbArc
 50
265.5698916003
 51
6.1357332269
  0
ARC
  5
A0
330
1F
100
AcDbEntity
  8
0
  6
Continuous
 62
     7
370
    15
100
AcDbCircle
 10
59.7719770386
 20
142.6983082013
 30
0.0
 40
5.500000000000025
100
AcDbArc
 50
124.4361513882
 51
186.1357332269
  0
ARC
  5
A1
330
1F
100
AcDbEntity
  8
0
  6
Continuous
 62
     7
370
    15
100
AcDbCircle
 10
54.9653332447
 20
149.7087415287
 30
0.0
 40
3.000000000000032
100
AcDbArc
 50
304.4361513882
 51
357.7183618994
  0
ARC
  5
A2
330
1F
100
AcDbEntity
  8
0
  6
Continuous
 62
     7
370
    15
100
AcDbCircle
 10
37.6585567801
 20
150.3982982013
 30
0.0
 40
20.32050807568867
100
AcDbArc
 50
357.7183618994
 51
30.0
  0
ARC
  5
A3
330
1F
100
AcDbEntity
  8
0
  6
Continuous
 62
     7
370
    15
100
AcDbCircle
 10
65.2492026137
 20
139.1983082013
 30
0.0
 40
1.0
100
AcDbArc
 50
147.4210296072
 51
270.0
  0
LINE
  5
A4
330
1F
100
AcDbEntity
  8
0
  6
Continuous
 62
     7
370
    15
100
AcDbLine
 10
70.2947514636
 20
138.1983082013
 30
0.0
 11
65.2492026137
 21
138.1983082013
 31
0.0
  0
ARC
  5
A5
330
1F
100
AcDbEntity
  8
0
  6
Continuous
 62
     7
370
    15
100
AcDbCircle
 10
70.2947514636
 20
139.1983082013
 30
0.0
 40
1.0
100
AcDbArc
 50
270.0
 51
32.5789703928
  0
ARC
  5
A6
330
1F
100
AcDbEntity
  8
0
  6
Continuous
 62
     7
370
    15
100
AcDbCircle
 10
75.7719770386
 20
142.6983082013
 30
0.0
 40
5.500000000000011
100
AcDbArc
 50
167.2599152729
 51
212.5789703928
  0
ARC
  5
A7
330
1F
100
AcDbEntity
  8
0
  6
Continuous
 62
     7
370
    15
100
AcDbCircle
 10
67.4812428013
 20
144.572801681
 30
0.0
 40
3.000000000000002
100
AcDbArc
 50
347.2599152729
 51
84.4133947971
  0
ARC
  5
A8
330
1F
100
AcDbEntity
  8
0
  6
Continuous
 62
     7
370
    15
100
AcDbCircle
 10
67.7732934899
 20
144.5585522391
 30
0.0
 40
3.000000000000002
100
AcDbArc
 50
90.0
 51
150.0
  0
ARC
  5
A9
330
1F
100
AcDbEntity
  8
0
  6
Continuous
 62
     7
370
    15
100
AcDbCircle
 10
67.9660872813
 20
144.9580775107
 30
0.0
 40
2.999999999999998
100
AcDbArc
 50
158.4800660181
 51
195.4177758712
  0
ARC
  5
AA
330
1F
100
AcDbEntity
  8
0
  6
Continuous
 62
     7
370
    15
100
AcDbCircle
 10
59.7719770386
 20
142.6983082013
 30
0.0
 40
5.500000000000013
100
AcDbArc
 50
327.4210296072
 51
15.4177758712
  0
ARC
  5
AB
330
1F
100
AcDbEntity
  8
0
  6
Continuous
 62
     7
370
    15
100
AcDbCircle
 10
82.7732934899
 20
135.8982982013
 30
0.0
 40
3.000000000000012
100
AcDbArc
 50
330.0
 51
30.0
  0
ARC
  5
AC
330
1F
100
AcDbEntity
  8
0
  6
Continuous
 62
     7
370
    15
100
AcDbCircle
 10
67.7732934899
 20
127.2380441634
 30
0.0
 40
20.32050807568881
100
AcDbArc
 50
30.0
 51
34.9956791345
  0
ARC
  5
AD
330
1F
100
AcDbEntity
  8
0
  6
Continuous
 62
     7
370
    15
100
AcDbCircle
 10
81.9621722518
 20
137.1716094589
 30
0.0
 40
3.000000000000015
100
AcDbArc
 50
34.9956791345
 51
121.2343623377
  0
ARC
  5
AE
330
1F
100
AcDbEntity
  8
0
  6
Continuous
 62
     7
370
    15
100
AcDbCircle
 10
81.2492026137
 20
139.1983082013
 30
0.0
 40
1.000000000000002
100
AcDbArc
 50
147.4210296072
 51
231.7344986547
  0
ARC
  5
AF
330
1F
100
AcDbEntity
  8
0
  6
Continuous
 62
     7
370
    15
100
AcDbCircle
 10
78.7719770386
 20
136.057710575
 30
0.0
 40
3.000000000000035
100
AcDbArc
 50
0.0
 51
51.7344986547
  0
LINE
  5
B0
330
1F
100
AcDbEntity
  8
0
  6
Continuous
 62
     7
370
    15
100
AcDbLine
 10
81.7719770386
 20
131.3004649937
 30
0.0
 11
81.7719770386
 21
136.057710575
 31
0.0
  0
ARC
  5
B1
330
1F
100
AcDbEntity
  8
0
  6
Continuous
 62
     7
370
    15
100
AcDbCircle
 10
82.3719770386
 20
131.3004649937
 30
0.0
 40
0.6000000000000085
100
AcDbArc
 50
180.0
 51
317.7552115025
  0
ARC
  5
B2
330
1F
100
AcDbEntity
  8
0
  6
Continuous
 62
     7
370
    15
100
AcDbCircle
 10
67.7732934899
 20
144.5585522391
 30
0.0
 40
20.32050807568879
100
AcDbArc
 50
317.7552115025
 51
330.0
  0
ARC
  5
B3
330
1F
100
AcDbEntity
  8
0
  6
Continuous
 62
     7
370
    15
100
AcDbCircle
 10
67.7732934899
 20
86.5585522391
 30
0.0
 40
2.999999999999988
100
AcDbArc
 50
90.0
 51
150.0
  0
ARC
  5
B4
330
1F
100
AcDbEntity
  8
0
  6
Continuous
 62
     7
370
    15
100
AcDbCircle
 10
82.7732934899
 20
77.8982982013
 30
0.0
 40
20.32050807568879
100
AcDbArc
 50
150.0
 51
181.4829365955
  0
ARC
  5
B5
330
1F
100
AcDbEntity
  8
0
  6
Continuous
 62
     7
370
    15
100
AcDbCircle
 10
63.459256307
 20
77.3982982013
 30
0.0
 40
1.000000000000013
100
AcDbArc
 50
181.4829365955
 51
270.0
  0
LINE
  5
B6
330
1F
100
AcDbEntity
  8
0
  6
Continuous
 62
     7
370
    15
100
AcDbLine
 10
63.459256307
 20
76.3982982013
 30
0.0
 11
76.8469770386
 21
76.3982982013
 31
0.0
  0
ARC
  5
B7
330
1F
100
AcDbEntity
  8
0
  6
Continuous
 62
     7
370
    15
100
AcDbCircle
 10
76.8469770386
 20
73.3982982013
 30
0.0
 40
3.000000000000014
100
AcDbArc
 50
32.0528002655
 51
90.0
  0
ARC
  5
B8
330
1F
100
AcDbEntity
  8
0
  6
Continuous
 62
     7
370
    15
100
AcDbCircle
 10
81.9323334095
 20
76.5825014897
 30
0.0
 40
3.000000000000005
100
AcDbArc
 50
212.0528002655
 51
324.8325808935
  0
ARC
  5
B9
330
1F
100
AcDbEntity
  8
0
  6
Continuous
 62
     7
370
    15
100
AcDbCircle
 10
67.7732934899
 20
86.5585522391
 30
0.0
 40
20.3205080756888
100
AcDbArc
 50
324.8325808935
 51
330.0
  0
ARC
  5
BA
330
1F
100
AcDbEntity
  8
0
  6
Continuous
 62
     7
370
    15
100
AcDbCircle
 10
82.7732934899
 20
77.8982982013
 30
0.0
 40
3.000000000000012
100
AcDbArc
 50
330.0
 51
30.0
  0
ARC
  5
BB
330
1F
100
AcDbEntity
  8
0
  6
Continuous
 62
     7
370
    15
100
AcDbCircle
 10
67.7732934899
 20
69.2380441634
 30
0.0
 40
20.32050807568881
100
AcDbArc
 50
30.0
 51
54.9807083998
  0
ARC
  5
BC
330
1F
100
AcDbEntity
  8
0
  6
Continuous
 62
     7
370
    15
100
AcDbCircle
 10
77.7127053953
 20
83.4228279466
 30
0.0
 40
3.000000000000012
100
AcDbArc
 50
54.9807083998
 51
103.1982411375
  0
ARC
  5
BD
330
1F
100
AcDbEntity
  8
0
  6
Continuous
 62
     7
370
    15
100
AcDbCircle
 10
75.7719770386
 20
91.6983082013
 30
0.0
 40
5.500000000000011
100
AcDbArc
 50
217.5974878975
 51
283.1982411375
  0
ARC
  5
BE
330
1F
100
AcDbEntity
  8
0
  6
Continuous
 62
     7
370
    15
100
AcDbCircle
 10
69.037287689
 20
86.5123695819
 30
0.0
 40
3.000000000000007
100
AcDbArc
 50
37.5974878975
 51
85.8150206352
  0
ARC
  5
BF
330
1F
100
AcDbEntity
  8
0
  6
Continuous
 62
     7
370
    15
100
AcDbCircle
 10
67.7732934899
 20
69.2380441634
 30
0.0
 40
20.32050807568881
100
AcDbArc
 50
85.8150206352
 51
90.0
  0
LINE
  5
C0
330
1F
100
AcDbEntity
  8
0
  6
Continuous
 62
     7
370
    15
100
AcDbLine
 10
231.3719770386
 20
99.6983082013
 30
0.0
 11
252.3719770386
 21
99.6983082013
 31
0.0
  0
LINE
  5
C1
330
1F
100
AcDbEntity
  8
0
  6
Continuous
 62
     7
370
    15
100
AcDbLine
 10
252.3719770386
 20
99.6983082013
 30
0.0
 11
252.3719770386
 21
134.6983082013
 31
0.0
  0
LINE
  5
C2
330
1F
100
AcDbEntity
  8
0
  6
Continuous
 62
     7
370
    15
100
AcDbLine
 10
252.3719770386
 20
134.6983082013
 30
0.0
 11
231.3719770386
 21
134.6983082013
 31
0.0
  0
LINE
  5
C3
330
1F
100
AcDbEntity
  8
0
  6
Continuous
 62
     7
370
    15
100
AcDbLine
 10
231.3719770386
 20
134.6983082013
 30
0.0
 11
231.3719770386
 21
99.6983082013
 31
0.0
  0
ARC
  5
C4
330
1F
100
AcDbEntity
  8
0
  6
Continuous
 62
     7
370
    15
100
AcDbCircle
 10
218.4617137484
 20
115.5585522391
 30
0.0
 40
3.0
100
AcDbArc
 50
90.0
 51
150.0
  0
ARC
  5
C5
330
1F
100
AcDbEntity
  8
0
  6
Continuous
 62
     7
370
    15
100
AcDbCircle
 10
233.4617137484
 20
106.8982982013
 30
0.0
 40
20.32050807568879
100
AcDbArc
 50
150.0
 51
210.0
  0
ARC
  5
C6
330
1F
100
AcDbEntity
  8
0
  6
Continuous
 62
     7
370
    15
100
AcDbCircle
 10
218.4617137484
 20
98.2380441634
 30
0.0
 40
3.0
100
AcDbArc
 50
210.0
 51
270.0
  0
ARC
  5
C7
330
1F
100
AcDbEntity
  8
0
  6
Continuous
 62
     7
370
    15
100
AcDbCircle
 10
218.4617137484
 20
115.5585522391
 30
0.0
 40
20.32050807568881
100
AcDbArc
 50
270.0
 51
291.7215826016
  0
ARC
  5
C8
330
1F
100
AcDbEntity
  8
0
  6
Continuous
 62
     7
370
    15
100
AcDbCircle
 10
224.8719770386
 20
99.4679175546
 30
0.0
 40
3.0
100
AcDbArc
 50
291.7215826016
 51
0.0
  0
LINE
  5
C9
330
1F
100
AcDbEntity
  8
0
  6
Continuous
 62
     7
370
    15
100
AcDbLine
 10
227.8719770386
 20
114.3286788479
 30
0.0
 11
227.8719770386
 21
99.4679175546
 31
0.0
  0
ARC
  5
CA
330
1F
100
AcDbEntity
  8
0
  6
Continuous
 62
     7
370
    15
100
AcDbCircle
 10
224.8719770386
 20
114.3286788479
 30
0.0
 40
3.0
100
AcDbArc
 50
0.0
 51
68.2784173984
  0
ARC
  5
CB
330
1F
100
AcDbEntity
  8
0
  6
Continuous
 62
     7
370
    15
100
AcDbCircle
 10
218.4617137484
 20
98.2380441634
 30
0.0
 40
20.3205080756888
100
AcDbArc
 50
68.2784173984
 51
90.0
  0
ARC
  5
CC
330
1F
100
AcDbEntity
  8
0
  6
Continuous
 62
     7
370
    15
100
AcDbCircle
 10
233.8719770386
 20
142.6983082013
 30
0.0
 40
5.499999999999983
100
AcDbArc
 50
130.0919382837
 51
212.5789703928
  0
ARC
  5
CD
330
1F
100
AcDbEntity
  8
0
  6
Continuous
 62
     7
370
    15
100
AcDbCircle
 10
228.4617137484
 20
144.5585522391
 30
0.0
 40
2.99999999999953
100
AcDbArc
 50
51.4845897876
 51
90.0
  0
ARC
  5
CE
330
1F
100
AcDbEntity
  8
0
  6
Continuous
 62
     7
370
    15
100
AcDbCircle
 10
228.4617137484
 20
127.2380441634
 30
0.0
 40
20.32050807568866
100
AcDbArc
 50
90.0
 51
150.0
  0
ARC
  5
CF
330
1F
100
AcDbEntity
  8
0
  6
Continuous
 62
     7
370
    15
100
AcDbCircle
 10
213.4617137484
 20
135.8982982013
 30
0.0
 40
2.999999999999581
100
AcDbArc
 50
150.0
 51
210.0
  0
ARC
  5
D0
330
1F
100
AcDbEntity
  8
0
  6
Continuous
 62
     7
370
    15
100
AcDbCircle
 10
228.4617137484
 20
144.5585522391
 30
0.0
 40
20.32050807568868
100
AcDbArc
 50
210.0
 51
258.0385486318
  0
ARC
  5
D1
330
1F
100
AcDbEntity
  8
0
  6
Continuous
 62
     7
370
    15
100
AcDbCircle
 10
224.8719770386
 20
127.6141198097
 30
0.0
 40
3.000000000000004
100
AcDbArc
 50
258.0385486318
 51
0.0
  0
LINE
  5
D2
330
1F
100
AcDbEntity
  8
0
  6
Continuous
 62
     7
370
    15
100
AcDbLine
 10
227.8719770386
 20
136.057710575
 30
0.0
 11
227.8719770386
 21
127.6141198097
 31
0.0
  0
ARC
  5
D3
330
1F
100
AcDbEntity
  8
0
  6
Continuous
 62
     7
370
    15
100
AcDbCircle
 10
230.8719770386
 20
136.057710575
 30
0.0
 40
3.000000000000004
100
AcDbArc
 50
128.2655013453
 51
180.0
  0
ARC
  5
D4
330
1F
100
AcDbEntity
  8
0
  6
Continuous
 62
     7
370
    15
100
AcDbCircle
 10
228.3947514636
 20
139.1983082013
 30
0.0
 40
1.000000000000014
100
AcDbArc
 50
308.2655013453
 51
32.5789703928
  0
ARC
  5
D5
330
1F
100
AcDbEntity
  8
0
  6
Continuous
 62
     7
370
    15
100
AcDbCircle
 10
253.5764504581
 20
159.0585522391
 30
0.0
 40
20.32050807568865
100
AcDbArc
 50
223.4790554945
 51
240.3539845507
  0
ARC
  5
D6
330
1F
100
AcDbEntity
  8
0
  6
Continuous
 62
     7
370
    15
100
AcDbCircle
 10
243.8218980096
 20
141.9194990187
 30
0.0
 40
0.6000000000000169
100
AcDbArc
 50
240.3539845507
 51
7.335181266
  0
ARC
  5
D7
330
1F
100
AcDbEntity
  8
0
  6
Continuous
 62
     7
370
    15
100
AcDbCircle
 10
249.8719770386
 20
142.6983082013
 30
0.0
 40
5.499999999999985
100
AcDbArc
 50
336.3257681007
 51
187.335181266
  0
ARC
  5
D8
330
1F
100
AcDbEntity
  8
0
  6
Continuous
 62
     7
370
    15
100
AcDbCircle
 10
255.4586209978
 20
140.2489390431
 30
0.0
 40
0.6000000000000287
100
AcDbArc
 50
156.3257681007
 51
321.6502319981
  0
ARC
  5
D9
330
1F
100
AcDbEntity
  8
0
  6
Continuous
 62
     7
370
    15
100
AcDbCircle
 10
253.5764504581
 20
141.7380441634
 30
0.0
 40
2.999999999999542
100
AcDbArc
 50
321.650231998
 51
330.0
  0
ARC
  5
DA
330
1F
100
AcDbEntity
  8
0
  6
Continuous
 62
     7
370
    15
100
AcDbCircle
 10
238.5764504581
 20
150.3982982013
 30
0.0
 40
20.32050807568863
100
AcDbArc
 50
330.0
 51
30.0
  0
ARC
  5
DB
330
1F
100
AcDbEntity
  8
0
  6
Continuous
 62
     7
370
    15
100
AcDbCircle
 10
253.5764504581
 20
159.0585522391
 30
0.0
 40
2.999999999999574
100
AcDbArc
 50
30.0
 51
90.0
  0
ARC
  5
DC
330
1F
100
AcDbEntity
  8
0
  6
Continuous
 62
     7
370
    15
100
AcDbCircle
 10
253.5764504581
 20
141.7380441634
 30
0.0
 40
20.32050807568871
100
AcDbArc
 50
90.0
 51
150.0
  0
ARC
  5
DD
330
1F
100
AcDbEntity
  8
0
  6
Continuous
 62
     7
370
    15
100
AcDbCircle
 10
238.5764504581
 20
150.3982982013
 30
0.0
 40
2.999999999999556
100
AcDbArc
 50
150.0
 51
210.0
  0
ARC
  5
DE
330
1F
100
AcDbEntity
  8
0
  6
Continuous
 62
     7
370
    15
100
AcDbCircle
 10
253.5764504581
 20
159.0585522391
 30
0.0
 40
20.32050807568863
100
AcDbArc
 50
210.0
 51
215.9253338097
  0
ARC
  5
DF
330
1F
100
AcDbEntity
  8
0
  6
Continuous
 62
     7
370
    15
100
AcDbCircle
 10
233.8719770386
 20
142.6983082013
 30
0.0
 40
5.5
100
AcDbArc
 50
25.6167142461
 51
53.7876750581
  0
CIRCLE
  5
E0
330
1F
100
AcDbEntity
  8
0
  6
Continuous
 62
     7
370
    15
100
AcDbCircle
 10
233.8719770386
 20
142.6983082013
 30
0.0
 40
2.0
  0
CIRCLE
  5
E1
330
1F
100
AcDbEntity
  8
0
  6
Continuous
 62
     7
370
    15
100
AcDbCircle
 10
233.8719770386
 20
91.6983082013
 30
0.0
 40
2.0
  0
CIRCLE
  5
E2
330
1F
100
AcDbEntity
  8
0
  6
Continuous
 62
     7
370
    15
100
AcDbCircle
 10
249.8719770386
 20
91.6983082013
 30
0.0
 40
2.000000000000014
  0
CIRCLE
  5
E3
330
1F
100
AcDbEntity
  8
0
  6
Continuous
 62
     7
370
    15
100
AcDbCircle
 10
249.8719770386
 20
142.6983082013
 30
0.0
 40
2.0
  0
CIRCLE
  5
E4
330
1F
100
AcDbEntity
  8
0
  6
Continuous
 62
     7
370
    15
100
AcDbCircle
 10
336.9219770386
 20
91.6983082013
 30
0.0
 40
2.000000000000014
  0
CIRCLE
  5
E5
330
1F
100
AcDbEntity
  8
0
  6
Continuous
 62
     7
370
    15
100
AcDbCircle
 10
320.9219770386
 20
91.6983082013
 30
0.0
 40
2.0
  0
CIRCLE
  5
E6
330
1F
100
AcDbEntity
  8
0
  6
Continuous
 62
     7
370
    15
100
AcDbCircle
 10
320.9219770386
 20
142.6983082013
 30
0.0
 40
2.0
  0
CIRCLE
  5
E7
330
1F
100
AcDbEntity
  8
0
  6
Continuous
 62
     7
370
    15
100
AcDbCircle
 10
336.9219770386
 20
142.6983082013
 30
0.0
 40
2.0
  0
LINE
  5
E8
330
1F
100
AcDbEntity
  8
0
  6
Continuous
 62
     7
370
    15
100
AcDbLine
 10
160.0136437053
 20
186.3982982013
 30
0.0
 11
150.0136437053
 21
186.3982982013
 31
0.0
  0
LINE
  5
E9
330
1F
100
AcDbEntity
  8
0
  6
Continuous
 62
     7
370
    15
100
AcDbLine
 10
150.0136437053
 20
177.3982982013
 30
0.0
 11
150.0136437053
 21
186.3982982013
 31
0.0
  0
LINE
  5
EA
330
1F
100
AcDbEntity
  8
0
  6
Continuous
 62
     7
370
    15
100
AcDbLine
 10
146.5136437053
 20
177.3982982013
 30
0.0
 11
150.0136437053
 21
177.3982982013
 31
0.0
  0
LINE
  5
EB
330
1F
100
AcDbEntity
  8
0
  6
Continuous
 62
     7
370
    15
100
AcDbLine
 10
146.5136437053
 20
175.3982982013
 30
0.0
 11
146.5136437053
 21
177.3982982013
 31
0.0
  0
LINE
  5
EC
330
1F
100
AcDbEntity
  8
0
  6
Continuous
 62
     7
370
    15
100
AcDbLine
 10
146.5136437053
 20
175.3982982013
 30
0.0
 11
163.5136437053
 21
175.3982982013
 31
0.0
  0
LINE
  5
ED
330
1F
100
AcDbEntity
  8
0
  6
Continuous
 62
     7
370
    15
100
AcDbLine
 10
163.5136437053
 20
175.3982982013
 30
0.0
 11
163.5136437053
 21
177.3982982013
 31
0.0
  0
LINE
  5
EE
330
1F
100
AcDbEntity
  8
0
  6
Continuous
 62
     7
370
    15
100
AcDbLine
 10
163.5136437053
 20
177.3982982013
 30
0.0
 11
160.0136437053
 21
177.3982982013
 31
0.0
  0
LINE
  5
EF
330
1F
100
AcDbEntity
  8
0
  6
Continuous
 62
     7
370
    15
100
AcDbLine
 10
160.0136437053
 20
177.3982982013
 30
0.0
 11
160.0136437053
 21
186.3982982013
 31
0.0
  0
LINE
  5
F0
330
1F
100
AcDbEntity
  8
0
  6
Continuous
 62
     7
370
    15
100
AcDbLine
 10
236.680310372
 20
186.3982982013
 30
0.0
 11
236.680310372
 21
177.3982982013
 31
0.0
  0
LINE
  5
F1
330
1F
100
AcDbEntity
  8
0
  6
Continuous
 62
     7
370
    15
100
AcDbLine
 10
236.680310372
 20
177.3982982013
 30
0.0
 11
233.180310372
 21
177.3982982013
 31
0.0
  0
LINE
  5
F2
330
1F
100
AcDbEntity
  8
0
  6
Continuous
 62
     7
370
    15
100
AcDbLine
 10
233.180310372
 20
177.3982982013
 30
0.0
 11
233.180310372
 21
175.3982982013
 31
0.0
  0
LINE
  5
F3
330
1F
100
AcDbEntity
  8
0
  6
Continuous
 62
     7
370
    15
100
AcDbLine
 10
233.180310372
 20
175.3982982013
 30
0.0
 11
250.180310372
 21
175.3982982013
 31
0.0
  0
LINE
  5
F4
330
1F
100
AcDbEntity
  8
0
  6
Continuous
 62
     7
370
    15
100
AcDbLine
 10
250.180310372
 20
177.3982982013
 30
0.0
 11
250.180310372
 21
175.3982982013
 31
0.0
  0
LINE
  5
F5
330
1F
100
AcDbEntity
  8
0
  6
Continuous
 62
     7
370
    15
100
AcDbLine
 10
246.680310372
 20
177.3982982013
 30
0.0
 11
250.180310372
 21
177.3982982013
 31
0.0
  0
LINE
  5
F6
330
1F
100
AcDbEntity
  8
0
  6
Continuous
 62
     7
370
    15
100
AcDbLine
 10
246.680310372
 20
186.3982982013
 30
0.0
 11
246.680310372
 21
177.3982982013
 31
0.0
  0
LINE
  5
F7
330
1F
100
AcDbEntity
  8
0
  6
Continuous
 62
     7
370
    15
100
AcDbLine
 10
246.680310372
 20
186.3982982013
 30
0.0
 11
236.680310372
 21
186.3982982013
 31
0.0
  0
LINE
  5
F8
330
1F
100
AcDbEntity
  8
0
  6
Continuous
 62
     7
370
    15
100
AcDbLine
 10
250.180310372
 20
71.3982982013
 30
0.0
 11
246.680310372
 21
71.3982982013
 31
0.0
  0
LINE
  5
F9
330
1F
100
AcDbEntity
  8
0
  6
Continuous
 62
     7
370
    15
100
AcDbLine
 10
250.180310372
 20
73.3982982013
 30
0.0
 11
250.180310372
 21
71.3982982013
 31
0.0
  0
LINE
  5
FA
330
1F
100
AcDbEntity
  8
0
  6
Continuous
 62
     7
370
    15
100
AcDbLine
 10
250.180310372
 20
73.3982982013
 30
0.0
 11
233.180310372
 21
73.3982982013
 31
0.0
  0
LINE
  5
FB
330
1F
100
AcDbEntity
  8
0
  6
Continuous
 62
     7
370
    15
100
AcDbLine
 10
233.180310372
 20
73.3982982013
 30
0.0
 11
233.180310372
 21
71.3982982013
 31
0.0
  0
LINE
  5
FC
330
1F
100
AcDbEntity
  8
0
  6
Continuous
 62
     7
370
    15
100
AcDbLine
 10
233.180310372
 20
71.3982982013
 30
0.0
 11
236.680310372
 21
71.3982982013
 31
0.0
  0
LINE
  5
FD
330
1F
100
AcDbEntity
  8
0
  6
Continuous
 62
     7
370
    15
100
AcDbLine
 10
236.680310372
 20
71.3982982013
 30
0.0
 11
236.680310372
 21
62.3982982013
 31
0.0
  0
LINE
  5
FE
330
1F
100
AcDbEntity
  8
0
  6
Continuous
 62
     7
370
    15
100
AcDbLine
 10
236.680310372
 20
62.3982982013
 30
0.0
 11
246.680310372
 21
62.3982982013
 31
0.0
  0
LINE
  5
FF
330
1F
100
AcDbEntity
  8
0
  6
Continuous
 62
     7
370
    15
100
AcDbLine
 10
246.680310372
 20
71.3982982013
 30
0.0
 11
246.680310372
 21
62.3982982013
 31
0.0
  0
LINE
  5
100
330
1F
100
AcDbEntity
  8
0
  6
Continuous
 62
     7
370
    15
100
AcDbLine
 10
150.0136437053
 20
71.3982982013
 30
0.0
 11
146.5136437053
 21
71.3982982013
 31
0.0
  0
LINE
  5
101
330
1F
100
AcDbEntity
  8
0
  6
Continuous
 62
     7
370
    15
100
AcDbLine
 10
150.0136437053
 20
62.3982982013
 30
0.0
 11
150.0136437053
 21
71.3982982013
 31
0.0
  0
LINE
  5
102
330
1F
100
AcDbEntity
  8
0
  6
Continuous
 62
     7
370
    15
100
AcDbLine
 10
160.0136437053
 20
62.3982982013
 30
0.0
 11
150.0136437053
 21
62.3982982013
 31
0.0
  0
LINE
  5
103
330
1F
100
AcDbEntity
  8
0
  6
Continuous
 62
     7
370
    15
100
AcDbLine
 10
160.0136437053
 20
62.3982982013
 30
0.0
 11
160.0136437053
 21
71.3982982013
 31
0.0
  0
LINE
  5
104
330
1F
100
AcDbEntity
  8
0
  6
Continuous
 62
     7
370
    15
100
AcDbLine
 10
160.0136437053
 20
71.3982982013
 30
0.0
 11
163.5136437053
 21
71.3982982013
 31
0.0
  0
LINE
  5
105
330
1F
100
AcDbEntity
  8
0
  6
Continuous
 62
     7
370
    15
100
AcDbLine
 10
163.5136437053
 20
71.3982982013
 30
0.0
 11
163.5136437053
 21
73.3982982013
 31
0.0
  0
LINE
  5
106
330
1F
100
AcDbEntity
  8
0
  6
Continuous
 62
     7
370
    15
100
AcDbLine
 10
163.5136437053
 20
73.3982982013
 30
0.0
 11
146.5136437053
 21
73.3982982013
 31
0.0
  0
LINE
  5
107
330
1F
100
AcDbEntity
  8
0
  6
Continuous
 62
     7
370
    15
100
AcDbLine
 10
146.5136437053
 20
71.3982982013
 30
0.0
 11
146.5136437053
 21
73.3982982013
 31
0.0
  0
LINE
  5
108
330
1F
100
AcDbEntity
  8
0
  6
Continuous
 62
     7
370
    15
100
AcDbLine
 10
59.8469770386
 20
175.3982982013
 30
0.0
 11
76.8469770386
 21
175.3982982013
 31
0.0
  0
LINE
  5
109
330
1F
100
AcDbEntity
  8
0
  6
Continuous
 62
     7
370
    15
100
AcDbLine
 10
76.8469770386
 20
175.3982982013
 30
0.0
 11
76.8469770386
 21
177.3982982013
 31
0.0
  0
LINE
  5
10A
330
1F
100
AcDbEntity
  8
0
  6
Continuous
 62
     7
370
    15
100
AcDbLine
 10
76.8469770386
 20
177.3982982013
 30
0.0
 11
73.3469770386
 21
177.3982982013
 31
0.0
  0
LINE
  5
10B
330
1F
100
AcDbEntity
  8
0
  6
Continuous
 62
     7
370
    15
100
AcDbLine
 10
73.3469770386
 20
177.3982982013
 30
0.0
 11
73.3469770386
 21
186.3982982013
 31
0.0
  0
LINE
  5
10C
330
1F
100
AcDbEntity
  8
0
  6
Continuous
 62
     7
370
    15
100
AcDbLine
 10
73.3469770386
 20
186.3982982013
 30
0.0
 11
63.3469770386
 21
186.3982982013
 31
0.0
  0
LINE
  5
10D
330
1F
100
AcDbEntity
  8
0
  6
Continuous
 62
     7
370
    15
100
AcDbLine
 10
63.3469770386
 20
186.3982982013
 30
0.0
 11
63.3469770386
 21
177.3982982013
 31
0.0
  0
LINE
  5
10E
330
1F
100
AcDbEntity
  8
0
  6
Continuous
 62
     7
370
    15
100
AcDbLine
 10
63.3469770386
 20
177.3982982013
 30
0.0
 11
59.8469770386
 21
177.3982982013
 31
0.0
  0
LINE
  5
10F
330
1F
100
AcDbEntity
  8
0
  6
Continuous
 62
     7
370
    15
100
AcDbLine
 10
59.8469770386
 20
177.3982982013
 30
0.0
 11
59.8469770386
 21
175.3982982013
 31
0.0
  0
LINE
  5
110
330
1F
100
AcDbEntity
  8
0
  6
Continuous
 62
     7
370
    15
100
AcDbLine
 10
323.3469770386
 20
71.3982982013
 30
0.0
 11
319.8469770386
 21
71.3982982013
 31
0.0
  0
LINE
  5
111
330
1F
100
AcDbEntity
  8
0
  6
Continuous
 62
     7
370
    15
100
AcDbLine
 10
323.3469770386
 20
71.3982982013
 30
0.0
 11
323.3469770386
 21
62.3982982013
 31
0.0
  0
LINE
  5
112
330
1F
100
AcDbEntity
  8
0
  6
Continuous
 62
     7
370
    15
100
AcDbLine
 10
323.3469770386
 20
62.3982982013
 30
0.0
 11
333.3469770386
 21
62.3982982013
 31
0.0
  0
LINE
  5
113
330
1F
100
AcDbEntity
  8
0
  6
Continuous
 62
     7
370
    15
100
AcDbLine
 10
333.3469770386
 20
62.3982982013
 30
0.0
 11
333.3469770386
 21
71.3982982013
 31
0.0
  0
LINE
  5
114
330
1F
100
AcDbEntity
  8
0
  6
Continuous
 62
     7
370
    15
100
AcDbLine
 10
333.3469770386
 20
71.3982982013
 30
0.0
 11
336.8469770386
 21
71.3982982013
 31
0.0
  0
LINE
  5
115
330
1F
100
AcDbEntity
  8
0
  6
Continuous
 62
     7
370
    15
100
AcDbLine
 10
336.8469770386
 20
71.3982982013
 30
0.0
 11
336.8469770386
 21
73.3982982013
 31
0.0
  0
LINE
  5
116
330
1F
100
AcDbEntity
  8
0
  6
Continuous
 62
     7
370
    15
100
AcDbLine
 10
336.8469770386
 20
73.3982982013
 30
0.0
 11
319.8469770386
 21
73.3982982013
 31
0.0
  0
LINE
  5
117
330
1F
100
AcDbEntity
  8
0
  6
Continuous
 62
     7
370
    15
100
AcDbLine
 10
319.8469770386
 20
71.3982982013
 30
0.0
 11
319.8469770386
 21
73.3982982013
 31
0.0
  0
LINE
  5
118
330
1F
100
AcDbEntity
  8
0
  6
Continuous
 62
     7
370
    15
100
AcDbLine
 10
336.8469770386
 20
175.3982982013
 30
0.0
 11
336.8469770386
 21
177.3982982013
 31
0.0
  0
LINE
  5
119
330
1F
100
AcDbEntity
  8
0
  6
Continuous
 62
     7
370
    15
100
AcDbLine
 10
336.8469770386
 20
177.3982982013
 30
0.0
 11
333.3469770386
 21
177.3982982013
 31
0.0
  0
LINE
  5
11A
330
1F
100
AcDbEntity
  8
0
  6
Continuous
 62
     7
370
    15
100
AcDbLine
 10
333.3469770386
 20
177.3982982013
 30
0.0
 11
333.3469770386
 21
186.3982982013
 31
0.0
  0
LINE
  5
11B
330
1F
100
AcDbEntity
  8
0
  6
Continuous
 62
     7
370
    15
100
AcDbLine
 10
333.3469770386
 20
186.3982982013
 30
0.0
 11
323.3469770386
 21
186.3982982013
 31
0.0
  0
LINE
  5
11C
330
1F
100
AcDbEntity
  8
0
  6
Continuous
 62
     7
370
    15
100
AcDbLine
 10
323.3469770386
 20
186.3982982013
 30
0.0
 11
323.3469770386
 21
177.3982982013
 31
0.0
  0
LINE
  5
11D
330
1F
100
AcDbEntity
  8
0
  6
Continuous
 62
     7
370
    15
100
AcDbLine
 10
323.3469770386
 20
177.3982982013
 30
0.0
 11
319.8469770386
 21
177.3982982013
 31
0.0
  0
LINE
  5
11E
330
1F
100
AcDbEntity
  8
0
  6
Continuous
 62
     7
370
    15
100
AcDbLine
 10
319.8469770386
 20
177.3982982013
 30
0.0
 11
319.8469770386
 21
175.3982982013
 31
0.0
  0
LINE
  5
11F
330
1F
100
AcDbEntity
  8
0
  6
Continuous
 62
     7
370
    15
100
AcDbLine
 10
319.8469770386
 20
175.3982982013
 30
0.0
 11
336.8469770386
 21
175.3982982013
 31
0.0
  0
LINE
  5
120
330
1F
100
AcDbEntity
  8
0
  6
Continuous
 62
     7
370
    15
100
AcDbLine
 10
59.8469770386
 20
73.3982982013
 30
0.0
 11
59.8469770386
 21
71.3982982013
 31
0.0
  0
LINE
  5
121
330
1F
100
AcDbEntity
  8
0
  6
Continuous
 62
     7
370
    15
100
AcDbLine
 10
59.8469770386
 20
71.3982982013
 30
0.0
 11
63.3469770386
 21
71.3982982013
 31
0.0
  0
LINE
  5
122
330
1F
100
AcDbEntity
  8
0
  6
Continuous
 62
     7
370
    15
100
AcDbLine
 10
63.3469770386
 20
71.3982982013
 30
0.0
 11
63.3469770386
 21
62.3982982013
 31
0.0
  0
LINE
  5
123
330
1F
100
AcDbEntity
  8
0
  6
Continuous
 62
     7
370
    15
100
AcDbLine
 10
63.3469770386
 20
62.3982982013
 30
0.0
 11
73.3469770386
 21
62.3982982013
 31
0.0
  0
LINE
  5
124
330
1F
100
AcDbEntity
  8
0
  6
Continuous
 62
     7
370
    15
100
AcDbLine
 10
73.3469770386
 20
62.3982982013
 30
0.0
 11
73.3469770386
 21
71.3982982013
 31
0.0
  0
LINE
  5
125
330
1F
100
AcDbEntity
  8
0
  6
Continuous
 62
     7
370
    15
100
AcDbLine
 10
76.8469770386
 20
71.3982982013
 30
0.0
 11
73.3469770386
 21
71.3982982013
 31
0.0
  0
LINE
  5
126
330
1F
100
AcDbEntity
  8
0
  6
Continuous
 62
     7
370
    15
100
AcDbLine
 10
76.8469770386
 20
73.3982982013
 30
0.0
 11
76.8469770386
 21
71.3982982013
 31
0.0
  0
LINE
  5
127
330
1F
100
AcDbEntity
  8
0
  6
Continuous
 62
     7
370
    15
100
AcDbLine
 10
76.8469770386
 20
73.3982982013
 30
0.0
 11
59.8469770386
 21
73.3982982013
 31
0.0
  0
ARC
  5
128
330
1F
100
AcDbEntity
  8
0
  6
Continuous
 62
     7
370
    15
100
AcDbCircle
 10
203.3469770386
 20
170.7380441634
 30
0.0
 40
20.32050807568864
100
AcDbArc
 50
90.0
 51
150.0
  0
ARC
  5
129
330
1F
100
AcDbEntity
  8
0
  6
Continuous
 62
     7
370
    15
100
AcDbCircle
 10
188.3469770386
 20
179.3982982013
 30
0.0
 40
2.999999999999567
100
AcDbArc
 50
150.0
 51
210.0
  0
ARC
  5
12A
330
1F
100
AcDbEntity
  8
0
  6
Continuous
 62
     7
370
    15
100
AcDbCircle
 10
203.3469770386
 20
188.0585522391
 30
0.0
 40
20.32050807568868
100
AcDbArc
 50
210.0
 51
270.0
  0
ARC
  5
12B
330
1F
100
AcDbEntity
  8
0
  6
Continuous
 62
     7
370
    15
100
AcDbCircle
 10
203.3469770386
 20
170.7380441634
 30
0.0
 40
2.999999999999574
100
AcDbArc
 50
270.0
 51
330.0
  0
ARC
  5
12C
330
1F
100
AcDbEntity
  8
0
  6
Continuous
 62
     7
370
    15
100
AcDbCircle
 10
188.3469770386
 20
179.3982982013
 30
0.0
 40
20.32050807568864
100
AcDbArc
 50
330.0
 51
30.0
  0
ARC
  5
12D
330
1F
100
AcDbEntity
  8
0
  6
Continuous
 62
     7
370
    15
100
AcDbCircle
 10
203.3469770386
 20
188.0585522391
 30
0.0
 40
2.999999999999556
100
AcDbArc
 50
30.0
 51
90.0
  0
ARC
  5
12E
330
1F
100
AcDbEntity
  8
0
  6
Continuous
 62
     7
370
    15
100
AcDbCircle
 10
303.8059238776
 20
72.0585522391
 30
0.0
 40
2.999999999999591
100
AcDbArc
 50
30.0
 51
90.0
  0
ARC
  5
12F
330
1F
100
AcDbEntity
  8
0
  6
Continuous
 62
     7
370
    15
100
AcDbCircle
 10
303.8059238776
 20
54.7380441634
 30
0.0
 40
20.32050807568869
100
AcDbArc
 50
90.0
 51
150.0
  0
ARC
  5
130
330
1F
100
AcDbEntity
  8
0
  6
Continuous
 62
     7
370
    15
100
AcDbCircle
 10
288.8059238776
 20
63.3982982013
 30
0.0
 40
2.999999999999552
100
AcDbArc
 50
150.0
 51
210.0
  0
ARC
  5
131
330
1F
100
AcDbEntity
  8
0
  6
Continuous
 62
     7
370
    15
100
AcDbCircle
 10
303.8059238776
 20
72.0585522391
 30
0.0
 40
20.32050807568865
100
AcDbArc
 50
210.0
 51
256.7607817156
  0
ARC
  5
132
330
1F
100
AcDbEntity
  8
0
  6
Continuous
 62
     7
370
    15
100
AcDbCircle
 10
299.8392292722
 20
55.1983821953
 30
0.0
 40
3.000000000000019
100
AcDbArc
 50
256.7607817156
 51
349.0189576907
  0
ARC
  5
133
330
1F
100
AcDbEntity
  8
0
  6
Continuous
 62
     7
370
    15
100
AcDbCircle
 10
310.1469770386
 20
53.1982982013
 30
0.0
 40
7.500000000000009
100
AcDbArc
 50
112.5571999048
 51
169.0189576907
  0
ARC
  5
134
330
1F
100
AcDbEntity
  8
0
  6
Continuous
 62
     7
370
    15
100
AcDbCircle
 10
306.1191185002
 20
62.8950170069
 30
0.0
 40
3.000000000000008
100
AcDbArc
 50
292.5571999048
 51
358.3349248482
  0
ARC
  5
135
330
1F
100
AcDbEntity
  8
0
  6
Continuous
 62
     7
370
    15
100
AcDbCircle
 10
288.8059238776
 20
63.3982982013
 30
0.0
 40
20.32050807568868
100
AcDbArc
 50
358.3349248482
 51
30.0
  0
ARC
  5
136
330
1F
100
AcDbEntity
  8
0
  6
Continuous
 62
     7
370
    15
100
AcDbCircle
 10
203.3469770386
 20
112.7380441634
 30
0.0
 40
20.32050807568868
100
AcDbArc
 50
90.0
 51
150.0
  0
ARC
  5
137
330
1F
100
AcDbEntity
  8
0
  6
Continuous
 62
     7
370
    15
100
AcDbCircle
 10
188.3469770386
 20
121.3982982013
 30
0.0
 40
2.999999999999581
100
AcDbArc
 50
150.0
 51
210.0
  0
ARC
  5
138
330
1F
100
AcDbEntity
  8
0
  6
Continuous
 62
     7
370
    15
100
AcDbCircle
 10
203.3469770386
 20
130.0585522391
 30
0.0
 40
20.32050807568866
100
AcDbArc
 50
210.0
 51
270.0
  0
ARC
  5
139
330
1F
100
AcDbEntity
  8
0
  6
Continuous
 62
     7
370
    15
100
AcDbCircle
 10
203.3469770386
 20
112.7380441634
 30
0.0
 40
2.999999999999559
100
AcDbArc
 50
270.0
 51
330.0
  0
ARC
  5
13A
330
1F
100
AcDbEntity
  8
0
  6
Continuous
 62
     7
370
    15
100
AcDbCircle
 10
188.3469770386
 20
121.3982982013
 30
0.0
 40
20.32050807568863
100
AcDbArc
 50
330.0
 51
30.0
  0
ARC
  5
13B
330
1F
100
AcDbEntity
  8
0
  6
Continuous
 62
     7
370
    15
100
AcDbCircle
 10
203.3469770386
 20
130.0585522391
 30
0.0
 40
2.999999999999574
100
AcDbArc
 50
30.0
 51
90.0
  0
ARC
  5
13C
330
1F
100
AcDbEntity
  8
0
  6
Continuous
 62
     7
370
    15
100
AcDbCircle
 10
278.6911871679
 20
156.2380441634
 30
0.0
 40
20.32050807568865
100
AcDbArc
 50
90.0
 51
150.0
  0
ARC
  5
13D
330
1F
100
AcDbEntity
  8
0
  6
Continuous
 62
     7
370
    15
100
AcDbCircle
 10
263.6911871679
 20
164.8982982013
 30
0.0
 40
2.999999999999605
100
AcDbArc
 50
150.0
 51
210.0
  0
ARC
  5
13E
330
1F
100
AcDbEntity
  8
0
  6
Continuous
 62
     7
370
    15
100
AcDbCircle
 10
278.6911871679
 20
173.5585522391
 30
0.0
 40
20.32050807568868
100
AcDbArc
 50
210.0
 51
270.0
  0
ARC
  5
13F
330
1F
100
AcDbEntity
  8
0
  6
Continuous
 62
     7
370
    15
100
AcDbCircle
 10
278.6911871679
 20
156.2380441634
 30
0.0
 40
2.999999999999574
100
AcDbArc
 50
270.0
 51
330.0
  0
ARC
  5
140
330
1F
100
AcDbEntity
  8
0
  6
Continuous
 62
     7
370
    15
100
AcDbCircle
 10
263.6911871679
 20
164.8982982013
 30
0.0
 40
20.32050807568861
100
AcDbArc
 50
330.0
 51
30.0
  0
ARC
  5
141
330
1F
100
AcDbEntity
  8
0
  6
Continuous
 62
     7
370
    15
100
AcDbCircle
 10
278.6911871679
 20
173.5585522391
 30
0.0
 40
2.999999999999545
100
AcDbArc
 50
30.0
 51
90.0
  0
ARC
  5
142
330
1F
100
AcDbEntity
  8
0
  6
Continuous
 62
     7
370
    15
100
AcDbCircle
 10
288.8059238776
 20
179.3982982013
 30
0.0
 40
2.999999999999542
100
AcDbArc
 50
150.0
 51
210.0
  0
ARC
  5
143
330
1F
100
AcDbEntity
  8
0
  6
Continuous
 62
     7
370
    15
100
AcDbCircle
 10
303.8059238776
 20
188.0585522391
 30
0.0
 40
20.32050807568865
100
AcDbArc
 50
210.0
 51
270.0
  0
ARC
  5
144
330
1F
100
AcDbEntity
  8
0
  6
Continuous
 62
     7
370
    15
100
AcDbCircle
 10
303.8059238776
 20
170.7380441634
 30
0.0
 40
2.999999999999605
100
AcDbArc
 50
270.0
 51
330.0
  0
ARC
  5
145
330
1F
100
AcDbEntity
  8
0
  6
Continuous
 62
     7
370
    15
100
AcDbCircle
 10
288.8059238776
 20
179.3982982013
 30
0.0
 40
20.32050807568869
100
AcDbArc
 50
330.0
 51
7.1547188352
  0
ARC
  5
146
330
1F
100
AcDbEntity
  8
0
  6
Continuous
 62
     7
370
    15
100
AcDbCircle
 10
305.9915648301
 20
181.5555522554
 30
0.0
 40
3.000000000000001
100
AcDbArc
 50
7.1547188352
 51
66.6870210614
  0
ARC
  5
147
330
1F
100
AcDbEntity
  8
0
  6
Continuous
 62
     7
370
    15
100
AcDbCircle
 10
310.1469770386
 20
191.1982982013
 30
0.0
 40
7.500000000000024
100
AcDbArc
 50
199.5209111317
 51
246.6870210614
  0
ARC
  5
148
330
1F
100
AcDbEntity
  8
0
  6
Continuous
 62
     7
370
    15
100
AcDbCircle
 10
300.2505212443
 20
187.6897140551
 30
0.0
 40
2.99999999999998
100
AcDbArc
 50
19.5209111317
 51
101.8453792026
  0
ARC
  5
149
330
1F
100
AcDbEntity
  8
0
  6
Continuous
 62
     7
370
    15
100
AcDbCircle
 10
303.8059238776
 20
170.7380441634
 30
0.0
 40
20.32050807568861
100
AcDbArc
 50
101.8453792026
 51
150.0
  0
ARC
  5
14A
330
1F
100
AcDbEntity
  8
0
  6
Continuous
 62
     7
370
    15
100
AcDbCircle
 10
303.8059238776
 20
112.7380441634
 30
0.0
 40
20.32050807568869
100
AcDbArc
 50
90.0
 51
150.0
  0
ARC
  5
14B
330
1F
100
AcDbEntity
  8
0
  6
Continuous
 62
     7
370
    15
100
AcDbCircle
 10
288.8059238776
 20
121.3982982013
 30
0.0
 40
2.999999999999556
100
AcDbArc
 50
150.0
 51
210.0
  0
ARC
  5
14C
330
1F
100
AcDbEntity
  8
0
  6
Continuous
 62
     7
370
    15
100
AcDbCircle
 10
303.8059238776
 20
130.0585522391
 30
0.0
 40
20.32050807568866
100
AcDbArc
 50
210.0
 51
270.0
  0
ARC
  5
14D
330
1F
100
AcDbEntity
  8
0
  6
Continuous
 62
     7
370
    15
100
AcDbCircle
 10
303.8059238776
 20
112.7380441634
 30
0.0
 40
2.999999999999598
100
AcDbArc
 50
270.0
 51
330.0
  0
ARC
  5
14E
330
1F
100
AcDbEntity
  8
0
  6
Continuous
 62
     7
370
    15
100
AcDbCircle
 10
288.8059238776
 20
121.3982982013
 30
0.0
 40
20.32050807568865
100
AcDbArc
 50
330.0
 51
30.0
  0
ARC
  5
14F
330
1F
100
AcDbEntity
  8
0
  6
Continuous
 62
     7
370
    15
100
AcDbCircle
 10
303.8059238776
 20
130.0585522391
 30
0.0
 40
2.999999999999591
100
AcDbArc
 50
30.0
 51
90.0
  0
ARC
  5
150
330
1F
100
AcDbEntity
  8
0
  6
Continuous
 62
     7
370
    15
100
AcDbCircle
 10
278.6911871679
 20
98.2380441634
 30
0.0
 40
20.32050807568868
100
AcDbArc
 50
90.0
 51
150.0
  0
ARC
  5
151
330
1F
100
AcDbEntity
  8
0
  6
Continuous
 62
     7
370
    15
100
AcDbCircle
 10
263.6911871679
 20
106.8982982013
 30
0.0
 40
2.999999999999598
100
AcDbArc
 50
150.0
 51
210.0
  0
ARC
  5
152
330
1F
100
AcDbEntity
  8
0
  6
Continuous
 62
     7
370
    15
100
AcDbCircle
 10
278.6911871679
 20
115.5585522391
 30
0.0
 40
20.32050807568868
100
AcDbArc
 50
210.0
 51
270.0
  0
ARC
  5
153
330
1F
100
AcDbEntity
  8
0
  6
Continuous
 62
     7
370
    15
100
AcDbCircle
 10
278.6911871679
 20
98.2380441634
 30
0.0
 40
2.999999999999545
100
AcDbArc
 50
270.0
 51
330.0
  0
ARC
  5
154
330
1F
100
AcDbEntity
  8
0
  6
Continuous
 62
     7
370
    15
100
AcDbCircle
 10
263.6911871679
 20
106.8982982013
 30
0.0
 40
20.32050807568861
100
AcDbArc
 50
330.0
 51
30.0
  0
ARC
  5
155
330
1F
100
AcDbEntity
  8
0
  6
Continuous
 62
     7
370
    15
100
AcDbCircle
 10
278.6911871679
 20
115.5585522391
 30
0.0
 40
2.999999999999549
100
AcDbArc
 50
30.0
 51
90.0
  0
ARC
  5
156
330
1F
100
AcDbEntity
  8
0
  6
Continuous
 62
     7
370
    15
100
AcDbCircle
 10
102.8880301996
 20
54.7380441634
 30
0.0
 40
2.999999999999545
100
AcDbArc
 50
270.0
 51
330.0
  0
ARC
  5
157
330
1F
100
AcDbEntity
  8
0
  6
Continuous
 62
     7
370
    15
100
AcDbCircle
 10
87.8880301996
 20
63.3982982013
 30
0.0
 40
20.32050807568863
100
AcDbArc
 50
330.0
 51
30.0
  0
ARC
  5
158
330
1F
100
AcDbEntity
  8
0
  6
Continuous
 62
     7
370
    15
100
AcDbCircle
 10
102.8880301996
 20
72.0585522391
 30
0.0
 40
2.999999999999559
100
AcDbArc
 50
30.0
 51
90.0
  0
ARC
  5
159
330
1F
100
AcDbEntity
  8
0
  6
Continuous
 62
     7
370
    15
100
AcDbCircle
 10
102.8880301996
 20
54.7380441634
 30
0.0
 40
20.32050807568867
100
AcDbArc
 50
90.0
 51
150.0
  0
ARC
  5
15A
330
1F
100
AcDbEntity
  8
0
  6
Continuous
 62
     7
370
    15
100
AcDbCircle
 10
87.8880301996
 20
63.3982982013
 30
0.0
 40
2.999999999999565
100
AcDbArc
 50
150.0
 51
210.0
  0
ARC
  5
15B
330
1F
100
AcDbEntity
  8
0
  6
Continuous
 62
     7
370
    15
100
AcDbCircle
 10
87.7394312266
 20
63.6303666927
 30
0.0
 40
3.000000000000001
100
AcDbArc
 50
215.264803325
 51
263.4790175163
  0
ARC
  5
15C
330
1F
100
AcDbEntity
  8
0
  6
Continuous
 62
     7
370
    15
100
AcDbCircle
 10
86.5469770386
 20
53.1982982013
 30
0.0
 40
7.499999999999995
100
AcDbArc
 50
14.807535796
 51
83.4790175163
  0
ARC
  5
15D
330
1F
100
AcDbEntity
  8
0
  6
Continuous
 62
     7
370
    15
100
AcDbCircle
 10
96.6982697589
 20
55.881813826
 30
0.0
 40
3.000000000000012
100
AcDbArc
 50
194.807535796
 51
249.0614799646
  0
ARC
  5
15E
330
1F
100
AcDbEntity
  8
0
  6
Continuous
 62
     7
370
    15
100
AcDbCircle
 10
102.8880301996
 20
72.0585522391
 30
0.0
 40
20.32050807568866
100
AcDbArc
 50
249.0614799646
 51
270.0
  0
ARC
  5
15F
330
1F
100
AcDbEntity
  8
0
  6
Continuous
 62
     7
370
    15
100
AcDbCircle
 10
128.0027669094
 20
69.2380441634
 30
0.0
 40
20.32050807568866
100
AcDbArc
 50
90.0
 51
150.0
  0
ARC
  5
160
330
1F
100
AcDbEntity
  8
0
  6
Continuous
 62
     7
370
    15
100
AcDbCircle
 10
113.0027669094
 20
77.8982982013
 30
0.0
 40
2.999999999999568
100
AcDbArc
 50
150.0
 51
210.0
  0
ARC
  5
161
330
1F
100
AcDbEntity
  8
0
  6
Continuous
 62
     7
370
    15
100
AcDbCircle
 10
128.0027669094
 20
86.5585522391
 30
0.0
 40
20.32050807568868
100
AcDbArc
 50
210.0
 51
270.0
  0
ARC
  5
162
330
1F
100
AcDbEntity
  8
0
  6
Continuous
 62
     7
370
    15
100
AcDbCircle
 10
128.0027669094
 20
69.2380441634
 30
0.0
 40
2.999999999999559
100
AcDbArc
 50
270.0
 51
330.0
  0
ARC
  5
163
330
1F
100
AcDbEntity
  8
0
  6
Continuous
 62
     7
370
    15
100
AcDbCircle
 10
113.0027669094
 20
77.8982982013
 30
0.0
 40
20.32050807568863
100
AcDbArc
 50
330.0
 51
30.0
  0
ARC
  5
164
330
1F
100
AcDbEntity
  8
0
  6
Continuous
 62
     7
370
    15
100
AcDbCircle
 10
128.0027669094
 20
86.5585522391
 30
0.0
 40
2.999999999999549
100
AcDbArc
 50
30.0
 51
90.0
  0
ARC
  5
165
330
1F
100
AcDbEntity
  8
0
  6
Continuous
 62
     7
370
    15
100
AcDbCircle
 10
178.2322403289
 20
156.2380441634
 30
0.0
 40
20.32050807568865
100
AcDbArc
 50
90.0
 51
150.0
  0
ARC
  5
166
330
1F
100
AcDbEntity
  8
0
  6
Continuous
 62
     7
370
    15
100
AcDbCircle
 10
163.2322403289
 20
164.8982982013
 30
0.0
 40
2.99999999999957
100
AcDbArc
 50
150.0
 51
210.0
  0
ARC
  5
167
330
1F
100
AcDbEntity
  8
0
  6
Continuous
 62
     7
370
    15
100
AcDbCircle
 10
178.2322403289
 20
173.5585522391
 30
0.0
 40
20.32050807568871
100
AcDbArc
 50
210.0
 51
270.0
  0
ARC
  5
168
330
1F
100
AcDbEntity
  8
0
  6
Continuous
 62
     7
370
    15
100
AcDbCircle
 10
178.2322403289
 20
156.2380441634
 30
0.0
 40
2.999999999999574
100
AcDbArc
 50
270.0
 51
330.0
  0
ARC
  5
169
330
1F
100
AcDbEntity
  8
0
  6
Continuous
 62
     7
370
    15
100
AcDbCircle
 10
163.2322403289
 20
164.8982982013
 30
0.0
 40
20.32050807568866
100
AcDbArc
 50
330.0
 51
30.0
  0
ARC
  5
16A
330
1F
100
AcDbEntity
  8
0
  6
Continuous
 62
     7
370
    15
100
AcDbCircle
 10
178.2322403289
 20
173.5585522391
 30
0.0
 40
2.999999999999542
100
AcDbArc
 50
30.0
 51
90.0
  0
ARC
  5
16B
330
1F
100
AcDbEntity
  8
0
  6
Continuous
 62
     7
370
    15
100
AcDbCircle
 10
87.8880301996
 20
179.3982982013
 30
0.0
 40
2.999999999999554
100
AcDbArc
 50
150.0
 51
210.0
  0
ARC
  5
16C
330
1F
100
AcDbEntity
  8
0
  6
Continuous
 62
     7
370
    15
100
AcDbCircle
 10
102.8880301996
 20
188.0585522391
 30
0.0
 40
20.32050807568868
100
AcDbArc
 50
210.0
 51
270.0
  0
ARC
  5
16D
330
1F
100
AcDbEntity
  8
0
  6
Continuous
 62
     7
370
    15
100
AcDbCircle
 10
102.8880301996
 20
170.7380441634
 30
0.0
 40
2.999999999999574
100
AcDbArc
 50
270.0
 51
330.0
  0
ARC
  5
16E
330
1F
100
AcDbEntity
  8
0
  6
Continuous
 62
     7
370
    15
100
AcDbCircle
 10
87.8880301996
 20
179.3982982013
 30
0.0
 40
20.32050807568864
100
AcDbArc
 50
330.0
 51
30.0
  0
ARC
  5
16F
330
1F
100
AcDbEntity
  8
0
  6
Continuous
 62
     7
370
    15
100
AcDbCircle
 10
102.8880301996
 20
188.0585522391
 30
0.0
 40
2.999999999999543
100
AcDbArc
 50
30.0
 51
90.0
  0
ARC
  5
170
330
1F
100
AcDbEntity
  8
0
  6
Continuous
 62
     7
370
    15
100
AcDbCircle
 10
102.8880301996
 20
170.7380441634
 30
0.0
 40
20.32050807568864
100
AcDbArc
 50
90.0
 51
113.4281410503
  0
ARC
  5
171
330
1F
100
AcDbEntity
  8
0
  6
Continuous
 62
     7
370
    15
100
AcDbCircle
 10
96.0014204105
 20
186.6306401003
 30
0.0
 40
3.000000000000024
100
AcDbArc
 50
113.4281410503
 51
154.2137480027
  0
ARC
  5
172
330
1F
100
AcDbEntity
  8
0
  6
Continuous
 62
     7
370
    15
100
AcDbCircle
 10
86.5469770386
 20
191.1982982013
 30
0.0
 40
7.500000000000017
100
AcDbArc
 50
283.0130894781
 51
334.2137480027
  0
ARC
  5
173
330
1F
100
AcDbEntity
  8
0
  6
Continuous
 62
     7
370
    15
100
AcDbCircle
 10
88.9113003394
 20
180.9679523943
 30
0.0
 40
3.000000000000007
100
AcDbArc
 50
103.0130894781
 51
143.7986964305
  0
ARC
  5
174
330
1F
100
AcDbEntity
  8
0
  6
Continuous
 62
     7
370
    15
100
AcDbCircle
 10
102.8880301996
 20
170.7380441634
 30
0.0
 40
20.32050807568864
100
AcDbArc
 50
143.7986964305
 51
150.0
  0
CIRCLE
  5
175
330
1F
100
AcDbEntity
  8
0
  6
Continuous
 62
     7
370
    15
100
AcDbCircle
 10
59.7719770386
 20
91.6983082013
 30
0.0
 40
2.0
  0
ARC
  5
176
330
1F
100
AcDbEntity
  8
0
  6
Continuous
 62
     7
370
    15
100
AcDbCircle
 10
128.0027669094
 20
127.2380441634
 30
0.0
 40
20.32050807568866
100
AcDbArc
 50
90.0
 51
150.0
  0
ARC
  5
177
330
1F
100
AcDbEntity
  8
0
  6
Continuous
 62
     7
370
    15
100
AcDbCircle
 10
113.0027669094
 20
135.8982982013
 30
0.0
 40
2.999999999999583
100
AcDbArc
 50
150.0
 51
210.0
  0
ARC
  5
178
330
1F
100
AcDbEntity
  8
0
  6
Continuous
 62
     7
370
    15
100
AcDbCircle
 10
128.0027669094
 20
144.5585522391
 30
0.0
 40
20.32050807568868
100
AcDbArc
 50
210.0
 51
270.0
  0
ARC
  5
179
330
1F
100
AcDbEntity
  8
0
  6
Continuous
 62
     7
370
    15
100
AcDbCircle
 10
128.0027669094
 20
127.2380441634
 30
0.0
 40
2.999999999999559
100
AcDbArc
 50
270.0
 51
330.0
  0
ARC
  5
17A
330
1F
100
AcDbEntity
  8
0
  6
Continuous
 62
     7
370
    15
100
AcDbCircle
 10
113.0027669094
 20
135.8982982013
 30
0.0
 40
20.32050807568865
100
AcDbArc
 50
330.0
 51
30.0
  0
ARC
  5
17B
330
1F
100
AcDbEntity
  8
0
  6
Continuous
 62
     7
370
    15
100
AcDbCircle
 10
128.0027669094
 20
144.5585522391
 30
0.0
 40
2.999999999999545
100
AcDbArc
 50
30.0
 51
90.0
  0
ARC
  5
17C
330
1F
100
AcDbEntity
  8
0
  6
Continuous
 62
     7
370
    15
100
AcDbCircle
 10
102.8880301996
 20
112.7380441634
 30
0.0
 40
20.32050807568868
100
AcDbArc
 50
90.0
 51
150.0
  0
ARC
  5
17D
330
1F
100
AcDbEntity
  8
0
  6
Continuous
 62
     7
370
    15
100
AcDbCircle
 10
87.8880301996
 20
121.3982982013
 30
0.0
 40
2.999999999999561
100
AcDbArc
 50
150.0
 51
210.0
  0
ARC
  5
17E
330
1F
100
AcDbEntity
  8
0
  6
Continuous
 62
     7
370
    15
100
AcDbCircle
 10
102.8880301996
 20
130.0585522391
 30
0.0
 40
20.32050807568868
100
AcDbArc
 50
210.0
 51
270.0
  0
ARC
  5
17F
330
1F
100
AcDbEntity
  8
0
  6
Continuous
 62
     7
370
    15
100
AcDbCircle
 10
102.8880301996
 20
112.7380441634
 30
0.0
 40
2.999999999999545
100
AcDbArc
 50
270.0
 51
330.0
  0
ARC
  5
180
330
1F
100
AcDbEntity
  8
0
  6
Continuous
 62
     7
370
    15
100
AcDbCircle
 10
87.8880301996
 20
121.3982982013
 30
0.0
 40
20.32050807568863
100
AcDbArc
 50
330.0
 51
30.0
  0
ARC
  5
181
330
1F
100
AcDbEntity
  8
0
  6
Continuous
 62
     7
370
    15
100
AcDbCircle
 10
102.8880301996
 20
130.0585522391
 30
0.0
 40
2.999999999999545
100
AcDbArc
 50
30.0
 51
90.0
  0
ARC
  5
182
330
1F
100
AcDbEntity
  8
0
  6
Continuous
 62
     7
370
    15
100
AcDbCircle
 10
359.0353972971
 20
63.3982982013
 30
0.0
 40
3.000000000000007
100
AcDbArc
 50
330.0
 51
30.0
  0
ARC
  5
183
330
1F
100
AcDbEntity
  8
0
  6
Continuous
 62
     7
370
    15
100
AcDbCircle
 10
344.0353972971
 20
54.7380441634
 30
0.0
 40
20.32050807568879
100
AcDbArc
 50
30.0
 51
90.0
  0
ARC
  5
184
330
1F
100
AcDbEntity
  8
0
  6
Continuous
 62
     7
370
    15
100
AcDbCircle
 10
344.0353972971
 20
72.0585522391
 30
0.0
 40
3.0
100
AcDbArc
 50
90.0
 51
150.0
  0
ARC
  5
185
330
1F
100
AcDbEntity
  8
0
  6
Continuous
 62
     7
370
    15
100
AcDbCircle
 10
359.0353972971
 20
63.3982982013
 30
0.0
 40
20.32050807568879
100
AcDbArc
 50
150.0
 51
185.0495295565
  0
ARC
  5
186
330
1F
100
AcDbEntity
  8
0
  6
Continuous
 62
     7
370
    15
100
AcDbCircle
 10
341.7821103945
 20
61.8738012173
 30
0.0
 40
3.000000000000046
100
AcDbArc
 50
185.0495295565
 51
304.2857541395
  0
ARC
  5
187
330
1F
100
AcDbEntity
  8
0
  6
Continuous
 62
     7
370
    15
100
AcDbCircle
 10
347.6969770386
 20
53.1982982013
 30
0.0
 40
7.50000000000002
100
AcDbArc
 50
37.3827013011
 51
124.2857541395
  0
ARC
  5
188
330
1F
100
AcDbEntity
  8
0
  6
Continuous
 62
     7
370
    15
100
AcDbCircle
 10
356.0402556479
 20
59.5732258125
 30
0.0
 40
2.999999999999989
100
AcDbArc
 50
217.3827013011
 51
313.8760696547
  0
ARC
  5
189
330
1F
100
AcDbEntity
  8
0
  6
Continuous
 62
     7
370
    15
100
AcDbCircle
 10
344.0353972971
 20
72.0585522391
 30
0.0
 40
20.32050807568877
100
AcDbArc
 50
313.8760696547
 51
330.0
  0
ARC
  5
18A
330
1F
100
AcDbEntity
  8
0
  6
Continuous
 62
     7
370
    15
100
AcDbCircle
 10
293.8059238776
 20
101.0585522391
 30
0.0
 40
20.32050807568882
100
AcDbArc
 50
270.0
 51
330.0
  0
ARC
  5
18B
330
1F
100
AcDbEntity
  8
0
  6
Continuous
 62
     7
370
    15
100
AcDbCircle
 10
308.8059238776
 20
92.3982982013
 30
0.0
 40
3.000000000000007
100
AcDbArc
 50
330.0
 51
30.0
  0
ARC
  5
18C
330
1F
100
AcDbEntity
  8
0
  6
Continuous
 62
     7
370
    15
100
AcDbCircle
 10
293.8059238776
 20
83.7380441634
 30
0.0
 40
20.32050807568883
100
AcDbArc
 50
30.0
 51
90.0
  0
ARC
  5
18D
330
1F
100
AcDbEntity
  8
0
  6
Continuous
 62
     7
370
    15
100
AcDbCircle
 10
293.8059238776
 20
101.0585522391
 30
0.0
 40
3.0
100
AcDbArc
 50
90.0
 51
150.0
  0
ARC
  5
18E
330
1F
100
AcDbEntity
  8
0
  6
Continuous
 62
     7
370
    15
100
AcDbCircle
 10
308.8059238776
 20
92.3982982013
 30
0.0
 40
20.32050807568878
100
AcDbArc
 50
150.0
 51
210.0
  0
ARC
  5
18F
330
1F
100
AcDbEntity
  8
0
  6
Continuous
 62
     7
370
    15
100
AcDbCircle
 10
293.8059238776
 20
83.7380441634
 30
0.0
 40
3.0
100
AcDbArc
 50
210.0
 51
270.0
  0
ARC
  5
190
330
1F
100
AcDbEntity
  8
0
  6
Continuous
 62
     7
370
    15
100
AcDbCircle
 10
118.0027669094
 20
173.5585522391
 30
0.0
 40
20.32050807568882
100
AcDbArc
 50
270.0
 51
330.0
  0
ARC
  5
191
330
1F
100
AcDbEntity
  8
0
  6
Continuous
 62
     7
370
    15
100
AcDbCircle
 10
133.0027669094
 20
164.8982982013
 30
0.0
 40
3.000000000000014
100
AcDbArc
 50
330.0
 51
30.0
  0
ARC
  5
192
330
1F
100
AcDbEntity
  8
0
  6
Continuous
 62
     7
370
    15
100
AcDbCircle
 10
118.0027669094
 20
156.2380441634
 30
0.0
 40
20.32050807568883
100
AcDbArc
 50
30.0
 51
90.0
  0
ARC
  5
193
330
1F
100
AcDbEntity
  8
0
  6
Continuous
 62
     7
370
    15
100
AcDbCircle
 10
118.0027669094
 20
173.5585522391
 30
0.0
 40
3.0
100
AcDbArc
 50
90.0
 51
150.0
  0
ARC
  5
194
330
1F
100
AcDbEntity
  8
0
  6
Continuous
 62
     7
370
    15
100
AcDbCircle
 10
133.0027669094
 20
164.8982982013
 30
0.0
 40
20.3205080756888
100
AcDbArc
 50
150.0
 51
210.0
  0
ARC
  5
195
330
1F
100
AcDbEntity
  8
0
  6
Continuous
 62
     7
370
    15
100
AcDbCircle
 10
118.0027669094
 20
156.2380441634
 30
0.0
 40
3.0
100
AcDbArc
 50
210.0
 51
270.0
  0
ARC
  5
196
330
1F
100
AcDbEntity
  8
0
  6
Continuous
 62
     7
370
    15
100
AcDbCircle
 10
333.9206605874
 20
164.8982982013
 30
0.0
 40
20.32050807568878
100
AcDbArc
 50
150.0
 51
210.0
  0
ARC
  5
197
330
1F
100
AcDbEntity
  8
0
  6
Continuous
 62
     7
370
    15
100
AcDbCircle
 10
318.9206605874
 20
156.2380441634
 30
0.0
 40
3.0
100
AcDbArc
 50
210.0
 51
270.0
  0
ARC
  5
198
330
1F
100
AcDbEntity
  8
0
  6
Continuous
 62
     7
370
    15
100
AcDbCircle
 10
318.9206605874
 20
173.5585522391
 30
0.0
 40
20.32050807568883
100
AcDbArc
 50
270.0
 51
330.0
  0
ARC
  5
199
330
1F
100
AcDbEntity
  8
0
  6
Continuous
 62
     7
370
    15
100
AcDbCircle
 10
333.9206605874
 20
164.8982982013
 30
0.0
 40
3.000000000000049
100
AcDbArc
 50
330.0
 51
30.0
  0
ARC
  5
19A
330
1F
100
AcDbEntity
  8
0
  6
Continuous
 62
     7
370
    15
100
AcDbCircle
 10
318.9206605874
 20
156.2380441634
 30
0.0
 40
20.32050807568883
100
AcDbArc
 50
30.0
 51
49.4472411277
  0
ARC
  5
19B
330
1F
100
AcDbEntity
  8
0
  6
Continuous
 62
     7
370
    15
100
AcDbCircle
 10
330.1815536985
 20
169.3982982013
 30
0.0
 40
3.0
100
AcDbArc
 50
49.4472411277
 51
90.0
  0
LINE
  5
19C
330
1F
100
AcDbEntity
  8
0
  6
Continuous
 62
     7
370
    15
100
AcDbLine
 10
330.1815536985
 20
172.3982982013
 30
0.0
 11
319.8469770386
 21
172.3982982013
 31
0.0
  0
ARC
  5
19D
330
1F
100
AcDbEntity
  8
0
  6
Continuous
 62
     7
370
    15
100
AcDbCircle
 10
319.8469770386
 20
175.3982982013
 30
0.0
 40
3.0
100
AcDbArc
 50
180.0
 51
270.0
  0
LINE
  5
19E
330
1F
100
AcDbEntity
  8
0
  6
Continuous
 62
     7
370
    15
100
AcDbLine
 10
316.8469770386
 20
175.3982982013
 30
0.0
 11
316.8469770386
 21
175.7264628783
 31
0.0
  0
ARC
  5
19F
330
1F
100
AcDbEntity
  8
0
  6
Continuous
 62
     7
370
    15
100
AcDbCircle
 10
318.9206605874
 20
173.5585522391
 30
0.0
 40
3.0
100
AcDbArc
 50
133.727382558
 51
150.0
  0
ARC
  5
1A0
330
1F
100
AcDbEntity
  8
0
  6
Continuous
 62
     7
370
    15
100
AcDbCircle
 10
293.8059238776
 20
159.0585522391
 30
0.0
 40
20.32050807568881
100
AcDbArc
 50
270.0
 51
330.0
  0
ARC
  5
1A1
330
1F
100
AcDbEntity
  8
0
  6
Continuous
 62
     7
370
    15
100
AcDbCircle
 10
308.8059238776
 20
150.3982982013
 30
0.0
 40
3.0
100
AcDbArc
 50
330.0
 51
30.0
  0
ARC
  5
1A2
330
1F
100
AcDbEntity
  8
0
  6
Continuous
 62
     7
370
    15
100
AcDbCircle
 10
293.8059238776
 20
141.7380441634
 30
0.0
 40
20.32050807568883
100
AcDbArc
 50
30.0
 51
90.0
  0
ARC
  5
1A3
330
1F
100
AcDbEntity
  8
0
  6
Continuous
 62
     7
370
    15
100
AcDbCircle
 10
293.8059238776
 20
159.0585522391
 30
0.0
 40
3.0
100
AcDbArc
 50
90.0
 51
150.0
  0
ARC
  5
1A4
330
1F
100
AcDbEntity
  8
0
  6
Continuous
 62
     7
370
    15
100
AcDbCircle
 10
308.8059238776
 20
150.3982982013
 30
0.0
 40
20.32050807568878
100
AcDbArc
 50
150.0
 51
210.0
  0
ARC
  5
1A5
330
1F
100
AcDbEntity
  8
0
  6
Continuous
 62
     7
370
    15
100
AcDbCircle
 10
293.8059238776
 20
141.7380441634
 30
0.0
 40
3.0
100
AcDbArc
 50
210.0
 51
270.0
  0
ARC
  5
1A6
330
1F
100
AcDbEntity
  8
0
  6
Continuous
 62
     7
370
    15
100
AcDbCircle
 10
268.6911871679
 20
144.5585522391
 30
0.0
 40
20.32050807568879
100
AcDbArc
 50
270.0
 51
330.0
  0
ARC
  5
1A7
330
1F
100
AcDbEntity
  8
0
  6
Continuous
 62
     7
370
    15
100
AcDbCircle
 10
283.6911871679
 20
135.8982982013
 30
0.0
 40
3.000000000000014
100
AcDbArc
 50
330.0
 51
30.0
  0
ARC
  5
1A8
330
1F
100
AcDbEntity
  8
0
  6
Continuous
 62
     7
370
    15
100
AcDbCircle
 10
268.6911871679
 20
127.2380441634
 30
0.0
 40
20.32050807568881
100
AcDbArc
 50
30.0
 51
90.0
  0
ARC
  5
1A9
330
1F
100
AcDbEntity
  8
0
  6
Continuous
 62
     7
370
    15
100
AcDbCircle
 10
268.6911871679
 20
144.5585522391
 30
0.0
 40
3.000000000000049
100
AcDbArc
 50
90.0
 51
150.0
  0
ARC
  5
1AA
330
1F
100
AcDbEntity
  8
0
  6
Continuous
 62
     7
370
    15
100
AcDbCircle
 10
283.6911871679
 20
135.8982982013
 30
0.0
 40
20.32050807568883
100
AcDbArc
 50
150.0
 51
210.0
  0
ARC
  5
1AB
330
1F
100
AcDbEntity
  8
0
  6
Continuous
 62
     7
370
    15
100
AcDbCircle
 10
268.6911871679
 20
127.2380441634
 30
0.0
 40
3.000000000000049
100
AcDbArc
 50
210.0
 51
270.0
  0
ARC
  5
1AC
330
1F
100
AcDbEntity
  8
0
  6
Continuous
 62
     7
370
    15
100
AcDbCircle
 10
118.0027669094
 20
115.5585522391
 30
0.0
 40
20.3205080756888
100
AcDbArc
 50
270.0
 51
330.0
  0
ARC
  5
1AD
330
1F
100
AcDbEntity
  8
0
  6
Continuous
 62
     7
370
    15
100
AcDbCircle
 10
133.0027669094
 20
106.8982982013
 30
0.0
 40
3.000000000000007
100
AcDbArc
 50
330.0
 51
30.0
  0
ARC
  5
1AE
330
1F
100
AcDbEntity
  8
0
  6
Continuous
 62
     7
370
    15
100
AcDbCircle
 10
118.0027669094
 20
98.2380441634
 30
0.0
 40
20.3205080756888
100
AcDbArc
 50
30.0
 51
90.0
  0
ARC
  5
1AF
330
1F
100
AcDbEntity
  8
0
  6
Continuous
 62
     7
370
    15
100
AcDbCircle
 10
118.0027669094
 20
115.5585522391
 30
0.0
 40
3.0
100
AcDbArc
 50
90.0
 51
150.0
  0
ARC
  5
1B0
330
1F
100
AcDbEntity
  8
0
  6
Continuous
 62
     7
370
    15
100
AcDbCircle
 10
133.0027669094
 20
106.8982982013
 30
0.0
 40
20.3205080756888
100
AcDbArc
 50
150.0
 51
210.0
  0
ARC
  5
1B1
330
1F
100
AcDbEntity
  8
0
  6
Continuous
 62
     7
370
    15
100
AcDbCircle
 10
118.0027669094
 20
98.2380441634
 30
0.0
 40
3.0
100
AcDbArc
 50
210.0
 51
270.0
  0
ARC
  5
1B2
330
1F
100
AcDbEntity
  8
0
  6
Continuous
 62
     7
370
    15
100
AcDbCircle
 10
268.6911871679
 20
86.5585522391
 30
0.0
 40
20.32050807568878
100
AcDbArc
 50
270.0
 51
330.0
  0
ARC
  5
1B3
330
1F
100
AcDbEntity
  8
0
  6
Continuous
 62
     7
370
    15
100
AcDbCircle
 10
283.6911871679
 20
77.8982982013
 30
0.0
 40
3.000000000000007
100
AcDbArc
 50
330.0
 51
30.0
  0
ARC
  5
1B4
330
1F
100
AcDbEntity
  8
0
  6
Continuous
 62
     7
370
    15
100
AcDbCircle
 10
268.6911871679
 20
69.2380441634
 30
0.0
 40
20.32050807568879
100
AcDbArc
 50
30.0
 51
90.0
  0
ARC
  5
1B5
330
1F
100
AcDbEntity
  8
0
  6
Continuous
 62
     7
370
    15
100
AcDbCircle
 10
268.6911871679
 20
86.5585522391
 30
0.0
 40
3.000000000000056
100
AcDbArc
 50
90.0
 51
150.0
  0
ARC
  5
1B6
330
1F
100
AcDbEntity
  8
0
  6
Continuous
 62
     7
370
    15
100
AcDbCircle
 10
283.6911871679
 20
77.8982982013
 30
0.0
 40
20.32050807568883
100
AcDbArc
 50
150.0
 51
210.0
  0
ARC
  5
1B7
330
1F
100
AcDbEntity
  8
0
  6
Continuous
 62
     7
370
    15
100
AcDbCircle
 10
268.6911871679
 20
69.2380441634
 30
0.0
 40
3.000000000000049
100
AcDbArc
 50
210.0
 51
270.0
  0
ARC
  5
1B8
330
1F
100
AcDbEntity
  8
0
  6
Continuous
 62
     7
370
    15
100
AcDbCircle
 10
92.8880301996
 20
159.0585522391
 30
0.0
 40
20.32050807568879
100
AcDbArc
 50
270.0
 51
330.0
  0
ARC
  5
1B9
330
1F
100
AcDbEntity
  8
0
  6
Continuous
 62
     7
370
    15
100
AcDbCircle
 10
107.8880301996
 20
150.3982982013
 30
0.0
 40
3.000000000000027
100
AcDbArc
 50
330.0
 51
30.0
  0
ARC
  5
1BA
330
1F
100
AcDbEntity
  8
0
  6
Continuous
 62
     7
370
    15
100
AcDbCircle
 10
92.8880301996
 20
141.7380441634
 30
0.0
 40
20.32050807568882
100
AcDbArc
 50
30.0
 51
90.0
  0
ARC
  5
1BB
330
1F
100
AcDbEntity
  8
0
  6
Continuous
 62
     7
370
    15
100
AcDbCircle
 10
92.8880301996
 20
159.0585522391
 30
0.0
 40
3.0
100
AcDbArc
 50
90.0
 51
150.0
  0
ARC
  5
1BC
330
1F
100
AcDbEntity
  8
0
  6
Continuous
 62
     7
370
    15
100
AcDbCircle
 10
107.8880301996
 20
150.3982982013
 30
0.0
 40
20.32050807568878
100
AcDbArc
 50
150.0
 51
210.0
  0
ARC
  5
1BD
330
1F
100
AcDbEntity
  8
0
  6
Continuous
 62
     7
370
    15
100
AcDbCircle
 10
92.8880301996
 20
141.7380441634
 30
0.0
 40
3.0
100
AcDbArc
 50
210.0
 51
270.0
  0
ARC
  5
1BE
330
1F
100
AcDbEntity
  8
0
  6
Continuous
 62
     7
370
    15
100
AcDbCircle
 10
218.4617137484
 20
173.5585522391
 30
0.0
 40
20.32050807568882
100
AcDbArc
 50
270.0
 51
330.0
  0
ARC
  5
1BF
330
1F
100
AcDbEntity
  8
0
  6
Continuous
 62
     7
370
    15
100
AcDbCircle
 10
233.4617137484
 20
164.8982982013
 30
0.0
 40
3.000000000000053
100
AcDbArc
 50
330.0
 51
30.0
  0
ARC
  5
1C0
330
1F
100
AcDbEntity
  8
0
  6
Continuous
 62
     7
370
    15
100
AcDbCircle
 10
218.4617137484
 20
156.2380441634
 30
0.0
 40
20.32050807568883
100
AcDbArc
 50
30.0
 51
90.0
  0
ARC
  5
1C1
330
1F
100
AcDbEntity
  8
0
  6
Continuous
 62
     7
370
    15
100
AcDbCircle
 10
218.4617137484
 20
173.5585522391
 30
0.0
 40
3.0
100
AcDbArc
 50
90.0
 51
150.0
  0
ARC
  5
1C2
330
1F
100
AcDbEntity
  8
0
  6
Continuous
 62
     7
370
    15
100
AcDbCircle
 10
233.4617137484
 20
164.8982982013
 30
0.0
 40
20.32050807568879
100
AcDbArc
 50
150.0
 51
210.0
  0
ARC
  5
1C3
330
1F
100
AcDbEntity
  8
0
  6
Continuous
 62
     7
370
    15
100
AcDbCircle
 10
218.4617137484
 20
156.2380441634
 30
0.0
 40
3.0
100
AcDbArc
 50
210.0
 51
270.0
  0
ARC
  5
1C4
330
1F
100
AcDbEntity
  8
0
  6
Continuous
 62
     7
370
    15
100
AcDbCircle
 10
92.8880301996
 20
101.0585522391
 30
0.0
 40
20.3205080756888
100
AcDbArc
 50
270.0
 51
330.0
  0
ARC
  5
1C5
330
1F
100
AcDbEntity
  8
0
  6
Continuous
 62
     7
370
    15
100
AcDbCircle
 10
107.8880301996
 20
92.3982982013
 30
0.0
 40
3.00000000000002
100
AcDbArc
 50
330.0
 51
30.0
  0
ARC
  5
1C6
330
1F
100
AcDbEntity
  8
0
  6
Continuous
 62
     7
370
    15
100
AcDbCircle
 10
92.8880301996
 20
83.7380441634
 30
0.0
 40
20.3205080756888
100
AcDbArc
 50
30.0
 51
90.0
  0
ARC
  5
1C7
330
1F
100
AcDbEntity
  8
0
  6
Continuous
 62
     7
370
    15
100
AcDbCircle
 10
92.8880301996
 20
101.0585522391
 30
0.0
 40
3.0
100
AcDbArc
 50
90.0
 51
150.0
  0
ARC
  5
1C8
330
1F
100
AcDbEntity
  8
0
  6
Continuous
 62
     7
370
    15
100
AcDbCircle
 10
107.8880301996
 20
92.3982982013
 30
0.0
 40
20.32050807568879
100
AcDbArc
 50
150.0
 51
210.0
  0
ARC
  5
1C9
330
1F
100
AcDbEntity
  8
0
  6
Continuous
 62
     7
370
    15
100
AcDbCircle
 10
92.8880301996
 20
83.7380441634
 30
0.0
 40
3.0
100
AcDbArc
 50
210.0
 51
270.0
  0
ARC
  5
1CA
330
1F
100
AcDbEntity
  8
0
  6
Continuous
 62
     7
370
    15
100
AcDbCircle
 10
193.3469770386
 20
159.0585522391
 30
0.0
 40
20.32050807568879
100
AcDbArc
 50
270.0
 51
330.0
  0
ARC
  5
1CB
330
1F
100
AcDbEntity
  8
0
  6
Continuous
 62
     7
370
    15
100
AcDbCircle
 10
208.3469770386
 20
150.3982982013
 30
0.0
 40
3.0
100
AcDbArc
 50
330.0
 51
30.0
  0
ARC
  5
1CC
330
1F
100
AcDbEntity
  8
0
  6
Continuous
 62
     7
370
    15
100
AcDbCircle
 10
193.3469770386
 20
141.7380441634
 30
0.0
 40
20.32050807568879
100
AcDbArc
 50
30.0
 51
90.0
  0
ARC
  5
1CD
330
1F
100
AcDbEntity
  8
0
  6
Continuous
 62
     7
370
    15
100
AcDbCircle
 10
193.3469770386
 20
159.0585522391
 30
0.0
 40
3.0
100
AcDbArc
 50
90.0
 51
150.0
  0
ARC
  5
1CE
330
1F
100
AcDbEntity
  8
0
  6
Continuous
 62
     7
370
    15
100
AcDbCircle
 10
208.3469770386
 20
150.3982982013
 30
0.0
 40
20.32050807568878
100
AcDbArc
 50
150.0
 51
210.0
  0
ARC
  5
1CF
330
1F
100
AcDbEntity
  8
0
  6
Continuous
 62
     7
370
    15
100
AcDbCircle
 10
193.3469770386
 20
141.7380441634
 30
0.0
 40
3.0
100
AcDbArc
 50
210.0
 51
270.0
  0
ARC
  5
1D0
330
1F
100
AcDbEntity
  8
0
  6
Continuous
 62
     7
370
    15
100
AcDbCircle
 10
228.4617137484
 20
69.2380441634
 30
0.0
 40
2.999999999999549
100
AcDbArc
 50
270.0
 51
330.0
  0
ARC
  5
1D1
330
1F
100
AcDbEntity
  8
0
  6
Continuous
 62
     7
370
    15
100
AcDbCircle
 10
228.0972220576
 20
68.2104755607
 30
0.0
 40
3.0
100
AcDbArc
 50
350.9395098197
 51
32.0935879387
  0
ARC
  5
1D2
330
1F
100
AcDbEntity
  8
0
  6
Continuous
 62
     7
370
    15
100
AcDbCircle
 10
233.180310372
 20
71.3982982013
 30
0.0
 40
3.000000000000007
100
AcDbArc
 50
180.0
 51
212.0935879388
  0
LINE
  5
1D3
330
1F
100
AcDbEntity
  8
0
  6
Continuous
 62
     7
370
    15
100
AcDbLine
 10
230.180310372
 20
71.3982982013
 30
0.0
 11
230.180310372
 21
73.3982982013
 31
0.0
  0
ARC
  5
1D4
330
1F
100
AcDbEntity
  8
0
  6
Continuous
 62
     7
370
    15
100
AcDbCircle
 10
233.180310372
 20
73.3982982013
 30
0.0
 40
3.0
100
AcDbArc
 50
113.8521221888
 51
180.0
  0
ARC
  5
1D5
330
1F
100
AcDbEntity
  8
0
  6
Continuous
 62
     7
370
    15
100
AcDbCircle
 10
230.7540455427
 20
78.885851297
 30
0.0
 40
3.000000000000025
100
AcDbArc
 50
293.8521221888
 51
3.268571929
  0
ARC
  5
1D6
330
1F
100
AcDbEntity
  8
0
  6
Continuous
 62
     7
370
    15
100
AcDbCircle
 10
213.4617137484
 20
77.8982982013
 30
0.0
 40
20.32050807568867
100
AcDbArc
 50
3.268571929
 51
22.0453433547
  0
ARC
  5
1D7
330
1F
100
AcDbEntity
  8
0
  6
Continuous
 62
     7
370
    15
100
AcDbCircle
 10
229.5158693189
 20
84.3993818738
 30
0.0
 40
3.000000000000016
100
AcDbArc
 50
22.0453433547
 51
59.1706194595
  0
ARC
  5
1D8
330
1F
100
AcDbEntity
  8
0
  6
Continuous
 62
     7
370
    15
100
AcDbCircle
 10
233.8719770386
 20
91.6983082013
 30
0.0
 40
5.500000000000004
100
AcDbArc
 50
217.6338738821
 51
239.1706194595
  0
ARC
  5
1D9
330
1F
100
AcDbEntity
  8
0
  6
Continuous
 62
     7
370
    15
100
AcDbCircle
 10
227.1405824042
 20
86.5080937283
 30
0.0
 40
3.000000000000008
100
AcDbArc
 50
37.6338738821
 51
94.3745161147
  0
ARC
  5
1DA
330
1F
100
AcDbEntity
  8
0
  6
Continuous
 62
     7
370
    15
100
AcDbCircle
 10
228.4617137484
 20
69.2380441634
 30
0.0
 40
20.32050807568865
100
AcDbArc
 50
94.3745161147
 51
128.8560483448
  0
ARC
  5
1DB
330
1F
100
AcDbEntity
  8
0
  6
Continuous
 62
     7
370
    15
100
AcDbCircle
 10
213.831222636
 20
87.3982982013
 30
0.0
 40
3.000000000000013
100
AcDbArc
 50
270.0
 51
308.8560483448
  0
LINE
  5
1DC
330
1F
100
AcDbEntity
  8
0
  6
Continuous
 62
     7
370
    15
100
AcDbLine
 10
213.831222636
 20
84.3982982013
 30
0.0
 11
212.2478647567
 21
84.3982982013
 31
0.0
  0
ARC
  5
1DD
330
1F
100
AcDbEntity
  8
0
  6
Continuous
 62
     7
370
    15
100
AcDbCircle
 10
212.2478647567
 20
87.3982982013
 30
0.0
 40
3.000000000000021
100
AcDbArc
 50
144.1432005865
 51
270.0
  0
ARC
  5
1DE
330
1F
100
AcDbEntity
  8
0
  6
Continuous
 62
     7
370
    15
100
AcDbCircle
 10
193.3469770386
 20
101.0585522391
 30
0.0
 40
20.3205080756888
100
AcDbArc
 50
324.1432005865
 51
330.0
  0
ARC
  5
1DF
330
1F
100
AcDbEntity
  8
0
  6
Continuous
 62
     7
370
    15
100
AcDbCircle
 10
208.3469770386
 20
92.3982982013
 30
0.0
 40
3.0
100
AcDbArc
 50
330.0
 51
30.0
  0
ARC
  5
1E0
330
1F
100
AcDbEntity
  8
0
  6
Continuous
 62
     7
370
    15
100
AcDbCircle
 10
193.3469770386
 20
83.7380441634
 30
0.0
 40
20.3205080756888
100
AcDbArc
 50
30.0
 51
90.0
  0
ARC
  5
1E1
330
1F
100
AcDbEntity
  8
0
  6
Continuous
 62
     7
370
    15
100
AcDbCircle
 10
193.3469770386
 20
101.0585522391
 30
0.0
 40
2.999999999999986
100
AcDbArc
 50
90.0
 51
150.0
  0
ARC
  5
1E2
330
1F
100
AcDbEntity
  8
0
  6
Continuous
 62
     7
370
    15
100
AcDbCircle
 10
208.3469770386
 20
92.3982982013
 30
0.0
 40
20.32050807568879
100
AcDbArc
 50
150.0
 51
192.3805379628
  0
ARC
  5
1E3
330
1F
100
AcDbEntity
  8
0
  6
Continuous
 62
     7
370
    15
100
AcDbCircle
 10
185.5687835873
 20
87.3982982013
 30
0.0
 40
3.000000000000054
100
AcDbArc
 50
270.0
 51
12.3805379628
  0
LINE
  5
1E4
330
1F
100
AcDbEntity
  8
0
  6
Continuous
 62
     7
370
    15
100
AcDbLine
 10
185.5687835873
 20
84.3982982013
 30
0.0
 11
182.8627314413
 21
84.3982982013
 31
0.0
  0
ARC
  5
1E5
330
1F
100
AcDbEntity
  8
0
  6
Continuous
 62
     7
370
    15
100
AcDbCircle
 10
182.8627314413
 20
87.3982982013
 30
0.0
 40
3.000000000000016
100
AcDbArc
 50
231.1439516552
 51
270.0
  0
ARC
  5
1E6
330
1F
100
AcDbEntity
  8
0
  6
Continuous
 62
     7
370
    15
100
AcDbCircle
 10
168.2322403289
 20
69.2380441634
 30
0.0
 40
20.32050807568881
100
AcDbArc
 50
51.1439516552
 51
85.6254838853
  0
ARC
  5
1E7
330
1F
100
AcDbEntity
  8
0
  6
Continuous
 62
     7
370
    15
100
AcDbCircle
 10
169.553371673
 20
86.5080937283
 30
0.0
 40
3.000000000000006
100
AcDbArc
 50
85.6254838853
 51
142.3661261179
  0
ARC
  5
1E8
330
1F
100
AcDbEntity
  8
0
  6
Continuous
 62
     7
370
    15
100
AcDbCircle
 10
162.8219770386
 20
91.6983082013
 30
0.0
 40
5.500000000000007
100
AcDbArc
 50
300.8293805404
 51
322.3661261179
  0
ARC
  5
1E9
330
1F
100
AcDbEntity
  8
0
  6
Continuous
 62
     7
370
    15
100
AcDbCircle
 10
167.1780847583
 20
84.3993818738
 30
0.0
 40
3.00000000000002
100
AcDbArc
 50
120.8293805404
 51
157.9546566453
  0
ARC
  5
1EA
330
1F
100
AcDbEntity
  8
0
  6
Continuous
 62
     7
370
    15
100
AcDbCircle
 10
183.2322403289
 20
77.8982982013
 30
0.0
 40
20.32050807568879
100
AcDbArc
 50
157.9546566453
 51
176.731428071
  0
ARC
  5
1EB
330
1F
100
AcDbEntity
  8
0
  6
Continuous
 62
     7
370
    15
100
AcDbCircle
 10
165.9399085346
 20
78.885851297
 30
0.0
 40
3.000000000000004
100
AcDbArc
 50
176.731428071
 51
246.1478778112
  0
ARC
  5
1EC
330
1F
100
AcDbEntity
  8
0
  6
Continuous
 62
     7
370
    15
100
AcDbCircle
 10
163.5136437053
 20
73.3982982013
 30
0.0
 40
3.000000000000002
100
AcDbArc
 50
0.0
 51
66.1478778112
  0
LINE
  5
1ED
330
1F
100
AcDbEntity
  8
0
  6
Continuous
 62
     7
370
    15
100
AcDbLine
 10
166.5136437053
 20
73.3982982013
 30
0.0
 11
166.5136437053
 21
71.3982982013
 31
0.0
  0
ARC
  5
1EE
330
1F
100
AcDbEntity
  8
0
  6
Continuous
 62
     7
370
    15
100
AcDbCircle
 10
163.5136437053
 20
71.3982982013
 30
0.0
 40
3.000000000000004
100
AcDbArc
 50
327.9064120612
 51
0.0
  0
ARC
  5
1EF
330
1F
100
AcDbEntity
  8
0
  6
Continuous
 62
     7
370
    15
100
AcDbCircle
 10
168.5967320197
 20
68.2104755607
 30
0.0
 40
3.000000000000009
100
AcDbArc
 50
147.9064120612
 51
189.0604901803
  0
ARC
  5
1F0
330
1F
100
AcDbEntity
  8
0
  6
Continuous
 62
     7
370
    15
100
AcDbCircle
 10
168.2322403289
 20
69.2380441634
 30
0.0
 40
3.0
100
AcDbArc
 50
210.0
 51
270.0
  0
ARC
  5
1F1
330
1F
100
AcDbEntity
  8
0
  6
Continuous
 62
     7
370
    15
100
AcDbCircle
 10
168.2322403289
 20
86.5585522391
 30
0.0
 40
20.32050807568881
100
AcDbArc
 50
270.0
 51
287.7632765006
  0
ARC
  5
1F2
330
1F
100
AcDbEntity
  8
0
  6
Continuous
 62
     7
370
    15
100
AcDbCircle
 10
175.3469770386
 20
64.3498463232
 30
0.0
 40
3.000000000000014
100
AcDbArc
 50
0.0
 51
107.7632765006
  0
LINE
  5
1F3
330
1F
100
AcDbEntity
  8
0
  6
Continuous
 62
     7
370
    15
100
AcDbLine
 10
178.3469770386
 20
64.3498463232
 30
0.0
 11
178.3469770386
 21
54.3982982013
 31
0.0
  0
ARC
  5
1F4
330
1F
100
AcDbEntity
  8
0
  6
Continuous
 62
     7
370
    15
100
AcDbCircle
 10
181.3469770386
 20
54.3982982013
 30
0.0
 40
3.0
100
AcDbArc
 50
180.0
 51
270.0
  0
LINE
  5
1F5
330
1F
100
AcDbEntity
  8
0
  6
Continuous
 62
     7
370
    15
100
AcDbLine
 10
181.3469770386
 20
51.3982982013
 30
0.0
 11
215.3469770386
 21
51.3982982013
 31
0.0
  0
ARC
  5
1F6
330
1F
100
AcDbEntity
  8
0
  6
Continuous
 62
     7
370
    15
100
AcDbCircle
 10
215.3469770386
 20
54.3982982013
 30
0.0
 40
3.0
100
AcDbArc
 50
270.0
 51
0.0
  0
LINE
  5
1F7
330
1F
100
AcDbEntity
  8
0
  6
Continuous
 62
     7
370
    15
100
AcDbLine
 10
218.3469770386
 20
54.3982982013
 30
0.0
 11
218.3469770386
 21
64.3498463232
 31
0.0
  0
ARC
  5
1F8
330
1F
100
AcDbEntity
  8
0
  6
Continuous
 62
     7
370
    15
100
AcDbCircle
 10
221.3469770386
 20
64.3498463232
 30
0.0
 40
3.000000000000009
100
AcDbArc
 50
72.2367234994
 51
180.0
  0
ARC
  5
1F9
330
1F
100
AcDbEntity
  8
0
  6
Continuous
 62
     7
370
    15
100
AcDbCircle
 10
228.4617137484
 20
86.5585522391
 30
0.0
 40
20.32050807568868
100
AcDbArc
 50
252.2367234994
 51
270.0
  0
LINE
  5
1FA
330
1F
100
AcDbEntity
  8
0
  6
Continuous
 62
     7
370
    15
100
AcDbLine
 10
15.2729726035
 20
119.3982982013
 30
0.0
 11
23.8469770386
 21
119.3982982013
 31
0.0
  0
LINE
  5
1FB
330
1F
100
AcDbEntity
  8
0
  6
Continuous
 62
     7
370
    15
100
AcDbLine
 10
23.8469770386
 20
119.3982982013
 30
0.0
 11
23.8469770386
 21
115.8982982013
 31
0.0
  0
LINE
  5
1FC
330
1F
100
AcDbEntity
  8
0
  6
Continuous
 62
     7
370
    15
100
AcDbLine
 10
23.8469770386
 20
115.8982982013
 30
0.0
 11
25.8469770386
 21
115.8982982013
 31
0.0
  0
LINE
  5
1FD
330
1F
100
AcDbEntity
  8
0
  6
Continuous
 62
     7
370
    15
100
AcDbLine
 10
25.8469770386
 20
115.8982982013
 30
0.0
 11
25.8469770386
 21
132.8982982013
 31
0.0
  0
LINE
  5
1FE
330
1F
100
AcDbEntity
  8
0
  6
Continuous
 62
     7
370
    15
100
AcDbLine
 10
25.8469770386
 20
132.8982982013
 30
0.0
 11
23.8469770386
 21
132.8982982013
 31
0.0
  0
LINE
  5
1FF
330
1F
100
AcDbEntity
  8
0
  6
Continuous
 62
     7
370
    15
100
AcDbLine
 10
23.8469770386
 20
132.8982982013
 30
0.0
 11
23.8469770386
 21
129.3982982013
 31
0.0
  0
LINE
  5
200
330
1F
100
AcDbEntity
  8
0
  6
Continuous
 62
     7
370
    15
100
AcDbLine
 10
23.8469770386
 20
129.3982982013
 30
0.0
 11
15.2729726035
 21
129.3982982013
 31
0.0
  0
LINE
  5
201
330
1F
100
AcDbEntity
  8
0
  6
Continuous
 62
     7
370
    15
100
AcDbLine
 10
15.2729726035
 20
119.3982982013
 30
0.0
 11
15.2729726035
 21
129.3982982013
 31
0.0
  0
ARC
  5
202
330
1F
100
AcDbEntity
  8
0
  6
Continuous
 62
     7
370
    15
100
AcDbCircle
 10
336.9219770386
 20
91.6983082013
 30
0.0
 40
5.500000000000001
100
AcDbArc
 50
326.1019666783
 51
32.5789703928
  0
ARC
  5
203
330
1F
100
AcDbEntity
  8
0
  6
Continuous
 62
     7
370
    15
100
AcDbCircle
 10
343.977244187
 20
86.9577169443
 30
0.0
 40
3.000000000000012
100
AcDbArc
 50
146.1019666783
 51
234.4996632507
  0
ARC
  5
204
330
1F
100
AcDbEntity
  8
0
  6
Continuous
 62
     7
370
    15
100
AcDbCircle
 10
354.0353972971
 20
101.0585522391
 30
0.0
 40
20.32050807568866
100
AcDbArc
 50
234.4996632507
 51
270.0
  0
ARC
  5
205
330
1F
100
AcDbEntity
  8
0
  6
Continuous
 62
     7
370
    15
100
AcDbCircle
 10
354.0353972971
 20
83.7380441634
 30
0.0
 40
2.999999999999556
100
AcDbArc
 50
270.0
 51
330.0
  0
ARC
  5
206
330
1F
100
AcDbEntity
  8
0
  6
Continuous
 62
     7
370
    15
100
AcDbCircle
 10
339.0353972971
 20
92.3982982013
 30
0.0
 40
20.32050807568861
100
AcDbArc
 50
330.0
 51
30.0
  0
ARC
  5
207
330
1F
100
AcDbEntity
  8
0
  6
Continuous
 62
     7
370
    15
100
AcDbCircle
 10
354.0353972971
 20
101.0585522391
 30
0.0
 40
2.999999999999559
100
AcDbArc
 50
30.0
 51
90.0
  0
ARC
  5
208
330
1F
100
AcDbEntity
  8
0
  6
Continuous
 62
     7
370
    15
100
AcDbCircle
 10
354.0353972971
 20
83.7380441634
 30
0.0
 40
20.32050807568868
100
AcDbArc
 50
90.0
 51
121.5643056212
  0
ARC
  5
209
330
1F
100
AcDbEntity
  8
0
  6
Continuous
 62
     7
370
    15
100
AcDbCircle
 10
343.9219770386
 20
100.2001449704
 30
0.0
 40
1.0
100
AcDbArc
 50
121.5643056212
 51
180.0
  0
LINE
  5
20A
330
1F
100
AcDbEntity
  8
0
  6
Continuous
 62
     7
370
    15
100
AcDbLine
 10
342.9219770386
 20
98.3389058276
 30
0.0
 11
342.9219770386
 21
100.2001449704
 31
0.0
  0
ARC
  5
20B
330
1F
100
AcDbEntity
  8
0
  6
Continuous
 62
     7
370
    15
100
AcDbCircle
 10
339.9219770386
 20
98.3389058276
 30
0.0
 40
3.000000000000057
100
AcDbArc
 50
308.2655013453
 51
0.0
  0
ARC
  5
20C
330
1F
100
AcDbEntity
  8
0
  6
Continuous
 62
     7
370
    15
100
AcDbCircle
 10
342.3992026137
 20
95.1983082013
 30
0.0
 40
1.000000000000014
100
AcDbArc
 50
128.2655013453
 51
212.5789703928
  0
ARC
  5
20D
330
1F
100
AcDbEntity
  8
0
  6
Continuous
 62
     7
370
    15
100
AcDbCircle
 10
57.6585567801
 20
63.3982982013
 30
0.0
 40
3.000000000000012
100
AcDbArc
 50
330.0
 51
333.6552478332
  0
LINE
  5
20E
330
1F
100
AcDbEntity
  8
0
  6
Continuous
 62
     7
370
    15
100
AcDbLine
 10
60.3469770386
 20
62.0669843714
 30
0.0
 11
60.3469770386
 21
64.7296120312
 31
0.0
  0
ARC
  5
20F
330
1F
100
AcDbEntity
  8
0
  6
Continuous
 62
     7
370
    15
100
AcDbCircle
 10
57.6585567801
 20
63.3982982013
 30
0.0
 40
3.000000000000016
100
AcDbArc
 50
26.3447521668
 51
30.0
  0
ARC
  5
210
330
1F
100
AcDbEntity
  8
0
  6
Continuous
 62
     7
370
    15
100
AcDbCircle
 10
42.6585567801
 20
54.7380441634
 30
0.0
 40
20.3205080756888
100
AcDbArc
 50
30.0
 51
90.0
  0
ARC
  5
211
330
1F
100
AcDbEntity
  8
0
  6
Continuous
 62
     7
370
    15
100
AcDbCircle
 10
42.6585567801
 20
72.0585522391
 30
0.0
 40
3.0
100
AcDbArc
 50
90.0
 51
150.0
  0
ARC
  5
212
330
1F
100
AcDbEntity
  8
0
  6
Continuous
 62
     7
370
    15
100
AcDbCircle
 10
57.6585567801
 20
63.3982982013
 30
0.0
 40
20.32050807568879
100
AcDbArc
 50
150.0
 51
192.3779986289
  0
ARC
  5
213
330
1F
100
AcDbEntity
  8
0
  6
Continuous
 62
     7
370
    15
100
AcDbCircle
 10
40.7406697359
 20
59.6854693662
 30
0.0
 40
3.000000000000018
100
AcDbArc
 50
192.3779986289
 51
321.8424620343
  0
ARC
  5
214
330
1F
100
AcDbEntity
  8
0
  6
Continuous
 62
     7
370
    15
100
AcDbCircle
 10
48.9969770386
 20
53.1982982013
 30
0.0
 40
7.500000000000011
100
AcDbArc
 50
48.1365393142
 51
141.8424620343
  0
ARC
  5
215
330
1F
100
AcDbEntity
  8
0
  6
Continuous
 62
     7
370
    15
100
AcDbCircle
 10
56.0042334021
 20
61.0180397735
 30
0.0
 40
3.000000000000022
100
AcDbArc
 50
228.1365393142
 51
320.3999780896
  0
ARC
  5
216
330
1F
100
AcDbEntity
  8
0
  6
Continuous
 62
     7
370
    15
100
AcDbCircle
 10
42.6585567801
 20
72.0585522391
 30
0.0
 40
20.3205080756888
100
AcDbArc
 50
320.3999780896
 51
330.0
  0
CIRCLE
  5
217
330
1F
100
AcDbEntity
  8
0
  6
Continuous
 62
     7
370
    15
100
AcDbCircle
 10
347.6969770386
 20
191.1982982013
 30
0.0
 40
2.0
  0
ARC
  5
218
330
1F
100
AcDbEntity
  8
0
  6
Continuous
 62
     7
370
    15
100
AcDbCircle
 10
76.8469770386
 20
175.3982982013
 30
0.0
 40
3.0
100
AcDbArc
 50
270.0
 51
0.0
  0
LINE
  5
219
330
1F
100
AcDbEntity
  8
0
  6
Continuous
 62
     7
370
    15
100
AcDbLine
 10
76.8469770386
 20
172.3982982013
 30
0.0
 11
66.5124003788
 21
172.3982982013
 31
0.0
  0
ARC
  5
21A
330
1F
100
AcDbEntity
  8
0
  6
Continuous
 62
     7
370
    15
100
AcDbCircle
 10
66.5124003788
 20
169.3982982013
 30
0.0
 40
3.0
100
AcDbArc
 50
90.0
 51
130.5527588723
  0
ARC
  5
21B
330
1F
100
AcDbEntity
  8
0
  6
Continuous
 62
     7
370
    15
100
AcDbCircle
 10
77.7732934899
 20
156.2380441634
 30
0.0
 40
20.32050807568866
100
AcDbArc
 50
130.5527588723
 51
150.0
  0
ARC
  5
21C
330
1F
100
AcDbEntity
  8
0
  6
Continuous
 62
     7
370
    15
100
AcDbCircle
 10
62.7732934899
 20
164.8982982013
 30
0.0
 40
2.999999999999574
100
AcDbArc
 50
150.0
 51
210.0
  0
ARC
  5
21D
330
1F
100
AcDbEntity
  8
0
  6
Continuous
 62
     7
370
    15
100
AcDbCircle
 10
77.7732934899
 20
173.5585522391
 30
0.0
 40
20.32050807568868
100
AcDbArc
 50
210.0
 51
270.0
  0
ARC
  5
21E
330
1F
100
AcDbEntity
  8
0
  6
Continuous
 62
     7
370
    15
100
AcDbCircle
 10
77.7732934899
 20
156.2380441634
 30
0.0
 40
2.999999999999556
100
AcDbArc
 50
270.0
 51
330.0
  0
ARC
  5
21F
330
1F
100
AcDbEntity
  8
0
  6
Continuous
 62
     7
370
    15
100
AcDbCircle
 10
62.7732934899
 20
164.8982982013
 30
0.0
 40
20.32050807568865
100
AcDbArc
 50
330.0
 51
30.0
  0
ARC
  5
220
330
1F
100
AcDbEntity
  8
0
  6
Continuous
 62
     7
370
    15
100
AcDbCircle
 10
77.7732934899
 20
173.5585522391
 30
0.0
 40
2.999999999999542
100
AcDbArc
 50
30.0
 51
46.272617442
  0
LINE
  5
221
330
1F
100
AcDbEntity
  8
0
  6
Continuous
 62
     7
370
    15
100
AcDbLine
 10
79.8469770386
 20
175.7264628783
 30
0.0
 11
79.8469770386
 21
175.3982982013
 31
0.0
  0
CIRCLE
  5
222
330
1F
100
AcDbEntity
  8
0
  6
Continuous
 62
     7
370
    15
100
AcDbCircle
 10
48.9969770386
 20
191.1982982013
 30
0.0
 40
2.0
  0
ARC
  5
223
330
1F
100
AcDbEntity
  8
0
  6
Continuous
 62
     7
370
    15
100
AcDbCircle
 10
150.5172633092
 20
56.3982982013
 30
0.0
 40
3.000000000000007
100
AcDbArc
 50
295.2916007305
 51
90.0
  0
LINE
  5
224
330
1F
100
AcDbEntity
  8
0
  6
Continuous
 62
     7
370
    15
100
AcDbLine
 10
150.5172633092
 20
59.3982982013
 30
0.0
 11
150.0136437053
 21
59.3982982013
 31
0.0
  0
ARC
  5
225
330
1F
100
AcDbEntity
  8
0
  6
Continuous
 62
     7
370
    15
100
AcDbCircle
 10
150.0136437053
 20
62.3982982013
 30
0.0
 40
3.0
100
AcDbArc
 50
180.0
 51
270.0
  0
LINE
  5
226
330
1F
100
AcDbEntity
  8
0
  6
Continuous
 62
     7
370
    15
100
AcDbLine
 10
147.0136437053
 20
62.3982982013
 30
0.0
 11
147.0136437053
 21
65.943942144
 31
0.0
  0
ARC
  5
227
330
1F
100
AcDbEntity
  8
0
  6
Continuous
 62
     7
370
    15
100
AcDbCircle
 10
144.0136437053
 20
65.943942144
 30
0.0
 40
3.000000000000009
100
AcDbArc
 50
0.0
 51
65.3756816478
  0
ARC
  5
228
330
1F
100
AcDbEntity
  8
0
  6
Continuous
 62
     7
370
    15
100
AcDbCircle
 10
146.5136437053
 20
71.3982982013
 30
0.0
 40
3.0
100
AcDbArc
 50
180.0
 51
245.3756816478
  0
LINE
  5
229
330
1F
100
AcDbEntity
  8
0
  6
Continuous
 62
     7
370
    15
100
AcDbLine
 10
143.5136437053
 20
71.3982982013
 30
0.0
 11
143.5136437053
 21
73.5686148078
 31
0.0
  0
ARC
  5
22A
330
1F
100
AcDbEntity
  8
0
  6
Continuous
 62
     7
370
    15
100
AcDbCircle
 10
140.5136437053
 20
73.5686148078
 30
0.0
 40
3.0
100
AcDbArc
 50
0.0
 51
11.0807706258
  0
ARC
  5
22B
330
1F
100
AcDbEntity
  8
0
  6
Continuous
 62
     7
370
    15
100
AcDbCircle
 10
142.4763581496
 20
73.9530000444
 30
0.0
 40
1.000000000000019
100
AcDbArc
 50
11.0807706258
 51
108.6975649839
  0
ARC
  5
22C
330
1F
100
AcDbEntity
  8
0
  6
Continuous
 62
     7
370
    15
100
AcDbCircle
 10
143.1175036191
 20
72.0585522391
 30
0.0
 40
3.0
100
AcDbArc
 50
108.6975649839
 51
150.0
  0
ARC
  5
22D
330
1F
100
AcDbEntity
  8
0
  6
Continuous
 62
     7
370
    15
100
AcDbCircle
 10
158.1175036191
 20
63.3982982013
 30
0.0
 40
20.32050807568878
100
AcDbArc
 50
150.0
 51
182.8008969966
  0
ARC
  5
22E
330
1F
100
AcDbEntity
  8
0
  6
Continuous
 62
     7
370
    15
100
AcDbCircle
 10
140.8176870996
 20
62.5519245309
 30
0.0
 40
3.000000000000013
100
AcDbArc
 50
182.8008969966
 51
242.9766653516
  0
ARC
  5
22F
330
1F
100
AcDbEntity
  8
0
  6
Continuous
 62
     7
370
    15
100
AcDbCircle
 10
136.0469770386
 20
53.1982982013
 30
0.0
 40
7.50000000000002
100
AcDbArc
 50
10.1495750646
 51
62.9766653516
  0
ARC
  5
230
330
1F
100
AcDbEntity
  8
0
  6
Continuous
 62
     7
370
    15
100
AcDbCircle
 10
146.3826633339
 20
55.0485924497
 30
0.0
 40
3.000000000000008
100
AcDbArc
 50
190.1495750646
 51
280.8660805308
  0
ARC
  5
231
330
1F
100
AcDbEntity
  8
0
  6
Continuous
 62
     7
370
    15
100
AcDbCircle
 10
143.1175036191
 20
72.0585522391
 30
0.0
 40
20.32050807568881
100
AcDbArc
 50
280.8660805308
 51
295.2916007305
  0
ARC
  5
232
330
1F
100
AcDbEntity
  8
0
  6
Continuous
 62
     7
370
    15
100
AcDbCircle
 10
243.5764504581
 20
54.7380441634
 30
0.0
 40
20.3205080756888
100
AcDbArc
 50
30.0
 51
48.8691155701
  0
ARC
  5
233
330
1F
100
AcDbEntity
  8
0
  6
Continuous
 62
     7
370
    15
100
AcDbCircle
 10
254.9695575962
 20
67.7840055976
 30
0.0
 40
3.000000000000005
100
AcDbArc
 50
48.8691155701
 51
142.9593057847
  0
ARC
  5
234
330
1F
100
AcDbEntity
  8
0
  6
Continuous
 62
     7
370
    15
100
AcDbCircle
 10
250.180310372
 20
71.3982982013
 30
0.0
 40
2.999999999999977
100
AcDbArc
 50
294.6243183522
 51
322.9593057847
  0
ARC
  5
235
330
1F
100
AcDbEntity
  8
0
  6
Continuous
 62
     7
370
    15
100
AcDbCircle
 10
252.680310372
 20
65.943942144
 30
0.0
 40
3.000000000000023
100
AcDbArc
 50
114.6243183522
 51
180.0
  0
LINE
  5
236
330
1F
100
AcDbEntity
  8
0
  6
Continuous
 62
     7
370
    15
100
AcDbLine
 10
249.680310372
 20
65.943942144
 30
0.0
 11
249.680310372
 21
62.3982982013
 31
0.0
  0
ARC
  5
237
330
1F
100
AcDbEntity
  8
0
  6
Continuous
 62
     7
370
    15
100
AcDbCircle
 10
246.680310372
 20
62.3982982013
 30
0.0
 40
3.0
100
AcDbArc
 50
270.0
 51
0.0
  0
LINE
  5
238
330
1F
100
AcDbEntity
  8
0
  6
Continuous
 62
     7
370
    15
100
AcDbLine
 10
246.680310372
 20
59.3982982013
 30
0.0
 11
242.7334709404
 21
59.3982982013
 31
0.0
  0
ARC
  5
239
330
1F
100
AcDbEntity
  8
0
  6
Continuous
 62
     7
370
    15
100
AcDbCircle
 10
242.7334709404
 20
56.3982982013
 30
0.0
 40
3.0
100
AcDbArc
 50
90.0
 51
203.8375713369
  0
ARC
  5
23A
330
1F
100
AcDbEntity
  8
0
  6
Continuous
 62
     7
370
    15
100
AcDbCircle
 10
258.5764504581
 20
63.3982982013
 30
0.0
 40
20.32050807568878
100
AcDbArc
 50
203.8375713369
 51
210.0
  0
ARC
  5
23B
330
1F
100
AcDbEntity
  8
0
  6
Continuous
 62
     7
370
    15
100
AcDbCircle
 10
243.5764504581
 20
54.7380441634
 30
0.0
 40
3.000000000000007
100
AcDbArc
 50
210.0
 51
270.0
  0
ARC
  5
23C
330
1F
100
AcDbEntity
  8
0
  6
Continuous
 62
     7
370
    15
100
AcDbCircle
 10
243.5764504581
 20
72.0585522391
 30
0.0
 40
20.32050807568879
100
AcDbArc
 50
270.0
 51
293.8934176363
  0
ARC
  5
23D
330
1F
100
AcDbEntity
  8
0
  6
Continuous
 62
     7
370
    15
100
AcDbCircle
 10
250.5918893112
 20
56.2224031586
 30
0.0
 40
2.99999999999998
100
AcDbArc
 50
293.8934176363
 51
343.2611451728
  0
ARC
  5
23E
330
1F
100
AcDbEntity
  8
0
  6
Continuous
 62
     7
370
    15
100
AcDbCircle
 10
260.6469770386
 20
53.1982982013
 30
0.0
 40
7.500000000000028
100
AcDbArc
 50
101.0138893997
 51
163.2611451728
  0
ARC
  5
23F
330
1F
100
AcDbEntity
  8
0
  6
Continuous
 62
     7
370
    15
100
AcDbCircle
 10
258.6409840462
 20
63.504897646
 30
0.0
 40
3.000000000000027
100
AcDbArc
 50
281.0138893997
 51
327.6199245602
  0
ARC
  5
240
330
1F
100
AcDbEntity
  8
0
  6
Continuous
 62
     7
370
    15
100
AcDbCircle
 10
258.5764504581
 20
63.3982982013
 30
0.0
 40
3.000000000000004
100
AcDbArc
 50
330.0
 51
30.0
  0
ARC
  5
241
330
1F
100
AcDbEntity
  8
0
  6
Continuous
 62
     7
370
    15
100
AcDbCircle
 10
243.5764504581
 20
188.0585522391
 30
0.0
 40
2.999999999999976
100
AcDbArc
 50
90.0
 51
150.0
  0
ARC
  5
242
330
1F
100
AcDbEntity
  8
0
  6
Continuous
 62
     7
370
    15
100
AcDbCircle
 10
241.9457639668
 20
192.3982982013
 30
0.0
 40
3.0
100
AcDbArc
 50
251.1880432122
 51
270.0
  0
LINE
  5
243
330
1F
100
AcDbEntity
  8
0
  6
Continuous
 62
     7
370
    15
100
AcDbLine
 10
241.9457639668
 20
189.3982982013
 30
0.0
 11
246.680310372
 21
189.3982982013
 31
0.0
  0
ARC
  5
244
330
1F
100
AcDbEntity
  8
0
  6
Continuous
 62
     7
370
    15
100
AcDbCircle
 10
246.680310372
 20
186.3982982013
 30
0.0
 40
3.0
100
AcDbArc
 50
0.0
 51
90.0
  0
LINE
  5
245
330
1F
100
AcDbEntity
  8
0
  6
Continuous
 62
     7
370
    15
100
AcDbLine
 10
249.680310372
 20
186.3982982013
 30
0.0
 11
249.680310372
 21
181.3669251679
 31
0.0
  0
ARC
  5
246
330
1F
100
AcDbEntity
  8
0
  6
Continuous
 62
     7
370
    15
100
AcDbCircle
 10
250.680310372
 20
181.3669251679
 30
0.0
 40
1.0
100
AcDbArc
 50
180.0
 51
262.8192442185
  0
ARC
  5
247
330
1F
100
AcDbEntity
  8
0
  6
Continuous
 62
     7
370
    15
100
AcDbCircle
 10
250.180310372
 20
177.3982982013
 30
0.0
 40
3.000000000000029
100
AcDbArc
 50
0.0
 51
82.8192442185
  0
LINE
  5
248
330
1F
100
AcDbEntity
  8
0
  6
Continuous
 62
     7
370
    15
100
AcDbLine
 10
253.180310372
 20
177.3982982013
 30
0.0
 11
253.180310372
 21
175.3982982013
 31
0.0
  0
ARC
  5
249
330
1F
100
AcDbEntity
  8
0
  6
Continuous
 62
     7
370
    15
100
AcDbCircle
 10
250.180310372
 20
175.3982982013
 30
0.0
 40
3.0
100
AcDbArc
 50
270.0
 51
0.0
  0
LINE
  5
24A
330
1F
100
AcDbEntity
  8
0
  6
Continuous
 62
     7
370
    15
100
AcDbLine
 10
250.180310372
 20
172.3982982013
 30
0.0
 11
243.9740909629
 21
172.3982982013
 31
0.0
  0
ARC
  5
24B
330
1F
100
AcDbEntity
  8
0
  6
Continuous
 62
     7
370
    15
100
AcDbCircle
 10
243.9740909629
 20
169.3982982013
 30
0.0
 40
3.0
100
AcDbArc
 50
90.0
 51
183.06208412
  0
ARC
  5
24C
330
1F
100
AcDbEntity
  8
0
  6
Continuous
 62
     7
370
    15
100
AcDbCircle
 10
243.5764504581
 20
170.7380441634
 30
0.0
 40
3.0
100
AcDbArc
 50
210.0
 51
270.0
  0
ARC
  5
24D
330
1F
100
AcDbEntity
  8
0
  6
Continuous
 62
     7
370
    15
100
AcDbCircle
 10
243.5764504581
 20
188.0585522391
 30
0.0
 40
20.3205080756888
100
AcDbArc
 50
270.0
 51
330.0
  0
ARC
  5
24E
330
1F
100
AcDbEntity
  8
0
  6
Continuous
 62
     7
370
    15
100
AcDbCircle
 10
258.5764504581
 20
179.3982982013
 30
0.0
 40
3.0
100
AcDbArc
 50
330.0
 51
30.0
  0
ARC
  5
24F
330
1F
100
AcDbEntity
  8
0
  6
Continuous
 62
     7
370
    15
100
AcDbCircle
 10
243.5764504581
 20
170.7380441634
 30
0.0
 40
20.3205080756888
100
AcDbArc
 50
30.0
 51
40.2274261135
  0
ARC
  5
250
330
1F
100
AcDbEntity
  8
0
  6
Continuous
 62
     7
370
    15
100
AcDbCircle
 10
260.6469770386
 20
191.1982982013
 30
0.0
 40
7.500000000000036
100
AcDbArc
 50
208.5602775684
 51
258.0254157264
  0
ARC
  5
251
330
1F
100
AcDbEntity
  8
0
  6
Continuous
 62
     7
370
    15
100
AcDbCircle
 10
251.4246733675
 20
186.1784261913
 30
0.0
 40
3.000000000000035
100
AcDbArc
 50
28.5602775684
 51
63.0561328023
  0
ARC
  5
252
330
1F
100
AcDbEntity
  8
0
  6
Continuous
 62
     7
370
    15
100
AcDbCircle
 10
243.5764504581
 20
170.7380441634
 30
0.0
 40
20.32050807568881
100
AcDbArc
 50
63.0561328023
 51
90.0
  0
ARC
  5
253
330
1F
100
AcDbEntity
  8
0
  6
Continuous
 62
     7
370
    15
100
AcDbCircle
 10
143.1175036191
 20
170.7380441634
 30
0.0
 40
3.0
100
AcDbArc
 50
210.0
 51
270.0
  0
ARC
  5
254
330
1F
100
AcDbEntity
  8
0
  6
Continuous
 62
     7
370
    15
100
AcDbCircle
 10
143.1175036191
 20
188.0585522391
 30
0.0
 40
20.32050807568878
100
AcDbArc
 50
270.0
 51
300.4231303625
  0
ARC
  5
255
330
1F
100
AcDbEntity
  8
0
  6
Continuous
 62
     7
370
    15
100
AcDbCircle
 10
152.9010596034
 20
171.3982982013
 30
0.0
 40
1.0
100
AcDbArc
 50
300.4231303625
 51
90.0
  0
LINE
  5
256
330
1F
100
AcDbEntity
  8
0
  6
Continuous
 62
     7
370
    15
100
AcDbLine
 10
152.9010596034
 20
172.3982982013
 30
0.0
 11
146.5136437053
 21
172.3982982013
 31
0.0
  0
ARC
  5
257
330
1F
100
AcDbEntity
  8
0
  6
Continuous
 62
     7
370
    15
100
AcDbCircle
 10
146.5136437053
 20
175.3982982013
 30
0.0
 40
3.0
100
AcDbArc
 50
180.0
 51
270.0
  0
LINE
  5
258
330
1F
100
AcDbEntity
  8
0
  6
Continuous
 62
     7
370
    15
100
AcDbLine
 10
143.5136437053
 20
175.3982982013
 30
0.0
 11
143.5136437053
 21
177.3982982013
 31
0.0
  0
ARC
  5
259
330
1F
100
AcDbEntity
  8
0
  6
Continuous
 62
     7
370
    15
100
AcDbCircle
 10
146.5136437053
 20
177.3982982013
 30
0.0
 40
3.0
100
AcDbArc
 50
114.6243183522
 51
180.0
  0
ARC
  5
25A
330
1F
100
AcDbEntity
  8
0
  6
Continuous
 62
     7
370
    15
100
AcDbCircle
 10
144.0136437053
 20
182.8526542586
 30
0.0
 40
3.0
100
AcDbArc
 50
294.6243183522
 51
0.0
  0
LINE
  5
25B
330
1F
100
AcDbEntity
  8
0
  6
Continuous
 62
     7
370
    15
100
AcDbLine
 10
147.0136437053
 20
182.8526542586
 30
0.0
 11
147.0136437053
 21
186.3982982013
 31
0.0
  0
ARC
  5
25C
330
1F
100
AcDbEntity
  8
0
  6
Continuous
 62
     7
370
    15
100
AcDbCircle
 10
150.0136437053
 20
186.3982982013
 30
0.0
 40
3.0
100
AcDbArc
 50
164.2960769557
 51
180.0
  0
ARC
  5
25D
330
1F
100
AcDbEntity
  8
0
  6
Continuous
 62
     7
370
    15
100
AcDbCircle
 10
144.2376044084
 20
188.0222963666
 30
0.0
 40
3.000000000000018
100
AcDbArc
 50
344.2960769557
 51
83.5165902288
  0
ARC
  5
25E
330
1F
100
AcDbEntity
  8
0
  6
Continuous
 62
     7
370
    15
100
AcDbCircle
 10
144.4634354408
 20
190.0095055515
 30
0.0
 40
0.9999999999999999
100
AcDbArc
 50
83.5165902288
 51
171.9603729789
  0
ARC
  5
25F
330
1F
100
AcDbEntity
  8
0
  6
Continuous
 62
     7
370
    15
100
AcDbCircle
 10
136.0469770386
 20
191.1982982013
 30
0.0
 40
7.50000000000002
100
AcDbArc
 50
298.0416020205
 51
351.9603729789
  0
ARC
  5
260
330
1F
100
AcDbEntity
  8
0
  6
Continuous
 62
     7
370
    15
100
AcDbCircle
 10
140.9831587125
 20
181.9309301562
 30
0.0
 40
3.000000000000024
100
AcDbArc
 50
118.0416020205
 51
171.5919757624
  0
ARC
  5
261
330
1F
100
AcDbEntity
  8
0
  6
Continuous
 62
     7
370
    15
100
AcDbCircle
 10
158.1175036191
 20
179.3982982013
 30
0.0
 40
20.32050807568876
100
AcDbArc
 50
171.5919757624
 51
210.0
  0
CIRCLE
  5
262
330
1F
100
AcDbEntity
  8
0
  6
Continuous
 62
     7
370
    15
100
AcDbCircle
 10
223.0969770386
 20
53.1982982013
 30
0.0
 40
2.0
  0
CIRCLE
  5
263
330
1F
100
AcDbEntity
  8
0
  6
Continuous
 62
     7
370
    15
100
AcDbCircle
 10
173.5969770386
 20
53.1982982013
 30
0.0
 40
2.000000000000007
  0
ARC
  5
264
330
1F
100
AcDbEntity
  8
0
  6
Continuous
 62
     7
370
    15
100
AcDbCircle
 10
359.0353972971
 20
121.3982982013
 30
0.0
 40
3.000000000000007
100
AcDbArc
 50
330.0
 51
30.0
  0
ARC
  5
265
330
1F
100
AcDbEntity
  8
0
  6
Continuous
 62
     7
370
    15
100
AcDbCircle
 10
344.0353972971
 20
112.7380441634
 30
0.0
 40
20.3205080756888
100
AcDbArc
 50
30.0
 51
83.746838105
  0
ARC
  5
266
330
1F
100
AcDbEntity
  8
0
  6
Continuous
 62
     7
370
    15
100
AcDbCircle
 10
345.9219770386
 20
129.9555009117
 30
0.0
 40
3.0
100
AcDbArc
 50
83.746838105
 51
180.0
  0
LINE
  5
267
330
1F
100
AcDbEntity
  8
0
  6
Continuous
 62
     7
370
    15
100
AcDbLine
 10
342.9219770386
 20
112.8410954908
 30
0.0
 11
342.9219770386
 21
129.9555009117
 31
0.0
  0
ARC
  5
268
330
1F
100
AcDbEntity
  8
0
  6
Continuous
 62
     7
370
    15
100
AcDbCircle
 10
345.9219770386
 20
112.8410954908
 30
0.0
 40
3.000000000000002
100
AcDbArc
 50
180.0
 51
276.253161895
  0
ARC
  5
269
330
1F
100
AcDbEntity
  8
0
  6
Continuous
 62
     7
370
    15
100
AcDbCircle
 10
344.0353972971
 20
130.0585522391
 30
0.0
 40
20.3205080756888
100
AcDbArc
 50
276.253161895
 51
330.0
  0
ARC
  5
26A
330
1F
100
AcDbEntity
  8
0
  6
Continuous
 62
     7
370
    15
100
AcDbCircle
 10
342.1015995137
 20
149.4378564811
 30
0.0
 40
2.999999999999939
100
AcDbArc
 50
187.8861992804
 51
232.4562277034
  0
ARC
  5
26B
330
1F
100
AcDbEntity
  8
0
  6
Continuous
 62
     7
370
    15
100
AcDbCircle
 10
336.9219770386
 20
142.6983082013
 30
0.0
 40
5.500000000000024
100
AcDbArc
 50
12.4285684011
 51
52.4562277034
  0
ARC
  5
26C
330
1F
100
AcDbEntity
  8
0
  6
Continuous
 62
     7
370
    15
100
AcDbCircle
 10
345.2227802797
 20
144.527697595
 30
0.0
 40
3.000000000000036
100
AcDbArc
 50
192.4285684012
 51
236.9985968242
  0
ARC
  5
26D
330
1F
100
AcDbEntity
  8
0
  6
Continuous
 62
     7
370
    15
100
AcDbCircle
 10
349.0353972971
 20
150.3982982013
 30
0.0
 40
10.00000000000004
100
AcDbArc
 50
236.9985968242
 51
187.8861992804
  0
ARC
  5
26E
330
1F
100
AcDbEntity
  8
0
  6
Continuous
 62
     7
370
    15
100
AcDbCircle
 10
326.3992026137
 20
139.1983082013
 30
0.0
 40
1.0
100
AcDbArc
 50
147.4210296072
 51
270.0
  0
LINE
  5
26F
330
1F
100
AcDbEntity
  8
0
  6
Continuous
 62
     7
370
    15
100
AcDbLine
 10
331.4447514636
 20
138.1983082013
 30
0.0
 11
326.3992026137
 21
138.1983082013
 31
0.0
  0
ARC
  5
270
330
1F
100
AcDbEntity
  8
0
  6
Continuous
 62
     7
370
    15
100
AcDbCircle
 10
331.4447514636
 20
139.1983082013
 30
0.0
 40
1.000000000000062
100
AcDbArc
 50
270.0
 51
32.5789703928
  0
ARC
  5
271
330
1F
100
AcDbEntity
  8
0
  6
Continuous
 62
     7
370
    15
100
AcDbCircle
 10
336.9219770386
 20
142.6983082013
 30
0.0
 40
5.499999999999997
100
AcDbArc
 50
153.3637929912
 51
212.5789703928
  0
ARC
  5
272
330
1F
100
AcDbEntity
  8
0
  6
Continuous
 62
     7
370
    15
100
AcDbCircle
 10
313.9206605874
 20
135.8982982013
 30
0.0
 40
20.32050807568866
100
AcDbArc
 50
27.1281556795
 51
30.0
  0
ARC
  5
273
330
1F
100
AcDbEntity
  8
0
  6
Continuous
 62
     7
370
    15
100
AcDbCircle
 10
328.9206605874
 20
144.5585522391
 30
0.0
 40
2.999999999999591
100
AcDbArc
 50
30.0
 51
90.0
  0
ARC
  5
274
330
1F
100
AcDbEntity
  8
0
  6
Continuous
 62
     7
370
    15
100
AcDbCircle
 10
329.212711276
 20
144.572801681
 30
0.0
 40
3.000000000000012
100
AcDbArc
 50
95.5866052029
 51
192.7400847271
  0
ARC
  5
275
330
1F
100
AcDbEntity
  8
0
  6
Continuous
 62
     7
370
    15
100
AcDbCircle
 10
320.9219770386
 20
142.6983082013
 30
0.0
 40
5.50000000000001
100
AcDbArc
 50
327.4210296072
 51
12.7400847271
  0
ARC
  5
276
330
1F
100
AcDbEntity
  8
0
  6
Continuous
 62
     7
370
    15
100
AcDbCircle
 10
320.9219770386
 20
142.6983082013
 30
0.0
 40
5.500000000000022
100
AcDbArc
 50
182.7666351975
 51
212.5789703928
  0
ARC
  5
277
330
1F
100
AcDbEntity
  8
0
  6
Continuous
 62
     7
370
    15
100
AcDbCircle
 10
328.9206605874
 20
127.2380441634
 30
0.0
 40
20.32050807568861
100
AcDbArc
 50
131.6036004488
 51
150.0
  0
ARC
  5
278
330
1F
100
AcDbEntity
  8
0
  6
Continuous
 62
     7
370
    15
100
AcDbCircle
 10
313.9206605874
 20
135.8982982013
 30
0.0
 40
2.999999999999556
100
AcDbArc
 50
150.0
 51
210.0
  0
ARC
  5
279
330
1F
100
AcDbEntity
  8
0
  6
Continuous
 62
     7
370
    15
100
AcDbCircle
 10
328.9206605874
 20
144.5585522391
 30
0.0
 40
20.32050807568864
100
AcDbArc
 50
210.0
 51
226.4573479598
  0
LINE
  5
27A
330
1F
100
AcDbEntity
  8
0
  6
Continuous
 62
     7
370
    15
100
AcDbLine
 10
314.9219770386
 20
136.057710575
 30
0.0
 11
314.9219770386
 21
129.8289932723
 31
0.0
  0
ARC
  5
27B
330
1F
100
AcDbEntity
  8
0
  6
Continuous
 62
     7
370
    15
100
AcDbCircle
 10
317.9219770386
 20
136.057710575
 30
0.0
 40
3.000000000000008
100
AcDbArc
 50
128.2655013453
 51
180.0
  0
ARC
  5
27C
330
1F
100
AcDbEntity
  8
0
  6
Continuous
 62
     7
370
    15
100
AcDbCircle
 10
315.4447514636
 20
139.1983082013
 30
0.0
 40
1.000000000000022
100
AcDbArc
 50
308.2655013453
 51
32.5789703928
  0
ARC
  5
27D
330
1F
100
AcDbEntity
  8
0
  6
Continuous
 62
     7
370
    15
100
AcDbCircle
 10
313.9206605874
 20
77.8982982013
 30
0.0
 40
2.999999999999549
100
AcDbArc
 50
150.0
 51
210.0
  0
ARC
  5
27E
330
1F
100
AcDbEntity
  8
0
  6
Continuous
 62
     7
370
    15
100
AcDbCircle
 10
328.9206605874
 20
86.5585522391
 30
0.0
 40
20.32050807568862
100
AcDbArc
 50
210.0
 51
215.1674191065
  0
ARC
  5
27F
330
1F
100
AcDbEntity
  8
0
  6
Continuous
 62
     7
370
    15
100
AcDbCircle
 10
314.7616206678
 20
76.5825014897
 30
0.0
 40
2.999999999999995
100
AcDbArc
 50
215.1674191065
 51
327.9471997345
  0
ARC
  5
280
330
1F
100
AcDbEntity
  8
0
  6
Continuous
 62
     7
370
    15
100
AcDbCircle
 10
319.8469770386
 20
73.3982982013
 30
0.0
 40
3.000000000000014
100
AcDbArc
 50
90.0
 51
147.9471997345
  0
LINE
  5
281
330
1F
100
AcDbEntity
  8
0
  6
Continuous
 62
     7
370
    15
100
AcDbLine
 10
319.8469770386
 20
76.3982982013
 30
0.0
 11
331.1760945141
 21
76.3982982013
 31
0.0
  0
ARC
  5
282
330
1F
100
AcDbEntity
  8
0
  6
Continuous
 62
     7
370
    15
100
AcDbCircle
 10
331.1760945141
 20
79.3982982013
 30
0.0
 40
3.00000000000005
100
AcDbArc
 50
270.0
 51
4.9681835361
  0
ARC
  5
283
330
1F
100
AcDbEntity
  8
0
  6
Continuous
 62
     7
370
    15
100
AcDbCircle
 10
313.9206605874
 20
77.8982982013
 30
0.0
 40
20.32050807568871
100
AcDbArc
 50
4.9681835361
 51
30.0
  0
ARC
  5
284
330
1F
100
AcDbEntity
  8
0
  6
Continuous
 62
     7
370
    15
100
AcDbCircle
 10
328.9206605874
 20
86.5585522391
 30
0.0
 40
2.999999999999591
100
AcDbArc
 50
30.0
 51
90.0
  0
ARC
  5
285
330
1F
100
AcDbEntity
  8
0
  6
Continuous
 62
     7
370
    15
100
AcDbCircle
 10
328.9206605874
 20
69.2380441634
 30
0.0
 40
20.32050807568868
100
AcDbArc
 50
90.0
 51
94.1849793648
  0
ARC
  5
286
330
1F
100
AcDbEntity
  8
0
  6
Continuous
 62
     7
370
    15
100
AcDbCircle
 10
327.6566663883
 20
86.5123695819
 30
0.0
 40
3.000000000000007
100
AcDbArc
 50
94.1849793648
 51
142.4025121025
  0
ARC
  5
287
330
1F
100
AcDbEntity
  8
0
  6
Continuous
 62
     7
370
    15
100
AcDbCircle
 10
320.9219770386
 20
91.6983082013
 30
0.0
 40
5.499999999999997
100
AcDbArc
 50
256.8017588625
 51
322.4025121025
  0
ARC
  5
288
330
1F
100
AcDbEntity
  8
0
  6
Continuous
 62
     7
370
    15
100
AcDbCircle
 10
318.981248682
 20
83.4228279466
 30
0.0
 40
3.000000000000012
100
AcDbArc
 50
76.8017588625
 51
125.0192916002
  0
ARC
  5
289
330
1F
100
AcDbEntity
  8
0
  6
Continuous
 62
     7
370
    15
100
AcDbCircle
 10
328.9206605874
 20
69.2380441634
 30
0.0
 40
20.32050807568861
100
AcDbArc
 50
125.0192916002
 51
150.0
  0
LINE
  5
28A
330
1F
100
AcDbEntity
  8
0
  6
Continuous
 62
     7
370
    15
100
AcDbLine
 10
339.4219770386
 20
134.6983082013
 30
0.0
 11
318.4219770386
 21
134.6983082013
 31
0.0
  0
LINE
  5
28B
330
1F
100
AcDbEntity
  8
0
  6
Continuous
 62
     7
370
    15
100
AcDbLine
 10
318.4219770386
 20
134.6983082013
 30
0.0
 11
318.4219770386
 21
99.6983082013
 31
0.0
  0
LINE
  5
28C
330
1F
100
AcDbEntity
  8
0
  6
Continuous
 62
     7
370
    15
100
AcDbLine
 10
318.4219770386
 20
99.6983082013
 30
0.0
 11
339.4219770386
 21
99.6983082013
 31
0.0
  0
LINE
  5
28D
330
1F
100
AcDbEntity
  8
0
  6
Continuous
 62
     7
370
    15
100
AcDbLine
 10
339.4219770386
 20
99.6983082013
 30
0.0
 11
339.4219770386
 21
134.6983082013
 31
0.0
  0
LINE
  5
28E
330
1F
100
AcDbEntity
  8
0
  6
Continuous
 62
     7
370
    15
100
AcDbLine
 10
57.2719770386
 20
99.6983082013
 30
0.0
 11
78.2719770386
 21
99.6983082013
 31
0.0
  0
LINE
  5
28F
330
1F
100
AcDbEntity
  8
0
  6
Continuous
 62
     7
370
    15
100
AcDbLine
 10
78.2719770386
 20
99.6983082013
 30
0.0
 11
78.2719770386
 21
134.6983082013
 31
0.0
  0
LINE
  5
290
330
1F
100
AcDbEntity
  8
0
  6
Continuous
 62
     7
370
    15
100
AcDbLine
 10
78.2719770386
 20
134.6983082013
 30
0.0
 11
57.2719770386
 21
134.6983082013
 31
0.0
  0
LINE
  5
291
330
1F
100
AcDbEntity
  8
0
  6
Continuous
 62
     7
370
    15
100
AcDbLine
 10
57.2719770386
 20
134.6983082013
 30
0.0
 11
57.2719770386
 21
99.6983082013
 31
0.0
  0
CIRCLE
  5
292
330
1F
100
AcDbEntity
  8
0
  6
Continuous
 62
     7
370
    15
100
AcDbCircle
 10
75.7719770386
 20
91.6983082013
 30
0.0
 40
2.000000000000014
  0
CIRCLE
  5
293
330
1F
100
AcDbEntity
  8
0
  6
Continuous
 62
     7
370
    15
100
AcDbCircle
 10
75.7719770386
 20
142.6983082013
 30
0.0
 40
2.0
  0
CIRCLE
  5
294
330
1F
100
AcDbEntity
  8
0
  6
Continuous
 62
     7
370
    15
100
AcDbCircle
 10
59.7719770386
 20
142.6983082013
 30
0.0
 40
1.999999999999972
  0
CIRCLE
  5
295
330
1F
100
AcDbEntity
  8
0
  6
Continuous
 62
     7
370
    15
100
AcDbCircle
 10
162.8219770386
 20
91.6983082013
 30
0.0
 40
2.0
  0
CIRCLE
  5
296
330
1F
100
AcDbEntity
  8
0
  6
Continuous
 62
     7
370
    15
100
AcDbCircle
 10
146.8219770386
 20
91.6983082013
 30
0.0
 40
2.000000000000014
  0
CIRCLE
  5
297
330
1F
100
AcDbEntity
  8
0
  6
Continuous
 62
     7
370
    15
100
AcDbCircle
 10
146.8219770386
 20
142.6983082013
 30
0.0
 40
2.0
  0
CIRCLE
  5
298
330
1F
100
AcDbEntity
  8
0
  6
Continuous
 62
     7
370
    15
100
AcDbCircle
 10
162.8219770386
 20
142.6983082013
 30
0.0
 40
2.0
  0
ARC
  5
299
330
1F
100
AcDbEntity
  8
0
  6
Continuous
 62
     7
370
    15
100
AcDbCircle
 10
171.8219770386
 20
127.6141198097
 30
0.0
 40
3.000000000000012
100
AcDbArc
 50
180.0
 51
281.9614513682
  0
ARC
  5
29A
330
1F
100
AcDbEntity
  8
0
  6
Continuous
 62
     7
370
    15
100
AcDbCircle
 10
168.2322403289
 20
144.5585522391
 30
0.0
 40
20.32050807568881
100
AcDbArc
 50
281.9614513682
 51
330.0
  0
ARC
  5
29B
330
1F
100
AcDbEntity
  8
0
  6
Continuous
 62
     7
370
    15
100
AcDbCircle
 10
183.2322403289
 20
135.8982982013
 30
0.0
 40
3.000000000000014
100
AcDbArc
 50
330.0
 51
30.0
  0
ARC
  5
29C
330
1F
100
AcDbEntity
  8
0
  6
Continuous
 62
     7
370
    15
100
AcDbCircle
 10
168.2322403289
 20
127.2380441634
 30
0.0
 40
20.32050807568881
100
AcDbArc
 50
30.0
 51
80.2408521111
  0
ARC
  5
29D
330
1F
100
AcDbEntity
  8
0
  6
Continuous
 62
     7
370
    15
100
AcDbCircle
 10
171.168185203
 20
144.3079073057
 30
0.0
 40
3.00000000000001
100
AcDbArc
 50
80.2408521111
 51
190.9157053424
  0
ARC
  5
29E
330
1F
100
AcDbEntity
  8
0
  6
Continuous
 62
     7
370
    15
100
AcDbCircle
 10
162.8219770386
 20
142.6983082013
 30
0.0
 40
5.500000000000018
100
AcDbArc
 50
327.4210296072
 51
10.9157053424
  0
ARC
  5
29F
330
1F
100
AcDbEntity
  8
0
  6
Continuous
 62
     7
370
    15
100
AcDbCircle
 10
168.2992026137
 20
139.1983082013
 30
0.0
 40
1.000000000000014
100
AcDbArc
 50
147.4210296072
 51
231.7344986547
  0
ARC
  5
2A0
330
1F
100
AcDbEntity
  8
0
  6
Continuous
 62
     7
370
    15
100
AcDbCircle
 10
165.8219770386
 20
136.057710575
 30
0.0
 40
3.000000000000008
100
AcDbArc
 50
0.0
 51
51.7344986547
  0
LINE
  5
2A1
330
1F
100
AcDbEntity
  8
0
  6
Continuous
 62
     7
370
    15
100
AcDbLine
 10
168.8219770386
 20
127.6141198097
 30
0.0
 11
168.8219770386
 21
136.057710575
 31
0.0
  0
ARC
  5
2A2
330
1F
100
AcDbEntity
  8
0
  6
Continuous
 62
     7
370
    15
100
AcDbCircle
 10
178.2322403289
 20
98.2380441634
 30
0.0
 40
2.999999999999549
100
AcDbArc
 50
270.0
 51
330.0
  0
ARC
  5
2A3
330
1F
100
AcDbEntity
  8
0
  6
Continuous
 62
     7
370
    15
100
AcDbCircle
 10
163.2322403289
 20
106.8982982013
 30
0.0
 40
20.32050807568866
100
AcDbArc
 50
330.0
 51
30.0
  0
ARC
  5
2A4
330
1F
100
AcDbEntity
  8
0
  6
Continuous
 62
     7
370
    15
100
AcDbCircle
 10
178.2322403289
 20
115.5585522391
 30
0.0
 40
2.999999999999559
100
AcDbArc
 50
30.0
 51
90.0
  0
ARC
  5
2A5
330
1F
100
AcDbEntity
  8
0
  6
Continuous
 62
     7
370
    15
100
AcDbCircle
 10
178.2322403289
 20
98.2380441634
 30
0.0
 40
20.32050807568868
100
AcDbArc
 50
90.0
 51
111.7215826016
  0
ARC
  5
2A6
330
1F
100
AcDbEntity
  8
0
  6
Continuous
 62
     7
370
    15
100
AcDbCircle
 10
171.8219770386
 20
114.3286788479
 30
0.0
 40
3.00000000000001
100
AcDbArc
 50
111.7215826016
 51
180.0
  0
LINE
  5
2A7
330
1F
100
AcDbEntity
  8
0
  6
Continuous
 62
     7
370
    15
100
AcDbLine
 10
168.8219770386
 20
99.4679175546
 30
0.0
 11
168.8219770386
 21
114.3286788479
 31
0.0
  0
ARC
  5
2A8
330
1F
100
AcDbEntity
  8
0
  6
Continuous
 62
     7
370
    15
100
AcDbCircle
 10
171.8219770386
 20
99.4679175546
 30
0.0
 40
3.00000000000001
100
AcDbArc
 50
180.0
 51
248.2784173984
  0
ARC
  5
2A9
330
1F
100
AcDbEntity
  8
0
  6
Continuous
 62
     7
370
    15
100
AcDbCircle
 10
178.2322403289
 20
115.5585522391
 30
0.0
 40
20.32050807568866
100
AcDbArc
 50
248.2784173984
 51
270.0
  0
LINE
  5
2AA
330
1F
100
AcDbEntity
  8
0
  6
Continuous
 62
     7
370
    15
100
AcDbLine
 10
144.3219770386
 20
134.6983082013
 30
0.0
 11
144.3219770386
 21
99.6983082013
 31
0.0
  0
LINE
  5
2AB
330
1F
100
AcDbEntity
  8
0
  6
Continuous
 62
     7
370
    15
100
AcDbLine
 10
144.3219770386
 20
99.6983082013
 30
0.0
 11
165.3219770386
 21
99.6983082013
 31
0.0
  0
LINE
  5
2AC
330
1F
100
AcDbEntity
  8
0
  6
Continuous
 62
     7
370
    15
100
AcDbLine
 10
165.3219770386
 20
99.6983082013
 30
0.0
 11
165.3219770386
 21
134.6983082013
 31
0.0
  0
LINE
  5
2AD
330
1F
100
AcDbEntity
  8
0
  6
Continuous
 62
     7
370
    15
100
AcDbLine
 10
165.3219770386
 20
134.6983082013
 30
0.0
 11
144.3219770386
 21
134.6983082013
 31
0.0
  0
ARC
  5
2AE
330
1F
100
AcDbEntity
  8
0
  6
Continuous
 62
     7
370
    15
100
AcDbCircle
 10
347.6969770386
 20
191.1982982013
 30
0.0
 40
7.500000000000052
100
AcDbArc
 50
227.9901126899
 51
321.650762254
  0
ARC
  5
2AF
330
1F
100
AcDbEntity
  8
0
  6
Continuous
 62
     7
370
    15
100
AcDbCircle
 10
341.3390180775
 20
184.1395194224
 30
0.0
 40
1.999999999999967
100
AcDbArc
 50
47.9901126899
 51
165.0015385171
  0
ARC
  5
2B0
330
1F
100
AcDbEntity
  8
0
  6
Continuous
 62
     7
370
    15
100
AcDbCircle
 10
359.0353972971
 20
179.3982982013
 30
0.0
 40
20.32050807568878
100
AcDbArc
 50
165.0015385171
 51
175.2818070821
  0
ARC
  5
2B1
330
1F
100
AcDbEntity
  8
0
  6
Continuous
 62
     7
370
    15
100
AcDbCircle
 10
341.773582899
 20
180.8229959538
 30
0.0
 40
2.999999999999997
100
AcDbArc
 50
175.2818070821
 51
214.8048419121
  0
ARC
  5
2B2
330
1F
100
AcDbEntity
  8
0
  6
Continuous
 62
     7
370
    15
100
AcDbCircle
 10
336.8469770386
 20
177.3982982013
 30
0.0
 40
3.00000000000002
100
AcDbArc
 50
0.0
 51
34.8048419121
  0
LINE
  5
2B3
330
1F
100
AcDbEntity
  8
0
  6
Continuous
 62
     7
370
    15
100
AcDbLine
 10
339.8469770386
 20
177.3982982013
 30
0.0
 11
339.8469770386
 21
173.2391546298
 31
0.0
  0
ARC
  5
2B4
330
1F
100
AcDbEntity
  8
0
  6
Continuous
 62
     7
370
    15
100
AcDbCircle
 10
342.8469770386
 20
173.2391546298
 30
0.0
 40
3.0
100
AcDbArc
 50
180.0
 51
200.830118474
  0
ARC
  5
2B5
330
1F
100
AcDbEntity
  8
0
  6
Continuous
 62
     7
370
    15
100
AcDbCircle
 10
359.0353972971
 20
179.3982982013
 30
0.0
 40
20.32050807568875
100
AcDbArc
 50
200.830118474
 51
210.0
  0
ARC
  5
2B6
330
1F
100
AcDbEntity
  8
0
  6
Continuous
 62
     7
370
    15
100
AcDbCircle
 10
344.0353972971
 20
170.7380441634
 30
0.0
 40
3.0
100
AcDbArc
 50
210.0
 51
270.0
  0
ARC
  5
2B7
330
1F
100
AcDbEntity
  8
0
  6
Continuous
 62
     7
370
    15
100
AcDbCircle
 10
344.0353972971
 20
188.0585522391
 30
0.0
 40
20.32050807568879
100
AcDbArc
 50
270.0
 51
330.0
  0
ARC
  5
2B8
330
1F
100
AcDbEntity
  8
0
  6
Continuous
 62
     7
370
    15
100
AcDbCircle
 10
359.0353972971
 20
179.3982982013
 30
0.0
 40
3.000000000000014
100
AcDbArc
 50
330.0
 51
30.0
  0
ARC
  5
2B9
330
1F
100
AcDbEntity
  8
0
  6
Continuous
 62
     7
370
    15
100
AcDbCircle
 10
344.0353972971
 20
170.7380441634
 30
0.0
 40
20.32050807568881
100
AcDbArc
 50
30.0
 51
52.6611572709
  0
ARC
  5
2BA
330
1F
100
AcDbEntity
  8
0
  6
Continuous
 62
     7
370
    15
100
AcDbCircle
 10
355.1472899754
 20
185.3039927168
 30
0.0
 40
2.000000000000032
100
AcDbArc
 50
52.6611572709
 51
141.650762254
  0
ARC
  5
2BB
330
1F
100
AcDbEntity
  8
0
  6
Continuous
 62
     7
370
    15
100
AcDbCircle
 10
48.9969770386
 20
191.1982982013
 30
0.0
 40
7.500000000000013
100
AcDbArc
 50
194.4137533701
 51
311.1611349521
  0
ARC
  5
2BC
330
1F
100
AcDbEntity
  8
0
  6
Continuous
 62
     7
370
    15
100
AcDbCircle
 10
39.7960043842
 20
188.833535589
 30
0.0
 40
1.999999999999996
100
AcDbArc
 50
14.4137533701
 51
56.1943896567
  0
ARC
  5
2BD
330
1F
100
AcDbEntity
  8
0
  6
Continuous
 62
     7
370
    15
100
AcDbCircle
 10
42.6585567801
 20
188.0585522391
 30
0.0
 40
3.000000000000019
100
AcDbArc
 50
125.6805952454
 51
150.0
  0
ARC
  5
2BE
330
1F
100
AcDbEntity
  8
0
  6
Continuous
 62
     7
370
    15
100
AcDbCircle
 10
57.6585567801
 20
179.3982982013
 30
0.0
 40
20.32050807568879
100
AcDbArc
 50
150.0
 51
210.0
  0
ARC
  5
2BF
330
1F
100
AcDbEntity
  8
0
  6
Continuous
 62
     7
370
    15
100
AcDbCircle
 10
42.6585567801
 20
170.7380441634
 30
0.0
 40
3.0
100
AcDbArc
 50
210.0
 51
270.0
  0
ARC
  5
2C0
330
1F
100
AcDbEntity
  8
0
  6
Continuous
 62
     7
370
    15
100
AcDbCircle
 10
42.6585567801
 20
188.0585522391
 30
0.0
 40
20.32050807568879
100
AcDbArc
 50
270.0
 51
310.2379722566
  0
ARC
  5
2C1
330
1F
100
AcDbEntity
  8
0
  6
Continuous
 62
     7
370
    15
100
AcDbCircle
 10
53.8469770386
 20
174.8366290765
 30
0.0
 40
3.0
100
AcDbArc
 50
310.2379722566
 51
0.0
  0
LINE
  5
2C2
330
1F
100
AcDbEntity
  8
0
  6
Continuous
 62
     7
370
    15
100
AcDbLine
 10
56.8469770386
 20
174.8366290765
 30
0.0
 11
56.8469770386
 21
177.3982982013
 31
0.0
  0
ARC
  5
2C3
330
1F
100
AcDbEntity
  8
0
  6
Continuous
 62
     7
370
    15
100
AcDbCircle
 10
59.8469770386
 20
177.3982982013
 30
0.0
 40
3.000000000000004
100
AcDbArc
 50
93.5909761502
 51
180.0
  0
ARC
  5
2C4
330
1F
100
AcDbEntity
  8
0
  6
Continuous
 62
     7
370
    15
100
AcDbCircle
 10
59.5964437041
 20
181.3904446225
 30
0.0
 40
1.000000000000031
100
AcDbArc
 50
273.5909761502
 51
318.6365981161
  0
ARC
  5
2C5
330
1F
100
AcDbEntity
  8
0
  6
Continuous
 62
     7
370
    15
100
AcDbCircle
 10
57.6585567801
 20
179.3982982013
 30
0.0
 40
3.000000000000012
100
AcDbArc
 50
26.3447521668
 51
30.0
  0
ARC
  5
2C6
330
1F
100
AcDbEntity
  8
0
  6
Continuous
 62
     7
370
    15
100
AcDbCircle
 10
42.6585567801
 20
170.7380441634
 30
0.0
 40
20.32050807568879
100
AcDbArc
 50
30.0
 51
46.5856744384
  0
ARC
  5
2C7
330
1F
100
AcDbEntity
  8
0
  6
Continuous
 62
     7
370
    15
100
AcDbCircle
 10
55.2496768569
 20
184.0461135712
 30
0.0
 40
2.000000000000007
100
AcDbArc
 50
46.5856744384
 51
131.1611349521
  0
LINE
  5
2C8
330
1F
100
AcDbEntity
  8
0
  6
Continuous
 62
     7
370
    15
100
AcDbLine
 10
23.8469770386
 20
79.6482982013
 30
0.0
 11
23.8469770386
 21
76.1482982013
 31
0.0
  0
LINE
  5
2C9
330
1F
100
AcDbEntity
  8
0
  6
Continuous
 62
     7
370
    15
100
AcDbLine
 10
23.8469770386
 20
76.1482982013
 30
0.0
 11
25.8469770386
 21
76.1482982013
 31
0.0
  0
LINE
  5
2CA
330
1F
100
AcDbEntity
  8
0
  6
Continuous
 62
     7
370
    15
100
AcDbLine
 10
25.8469770386
 20
76.1482982013
 30
0.0
 11
25.8469770386
 21
93.1482982013
 31
0.0
  0
LINE
  5
2CB
330
1F
100
AcDbEntity
  8
0
  6
Continuous
 62
     7
370
    15
100
AcDbLine
 10
25.8469770386
 20
93.1482982013
 30
0.0
 11
23.8469770386
 21
93.1482982013
 31
0.0
  0
LINE
  5
2CC
330
1F
100
AcDbEntity
  8
0
  6
Continuous
 62
     7
370
    15
100
AcDbLine
 10
23.8469770386
 20
93.1482982013
 30
0.0
 11
23.8469770386
 21
89.6482982013
 31
0.0
  0
LINE
  5
2CD
330
1F
100
AcDbEntity
  8
0
  6
Continuous
 62
     7
370
    15
100
AcDbLine
 10
23.8469770386
 20
89.6482982013
 30
0.0
 11
15.2729726035
 21
89.6482982013
 31
0.0
  0
LINE
  5
2CE
330
1F
100
AcDbEntity
  8
0
  6
Continuous
 62
     7
370
    15
100
AcDbLine
 10
15.2729726035
 20
79.6482982013
 30
0.0
 11
15.2729726035
 21
89.6482982013
 31
0.0
  0
LINE
  5
2CF
330
1F
100
AcDbEntity
  8
0
  6
Continuous
 62
     7
370
    15
100
AcDbLine
 10
15.2729726035
 20
79.6482982013
 30
0.0
 11
23.8469770386
 21
79.6482982013
 31
0.0
  0
LINE
  5
2D0
330
1F
100
AcDbEntity
  8
0
  6
Continuous
 62
     7
370
    15
100
AcDbLine
 10
372.8469770386
 20
129.3982982013
 30
0.0
 11
372.8469770386
 21
132.8982982013
 31
0.0
  0
LINE
  5
2D1
330
1F
100
AcDbEntity
  8
0
  6
Continuous
 62
     7
370
    15
100
AcDbLine
 10
372.8469770386
 20
132.8982982013
 30
0.0
 11
370.8469770386
 21
132.8982982013
 31
0.0
  0
LINE
  5
2D2
330
1F
100
AcDbEntity
  8
0
  6
Continuous
 62
     7
370
    15
100
AcDbLine
 10
370.8469770386
 20
132.8982982013
 30
0.0
 11
370.8469770386
 21
115.8982982013
 31
0.0
  0
LINE
  5
2D3
330
1F
100
AcDbEntity
  8
0
  6
Continuous
 62
     7
370
    15
100
AcDbLine
 10
370.8469770386
 20
115.8982982013
 30
0.0
 11
372.8469770386
 21
115.8982982013
 31
0.0
  0
LINE
  5
2D4
330
1F
100
AcDbEntity
  8
0
  6
Continuous
 62
     7
370
    15
100
AcDbLine
 10
372.8469770386
 20
115.8982982013
 30
0.0
 11
372.8469770386
 21
119.3982982013
 31
0.0
  0
LINE
  5
2D5
330
1F
100
AcDbEntity
  8
0
  6
Continuous
 62
     7
370
    15
100
AcDbLine
 10
372.8469770386
 20
119.3982982013
 30
0.0
 11
381.4209814738
 21
119.3982982013
 31
0.0
  0
LINE
  5
2D6
330
1F
100
AcDbEntity
  8
0
  6
Continuous
 62
     7
370
    15
100
AcDbLine
 10
381.4209814738
 20
129.3982982013
 30
0.0
 11
381.4209814738
 21
119.3982982013
 31
0.0
  0
LINE
  5
2D7
330
1F
100
AcDbEntity
  8
0
  6
Continuous
 62
     7
370
    15
100
AcDbLine
 10
381.4209814738
 20
129.3982982013
 30
0.0
 11
372.8469770386
 21
129.3982982013
 31
0.0
  0
LINE
  5
2D8
330
1F
100
AcDbEntity
  8
0
  6
Continuous
 62
     7
370
    15
100
AcDbLine
 10
23.8469770386
 20
159.1482982013
 30
0.0
 11
23.8469770386
 21
155.6482982013
 31
0.0
  0
LINE
  5
2D9
330
1F
100
AcDbEntity
  8
0
  6
Continuous
 62
     7
370
    15
100
AcDbLine
 10
23.8469770386
 20
155.6482982013
 30
0.0
 11
25.8469770386
 21
155.6482982013
 31
0.0
  0
LINE
  5
2DA
330
1F
100
AcDbEntity
  8
0
  6
Continuous
 62
     7
370
    15
100
AcDbLine
 10
25.8469770386
 20
155.6482982013
 30
0.0
 11
25.8469770386
 21
172.6482982013
 31
0.0
  0
LINE
  5
2DB
330
1F
100
AcDbEntity
  8
0
  6
Continuous
 62
     7
370
    15
100
AcDbLine
 10
25.8469770386
 20
172.6482982013
 30
0.0
 11
23.8469770386
 21
172.6482982013
 31
0.0
  0
LINE
  5
2DC
330
1F
100
AcDbEntity
  8
0
  6
Continuous
 62
     7
370
    15
100
AcDbLine
 10
23.8469770386
 20
172.6482982013
 30
0.0
 11
23.8469770386
 21
169.1482982013
 31
0.0
  0
LINE
  5
2DD
330
1F
100
AcDbEntity
  8
0
  6
Continuous
 62
     7
370
    15
100
AcDbLine
 10
23.8469770386
 20
169.1482982013
 30
0.0
 11
15.2729726035
 21
169.1482982013
 31
0.0
  0
LINE
  5
2DE
330
1F
100
AcDbEntity
  8
0
  6
Continuous
 62
     7
370
    15
100
AcDbLine
 10
15.2729726035
 20
159.1482982013
 30
0.0
 11
15.2729726035
 21
169.1482982013
 31
0.0
  0
LINE
  5
2DF
330
1F
100
AcDbEntity
  8
0
  6
Continuous
 62
     7
370
    15
100
AcDbLine
 10
15.2729726035
 20
159.1482982013
 30
0.0
 11
23.8469770386
 21
159.1482982013
 31
0.0
  0
LINE
  5
2E0
330
1F
100
AcDbEntity
  8
0
  6
Continuous
 62
     7
370
    15
100
AcDbLine
 10
381.4209814738
 20
169.1482982013
 30
0.0
 11
372.8469770386
 21
169.1482982013
 31
0.0
  0
LINE
  5
2E1
330
1F
100
AcDbEntity
  8
0
  6
Continuous
 62
     7
370
    15
100
AcDbLine
 10
372.8469770386
 20
169.1482982013
 30
0.0
 11
372.8469770386
 21
172.6482982013
 31
0.0
  0
LINE
  5
2E2
330
1F
100
AcDbEntity
  8
0
  6
Continuous
 62
     7
370
    15
100
AcDbLine
 10
372.8469770386
 20
172.6482982013
 30
0.0
 11
370.8469770386
 21
172.6482982013
 31
0.0
  0
LINE
  5
2E3
330
1F
100
AcDbEntity
  8
0
  6
Continuous
 62
     7
370
    15
100
AcDbLine
 10
370.8469770386
 20
172.6482982013
 30
0.0
 11
370.8469770386
 21
155.6482982013
 31
0.0
  0
LINE
  5
2E4
330
1F
100
AcDbEntity
  8
0
  6
Continuous
 62
     7
370
    15
100
AcDbLine
 10
370.8469770386
 20
155.6482982013
 30
0.0
 11
372.8469770386
 21
155.6482982013
 31
0.0
  0
LINE
  5
2E5
330
1F
100
AcDbEntity
  8
0
  6
Continuous
 62
     7
370
    15
100
AcDbLine
 10
372.8469770386
 20
155.6482982013
 30
0.0
 11
372.8469770386
 21
159.1482982013
 31
0.0
  0
LINE
  5
2E6
330
1F
100
AcDbEntity
  8
0
  6
Continuous
 62
     7
370
    15
100
AcDbLine
 10
372.8469770386
 20
159.1482982013
 30
0.0
 11
381.4209814738
 21
159.1482982013
 31
0.0
  0
LINE
  5
2E7
330
1F
100
AcDbEntity
  8
0
  6
Continuous
 62
     7
370
    15
100
AcDbLine
 10
381.4209814738
 20
169.1482982013
 30
0.0
 11
381.4209814738
 21
159.1482982013
 31
0.0
  0
LINE
  5
2E8
330
1F
100
AcDbEntity
  8
0
  6
Continuous
 62
     7
370
    15
100
AcDbLine
 10
388.0369895153
 20
177.5980486691
 30
0.0
 11
390.7720706132
 21
122.8964267096
 31
0.0
  0
ARC
  5
2E9
330
1F
100
AcDbEntity
  8
0
  6
Continuous
 62
     7
370
    15
100
AcDbCircle
 10
360.8095004469
 20
121.3982982013
 30
0.0
 40
29.99999999999996
100
AcDbArc
 50
357.1375947739
 51
2.8624052261
  0
LINE
  5
2EA
330
1F
100
AcDbEntity
  8
0
  6
Continuous
 62
     7
370
    15
100
AcDbLine
 10
390.7720706132
 20
119.900169693
 30
0.0
 11
388.0369895153
 21
65.1985477335
 31
0.0
  0
LINE
  5
2EB
330
1F
100
AcDbEntity
  8
0
  6
Continuous
 62
     7
370
    15
100
AcDbLine
 10
378.8469770386
 20
61.3982982013
 30
0.0
 11
384.0280933344
 21
61.3982982013
 31
0.0
  0
ARC
  5
2EC
330
1F
100
AcDbEntity
  8
0
  6
Continuous
 62
     7
370
    15
100
AcDbCircle
 10
378.8469770386
 20
58.3982982013
 30
0.0
 40
3.0
100
AcDbArc
 50
90.0
 51
180.0
  0
LINE
  5
2ED
330
1F
100
AcDbEntity
  8
0
  6
Continuous
 62
     7
370
    15
100
AcDbLine
 10
375.8469770386
 20
19.3982982013
 30
0.0
 11
375.8469770386
 21
58.3982982013
 31
0.0
  0
ARC
  5
2EE
330
1F
100
AcDbEntity
  8
0
  6
Continuous
 62
     7
370
    15
100
AcDbCircle
 10
365.8469770386
 20
19.3982982013
 30
0.0
 40
10.00000000000001
100
AcDbArc
 50
270.0
 51
0.0
  0
LINE
  5
2EF
330
1F
100
AcDbEntity
  8
0
  6
Continuous
 62
     7
370
    15
100
AcDbLine
 10
30.8469770386
 20
9.3982982013
 30
0.0
 11
365.8469770386
 21
9.3982982013
 31
0.0
  0
ARC
  5
2F0
330
1F
100
AcDbEntity
  8
0
  6
Continuous
 62
     7
370
    15
100
AcDbCircle
 10
30.8469770386
 20
19.3982982013
 30
0.0
 40
10.00000000000001
100
AcDbArc
 50
180.0
 51
270.0
  0
LINE
  5
2F1
330
1F
100
AcDbEntity
  8
0
  6
Continuous
 62
     7
370
    15
100
AcDbLine
 10
20.8469770386
 20
58.3982982013
 30
0.0
 11
20.8469770386
 21
19.3982982013
 31
0.0
  0
ARC
  5
2F2
330
1F
100
AcDbEntity
  8
0
  6
Continuous
 62
     7
370
    15
100
AcDbCircle
 10
17.8469770386
 20
58.3982982013
 30
0.0
 40
3.000000000000014
100
AcDbArc
 50
0.0
 51
90.0
  0
LINE
  5
2F3
330
1F
100
AcDbEntity
  8
0
  6
Continuous
 62
     7
370
    15
100
AcDbLine
 10
12.6658607429
 20
61.3982982013
 30
0.0
 11
17.8469770386
 21
61.3982982013
 31
0.0
  0
LINE
  5
2F4
330
1F
100
AcDbEntity
  8
0
  6
Continuous
 62
     7
370
    15
100
AcDbLine
 10
8.656964562
 20
65.1985477335
 30
0.0
 11
5.9218834641
 21
119.900169693
 31
0.0
  0
ARC
  5
2F5
330
1F
100
AcDbEntity
  8
0
  6
Continuous
 62
     7
370
    15
100
AcDbCircle
 10
35.8844536304
 20
121.3982982013
 30
0.0
 40
29.99999999999999
100
AcDbArc
 50
177.1375947739
 51
182.8624052261
  0
LINE
  5
2F6
330
1F
100
AcDbEntity
  8
0
  6
Continuous
 62
     7
370
    15
100
AcDbLine
 10
5.9218834641
 20
122.8964267096
 30
0.0
 11
8.656964562
 21
177.5980486691
 31
0.0
  0
LINE
  5
2F7
330
1F
100
AcDbEntity
  8
0
  6
Continuous
 62
     7
370
    15
100
AcDbLine
 10
17.8469770386
 20
181.3982982013
 30
0.0
 11
12.6658607429
 21
181.3982982013
 31
0.0
  0
ARC
  5
2F8
330
1F
100
AcDbEntity
  8
0
  6
Continuous
 62
     7
370
    15
100
AcDbCircle
 10
17.8469770386
 20
184.3982982013
 30
0.0
 40
3.000000000000004
100
AcDbArc
 50
270.0
 51
0.0
  0
LINE
  5
2F9
330
1F
100
AcDbEntity
  8
0
  6
Continuous
 62
     7
370
    15
100
AcDbLine
 10
20.8469770386
 20
223.3982982013
 30
0.0
 11
20.8469770386
 21
184.3982982013
 31
0.0
  0
ARC
  5
2FA
330
1F
100
AcDbEntity
  8
0
  6
Continuous
 62
     7
370
    15
100
AcDbCircle
 10
30.8469770386
 20
223.3982982013
 30
0.0
 40
10.00000000000001
100
AcDbArc
 50
90.0
 51
180.0
  0
LINE
  5
2FB
330
1F
100
AcDbEntity
  8
0
  6
Continuous
 62
     7
370
    15
100
AcDbLine
 10
365.8469770386
 20
233.3982982013
 30
0.0
 11
30.8469770386
 21
233.3982982013
 31
0.0
  0
ARC
  5
2FC
330
1F
100
AcDbEntity
  8
0
  6
Continuous
 62
     7
370
    15
100
AcDbCircle
 10
365.8469770386
 20
223.3982982013
 30
0.0
 40
10.0
100
AcDbArc
 50
0.0
 51
90.0
  0
LINE
  5
2FD
330
1F
100
AcDbEntity
  8
0
  6
Continuous
 62
     7
370
    15
100
AcDbLine
 10
375.8469770386
 20
184.3982982013
 30
0.0
 11
375.8469770386
 21
223.3982982013
 31
0.0
  0
ARC
  5
2FE
330
1F
100
AcDbEntity
  8
0
  6
Continuous
 62
     7
370
    15
100
AcDbCircle
 10
378.8469770386
 20
184.3982982013
 30
0.0
 40
3.0
100
AcDbArc
 50
180.0
 51
270.0
  0
LINE
  5
2FF
330
1F
100
AcDbEntity
  8
0
  6
Continuous
 62
     7
370
    15
100
AcDbLine
 10
384.0280933344
 20
181.3982982013
 30
0.0
 11
378.8469770386
 21
181.3982982013
 31
0.0
  0
LINE
  5
300
330
1F
100
AcDbEntity
  8
0
  6
Continuous
 62
     7
370
    15
100
AcDbLine
 10
381.4209814738
 20
89.6482982013
 30
0.0
 11
372.8469770386
 21
89.6482982013
 31
0.0
  0
LINE
  5
301
330
1F
100
AcDbEntity
  8
0
  6
Continuous
 62
     7
370
    15
100
AcDbLine
 10
372.8469770386
 20
89.6482982013
 30
0.0
 11
372.8469770386
 21
93.1482982013
 31
0.0
  0
LINE
  5
302
330
1F
100
AcDbEntity
  8
0
  6
Continuous
 62
     7
370
    15
100
AcDbLine
 10
372.8469770386
 20
93.1482982013
 30
0.0
 11
370.8469770386
 21
93.1482982013
 31
0.0
  0
LINE
  5
303
330
1F
100
AcDbEntity
  8
0
  6
Continuous
 62
     7
370
    15
100
AcDbLine
 10
370.8469770386
 20
93.1482982013
 30
0.0
 11
370.8469770386
 21
76.1482982013
 31
0.0
  0
LINE
  5
304
330
1F
100
AcDbEntity
  8
0
  6
Continuous
 62
     7
370
    15
100
AcDbLine
 10
370.8469770386
 20
76.1482982013
 30
0.0
 11
372.8469770386
 21
76.1482982013
 31
0.0
  0
LINE
  5
305
330
1F
100
AcDbEntity
  8
0
  6
Continuous
 62
     7
370
    15
100
AcDbLine
 10
372.8469770386
 20
76.1482982013
 30
0.0
 11
372.8469770386
 21
79.6482982013
 31
0.0
  0
LINE
  5
306
330
1F
100
AcDbEntity
  8
0
  6
Continuous
 62
     7
370
    15
100
AcDbLine
 10
372.8469770386
 20
79.6482982013
 30
0.0
 11
381.4209814738
 21
79.6482982013
 31
0.0
  0
LINE
  5
307
330
1F
100
AcDbEntity
  8
0
  6
Continuous
 62
     7
370
    15
100
AcDbLine
 10
381.4209814738
 20
89.6482982013
 30
0.0
 11
381.4209814738
 21
79.6482982013
 31
0.0
  0
SPLINE
  5
308
330
1F
100
AcDbEntity
  8
0
  6
Continuous
 62
     7
370
    15
100
AcDbSpline
210
0.0
220
0.0
230
1.0
 70
     8
 71
     3
 72
    13
 73
     9
 74
     0
 42
0.000000001
 43
0.00000001
 40
0.0
 40
0.0
 40
0.0
 40
0.0
 40
0.1695540208473024
 40
0.3375362683664872
 40
0.5042545764729746
 40
0.6700238206477505
 40
0.8351643052384129
 40
1.0
 40
1.0
 40
1.0
 40
1.0
 10
385.1301623458185
 20
181.2474357059544
 30
0.0
 10
385.0691081323728
 20
181.2631822011696
 30
0.0
 10
384.9475656807605
 20
181.2945292208877
 30
0.0
 10
384.7636873321244
 20
181.3315750271662
 30
0.0
 10
384.5798955834951
 20
181.3610072859987
 30
0.0
 10
384.3960082165671
 20
181.3819471520161
 30
0.0
 10
384.2120781564773
 20
181.3953219472781
 30
0.0
 10
384.0893838319546
 20
181.3973067277075
 30
0.0
 10
384.0280933343625
 20
181.398298201279
 30
0.0
  0
SPLINE
  5
309
330
1F
100
AcDbEntity
  8
0
  6
Continuous
 62
     7
370
    15
100
AcDbSpline
210
0.0
220
0.0
230
1.0
 70
     8
 71
     3
 72
    13
 73
     9
 74
     0
 42
0.000000001
 43
0.00000001
 40
0.0
 40
0.0
 40
0.0
 40
0.0
 40
0.169554020847301
 40
0.3375362683665304
 40
0.5042545764730133
 40
0.670023820647787
 40
0.8351643052384521
 40
1.0
 40
1.0
 40
1.0
 40
1.0
 10
11.56379173145924
 20
61.54916069660365
 30
0.0
 10
11.62484594490537
 20
61.5334142013884
 30
0.0
 10
11.74638839651845
 20
61.50206718167013
 30
0.0
 10
11.93026674515574
 20
61.46502137539154
 30
0.0
 10
12.11405849378625
 20
61.43558911655897
 30
0.0
 10
12.29794586071534
 20
61.41464925054164
 30
0.0
 10
12.48187592080643
 20
61.40127445527973
 30
0.0
 10
12.60457024532988
 20
61.39928967485044
 30
0.0
 10
12.66586074292223
 20
61.39829820127906
 30
0.0
  0
ARC
  5
30A
330
1F
100
AcDbEntity
  8
0
  6
Continuous
 62
     7
370
    15
100
AcDbCircle
 10
384.0419801597
 20
177.3982982013
 30
0.0
 40
4.00000000000002
100
AcDbArc
 50
2.8624052261
 51
74.2139748845
  0
ARC
  5
30B
330
1F
100
AcDbEntity
  8
0
  6
Continuous
 62
     7
370
    15
100
AcDbCircle
 10
12.6519739175
 20
65.3982982013
 30
0.0
 40
3.999999999999999
100
AcDbArc
 50
182.8624052261
 51
254.2139748846
  0
ARC
  5
30C
330
1F
100
AcDbEntity
  8
0
  6
Continuous
 62
     7
370
    15
100
AcDbCircle
 10
12.6519739175
 20
177.3982982013
 30
0.0
 40
3.999999999999986
100
AcDbArc
 50
105.7860251155
 51
177.1375947739
  0
SPLINE
  5
30D
330
1F
100
AcDbEntity
  8
0
  6
Continuous
 62
     7
370
    15
100
AcDbSpline
210
0.0
220
0.0
230
1.0
 70
     8
 71
     3
 72
    13
 73
     9
 74
     0
 42
0.000000001
 43
0.00000001
 40
0.0
 40
0.0
 40
0.0
 40
0.0
 40
0.1726204019698953
 40
0.3424481972813534
 40
0.5097818970654756
 40
0.6749335372193777
 40
0.83822766309835
 40
1.0
 40
1.0
 40
1.0
 40
1.0
 10
384.0280933343573
 20
61.398298201279
 30
0.0
 10
384.0922704239877
 20
61.39969402490154
 30
0.0
 10
384.2195863634704
 20
61.40246309088568
 30
0.0
 10
384.4086976419354
 20
61.41642149047811
 30
0.0
 10
384.5943223914377
 20
61.43752830967348
 30
0.0
 10
384.776395214013
 20
61.46666267396467
 30
0.0
 10
384.9551264276118
 20
61.5028942317231
 30
0.0
 10
385.0719994188938
 20
61.53378674911057
 30
0.0
 10
385.1301623458185
 20
61.54916069660362
 30
0.0
  0
ARC
  5
30E
330
1F
100
AcDbEntity
  8
0
  6
Continuous
 62
     7
370
    15
100
AcDbCircle
 10
384.0419801597
 20
65.3982982013
 30
0.0
 40
4.00000000000002
100
AcDbArc
 50
285.7860251155
 51
357.1375947739
  0
SPLINE
  5
30F
330
1F
100
AcDbEntity
  8
0
  6
Continuous
 62
     7
370
    15
100
AcDbSpline
210
0.0
220
0.0
230
1.0
 70
     8
 71
     3
 72
    13
 73
     9
 74
     0
 42
0.000000001
 43
0.00000001
 40
0.0
 40
0.0
 40
0.0
 40
0.0
 40
0.1726204019706941
 40
0.3424481972826727
 40
0.5097818970669608
 40
0.6749335372206998
 40
0.838227663099208
 40
0.9999999999999999
 40
0.9999999999999999
 40
0.9999999999999999
 40
0.9999999999999999
 10
12.66586074291806
 20
181.398298201279
 30
0.0
 10
12.60168365328748
 20
181.3969023776565
 30
0.0
 10
12.47436771380445
 20
181.3941333116722
 30
0.0
 10
12.28525643533951
 20
181.3801749120797
 30
0.0
 10
12.09963168583739
 20
181.3590680928843
 30
0.0
 10
11.91755886326271
 20
181.3299337285932
 30
0.0
 10
11.73882764966464
 20
181.2937021708349
 30
0.0
 10
11.62195465838342
 20
181.2628096534474
 30
0.0
 10
11.56379173145922
 20
181.2474357059544
 30
0.0
  0
ENDSEC
  0
SECTION
  2
OBJECTS
  0
DICTIONARY
  5
C
330
0
100
AcDbDictionary
281
     1
  3
ACAD_GROUP
350
D
  3
ACAD_LAYOUT
350
1A
  3
ACAD_MLINESTYLE
350
17
  3
ACAD_PLOTSETTINGS
350
19
  3
ACAD_PLOTSTYLENAME
350
E
  3
ACAD_SCALELIST
350
47
  0
DICTIONARY
  5
D
102
{ACAD_REACTORS
330
C
102
}
330
C
100
AcDbDictionary
281
     1
  0
DICTIONARY
  5
1A
102
{ACAD_REACTORS
330
C
102
}
330
C
100
AcDbDictionary
281
     1
  3
Layout1
350
1E
  3
Layout2
350
26
  3
Model
350
22
  0
DICTIONARY
  5
17
102
{ACAD_REACTORS
330
C
102
}
330
C
100
AcDbDictionary
281
     1
  3
Standard
350
18
  0
DICTIONARY
  5
19
102
{ACAD_REACTORS
330
C
102
}
330
C
100
AcDbDictionary
281
     1
  0
ACDBDICTIONARYWDFLT
  5
E
102
{ACAD_REACTORS
330
C
102
}
330
C
100
AcDbDictionary
281
     1
  3
Normal
350
F
100
AcDbDictionaryWithDefault
340
F
  0
DICTIONARY
  5
47
102
{ACAD_REACTORS
330
C
102
}
330
C
100
AcDbDictionary
281
     1
  3
A0
350
48
  3
A1
350
49
  3
A2
350
4A
  3
A3
350
4B
  3
A4
350
4C
  3
A5
350
4D
  3
A6
350
4E
  3
A7
350
4F
  3
A8
350
50
  3
A9
350
51
  3
B0
350
52
  3
B1
350
53
  3
B2
350
54
  3
B3
350
55
  3
B4
350
56
  3
B5
350
57
  3
B6
350
58
  3
B7
350
59
  3
B8
350
5A
  3
B9
350
5B
  3
C0
350
5C
  3
C1
350
5D
  3
C2
350
5E
  3
C3
350
5F
  3
C4
350
60
  3
C5
350
61
  3
C6
350
62
  3
C7
350
63
  3
C8
350
64
  3
C9
350
65
  3
D0
350
66
  3
D1
350
67
  3
D2
350
68
  0
LAYOUT
  5
1E
102
{ACAD_REACTORS
330
1A
102
}
330
1A
100
AcDbPlotSettings
  1

  2
none_device
  4

  6

 40
0.0
 41
0.0
 42
0.0
 43
0.0
 44
0.0
 45
0.0
 46
0.0
 47
0.0
 48
0.0
 49
0.0
140
0.0
141
0.0
142
1.0
143
1.0
 70
   688
 72
     1
 73
     0
 74
     5
  7

 75
    16
147
1.0
148
0.0
149
0.0
100
AcDbLayout
  1
Layout1
 70
     1
 71
     1
 10
0.0
 20
0.0
 11
420.0
 21
297.0
 12
0.0
 22
0.0
 32
0.0
 14
1.0000000000E+20
 24
1.0000000000E+20
 34
1.0000000000E+20
 15
-1.0000000000E+20
 25
-1.0000000000E+20
 35
-1.0000000000E+20
146
0.0
 13
0.0
 23
0.0
 33
0.0
 16
1.0
 26
0.0
 36
0.0
 17
0.0
 27
1.0
 37
0.0
 76
     0
330
1B
  0
LAYOUT
  5
26
102
{ACAD_REACTORS
330
1A
102
}
330
1A
100
AcDbPlotSettings
  1

  2
none_device
  4

  6

 40
0.0
 41
0.0
 42
0.0
 43
0.0
 44
0.0
 45
0.0
 46
0.0
 47
0.0
 48
0.0
 49
0.0
140
0.0
141
0.0
142
1.0
143
1.0
 70
   688
 72
     1
 73
     0
 74
     5
  7

 75
    16
147
1.0
148
0.0
149
0.0
100
AcDbLayout
  1
Layout2
 70
     1
 71
     2
 10
0.0
 20
0.0
 11
0.0
 21
0.0
 12
0.0
 22
0.0
 32
0.0
 14
0.0
 24
0.0
 34
0.0
 15
0.0
 25
0.0
 35
0.0
146
0.0
 13
0.0
 23
0.0
 33
0.0
 16
1.0
 26
0.0
 36
0.0
 17
0.0
 27
1.0
 37
0.0
 76
     0
330
23
  0
LAYOUT
  5
22
102
{ACAD_REACTORS
330
1A
102
}
330
1A
100
AcDbPlotSettings
  1

  2
none_device
  4
Letter_(8.50_x_11.00_Inches)
  6

 40
6.35
 41
6.35
 42
6.35000508
 43
6.35000508
 44
215.9
 45
279.4
 46
0.0
 47
0.0
 48
0.0
 49
0.0
140
0.0
141
0.0
142
1.0
143
1.0
 70
  1712
 72
     1
 73
     0
 74
     0
  7

 75
     0
147
1.0
148
0.0
149
0.0
100
AcDbLayout
  1
Model
 70
     1
 71
     0
 10
0.0
 20
0.0
 11
594.0
 21
420.0
 12
0.0
 22
0.0
 32
0.0
 14
0.0
 24
0.0
 34
0.0
 15
594.0
 25
420.0
 35
0.0
146
0.0
 13
0.0
 23
0.0
 33
0.0
 16
1.0
 26
0.0
 36
0.0
 17
0.0
 27
1.0
 37
0.0
 76
     0
330
1F
331
29
  0
MLINESTYLE
  5
18
102
{ACAD_REACTORS
330
17
102
}
330
17
100
AcDbMlineStyle
  2
Standard
 70
     0
  3

 62
   256
 51
90.0
 52
90.0
 71
     2
 49
0.5
 62
   256
  6
BYLAYER
 49
-0.5
 62
   256
  6
BYLAYER
  0
ACDBPLACEHOLDER
  5
F
102
{ACAD_REACTORS
330
E
102
}
330
E
  0
SCALE
  5
48
102
{ACAD_REACTORS
330
47
102
}
330
47
100
AcDbScale
 70
     0
300
1:1
140
1.0
141
1.0
290
     1
  0
SCALE
  5
49
102
{ACAD_REACTORS
330
47
102
}
330
47
100
AcDbScale
 70
     0
300
1:2
140
1.0
141
2.0
290
     0
  0
SCALE
  5
4A
102
{ACAD_REACTORS
330
47
102
}
330
47
100
AcDbScale
 70
     0
300
1:4
140
1.0
141
4.0
290
     0
  0
SCALE
  5
4B
102
{ACAD_REACTORS
330
47
102
}
330
47
100
AcDbScale
 70
     0
300
1:5
140
1.0
141
5.0
290
     0
  0
SCALE
  5
4C
102
{ACAD_REACTORS
330
47
102
}
330
47
100
AcDbScale
 70
     0
300
1:8
140
1.0
141
8.0
290
     0
  0
SCALE
  5
4D
102
{ACAD_REACTORS
330
47
102
}
330
47
100
AcDbScale
 70
     0
300
1:10
140
1.0
141
10.0
290
     0
  0
SCALE
  5
4E
102
{ACAD_REACTORS
330
47
102
}
330
47
100
AcDbScale
 70
     0
300
1:16
140
1.0
141
16.0
290
     0
  0
SCALE
  5
4F
102
{ACAD_REACTORS
330
47
102
}
330
47
100
AcDbScale
 70
     0
300
1:20
140
1.0
141
20.0
290
     0
  0
SCALE
  5
50
102
{ACAD_REACTORS
330
47
102
}
330
47
100
AcDbScale
 70
     0
300
1:30
140
1.0
141
30.0
290
     0
  0
SCALE
  5
51
102
{ACAD_REACTORS
330
47
102
}
330
47
100
AcDbScale
 70
     0
300
1:40
140
1.0
141
40.0
290
     0
  0
SCALE
  5
52
102
{ACAD_REACTORS
330
47
102
}
330
47
100
AcDbScale
 70
     0
300
1:50
140
1.0
141
50.0
290
     0
  0
SCALE
  5
53
102
{ACAD_REACTORS
330
47
102
}
330
47
100
AcDbScale
 70
     0
300
1:100
140
1.0
141
100.0
290
     0
  0
SCALE
  5
54
102
{ACAD_REACTORS
330
47
102
}
330
47
100
AcDbScale
 70
     0
300
2:1
140
2.0
141
1.0
290
     0
  0
SCALE
  5
55
102
{ACAD_REACTORS
330
47
102
}
330
47
100
AcDbScale
 70
     0
300
4:1
140
4.0
141
1.0
290
     0
  0
SCALE
  5
56
102
{ACAD_REACTORS
330
47
102
}
330
47
100
AcDbScale
 70
     0
300
8:1
140
8.0
141
1.0
290
     0
  0
SCALE
  5
57
102
{ACAD_REACTORS
330
47
102
}
330
47
100
AcDbScale
 70
     0
300
10:1
140
10.0
141
1.0
290
     0
  0
SCALE
  5
58
102
{ACAD_REACTORS
330
47
102
}
330
47
100
AcDbScale
 70
     0
300
100:1
140
100.0
141
1.0
290
     0
  0
SCALE
  5
59
102
{ACAD_REACTORS
330
47
102
}
330
47
100
AcDbScale
 70
     0
300
1/128" = 1'-0"
140
0.0078125
141
12.0
290
     0
  0
SCALE
  5
5A
102
{ACAD_REACTORS
330
47
102
}
330
47
100
AcDbScale
 70
     0
300
1/64" = 1'-0"
140
0.015625
141
12.0
290
     0
  0
SCALE
  5
5B
102
{ACAD_REACTORS
330
47
102
}
330
47
100
AcDbScale
 70
     0
300
1/32" = 1'-0"
140
0.03125
141
12.0
290
     0
  0
SCALE
  5
5C
102
{ACAD_REACTORS
330
47
102
}
330
47
100
AcDbScale
 70
     0
300
1/16" = 1'-0"
140
0.0625
141
12.0
290
     0
  0
SCALE
  5
5D
102
{ACAD_REACTORS
330
47
102
}
330
47
100
AcDbScale
 70
     0
300
3/32" = 1'-0"
140
0.09375
141
12.0
290
     0
  0
SCALE
  5
5E
102
{ACAD_REACTORS
330
47
102
}
330
47
100
AcDbScale
 70
     0
300
1/8" = 1'-0"
140
0.125
141
12.0
290
     0
  0
SCALE
  5
5F
102
{ACAD_REACTORS
330
47
102
}
330
47
100
AcDbScale
 70
     0
300
3/16" = 1'-0"
140
0.1875
141
12.0
290
     0
  0
SCALE
  5
60
102
{ACAD_REACTORS
330
47
102
}
330
47
100
AcDbScale
 70
     0
300
1/4" = 1'-0"
140
0.25
141
12.0
290
     0
  0
SCALE
  5
61
102
{ACAD_REACTORS
330
47
102
}
330
47
100
AcDbScale
 70
     0
300
3/8" = 1'-0"
140
0.375
141
12.0
290
     0
  0
SCALE
  5
62
102
{ACAD_REACTORS
330
47
102
}
330
47
100
AcDbScale
 70
     0
300
1/2" = 1'-0"
140
0.5
141
12.0
290
     0
  0
SCALE
  5
63
102
{ACAD_REACTORS
330
47
102
}
330
47
100
AcDbScale
 70
     0
300
3/4" = 1'-0"
140
0.75
141
12.0
290
     0
  0
SCALE
  5
64
102
{ACAD_REACTORS
330
47
102
}
330
47
100
AcDbScale
 70
     0
300
1" = 1'-0"
140
1.0
141
12.0
290
     0
  0
SCALE
  5
65
102
{ACAD_REACTORS
330
47
102
}
330
47
100
AcDbScale
 70
     0
300
1-1/2" = 1'-0"
140
1.5
141
12.0
290
     0
  0
SCALE
  5
66
102
{ACAD_REACTORS
330
47
102
}
330
47
100
AcDbScale
 70
     0
300
3" = 1'-0"
140
3.0
141
12.0
290
     0
  0
SCALE
  5
67
102
{ACAD_REACTORS
330
47
102
}
330
47
100
AcDbScale
 70
     0
300
6" = 1'-0"
140
6.0
141
12.0
290
     0
  0
SCALE
  5
68
102
{ACAD_REACTORS
330
47
102
}
330
47
100
AcDbScale
 70
     0
300
1'-0" = 1'-0"
140
12.0
141
12.0
290
     0
  0
ENDSEC
  0
EOF
