  0
SECTION
  2
HEADER
  9
$ACADVER
  1
AC1015
  9
$ACADMAINTVER
 70
     6
  9
$DWGCODEPAGE
  3
ANSI_1252
  9
$INSBASE
 10
0.0
 20
0.0
 30
0.0
  9
$EXTMIN
 10
0.0
 20
0.0
 30
0.0
  9
$EXTMAX
 10
841.0
 20
594.0
 30
0.0
  9
$LIMMIN
 10
0.0
 20
0.0
  9
$LIMMAX
 10
841.0
 20
594.0
  9
$ORTHOMODE
 70
     0
  9
$REGENMODE
 70
     1
  9
$FILLMODE
 70
     1
  9
$QTEXTMODE
 70
     0
  9
$MIRRTEXT
 70
     1
  9
$LTSCALE
 40
1.0
  9
$ATTMODE
 70
     1
  9
$TEXTSIZE
 40
3.5
  9
$TRACEWID
 40
1.0
  9
$TEXTSTYLE
  7
Standard
  9
$CLAYER
  8
0
  9
$CELTYPE
  6
ByLayer
  9
$CECOLOR
 62
   256
  9
$CELTSCALE
 40
1.0
  9
$DISPSILH
 70
     0
  9
$DIMSCALE
 40
1.0
  9
$DIMASZ
 40
3.556
  9
$DIMEXO
 40
1.0
  9
$DIMDLI
 40
3.75
  9
$DIMRND
 40
0.0
  9
$DIMDLE
 40
0.0
  9
$DIMEXE
 40
1.0
  9
$DIMTP
 40
0.0
  9
$DIMTM
 40
0.0
  9
$DIMTXT
 40
3.5
  9
$DIMCEN
 40
2.5
  9
$DIMTSZ
 40
0.0
  9
$DIMTOL
 70
     0
  9
$DIMLIM
 70
     0
  9
$DIMTIH
 70
     1
  9
$DIMTOH
 70
     1
  9
$DIMSE1
 70
     0
  9
$DIMSE2
 70
     0
  9
$DIMTAD
 70
     1
  9
$DIMZIN
 70
     0
  9
$DIMBLK
  1

  9
$DIMASO
 70
     1
  9
$DIMSHO
 70
     1
  9
$DIMPOST
  1

  9
$DIMAPOST
  1

  9
$DIMALT
 70
     0
  9
$DIMALTD
 70
     3
  9
$DIMALTF
 40
0.0393700787
  9
$DIMLFAC
 40
1.0
  9
$DIMTOFL
 70
     1
  9
$DIMTVP
 40
0.0
  9
$DIMTIX
 70
     0
  9
$DIMSOXD
 70
     0
  9
$DIMSAH
 70
     0
  9
$DIMBLK1
  1

  9
$DIMBLK2
  1

  9
$DIMSTYLE
  2
ISO-25
  9
$DIMCLRD
 70
     0
  9
$DIMCLRE
 70
     0
  9
$DIMCLRT
 70
     0
  9
$DIMTFAC
 40
1.0
  9
$DIMGAP
 40
1.524
  9
$DIMJUST
 70
     0
  9
$DIMSD1
 70
     0
  9
$DIMSD2
 70
     0
  9
$DIMTOLJ
 70
     0
  9
$DIMTZIN
 70
     0
  9
$DIMALTZ
 70
     0
  9
$DIMALTTZ
 70
     0
  9
$DIMUPT
 70
     0
  9
$DIMDEC
 70
     2
  9
$DIMTDEC
 70
     2
  9
$DIMALTU
 70
     2
  9
$DIMALTTD
 70
     3
  9
$DIMTXSTY
  7
Standard
  9
$DIMAUNIT
 70
     0
  9
$DIMADEC
 70
     2
  9
$DIMALTRND
 40
0.0
  9
$DIMAZIN
 70
     0
  9
$DIMDSEP
 70
    44
  9
$DIMATFIT
 70
     3
  9
$DIMFRAC
 70
     0
  9
$DIMLDRBLK
  1

  9
$DIMLUNIT
 70
     2
  9
$DIMLWD
 70
    -2
  9
$DIMLWE
 70
    -2
  9
$DIMTMOVE
 70
     0
  9
$LUNITS
 70
     2
  9
$LUPREC
 70
     5
  9
$SKETCHINC
 40
1.0
  9
$FILLETRAD
 40
10.0
  9
$AUNITS
 70
     0
  9
$AUPREC
 70
     2
  9
$MENU
  1
.
  9
$ELEVATION
 40
0.0
  9
$PELEVATION
 40
0.0
  9
$THICKNESS
 40
0.0
  9
$LIMCHECK
 70
     0
  9
$CHAMFERA
 40
0.0
  9
$CHAMFERB
 40
0.0
  9
$CHAMFERC
 40
0.0
  9
$CHAMFERD
 40
0.0
  9
$SKPOLY
 70
     0
  9
$TDCREATE
 40
2457823.422465116
  9
$TDUCREATE
 40
2457823.422465116
  9
$TDUPDATE
 40
2457823.422465579
  9
$TDUUPDATE
 40
2457823.422465579
  9
$TDINDWG
 40
0.0000000116
  9
$TDUSRTIMER
 40
0.0000000116
  9
$USRTIMER
 70
     1
  9
$ANGBASE
 50
0.0
  9
$ANGDIR
 70
     0
  9
$PDMODE
 70
     0
  9
$PDSIZE
 40
-1.0
  9
$PLINEWID
 40
0.0
  9
$SPLFRAME
 70
     0
  9
$SPLINETYPE
 70
     6
  9
$SPLINESEGS
 70
     8
  9
$HANDSEED
  5
C0
  9
$SURFTAB1
 70
     6
  9
$SURFTAB2
 70
     6
  9
$SURFTYPE
 70
     6
  9
$SURFU
 70
     6
  9
$SURFV
 70
     6
  9
$UCSBASE
  2

  9
$UCSNAME
  2

  9
$UCSORG
 10
0.0
 20
0.0
 30
0.0
  9
$UCSXDIR
 10
1.0
 20
0.0
 30
0.0
  9
$UCSYDIR
 10
0.0
 20
1.0
 30
0.0
  9
$UCSORTHOREF
  2

  9
$UCSORTHOVIEW
 70
     0
  9
$UCSORGTOP
 10
0.0
 20
0.0
 30
0.0
  9
$UCSORGBOTTOM
 10
0.0
 20
0.0
 30
0.0
  9
$UCSORGLEFT
 10
0.0
 20
0.0
 30
0.0
  9
$UCSORGRIGHT
 10
0.0
 20
0.0
 30
0.0
  9
$UCSORGFRONT
 10
0.0
 20
0.0
 30
0.0
  9
$UCSORGBACK
 10
0.0
 20
0.0
 30
0.0
  9
$PUCSBASE
  2

  9
$PUCSNAME
  2

  9
$PUCSORG
 10
0.0
 20
0.0
 30
0.0
  9
$PUCSXDIR
 10
1.0
 20
0.0
 30
0.0
  9
$PUCSYDIR
 10
0.0
 20
1.0
 30
0.0
  9
$PUCSORTHOREF
  2

  9
$PUCSORTHOVIEW
 70
     0
  9
$PUCSORGTOP
 10
0.0
 20
0.0
 30
0.0
  9
$PUCSORGBOTTOM
 10
0.0
 20
0.0
 30
0.0
  9
$PUCSORGLEFT
 10
0.0
 20
0.0
 30
0.0
  9
$PUCSORGRIGHT
 10
0.0
 20
0.0
 30
0.0
  9
$PUCSORGFRONT
 10
0.0
 20
0.0
 30
0.0
  9
$PUCSORGBACK
 10
0.0
 20
0.0
 30
0.0
  9
$USERI1
 70
     0
  9
$USERI2
 70
     0
  9
$USERI3
 70
     0
  9
$USERI4
 70
     0
  9
$USERI5
 70
     0
  9
$USERR1
 40
0.0
  9
$USERR2
 40
0.0
  9
$USERR3
 40
0.0
  9
$USERR4
 40
0.0
  9
$USERR5
 40
0.0
  9
$WORLDVIEW
 70
     1
  9
$SHADEDGE
 70
     3
  9
$SHADEDIF
 70
    70
  9
$TILEMODE
 70
     1
  9
$MAXACTVP
 70
    64
  9
$PINSBASE
 10
0.0
 20
0.0
 30
0.0
  9
$PLIMCHECK
 70
     0
  9
$PEXTMIN
 10
1.0000000000E+20
 20
1.0000000000E+20
 30
1.0000000000E+20
  9
$PEXTMAX
 10
-1.0000000000E+20
 20
-1.0000000000E+20
 30
-1.0000000000E+20
  9
$PLIMMIN
 10
0.0
 20
0.0
  9
$PLIMMAX
 10
420.0
 20
297.0
  9
$UNITMODE
 70
     0
  9
$VISRETAIN
 70
     1
  9
$PLINEGEN
 70
     0
  9
$PSLTSCALE
 70
     1
  9
$TREEDEPTH
 70
  3020
  9
$CMLSTYLE
  2
Standard
  9
$CMLJUST
 70
     0
  9
$CMLSCALE
 40
20.0
  9
$PROXYGRAPHICS
 70
     1
  9
$MEASUREMENT
 70
     1
  9
$CELWEIGHT
370
    -1
  9
$ENDCAPS
280
     0
  9
$JOINSTYLE
280
     0
  9
$LWDISPLAY
290
     1
  9
$INSUNITS
 70
     4
  9
$HYPERLINKBASE
  1

  9
$STYLESHEET
  1

  9
$XEDIT
290
     1
  9
$CEPSNTYPE
380
     0
  9
$PSTYLEMODE
290
     1
  9
$FINGERPRINTGUID
  2
{912208BE-3482-4E11-A8AE-9041B68A2082}
  9
$VERSIONGUID
  2
{FAEB1C32-E019-11D5-929B-00C0DF256EC4}
  9
$EXTNAMES
290
     1
  9
$PSVPSCALE
 40
0.0
  9
$OLESTARTUP
290
     0
  0
ENDSEC
  0
SECTION
  2
CLASSES
  0
CLASS
  1
ACDBDICTIONARYWDFLT
  2
AcDbDictionaryWithDefault
  3
ObjectDBX Classes
 90
        0
280
     0
281
     0
  0
CLASS
  1
VISUALSTYLE
  2
AcDbVisualStyle
  3
ObjectDBX Classes
 90
     4095
280
     0
281
     0
  0
CLASS
  1
MATERIAL
  2
AcDbMaterial
  3
ObjectDBX Classes
 90
     1153
280
     0
281
     0
  0
CLASS
  1
SCALE
  2
AcDbScale
  3
ObjectDBX Classes
 90
     1153
280
     0
281
     0
  0
CLASS
  1
TABLESTYLE
  2
AcDbTableStyle
  3
ObjectDBX Classes
 90
     4095
280
     0
281
     0
  0
CLASS
  1
MLEADERSTYLE
  2
AcDbMLeaderStyle
  3
ACDB_MLEADERSTYLE_CLASS
 90
     4095
280
     0
281
     0
  0
CLASS
  1
SUN
  2
AcDbSun
  3
SCENEOE
 90
     1153
280
     0
281
     0
  0
CLASS
  1
ACDBPLACEHOLDER
  2
AcDbPlaceHolder
  3
ObjectDBX Classes
 90
        0
280
     0
281
     0
  0
CLASS
  1
LAYOUT
  2
AcDbLayout
  3
ObjectDBX Classes
 90
        0
280
     0
281
     0
  0
ENDSEC
  0
SECTION
  2
TABLES
  0
TABLE
  2
VPORT
  5
8
330
0
100
AcDbSymbolTable
 70
     1
  0
VPORT
  5
29
330
8
100
AcDbSymbolTableRecord
100
AcDbViewportTableRecord
  2
*Active
 70
     0
 10
0.0
 20
0.0
 11
1.0
 21
1.0
 12
420.5
 22
297.0
 13
0.0
 23
0.0
 14
10.0
 24
10.0
 15
10.0
 25
10.0
 16
0.0
 26
0.0
 36
1.0
 17
0.0
 27
0.0
 37
0.0
 40
594.0
 41
1.4158249158
 42
50.0
 43
0.0
 44
0.0
 50
0.0
 51
0.0
 71
     0
 72
  2000
 73
     1
 74
     3
 75
     0
 76
     0
 77
     0
 78
     0
281
     0
 65
     1
110
0.0
120
0.0
130
0.0
111
1.0
121
0.0
131
0.0
112
0.0
122
1.0
132
0.0
 79
     0
146
0.0
  0
ENDTAB
  0
TABLE
  2
LTYPE
  5
5
330
0
100
AcDbSymbolTable
 70
     6
  0
LTYPE
  5
14
330
5
100
AcDbSymbolTableRecord
100
AcDbLinetypeTableRecord
  2
ByBlock
 70
     0
  3

 72
    65
 73
     0
 40
0.0
  0
LTYPE
  5
15
330
5
100
AcDbSymbolTableRecord
100
AcDbLinetypeTableRecord
  2
ByLayer
 70
     0
  3

 72
    65
 73
     0
 40
0.0
  0
LTYPE
  5
16
330
5
100
AcDbSymbolTableRecord
100
AcDbLinetypeTableRecord
  2
Continuous
 70
     0
  3
Solid line
 72
    65
 73
     0
 40
0.0
  0
LTYPE
  5
6E
330
5
100
AcDbSymbolTableRecord
100
AcDbLinetypeTableRecord
  2
HIDDEN
 70
     0
  3
Hidden __ __ __ __ __ __ __ __ __ __ __ __ __ __
 72
    65
 73
     2
 40
1.905
 49
1.27
 74
     0
 49
-0.635
 74
     0
  0
LTYPE
  5
6F
330
5
100
AcDbSymbolTableRecord
100
AcDbLinetypeTableRecord
  2
PHANTOM
 70
     0
  3
Phantom ______  __  __  ______  __  __  ______
 72
    65
 73
     6
 40
12.7
 49
6.35
 74
     0
 49
-1.27
 74
     0
 49
1.27
 74
     0
 49
-1.27
 74
     0
 49
1.27
 74
     0
 49
-1.27
 74
     0
  0
LTYPE
  5
70
330
5
100
AcDbSymbolTableRecord
100
AcDbLinetypeTableRecord
  2
CENTER
 70
     0
  3
Center ____ _ ____ _ ____ _ ____ _ ____ _ ____
 72
    65
 73
     4
 40
10.16
 49
6.35
 74
     0
 49
-1.27
 74
     0
 49
1.27
 74
     0
 49
-1.27
 74
     0
  0
LTYPE
  5
71
330
5
100
AcDbSymbolTableRecord
100
AcDbLinetypeTableRecord
  2
CENTERX2
 70
     0
  3
Center (2x) ________  __  ________  __  _____
 72
    65
 73
     4
 40
20.32
 49
12.7
 74
     0
 49
-2.54
 74
     0
 49
2.54
 74
     0
 49
-2.54
 74
     0
  0
LTYPE
  5
72
330
5
100
AcDbSymbolTableRecord
100
AcDbLinetypeTableRecord
  2
DOT2
 70
     0
  3
Dot (.5x) ........................................
 72
    65
 73
     2
 40
0.635
 49
0.0
 74
     0
 49
-0.635
 74
     0
  0
ENDTAB
  0
TABLE
  2
LAYER
  5
2
330
0
100
AcDbSymbolTable
 70
     2
  0
LAYER
  5
10
330
2
100
AcDbSymbolTableRecord
100
AcDbLayerTableRecord
  2
0
 70
     0
 62
     7
  6
Continuous
370
    -3
390
F
  0
LAYER
  5
73
330
2
100
AcDbSymbolTableRecord
100
AcDbLayerTableRecord
  2
FORMAT
 70
     0
 62
     7
  6
Continuous
370
    -3
390
F
  0
ENDTAB
  0
TABLE
  2
STYLE
  5
3
330
0
100
AcDbSymbolTable
 70
     1
  0
STYLE
  5
11
330
3
100
AcDbSymbolTableRecord
100
AcDbTextStyleTableRecord
  2
Standard
 70
     0
 40
0.0
 41
1.0
 50
0.0
 71
     0
 42
3.5
  3
txt
  4

  0
ENDTAB
  0
TABLE
  2
VIEW
  5
6
330
0
100
AcDbSymbolTable
 70
     0
  0
ENDTAB
  0
TABLE
  2
UCS
  5
7
330
0
100
AcDbSymbolTable
 70
     0
  0
ENDTAB
  0
TABLE
  2
APPID
  5
9
330
0
100
AcDbSymbolTable
 70
     1
  0
APPID
  5
12
330
9
100
AcDbSymbolTableRecord
100
AcDbRegAppTableRecord
  2
ACAD
 70
     0
  0
ENDTAB
  0
TABLE
  2
DIMSTYLE
  5
A
330
0
100
AcDbSymbolTable
 70
     1
100
AcDbDimStyleTable
  0
DIMSTYLE
105
27
330
A
100
AcDbSymbolTableRecord
100
AcDbDimStyleTableRecord
  2
ISO-25
 70
     0
 41
2.5
 42
0.625
 43
3.75
 44
1.25
 73
     0
 74
     0
 77
     1
 78
     8
140
2.5
141
2.5
143
0.0393700787
147
0.625
171
     3
172
     1
178
     0
271
     2
272
     2
274
     3
278
    44
283
     0
284
     8
340
11
  0
ENDTAB
  0
TABLE
  2
BLOCK_RECORD
  5
1
330
0
100
AcDbSymbolTable
 70
     1
  0
BLOCK_RECORD
  5
1F
330
1
100
AcDbSymbolTableRecord
100
AcDbBlockTableRecord
  2
*Model_Space
340
22
  0
BLOCK_RECORD
  5
1B
330
1
100
AcDbSymbolTableRecord
100
AcDbBlockTableRecord
  2
*Paper_Space
340
1E
  0
BLOCK_RECORD
  5
23
330
1
100
AcDbSymbolTableRecord
100
AcDbBlockTableRecord
  2
*Paper_Space0
340
26
  0
ENDTAB
  0
ENDSEC
  0
SECTION
  2
BLOCKS
  0
BLOCK
  5
20
330
1F
100
AcDbEntity
  8
0
100
AcDbBlockBegin
  2
*Model_Space
 70
     0
 10
0.0
 20
0.0
 30
0.0
  3
*Model_Space
  1

  0
ENDBLK
  5
21
330
1F
100
AcDbEntity
  8
0
100
AcDbBlockEnd
  0
BLOCK
  5
1C
330
1B
100
AcDbEntity
 67
     1
  8
0
100
AcDbBlockBegin
  2
*Paper_Space
 70
     0
 10
0.0
 20
0.0
 30
0.0
  3
*Paper_Space
  1

  0
ENDBLK
  5
1D
330
1B
100
AcDbEntity
 67
     1
  8
0
100
AcDbBlockEnd
  0
BLOCK
  5
24
330
23
100
AcDbEntity
  8
0
100
AcDbBlockBegin
  2
*Paper_Space0
 70
     0
 10
0.0
 20
0.0
 30
0.0
  3
*Paper_Space0
  1

  0
ENDBLK
  5
25
330
23
100
AcDbEntity
  8
0
100
AcDbBlockEnd
  0
ENDSEC
  0
SECTION
  2
ENTITIES
  0
CIRCLE
  5
74
330
1F
100
AcDbEntity
  8
0
  6
Continuous
 62
     7
370
    15
100
AcDbCircle
 10
383.7608998389
 20
409.0328816426
 30
0.0
 40
3.250000000000057
  0
CIRCLE
  5
75
330
1F
100
AcDbEntity
  8
0
  6
Continuous
 62
     7
370
    15
100
AcDbCircle
 10
383.7608998389
 20
341.5328816426
 30
0.0
 40
3.250000000000057
  0
CIRCLE
  5
76
330
1F
100
AcDbEntity
  8
0
  6
Continuous
 62
     7
370
    15
100
AcDbCircle
 10
383.7608998389
 20
206.5328816426
 30
0.0
 40
3.25
  0
CIRCLE
  5
77
330
1F
100
AcDbEntity
  8
0
  6
Continuous
 62
     7
370
    15
100
AcDbCircle
 10
383.7608998389
 20
139.0328816426
 30
0.0
 40
3.250000000000057
  0
CIRCLE
  5
78
330
1F
100
AcDbEntity
  8
0
  6
Continuous
 62
     7
370
    15
100
AcDbCircle
 10
383.7608998389
 20
274.0328816426
 30
0.0
 40
5.0
  0
LWPOLYLINE
  5
79
330
1F
100
AcDbEntity
  8
0
  6
Continuous
 62
     7
370
    15
100
AcDbPolyline
 90
       20
 70
   128
 43
0.0
 10
235.7905477959
 20
518.5329222179
 10
235.8982377426
 20
519.5800860743
 10
236.5096324919
 20
521.1408094146
 10
237.5681893202
 20
522.385900488
 10
238.951221795
 20
523.2066198696
 10
240.5303227579
 20
523.5301926093
 10
242.1505323336
 20
523.306791706
 10
243.6351947017
 20
522.5321044713
 10
244.789264281
 20
521.2791018571
 10
245.4598549271
 20
519.7017349342
 10
245.5675973049
 20
518.0033931712
 10
245.1227810502
 20
516.3927204347
 10
244.1977186376
 20
515.0381668921
 10
242.8947522979
 20
514.0657480914
 10
241.3521951136
 20
513.5777212639
 10
239.7199675482
 20
513.6314118695
 10
238.175439199
 20
514.2418818445
 10
236.9075134579
 20
515.3555572576
 10
236.077021876
 20
516.8487380991
 10
235.7905477959
 20
518.5329222179
  0
CIRCLE
  5
7A
330
1F
100
AcDbEntity
  8
0
  6
Continuous
 62
     7
370
    15
100
AcDbCircle
 10
302.2279589651
 20
358.5445117351
 30
0.0
 40
2.735213631717368
  0
LWPOLYLINE
  5
7B
330
1F
100
AcDbEntity
  8
0
  6
Continuous
 62
     7
370
    15
100
AcDbPolyline
 90
       20
 70
   128
 43
0.0
 10
112.6401157752
 20
518.5329222179
 10
112.7478057216
 20
519.5800860732
 10
113.3592004709
 20
521.140809414
 10
114.4177572983
 20
522.3859004871
 10
115.8007897734
 20
523.2066198692
 10
117.3798907363
 20
523.5301926092
 10
119.0001003114
 20
523.3067917064
 10
120.48476268
 20
522.5321044721
 10
121.6388322595
 20
521.2791018582
 10
122.3094229061
 20
519.7017349355
 10
122.4171652842
 20
518.003393172
 10
121.97234903
 20
516.3927204358
 10
121.047286617
 20
515.0381668922
 10
119.7443202786
 20
514.0657480922
 10
118.2017630934
 20
513.5777212639
 10
116.5695355284
 20
513.6314118692
 10
115.025007179
 20
514.2418818442
 10
113.7570814381
 20
515.3555572565
 10
112.9265898556
 20
516.8487380984
 10
112.6401157752
 20
518.5329222179
  0
LWPOLYLINE
  5
7C
330
1F
100
AcDbEntity
  8
0
  6
Continuous
 62
     7
370
    15
100
AcDbPolyline
 90
       20
 70
   128
 43
0.0
 10
235.7905477959
 20
451.5329222179
 10
235.8982377424
 20
452.5800860739
 10
236.5096324912
 20
454.1408094134
 10
237.5681893212
 20
455.3859004888
 10
238.9512217927
 20
456.2066198687
 10
240.5303227582
 20
456.5301926093
 10
242.1505323329
 20
456.3067917062
 10
243.6351947013
 20
455.5321044716
 10
244.7892642807
 20
454.2791018575
 10
245.4598549268
 20
452.7017349351
 10
245.5675973048
 20
451.003393171
 10
245.1227810508
 20
449.3927204359
 10
244.1977186379
 20
448.0381668923
 10
242.8947522982
 20
447.0657480916
 10
241.3521951145
 20
446.577721264
 10
239.7199675485
 20
446.6314118695
 10
238.1754391995
 20
447.2418818441
 10
236.9075134584
 20
448.3555572571
 10
236.0770218761
 20
449.8487380988
 10
235.7905477959
 20
451.5329222179
  0
LWPOLYLINE
  5
7D
330
1F
100
AcDbEntity
  8
0
  6
Continuous
 62
     7
370
    15
100
AcDbPolyline
 90
       20
 70
   128
 43
0.0
 10
112.6401157752
 20
451.5329222179
 10
112.7478057216
 20
452.5800860733
 10
113.3592004706
 20
454.1408094135
 10
114.4177572999
 20
455.3859004884
 10
115.8007897713
 20
456.2066198684
 10
117.3798907372
 20
456.5301926093
 10
119.0001003116
 20
456.3067917063
 10
120.4847626801
 20
455.532104472
 10
121.6388322596
 20
454.2791018581
 10
122.3094229061
 20
452.7017349355
 10
122.4171652842
 20
451.0033931714
 10
121.9723490303
 20
449.3927204364
 10
121.0472866161
 20
448.0381668913
 10
119.7443202784
 20
447.0657480922
 10
118.2017630938
 20
446.577721264
 10
116.5695355279
 20
446.6314118695
 10
115.0250071791
 20
447.2418818439
 10
113.757081438
 20
448.3555572567
 10
112.9265898555
 20
449.8487380985
 10
112.6401157752
 20
451.5329222179
  0
CIRCLE
  5
7E
330
1F
100
AcDbEntity
  8
0
  6
Continuous
 62
     7
370
    15
100
AcDbCircle
 10
302.2279589651
 20
274.0445117351
 30
0.0
 40
2.735213631718215
  0
LWPOLYLINE
  5
7F
330
1F
100
AcDbEntity
  8
0
  6
Continuous
 62
     7
370
    15
100
AcDbPolyline
 90
       20
 70
   128
 43
0.0
 10
297.3657638062
 20
451.5329222179
 10
297.4734537528
 20
452.580086074
 10
298.0848485017
 20
454.1408094135
 10
299.1434053314
 20
455.3859004887
 10
300.5264378029
 20
456.2066198687
 10
302.1055387684
 20
456.5301926093
 10
303.7257483435
 20
456.3067917061
 10
305.2104107119
 20
455.5321044716
 10
306.3644802909
 20
454.2791018577
 10
307.0350709372
 20
452.7017349353
 10
307.1428133152
 20
451.0033931709
 10
306.6979970612
 20
449.3927204359
 10
305.7729346474
 20
448.0381668915
 10
304.4699683091
 20
447.065748092
 10
302.9274111244
 20
446.5777212639
 10
301.2951835588
 20
446.6314118694
 10
299.7506552099
 20
447.2418818442
 10
298.4827294687
 20
448.3555572571
 10
297.6522378865
 20
449.8487380987
 10
297.3657638062
 20
451.5329222179
  0
LWPOLYLINE
  5
80
330
1F
100
AcDbEntity
  8
0
  6
Continuous
 62
     7
370
    15
100
AcDbPolyline
 90
       20
 70
   128
 43
0.0
 10
51.0648997648
 20
451.5329222179
 10
51.1725897116
 20
452.5800860738
 10
51.7839844603
 20
454.1408094138
 10
52.8425412912
 20
455.3859004898
 10
54.2255737623
 20
456.206619869
 10
55.8046747286
 20
456.5301926094
 10
57.4248843014
 20
456.3067917062
 10
58.9095466703
 20
455.5321044715
 10
60.06361625
 20
454.2791018569
 10
60.7342068962
 20
452.7017349337
 10
60.8419492738
 20
451.0033931707
 10
60.3971330189
 20
449.3927204341
 10
59.472070606
 20
448.0381668916
 10
58.1691042663
 20
447.0657480912
 10
56.6265470824
 20
446.5777212639
 10
54.9943195171
 20
446.6314118696
 10
53.4497911673
 20
447.2418818448
 10
52.1818654265
 20
448.3555572579
 10
51.3513738449
 20
449.8487380992
 10
51.0648997648
 20
451.5329222179
  0
LWPOLYLINE
  5
81
330
1F
100
AcDbEntity
  8
0
  6
Continuous
 62
     7
370
    15
100
AcDbPolyline
 90
       20
 70
   128
 43
0.0
 10
174.2153317855
 20
451.5329222179
 10
174.3230217319
 20
452.5800860731
 10
174.9344164805
 20
454.1408094127
 10
175.9929733099
 20
455.3859004881
 10
177.3760057814
 20
456.2066198684
 10
178.955106747
 20
456.5301926093
 10
180.5753163216
 20
456.3067917064
 10
182.0599786905
 20
455.5321044722
 10
183.2140482696
 20
454.2791018585
 10
183.8846389165
 20
452.7017349353
 10
183.9923812947
 20
451.0033931722
 10
183.5475650412
 20
449.3927204375
 10
182.622502627
 20
448.0381668918
 10
181.3195362892
 20
447.0657480924
 10
179.7769791048
 20
446.5777212641
 10
178.1447515391
 20
446.6314118693
 10
176.6002231897
 20
447.2418818438
 10
175.3322974488
 20
448.3555572561
 10
174.501805866
 20
449.8487380981
 10
174.2153317855
 20
451.5329222179
  0
LWPOLYLINE
  5
82
330
1F
100
AcDbEntity
  8
0
  6
Continuous
 62
     7
370
    15
100
AcDbPolyline
 90
       20
 70
   128
 43
0.0
 10
174.2153317855
 20
518.5329222179
 10
174.323021732
 20
519.5800860729
 10
174.9344164812
 20
521.1408094139
 10
175.9929733093
 20
522.3859004876
 10
177.3760057839
 20
523.2066198693
 10
178.9551067465
 20
523.5301926092
 10
180.5753163231
 20
523.3067917061
 10
182.059978691
 20
522.5321044717
 10
183.2140482701
 20
521.2791018578
 10
183.8846389167
 20
519.7017349346
 10
183.9923812946
 20
518.0033931718
 10
183.5475650407
 20
516.3927204365
 10
182.6225026276
 20
515.0381668925
 10
181.3195362884
 20
514.0657480919
 10
179.7769791037
 20
513.5777212639
 10
178.1447515384
 20
513.6314118693
 10
176.6002231893
 20
514.2418818442
 10
175.3322974483
 20
515.3555572567
 10
174.5018058659
 20
516.8487380985
 10
174.2153317855
 20
518.5329222179
  0
LWPOLYLINE
  5
83
330
1F
100
AcDbEntity
  8
0
  6
Continuous
 62
     7
370
    15
100
AcDbPolyline
 90
       20
 70
   128
 43
0.0
 10
51.0648997648
 20
518.5329222179
 10
51.1725897113
 20
519.5800860721
 10
51.7839844596
 20
521.1408094125
 10
52.8425412888
 20
522.3859004878
 10
54.2255737629
 20
523.2066198692
 10
55.8046747258
 20
523.5301926092
 10
57.424884301
 20
523.3067917064
 10
58.9095466698
 20
522.532104472
 10
60.0636162492
 20
521.2791018581
 10
60.7342068957
 20
519.7017349355
 10
60.8419492739
 20
518.0033931724
 10
60.3971330197
 20
516.3927204358
 10
59.4720706073
 20
515.0381668928
 10
58.1691042681
 20
514.0657480921
 10
56.6265470835
 20
513.577721264
 10
54.9943195186
 20
513.6314118692
 10
53.4497911684
 20
514.2418818443
 10
52.1818654281
 20
515.3555572559
 10
51.3513738453
 20
516.8487380981
 10
51.0648997648
 20
518.5329222179
  0
LWPOLYLINE
  5
84
330
1F
100
AcDbEntity
  8
0
  6
Continuous
 62
     7
370
    15
100
AcDbPolyline
 90
       20
 70
   128
 43
0.0
 10
297.3657638062
 20
518.5329222179
 10
297.4734537528
 20
519.5800860739
 10
298.0848485015
 20
521.1408094133
 10
299.1434053306
 20
522.385900488
 10
300.5264378047
 20
523.2066198693
 10
302.1055387675
 20
523.5301926092
 10
303.7257483435
 20
523.3067917062
 10
305.2104107118
 20
522.5321044716
 10
306.364480291
 20
521.2791018577
 10
307.0350709372
 20
519.7017349351
 10
307.1428133153
 20
518.0033931715
 10
306.697997061
 20
516.3927204356
 10
305.7729346483
 20
515.0381668924
 10
304.469968309
 20
514.0657480918
 10
302.9274111245
 20
513.5777212639
 10
301.295183559
 20
513.6314118694
 10
299.7506552099
 20
514.2418818442
 10
298.4827294689
 20
515.3555572569
 10
297.6522378866
 20
516.8487380986
 10
297.3657638062
 20
518.5329222179
  0
LWPOLYLINE
  5
85
330
1F
100
AcDbEntity
  8
0
  6
Continuous
 62
     7
370
    15
100
AcDbPolyline
 90
       20
 70
   128
 43
0.0
 10
297.365764022
 20
29.5329125787
 10
297.4735741738
 20
30.5811713916
 10
298.0842254791
 20
32.1397053953
 10
299.1438928638
 20
33.3860929435
 10
300.5249614153
 20
34.206026326
 10
302.1074798829
 20
34.5303197574
 10
303.7306272463
 20
34.3053245407
 10
305.2116563894
 20
33.5309928493
 10
306.3636546062
 20
32.2805154304
 10
307.0347836955
 20
30.700996206
 10
307.1430258385
 20
29.0030873703
 10
306.6982449736
 20
27.3933109295
 10
305.7722648932
 20
26.0374612641
 10
304.4702495284
 20
25.0658427923
 10
302.9257760621
 20
24.5772867851
 10
301.2955862918
 20
24.6315170921
 10
299.7516582382
 20
25.241639861
 10
298.4823229049
 20
26.3563493425
 10
297.6521501138
 20
27.8490915707
 10
297.365764022
 20
29.5329125787
  0
LWPOLYLINE
  5
86
330
1F
100
AcDbEntity
  8
0
  6
Continuous
 62
     7
370
    15
100
AcDbPolyline
 90
       20
 70
   128
 43
0.0
 10
235.7905480116
 20
29.5329125787
 10
235.8983581635
 20
30.5811713917
 10
236.5090094688
 20
32.1397053953
 10
237.5686768536
 20
33.3860929436
 10
238.9497454054
 20
34.2060263261
 10
240.5322638738
 20
34.5303197574
 10
242.1554112356
 20
34.3053245406
 10
243.6364403791
 20
33.5309928493
 10
244.7884385958
 20
32.2805154304
 10
245.4595676852
 20
30.7009962058
 10
245.5678098282
 20
29.0030873703
 10
245.1230289631
 20
27.3933109293
 10
244.1970488831
 20
26.0374612644
 10
242.8950335177
 20
25.0658427921
 10
241.3505600516
 20
24.5772867851
 10
239.7203702813
 20
24.6315170921
 10
238.1764422277
 20
25.2416398611
 10
236.9071068944
 20
26.3563493427
 10
236.0769341034
 20
27.8490915708
 10
235.7905480116
 20
29.5329125787
  0
LWPOLYLINE
  5
87
330
1F
100
AcDbEntity
  8
0
  6
Continuous
 62
     7
370
    15
100
AcDbPolyline
 90
       20
 70
   128
 43
0.0
 10
174.2153320013
 20
29.5329125787
 10
174.3231421532
 20
30.5811713919
 10
174.9337934584
 20
32.1397053954
 10
175.9934608434
 20
33.3860929438
 10
177.374529395
 20
34.2060263261
 10
178.9570478624
 20
34.5303197574
 10
180.5801952258
 20
34.3053245406
 10
182.061224369
 20
33.5309928491
 10
183.2132225858
 20
32.2805154301
 10
183.884351675
 20
30.7009962053
 10
183.9925938178
 20
29.0030873704
 10
183.5478129526
 20
27.3933109291
 10
182.6218328725
 20
26.0374612641
 10
181.3198175073
 20
25.0658427921
 10
179.7753440411
 20
24.5772867851
 10
178.1451542711
 20
24.6315170921
 10
176.6012262174
 20
25.2416398611
 10
175.331890884
 20
26.3563493428
 10
174.501718093
 20
27.8490915709
 10
174.2153320013
 20
29.5329125787
  0
LWPOLYLINE
  5
88
330
1F
100
AcDbEntity
  8
0
  6
Continuous
 62
     7
370
    15
100
AcDbPolyline
 90
       20
 70
   128
 43
0.0
 10
112.6401159909
 20
29.5329125787
 10
112.7479261427
 20
30.5811713914
 10
113.3585774475
 20
32.1397053944
 10
114.4182448332
 20
33.3860929438
 10
115.7993133838
 20
34.2060263258
 10
117.3818318513
 20
34.5303197573
 10
119.004979215
 20
34.3053245407
 10
120.4860083579
 20
33.5309928496
 10
121.6380065749
 20
32.2805154308
 10
122.3091356644
 20
30.7009962065
 10
122.4173778075
 20
29.0030873708
 10
121.9725969425
 20
27.3933109296
 10
121.0466168624
 20
26.0374612644
 10
119.7446014974
 20
25.0658427924
 10
118.2001280315
 20
24.5772867852
 10
116.5699382616
 20
24.631517092
 10
115.0260102074
 20
25.2416398609
 10
113.7566748741
 20
26.3563493421
 10
112.9265020828
 20
27.8490915705
 10
112.6401159909
 20
29.5329125787
  0
LWPOLYLINE
  5
89
330
1F
100
AcDbEntity
  8
0
  6
Continuous
 62
     7
370
    15
100
AcDbPolyline
 90
       20
 70
   128
 43
0.0
 10
51.0648999806
 20
29.5329125787
 10
51.1727101323
 20
30.5811713916
 10
51.7833614372
 20
32.1397053945
 10
52.8430288227
 20
33.3860929437
 10
54.2240973737
 20
34.2060263259
 10
55.8066158419
 20
34.5303197574
 10
57.4297632046
 20
34.3053245407
 10
58.9107923474
 20
33.5309928496
 10
60.0627905647
 20
32.2805154306
 10
60.7339196541
 20
30.7009962061
 10
60.8421617971
 20
29.0030873708
 10
60.3973809322
 20
27.3933109296
 10
59.4714008519
 20
26.0374612642
 10
58.1693854872
 20
25.0658427925
 10
56.6249120208
 20
24.5772867851
 10
54.9947222509
 20
24.631517092
 10
53.4507941971
 20
25.2416398608
 10
52.1814588637
 20
26.3563493422
 10
51.3512860724
 20
27.8490915705
 10
51.0648999806
 20
29.5329125787
  0
LWPOLYLINE
  5
8A
330
1F
100
AcDbEntity
  8
0
  6
Continuous
 62
     7
370
    15
100
AcDbPolyline
 90
       20
 70
   128
 43
0.0
 10
51.0648999806
 20
96.5329125787
 10
51.1727101324
 20
97.5811713919
 10
51.7833614378
 20
99.1397053955
 10
52.8430288224
 20
100.3860929436
 10
54.224097374
 20
101.206026326
 10
55.8066158431
 20
101.5303197574
 10
57.4297632048
 20
101.3053245405
 10
58.9107923478
 20
100.5309928493
 10
60.062790565
 20
99.2805154302
 10
60.7339196542
 20
97.7009962057
 10
60.8421617971
 20
96.0030873701
 10
60.397380932
 20
94.3933109293
 10
59.4714008518
 20
93.0374612641
 10
58.1693854865
 20
92.065842792
 10
56.6249120206
 20
91.5772867852
 10
54.9947222503
 20
91.6315170921
 10
53.4507941968
 20
92.241639861
 10
52.1814588633
 20
93.3563493428
 10
51.3512860723
 20
94.8490915709
 10
51.0648999806
 20
96.5329125787
  0
LWPOLYLINE
  5
8B
330
1F
100
AcDbEntity
  8
0
  6
Continuous
 62
     7
370
    15
100
AcDbPolyline
 90
       20
 70
   128
 43
0.0
 10
112.6401159909
 20
96.5329125787
 10
112.7479261427
 20
97.5811713916
 10
113.358577448
 20
99.1397053952
 10
114.4182448328
 20
100.3860929436
 10
115.7993133843
 20
101.206026326
 10
117.3818318527
 20
101.5303197574
 10
119.004979215
 20
101.3053245406
 10
120.4860083582
 20
100.5309928494
 10
121.6380065753
 20
99.2805154303
 10
122.3091356644
 20
97.700996206
 10
122.4173778074
 20
96.0030873703
 10
121.9725969425
 20
94.3933109295
 10
121.0466168622
 20
93.0374612641
 10
119.7446014972
 20
92.0658427923
 10
118.200128031
 20
91.5772867851
 10
116.5699382609
 20
91.6315170921
 10
115.0260102071
 20
92.241639861
 10
113.7566748738
 20
93.3563493426
 10
112.9265020827
 20
94.8490915707
 10
112.6401159909
 20
96.5329125787
  0
LWPOLYLINE
  5
8C
330
1F
100
AcDbEntity
  8
0
  6
Continuous
 62
     7
370
    15
100
AcDbPolyline
 90
       20
 70
   128
 43
0.0
 10
174.2153320013
 20
96.5329125787
 10
174.3231421531
 20
97.5811713915
 10
174.9337934584
 20
99.1397053953
 10
175.993460843
 20
100.3860929435
 10
177.3745293947
 20
101.206026326
 10
178.9570478631
 20
101.5303197574
 10
180.5801952254
 20
101.3053245406
 10
182.0612243685
 20
100.5309928494
 10
183.2132225855
 20
99.2805154304
 10
183.8843516749
 20
97.7009962057
 10
183.9925938178
 20
96.0030873706
 10
183.5478129528
 20
94.3933109296
 10
182.6218328726
 20
93.0374612642
 10
181.3198175073
 20
92.0658427921
 10
179.7753440417
 20
91.5772867853
 10
178.1451542714
 20
91.6315170921
 10
176.6012262175
 20
92.241639861
 10
175.3318908842
 20
93.3563493424
 10
174.5017180931
 20
94.8490915707
 10
174.2153320013
 20
96.5329125787
  0
LWPOLYLINE
  5
8D
330
1F
100
AcDbEntity
  8
0
  6
Continuous
 62
     7
370
    15
100
AcDbPolyline
 90
       20
 70
   128
 43
0.0
 10
235.7905480116
 20
96.5329125787
 10
235.8983581634
 20
97.5811713911
 10
236.5090094687
 20
99.1397053952
 10
237.5686768531
 20
100.3860929433
 10
238.9497454046
 20
101.2060263258
 10
240.5322638731
 20
101.5303197574
 10
242.1554112354
 20
101.3053245407
 10
243.6364403787
 20
100.5309928496
 10
244.7884385957
 20
99.2805154307
 10
245.4595676851
 20
97.7009962062
 10
245.5678098282
 20
96.0030873707
 10
245.1230289633
 20
94.3933109298
 10
244.1970488833
 20
93.0374612645
 10
242.8950335179
 20
92.0658427922
 10
241.3505600523
 20
91.5772867853
 10
239.7203702821
 20
91.631517092
 10
238.1764422279
 20
92.241639861
 10
236.9071068948
 20
93.3563493422
 10
236.0769341035
 20
94.8490915705
 10
235.7905480116
 20
96.5329125787
  0
LWPOLYLINE
  5
8E
330
1F
100
AcDbEntity
  8
0
  6
Continuous
 62
     7
370
    15
100
AcDbPolyline
 90
       20
 70
   128
 43
0.0
 10
297.365764022
 20
96.5329125787
 10
297.4735741738
 20
97.5811713915
 10
298.0842254792
 20
99.1397053953
 10
299.1438928637
 20
100.3860929435
 10
300.524961415
 20
101.2060263259
 10
302.1074798839
 20
101.5303197574
 10
303.730627246
 20
101.3053245406
 10
305.2116563892
 20
100.5309928494
 10
306.3636546063
 20
99.2805154304
 10
307.0347836955
 20
97.7009962061
 10
307.1430258385
 20
96.0030873704
 10
306.6982449735
 20
94.3933109294
 10
305.7722648933
 20
93.0374612642
 10
304.4702495281
 20
92.0658427921
 10
302.9257760624
 20
91.5772867852
 10
301.2955862922
 20
91.6315170921
 10
299.7516582382
 20
92.241639861
 10
298.4823229049
 20
93.3563493425
 10
297.6521501138
 20
94.8490915707
 10
297.365764022
 20
96.5329125787
  0
ARC
  5
8F
330
1F
100
AcDbEntity
  8
0
  6
Continuous
 62
     7
370
    15
100
AcDbCircle
 10
322.5797590009
 20
230.0328816426
 30
0.0
 40
1.000000000000057
100
AcDbArc
 50
0.0
 51
37.7390445155
  0
SPLINE
  5
90
330
1F
100
AcDbEntity
  8
0
  6
Continuous
 62
     7
370
    15
100
AcDbSpline
210
0.0
220
0.0
230
1.0
 70
     8
 71
     3
 72
    15
 73
    11
 74
     0
 42
0.000000001
 43
0.00000001
 40
0.0
 40
0.0
 40
0.0
 40
0.0
 40
0.1295377041160406
 40
0.2548112468941187
 40
0.3772323322855093
 40
0.4983124779426767
 40
0.6196133398194146
 40
0.7426881723703471
 40
0.8690248163757601
 40
1.0
 40
1.0
 40
1.0
 40
1.0
 10
322.595567056061
 20
231.0328816426269
 30
0.0
 10
322.6341893209752
 20
231.0305318874343
 30
0.0
 10
322.7101624714012
 20
231.0259097270015
 30
0.0
 10
322.8210413651226
 20
231.0046915848784
 30
0.0
 10
322.9266252000317
 20
230.9729444249264
 30
0.0
 10
323.0268216101121
 20
230.9297163867696
 30
0.0
 10
323.1216345623533
 20
230.8753047036225
 30
0.0
 10
323.2108378915419
 20
230.8095326466778
 30
0.0
 10
323.2951252064503
 20
230.7330384567506
 30
0.0
 10
323.3451184295975
 20
230.6746620998679
 30
0.0
 10
323.3705656530773
 20
230.6449477484817
 30
0.0
  0
LINE
  5
91
330
1F
100
AcDbEntity
  8
0
  6
Continuous
 62
     7
370
    15
100
AcDbLine
 10
320.4785016141
 20
231.0328816426
 30
0.0
 11
322.5955670561
 21
231.0328816426
 31
0.0
  0
SPLINE
  5
92
330
1F
100
AcDbEntity
  8
0
  6
Continuous
 62
     7
370
    15
100
AcDbSpline
210
0.0
220
0.0
230
1.0
 70
     8
 71
     3
 72
    18
 73
    14
 74
     0
 42
0.000000001
 43
0.00000001
 40
0.0
 40
0.0
 40
0.0
 40
0.0
 40
0.5
 40
0.5
 40
0.75
 40
0.75
 40
0.8125
 40
0.8125
 40
0.84375
 40
0.84375
 40
0.875
 40
0.875
 40
1.0
 40
1.0
 40
1.0
 40
1.0
 10
319.4984852799968
 20
232.0328816426271
 30
0.0
 10
319.5090998835023
 20
231.7458897503143
 30
0.0
 10
319.6005810822176
 20
231.5167545163283
 30
0.0
 10
319.8725520436215
 20
231.2358666407917
 30
0.0
 10
319.9814653321631
 20
231.1613421614706
 30
0.0
 10
320.1321258530444
 20
231.0965224568781
 30
0.0
 10
320.1623647212735
 20
231.0853023835795
 30
0.0
 10
320.2078831696965
 20
231.0710880750617
 30
0.0
 10
320.2230826768508
 20
231.0667859391274
 30
0.0
 10
320.2535350731857
 20
231.0590536010689
 30
0.0
 10
320.2629079785639
 20
231.0570371073817
 30
0.0
 10
320.3256265388339
 20
231.0451061284296
 30
0.0
 10
320.3933098466496
 20
231.0378497054415
 30
0.0
 10
320.4785016140652
 20
231.0328816426271
 30
0.0
  0
LINE
  5
93
330
1F
100
AcDbEntity
  8
0
  6
Continuous
 62
     7
370
    15
100
AcDbLine
 10
319.49848528
 20
234.0328816426
 30
0.0
 11
319.49848528
 21
232.0328816426
 31
0.0
  0
SPLINE
  5
94
330
1F
100
AcDbEntity
  8
0
  6
Continuous
 62
     7
370
    15
100
AcDbSpline
210
0.0
220
0.0
230
1.0
 70
     8
 71
     3
 72
    21
 73
    17
 74
     0
 42
0.000000001
 43
0.00000001
 40
-0.0000098331236816
 40
-0.0000098331236816
 40
-0.0000098331236816
 40
-0.0000098331236816
 40
0.0
 40
0.0
 40
0.0
 40
0.0625
 40
0.125
 40
0.25
 40
0.5
 40
0.75
 40
0.875
 40
0.9375
 40
1.0
 40
1.0
 40
1.0
 40
1.000002529514829
 40
1.000002529514829
 40
1.000002529514829
 40
1.000002529514829
 10
307.7098930499166
 20
246.0328830449382
 30
0.0
 10
307.7099543017136
 20
246.0328825775012
 30
0.0
 10
307.7100155535106
 20
246.0328821100641
 30
0.0
 10
307.7100768053076
 20
246.0328816426271
 30
0.0
 10
308.0993973749028
 20
246.0299105811152
 30
0.0
 10
308.8782020170141
 20
245.9871691676774
 30
0.0
 10
310.4206405032975
 20
245.7539710226308
 30
0.0
 10
313.0385443844437
 20
244.9567613977485
 30
0.0
 10
316.3085678707384
 20
242.6983670971873
 30
0.0
 10
318.4713889794024
 20
239.3723515529448
 30
0.0
 10
319.2346324667887
 20
236.7448552197699
 30
0.0
 10
319.4566880802581
 20
235.2010964678354
 30
0.0
 10
319.4964232348875
 20
234.422302642151
 30
0.0
 10
319.4984847796646
 20
234.0329761941032
 30
0.0
 10
319.4984848631
 20
234.0329604371908
 30
0.0
 10
319.4984849465353
 20
234.0329446802785
 30
0.0
 10
319.4984850299706
 20
234.0329289233661
 30
0.0
  0
LINE
  5
95
330
1F
100
AcDbEntity
  8
0
  6
Continuous
 62
     7
370
    15
100
AcDbLine
 10
305.5041032161
 20
246.0328816426
 30
0.0
 11
307.7100768053
 21
246.0328816426
 31
0.0
  0
SPLINE
  5
96
330
1F
100
AcDbEntity
  8
0
  6
Continuous
 62
     7
370
    15
100
AcDbSpline
210
0.0
220
0.0
230
1.0
 70
     8
 71
     3
 72
    60
 73
    56
 74
     0
 42
0.000000001
 43
0.00000001
 40
0.0
 40
0.0
 40
0.0
 40
0.0
 40
0.03125
 40
0.03125
 40
0.046875
 40
0.046875
 40
0.0546875
 40
0.0546875
 40
0.05859375
 40
0.05859375
 40
0.060546875
 40
0.060546875
 40
0.0625
 40
0.0625
 40
0.09375
 40
0.09375
 40
0.125
 40
0.125
 40
0.1875
 40
0.1875
 40
0.21875
 40
0.21875
 40
0.25
 40
0.25
 40
0.375
 40
0.375
 40
0.4375
 40
0.4375
 40
0.5
 40
0.5
 40
0.625
 40
0.625
 40
0.6875
 40
0.6875
 40
0.75
 40
0.75
 40
0.8125
 40
0.8125
 40
0.84375
 40
0.84375
 40
0.875
 40
0.875
 40
0.90625
 40
0.90625
 40
0.921875
 40
0.921875
 40
0.9296875
 40
0.9296875
 40
0.93359375
 40
0.93359375
 40
0.935546875
 40
0.935546875
 40
0.9375
 40
0.9375
 40
1.0
 40
1.0
 40
1.0
 40
1.0
 10
293.7156947413906
 20
258.032881642627
 30
0.0
 10
293.7194866173383
 20
257.7951758944096
 30
0.0
 10
293.7259996307666
 20
257.5791358488967
 30
0.0
 10
293.7398508571301
 20
257.2875743346841
 30
0.0
 10
293.7451482169547
 20
257.1958035889561
 30
0.0
 10
293.7541146832469
 20
257.0662721088783
 30
0.0
 10
293.7572735764368
 20
257.0244490552712
 30
0.0
 10
293.7622670228605
 20
256.9637456344895
 30
0.0
 10
293.7639740227749
 20
256.9438496875003
 30
0.0
 10
293.7665982993062
 20
256.9145135569236
 30
0.0
 10
293.7674836875932
 20
256.9048194783826
 30
0.0
 10
293.7692757230539
 20
256.8856005846029
 30
0.0
 10
293.7699086433245
 20
256.8788928391219
 30
0.0
 10
293.790155703162
 20
256.6705195322561
 30
0.0
 10
293.8135835445464
 20
256.4761591153832
 30
0.0
 10
293.8691827974487
 20
256.0909495549332
 30
0.0
 10
293.9008273608696
 20
255.9028265974482
 30
0.0
 10
294.0120374949151
 20
255.3273675183836
 30
0.0
 10
294.10407570108
 20
254.9491099135372
 30
0.0
 10
294.2689801855288
 20
254.3897961780625
 30
0.0
 10
294.3284228762121
 20
254.2047037115368
 30
0.0
 10
294.4562573159791
 20
253.8372096690836
 30
0.0
 10
294.5236561186693
 20
253.6572753391328
 30
0.0
 10
294.8929522420573
 20
252.739658456108
 30
0.0
 10
295.2515403109563
 20
252.048237505671
 30
0.0
 10
295.8841491695883
 20
251.0751149139896
 30
0.0
 10
296.1108065816795
 20
250.7614088557582
 30
0.0
 10
296.5956969909562
 20
250.1553330172868
 30
0.0
 10
296.8520360626165
 20
249.8649102496416
 30
0.0
 10
297.6797802083907
 20
249.0139642881243
 30
0.0
 10
298.2747235995347
 20
248.5116434750994
 30
0.0
 10
299.2318096271928
 20
247.8556269975419
 30
0.0
 10
299.5616167932358
 20
247.6531989620194
 30
0.0
 10
300.2427881056358
 20
247.2808311383011
 30
0.0
 10
300.5968931329251
 20
247.1097281026061
 30
0.0
 10
301.3156966440887
 20
246.8046632685395
 30
0.0
 10
301.681009693778
 20
246.6707951271996
 30
0.0
 10
302.2378462094729
 20
246.49798932873
 30
0.0
 10
302.424936204898
 20
246.4450534648302
 30
0.0
 10
302.8020718428019
 20
246.3485138748772
 30
0.0
 10
302.9955734219988
 20
246.3042075399908
 30
0.0
 10
303.3717084805741
 20
246.2277374433978
 30
0.0
 10
303.5619408724656
 20
246.1940395935184
 30
0.0
 10
303.8505367542087
 20
246.150298616325
 30
0.0
 10
303.9472765971074
 20
246.1368525901982
 30
0.0
 10
304.0931981849318
 20
246.1183850004143
 30
0.0
 10
304.1419740181194
 20
246.1125127120542
 30
0.0
 10
304.2153407237698
 20
246.1041296418654
 30
0.0
 10
304.2398301182981
 20
246.1014061788611
 30
0.0
 10
304.2766149490579
 20
246.0974273249425
 30
0.0
 10
304.2888850158057
 20
246.0961187637344
 30
0.0
 10
304.3134420622904
 20
246.0935370881807
 30
0.0
 10
304.32853988604
 20
246.0919769805175
 30
0.0
 10
304.641531429257
 20
246.060019859827
 30
0.0
 10
305.030224341864
 20
246.0406442130624
 30
0.0
 10
305.5041032160798
 20
246.0328816426271
 30
0.0
  0
LINE
  5
97
330
1F
100
AcDbEntity
  8
0
  6
Continuous
 62
     7
370
    15
100
AcDbLine
 10
293.7156947414
 20
432.5328816426
 30
0.0
 11
293.7156947414
 21
258.0328816426
 31
0.0
  0
SPLINE
  5
98
330
1F
100
AcDbEntity
  8
0
  6
Continuous
 62
     7
370
    15
100
AcDbSpline
210
0.0
220
0.0
230
1.0
 70
     8
 71
     3
 72
    20
 73
    16
 74
     0
 42
0.000000001
 43
0.00000001
 40
-0.0000096229661753
 40
-0.0000096229661753
 40
-0.0000096229661753
 40
-0.0000096229661753
 40
0.0
 40
0.0
 40
0.0
 40
0.0625
 40
0.125
 40
0.25
 40
0.5
 40
0.75
 40
0.875
 40
1.0
 40
1.0
 40
1.0
 40
1.000002219509449
 40
1.000002219509449
 40
1.000002219509449
 40
1.000002219509449
 10
283.8991376810859
 20
442.5328829002914
 30
0.0
 10
283.8991876099099
 20
442.5328824810699
 30
0.0
 10
283.8992375387338
 20
442.5328820618486
 30
0.0
 10
283.8992874675578
 20
442.5328816426272
 30
0.0
 10
284.223569132949
 20
442.5301588504585
 30
0.0
 10
284.8722775440067
 20
442.4941491461306
 30
0.0
 10
286.1570319155481
 20
442.2993183323572
 30
0.0
 10
288.3373508573429
 20
441.6345277912886
 30
0.0
 10
291.0591614607816
 20
439.7512556639686
 30
0.0
 10
292.8613270227954
 20
436.9807716565994
 30
0.0
 10
293.5851660119573
 20
434.4792355574323
 30
0.0
 10
293.7109977726962
 20
433.1815199368793
 30
0.0
 10
293.7156942411821
 20
432.5329507488906
 30
0.0
 10
293.715694324573
 20
432.5329392328471
 30
0.0
 10
293.7156944079638
 20
432.5329277168036
 30
0.0
 10
293.7156944913547
 20
432.53291620076
 30
0.0
  0
LINE
  5
99
330
1F
100
AcDbEntity
  8
0
  6
Continuous
 62
     7
370
    15
100
AcDbLine
 10
283.4919979866
 20
442.5328816426
 30
0.0
 11
283.8992874676
 21
442.5328816426
 31
0.0
  0
LINE
  5
9A
330
1F
100
AcDbEntity
  8
0
  6
Continuous
 62
     7
370
    15
100
AcDbLine
 10
39.5731400321
 20
442.5328816426
 30
0.0
 11
283.4919979866
 21
442.5328816426
 31
0.0
  0
LINE
  5
9B
330
1F
100
AcDbEntity
  8
0
  6
Continuous
 62
     7
370
    15
100
AcDbLine
 10
39.5731400321
 20
442.5328816426
 30
0.0
 11
39.5731400321
 21
527.5328816426
 31
0.0
  0
LINE
  5
9C
330
1F
100
AcDbEntity
  8
0
  6
Continuous
 62
     7
370
    15
100
AcDbLine
 10
39.5731400321
 20
527.5328816426
 30
0.0
 11
40.5731400321
 21
527.5328816426
 31
0.0
  0
LINE
  5
9D
330
1F
100
AcDbEntity
  8
0
  6
Continuous
 62
     7
370
    15
100
AcDbLine
 10
323.3705656531
 20
527.5328816426
 30
0.0
 11
40.5731400321
 21
527.5328816426
 31
0.0
  0
LINE
  5
9E
330
1F
100
AcDbEntity
  8
0
  6
Continuous
 62
     7
370
    15
100
AcDbLine
 10
379.2433252675
 20
527.5328816426
 30
0.0
 11
323.3705656531
 21
527.5328816426
 31
0.0
  0
LINE
  5
9F
330
1F
100
AcDbEntity
  8
0
  6
Continuous
 62
     7
370
    15
100
AcDbLine
 10
379.2433252675
 20
527.5328816426
 30
0.0
 11
391.6989694664
 21
409.8732186656
 31
0.0
  0
ARC
  5
A0
330
1F
100
AcDbEntity
  8
0
  6
Continuous
 62
     7
370
    15
100
AcDbCircle
 10
383.7608998389
 20
409.0328816426
 30
0.0
 40
7.982425428619626
100
AcDbArc
 50
319.3537263407
 51
6.0429182228
  0
ARC
  5
A1
330
1F
100
AcDbEntity
  8
0
  6
Continuous
 62
     7
370
    15
100
AcDbCircle
 10
423.0733998389
 20
375.2828816426
 30
0.0
 40
43.83007457138078
100
AcDbArc
 50
139.3537263407
 51
220.6462736593
  0
ARC
  5
A2
330
1F
100
AcDbEntity
  8
0
  6
Continuous
 62
     7
370
    15
100
AcDbCircle
 10
383.7608998389
 20
341.5328816426
 30
0.0
 40
7.982425428619736
100
AcDbArc
 50
319.3537263407
 51
40.6462736593
  0
ARC
  5
A3
330
1F
100
AcDbEntity
  8
0
  6
Continuous
 62
     7
370
    15
100
AcDbCircle
 10
423.0733998389
 20
307.7828816426
 30
0.0
 40
43.83007457138243
100
AcDbArc
 50
139.3537263407
 51
220.6462736593
  0
ARC
  5
A4
330
1F
100
AcDbEntity
  8
0
  6
Continuous
 62
     7
370
    15
100
AcDbCircle
 10
383.7608998389
 20
274.0328816426
 30
0.0
 40
7.982425428621393
100
AcDbArc
 50
319.3537263407
 51
40.6462736594
  0
ARC
  5
A5
330
1F
100
AcDbEntity
  8
0
  6
Continuous
 62
     7
370
    15
100
AcDbCircle
 10
423.0733998389
 20
240.2828816426
 30
0.0
 40
43.83007457138073
100
AcDbArc
 50
139.3537263407
 51
220.6462736593
  0
ARC
  5
A6
330
1F
100
AcDbEntity
  8
0
  6
Continuous
 62
     7
370
    15
100
AcDbCircle
 10
383.7608998389
 20
206.5328816426
 30
0.0
 40
7.982425428619736
100
AcDbArc
 50
319.3537263407
 51
40.6462736593
  0
ARC
  5
A7
330
1F
100
AcDbEntity
  8
0
  6
Continuous
 62
     7
370
    15
100
AcDbCircle
 10
423.0733998389
 20
172.7828816426
 30
0.0
 40
43.83007457138073
100
AcDbArc
 50
139.3537263407
 51
220.6462736593
  0
ARC
  5
A8
330
1F
100
AcDbEntity
  8
0
  6
Continuous
 62
     7
370
    15
100
AcDbCircle
 10
383.7608998389
 20
139.0328816426
 30
0.0
 40
7.982425428619623
100
AcDbArc
 50
353.9570817772
 51
40.6462736593
  0
LINE
  5
A9
330
1F
100
AcDbEntity
  8
0
  6
Continuous
 62
     7
370
    15
100
AcDbLine
 10
391.6989694664
 20
138.1925446197
 30
0.0
 11
379.2433252675
 21
20.5328816426
 31
0.0
  0
LINE
  5
AA
330
1F
100
AcDbEntity
  8
0
  6
Continuous
 62
     7
370
    15
100
AcDbLine
 10
379.2433252675
 20
20.5328816426
 30
0.0
 11
323.3705656531
 21
20.5328816426
 31
0.0
  0
LINE
  5
AB
330
1F
100
AcDbEntity
  8
0
  6
Continuous
 62
     7
370
    15
100
AcDbLine
 10
40.5731400321
 20
20.5328816426
 30
0.0
 11
323.3705656531
 21
20.5328816426
 31
0.0
  0
LINE
  5
AC
330
1F
100
AcDbEntity
  8
0
  6
Continuous
 62
     7
370
    15
100
AcDbLine
 10
39.5731400321
 20
20.5328816426
 30
0.0
 11
40.5731400321
 21
20.5328816426
 31
0.0
  0
LINE
  5
AD
330
1F
100
AcDbEntity
  8
0
  6
Continuous
 62
     7
370
    15
100
AcDbLine
 10
39.5731400321
 20
105.5328816426
 30
0.0
 11
39.5731400321
 21
20.5328816426
 31
0.0
  0
LINE
  5
AE
330
1F
100
AcDbEntity
  8
0
  6
Continuous
 62
     7
370
    15
100
AcDbLine
 10
39.5731400321
 20
105.5328816426
 30
0.0
 11
40.5731400321
 21
105.5328816426
 31
0.0
  0
LINE
  5
AF
330
1F
100
AcDbEntity
  8
0
  6
Continuous
 62
     7
370
    15
100
AcDbLine
 10
283.4920070291
 20
105.5328816426
 30
0.0
 11
40.5731400321
 21
105.5328816426
 31
0.0
  0
SPLINE
  5
B0
330
1F
100
AcDbEntity
  8
0
  6
Continuous
 62
     7
370
    15
100
AcDbSpline
210
0.0
220
0.0
230
1.0
 70
     8
 71
     3
 72
    36
 73
    32
 74
     0
 42
0.000000001
 43
0.00000001
 40
0.0
 40
0.0
 40
0.0
 40
0.0
 40
0.0625
 40
0.0625
 40
0.09375
 40
0.09375
 40
0.109375
 40
0.109375
 40
0.1171875
 40
0.1171875
 40
0.125
 40
0.125
 40
0.25
 40
0.25
 40
0.375
 40
0.375
 40
0.5
 40
0.5
 40
0.75
 40
0.75
 40
0.8125
 40
0.8125
 40
0.84375
 40
0.84375
 40
0.859375
 40
0.859375
 40
0.8671875
 40
0.8671875
 40
0.875
 40
0.875
 40
1.0
 40
1.0
 40
1.0
 40
1.0
 10
292.2099060161124
 20
110.3056089153544
 30
0.0
 10
292.0774147666461
 20
110.1007370781638
 30
0.0
 10
291.9480598907858
 20
109.9106599551808
 30
0.0
 10
291.7587321374043
 20
109.6477363420179
 30
0.0
 10
291.6964069796787
 20
109.5637938161821
 30
0.0
 10
291.6040953831925
 20
109.4434280452564
 30
0.0
 10
291.5735208743808
 20
109.4042307912525
 30
0.0
 10
291.5279531461888
 20
109.3468219147036
 30
0.0
 10
291.5128129092958
 20
109.3279167899301
 30
0.0
 10
291.4826304471849
 20
109.2905688752022
 30
0.0
 10
291.4696646802187
 20
109.2746482703069
 30
0.0
 10
291.1794801604755
 20
108.922173541036
 30
0.0
 10
290.8816888731996
 20
108.6051595856471
 30
0.0
 10
290.2497054609826
 20
108.0127270920099
 30
0.0
 10
289.9169470969449
 20
107.7384256825353
 30
0.0
 10
289.217897053011
 20
107.2336525382744
 30
0.0
 10
288.8490034539325
 20
107.0017641832542
 30
0.0
 10
287.7076341980037
 20
106.3803433516286
 30
0.0
 10
286.9002845853626
 20
106.0651752504365
 30
0.0
 10
285.8490733471451
 20
105.7991600873738
 30
0.0
 10
285.6378092953962
 20
105.7526012572426
 30
0.0
 10
285.3193805116149
 20
105.6927293157677
 30
0.0
 10
285.2129821326614
 20
105.6744330525631
 30
0.0
 10
285.0530013876917
 20
105.6494802336866
 30
0.0
 10
284.9996106099451
 20
105.6415778900496
 30
0.0
 10
284.9194286491906
 20
105.6303472685766
 30
0.0
 10
284.8926853632499
 20
105.6267075437494
 30
0.0
 10
284.8391668599902
 20
105.6196357254225
 30
0.0
 10
284.8088599286418
 20
105.6157648858799
 30
0.0
 10
284.4134489560046
 20
105.5666428453972
 30
0.0
 10
283.9822511458134
 20
105.5399784393103
 30
0.0
 10
283.4920070290896
 20
105.5328821358261
 30
0.0
  0
SPLINE
  5
B1
330
1F
100
AcDbEntity
  8
0
  6
Continuous
 62
     7
370
    15
100
AcDbSpline
210
0.0
220
0.0
230
1.0
 70
     8
 71
     3
 72
    10
 73
     6
 74
     0
 42
0.000000001
 43
0.00000001
 40
-0.0000017423705036
 40
-0.0000017423705036
 40
-0.0000017423705036
 40
-0.0000017423705036
 40
0.5000003342765774
 40
0.5000003342765774
 40
1.000000668553155
 40
1.000000668553155
 40
1.000000668553155
 40
1.000000668553155
 10
293.7164522975758
 20
112.2404099609653
 30
0.0
 10
293.3907895456223
 20
111.8901190849394
 30
0.0
 10
293.1237436281696
 20
111.5810909927298
 30
0.0
 10
292.7037867468143
 20
111.0418743372579
 30
0.0
 10
292.4691670487987
 20
110.7065830707104
 30
0.0
 10
292.2099059925856
 20
110.3056089305664
 30
0.0
  0
SPLINE
  5
B2
330
1F
100
AcDbEntity
  8
0
  6
Continuous
 62
     7
370
    15
100
AcDbSpline
210
0.0
220
0.0
230
1.0
 70
     8
 71
     3
 72
    33
 73
    29
 74
     0
 42
0.000000001
 43
0.00000001
 40
0.0
 40
0.0
 40
0.0
 40
0.0
 40
0.0401635283933177
 40
0.0798997800205643
 40
0.1192414724986328
 40
0.15822231694775
 40
0.1968769685975288
 40
0.2352409666639068
 40
0.2733506635189165
 40
0.3112431434377136
 40
0.3489561314880438
 40
0.3865278934143109
 40
0.4239971276482284
 40
0.4614028508357354
 40
0.498784278491144
 40
0.5361807025608998
 40
0.5736313677903108
 40
0.6111753488301264
 40
0.6488514299928867
 40
0.6866979894734958
 40
0.7247528896905295
 40
0.7630533751941002
 40
0.8016359793358989
 40
0.8405364406209255
 40
0.8797896293740112
 40
0.9194294850707002
 40
0.9594889644144969
 40
1.0
 40
1.0
 40
1.0
 40
1.0
 10
302.3065928915772
 20
116.0328816426269
 30
0.0
 10
302.1772823510227
 20
116.029910432165
 30
0.0
 10
301.9200369306635
 20
116.0239996202469
 30
0.0
 10
301.5366355979649
 20
116.0014398306352
 30
0.0
 10
301.1578137876147
 20
115.9688572567377
 30
0.0
 10
300.7835861928223
 20
115.9252958142917
 30
0.0
 10
300.4139498442464
 20
115.8710070878419
 30
0.0
 10
300.0489065719352
 20
115.8059237691752
 30
0.0
 10
299.688457061116
 20
115.7300629911266
 30
0.0
 10
299.3326024098515
 20
115.6434196632203
 30
0.0
 10
298.9813436971758
 20
115.5459947417327
 30
0.0
 10
298.6346820740614
 20
115.4377877492976
 30
0.0
 10
298.2926187121429
 20
115.3187987739538
 30
0.0
 10
297.9551547877074
 20
115.1890279447338
 30
0.0
 10
297.6222914547621
 20
115.048475572945
 30
0.0
 10
297.2940298215593
 20
114.8971421094671
 30
0.0
 10
296.9703709252617
 20
114.735028147299
 30
0.0
 10
296.6513157181443
 20
114.5621343985099
 30
0.0
 10
296.3368650229619
 20
114.3784617030781
 30
0.0
 10
296.0270196195679
 20
114.1840109134869
 30
0.0
 10
295.7217798571392
 20
113.9787832306197
 30
0.0
 10
295.4211470721579
 20
113.7627788344964
 30
0.0
 10
295.1251182227533
 20
113.5360019375867
 30
0.0
 10
294.8337061417954
 20
113.2984416041904
 30
0.0
 10
294.5468630106814
 20
113.0501441414687
 30
0.0
 10
294.2647699720479
 20
112.7909390781837
 30
0.0
 10
293.9867400177698
 20
112.5214771794653
 30
0.0
 10
293.8068864671027
 20
112.3344508727615
 30
0.0
 10
293.7164556985065
 20
112.2404136263451
 30
0.0
  0
LINE
  5
B3
330
1F
100
AcDbEntity
  8
0
  6
Continuous
 62
     7
370
    15
100
AcDbLine
 10
307.2199111553
 20
116.0328816426
 30
0.0
 11
302.3065928916
 21
116.0328816426
 31
0.0
  0
SPLINE
  5
B4
330
1F
100
AcDbEntity
  8
0
  6
Continuous
 62
     7
370
    15
100
AcDbSpline
210
0.0
220
0.0
230
1.0
 70
     8
 71
     3
 72
     9
 73
     5
 74
     0
 42
0.000000001
 43
0.00000001
 40
0.0
 40
0.0
 40
0.0
 40
0.0
 40
0.4821882813920481
 40
1.0
 40
1.0
 40
1.0
 40
1.0
 10
307.7176455187709
 20
116.0457266254751
 30
0.0
 10
307.6376619128803
 20
116.0430100266684
 30
0.0
 10
307.4717856172978
 20
116.0373761303017
 30
0.0
 10
307.3058398291004
 20
116.0344153013756
 30
0.0
 10
307.2199111553181
 20
116.0328821494608
 30
0.0
  0
SPLINE
  5
B5
330
1F
100
AcDbEntity
  8
0
  6
Continuous
 62
     7
370
    15
100
AcDbSpline
210
0.0
220
0.0
230
1.0
 70
     8
 71
     3
 72
    15
 73
    11
 74
     0
 42
0.000000001
 43
0.00000001
 40
0.0
 40
0.0
 40
0.0
 40
0.0
 40
0.0625
 40
0.125
 40
0.25
 40
0.5
 40
0.75
 40
0.875
 40
0.9375
 40
0.9996854243828165
 40
0.9996854243828165
 40
0.9996854243828165
 40
0.9996854243828165
 10
319.4984852799969
 20
128.0328816426272
 30
0.0
 10
319.4955893598932
 20
127.6435566462839
 30
0.0
 10
319.4548949321063
 20
126.8647642435836
 30
0.0
 10
319.2328568621596
 20
125.3209808388543
 30
0.0
 10
318.4723590338799
 20
122.693312539245
 30
0.0
 10
316.3076900158773
 20
119.3663596040229
 30
0.0
 10
313.0383323695979
 20
117.1101678019431
 30
0.0
 10
310.4206238109553
 20
116.3096123144665
 30
0.0
 10
308.8801610911933
 20
116.0766933212099
 30
0.0
 10
308.1033275614909
 20
116.0350425508464
 30
0.0
 10
307.7159555628336
 20
116.0329125365258
 30
0.0
  0
LINE
  5
B6
330
1F
100
AcDbEntity
  8
0
  6
Continuous
 62
     7
370
    15
100
AcDbLine
 10
319.49848528
 20
130.0328816426
 30
0.0
 11
319.49848528
 21
128.0328816426
 31
0.0
  0
SPLINE
  5
B7
330
1F
100
AcDbEntity
  8
0
  6
Continuous
 62
     7
370
    15
100
AcDbSpline
210
0.0
220
0.0
230
1.0
 70
     8
 71
     3
 72
    10
 73
     6
 74
     0
 42
0.000000001
 43
0.00000001
 40
0.0
 40
0.0
 40
0.0
 40
0.0
 40
0.5
 40
0.5
 40
1.0
 40
1.0
 40
1.0
 40
1.0
 10
320.4785016140652
 20
131.0328816426272
 30
0.0
 10
320.1978955803214
 20
131.0220773617559
 30
0.0
 10
319.9604013046694
 20
130.920073556194
 30
0.0
 10
319.6036401243468
 20
130.5527234914985
 30
0.0
 10
319.5091283128431
 20
130.3182178644254
 30
0.0
 10
319.4984852799969
 20
130.0328816426272
 30
0.0
  0
LINE
  5
B8
330
1F
100
AcDbEntity
  8
0
  6
Continuous
 62
     7
370
    15
100
AcDbLine
 10
322.5955670561
 20
131.0328816426
 30
0.0
 11
320.4785016141
 21
131.0328816426
 31
0.0
  0
SPLINE
  5
B9
330
1F
100
AcDbEntity
  8
0
  6
Continuous
 62
     7
370
    15
100
AcDbSpline
210
0.0
220
0.0
230
1.0
 70
     8
 71
     3
 72
    15
 73
    11
 74
     0
 42
0.000000001
 43
0.00000001
 40
0.0
 40
0.0
 40
0.0
 40
0.0
 40
0.1309471852228416
 40
0.2572631357618202
 40
0.3803252495128916
 40
0.5016218230784142
 40
0.6227062734184667
 40
0.7451400918964968
 40
0.8704343301423628
 40
1.0
 40
1.0
 40
1.0
 40
1.0
 10
323.3705656530773
 20
131.4208156013488
 30
0.0
 10
323.3451266147469
 20
131.3911052177476
 30
0.0
 10
323.295148245525
 20
131.3327352234867
 30
0.0
 10
323.2108775596017
 20
131.2562497306386
 30
0.0
 10
323.1216842405117
 20
131.1904829930901
 30
0.0
 10
323.0268744308715
 20
131.1360733727751
 30
0.0
 10
322.9266744789542
 20
131.0928440556665
 30
0.0
 10
322.8210803823286
 20
131.0610920728062
 30
0.0
 10
322.7101845682255
 20
131.0398658417606
 30
0.0
 10
322.6341974063612
 20
131.0352355766288
 30
0.0
 10
322.595567056061
 20
131.0328816426269
 30
0.0
  0
ARC
  5
BA
330
1F
100
AcDbEntity
  8
0
  6
Continuous
 62
     7
370
    15
100
AcDbCircle
 10
322.5797590009
 20
132.0328816426
 30
0.0
 40
1.000000000000051
100
AcDbArc
 50
322.2609584105
 51
0.0
  0
LINE
  5
BB
330
1F
100
AcDbEntity
  8
0
  6
Continuous
 62
     7
370
    15
100
AcDbLine
 10
323.5797590009
 20
132.0328816426
 30
0.0
 11
323.5797590009
 21
230.0328816426
 31
0.0
  0
SPLINE
  5
BC
330
1F
100
AcDbEntity
  8
0
  6
Continuous
 62
     7
370
    15
100
AcDbSpline
210
0.0
220
0.0
230
1.0
 70
    24
 71
     3
 72
    10
 73
     6
 74
     0
 42
0.000000001
 43
0.00000001
 40
0.0
 40
0.0
 40
0.0
 40
0.0
 40
0.3333333333333265
 40
0.6665971825923227
 40
1.0
 40
1.0
 40
1.0
 40
1.0
 10
319.4984847796646
 20
234.0329761941032
 30
0.0
 10
319.4984852799968
 20
234.0328816426271
 30
0.0
 10
319.4984852799968
 20
234.0328816426271
 30
0.0
 10
319.4984852799968
 20
234.0328816426271
 30
0.0
 10
319.4984852243928
 20
234.0328921505366
 30
0.0
 10
319.4984852799968
 20
234.0328816426271
 30
0.0
  0
LINE
  5
BD
330
1F
100
AcDbEntity
  8
0
  6
Continuous
 62
     7
370
    15
100
AcDbLine
 10
307.2199106656
 20
246.032881136
 30
0.0
 11
308.79368498
 21
245.9334900698
 31
0.0
  0
LINE
  5
BE
330
1F
100
AcDbEntity
  8
0
  6
Continuous
 62
     7
370
    15
100
AcDbLine
 10
308.5568214832
 20
116.1172855709
 30
0.0
 11
307.2199111553
 21
116.0328821495
 31
0.0
  0
LINE
  5
BF
330
1F
100
AcDbEntity
  8
0
  6
Continuous
 62
     7
370
    15
100
AcDbLine
 10
283.4919979865
 20
442.5328811491
 30
0.0
 11
284.1210260051
 21
442.49299259
 31
0.0
  0
ENDSEC
  0
SECTION
  2
OBJECTS
  0
DICTIONARY
  5
C
330
0
100
AcDbDictionary
281
     1
  3
ACAD_GROUP
350
D
  3
ACAD_LAYOUT
350
1A
  3
ACAD_MLINESTYLE
350
17
  3
ACAD_PLOTSETTINGS
350
19
  3
ACAD_PLOTSTYLENAME
350
E
  3
ACAD_SCALELIST
350
47
  0
DICTIONARY
  5
D
102
{ACAD_REACTORS
330
C
102
}
330
C
100
AcDbDictionary
281
     1
  0
DICTIONARY
  5
1A
102
{ACAD_REACTORS
330
C
102
}
330
C
100
AcDbDictionary
281
     1
  3
Layout1
350
1E
  3
Layout2
350
26
  3
Model
350
22
  0
DICTIONARY
  5
17
102
{ACAD_REACTORS
330
C
102
}
330
C
100
AcDbDictionary
281
     1
  3
Standard
350
18
  0
DICTIONARY
  5
19
102
{ACAD_REACTORS
330
C
102
}
330
C
100
AcDbDictionary
281
     1
  0
ACDBDICTIONARYWDFLT
  5
E
102
{ACAD_REACTORS
330
C
102
}
330
C
100
AcDbDictionary
281
     1
  3
Normal
350
F
100
AcDbDictionaryWithDefault
340
F
  0
DICTIONARY
  5
47
102
{ACAD_REACTORS
330
C
102
}
330
C
100
AcDbDictionary
281
     1
  3
A0
350
48
  3
A1
350
49
  3
A2
350
4A
  3
A3
350
4B
  3
A4
350
4C
  3
A5
350
4D
  3
A6
350
4E
  3
A7
350
4F
  3
A8
350
50
  3
A9
350
51
  3
B0
350
52
  3
B1
350
53
  3
B2
350
54
  3
B3
350
55
  3
B4
350
56
  3
B5
350
57
  3
B6
350
58
  3
B7
350
59
  3
B8
350
5A
  3
B9
350
5B
  3
C0
350
5C
  3
C1
350
5D
  3
C2
350
5E
  3
C3
350
5F
  3
C4
350
60
  3
C5
350
61
  3
C6
350
62
  3
C7
350
63
  3
C8
350
64
  3
C9
350
65
  3
D0
350
66
  3
D1
350
67
  3
D2
350
68
  0
LAYOUT
  5
1E
102
{ACAD_REACTORS
330
1A
102
}
330
1A
100
AcDbPlotSettings
  1

  2
none_device
  4

  6

 40
0.0
 41
0.0
 42
0.0
 43
0.0
 44
0.0
 45
0.0
 46
0.0
 47
0.0
 48
0.0
 49
0.0
140
0.0
141
0.0
142
1.0
143
1.0
 70
   688
 72
     1
 73
     0
 74
     5
  7

 75
    16
147
1.0
148
0.0
149
0.0
100
AcDbLayout
  1
Layout1
 70
     1
 71
     1
 10
0.0
 20
0.0
 11
420.0
 21
297.0
 12
0.0
 22
0.0
 32
0.0
 14
1.0000000000E+20
 24
1.0000000000E+20
 34
1.0000000000E+20
 15
-1.0000000000E+20
 25
-1.0000000000E+20
 35
-1.0000000000E+20
146
0.0
 13
0.0
 23
0.0
 33
0.0
 16
1.0
 26
0.0
 36
0.0
 17
0.0
 27
1.0
 37
0.0
 76
     0
330
1B
  0
LAYOUT
  5
26
102
{ACAD_REACTORS
330
1A
102
}
330
1A
100
AcDbPlotSettings
  1

  2
none_device
  4

  6

 40
0.0
 41
0.0
 42
0.0
 43
0.0
 44
0.0
 45
0.0
 46
0.0
 47
0.0
 48
0.0
 49
0.0
140
0.0
141
0.0
142
1.0
143
1.0
 70
   688
 72
     1
 73
     0
 74
     5
  7

 75
    16
147
1.0
148
0.0
149
0.0
100
AcDbLayout
  1
Layout2
 70
     1
 71
     2
 10
0.0
 20
0.0
 11
0.0
 21
0.0
 12
0.0
 22
0.0
 32
0.0
 14
0.0
 24
0.0
 34
0.0
 15
0.0
 25
0.0
 35
0.0
146
0.0
 13
0.0
 23
0.0
 33
0.0
 16
1.0
 26
0.0
 36
0.0
 17
0.0
 27
1.0
 37
0.0
 76
     0
330
23
  0
LAYOUT
  5
22
102
{ACAD_REACTORS
330
1A
102
}
330
1A
100
AcDbPlotSettings
  1

  2
none_device
  4
Letter_(8.50_x_11.00_Inches)
  6

 40
6.35
 41
6.35
 42
6.35000508
 43
6.35000508
 44
215.9
 45
279.4
 46
0.0
 47
0.0
 48
0.0
 49
0.0
140
0.0
141
0.0
142
1.0
143
1.0
 70
  1712
 72
     1
 73
     0
 74
     0
  7

 75
     0
147
1.0
148
0.0
149
0.0
100
AcDbLayout
  1
Model
 70
     1
 71
     0
 10
0.0
 20
0.0
 11
841.0
 21
594.0
 12
0.0
 22
0.0
 32
0.0
 14
0.0
 24
0.0
 34
0.0
 15
841.0
 25
594.0
 35
0.0
146
0.0
 13
0.0
 23
0.0
 33
0.0
 16
1.0
 26
0.0
 36
0.0
 17
0.0
 27
1.0
 37
0.0
 76
     0
330
1F
331
29
  0
MLINESTYLE
  5
18
102
{ACAD_REACTORS
330
17
102
}
330
17
100
AcDbMlineStyle
  2
Standard
 70
     0
  3

 62
   256
 51
90.0
 52
90.0
 71
     2
 49
0.5
 62
   256
  6
BYLAYER
 49
-0.5
 62
   256
  6
BYLAYER
  0
ACDBPLACEHOLDER
  5
F
102
{ACAD_REACTORS
330
E
102
}
330
E
  0
SCALE
  5
48
102
{ACAD_REACTORS
330
47
102
}
330
47
100
AcDbScale
 70
     0
300
1:1
140
1.0
141
1.0
290
     1
  0
SCALE
  5
49
102
{ACAD_REACTORS
330
47
102
}
330
47
100
AcDbScale
 70
     0
300
1:2
140
1.0
141
2.0
290
     0
  0
SCALE
  5
4A
102
{ACAD_REACTORS
330
47
102
}
330
47
100
AcDbScale
 70
     0
300
1:4
140
1.0
141
4.0
290
     0
  0
SCALE
  5
4B
102
{ACAD_REACTORS
330
47
102
}
330
47
100
AcDbScale
 70
     0
300
1:5
140
1.0
141
5.0
290
     0
  0
SCALE
  5
4C
102
{ACAD_REACTORS
330
47
102
}
330
47
100
AcDbScale
 70
     0
300
1:8
140
1.0
141
8.0
290
     0
  0
SCALE
  5
4D
102
{ACAD_REACTORS
330
47
102
}
330
47
100
AcDbScale
 70
     0
300
1:10
140
1.0
141
10.0
290
     0
  0
SCALE
  5
4E
102
{ACAD_REACTORS
330
47
102
}
330
47
100
AcDbScale
 70
     0
300
1:16
140
1.0
141
16.0
290
     0
  0
SCALE
  5
4F
102
{ACAD_REACTORS
330
47
102
}
330
47
100
AcDbScale
 70
     0
300
1:20
140
1.0
141
20.0
290
     0
  0
SCALE
  5
50
102
{ACAD_REACTORS
330
47
102
}
330
47
100
AcDbScale
 70
     0
300
1:30
140
1.0
141
30.0
290
     0
  0
SCALE
  5
51
102
{ACAD_REACTORS
330
47
102
}
330
47
100
AcDbScale
 70
     0
300
1:40
140
1.0
141
40.0
290
     0
  0
SCALE
  5
52
102
{ACAD_REACTORS
330
47
102
}
330
47
100
AcDbScale
 70
     0
300
1:50
140
1.0
141
50.0
290
     0
  0
SCALE
  5
53
102
{ACAD_REACTORS
330
47
102
}
330
47
100
AcDbScale
 70
     0
300
1:100
140
1.0
141
100.0
290
     0
  0
SCALE
  5
54
102
{ACAD_REACTORS
330
47
102
}
330
47
100
AcDbScale
 70
     0
300
2:1
140
2.0
141
1.0
290
     0
  0
SCALE
  5
55
102
{ACAD_REACTORS
330
47
102
}
330
47
100
AcDbScale
 70
     0
300
4:1
140
4.0
141
1.0
290
     0
  0
SCALE
  5
56
102
{ACAD_REACTORS
330
47
102
}
330
47
100
AcDbScale
 70
     0
300
8:1
140
8.0
141
1.0
290
     0
  0
SCALE
  5
57
102
{ACAD_REACTORS
330
47
102
}
330
47
100
AcDbScale
 70
     0
300
10:1
140
10.0
141
1.0
290
     0
  0
SCALE
  5
58
102
{ACAD_REACTORS
330
47
102
}
330
47
100
AcDbScale
 70
     0
300
100:1
140
100.0
141
1.0
290
     0
  0
SCALE
  5
59
102
{ACAD_REACTORS
330
47
102
}
330
47
100
AcDbScale
 70
     0
300
1/128" = 1'-0"
140
0.0078125
141
12.0
290
     0
  0
SCALE
  5
5A
102
{ACAD_REACTORS
330
47
102
}
330
47
100
AcDbScale
 70
     0
300
1/64" = 1'-0"
140
0.015625
141
12.0
290
     0
  0
SCALE
  5
5B
102
{ACAD_REACTORS
330
47
102
}
330
47
100
AcDbScale
 70
     0
300
1/32" = 1'-0"
140
0.03125
141
12.0
290
     0
  0
SCALE
  5
5C
102
{ACAD_REACTORS
330
47
102
}
330
47
100
AcDbScale
 70
     0
300
1/16" = 1'-0"
140
0.0625
141
12.0
290
     0
  0
SCALE
  5
5D
102
{ACAD_REACTORS
330
47
102
}
330
47
100
AcDbScale
 70
     0
300
3/32" = 1'-0"
140
0.09375
141
12.0
290
     0
  0
SCALE
  5
5E
102
{ACAD_REACTORS
330
47
102
}
330
47
100
AcDbScale
 70
     0
300
1/8" = 1'-0"
140
0.125
141
12.0
290
     0
  0
SCALE
  5
5F
102
{ACAD_REACTORS
330
47
102
}
330
47
100
AcDbScale
 70
     0
300
3/16" = 1'-0"
140
0.1875
141
12.0
290
     0
  0
SCALE
  5
60
102
{ACAD_REACTORS
330
47
102
}
330
47
100
AcDbScale
 70
     0
300
1/4" = 1'-0"
140
0.25
141
12.0
290
     0
  0
SCALE
  5
61
102
{ACAD_REACTORS
330
47
102
}
330
47
100
AcDbScale
 70
     0
300
3/8" = 1'-0"
140
0.375
141
12.0
290
     0
  0
SCALE
  5
62
102
{ACAD_REACTORS
330
47
102
}
330
47
100
AcDbScale
 70
     0
300
1/2" = 1'-0"
140
0.5
141
12.0
290
     0
  0
SCALE
  5
63
102
{ACAD_REACTORS
330
47
102
}
330
47
100
AcDbScale
 70
     0
300
3/4" = 1'-0"
140
0.75
141
12.0
290
     0
  0
SCALE
  5
64
102
{ACAD_REACTORS
330
47
102
}
330
47
100
AcDbScale
 70
     0
300
1" = 1'-0"
140
1.0
141
12.0
290
     0
  0
SCALE
  5
65
102
{ACAD_REACTORS
330
47
102
}
330
47
100
AcDbScale
 70
     0
300
1-1/2" = 1'-0"
140
1.5
141
12.0
290
     0
  0
SCALE
  5
66
102
{ACAD_REACTORS
330
47
102
}
330
47
100
AcDbScale
 70
     0
300
3" = 1'-0"
140
3.0
141
12.0
290
     0
  0
SCALE
  5
67
102
{ACAD_REACTORS
330
47
102
}
330
47
100
AcDbScale
 70
     0
300
6" = 1'-0"
140
6.0
141
12.0
290
     0
  0
SCALE
  5
68
102
{ACAD_REACTORS
330
47
102
}
330
47
100
AcDbScale
 70
     0
300
1'-0" = 1'-0"
140
12.0
141
12.0
290
     0
  0
ENDSEC
  0
EOF
