  0
SECTION
  2
HEADER
  9
$ACADVER
  1
AC1015
  9
$ACADMAINTVER
 70
     6
  9
$DWGCODEPAGE
  3
ANSI_1252
  9
$INSBASE
 10
0.0
 20
0.0
 30
0.0
  9
$EXTMIN
 10
0.0
 20
0.0
 30
0.0
  9
$EXTMAX
 10
841.0
 20
594.0
 30
0.0
  9
$LIMMIN
 10
0.0
 20
0.0
  9
$LIMMAX
 10
841.0
 20
594.0
  9
$ORTHOMODE
 70
     0
  9
$REGENMODE
 70
     1
  9
$FILLMODE
 70
     1
  9
$QTEXTMODE
 70
     0
  9
$MIRRTEXT
 70
     1
  9
$LTSCALE
 40
1.0
  9
$ATTMODE
 70
     1
  9
$TEXTSIZE
 40
3.5
  9
$TRACEWID
 40
1.0
  9
$TEXTSTYLE
  7
Standard
  9
$CLAYER
  8
0
  9
$CELTYPE
  6
ByLayer
  9
$CECOLOR
 62
   256
  9
$CELTSCALE
 40
1.0
  9
$DISPSILH
 70
     0
  9
$DIMSCALE
 40
1.0
  9
$DIMASZ
 40
3.556
  9
$DIMEXO
 40
1.0
  9
$DIMDLI
 40
3.75
  9
$DIMRND
 40
0.0
  9
$DIMDLE
 40
0.0
  9
$DIMEXE
 40
1.0
  9
$DIMTP
 40
0.0
  9
$DIMTM
 40
0.0
  9
$DIMTXT
 40
3.5
  9
$DIMCEN
 40
2.5
  9
$DIMTSZ
 40
0.0
  9
$DIMTOL
 70
     0
  9
$DIMLIM
 70
     0
  9
$DIMTIH
 70
     1
  9
$DIMTOH
 70
     1
  9
$DIMSE1
 70
     0
  9
$DIMSE2
 70
     0
  9
$DIMTAD
 70
     1
  9
$DIMZIN
 70
     0
  9
$DIMBLK
  1

  9
$DIMASO
 70
     1
  9
$DIMSHO
 70
     1
  9
$DIMPOST
  1

  9
$DIMAPOST
  1

  9
$DIMALT
 70
     0
  9
$DIMALTD
 70
     3
  9
$DIMALTF
 40
0.0393700787
  9
$DIMLFAC
 40
1.0
  9
$DIMTOFL
 70
     1
  9
$DIMTVP
 40
0.0
  9
$DIMTIX
 70
     0
  9
$DIMSOXD
 70
     0
  9
$DIMSAH
 70
     0
  9
$DIMBLK1
  1

  9
$DIMBLK2
  1

  9
$DIMSTYLE
  2
ISO-25
  9
$DIMCLRD
 70
     0
  9
$DIMCLRE
 70
     0
  9
$DIMCLRT
 70
     0
  9
$DIMTFAC
 40
1.0
  9
$DIMGAP
 40
1.524
  9
$DIMJUST
 70
     0
  9
$DIMSD1
 70
     0
  9
$DIMSD2
 70
     0
  9
$DIMTOLJ
 70
     0
  9
$DIMTZIN
 70
     0
  9
$DIMALTZ
 70
     0
  9
$DIMALTTZ
 70
     0
  9
$DIMUPT
 70
     0
  9
$DIMDEC
 70
     2
  9
$DIMTDEC
 70
     2
  9
$DIMALTU
 70
     2
  9
$DIMALTTD
 70
     3
  9
$DIMTXSTY
  7
Standard
  9
$DIMAUNIT
 70
     0
  9
$DIMADEC
 70
     2
  9
$DIMALTRND
 40
0.0
  9
$DIMAZIN
 70
     0
  9
$DIMDSEP
 70
    44
  9
$DIMATFIT
 70
     3
  9
$DIMFRAC
 70
     0
  9
$DIMLDRBLK
  1

  9
$DIMLUNIT
 70
     2
  9
$DIMLWD
 70
    -2
  9
$DIMLWE
 70
    -2
  9
$DIMTMOVE
 70
     0
  9
$LUNITS
 70
     2
  9
$LUPREC
 70
     5
  9
$SKETCHINC
 40
1.0
  9
$FILLETRAD
 40
10.0
  9
$AUNITS
 70
     0
  9
$AUPREC
 70
     2
  9
$MENU
  1
.
  9
$ELEVATION
 40
0.0
  9
$PELEVATION
 40
0.0
  9
$THICKNESS
 40
0.0
  9
$LIMCHECK
 70
     0
  9
$CHAMFERA
 40
0.0
  9
$CHAMFERB
 40
0.0
  9
$CHAMFERC
 40
0.0
  9
$CHAMFERD
 40
0.0
  9
$SKPOLY
 70
     0
  9
$TDCREATE
 40
2457821.632636771
  9
$TDUCREATE
 40
2457821.632636771
  9
$TDUPDATE
 40
2457821.632637222
  9
$TDUUPDATE
 40
2457821.632637222
  9
$TDINDWG
 40
0.0000000116
  9
$TDUSRTIMER
 40
0.0000000116
  9
$USRTIMER
 70
     1
  9
$ANGBASE
 50
0.0
  9
$ANGDIR
 70
     0
  9
$PDMODE
 70
     0
  9
$PDSIZE
 40
-1.0
  9
$PLINEWID
 40
0.0
  9
$SPLFRAME
 70
     0
  9
$SPLINETYPE
 70
     6
  9
$SPLINESEGS
 70
     8
  9
$HANDSEED
  5
E4
  9
$SURFTAB1
 70
     6
  9
$SURFTAB2
 70
     6
  9
$SURFTYPE
 70
     6
  9
$SURFU
 70
     6
  9
$SURFV
 70
     6
  9
$UCSBASE
  2

  9
$UCSNAME
  2

  9
$UCSORG
 10
0.0
 20
0.0
 30
0.0
  9
$UCSXDIR
 10
1.0
 20
0.0
 30
0.0
  9
$UCSYDIR
 10
0.0
 20
1.0
 30
0.0
  9
$UCSORTHOREF
  2

  9
$UCSORTHOVIEW
 70
     0
  9
$UCSORGTOP
 10
0.0
 20
0.0
 30
0.0
  9
$UCSORGBOTTOM
 10
0.0
 20
0.0
 30
0.0
  9
$UCSORGLEFT
 10
0.0
 20
0.0
 30
0.0
  9
$UCSORGRIGHT
 10
0.0
 20
0.0
 30
0.0
  9
$UCSORGFRONT
 10
0.0
 20
0.0
 30
0.0
  9
$UCSORGBACK
 10
0.0
 20
0.0
 30
0.0
  9
$PUCSBASE
  2

  9
$PUCSNAME
  2

  9
$PUCSORG
 10
0.0
 20
0.0
 30
0.0
  9
$PUCSXDIR
 10
1.0
 20
0.0
 30
0.0
  9
$PUCSYDIR
 10
0.0
 20
1.0
 30
0.0
  9
$PUCSORTHOREF
  2

  9
$PUCSORTHOVIEW
 70
     0
  9
$PUCSORGTOP
 10
0.0
 20
0.0
 30
0.0
  9
$PUCSORGBOTTOM
 10
0.0
 20
0.0
 30
0.0
  9
$PUCSORGLEFT
 10
0.0
 20
0.0
 30
0.0
  9
$PUCSORGRIGHT
 10
0.0
 20
0.0
 30
0.0
  9
$PUCSORGFRONT
 10
0.0
 20
0.0
 30
0.0
  9
$PUCSORGBACK
 10
0.0
 20
0.0
 30
0.0
  9
$USERI1
 70
     0
  9
$USERI2
 70
     0
  9
$USERI3
 70
     0
  9
$USERI4
 70
     0
  9
$USERI5
 70
     0
  9
$USERR1
 40
0.0
  9
$USERR2
 40
0.0
  9
$USERR3
 40
0.0
  9
$USERR4
 40
0.0
  9
$USERR5
 40
0.0
  9
$WORLDVIEW
 70
     1
  9
$SHADEDGE
 70
     3
  9
$SHADEDIF
 70
    70
  9
$TILEMODE
 70
     1
  9
$MAXACTVP
 70
    64
  9
$PINSBASE
 10
0.0
 20
0.0
 30
0.0
  9
$PLIMCHECK
 70
     0
  9
$PEXTMIN
 10
1.0000000000E+20
 20
1.0000000000E+20
 30
1.0000000000E+20
  9
$PEXTMAX
 10
-1.0000000000E+20
 20
-1.0000000000E+20
 30
-1.0000000000E+20
  9
$PLIMMIN
 10
0.0
 20
0.0
  9
$PLIMMAX
 10
420.0
 20
297.0
  9
$UNITMODE
 70
     0
  9
$VISRETAIN
 70
     1
  9
$PLINEGEN
 70
     0
  9
$PSLTSCALE
 70
     1
  9
$TREEDEPTH
 70
  3020
  9
$CMLSTYLE
  2
Standard
  9
$CMLJUST
 70
     0
  9
$CMLSCALE
 40
20.0
  9
$PROXYGRAPHICS
 70
     1
  9
$MEASUREMENT
 70
     1
  9
$CELWEIGHT
370
    -1
  9
$ENDCAPS
280
     0
  9
$JOINSTYLE
280
     0
  9
$LWDISPLAY
290
     1
  9
$INSUNITS
 70
     4
  9
$HYPERLINKBASE
  1

  9
$STYLESHEET
  1

  9
$XEDIT
290
     1
  9
$CEPSNTYPE
380
     0
  9
$PSTYLEMODE
290
     1
  9
$FINGERPRINTGUID
  2
{9C59FF38-B095-49F5-8797-D538C858228D}
  9
$VERSIONGUID
  2
{FAEB1C32-E019-11D5-929B-00C0DF256EC4}
  9
$EXTNAMES
290
     1
  9
$PSVPSCALE
 40
0.0
  9
$OLESTARTUP
290
     0
  0
ENDSEC
  0
SECTION
  2
CLASSES
  0
CLASS
  1
ACDBDICTIONARYWDFLT
  2
AcDbDictionaryWithDefault
  3
ObjectDBX Classes
 90
        0
280
     0
281
     0
  0
CLASS
  1
VISUALSTYLE
  2
AcDbVisualStyle
  3
ObjectDBX Classes
 90
     4095
280
     0
281
     0
  0
CLASS
  1
MATERIAL
  2
AcDbMaterial
  3
ObjectDBX Classes
 90
     1153
280
     0
281
     0
  0
CLASS
  1
SCALE
  2
AcDbScale
  3
ObjectDBX Classes
 90
     1153
280
     0
281
     0
  0
CLASS
  1
TABLESTYLE
  2
AcDbTableStyle
  3
ObjectDBX Classes
 90
     4095
280
     0
281
     0
  0
CLASS
  1
MLEADERSTYLE
  2
AcDbMLeaderStyle
  3
ACDB_MLEADERSTYLE_CLASS
 90
     4095
280
     0
281
     0
  0
CLASS
  1
SUN
  2
AcDbSun
  3
SCENEOE
 90
     1153
280
     0
281
     0
  0
CLASS
  1
ACDBPLACEHOLDER
  2
AcDbPlaceHolder
  3
ObjectDBX Classes
 90
        0
280
     0
281
     0
  0
CLASS
  1
LAYOUT
  2
AcDbLayout
  3
ObjectDBX Classes
 90
        0
280
     0
281
     0
  0
ENDSEC
  0
SECTION
  2
TABLES
  0
TABLE
  2
VPORT
  5
8
330
0
100
AcDbSymbolTable
 70
     1
  0
VPORT
  5
29
330
8
100
AcDbSymbolTableRecord
100
AcDbViewportTableRecord
  2
*Active
 70
     0
 10
0.0
 20
0.0
 11
1.0
 21
1.0
 12
420.5
 22
297.0
 13
0.0
 23
0.0
 14
10.0
 24
10.0
 15
10.0
 25
10.0
 16
0.0
 26
0.0
 36
1.0
 17
0.0
 27
0.0
 37
0.0
 40
594.0
 41
1.4158249158
 42
50.0
 43
0.0
 44
0.0
 50
0.0
 51
0.0
 71
     0
 72
  2000
 73
     1
 74
     3
 75
     0
 76
     0
 77
     0
 78
     0
281
     0
 65
     1
110
0.0
120
0.0
130
0.0
111
1.0
121
0.0
131
0.0
112
0.0
122
1.0
132
0.0
 79
     0
146
0.0
  0
ENDTAB
  0
TABLE
  2
LTYPE
  5
5
330
0
100
AcDbSymbolTable
 70
     6
  0
LTYPE
  5
14
330
5
100
AcDbSymbolTableRecord
100
AcDbLinetypeTableRecord
  2
ByBlock
 70
     0
  3

 72
    65
 73
     0
 40
0.0
  0
LTYPE
  5
15
330
5
100
AcDbSymbolTableRecord
100
AcDbLinetypeTableRecord
  2
ByLayer
 70
     0
  3

 72
    65
 73
     0
 40
0.0
  0
LTYPE
  5
16
330
5
100
AcDbSymbolTableRecord
100
AcDbLinetypeTableRecord
  2
Continuous
 70
     0
  3
Solid line
 72
    65
 73
     0
 40
0.0
  0
LTYPE
  5
6E
330
5
100
AcDbSymbolTableRecord
100
AcDbLinetypeTableRecord
  2
HIDDEN
 70
     0
  3
Hidden __ __ __ __ __ __ __ __ __ __ __ __ __ __
 72
    65
 73
     2
 40
1.905
 49
1.27
 74
     0
 49
-0.635
 74
     0
  0
LTYPE
  5
6F
330
5
100
AcDbSymbolTableRecord
100
AcDbLinetypeTableRecord
  2
PHANTOM
 70
     0
  3
Phantom ______  __  __  ______  __  __  ______
 72
    65
 73
     6
 40
12.7
 49
6.35
 74
     0
 49
-1.27
 74
     0
 49
1.27
 74
     0
 49
-1.27
 74
     0
 49
1.27
 74
     0
 49
-1.27
 74
     0
  0
LTYPE
  5
70
330
5
100
AcDbSymbolTableRecord
100
AcDbLinetypeTableRecord
  2
CENTER
 70
     0
  3
Center ____ _ ____ _ ____ _ ____ _ ____ _ ____
 72
    65
 73
     4
 40
10.16
 49
6.35
 74
     0
 49
-1.27
 74
     0
 49
1.27
 74
     0
 49
-1.27
 74
     0
  0
LTYPE
  5
71
330
5
100
AcDbSymbolTableRecord
100
AcDbLinetypeTableRecord
  2
CENTERX2
 70
     0
  3
Center (2x) ________  __  ________  __  _____
 72
    65
 73
     4
 40
20.32
 49
12.7
 74
     0
 49
-2.54
 74
     0
 49
2.54
 74
     0
 49
-2.54
 74
     0
  0
LTYPE
  5
72
330
5
100
AcDbSymbolTableRecord
100
AcDbLinetypeTableRecord
  2
DOT2
 70
     0
  3
Dot (.5x) ........................................
 72
    65
 73
     2
 40
0.635
 49
0.0
 74
     0
 49
-0.635
 74
     0
  0
ENDTAB
  0
TABLE
  2
LAYER
  5
2
330
0
100
AcDbSymbolTable
 70
     2
  0
LAYER
  5
10
330
2
100
AcDbSymbolTableRecord
100
AcDbLayerTableRecord
  2
0
 70
     0
 62
     7
  6
Continuous
370
    -3
390
F
  0
LAYER
  5
73
330
2
100
AcDbSymbolTableRecord
100
AcDbLayerTableRecord
  2
FORMAT
 70
     0
 62
     7
  6
Continuous
370
    -3
390
F
  0
ENDTAB
  0
TABLE
  2
STYLE
  5
3
330
0
100
AcDbSymbolTable
 70
     1
  0
STYLE
  5
11
330
3
100
AcDbSymbolTableRecord
100
AcDbTextStyleTableRecord
  2
Standard
 70
     0
 40
0.0
 41
1.0
 50
0.0
 71
     0
 42
3.5
  3
txt
  4

  0
ENDTAB
  0
TABLE
  2
VIEW
  5
6
330
0
100
AcDbSymbolTable
 70
     0
  0
ENDTAB
  0
TABLE
  2
UCS
  5
7
330
0
100
AcDbSymbolTable
 70
     0
  0
ENDTAB
  0
TABLE
  2
APPID
  5
9
330
0
100
AcDbSymbolTable
 70
     1
  0
APPID
  5
12
330
9
100
AcDbSymbolTableRecord
100
AcDbRegAppTableRecord
  2
ACAD
 70
     0
  0
ENDTAB
  0
TABLE
  2
DIMSTYLE
  5
A
330
0
100
AcDbSymbolTable
 70
     1
100
AcDbDimStyleTable
  0
DIMSTYLE
105
27
330
A
100
AcDbSymbolTableRecord
100
AcDbDimStyleTableRecord
  2
ISO-25
 70
     0
 41
2.5
 42
0.625
 43
3.75
 44
1.25
 73
     0
 74
     0
 77
     1
 78
     8
140
2.5
141
2.5
143
0.0393700787
147
0.625
171
     3
172
     1
178
     0
271
     2
272
     2
274
     3
278
    44
283
     0
284
     8
340
11
  0
ENDTAB
  0
TABLE
  2
BLOCK_RECORD
  5
1
330
0
100
AcDbSymbolTable
 70
     1
  0
BLOCK_RECORD
  5
1F
330
1
100
AcDbSymbolTableRecord
100
AcDbBlockTableRecord
  2
*Model_Space
340
22
  0
BLOCK_RECORD
  5
1B
330
1
100
AcDbSymbolTableRecord
100
AcDbBlockTableRecord
  2
*Paper_Space
340
1E
  0
BLOCK_RECORD
  5
23
330
1
100
AcDbSymbolTableRecord
100
AcDbBlockTableRecord
  2
*Paper_Space0
340
26
  0
ENDTAB
  0
ENDSEC
  0
SECTION
  2
BLOCKS
  0
BLOCK
  5
20
330
1F
100
AcDbEntity
  8
0
100
AcDbBlockBegin
  2
*Model_Space
 70
     0
 10
0.0
 20
0.0
 30
0.0
  3
*Model_Space
  1

  0
ENDBLK
  5
21
330
1F
100
AcDbEntity
  8
0
100
AcDbBlockEnd
  0
BLOCK
  5
1C
330
1B
100
AcDbEntity
 67
     1
  8
0
100
AcDbBlockBegin
  2
*Paper_Space
 70
     0
 10
0.0
 20
0.0
 30
0.0
  3
*Paper_Space
  1

  0
ENDBLK
  5
1D
330
1B
100
AcDbEntity
 67
     1
  8
0
100
AcDbBlockEnd
  0
BLOCK
  5
24
330
23
100
AcDbEntity
  8
0
100
AcDbBlockBegin
  2
*Paper_Space0
 70
     0
 10
0.0
 20
0.0
 30
0.0
  3
*Paper_Space0
  1

  0
ENDBLK
  5
25
330
23
100
AcDbEntity
  8
0
100
AcDbBlockEnd
  0
ENDSEC
  0
SECTION
  2
ENTITIES
  0
SPLINE
  5
74
330
1F
100
AcDbEntity
  8
0
  6
Continuous
 62
     7
370
    15
100
AcDbSpline
210
0.0
220
0.0
230
1.0
 70
     8
 71
     3
 72
     8
 73
     4
 74
     0
 42
0.000000001
 43
0.00000001
 40
0.0
 40
0.0
 40
0.0
 40
0.0
 40
1.0
 40
1.0
 40
1.0
 40
1.0
 10
604.9624566400597
 20
267.4354694414744
 30
0.0
 10
604.2761055126277
 20
268.434431094873
 30
0.0
 10
603.4574655992272
 20
269.3096621329875
 30
0.0
 10
602.5065853497044
 20
270.0612078712942
 30
0.0
  0
LINE
  5
75
330
1F
100
AcDbEntity
  8
0
  6
Continuous
 62
     7
370
    15
100
AcDbLine
 10
605.0288557034
 20
267.4467506429
 30
0.0
 11
604.9624566401
 21
267.4354694415
 31
0.0
  0
CIRCLE
  5
76
330
1F
100
AcDbEntity
  8
0
  6
Continuous
 62
     7
370
    15
100
AcDbCircle
 10
518.2007670421
 20
46.2568436308
 30
0.0
 40
4.25
  0
ARC
  5
77
330
1F
100
AcDbEntity
  8
0
  6
Continuous
 62
     7
370
    15
100
AcDbCircle
 10
525.2765580516
 20
141.8666813348
 30
0.0
 40
56.00000000000002
100
AcDbArc
 50
225.0997635155
 51
329.605825011
  0
ARC
  5
78
330
1F
100
AcDbEntity
  8
0
  6
Continuous
 62
     7
370
    15
100
AcDbCircle
 10
562.3667618668
 20
120.1110564582
 30
0.0
 40
13.00011124629994
100
AcDbArc
 50
329.605825011
 51
149.605825011
  0
ARC
  5
79
330
1F
100
AcDbEntity
  8
0
  6
Continuous
 62
     7
370
    15
100
AcDbCircle
 10
525.2765580516
 20
141.8666813348
 30
0.0
 40
29.9997775074002
100
AcDbArc
 50
225.0997635155
 51
329.605825011
  0
ARC
  5
7A
330
1F
100
AcDbEntity
  8
0
  6
Continuous
 62
     7
370
    15
100
AcDbCircle
 10
494.9240333227
 20
111.4082723906
 30
0.0
 40
13.00011124629994
100
AcDbArc
 50
45.0997635155
 51
225.0997635155
  0
CIRCLE
  5
7B
330
1F
100
AcDbEntity
  8
0
  6
Continuous
 62
     7
370
    15
100
AcDbCircle
 10
94.4615760582
 20
44.8692143948
 30
0.0
 40
4.000000000000014
  0
CIRCLE
  5
7C
330
1F
100
AcDbEntity
  8
0
  6
Continuous
 62
     7
370
    15
100
AcDbCircle
 10
455.2775948872
 20
46.1866882748
 30
0.0
 40
4.25
  0
CIRCLE
  5
7D
330
1F
100
AcDbEntity
  8
0
  6
Continuous
 62
     7
370
    15
100
AcDbCircle
 10
517.9606024585
 20
72.2520456552
 30
0.0
 40
4.249999999999886
  0
CIRCLE
  5
7E
330
1F
100
AcDbEntity
  8
0
  6
Continuous
 62
     7
370
    15
100
AcDbCircle
 10
539.8314132444
 20
73.3982462796
 30
0.0
 40
4.249999999999886
  0
CIRCLE
  5
7F
330
1F
100
AcDbEntity
  8
0
  6
Continuous
 62
     7
370
    15
100
AcDbCircle
 10
560.2775948872
 20
81.2468000661
 30
0.0
 40
4.25
  0
CIRCLE
  5
80
330
1F
100
AcDbEntity
  8
0
  6
Continuous
 62
     7
370
    15
100
AcDbCircle
 10
577.2977326706
 20
95.0294358859
 30
0.0
 40
4.250000000000114
  0
CIRCLE
  5
81
330
1F
100
AcDbEntity
  8
0
  6
Continuous
 62
     7
370
    15
100
AcDbCircle
 10
589.2257769222
 20
113.3970133157
 30
0.0
 40
4.25
  0
CIRCLE
  5
82
330
1F
100
AcDbEntity
  8
0
  6
Continuous
 62
     7
370
    15
100
AcDbCircle
 10
594.894127563
 20
134.5515859023
 30
0.0
 40
4.249999999999886
  0
CIRCLE
  5
83
330
1F
100
AcDbEntity
  8
0
  6
Continuous
 62
     7
370
    15
100
AcDbCircle
 10
456.8072628358
 20
127.3147599738
 30
0.0
 40
4.25
  0
CIRCLE
  5
84
330
1F
100
AcDbEntity
  8
0
  6
Continuous
 62
     7
370
    15
100
AcDbCircle
 10
464.6558166223
 20
106.868578331
 30
0.0
 40
4.25
  0
CIRCLE
  5
85
330
1F
100
AcDbEntity
  8
0
  6
Continuous
 62
     7
370
    15
100
AcDbCircle
 10
478.4384524421
 20
89.8484405476
 30
0.0
 40
4.250000000000057
  0
CIRCLE
  5
86
330
1F
100
AcDbEntity
  8
0
  6
Continuous
 62
     7
370
    15
100
AcDbCircle
 10
496.8060298719
 20
77.920396296
 30
0.0
 40
4.250000000000057
  0
CIRCLE
  5
87
330
1F
100
AcDbEntity
  8
0
  6
Continuous
 62
     7
370
    15
100
AcDbCircle
 10
564.9487095526
 20
146.9874318362
 30
0.0
 40
4.0
  0
CIRCLE
  5
88
330
1F
100
AcDbEntity
  8
0
  6
Continuous
 62
     7
370
    15
100
AcDbCircle
 10
485.6064802218
 20
136.7497248258
 30
0.0
 40
4.0
  0
CIRCLE
  5
89
330
1F
100
AcDbEntity
  8
0
  6
Continuous
 62
     7
370
    15
100
AcDbCircle
 10
110.4615760582
 20
44.8692143948
 30
0.0
 40
4.000000000000014
  0
ARC
  5
8A
330
1F
100
AcDbEntity
  8
0
  6
Continuous
 62
     7
370
    15
100
AcDbCircle
 10
618.8346003311
 20
133.7909400765
 30
0.0
 40
4.000000000000902
100
AcDbArc
 50
187.2508146691
 51
162.8823301875
  0
ARC
  5
8B
330
1F
100
AcDbEntity
  8
0
  6
Continuous
 62
     7
370
    15
100
AcDbCircle
 10
525.2765580516
 20
141.8666813348
 30
0.0
 40
90.0000000000003
100
AcDbArc
 50
354.5291149196
 51
355.604029937
  0
ARC
  5
8C
330
1F
100
AcDbEntity
  8
0
  6
Continuous
 62
     7
370
    15
100
AcDbCircle
 10
582.80843652
 20
290.06268474
 30
0.0
 40
4.250000000000165
100
AcDbArc
 50
258.7369041468
 51
235.4138355376
  0
LINE
  5
8D
330
1F
100
AcDbEntity
  8
0
  6
Continuous
 62
     7
370
    15
100
AcDbLine
 10
580.3959454354
 20
286.5637725138
 30
0.0
 11
581.9783499339
 21
285.8945369188
 31
0.0
  0
CIRCLE
  5
8E
330
1F
100
AcDbEntity
  8
0
  6
Continuous
 62
     7
370
    15
100
AcDbCircle
 10
408.7221768225
 20
360.1113040608
 30
0.0
 40
4.249999999999991
  0
CIRCLE
  5
8F
330
1F
100
AcDbEntity
  8
0
  6
Continuous
 62
     7
370
    15
100
AcDbCircle
 10
423.9651004064
 20
364.9775719043
 30
0.0
 40
4.249999999999991
  0
CIRCLE
  5
90
330
1F
100
AcDbEntity
  8
0
  6
Continuous
 62
     7
370
    15
100
AcDbCircle
 10
429.0908901827
 20
349.8199480378
 30
0.0
 40
4.249999999999991
  0
CIRCLE
  5
91
330
1F
100
AcDbEntity
  8
0
  6
Continuous
 62
     7
370
    15
100
AcDbCircle
 10
444.3341818149
 20
354.6850628696
 30
0.0
 40
4.249999999999991
  0
CIRCLE
  5
92
330
1F
100
AcDbEntity
  8
0
  6
Continuous
 62
     7
370
    15
100
AcDbCircle
 10
449.4599715913
 20
339.5274390031
 30
0.0
 40
4.250000000000115
  0
CIRCLE
  5
93
330
1F
100
AcDbEntity
  8
0
  6
Continuous
 62
     7
370
    15
100
AcDbCircle
 10
464.7032632234
 20
344.3925538349
 30
0.0
 40
4.250000000000115
  0
CIRCLE
  5
94
330
1F
100
AcDbEntity
  8
0
  6
Continuous
 62
     7
370
    15
100
AcDbCircle
 10
47.5784058609
 20
180.2172015845
 30
0.0
 40
4.249999999999979
  0
CIRCLE
  5
95
330
1F
100
AcDbEntity
  8
0
  6
Continuous
 62
     7
370
    15
100
AcDbCircle
 10
78.5607980179
 20
218.2026781066
 30
0.0
 40
4.250000000000053
  0
CIRCLE
  5
96
330
1F
100
AcDbEntity
  8
0
  6
Continuous
 62
     7
370
    15
100
AcDbCircle
 10
70.6179523403
 20
235.3371536059
 30
0.0
 40
4.249999999999964
  0
CIRCLE
  5
97
330
1F
100
AcDbEntity
  8
0
  6
Continuous
 62
     7
370
    15
100
AcDbCircle
 10
81.4854205645
 20
250.7830974906
 30
0.0
 40
4.249999999999998
  0
CIRCLE
  5
98
330
1F
100
AcDbEntity
  8
0
  6
Continuous
 62
     7
370
    15
100
AcDbCircle
 10
89.428266242
 20
233.6486219913
 30
0.0
 40
4.249999999999998
  0
CIRCLE
  5
99
330
1F
100
AcDbEntity
  8
0
  6
Continuous
 62
     7
370
    15
100
AcDbCircle
 10
100.2957344661
 20
249.0945658761
 30
0.0
 40
4.249999999999998
  0
SPLINE
  5
9A
330
1F
100
AcDbEntity
  8
0
  6
Continuous
 62
     7
370
    15
100
AcDbSpline
210
0.0
220
0.0
230
1.0
 70
     8
 71
     3
 72
    54
 73
    50
 74
     0
 42
0.000000001
 43
0.00000001
 40
-0.0000000521298067
 40
-0.0000000521298067
 40
-0.0000000521298067
 40
-0.0000000521298067
 40
0.0625
 40
0.0625
 40
0.09375
 40
0.09375
 40
0.109375
 40
0.109375
 40
0.125
 40
0.125
 40
0.1875
 40
0.1875
 40
0.21875
 40
0.21875
 40
0.234375
 40
0.234375
 40
0.25
 40
0.25
 40
0.3125
 40
0.3125
 40
0.34375
 40
0.34375
 40
0.375
 40
0.375
 40
0.5
 40
0.5
 40
0.5625
 40
0.5625
 40
0.59375
 40
0.59375
 40
0.625
 40
0.625
 40
0.6875
 40
0.6875
 40
0.71875
 40
0.71875
 40
0.734375
 40
0.734375
 40
0.75
 40
0.75
 40
0.8125
 40
0.8125
 40
0.84375
 40
0.84375
 40
0.859375
 40
0.859375
 40
0.875
 40
0.875
 40
1.000000051464757
 40
1.000000051464757
 40
1.000000051464757
 40
1.000000051464757
 10
589.6074327284446
 20
179.5761765044206
 30
0.0
 10
589.753185544832
 20
179.2097301833286
 30
0.0
 10
589.8668099365096
 20
178.8446887580775
 30
0.0
 10
589.989053886961
 20
178.2992339639623
 30
0.0
 10
590.0217697642673
 20
178.1177669232174
 30
0.0
 10
590.0587954209606
 20
177.8460931980405
 30
0.0
 10
590.0691292799804
 20
177.7556230956383
 30
0.0
 10
590.0857809449318
 20
177.5748585028139
 30
0.0
 10
590.0916994039054
 20
177.4929226223711
 30
0.0
 10
590.1152450356284
 20
177.0000961503138
 30
0.0
 10
590.0970214877595
 20
176.6191240394628
 30
0.0
 10
590.0140960860854
 20
176.0675994733785
 30
0.0
 10
589.9771892722155
 20
175.8870802180492
 30
0.0
 10
589.907931531443
 20
175.6212847351032
 30
0.0
 10
589.8825293645241
 20
175.5335168074625
 30
0.0
 10
589.8270925240306
 20
175.3596420855306
 30
0.0
 10
589.7996543697582
 20
175.2803796506513
 30
0.0
 10
589.6249171387333
 20
174.8197767155085
 30
0.0
 10
589.4490743421
 20
174.483632191195
 30
0.0
 10
589.1312306294295
 20
174.0279221404261
 30
0.0
 10
589.0162694722527
 20
173.88410324612
 30
0.0
 10
588.768320651992
 20
173.6126343694082
 30
0.0
 10
588.6417948669033
 20
173.4904253226381
 30
0.0
 10
587.8994808967437
 20
172.865393012183
 30
0.0
 10
587.2231339775113
 20
172.5664384270235
 30
0.0
 10
586.088522587941
 20
172.4200845944689
 30
0.0
 10
585.7170965390028
 20
172.4251341313254
 30
0.0
 10
585.1701240869734
 20
172.5134596581725
 30
0.0
 10
584.989494373193
 20
172.5563600373818
 30
0.0
 10
584.6316238194252
 20
172.6690778696546
 30
0.0
 10
584.4466764189035
 20
172.7425511735163
 30
0.0
 10
583.943156891231
 20
172.9814115910928
 30
0.0
 10
583.6342995631529
 20
173.181097840032
 30
0.0
 10
583.2112471065911
 20
173.5412961692735
 30
0.0
 10
583.0769352103297
 20
173.6714737716594
 30
0.0
 10
582.8855257498265
 20
173.8819074141964
 30
0.0
 10
582.8233989936401
 20
173.9545798348684
 30
0.0
 10
582.7024982758971
 20
174.1049804225319
 30
0.0
 10
582.6396131965784
 20
174.1884871553267
 30
0.0
 10
582.3746809641799
 20
174.5608745270648
 30
0.0
 10
582.1953386079805
 20
174.880648046455
 30
0.0
 10
581.97523021826
 20
175.3931037585401
 30
0.0
 10
581.9100116124497
 20
175.569388234735
 30
0.0
 10
581.8244099898789
 20
175.8420138072775
 30
0.0
 10
581.797913830046
 20
175.9342554744999
 30
0.0
 10
581.7489969390953
 20
176.1214717616948
 30
0.0
 10
581.7248031525824
 20
176.2248267947656
 30
0.0
 10
581.5573135002936
 20
177.016472944007
 30
0.0
 10
581.5302873150843
 20
177.7613046035733
 30
0.0
 10
581.6251146355893
 20
178.5472824567133
 30
0.0
  0
SPLINE
  5
9B
330
1F
100
AcDbEntity
  8
0
  6
Continuous
 62
     7
370
    15
100
AcDbSpline
210
0.0
220
0.0
230
1.0
 70
     8
 71
     3
 72
    84
 73
    80
 74
     0
 42
0.000000001
 43
0.00000001
 40
0.0000000493530807
 40
0.0000000493530807
 40
0.0000000493530807
 40
0.0000000493530807
 40
0.0625000432101332
 40
0.0625000432101332
 40
0.0937500401386595
 40
0.0937500401386595
 40
0.1093750386029226
 40
0.1093750386029226
 40
0.1250000370671857
 40
0.1250000370671857
 40
0.1875000309242382
 40
0.1875000309242382
 40
0.2187500278527645
 40
0.2187500278527645
 40
0.2343750263170276
 40
0.2343750263170276
 40
0.2500000247812907
 40
0.2500000247812907
 40
0.3125000186383432
 40
0.3125000186383432
 40
0.3437500155668695
 40
0.3437500155668695
 40
0.3593750140311326
 40
0.3593750140311326
 40
0.3671875132632642
 40
0.3671875132632642
 40
0.3710937628793299
 40
0.3710937628793299
 40
0.3750000124953957
 40
0.3750000124953957
 40
0.406250009423922
 40
0.406250009423922
 40
0.4218750078881851
 40
0.4218750078881851
 40
0.4296875071203167
 40
0.4296875071203167
 40
0.4335937567363825
 40
0.4335937567363825
 40
0.4375000063524482
 40
0.4375000063524482
 40
0.5000000002095008
 40
0.5000000002095008
 40
0.5624999940665532
 40
0.5624999940665532
 40
0.5664062436826189
 40
0.5664062436826189
 40
0.5703124932986847
 40
0.5703124932986847
 40
0.5781249925308163
 40
0.5781249925308163
 40
0.5937499909950794
 40
0.5937499909950794
 40
0.6249999879236057
 40
0.6249999879236057
 40
0.6289062375396715
 40
0.6289062375396715
 40
0.6328124871557372
 40
0.6328124871557372
 40
0.6406249863878688
 40
0.6406249863878688
 40
0.6562499848521319
 40
0.6562499848521319
 40
0.6874999817806582
 40
0.6874999817806582
 40
0.7499999756377107
 40
0.7499999756377107
 40
0.7656249741019738
 40
0.7656249741019738
 40
0.781249972566237
 40
0.781249972566237
 40
0.8124999694947632
 40
0.8124999694947632
 40
0.8749999633518157
 40
0.8749999633518157
 40
0.906249960280342
 40
0.906249960280342
 40
0.9374999572088683
 40
0.9374999572088683
 40
0.9999999510659208
 40
0.9999999510659208
 40
0.9999999510659208
 40
0.9999999510659208
 10
581.625114256315
 20
178.5472834874077
 30
0.0
 10
581.4650119413958
 20
178.9823687795003
 30
0.0
 10
581.338274037243
 20
179.4347601519437
 30
0.0
 10
581.1982137971631
 20
180.1393063311348
 30
0.0
 10
581.1598681531616
 20
180.3784815776195
 30
0.0
 10
581.1148613411965
 20
180.7437342274782
 30
0.0
 10
581.1019443462142
 20
180.8665667407863
 30
0.0
 10
581.0802809075959
 20
181.1143950274465
 30
0.0
 10
581.0712103442476
 20
181.2455255023199
 30
0.0
 10
581.0395251145237
 20
181.8452387932803
 30
0.0
 10
581.0440031794197
 20
182.3242634071375
 30
0.0
 10
581.0954596497763
 20
183.0416812995568
 30
0.0
 10
581.1200683687306
 20
183.2806340923021
 30
0.0
 10
581.1681662904151
 20
183.6387835243284
 30
0.0
 10
581.1860630715189
 20
183.7581200421552
 30
0.0
 10
581.2255849148107
 20
183.996699825445
 30
0.0
 10
581.2450207061412
 20
184.1048335749236
 30
0.0
 10
581.373413126164
 20
184.7563646155479
 30
0.0
 10
581.504373809877
 20
185.2427306386253
 30
0.0
 10
581.7431849569894
 20
185.9199914591084
 30
0.0
 10
581.8298503596174
 20
186.1370303635806
 30
0.0
 10
581.9704409939445
 20
186.4495166667556
 30
0.0
 10
582.0190699604512
 20
186.551500092225
 30
0.0
 10
582.0946615428078
 20
186.701207217046
 30
0.0
 10
582.1203000923593
 20
186.7505649230891
 30
0.0
 10
582.1594199498356
 20
186.8237844788079
 30
0.0
 10
582.1725702411862
 20
186.8480548301565
 30
0.0
 10
582.1990915016031
 20
186.8963231984051
 30
0.0
 10
582.2094039683988
 20
186.9149076819088
 30
0.0
 10
582.3582625243229
 20
187.178386597119
 30
0.0
 10
582.4972857351876
 20
187.3904537752124
 30
0.0
 10
582.7158772932164
 20
187.6753500892122
 30
0.0
 10
582.7904172695145
 20
187.7647814516888
 30
0.0
 10
582.9047414193947
 20
187.8906273821187
 30
0.0
 10
582.9432685002602
 20
187.9311925067144
 30
0.0
 10
583.0016876679167
 20
187.9899649152868
 30
0.0
 10
583.0212654815285
 20
188.0092098384241
 30
0.0
 10
583.0606306242053
 20
188.0470079252581
 30
0.0
 10
583.0756108031914
 20
188.0611610911944
 30
0.0
 10
583.4954982286638
 20
188.4454852456551
 30
0.0
 10
583.9233374116769
 20
188.6567565146738
 30
0.0
 10
584.8192121121676
 20
188.7750917012715
 30
0.0
 10
585.2823799926749
 20
188.6785804550601
 30
0.0
 10
585.7906783041174
 20
188.4106284889811
 30
0.0
 10
585.8085211320188
 20
188.4008551592168
 30
0.0
 10
585.856219797664
 20
188.3742409941293
 30
0.0
 10
585.8800544519895
 20
188.360574255109
 30
0.0
 10
585.9515143794749
 20
188.3184950686183
 30
0.0
 10
585.9990956171434
 20
188.2890036517181
 30
0.0
 10
586.1416631881843
 20
188.1962135232988
 30
0.0
 10
586.2364733795918
 20
188.1285989340608
 30
0.0
 10
586.5201993859537
 20
187.9084916554711
 30
0.0
 10
586.7084106330485
 20
187.738735455244
 30
0.0
 10
586.9190914342407
 20
187.521864463675
 30
0.0
 10
586.9337427925548
 20
187.5065483636868
 30
0.0
 10
586.9715890683011
 20
187.4666530661982
 30
0.0
 10
586.9904408661089
 20
187.4465445967458
 30
0.0
 10
587.0467822393359
 20
187.3857367262644
 30
0.0
 10
587.0840577945586
 20
187.344554863111
 30
0.0
 10
587.1950283794417
 20
187.2190794251538
 30
0.0
 10
587.2678673283165
 20
187.1328560018528
 30
0.0
 10
587.4829598517991
 20
186.8664663379613
 30
0.0
 10
587.6217891032652
 20
186.6785807033822
 30
0.0
 10
588.0245795650967
 20
186.0840462236907
 30
0.0
 10
588.274843482895
 20
185.646519802624
 30
0.0
 10
588.5648445591983
 20
185.0481491497004
 30
0.0
 10
588.6113756326379
 20
184.947923174675
 30
0.0
 10
588.7104598349622
 20
184.726612532098
 30
0.0
 10
588.7581862481912
 20
184.6154870162924
 30
0.0
 10
588.8959184240795
 20
184.280699885324
 30
0.0
 10
588.9804771229399
 20
184.0556276866098
 30
0.0
 10
589.2123649643252
 20
183.374768756261
 30
0.0
 10
589.3379058516545
 20
182.9133396904204
 30
0.0
 10
589.482640672257
 20
182.2099114232476
 30
0.0
 10
589.5256818491392
 20
181.9584923087571
 30
0.0
 10
589.5902051414101
 20
181.4759657501453
 30
0.0
 10
589.6135458437619
 20
181.2358253630782
 30
0.0
 10
589.6568051194666
 20
180.5187728785936
 30
0.0
 10
589.6499608614685
 20
180.0452294578924
 30
0.0
 10
589.607432828336
 20
179.5761776061465
 30
0.0
  0
SPLINE
  5
9C
330
1F
100
AcDbEntity
  8
0
  6
Continuous
 62
     7
370
    15
100
AcDbSpline
210
0.0
220
0.0
230
1.0
 70
     8
 71
     3
 72
    13
 73
     9
 74
     0
 42
0.000000001
 43
0.00000001
 40
0.0
 40
0.0
 40
0.0
 40
0.0
 40
0.1544948815796563
 40
0.3138479387380881
 40
0.4780675973443985
 40
0.6471615557681681
 40
0.8211368653200488
 40
1.0
 40
1.0
 40
1.0
 40
1.0
 10
458.6415165449416
 20
155.8925194287777
 30
0.0
 10
458.8685122147838
 20
155.5650726415729
 30
0.0
 10
459.3296415567659
 20
154.899882324846
 30
0.0
 10
460.0418193823302
 20
153.8934593199299
 30
0.0
 10
460.782389029687
 20
152.861048316284
 30
0.0
 10
461.5522582406675
 20
151.8032834272543
 30
0.0
 10
462.3506848770016
 20
150.7196199483058
 30
0.0
 10
462.8958562664349
 20
149.9910666123289
 30
0.0
 10
463.1722180553669
 20
149.6217436669847
 30
0.0
  0
LINE
  5
9D
330
1F
100
AcDbEntity
  8
0
  6
Continuous
 62
     7
370
    15
100
AcDbLine
 10
451.1879930227
 20
155.0096938084
 30
0.0
 11
458.6415165449
 21
155.8925194288
 31
0.0
  0
SPLINE
  5
9E
330
1F
100
AcDbEntity
  8
0
  6
Continuous
 62
     7
370
    15
100
AcDbSpline
210
0.0
220
0.0
230
1.0
 70
     8
 71
     3
 72
    13
 73
     9
 74
     0
 42
0.000000001
 43
0.00000001
 40
0.0
 40
0.0
 40
0.0
 40
0.0
 40
0.1760553167725427
 40
0.3483453098282855
 40
0.5168770030920927
 40
0.6816579010916634
 40
0.8426960327272226
 40
0.9999999999999999
 40
0.9999999999999999
 40
0.9999999999999999
 40
0.9999999999999999
 10
448.2670680874782
 20
147.8413923028819
 30
0.0
 10
448.4458168921112
 20
148.2590365134176
 30
0.0
 10
448.7994915715971
 20
149.0853927097772
 30
0.0
 10
449.3146517281443
 20
150.315629348588
 30
0.0
 10
449.8112729774856
 20
151.5220591170916
 30
0.0
 10
450.2884718093972
 20
152.7050509275882
 30
0.0
 10
450.7472766103103
 20
153.8642039232257
 30
0.0
 10
451.0422408657365
 20
154.6308614870443
 30
0.0
 10
451.187993022744
 20
155.0096938084429
 30
0.0
  0
SPLINE
  5
9F
330
1F
100
AcDbEntity
  8
0
  6
Continuous
 62
     7
370
    15
100
AcDbSpline
210
0.0
220
0.0
230
1.0
 70
     8
 71
     3
 72
     9
 73
     5
 74
     0
 42
0.000000001
 43
0.00000001
 40
0.0
 40
0.0
 40
0.0
 40
0.0
 40
0.5304167750567887
 40
0.9999999999999999
 40
0.9999999999999999
 40
0.9999999999999999
 40
0.9999999999999999
 10
452.7384680686464
 20
142.0302056123161
 30
0.0
 10
451.94048203198
 20
143.0519519262954
 30
0.0
 10
450.4360310526894
 20
144.9782603728369
 30
0.0
 10
448.9601278291389
 20
146.9265212272989
 30
0.0
 10
448.2670684337199
 20
147.8413918423677
 30
0.0
  0
LINE
  5
A0
330
1F
100
AcDbEntity
  8
0
  6
Continuous
 62
     7
370
    15
100
AcDbLine
 10
460.1906266729
 20
142.9236093464
 30
0.0
 11
452.7384680686
 21
142.0302056123
 31
0.0
  0
SPLINE
  5
A1
330
1F
100
AcDbEntity
  8
0
  6
Continuous
 62
     7
370
    15
100
AcDbSpline
210
0.0
220
0.0
230
1.0
 70
     8
 71
     3
 72
    12
 73
     8
 74
     0
 42
0.000000001
 43
0.00000001
 40
0.0
 40
0.0
 40
0.0
 40
0.0
 40
0.1765247428324714
 40
0.3647837202958726
 40
0.5647806201187394
 40
0.7765185167306924
 40
1.0
 40
1.0
 40
1.0
 40
1.0
 10
463.1722184011842
 20
149.6217432063737
 30
0.0
 10
463.0006688499579
 20
149.2258966507408
 30
0.0
 10
462.6461662317568
 20
148.4078901950275
 30
0.0
 10
462.0895223627433
 20
147.1447972094861
 30
0.0
 10
461.4931098162314
 20
145.8052022685189
 30
0.0
 10
460.8565967823272
 20
144.3892396334475
 30
0.0
 10
460.4165744379766
 20
143.4208627262162
 30
0.0
 10
460.1906266729345
 20
142.923609346436
 30
0.0
  0
SPLINE
  5
A2
330
1F
100
AcDbEntity
  8
0
  6
Continuous
 62
     7
370
    15
100
AcDbSpline
210
0.0
220
0.0
230
1.0
 70
     8
 71
     3
 72
    30
 73
    26
 74
     0
 42
0.000000001
 43
0.00000001
 40
0.0
 40
0.0
 40
0.0
 40
0.0
 40
0.125
 40
0.125
 40
0.1875
 40
0.1875
 40
0.21875
 40
0.21875
 40
0.234375
 40
0.234375
 40
0.25
 40
0.25
 40
0.5
 40
0.5
 40
0.625
 40
0.625
 40
0.6875
 40
0.6875
 40
0.71875
 40
0.71875
 40
0.734375
 40
0.734375
 40
0.75
 40
0.75
 40
1.0
 40
1.0
 40
1.0
 40
1.0
 10
505.4423320021805
 20
144.4302860197467
 30
0.0
 10
505.4759660552024
 20
144.7001871804297
 30
0.0
 10
505.5079747216369
 20
144.9419182183919
 30
0.0
 10
505.5535496414075
 20
145.2622595912547
 30
0.0
 10
505.5683349346842
 20
145.3619975181955
 30
0.0
 10
505.589903354629
 20
145.5010406125866
 30
0.0
 10
505.5969912412822
 20
145.5456276780469
 30
0.0
 10
505.6074706912694
 20
145.6098673272323
 30
0.0
 10
505.6109384445998
 20
145.6308403854599
 30
0.0
 10
505.6178231579296
 20
145.6719061855802
 30
0.0
 10
505.6200430031523
 20
145.6850621858989
 30
0.0
 10
505.6980505310366
 20
146.1370807159824
 30
0.0
 10
505.7833713186197
 20
146.5594713231694
 30
0.0
 10
505.9297309630635
 20
147.1907662264205
 30
0.0
 10
505.9814446246689
 20
147.4003243778591
 30
0.0
 10
506.0634057872632
 20
147.7133513805493
 30
0.0
 10
506.091457953159
 20
147.8174753440348
 30
0.0
 10
506.1346338695491
 20
147.973333733146
 30
0.0
 10
506.1492087862703
 20
148.0252319368303
 30
0.0
 10
506.1713455782387
 20
148.1029973533274
 30
0.0
 10
506.1787702450426
 20
148.1289055106549
 30
0.0
 10
506.193711050946
 20
148.1806945289669
 30
0.0
 10
506.2032022351689
 20
148.213331506768
 30
0.0
 10
506.2981783472731
 20
148.538220138704
 30
0.0
 10
506.4311767604982
 20
148.9486327112568
 30
0.0
 10
506.6077843049681
 20
149.4636803204224
 30
0.0
  0
ARC
  5
A3
330
1F
100
AcDbEntity
  8
0
  6
Continuous
 62
     7
370
    15
100
AcDbCircle
 10
525.2775948872
 20
141.868578331
 30
0.0
 40
20.00000000000002
100
AcDbArc
 50
172.6410320184
 51
22.0637267014
  0
SPLINE
  5
A4
330
1F
100
AcDbEntity
  8
0
  6
Continuous
 62
     7
370
    15
100
AcDbSpline
210
0.0
220
0.0
230
1.0
 70
     8
 71
     3
 72
    82
 73
    78
 74
     0
 42
0.000000001
 43
0.00000001
 40
0.0
 40
0.0
 40
0.0
 40
0.0
 40
0.015625
 40
0.015625
 40
0.0234375
 40
0.0234375
 40
0.02734375
 40
0.02734375
 40
0.029296875
 40
0.029296875
 40
0.03125
 40
0.03125
 40
0.0625
 40
0.0625
 40
0.09375
 40
0.09375
 40
0.109375
 40
0.109375
 40
0.125
 40
0.125
 40
0.1875
 40
0.1875
 40
0.21875
 40
0.21875
 40
0.234375
 40
0.234375
 40
0.2421875
 40
0.2421875
 40
0.25
 40
0.25
 40
0.3125
 40
0.3125
 40
0.34375
 40
0.34375
 40
0.359375
 40
0.359375
 40
0.375
 40
0.375
 40
0.4375
 40
0.4375
 40
0.46875
 40
0.46875
 40
0.484375
 40
0.484375
 40
0.5
 40
0.5
 40
0.5625
 40
0.5625
 40
0.59375
 40
0.59375
 40
0.609375
 40
0.609375
 40
0.6171875
 40
0.6171875
 40
0.625
 40
0.625
 40
0.6875
 40
0.6875
 40
0.71875
 40
0.71875
 40
0.734375
 40
0.734375
 40
0.75
 40
0.75
 40
0.875
 40
0.875
 40
0.9375
 40
0.9375
 40
0.953125
 40
0.953125
 40
0.9609375
 40
0.9609375
 40
0.96484375
 40
0.96484375
 40
0.96875
 40
0.96875
 40
1.0
 40
1.0
 40
1.0
 40
1.0
 10
506.6077843049681
 20
149.4636803204224
 30
0.0
 10
506.716536382079
 20
149.7597981030321
 30
0.0
 10
506.8181291248997
 20
150.0281507913964
 30
0.0
 10
506.9597792376953
 20
150.3890321825745
 30
0.0
 10
507.0052061083879
 20
150.5023847060726
 30
0.0
 10
507.0706616640681
 20
150.6620015809776
 30
0.0
 10
507.0920327242351
 20
150.7134718875556
 30
0.0
 10
507.1234181268958
 20
150.7880743698371
 30
0.0
 10
507.1337680631844
 20
150.8125080343334
 30
0.0
 10
507.1542442065651
 20
150.8605077041307
 30
0.0
 10
507.1613555234898
 20
150.8771096007925
 30
0.0
 10
507.3828524787285
 20
151.3887464346197
 30
0.0
 10
507.6007370584326
 20
151.8506546193127
 30
0.0
 10
508.0723626030693
 20
152.768328424412
 30
0.0
 10
508.3234303810748
 20
153.2190943313779
 30
0.0
 10
508.7229145566137
 20
153.8831366984512
 30
0.0
 10
508.8598896998817
 20
154.1024664052464
 30
0.0
 10
509.1414674892613
 20
154.537090321045
 30
0.0
 10
509.2827270961915
 20
154.7475805355135
 30
0.0
 10
510.0415242797654
 20
155.8379828087244
 30
0.0
 10
510.6946989735326
 20
156.6526690531888
 30
0.0
 10
511.7436664345456
 20
157.7882450587291
 30
0.0
 10
512.1048564916103
 20
158.1523615003831
 30
0.0
 10
512.6639429322979
 20
158.6769228225751
 30
0.0
 10
512.8531886383754
 20
158.8481743732575
 30
0.0
 10
513.1413825362644
 20
159.0996483642089
 30
0.0
 10
513.2381680586894
 20
159.182572472014
 30
0.0
 10
513.4331808831306
 20
159.3466195759334
 30
0.0
 10
513.5257747988878
 20
159.4231752931073
 30
0.0
 10
514.4670090015201
 20
160.1862827659924
 30
0.0
 10
515.3319975255341
 20
160.7809528417557
 30
0.0
 10
516.6719841607335
 20
161.5474864385323
 30
0.0
 10
517.1257303473295
 20
161.7820857179798
 30
0.0
 10
517.8169755895182
 20
162.1026167579339
 30
0.0
 10
518.0491616639634
 20
162.204232458049
 30
0.0
 10
518.5170758002855
 20
162.3970078985403
 30
0.0
 10
518.7433789914495
 20
162.48475753806
 30
0.0
 10
519.9779986229768
 20
162.9314668448758
 30
0.0
 10
520.9792375060009
 20
163.191777467353
 30
0.0
 10
522.5014105972408
 20
163.4366581666054
 30
0.0
 10
523.0121874221045
 20
163.4940208606124
 30
0.0
 10
523.7834313510763
 20
163.5436685930069
 30
0.0
 10
524.0413591093461
 20
163.5541517857025
 30
0.0
 10
524.5589075231112
 20
163.5629860682217
 30
0.0
 10
524.8257776453765
 20
163.5611224308995
 30
0.0
 10
526.0918658320644
 20
163.5236212585668
 30
0.0
 10
527.101764400384
 20
163.4029555157946
 30
0.0
 10
528.6121542813178
 20
163.0859596942771
 30
0.0
 10
529.1148745797046
 20
162.9576282192114
 30
0.0
 10
529.8678405343986
 20
162.7311317047732
 30
0.0
 10
530.1186434371488
 20
162.6499663163204
 30
0.0
 10
530.4945691680525
 20
162.5197184081813
 30
0.0
 10
530.6198313078168
 20
162.474885801225
 30
0.0
 10
530.8702627129383
 20
162.382387312159
 30
0.0
 10
531.0023344879528
 20
162.3320137501548
 30
0.0
 10
532.0663173544173
 20
161.9146401920294
 30
0.0
 10
532.9859925177881
 20
161.4725655222291
 30
0.0
 10
534.326374185948
 20
160.7028395903288
 30
0.0
 10
534.7666462291851
 20
160.4284952918287
 30
0.0
 10
535.4172715248169
 20
159.9903253622787
 30
0.0
 10
535.6325161618234
 20
159.8398264721286
 30
0.0
 10
536.059744512762
 20
159.5299441978953
 30
0.0
 10
536.2771647325093
 20
159.3663267980037
 30
0.0
 10
538.1214154517198
 20
157.9300022608274
 30
0.0
 10
539.5723359448224
 20
156.4472878811372
 30
0.0
 10
541.4376763264796
 20
153.9522385929699
 30
0.0
 10
541.9958780594635
 20
153.0917339471642
 30
0.0
 10
542.6230286869784
 20
151.9623932254666
 30
0.0
 10
542.7445861603138
 20
151.7343481492966
 30
0.0
 10
542.921113392066
 20
151.3890151372955
 30
0.0
 10
542.978987639608
 20
151.2733599003375
 30
0.0
 10
543.0643467663585
 20
151.099060695464
 30
0.0
 10
543.0948026615288
 20
151.0361546312063
 30
0.0
 10
543.1427907679724
 20
150.9359499068001
 30
0.0
 10
543.1669753203879
 20
150.8848106808311
 30
0.0
 10
543.38635078487
 20
150.4152258732168
 30
0.0
 10
543.5935431461373
 20
149.9314578743205
 30
0.0
 10
543.8129274557987
 20
149.3813305944071
 30
0.0
  0
LINE
  5
A5
330
1F
100
AcDbEntity
  8
0
  6
Continuous
 62
     7
370
    15
100
AcDbLine
 10
483.6461401041
 20
196.2662350218
 30
0.0
 11
479.3991068477
 21
201.830649503
 31
0.0
  0
LINE
  5
A6
330
1F
100
AcDbEntity
  8
0
  6
Continuous
 62
     7
370
    15
100
AcDbLine
 10
479.3991068477
 20
201.830649503
 30
0.0
 11
473.8346923665
 21
197.5836162466
 31
0.0
  0
LINE
  5
A7
330
1F
100
AcDbEntity
  8
0
  6
Continuous
 62
     7
370
    15
100
AcDbLine
 10
473.8346923665
 20
197.5836162466
 30
0.0
 11
478.0817256229
 21
192.0192017654
 31
0.0
  0
LINE
  5
A8
330
1F
100
AcDbEntity
  8
0
  6
Continuous
 62
     7
370
    15
100
AcDbLine
 10
478.0817256229
 20
192.0192017654
 30
0.0
 11
483.6461401041
 21
196.2662350218
 31
0.0
  0
LINE
  5
A9
330
1F
100
AcDbEntity
  8
0
  6
Continuous
 62
     7
370
    15
100
AcDbLine
 10
558.1951901505
 20
202.3564229948
 30
0.0
 11
560.8905978202
 21
208.8166689261
 31
0.0
  0
LINE
  5
AA
330
1F
100
AcDbEntity
  8
0
  6
Continuous
 62
     7
370
    15
100
AcDbLine
 10
560.8905978202
 20
208.8166689261
 30
0.0
 11
554.4303518888
 21
211.5120765959
 31
0.0
  0
LINE
  5
AB
330
1F
100
AcDbEntity
  8
0
  6
Continuous
 62
     7
370
    15
100
AcDbLine
 10
554.4303518888
 20
211.5120765959
 30
0.0
 11
551.7349442191
 21
205.0518306645
 31
0.0
  0
LINE
  5
AC
330
1F
100
AcDbEntity
  8
0
  6
Continuous
 62
     7
370
    15
100
AcDbLine
 10
551.7349442191
 20
205.0518306645
 30
0.0
 11
558.1951901505
 21
202.3564229948
 31
0.0
  0
ARC
  5
AD
330
1F
100
AcDbEntity
  8
0
  6
Continuous
 62
     7
370
    15
100
AcDbCircle
 10
525.2765580516
 20
141.8666813348
 30
0.0
 40
90.00000000000001
100
AcDbArc
 50
3.4272313146
 51
8.6771368685
  0
ARC
  5
AE
330
1F
100
AcDbEntity
  8
0
  6
Continuous
 62
     7
370
    15
100
AcDbCircle
 10
621.1048647662
 20
147.6056387484
 30
0.0
 40
6.000000000000035
100
AcDbArc
 50
183.4272313146
 51
260.6676060169
  0
ARC
  5
AF
330
1F
100
AcDbEntity
  8
0
  6
Continuous
 62
     7
370
    15
100
AcDbCircle
 10
618.8346003311
 20
133.7909400765
 30
0.0
 40
8.000000000000021
100
AcDbArc
 50
269.4655388397
 51
80.6676060169
  0
ARC
  5
B0
330
1F
100
AcDbEntity
  8
0
  6
Continuous
 62
     7
370
    15
100
AcDbCircle
 10
618.7040087274
 20
119.7915491672
 30
0.0
 40
6.00000000000001
100
AcDbArc
 50
89.4655388397
 51
166.7059135421
  0
ARC
  5
B1
330
1F
100
AcDbEntity
  8
0
  6
Continuous
 62
     7
370
    15
100
AcDbCircle
 10
525.2765580516
 20
141.8666813348
 30
0.0
 40
90.00000000000001
100
AcDbArc
 50
335.4047742694
 51
346.7059135421
  0
ARC
  5
B2
330
1F
100
AcDbEntity
  8
0
  6
Continuous
 62
     7
370
    15
100
AcDbCircle
 10
607.8337984483
 20
79.168578331
 30
0.0
 40
25.25000000000001
100
AcDbArc
 50
91.6405149682
 51
193.9297718331
  0
ARC
  5
B3
330
1F
100
AcDbEntity
  8
0
  6
Continuous
 62
     7
370
    15
100
AcDbCircle
 10
525.2765580516
 20
141.8666813348
 30
0.0
 40
90.00000000000001
100
AcDbArc
 50
271.5259031506
 51
310.1655125319
  0
LINE
  5
B4
330
1F
100
AcDbEntity
  8
0
  6
Continuous
 62
     7
370
    15
100
AcDbLine
 10
527.673157788
 20
51.8985963841
 30
0.0
 11
527.8138219419
 21
46.6180798425
 31
0.0
  0
ARC
  5
B5
330
1F
100
AcDbEntity
  8
0
  6
Continuous
 62
     7
370
    15
100
AcDbCircle
 10
519.8166588352
 20
46.4050487548
 30
0.0
 40
8.000000000000021
100
AcDbArc
 50
271.5259031506
 51
1.5259031506
  0
LINE
  5
B6
330
1F
100
AcDbEntity
  8
0
  6
Continuous
 62
     7
370
    15
100
AcDbLine
 10
520.0296899229
 20
38.4078856481
 30
0.0
 11
455.4161338316
 21
36.6866882748
 31
0.0
  0
LINE
  5
B7
330
1F
100
AcDbEntity
  8
0
  6
Continuous
 62
     7
370
    15
100
AcDbLine
 10
95.1936623193
 20
36.6866882748
 30
0.0
 11
455.4161338316
 21
36.6866882748
 31
0.0
  0
ARC
  5
B8
330
1F
100
AcDbEntity
  8
0
  6
Continuous
 62
     7
370
    15
100
AcDbCircle
 10
94.4615760582
 20
44.8692143948
 30
0.0
 40
8.215210526713784
100
AcDbArc
 50
184.8873898569
 51
275.1126101431
  0
LINE
  5
B9
330
1F
100
AcDbEntity
  8
0
  6
Continuous
 62
     7
370
    15
100
AcDbLine
 10
80.5157942211
 20
49.0028819825
 30
0.0
 11
86.2762354508
 21
44.1692978712
 31
0.0
  0
ARC
  5
BA
330
1F
100
AcDbEntity
  8
0
  6
Continuous
 62
     7
370
    15
100
AcDbCircle
 10
66.8393851116
 20
66.8692143948
 30
0.0
 40
22.50000000000003
100
AcDbArc
 50
307.4335134527
 51
69.8437548963
  0
LINE
  5
BB
330
1F
100
AcDbEntity
  8
0
  6
Continuous
 62
     7
370
    15
100
AcDbLine
 10
74.5903020782
 20
88.0080098596
 30
0.0
 11
74.5924666617
 21
87.9912343379
 31
0.0
  0
LINE
  5
BC
330
1F
100
AcDbEntity
  8
0
  6
Continuous
 62
     7
370
    15
100
AcDbLine
 10
72.4685847644
 20
88.562705731
 30
0.0
 11
74.5903020782
 21
88.0080098596
 31
0.0
  0
LINE
  5
BD
330
1F
100
AcDbEntity
  8
0
  6
Continuous
 62
     7
370
    15
100
AcDbLine
 10
72.4685847644
 20
88.562705731
 30
0.0
 11
72.5632555485
 21
88.574921316
 31
0.0
  0
LINE
  5
BE
330
1F
100
AcDbEntity
  8
0
  6
Continuous
 62
     7
370
    15
100
AcDbLine
 10
70.96955144
 20
88.9915015631
 30
0.0
 11
72.5632555485
 21
88.574921316
 31
0.0
  0
LINE
  5
BF
330
1F
100
AcDbEntity
  8
0
  6
Continuous
 62
     7
370
    15
100
AcDbLine
 10
70.835782023
 20
88.9742409932
 30
0.0
 11
70.96955144
 21
88.9915015631
 31
0.0
  0
SPLINE
  5
C0
330
1F
100
AcDbEntity
  8
0
  6
Continuous
 62
     7
370
    15
100
AcDbSpline
210
0.0
220
0.0
230
1.0
 70
     8
 71
     3
 72
    31
 73
    27
 74
     0
 42
0.000000001
 43
0.00000001
 40
0.0
 40
0.0
 40
0.0
 40
0.0
 40
0.0421858739987961
 40
0.0841941747751555
 40
0.1260423676278883
 40
0.167748119003565
 40
0.2093292769050372
 40
0.2508038501866531
 40
0.2921899868413902
 40
0.3335059513994704
 40
0.3747701015709159
 40
0.4160008642758018
 40
0.4572167112151619
 40
0.4984361341426892
 40
0.5396776200019018
 40
0.5809596260956048
 40
0.6223005554539579
 40
0.6637187325644005
 40
0.7052323796209904
 40
0.7468595934428846
 40
0.7886183232015295
 40
0.8305263490842274
 40
0.8726012620082257
 40
0.9148604444847728
 40
0.9573210527170881
 40
1.0
 40
1.0
 40
1.0
 40
1.0
 10
58.99516031798646
 20
87.8891536144677
 30
0.0
 10
59.15470015251473
 20
87.94485552417059
 30
0.0
 10
59.47310826970237
 20
88.05602487723341
 30
0.0
 10
59.95393089726547
 20
88.21016125850856
 30
0.0
 10
60.43573415618786
 20
88.35455783754949
 30
0.0
 10
60.91882600112669
 20
88.48834822479981
 30
0.0
 10
61.40312410687471
 20
88.61176304375367
 30
0.0
 10
61.88865013749384
 20
88.72474057666894
 30
0.0
 10
62.37539800502634
 20
88.82729708757262
 30
0.0
 10
62.86336900813211
 20
88.91942805666478
 30
0.0
 10
63.35256245694166
 20
89.00113454069982
 30
0.0
 10
63.8429781794978
 20
89.07241613519365
 30
0.0
 10
64.3346158550478
 20
89.13327285668844
 30
0.0
 10
64.82747519544047
 20
89.18370463980702
 30
0.0
 10
65.32155590030591
 20
89.22371147488931
 30
0.0
 10
65.8168576710077
 20
89.25329336219887
 30
0.0
 10
66.31338021564336
 20
89.27245035807177
 30
0.0
 10
66.81112323093357
 20
89.28118243424608
 30
0.0
 10
67.31008648537035
 20
89.27948999228813
 30
0.0
 10
67.81026951848574
 20
89.26737193459773
 30
0.0
 10
68.31167277898648
 20
89.24483288763325
 30
0.0
 10
68.81429336612437
 20
89.21185610543642
 30
0.0
 10
69.31814101957812
 20
89.16850514511191
 30
0.0
 10
69.82317808614258
 20
89.11454207410543
 30
0.0
 10
70.32954507944605
 20
89.05086190909675
 30
0.0
 10
70.66674812449497
 20
88.99982492632478
 30
0.0
 10
70.8357820229713
 20
88.9742409931691
 30
0.0
  0
SPLINE
  5
C1
330
1F
100
AcDbEntity
  8
0
  6
Continuous
 62
     7
370
    15
100
AcDbSpline
210
0.0
220
0.0
230
1.0
 70
     8
 71
     3
 72
    80
 73
    76
 74
     0
 42
0.000000001
 43
0.00000001
 40
0.0
 40
0.0
 40
0.0
 40
0.0
 40
0.1249999990043266
 40
0.1249999990043266
 40
0.132812498942097
 40
0.132812498942097
 40
0.1406249988798675
 40
0.1406249988798675
 40
0.1562499987554083
 40
0.1562499987554083
 40
0.1874999985064899
 40
0.1874999985064899
 40
0.2499999980086532
 40
0.2499999980086532
 40
0.2519531229930959
 40
0.2519531229930959
 40
0.2539062479775385
 40
0.2539062479775385
 40
0.2578124979464237
 40
0.2578124979464237
 40
0.2656249978841941
 40
0.2656249978841941
 40
0.2812499977597349
 40
0.2812499977597349
 40
0.3124999975108166
 40
0.3124999975108166
 40
0.3749999970129799
 40
0.3749999970129799
 40
0.4999999960173065
 40
0.4999999960173065
 40
0.5019531210017492
 40
0.5019531210017492
 40
0.5039062459861917
 40
0.5039062459861917
 40
0.5078124959550769
 40
0.5078124959550769
 40
0.5156249958928474
 40
0.5156249958928474
 40
0.5312499957683882
 40
0.5312499957683882
 40
0.5624999955194698
 40
0.5624999955194698
 40
0.6249999950216332
 40
0.6249999950216332
 40
0.7499999940259597
 40
0.7499999940259597
 40
0.7519531190104023
 40
0.7519531190104023
 40
0.753906243994845
 40
0.753906243994845
 40
0.7578124939637301
 40
0.7578124939637301
 40
0.7656249939015005
 40
0.7656249939015005
 40
0.7812499937770414
 40
0.7812499937770414
 40
0.812499993528123
 40
0.812499993528123
 40
0.8749999930302863
 40
0.8749999930302863
 40
0.8759765555225076
 40
0.8759765555225076
 40
0.876953118014729
 40
0.876953118014729
 40
0.8789062429991715
 40
0.8789062429991715
 40
0.8828124929680568
 40
0.8828124929680568
 40
0.8906249929058272
 40
0.8906249929058272
 40
0.906249992781368
 40
0.906249992781368
 40
0.9374999925324496
 40
0.9374999925324496
 40
0.999999992034613
 40
0.999999992034613
 40
0.999999992034613
 40
0.999999992034613
 10
22.66344059427799
 20
132.8184337662362
 30
0.0
 10
22.98599363911075
 20
130.3716297951518
 30
0.0
 10
23.57074922618974
 20
127.9787119116257
 30
0.0
 10
24.47064223859779
 20
125.4934906284101
 30
0.0
 10
24.51957816913081
 20
125.3610352469116
 30
0.0
 10
24.62436300517418
 20
125.0824135371223
 30
0.0
 10
24.67772676432173
 20
124.9431104010054
 30
0.0
 10
24.84073206514237
 20
124.5252241489881
 30
0.0
 10
24.95328763019317
 20
124.2466641894208
 30
0.0
 10
25.30261041885651
 20
123.4110769360521
 30
0.0
 10
25.55103373598006
 20
122.8541422675835
 30
0.0
 10
26.34292806139504
 20
121.1837087635098
 30
0.0
 10
26.93302344373061
 20
120.0705804292366
 30
0.0
 10
27.60566782107487
 20
118.9231762738487
 30
0.0
 10
27.61997022871288
 20
118.8988555238497
 30
0.0
 10
27.65480229911166
 20
118.8397444112189
 30
0.0
 10
27.67226717070614
 20
118.8101820029929
 30
0.0
 10
27.72480829467489
 20
118.7214742225827
 30
0.0
 10
27.76003105623448
 20
118.6623082946666
 30
0.0
 10
27.8662853776544
 20
118.4847282879902
 30
0.0
 10
27.93790297425597
 20
118.3662319863018
 30
0.0
 10
28.15509991102538
 20
118.0104141895246
 30
0.0
 10
28.30302339815799
 20
117.7727638027234
 30
0.0
 10
28.75617044741496
 20
117.0584970754709
 30
0.0
 10
29.07077059739838
 20
116.5805651681706
 30
0.0
 10
30.05207739878496
 20
115.1415071788741
 30
0.0
 10
30.75629040162442
 20
114.1751188294821
 30
0.0
 10
33.01895481588802
 20
111.2549047117228
 30
0.0
 10
34.72743163305736
 20
109.2800298737724
 30
0.0
 10
36.66576280410833
 20
107.2457936680853
 30
0.0
 10
36.68172997367958
 20
107.229063143902
 30
0.0
 10
36.7276435472057
 20
107.1809845370595
 30
0.0
 10
36.75064232293618
 20
107.1569278384256
 30
0.0
 10
36.81976461702974
 20
107.084705556886
 30
0.0
 10
36.86601410229501
 20
107.0364877883423
 30
0.0
 10
37.00526642569935
 20
106.8916257401595
 30
0.0
 10
37.098773131447
 20
106.7947727179686
 30
0.0
 10
37.38130871912443
 20
106.5033786811889
 30
0.0
 10
37.57235307148859
 20
106.3080026963931
 30
0.0
 10
38.15354801031862
 20
105.7185348611772
 30
0.0
 10
38.55176047852216
 20
105.3211031299289
 30
0.0
 10
39.77864541008286
 20
104.1154484128711
 30
0.0
 10
40.63956540039049
 20
103.2938659037485
 30
0.0
 10
43.35131547911458
 20
100.7756802831288
 30
0.0
 10
45.33113567533231
 20
99.02563907837956
 30
0.0
 10
47.51656466643028
 20
97.1758893951939
 30
0.0
 10
47.53552934992006
 20
97.15984841033057
 30
0.0
 10
47.5882803678645
 20
97.11524286891982
 30
0.0
 10
47.61471068266232
 20
97.09290445613236
 30
0.0
 10
47.69416604453242
 20
97.02578229152392
 30
0.0
 10
47.74735550908138
 20
96.98089161345672
 30
0.0
 10
47.90758157263508
 20
96.84579187427047
 30
0.0
 10
48.01527584154647
 20
96.75515510816679
 30
0.0
 10
48.34098932790787
 20
96.48153398991698
 30
0.0
 10
48.56163922498485
 20
96.29683881783221
 30
0.0
 10
49.23411163472352
 20
95.7359100218233
 30
0.0
 10
49.6964568658933
 20
95.35283311814449
 30
0.0
 10
51.12558343343449
 20
94.17622928808952
 30
0.0
 10
52.13445564383778
 20
93.35532924269475
 30
0.0
 10
53.21608954111351
 20
92.48453486875299
 30
0.0
 10
53.22196950733083
 20
92.4798022296258
 30
0.0
 10
53.24458006330279
 20
92.46160373324294
 30
0.0
 10
53.2559154025482
 20
92.45248144713968
 30
0.0
 10
53.29001160406227
 20
92.42504547509434
 30
0.0
 10
53.3128626501091
 20
92.40666267541675
 30
0.0
 10
53.38177652336184
 20
92.35123782144191
 30
0.0
 10
53.42820008568011
 20
92.31391931220259
 30
0.0
 10
53.56891371308398
 20
92.20085796471633
 30
0.0
 10
53.66464671861876
 20
92.12400930670108
 30
0.0
 10
53.95761749701977
 20
91.88904005358212
 30
0.0
 10
54.16062703168262
 20
91.72649617940517
 30
0.0
 10
54.79274268285788
 20
91.22117144058144
 30
0.0
 10
55.24493584655693
 20
90.86069745964177
 30
0.0
 10
56.69386352640032
 20
89.70850305165118
 30
0.0
 10
57.78294623129104
 20
88.84601015942869
 30
0.0
 10
58.99515985451048
 20
87.88915398031075
 30
0.0
  0
LINE
  5
C2
330
1F
100
AcDbEntity
  8
0
  6
Continuous
 62
     7
370
    15
100
AcDbLine
 10
22.5921525015
 20
133.3709164853
 30
0.0
 11
22.6634405943
 21
132.8184337662
 31
0.0
  0
LINE
  5
C3
330
1F
100
AcDbEntity
  8
0
  6
Continuous
 62
     7
370
    15
100
AcDbLine
 10
34.365896405
 20
170.4911093038
 30
0.0
 11
22.5921525015
 21
133.3709164853
 31
0.0
  0
LINE
  5
C4
330
1F
100
AcDbEntity
  8
0
  6
Continuous
 62
     7
370
    15
100
AcDbLine
 10
34.365896405
 20
170.4911093038
 30
0.0
 11
45.3507661151
 21
189.4106546648
 31
0.0
  0
ARC
  5
C5
330
1F
100
AcDbEntity
  8
0
  6
Continuous
 62
     7
370
    15
100
AcDbCircle
 10
36.6840629893
 20
194.3994678433
 30
0.0
 40
10.00000000000006
100
AcDbArc
 50
330.0739838582
 51
349.4276606896
  0
LINE
  5
C6
330
1F
100
AcDbEntity
  8
0
  6
Continuous
 62
     7
370
    15
100
AcDbLine
 10
55.0453241499
 20
238.2718334773
 30
0.0
 11
46.5143033975
 21
192.5646998694
 31
0.0
  0
ARC
  5
C7
330
1F
100
AcDbEntity
  8
0
  6
Continuous
 62
     7
370
    15
100
AcDbCircle
 10
64.8769765946
 20
236.4446470592
 30
0.0
 40
10.00000000000001
100
AcDbArc
 50
149.860138141
 51
169.471846784
  0
LINE
  5
C8
330
1F
100
AcDbEntity
  8
0
  6
Continuous
 62
     7
370
    15
100
AcDbLine
 10
56.2289535963
 20
241.465772254
 30
0.0
 11
64.9456252403
 21
256.4787372611
 31
0.0
  0
LINE
  5
C9
330
1F
100
AcDbEntity
  8
0
  6
Continuous
 62
     7
370
    15
100
AcDbLine
 10
64.9456252403
 20
256.4787372611
 30
0.0
 11
427.033134521
 21
373.6271014854
 31
0.0
  0
ARC
  5
CA
330
1F
100
AcDbEntity
  8
0
  6
Continuous
 62
     7
370
    15
100
AcDbCircle
 10
430.1113945904
 20
364.1126748109
 30
0.0
 40
10.00000000000001
100
AcDbArc
 50
63.1925027602
 51
107.9282643114
  0
LINE
  5
CB
330
1F
100
AcDbEntity
  8
0
  6
Continuous
 62
     7
370
    15
100
AcDbLine
 10
470.1151952199
 20
355.1028755885
 30
0.0
 11
434.6213379208
 21
373.0379429389
 31
0.0
  0
ARC
  5
CC
330
1F
100
AcDbEntity
  8
0
  6
Continuous
 62
     7
370
    15
100
AcDbCircle
 10
464.7032632234
 20
344.3925538349
 30
0.0
 40
11.99999999999998
100
AcDbArc
 50
2.3326652168
 51
63.1925027602
  0
ARC
  5
CD
330
1F
100
AcDbEntity
  8
0
  6
Continuous
 62
     7
370
    15
100
AcDbCircle
 10
486.6850329888
 20
345.287985565
 30
0.0
 40
10.00000000000002
100
AcDbArc
 50
182.3326652168
 51
245.2969734274
  0
LINE
  5
CE
330
1F
100
AcDbEntity
  8
0
  6
Continuous
 62
     7
370
    15
100
AcDbLine
 10
482.5058823493
 20
336.203124535
 30
0.0
 11
567.0729956364
 21
297.3011859799
 31
0.0
  0
ARC
  5
CF
330
1F
100
AcDbEntity
  8
0
  6
Continuous
 62
     7
370
    15
100
AcDbCircle
 10
571.2521462759
 20
306.3860470099
 30
0.0
 40
10.0000000000001
100
AcDbArc
 50
245.2969734274
 51
305.2969734274
  0
ARC
  5
D0
330
1F
100
AcDbEntity
  8
0
  6
Continuous
 62
     7
370
    15
100
AcDbCircle
 10
582.80843652
 20
290.06268474
 30
0.0
 40
10.00000000000027
100
AcDbArc
 50
0.1308833569
 51
125.2969734274
  0
LINE
  5
D1
330
1F
100
AcDbEntity
  8
0
  6
Continuous
 62
     7
370
    15
100
AcDbLine
 10
592.8084104288
 20
290.0855281753
 30
0.0
 11
592.838729428
 21
276.8130410527
 31
0.0
  0
ARC
  5
D2
330
1F
100
AcDbEntity
  8
0
  6
Continuous
 62
     7
370
    15
100
AcDbCircle
 10
595.8387216006
 20
276.8198940833
 30
0.0
 40
3.000000000000146
100
AcDbArc
 50
180.1308833569
 51
247.8262401259
  0
LINE
  5
D3
330
1F
100
AcDbEntity
  8
0
  6
Continuous
 62
     7
370
    15
100
AcDbLine
 10
594.7064714402
 20
274.0417634935
 30
0.0
 11
599.8817186544
 21
271.9325485739
 31
0.0
  0
ARC
  5
D4
330
1F
100
AcDbEntity
  8
0
  6
Continuous
 62
     7
370
    15
100
AcDbCircle
 10
597.2398016133
 20
265.4502438643
 30
0.0
 40
7.000000000000073
100
AcDbArc
 50
41.2014989179
 51
67.8262401259
  0
SPLINE
  5
D5
330
1F
100
AcDbEntity
  8
0
  6
Continuous
 62
     7
370
    15
100
AcDbSpline
210
0.0
220
0.0
230
1.0
 70
     8
 71
     3
 72
    29
 73
    25
 74
     0
 42
0.000000001
 43
0.00000001
 40
0.0
 40
0.0
 40
0.0
 40
0.0
 40
0.125
 40
0.125
 40
0.1875
 40
0.1875
 40
0.21875
 40
0.21875
 40
0.25
 40
0.25
 40
0.5
 40
0.5
 40
0.625
 40
0.625
 40
0.6875
 40
0.6875
 40
0.71875
 40
0.71875
 40
0.75
 40
0.75
 40
1.0
 40
1.0
 40
1.0
 40
1.001143165569879
 40
1.001143165569879
 40
1.001143165569879
 40
1.001143165569879
 10
607.0085528314346
 20
262.3457752356462
 30
0.0
 10
606.9676267215787
 20
262.6047256779318
 30
0.0
 10
606.9242714587748
 20
262.8470257042791
 30
0.0
 10
606.8555948351468
 20
263.1855001198929
 30
0.0
 10
606.8320953390338
 20
263.294162321113
 30
0.0
 10
606.7959351625088
 20
263.4509117169663
 30
0.0
 10
606.7837299482745
 20
263.5021208645879
 30
0.0
 10
606.7590158756876
 20
263.6024578578389
 30
0.0
 10
606.748594491849
 20
263.6436571569773
 30
0.0
 10
606.6158610975134
 20
264.147798827095
 30
0.0
 10
606.4729766942638
 20
264.5842593317608
 30
0.0
 10
606.2192881701891
 20
265.2265489125237
 30
0.0
 10
606.1284191103332
 20
265.4379580225642
 30
0.0
 10
605.982656192803
 20
265.7510405623045
 30
0.0
 10
605.9324919990019
 20
265.8547295546645
 30
0.0
 10
605.8548808763635
 20
266.0092552618743
 30
0.0
 10
605.8286163634947
 20
266.0605958673892
 30
0.0
 10
605.7752990604448
 20
266.162941151309
 30
0.0
 10
605.7444672818573
 20
266.220945205024
 30
0.0
 10
605.5314558179808
 20
266.6154812608822
 30
0.0
 10
605.2898194061439
 20
267.0074838242508
 30
0.0
 10
604.9958901059158
 20
267.4407902346694
 30
0.0
 10
604.9945460664918
 20
267.4427715985478
 30
0.0
 10
604.9932020270677
 20
267.4447529624262
 30
0.0
 10
604.9918579876437
 20
267.4467343263046
 30
0.0
  0
SPLINE
  5
D6
330
1F
100
AcDbEntity
  8
0
  6
Continuous
 62
     7
370
    15
100
AcDbSpline
210
0.0
220
0.0
230
1.0
 70
     8
 71
     3
 72
    12
 73
     8
 74
     0
 42
0.000000001
 43
0.00000001
 40
0.0
 40
0.0
 40
0.0
 40
0.0
 40
0.2910991255270968
 40
0.5000001575642818
 40
0.6741567276505334
 40
0.8408225801654673
 40
1.0
 40
1.0
 40
1.0
 40
1.0
 10
610.9106037138215
 20
233.3262260413872
 30
0.0
 10
610.5463259150749
 20
236.1440029011435
 30
0.0
 10
609.9206319819839
 20
240.9838967734047
 30
0.0
 10
609.065267661286
 20
247.5080729647578
 30
0.0
 10
608.347852311027
 20
252.8253897691018
 30
0.0
 10
607.6799975200777
 20
257.6596616210566
 30
0.0
 10
607.228912158
 20
260.8078543051741
 30
0.0
 10
607.0085528314349
 20
262.3457752356462
 30
0.0
  0
LINE
  5
D7
330
1F
100
AcDbEntity
  8
0
  6
Continuous
 62
     7
370
    15
100
AcDbLine
 10
614.0334405943
 20
209.1242402178
 30
0.0
 11
610.9106037138
 21
233.3262260414
 31
0.0
  0
SPLINE
  5
D8
330
1F
100
AcDbEntity
  8
0
  6
Continuous
 62
     7
370
    15
100
AcDbSpline
210
0.0
220
0.0
230
1.0
 70
     8
 71
     3
 72
    19
 73
    15
 74
     0
 42
0.000000001
 43
0.00000001
 40
0.0
 40
0.0
 40
0.0
 40
0.0
 40
0.0674066878138472
 40
0.131541589440744
 40
0.1924061209487224
 40
0.250001939625215
 40
0.377832233587979
 40
0.5000021319522248
 40
0.5843439751050724
 40
0.6682653825736646
 40
0.7517788839276645
 40
0.8348971932048956
 40
0.9176332066308021
 40
1.0
 40
1.0
 40
1.0
 40
1.0
 10
616.1711697367565
 20
171.6685255880497
 30
0.0
 10
616.1674934708305
 20
172.5120534519802
 30
0.0
 10
616.1603193775945
 20
174.1581660197033
 30
0.0
 10
616.1365598983132
 20
176.5658516337448
 30
0.0
 10
616.1034325829957
 20
178.8506379807385
 30
0.0
 10
616.041426814861
 20
181.9321352674837
 30
0.0
 10
615.9265424468751
 20
185.7798424786256
 30
0.0
 10
615.7411080004138
 20
189.9598981229532
 30
0.0
 10
615.5283308591431
 20
193.5882628884465
 30
0.0
 10
615.3052792246514
 20
196.7311967182988
 30
0.0
 10
615.045211433217
 20
199.8559289184564
 30
0.0
 10
614.7470517977723
 20
202.9623303721665
 30
0.0
 10
614.4144262068852
 20
206.0508616187508
 30
0.0
 10
614.1602463239897
 20
208.1013091594517
 30
0.0
 10
614.0334405942782
 20
209.1242402178492
 30
0.0
  0
SPLINE
  5
D9
330
1F
100
AcDbEntity
  8
0
  6
Continuous
 62
     7
370
    15
100
AcDbSpline
210
0.0
220
0.0
230
1.0
 70
     8
 71
     3
 72
    26
 73
    22
 74
     0
 42
0.000000001
 43
0.00000001
 40
0.0
 40
0.0
 40
0.0
 40
0.0
 40
0.125
 40
0.125
 40
0.1875
 40
0.1875
 40
0.21875
 40
0.21875
 40
0.25
 40
0.25
 40
0.5
 40
0.5
 40
0.625
 40
0.625
 40
0.6875
 40
0.6875
 40
0.71875
 40
0.71875
 40
0.75
 40
0.75
 40
1.0
 40
1.0
 40
1.0
 40
1.0
 10
614.7102100065396
 20
165.2997885800804
 30
0.0
 10
614.8452113501843
 20
165.5820290871631
 30
0.0
 10
614.9663534018612
 20
165.8495255215786
 30
0.0
 10
615.1272775414243
 20
166.2286540642013
 30
0.0
 10
615.1774540982866
 20
166.3513442269087
 30
0.0
 10
615.2475216990921
 20
166.5298504437197
 30
0.0
 10
615.2700113602793
 20
166.5884310114483
 30
0.0
 10
615.3132582711576
 20
166.7037491378221
 30
0.0
 10
615.3309152031889
 20
166.7517869269259
 30
0.0
 10
615.5378374576168
 20
167.3324293397314
 30
0.0
 10
615.6918719199186
 20
167.8633211102471
 30
0.0
 10
615.8744360120752
 20
168.6657936854913
 30
0.0
 10
615.9275029677818
 20
168.9349483656939
 30
0.0
 10
615.9954217888236
 20
169.3411761186797
 30
0.0
 10
616.0161144604178
 20
169.4770013251219
 30
0.0
 10
616.0442330646796
 20
169.6813630679558
 30
0.0
 10
616.0531191989119
 20
169.7495876377621
 30
0.0
 10
616.0699179996667
 20
169.8862447550983
 30
0.0
 10
616.0788599629739
 20
169.9641770435637
 30
0.0
 10
616.1364296859189
 20
170.4955082026684
 30
0.0
 10
616.1650673985522
 20
171.0439454523452
 30
0.0
 10
616.1711697367563
 20
171.6685255880497
 30
0.0
  0
LINE
  5
DA
330
1F
100
AcDbEntity
  8
0
  6
Continuous
 62
     7
370
    15
100
AcDbLine
 10
614.6777703574
 20
165.2338774938
 30
0.0
 11
614.7102100065
 21
165.2997885801
 31
0.0
  0
SPLINE
  5
DB
330
1F
100
AcDbEntity
  8
0
  6
Continuous
 62
     7
370
    15
100
AcDbSpline
210
0.0
220
0.0
230
1.0
 70
     8
 71
     3
 72
    34
 73
    30
 74
     0
 42
0.000000001
 43
0.00000001
 40
0.0
 40
0.0
 40
0.0
 40
0.0
 40
0.0625
 40
0.0625
 40
0.09375
 40
0.09375
 40
0.109375
 40
0.109375
 40
0.125
 40
0.125
 40
0.25
 40
0.25
 40
0.5
 40
0.5
 40
0.625
 40
0.625
 40
0.6875
 40
0.6875
 40
0.75
 40
0.75
 40
0.8125
 40
0.8125
 40
0.84375
 40
0.84375
 40
0.859375
 40
0.859375
 40
0.875
 40
0.875
 40
1.0
 40
1.0
 40
1.0
 40
1.0
 10
613.6917486480967
 20
159.0969805027502
 30
0.0
 10
613.6719066009922
 20
159.2673813620823
 30
0.0
 10
613.6556390940835
 20
159.4179321024448
 30
0.0
 10
613.6365996440142
 20
159.613983034534
 30
0.0
 10
613.6311467957067
 20
159.6743708154881
 30
0.0
 10
613.6243079758187
 20
159.7575086923055
 30
0.0
 10
613.622251777952
 20
159.7839806854757
 30
0.0
 10
613.6185861997423
 20
159.834443406945
 30
0.0
 10
613.6175194200426
 20
159.8495275914029
 30
0.0
 10
613.600162270033
 20
160.1344373487432
 30
0.0
 10
613.5944596162764
 20
160.4074496046475
 30
0.0
 10
613.6052404701003
 20
161.1919670221642
 30
0.0
 10
613.6506340458357
 20
161.7138595507508
 30
0.0
 10
613.7767880577225
 20
162.4997175144945
 30
0.0
 10
613.8279232966933
 20
162.7584217060397
 30
0.0
 10
613.9182520076619
 20
163.1416052988033
 30
0.0
 10
613.9506325534035
 20
163.2685210472988
 30
0.0
 10
614.0199355957241
 20
163.5207283127718
 30
0.0
 10
614.055038104753
 20
163.6402395059116
 30
0.0
 10
614.1370650238491
 20
163.9007589560241
 30
0.0
 10
614.1795320489341
 20
164.0277717522462
 30
0.0
 10
614.245412934867
 20
164.2134205533283
 30
0.0
 10
614.2677366215622
 20
164.2744917548138
 30
0.0
 10
614.3017672386812
 20
164.3648809587292
 30
0.0
 10
614.313201625567
 20
164.3948077603156
 30
0.0
 10
614.3362520950307
 20
164.454255497384
 30
0.0
 10
614.3511075559499
 20
164.4918889011769
 30
0.0
 10
614.4273155246935
 20
164.6827387082488
 30
0.0
 10
614.5333806078011
 20
164.9229997277605
 30
0.0
 10
614.6777703573546
 20
165.2338774938309
 30
0.0
  0
LINE
  5
DC
330
1F
100
AcDbEntity
  8
0
  6
Continuous
 62
     7
370
    15
100
AcDbLine
 10
613.7263605897
 20
158.8482046296
 30
0.0
 11
613.6917486481
 21
159.0969805028
 31
0.0
  0
LINE
  5
DD
330
1F
100
AcDbEntity
  8
0
  6
Continuous
 62
     7
370
    15
100
AcDbLine
 10
613.7937129657
 20
158.4111093699
 30
0.0
 11
613.7263605897
 21
158.8482046296
 31
0.0
  0
LINE
  5
DE
330
1F
100
AcDbEntity
  8
0
  6
Continuous
 62
     7
370
    15
100
AcDbLine
 10
614.24643306
 20
155.444653974
 30
0.0
 11
613.7937129657
 21
158.4111093699
 31
0.0
  0
LINE
  5
DF
330
1F
100
AcDbEntity
  8
0
  6
Continuous
 62
     7
370
    15
100
AcDbLine
 10
597.9630922795
 20
156.9651548121
 30
0.0
 11
597.9976387754
 21
156.3729062486
 31
0.0
  0
SPLINE
  5
E0
330
1F
100
AcDbEntity
  8
0
  6
Continuous
 62
     7
370
    15
100
AcDbSpline
210
0.0
220
0.0
230
1.0
 70
     8
 71
     3
 72
    42
 73
    38
 74
     0
 42
0.000000001
 43
0.00000001
 40
0.0
 40
0.0
 40
0.0
 40
0.0
 40
0.03125
 40
0.03125
 40
0.046875
 40
0.046875
 40
0.0546875
 40
0.0546875
 40
0.0625
 40
0.0625
 40
0.125
 40
0.125
 40
0.25
 40
0.25
 40
0.375
 40
0.375
 40
0.4375
 40
0.4375
 40
0.5
 40
0.5
 40
0.625
 40
0.625
 40
0.6875
 40
0.6875
 40
0.75
 40
0.75
 40
0.875
 40
0.875
 40
0.90625
 40
0.90625
 40
0.921875
 40
0.921875
 40
0.9296875
 40
0.9296875
 40
0.9375
 40
0.9375
 40
1.0
 40
1.0
 40
1.0
 40
1.0
 10
590.8744917872831
 20
159.8713924619281
 30
0.0
 10
590.9675221925847
 20
159.9562152775959
 30
0.0
 10
591.0521205063541
 20
160.03047658839
 30
0.0
 10
591.1663698397098
 20
160.1260262972709
 30
0.0
 10
591.2023449279454
 20
160.1552358240128
 30
0.0
 10
591.2531455259742
 20
160.195089549798
 30
0.0
 10
591.2695520529298
 20
160.2077140310051
 30
0.0
 10
591.3013110953993
 20
160.2316428053102
 30
0.0
 10
591.3113555959358
 20
160.2391361287528
 30
0.0
 10
591.4925573188727
 20
160.3692326470405
 30
0.0
 10
591.660542407352
 20
160.4724471768441
 30
0.0
 10
592.1969614888926
 20
160.7508903388906
 30
0.0
 10
592.5639904916198
 20
160.8776693483519
 30
0.0
 10
593.3626374397463
 20
161.0217845380834
 30
0.0
 10
593.7566584439437
 20
161.0340882032208
 30
0.0
 10
594.3397362454408
 20
160.9629128063343
 30
0.0
 10
594.5327698951401
 20
160.9242491916067
 30
0.0
 10
594.9161859596055
 20
160.8170449972874
 30
0.0
 10
595.1123417668134
 20
160.745955144712
 30
0.0
 10
595.6621919813878
 20
160.5031657775912
 30
0.0
 10
595.997067463325
 20
160.2974527402862
 30
0.0
 10
596.4518436945623
 20
159.9231029954921
 30
0.0
 10
596.5955129396965
 20
159.7873563824212
 30
0.0
 10
596.8670057660756
 20
159.4939364266673
 30
0.0
 10
596.9991768241265
 20
159.330148491884
 30
0.0
 10
597.3458366416078
 20
158.842582145717
 30
0.0
 10
597.5323994237866
 20
158.4950104982041
 30
0.0
 10
597.7125117831041
 20
158.025640860682
 30
0.0
 10
597.7454851325695
 20
157.9313511628296
 30
0.0
 10
597.7903714731696
 20
157.7892929605292
 30
0.0
 10
597.8045713061033
 20
157.7418362838421
 30
0.0
 10
597.8247276346048
 20
157.6704953549309
 30
0.0
 10
597.8312558406219
 20
157.6466890596471
 30
0.0
 10
597.8439311123566
 20
157.599024497786
 30
0.0
 10
597.8515758152637
 20
157.5691610316791
 30
0.0
 10
597.8917055406636
 20
157.4082495574294
 30
0.0
 10
597.9273914092676
 20
157.2128738351475
 30
0.0
 10
597.9630922794536
 20
156.9651548121387
 30
0.0
  0
SPLINE
  5
E1
330
1F
100
AcDbEntity
  8
0
  6
Continuous
 62
     7
370
    15
100
AcDbSpline
210
0.0
220
0.0
230
1.0
 70
     8
 71
     3
 72
    25
 73
    21
 74
     0
 42
0.000000001
 43
0.00000001
 40
0.0
 40
0.0
 40
0.0
 40
0.0
 40
0.0598648409790389
 40
0.1185021308730276
 40
0.1760281658053638
 40
0.2325660997278484
 40
0.2882456435269004
 40
0.3432025864129254
 40
0.3975781314064541
 40
0.4515180476426756
 40
0.5051716549963453
 40
0.5586906698303971
 40
0.6122279527631153
 40
0.6659362084328659
 40
0.7199666918530335
 40
0.7744679753095084
 40
0.8295848239717719
 40
0.8854572184324223
 40
0.9422195498445375
 40
1.0
 40
1.0
 40
1.0
 40
1.0
 10
589.5328501648163
 20
155.8784329818649
 30
0.0
 10
589.5238835789266
 20
155.9651609846273
 30
0.0
 10
589.506134270364
 20
156.1368385998288
 30
0.0
 10
589.4937524335879
 20
156.3930008858802
 30
0.0
 10
589.4922952885986
 20
156.6445618159163
 30
0.0
 10
589.502706017643
 20
156.8916288145116
 30
0.0
 10
589.5247435745094
 20
157.134170712704
 30
0.0
 10
589.5584752602148
 20
157.372191369276
 30
0.0
 10
589.6038869964137
 20
157.6056844405638
 30
0.0
 10
589.6609850159244
 20
157.8346453753612
 30
0.0
 10
589.7297688879976
 20
158.0590685565676
 30
0.0
 10
589.8102385550303
 20
158.2789483047135
 30
0.0
 10
589.9023920595581
 20
158.4942793626987
 30
0.0
 10
590.0062275624226
 20
158.7050558346371
 30
0.0
 10
590.121737967663
 20
158.9112768202176
 30
0.0
 10
590.2489316245195
 20
159.1129263484816
 30
0.0
 10
590.387755323356
 20
159.310050199392
 30
0.0
 10
590.5383881599233
 20
159.5024645060071
 30
0.0
 10
590.700122677896
 20
159.6908665866896
 30
0.0
 10
590.8160253487604
 20
159.8108616430031
 30
0.0
 10
590.8744917872834
 20
159.8713924619281
 30
0.0
  0
SPLINE
  5
E2
330
1F
100
AcDbEntity
  8
0
  6
Continuous
 62
     7
370
    15
100
AcDbSpline
210
0.0
220
0.0
230
1.0
 70
     8
 71
     3
 72
    10
 73
     6
 74
     0
 42
0.000000001
 43
0.00000001
 40
0.0
 40
0.0
 40
0.0
 40
0.0
 40
0.3224461436931459
 40
0.6555418479061589
 40
1.0
 40
1.0
 40
1.0
 40
1.0
 10
589.649969869173
 20
155.2957876800038
 30
0.0
 10
589.6337928016411
 20
155.3576384775416
 30
0.0
 10
589.600904379959
 20
155.4833828441762
 30
0.0
 10
589.5620855576734
 20
155.677931014059
 30
0.0
 10
589.5427036394492
 20
155.8108559507206
 30
0.0
 10
589.5328501648163
 20
155.8784329818649
 30
0.0
  0
ARC
  5
E3
330
1F
100
AcDbEntity
  8
0
  6
Continuous
 62
     7
370
    15
100
AcDbCircle
 10
593.7479269386
 20
156.4223966883
 30
0.0
 40
4.250000000000023
100
AcDbArc
 50
195.3719722281
 51
359.3327864917
  0
ENDSEC
  0
SECTION
  2
OBJECTS
  0
DICTIONARY
  5
C
330
0
100
AcDbDictionary
281
     1
  3
ACAD_GROUP
350
D
  3
ACAD_LAYOUT
350
1A
  3
ACAD_MLINESTYLE
350
17
  3
ACAD_PLOTSETTINGS
350
19
  3
ACAD_PLOTSTYLENAME
350
E
  3
ACAD_SCALELIST
350
47
  0
DICTIONARY
  5
D
102
{ACAD_REACTORS
330
C
102
}
330
C
100
AcDbDictionary
281
     1
  0
DICTIONARY
  5
1A
102
{ACAD_REACTORS
330
C
102
}
330
C
100
AcDbDictionary
281
     1
  3
Layout1
350
1E
  3
Layout2
350
26
  3
Model
350
22
  0
DICTIONARY
  5
17
102
{ACAD_REACTORS
330
C
102
}
330
C
100
AcDbDictionary
281
     1
  3
Standard
350
18
  0
DICTIONARY
  5
19
102
{ACAD_REACTORS
330
C
102
}
330
C
100
AcDbDictionary
281
     1
  0
ACDBDICTIONARYWDFLT
  5
E
102
{ACAD_REACTORS
330
C
102
}
330
C
100
AcDbDictionary
281
     1
  3
Normal
350
F
100
AcDbDictionaryWithDefault
340
F
  0
DICTIONARY
  5
47
102
{ACAD_REACTORS
330
C
102
}
330
C
100
AcDbDictionary
281
     1
  3
A0
350
48
  3
A1
350
49
  3
A2
350
4A
  3
A3
350
4B
  3
A4
350
4C
  3
A5
350
4D
  3
A6
350
4E
  3
A7
350
4F
  3
A8
350
50
  3
A9
350
51
  3
B0
350
52
  3
B1
350
53
  3
B2
350
54
  3
B3
350
55
  3
B4
350
56
  3
B5
350
57
  3
B6
350
58
  3
B7
350
59
  3
B8
350
5A
  3
B9
350
5B
  3
C0
350
5C
  3
C1
350
5D
  3
C2
350
5E
  3
C3
350
5F
  3
C4
350
60
  3
C5
350
61
  3
C6
350
62
  3
C7
350
63
  3
C8
350
64
  3
C9
350
65
  3
D0
350
66
  3
D1
350
67
  3
D2
350
68
  0
LAYOUT
  5
1E
102
{ACAD_REACTORS
330
1A
102
}
330
1A
100
AcDbPlotSettings
  1

  2
none_device
  4

  6

 40
0.0
 41
0.0
 42
0.0
 43
0.0
 44
0.0
 45
0.0
 46
0.0
 47
0.0
 48
0.0
 49
0.0
140
0.0
141
0.0
142
1.0
143
1.0
 70
   688
 72
     1
 73
     0
 74
     5
  7

 75
    16
147
1.0
148
0.0
149
0.0
100
AcDbLayout
  1
Layout1
 70
     1
 71
     1
 10
0.0
 20
0.0
 11
420.0
 21
297.0
 12
0.0
 22
0.0
 32
0.0
 14
1.0000000000E+20
 24
1.0000000000E+20
 34
1.0000000000E+20
 15
-1.0000000000E+20
 25
-1.0000000000E+20
 35
-1.0000000000E+20
146
0.0
 13
0.0
 23
0.0
 33
0.0
 16
1.0
 26
0.0
 36
0.0
 17
0.0
 27
1.0
 37
0.0
 76
     0
330
1B
  0
LAYOUT
  5
26
102
{ACAD_REACTORS
330
1A
102
}
330
1A
100
AcDbPlotSettings
  1

  2
none_device
  4

  6

 40
0.0
 41
0.0
 42
0.0
 43
0.0
 44
0.0
 45
0.0
 46
0.0
 47
0.0
 48
0.0
 49
0.0
140
0.0
141
0.0
142
1.0
143
1.0
 70
   688
 72
     1
 73
     0
 74
     5
  7

 75
    16
147
1.0
148
0.0
149
0.0
100
AcDbLayout
  1
Layout2
 70
     1
 71
     2
 10
0.0
 20
0.0
 11
0.0
 21
0.0
 12
0.0
 22
0.0
 32
0.0
 14
0.0
 24
0.0
 34
0.0
 15
0.0
 25
0.0
 35
0.0
146
0.0
 13
0.0
 23
0.0
 33
0.0
 16
1.0
 26
0.0
 36
0.0
 17
0.0
 27
1.0
 37
0.0
 76
     0
330
23
  0
LAYOUT
  5
22
102
{ACAD_REACTORS
330
1A
102
}
330
1A
100
AcDbPlotSettings
  1

  2
none_device
  4
Letter_(8.50_x_11.00_Inches)
  6

 40
6.35
 41
6.35
 42
6.35000508
 43
6.35000508
 44
215.9
 45
279.4
 46
0.0
 47
0.0
 48
0.0
 49
0.0
140
0.0
141
0.0
142
1.0
143
1.0
 70
  1712
 72
     1
 73
     0
 74
     0
  7

 75
     0
147
1.0
148
0.0
149
0.0
100
AcDbLayout
  1
Model
 70
     1
 71
     0
 10
0.0
 20
0.0
 11
841.0
 21
594.0
 12
0.0
 22
0.0
 32
0.0
 14
0.0
 24
0.0
 34
0.0
 15
841.0
 25
594.0
 35
0.0
146
0.0
 13
0.0
 23
0.0
 33
0.0
 16
1.0
 26
0.0
 36
0.0
 17
0.0
 27
1.0
 37
0.0
 76
     0
330
1F
331
29
  0
MLINESTYLE
  5
18
102
{ACAD_REACTORS
330
17
102
}
330
17
100
AcDbMlineStyle
  2
Standard
 70
     0
  3

 62
   256
 51
90.0
 52
90.0
 71
     2
 49
0.5
 62
   256
  6
BYLAYER
 49
-0.5
 62
   256
  6
BYLAYER
  0
ACDBPLACEHOLDER
  5
F
102
{ACAD_REACTORS
330
E
102
}
330
E
  0
SCALE
  5
48
102
{ACAD_REACTORS
330
47
102
}
330
47
100
AcDbScale
 70
     0
300
1:1
140
1.0
141
1.0
290
     1
  0
SCALE
  5
49
102
{ACAD_REACTORS
330
47
102
}
330
47
100
AcDbScale
 70
     0
300
1:2
140
1.0
141
2.0
290
     0
  0
SCALE
  5
4A
102
{ACAD_REACTORS
330
47
102
}
330
47
100
AcDbScale
 70
     0
300
1:4
140
1.0
141
4.0
290
     0
  0
SCALE
  5
4B
102
{ACAD_REACTORS
330
47
102
}
330
47
100
AcDbScale
 70
     0
300
1:5
140
1.0
141
5.0
290
     0
  0
SCALE
  5
4C
102
{ACAD_REACTORS
330
47
102
}
330
47
100
AcDbScale
 70
     0
300
1:8
140
1.0
141
8.0
290
     0
  0
SCALE
  5
4D
102
{ACAD_REACTORS
330
47
102
}
330
47
100
AcDbScale
 70
     0
300
1:10
140
1.0
141
10.0
290
     0
  0
SCALE
  5
4E
102
{ACAD_REACTORS
330
47
102
}
330
47
100
AcDbScale
 70
     0
300
1:16
140
1.0
141
16.0
290
     0
  0
SCALE
  5
4F
102
{ACAD_REACTORS
330
47
102
}
330
47
100
AcDbScale
 70
     0
300
1:20
140
1.0
141
20.0
290
     0
  0
SCALE
  5
50
102
{ACAD_REACTORS
330
47
102
}
330
47
100
AcDbScale
 70
     0
300
1:30
140
1.0
141
30.0
290
     0
  0
SCALE
  5
51
102
{ACAD_REACTORS
330
47
102
}
330
47
100
AcDbScale
 70
     0
300
1:40
140
1.0
141
40.0
290
     0
  0
SCALE
  5
52
102
{ACAD_REACTORS
330
47
102
}
330
47
100
AcDbScale
 70
     0
300
1:50
140
1.0
141
50.0
290
     0
  0
SCALE
  5
53
102
{ACAD_REACTORS
330
47
102
}
330
47
100
AcDbScale
 70
     0
300
1:100
140
1.0
141
100.0
290
     0
  0
SCALE
  5
54
102
{ACAD_REACTORS
330
47
102
}
330
47
100
AcDbScale
 70
     0
300
2:1
140
2.0
141
1.0
290
     0
  0
SCALE
  5
55
102
{ACAD_REACTORS
330
47
102
}
330
47
100
AcDbScale
 70
     0
300
4:1
140
4.0
141
1.0
290
     0
  0
SCALE
  5
56
102
{ACAD_REACTORS
330
47
102
}
330
47
100
AcDbScale
 70
     0
300
8:1
140
8.0
141
1.0
290
     0
  0
SCALE
  5
57
102
{ACAD_REACTORS
330
47
102
}
330
47
100
AcDbScale
 70
     0
300
10:1
140
10.0
141
1.0
290
     0
  0
SCALE
  5
58
102
{ACAD_REACTORS
330
47
102
}
330
47
100
AcDbScale
 70
     0
300
100:1
140
100.0
141
1.0
290
     0
  0
SCALE
  5
59
102
{ACAD_REACTORS
330
47
102
}
330
47
100
AcDbScale
 70
     0
300
1/128" = 1'-0"
140
0.0078125
141
12.0
290
     0
  0
SCALE
  5
5A
102
{ACAD_REACTORS
330
47
102
}
330
47
100
AcDbScale
 70
     0
300
1/64" = 1'-0"
140
0.015625
141
12.0
290
     0
  0
SCALE
  5
5B
102
{ACAD_REACTORS
330
47
102
}
330
47
100
AcDbScale
 70
     0
300
1/32" = 1'-0"
140
0.03125
141
12.0
290
     0
  0
SCALE
  5
5C
102
{ACAD_REACTORS
330
47
102
}
330
47
100
AcDbScale
 70
     0
300
1/16" = 1'-0"
140
0.0625
141
12.0
290
     0
  0
SCALE
  5
5D
102
{ACAD_REACTORS
330
47
102
}
330
47
100
AcDbScale
 70
     0
300
3/32" = 1'-0"
140
0.09375
141
12.0
290
     0
  0
SCALE
  5
5E
102
{ACAD_REACTORS
330
47
102
}
330
47
100
AcDbScale
 70
     0
300
1/8" = 1'-0"
140
0.125
141
12.0
290
     0
  0
SCALE
  5
5F
102
{ACAD_REACTORS
330
47
102
}
330
47
100
AcDbScale
 70
     0
300
3/16" = 1'-0"
140
0.1875
141
12.0
290
     0
  0
SCALE
  5
60
102
{ACAD_REACTORS
330
47
102
}
330
47
100
AcDbScale
 70
     0
300
1/4" = 1'-0"
140
0.25
141
12.0
290
     0
  0
SCALE
  5
61
102
{ACAD_REACTORS
330
47
102
}
330
47
100
AcDbScale
 70
     0
300
3/8" = 1'-0"
140
0.375
141
12.0
290
     0
  0
SCALE
  5
62
102
{ACAD_REACTORS
330
47
102
}
330
47
100
AcDbScale
 70
     0
300
1/2" = 1'-0"
140
0.5
141
12.0
290
     0
  0
SCALE
  5
63
102
{ACAD_REACTORS
330
47
102
}
330
47
100
AcDbScale
 70
     0
300
3/4" = 1'-0"
140
0.75
141
12.0
290
     0
  0
SCALE
  5
64
102
{ACAD_REACTORS
330
47
102
}
330
47
100
AcDbScale
 70
     0
300
1" = 1'-0"
140
1.0
141
12.0
290
     0
  0
SCALE
  5
65
102
{ACAD_REACTORS
330
47
102
}
330
47
100
AcDbScale
 70
     0
300
1-1/2" = 1'-0"
140
1.5
141
12.0
290
     0
  0
SCALE
  5
66
102
{ACAD_REACTORS
330
47
102
}
330
47
100
AcDbScale
 70
     0
300
3" = 1'-0"
140
3.0
141
12.0
290
     0
  0
SCALE
  5
67
102
{ACAD_REACTORS
330
47
102
}
330
47
100
AcDbScale
 70
     0
300
6" = 1'-0"
140
6.0
141
12.0
290
     0
  0
SCALE
  5
68
102
{ACAD_REACTORS
330
47
102
}
330
47
100
AcDbScale
 70
     0
300
1'-0" = 1'-0"
140
12.0
141
12.0
290
     0
  0
ENDSEC
  0
EOF
