  0
SECTION
  2
HEADER
  9
$ACADVER
  1
AC1015
  9
$ACADMAINTVER
 70
     6
  9
$DWGCODEPAGE
  3
ANSI_1252
  9
$INSBASE
 10
0.0
 20
0.0
 30
0.0
  9
$EXTMIN
 10
0.0
 20
0.0
 30
0.0
  9
$EXTMAX
 10
841.0
 20
594.0
 30
0.0
  9
$LIMMIN
 10
0.0
 20
0.0
  9
$LIMMAX
 10
841.0
 20
594.0
  9
$ORTHOMODE
 70
     0
  9
$REGENMODE
 70
     1
  9
$FILLMODE
 70
     1
  9
$QTEXTMODE
 70
     0
  9
$MIRRTEXT
 70
     1
  9
$LTSCALE
 40
1.0
  9
$ATTMODE
 70
     1
  9
$TEXTSIZE
 40
3.5
  9
$TRACEWID
 40
1.0
  9
$TEXTSTYLE
  7
Standard
  9
$CLAYER
  8
0
  9
$CELTYPE
  6
ByLayer
  9
$CECOLOR
 62
   256
  9
$CELTSCALE
 40
1.0
  9
$DISPSILH
 70
     0
  9
$DIMSCALE
 40
1.0
  9
$DIMASZ
 40
3.556
  9
$DIMEXO
 40
1.0
  9
$DIMDLI
 40
3.75
  9
$DIMRND
 40
0.0
  9
$DIMDLE
 40
0.0
  9
$DIMEXE
 40
1.0
  9
$DIMTP
 40
0.0
  9
$DIMTM
 40
0.0
  9
$DIMTXT
 40
3.5
  9
$DIMCEN
 40
2.5
  9
$DIMTSZ
 40
0.0
  9
$DIMTOL
 70
     0
  9
$DIMLIM
 70
     0
  9
$DIMTIH
 70
     1
  9
$DIMTOH
 70
     1
  9
$DIMSE1
 70
     0
  9
$DIMSE2
 70
     0
  9
$DIMTAD
 70
     1
  9
$DIMZIN
 70
     0
  9
$DIMBLK
  1

  9
$DIMASO
 70
     1
  9
$DIMSHO
 70
     1
  9
$DIMPOST
  1

  9
$DIMAPOST
  1

  9
$DIMALT
 70
     0
  9
$DIMALTD
 70
     3
  9
$DIMALTF
 40
0.0393700787
  9
$DIMLFAC
 40
1.0
  9
$DIMTOFL
 70
     1
  9
$DIMTVP
 40
0.0
  9
$DIMTIX
 70
     0
  9
$DIMSOXD
 70
     0
  9
$DIMSAH
 70
     0
  9
$DIMBLK1
  1

  9
$DIMBLK2
  1

  9
$DIMSTYLE
  2
ISO-25
  9
$DIMCLRD
 70
     0
  9
$DIMCLRE
 70
     0
  9
$DIMCLRT
 70
     0
  9
$DIMTFAC
 40
1.0
  9
$DIMGAP
 40
1.524
  9
$DIMJUST
 70
     0
  9
$DIMSD1
 70
     0
  9
$DIMSD2
 70
     0
  9
$DIMTOLJ
 70
     0
  9
$DIMTZIN
 70
     0
  9
$DIMALTZ
 70
     0
  9
$DIMALTTZ
 70
     0
  9
$DIMUPT
 70
     0
  9
$DIMDEC
 70
     2
  9
$DIMTDEC
 70
     2
  9
$DIMALTU
 70
     2
  9
$DIMALTTD
 70
     3
  9
$DIMTXSTY
  7
Standard
  9
$DIMAUNIT
 70
     0
  9
$DIMADEC
 70
     2
  9
$DIMALTRND
 40
0.0
  9
$DIMAZIN
 70
     0
  9
$DIMDSEP
 70
    44
  9
$DIMATFIT
 70
     3
  9
$DIMFRAC
 70
     0
  9
$DIMLDRBLK
  1

  9
$DIMLUNIT
 70
     2
  9
$DIMLWD
 70
    -2
  9
$DIMLWE
 70
    -2
  9
$DIMTMOVE
 70
     0
  9
$LUNITS
 70
     2
  9
$LUPREC
 70
     5
  9
$SKETCHINC
 40
1.0
  9
$FILLETRAD
 40
10.0
  9
$AUNITS
 70
     0
  9
$AUPREC
 70
     2
  9
$MENU
  1
.
  9
$ELEVATION
 40
0.0
  9
$PELEVATION
 40
0.0
  9
$THICKNESS
 40
0.0
  9
$LIMCHECK
 70
     0
  9
$CHAMFERA
 40
0.0
  9
$CHAMFERB
 40
0.0
  9
$CHAMFERC
 40
0.0
  9
$CHAMFERD
 40
0.0
  9
$SKPOLY
 70
     0
  9
$TDCREATE
 40
2457821.634237593
  9
$TDUCREATE
 40
2457821.634237593
  9
$TDUPDATE
 40
2457821.634238055
  9
$TDUUPDATE
 40
2457821.634238055
  9
$TDINDWG
 40
0.0000000116
  9
$TDUSRTIMER
 40
0.0000000116
  9
$USRTIMER
 70
     1
  9
$ANGBASE
 50
0.0
  9
$ANGDIR
 70
     0
  9
$PDMODE
 70
     0
  9
$PDSIZE
 40
-1.0
  9
$PLINEWID
 40
0.0
  9
$SPLFRAME
 70
     0
  9
$SPLINETYPE
 70
     6
  9
$SPLINESEGS
 70
     8
  9
$HANDSEED
  5
E3
  9
$SURFTAB1
 70
     6
  9
$SURFTAB2
 70
     6
  9
$SURFTYPE
 70
     6
  9
$SURFU
 70
     6
  9
$SURFV
 70
     6
  9
$UCSBASE
  2

  9
$UCSNAME
  2

  9
$UCSORG
 10
0.0
 20
0.0
 30
0.0
  9
$UCSXDIR
 10
1.0
 20
0.0
 30
0.0
  9
$UCSYDIR
 10
0.0
 20
1.0
 30
0.0
  9
$UCSORTHOREF
  2

  9
$UCSORTHOVIEW
 70
     0
  9
$UCSORGTOP
 10
0.0
 20
0.0
 30
0.0
  9
$UCSORGBOTTOM
 10
0.0
 20
0.0
 30
0.0
  9
$UCSORGLEFT
 10
0.0
 20
0.0
 30
0.0
  9
$UCSORGRIGHT
 10
0.0
 20
0.0
 30
0.0
  9
$UCSORGFRONT
 10
0.0
 20
0.0
 30
0.0
  9
$UCSORGBACK
 10
0.0
 20
0.0
 30
0.0
  9
$PUCSBASE
  2

  9
$PUCSNAME
  2

  9
$PUCSORG
 10
0.0
 20
0.0
 30
0.0
  9
$PUCSXDIR
 10
1.0
 20
0.0
 30
0.0
  9
$PUCSYDIR
 10
0.0
 20
1.0
 30
0.0
  9
$PUCSORTHOREF
  2

  9
$PUCSORTHOVIEW
 70
     0
  9
$PUCSORGTOP
 10
0.0
 20
0.0
 30
0.0
  9
$PUCSORGBOTTOM
 10
0.0
 20
0.0
 30
0.0
  9
$PUCSORGLEFT
 10
0.0
 20
0.0
 30
0.0
  9
$PUCSORGRIGHT
 10
0.0
 20
0.0
 30
0.0
  9
$PUCSORGFRONT
 10
0.0
 20
0.0
 30
0.0
  9
$PUCSORGBACK
 10
0.0
 20
0.0
 30
0.0
  9
$USERI1
 70
     0
  9
$USERI2
 70
     0
  9
$USERI3
 70
     0
  9
$USERI4
 70
     0
  9
$USERI5
 70
     0
  9
$USERR1
 40
0.0
  9
$USERR2
 40
0.0
  9
$USERR3
 40
0.0
  9
$USERR4
 40
0.0
  9
$USERR5
 40
0.0
  9
$WORLDVIEW
 70
     1
  9
$SHADEDGE
 70
     3
  9
$SHADEDIF
 70
    70
  9
$TILEMODE
 70
     1
  9
$MAXACTVP
 70
    64
  9
$PINSBASE
 10
0.0
 20
0.0
 30
0.0
  9
$PLIMCHECK
 70
     0
  9
$PEXTMIN
 10
1.0000000000E+20
 20
1.0000000000E+20
 30
1.0000000000E+20
  9
$PEXTMAX
 10
-1.0000000000E+20
 20
-1.0000000000E+20
 30
-1.0000000000E+20
  9
$PLIMMIN
 10
0.0
 20
0.0
  9
$PLIMMAX
 10
420.0
 20
297.0
  9
$UNITMODE
 70
     0
  9
$VISRETAIN
 70
     1
  9
$PLINEGEN
 70
     0
  9
$PSLTSCALE
 70
     1
  9
$TREEDEPTH
 70
  3020
  9
$CMLSTYLE
  2
Standard
  9
$CMLJUST
 70
     0
  9
$CMLSCALE
 40
20.0
  9
$PROXYGRAPHICS
 70
     1
  9
$MEASUREMENT
 70
     1
  9
$CELWEIGHT
370
    -1
  9
$ENDCAPS
280
     0
  9
$JOINSTYLE
280
     0
  9
$LWDISPLAY
290
     1
  9
$INSUNITS
 70
     4
  9
$HYPERLINKBASE
  1

  9
$STYLESHEET
  1

  9
$XEDIT
290
     1
  9
$CEPSNTYPE
380
     0
  9
$PSTYLEMODE
290
     1
  9
$FINGERPRINTGUID
  2
{B329F0CF-78FA-4EAA-834C-367FF61D96ED}
  9
$VERSIONGUID
  2
{FAEB1C32-E019-11D5-929B-00C0DF256EC4}
  9
$EXTNAMES
290
     1
  9
$PSVPSCALE
 40
0.0
  9
$OLESTARTUP
290
     0
  0
ENDSEC
  0
SECTION
  2
CLASSES
  0
CLASS
  1
ACDBDICTIONARYWDFLT
  2
AcDbDictionaryWithDefault
  3
ObjectDBX Classes
 90
        0
280
     0
281
     0
  0
CLASS
  1
VISUALSTYLE
  2
AcDbVisualStyle
  3
ObjectDBX Classes
 90
     4095
280
     0
281
     0
  0
CLASS
  1
MATERIAL
  2
AcDbMaterial
  3
ObjectDBX Classes
 90
     1153
280
     0
281
     0
  0
CLASS
  1
SCALE
  2
AcDbScale
  3
ObjectDBX Classes
 90
     1153
280
     0
281
     0
  0
CLASS
  1
TABLESTYLE
  2
AcDbTableStyle
  3
ObjectDBX Classes
 90
     4095
280
     0
281
     0
  0
CLASS
  1
MLEADERSTYLE
  2
AcDbMLeaderStyle
  3
ACDB_MLEADERSTYLE_CLASS
 90
     4095
280
     0
281
     0
  0
CLASS
  1
SUN
  2
AcDbSun
  3
SCENEOE
 90
     1153
280
     0
281
     0
  0
CLASS
  1
ACDBPLACEHOLDER
  2
AcDbPlaceHolder
  3
ObjectDBX Classes
 90
        0
280
     0
281
     0
  0
CLASS
  1
LAYOUT
  2
AcDbLayout
  3
ObjectDBX Classes
 90
        0
280
     0
281
     0
  0
ENDSEC
  0
SECTION
  2
TABLES
  0
TABLE
  2
VPORT
  5
8
330
0
100
AcDbSymbolTable
 70
     1
  0
VPORT
  5
29
330
8
100
AcDbSymbolTableRecord
100
AcDbViewportTableRecord
  2
*Active
 70
     0
 10
0.0
 20
0.0
 11
1.0
 21
1.0
 12
420.5
 22
297.0
 13
0.0
 23
0.0
 14
10.0
 24
10.0
 15
10.0
 25
10.0
 16
0.0
 26
0.0
 36
1.0
 17
0.0
 27
0.0
 37
0.0
 40
594.0
 41
1.4158249158
 42
50.0
 43
0.0
 44
0.0
 50
0.0
 51
0.0
 71
     0
 72
  2000
 73
     1
 74
     3
 75
     0
 76
     0
 77
     0
 78
     0
281
     0
 65
     1
110
0.0
120
0.0
130
0.0
111
1.0
121
0.0
131
0.0
112
0.0
122
1.0
132
0.0
 79
     0
146
0.0
  0
ENDTAB
  0
TABLE
  2
LTYPE
  5
5
330
0
100
AcDbSymbolTable
 70
     6
  0
LTYPE
  5
14
330
5
100
AcDbSymbolTableRecord
100
AcDbLinetypeTableRecord
  2
ByBlock
 70
     0
  3

 72
    65
 73
     0
 40
0.0
  0
LTYPE
  5
15
330
5
100
AcDbSymbolTableRecord
100
AcDbLinetypeTableRecord
  2
ByLayer
 70
     0
  3

 72
    65
 73
     0
 40
0.0
  0
LTYPE
  5
16
330
5
100
AcDbSymbolTableRecord
100
AcDbLinetypeTableRecord
  2
Continuous
 70
     0
  3
Solid line
 72
    65
 73
     0
 40
0.0
  0
LTYPE
  5
6E
330
5
100
AcDbSymbolTableRecord
100
AcDbLinetypeTableRecord
  2
HIDDEN
 70
     0
  3
Hidden __ __ __ __ __ __ __ __ __ __ __ __ __ __
 72
    65
 73
     2
 40
1.905
 49
1.27
 74
     0
 49
-0.635
 74
     0
  0
LTYPE
  5
6F
330
5
100
AcDbSymbolTableRecord
100
AcDbLinetypeTableRecord
  2
PHANTOM
 70
     0
  3
Phantom ______  __  __  ______  __  __  ______
 72
    65
 73
     6
 40
12.7
 49
6.35
 74
     0
 49
-1.27
 74
     0
 49
1.27
 74
     0
 49
-1.27
 74
     0
 49
1.27
 74
     0
 49
-1.27
 74
     0
  0
LTYPE
  5
70
330
5
100
AcDbSymbolTableRecord
100
AcDbLinetypeTableRecord
  2
CENTER
 70
     0
  3
Center ____ _ ____ _ ____ _ ____ _ ____ _ ____
 72
    65
 73
     4
 40
10.16
 49
6.35
 74
     0
 49
-1.27
 74
     0
 49
1.27
 74
     0
 49
-1.27
 74
     0
  0
LTYPE
  5
71
330
5
100
AcDbSymbolTableRecord
100
AcDbLinetypeTableRecord
  2
CENTERX2
 70
     0
  3
Center (2x) ________  __  ________  __  _____
 72
    65
 73
     4
 40
20.32
 49
12.7
 74
     0
 49
-2.54
 74
     0
 49
2.54
 74
     0
 49
-2.54
 74
     0
  0
LTYPE
  5
72
330
5
100
AcDbSymbolTableRecord
100
AcDbLinetypeTableRecord
  2
DOT2
 70
     0
  3
Dot (.5x) ........................................
 72
    65
 73
     2
 40
0.635
 49
0.0
 74
     0
 49
-0.635
 74
     0
  0
ENDTAB
  0
TABLE
  2
LAYER
  5
2
330
0
100
AcDbSymbolTable
 70
     2
  0
LAYER
  5
10
330
2
100
AcDbSymbolTableRecord
100
AcDbLayerTableRecord
  2
0
 70
     0
 62
     7
  6
Continuous
370
    -3
390
F
  0
LAYER
  5
73
330
2
100
AcDbSymbolTableRecord
100
AcDbLayerTableRecord
  2
FORMAT
 70
     0
 62
     7
  6
Continuous
370
    -3
390
F
  0
ENDTAB
  0
TABLE
  2
STYLE
  5
3
330
0
100
AcDbSymbolTable
 70
     1
  0
STYLE
  5
11
330
3
100
AcDbSymbolTableRecord
100
AcDbTextStyleTableRecord
  2
Standard
 70
     0
 40
0.0
 41
1.0
 50
0.0
 71
     0
 42
3.5
  3
txt
  4

  0
ENDTAB
  0
TABLE
  2
VIEW
  5
6
330
0
100
AcDbSymbolTable
 70
     0
  0
ENDTAB
  0
TABLE
  2
UCS
  5
7
330
0
100
AcDbSymbolTable
 70
     0
  0
ENDTAB
  0
TABLE
  2
APPID
  5
9
330
0
100
AcDbSymbolTable
 70
     1
  0
APPID
  5
12
330
9
100
AcDbSymbolTableRecord
100
AcDbRegAppTableRecord
  2
ACAD
 70
     0
  0
ENDTAB
  0
TABLE
  2
DIMSTYLE
  5
A
330
0
100
AcDbSymbolTable
 70
     1
100
AcDbDimStyleTable
  0
DIMSTYLE
105
27
330
A
100
AcDbSymbolTableRecord
100
AcDbDimStyleTableRecord
  2
ISO-25
 70
     0
 41
2.5
 42
0.625
 43
3.75
 44
1.25
 73
     0
 74
     0
 77
     1
 78
     8
140
2.5
141
2.5
143
0.0393700787
147
0.625
171
     3
172
     1
178
     0
271
     2
272
     2
274
     3
278
    44
283
     0
284
     8
340
11
  0
ENDTAB
  0
TABLE
  2
BLOCK_RECORD
  5
1
330
0
100
AcDbSymbolTable
 70
     1
  0
BLOCK_RECORD
  5
1F
330
1
100
AcDbSymbolTableRecord
100
AcDbBlockTableRecord
  2
*Model_Space
340
22
  0
BLOCK_RECORD
  5
1B
330
1
100
AcDbSymbolTableRecord
100
AcDbBlockTableRecord
  2
*Paper_Space
340
1E
  0
BLOCK_RECORD
  5
23
330
1
100
AcDbSymbolTableRecord
100
AcDbBlockTableRecord
  2
*Paper_Space0
340
26
  0
ENDTAB
  0
ENDSEC
  0
SECTION
  2
BLOCKS
  0
BLOCK
  5
20
330
1F
100
AcDbEntity
  8
0
100
AcDbBlockBegin
  2
*Model_Space
 70
     0
 10
0.0
 20
0.0
 30
0.0
  3
*Model_Space
  1

  0
ENDBLK
  5
21
330
1F
100
AcDbEntity
  8
0
100
AcDbBlockEnd
  0
BLOCK
  5
1C
330
1B
100
AcDbEntity
 67
     1
  8
0
100
AcDbBlockBegin
  2
*Paper_Space
 70
     0
 10
0.0
 20
0.0
 30
0.0
  3
*Paper_Space
  1

  0
ENDBLK
  5
1D
330
1B
100
AcDbEntity
 67
     1
  8
0
100
AcDbBlockEnd
  0
BLOCK
  5
24
330
23
100
AcDbEntity
  8
0
100
AcDbBlockBegin
  2
*Paper_Space0
 70
     0
 10
0.0
 20
0.0
 30
0.0
  3
*Paper_Space0
  1

  0
ENDBLK
  5
25
330
23
100
AcDbEntity
  8
0
100
AcDbBlockEnd
  0
ENDSEC
  0
SECTION
  2
ENTITIES
  0
SPLINE
  5
74
330
1F
100
AcDbEntity
  8
0
  6
Continuous
 62
     7
370
    15
100
AcDbSpline
210
0.0
220
0.0
230
1.0
 70
     8
 71
     3
 72
     8
 73
     4
 74
     0
 42
0.000000001
 43
0.00000001
 40
0.0
 40
0.0
 40
0.0
 40
0.0
 40
1.0
 40
1.0
 40
1.0
 40
1.0
 10
591.5218407341174
 20
138.4587826927695
 30
0.0
 10
590.8354896066854
 20
137.459821039371
 30
0.0
 10
590.0168496932848
 20
136.5845900012564
 30
0.0
 10
589.0659694437621
 20
135.8330442629497
 30
0.0
  0
CIRCLE
  5
75
330
1F
100
AcDbEntity
  8
0
  6
Continuous
 62
     7
370
    15
100
AcDbCircle
 10
504.7601511361
 20
359.6374085034
 30
0.0
 40
4.250000000000057
  0
ARC
  5
76
330
1F
100
AcDbEntity
  8
0
  6
Continuous
 62
     7
370
    15
100
AcDbCircle
 10
511.8359421456
 20
264.0275707994
 30
0.0
 40
29.99977750740022
100
AcDbArc
 50
30.394174989
 51
134.9002364845
  0
ARC
  5
77
330
1F
100
AcDbEntity
  8
0
  6
Continuous
 62
     7
370
    15
100
AcDbCircle
 10
548.9261459609
 20
285.7831956761
 30
0.0
 40
13.00011124629997
100
AcDbArc
 50
210.394174989
 51
30.394174989
  0
ARC
  5
78
330
1F
100
AcDbEntity
  8
0
  6
Continuous
 62
     7
370
    15
100
AcDbCircle
 10
511.8359421456
 20
264.0275707994
 30
0.0
 40
56.0
100
AcDbArc
 50
30.394174989
 51
134.9002364845
  0
ARC
  5
79
330
1F
100
AcDbEntity
  8
0
  6
Continuous
 62
     7
370
    15
100
AcDbCircle
 10
481.4834174167
 20
294.4859797436
 30
0.0
 40
13.00011124629988
100
AcDbArc
 50
134.9002364845
 51
314.9002364845
  0
CIRCLE
  5
7A
330
1F
100
AcDbEntity
  8
0
  6
Continuous
 62
     7
370
    15
100
AcDbCircle
 10
81.0209601522
 20
361.0250377394
 30
0.0
 40
4.000000000000014
  0
CIRCLE
  5
7B
330
1F
100
AcDbEntity
  8
0
  6
Continuous
 62
     7
370
    15
100
AcDbCircle
 10
441.8369789812
 20
359.7075638594
 30
0.0
 40
4.249999999999943
  0
CIRCLE
  5
7C
330
1F
100
AcDbEntity
  8
0
  6
Continuous
 62
     7
370
    15
100
AcDbCircle
 10
504.5199865525
 20
333.642206479
 30
0.0
 40
4.25
  0
CIRCLE
  5
7D
330
1F
100
AcDbEntity
  8
0
  6
Continuous
 62
     7
370
    15
100
AcDbCircle
 10
526.3907973385
 20
332.4960058546
 30
0.0
 40
4.25
  0
CIRCLE
  5
7E
330
1F
100
AcDbEntity
  8
0
  6
Continuous
 62
     7
370
    15
100
AcDbCircle
 10
546.8369789812
 20
324.6474520681
 30
0.0
 40
4.249999999999773
  0
CIRCLE
  5
7F
330
1F
100
AcDbEntity
  8
0
  6
Continuous
 62
     7
370
    15
100
AcDbCircle
 10
563.8571167647
 20
310.8648162483
 30
0.0
 40
4.25
  0
CIRCLE
  5
80
330
1F
100
AcDbEntity
  8
0
  6
Continuous
 62
     7
370
    15
100
AcDbCircle
 10
575.7851610162
 20
292.4972388185
 30
0.0
 40
4.250000000000114
  0
CIRCLE
  5
81
330
1F
100
AcDbEntity
  8
0
  6
Continuous
 62
     7
370
    15
100
AcDbCircle
 10
581.453511657
 20
271.342666232
 30
0.0
 40
4.249999999999886
  0
CIRCLE
  5
82
330
1F
100
AcDbEntity
  8
0
  6
Continuous
 62
     7
370
    15
100
AcDbCircle
 10
443.3666469299
 20
278.5794921605
 30
0.0
 40
4.25
  0
CIRCLE
  5
83
330
1F
100
AcDbEntity
  8
0
  6
Continuous
 62
     7
370
    15
100
AcDbCircle
 10
451.2152007163
 20
299.0256738032
 30
0.0
 40
4.250000000000057
  0
CIRCLE
  5
84
330
1F
100
AcDbEntity
  8
0
  6
Continuous
 62
     7
370
    15
100
AcDbCircle
 10
464.9978365361
 20
316.0458115866
 30
0.0
 40
4.25
  0
CIRCLE
  5
85
330
1F
100
AcDbEntity
  8
0
  6
Continuous
 62
     7
370
    15
100
AcDbCircle
 10
483.3654139659
 20
327.9738558382
 30
0.0
 40
4.25
  0
CIRCLE
  5
86
330
1F
100
AcDbEntity
  8
0
  6
Continuous
 62
     7
370
    15
100
AcDbCircle
 10
551.5080936466
 20
258.906820298
 30
0.0
 40
4.0
  0
CIRCLE
  5
87
330
1F
100
AcDbEntity
  8
0
  6
Continuous
 62
     7
370
    15
100
AcDbCircle
 10
472.1658643159
 20
269.1445273084
 30
0.0
 40
4.0
  0
CIRCLE
  5
88
330
1F
100
AcDbEntity
  8
0
  6
Continuous
 62
     7
370
    15
100
AcDbCircle
 10
97.0209601522
 20
361.0250377394
 30
0.0
 40
4.000000000000014
  0
ARC
  5
89
330
1F
100
AcDbEntity
  8
0
  6
Continuous
 62
     7
370
    15
100
AcDbCircle
 10
605.3939844251
 20
272.1033120577
 30
0.0
 40
4.000000000001135
100
AcDbArc
 50
197.1176698125
 51
172.7491853309
  0
ARC
  5
8A
330
1F
100
AcDbEntity
  8
0
  6
Continuous
 62
     7
370
    15
100
AcDbCircle
 10
511.8359421456
 20
264.0275707994
 30
0.0
 40
90.0000000000003
100
AcDbArc
 50
4.395970063
 51
5.4708850804
  0
ARC
  5
8B
330
1F
100
AcDbEntity
  8
0
  6
Continuous
 62
     7
370
    15
100
AcDbCircle
 10
569.367820614
 20
115.8315673943
 30
0.0
 40
4.250000000000195
100
AcDbArc
 50
124.5861644624
 51
101.2630958532
  0
LINE
  5
8C
330
1F
100
AcDbEntity
  8
0
  6
Continuous
 62
     7
370
    15
100
AcDbLine
 10
566.9553295294
 20
119.3304796205
 30
0.0
 11
568.5377340279
 21
119.9997152155
 31
0.0
  0
CIRCLE
  5
8D
330
1F
100
AcDbEntity
  8
0
  6
Continuous
 62
     7
370
    15
100
AcDbCircle
 10
395.2815609165
 20
45.7829480734
 30
0.0
 40
4.249999999999984
  0
CIRCLE
  5
8E
330
1F
100
AcDbEntity
  8
0
  6
Continuous
 62
     7
370
    15
100
AcDbCircle
 10
410.5244845004
 20
40.9166802299
 30
0.0
 40
4.249999999999977
  0
CIRCLE
  5
8F
330
1F
100
AcDbEntity
  8
0
  6
Continuous
 62
     7
370
    15
100
AcDbCircle
 10
415.6502742768
 20
56.0743040964
 30
0.0
 40
4.249999999999984
  0
CIRCLE
  5
90
330
1F
100
AcDbEntity
  8
0
  6
Continuous
 62
     7
370
    15
100
AcDbCircle
 10
430.8935659089
 20
51.2091892647
 30
0.0
 40
4.249999999999977
  0
CIRCLE
  5
91
330
1F
100
AcDbEntity
  8
0
  6
Continuous
 62
     7
370
    15
100
AcDbCircle
 10
436.0193556853
 20
66.3668131311
 30
0.0
 40
4.250000000000101
  0
CIRCLE
  5
92
330
1F
100
AcDbEntity
  8
0
  6
Continuous
 62
     7
370
    15
100
AcDbCircle
 10
451.2626473175
 20
61.5016982994
 30
0.0
 40
4.250000000000095
  0
CIRCLE
  5
93
330
1F
100
AcDbEntity
  8
0
  6
Continuous
 62
     7
370
    15
100
AcDbCircle
 10
34.1377899549
 20
225.6770505498
 30
0.0
 40
4.250000000000005
  0
CIRCLE
  5
94
330
1F
100
AcDbEntity
  8
0
  6
Continuous
 62
     7
370
    15
100
AcDbCircle
 10
65.120182112
 20
187.6915740276
 30
0.0
 40
4.249999999999998
  0
CIRCLE
  5
95
330
1F
100
AcDbEntity
  8
0
  6
Continuous
 62
     7
370
    15
100
AcDbCircle
 10
57.1773364344
 20
170.5570985284
 30
0.0
 40
4.250000000000005
  0
CIRCLE
  5
96
330
1F
100
AcDbEntity
  8
0
  6
Continuous
 62
     7
370
    15
100
AcDbCircle
 10
68.0448046585
 20
155.1111546436
 30
0.0
 40
4.249999999999998
  0
CIRCLE
  5
97
330
1F
100
AcDbEntity
  8
0
  6
Continuous
 62
     7
370
    15
100
AcDbCircle
 10
75.9876503361
 20
172.2456301429
 30
0.0
 40
4.249999999999972
  0
CIRCLE
  5
98
330
1F
100
AcDbEntity
  8
0
  6
Continuous
 62
     7
370
    15
100
AcDbCircle
 10
86.8551185602
 20
156.7996862581
 30
0.0
 40
4.249999999999972
  0
SPLINE
  5
99
330
1F
100
AcDbEntity
  8
0
  6
Continuous
 62
     7
370
    15
100
AcDbSpline
210
0.0
220
0.0
230
1.0
 70
     8
 71
     3
 72
    54
 73
    50
 74
     0
 42
0.000000001
 43
0.00000001
 40
-0.0000000522140392
 40
-0.0000000522140392
 40
-0.0000000522140392
 40
-0.0000000522140392
 40
0.0625
 40
0.0625
 40
0.09375
 40
0.09375
 40
0.109375
 40
0.109375
 40
0.125
 40
0.125
 40
0.1875
 40
0.1875
 40
0.21875
 40
0.21875
 40
0.234375
 40
0.234375
 40
0.25
 40
0.25
 40
0.3125
 40
0.3125
 40
0.34375
 40
0.34375
 40
0.375
 40
0.375
 40
0.5
 40
0.5
 40
0.5625
 40
0.5625
 40
0.59375
 40
0.59375
 40
0.625
 40
0.625
 40
0.6875
 40
0.6875
 40
0.71875
 40
0.71875
 40
0.734375
 40
0.734375
 40
0.75
 40
0.75
 40
0.8125
 40
0.8125
 40
0.84375
 40
0.84375
 40
0.859375
 40
0.859375
 40
0.875
 40
0.875
 40
1.000000052138204
 40
1.000000052138204
 40
1.000000052138204
 40
1.000000052138204
 10
568.1844987296467
 20
227.3469696775304
 30
0.0
 10
568.1366454567327
 20
227.738309123757
 30
0.0
 10
568.1194754406914
 20
228.1201871298729
 30
0.0
 10
568.1397453019382
 20
228.6788119788806
 30
0.0
 10
568.154172736572
 20
228.8626549018555
 30
0.0
 10
568.1873201098497
 20
229.1348712462764
 30
0.0
 10
568.2002869378302
 20
229.2250186877431
 30
0.0
 10
568.2300560009004
 20
229.4041308906627
 30
0.0
 10
568.2451454453434
 20
229.4850098793724
 30
0.0
 10
568.3473090917958
 20
229.9673058503178
 30
0.0
 10
568.4615443400064
 20
230.3310430096122
 30
0.0
 10
568.6816537088954
 20
230.843499322361
 30
0.0
 10
568.7631495812873
 20
231.0087931889118
 30
0.0
 10
568.8975825140184
 20
231.2484466321897
 30
0.0
 10
568.9444250122859
 20
231.326949887191
 30
0.0
 10
569.042173050202
 20
231.4811939450109
 30
0.0
 10
569.0888160308488
 20
231.5509472207333
 30
0.0
 10
569.3748141275552
 20
231.9526827398498
 30
0.0
 10
569.6302319256262
 20
232.2334432038569
 30
0.0
 10
570.0532876037912
 20
232.5936419729384
 30
0.0
 10
570.2009609933559
 20
232.7035512414774
 30
0.0
 10
570.5096174328385
 20
232.9030558029123
 30
0.0
 10
570.6624223813203
 20
232.9887757514265
 30
0.0
 10
571.54150228897
 20
233.4053439987073
 30
0.0
 10
572.2679636589032
 20
233.5234746586757
 30
0.0
 10
573.4052072188423
 20
233.376334414857
 30
0.0
 10
573.7636316828953
 20
233.277097675228
 30
0.0
 10
574.2702832950846
 20
233.0529575782505
 30
0.0
 10
574.434002985166
 20
232.9656967146689
 30
0.0
 10
574.7511140040322
 20
232.7660799916611
 30
0.0
 10
574.9105901287211
 20
232.6485967891889
 30
0.0
 10
575.3370171854175
 20
232.289268746281
 30
0.0
 10
575.5851063290256
 20
232.0175897570207
 30
0.0
 10
575.9029467031536
 20
231.5618808321478
 30
0.0
 10
575.9998446043156
 20
231.4019461170265
 30
0.0
 10
576.1316181207376
 20
231.1499964340988
 30
0.0
 10
576.1732804036582
 20
231.0640052714153
 30
0.0
 10
576.252080524392
 20
230.8880070759664
 30
0.0
 10
576.2917254460207
 20
230.7913854147612
 30
0.0
 10
576.4535681032439
 20
230.3643837179289
 30
0.0
 10
576.5459467051528
 20
230.0097417918832
 30
0.0
 10
576.6288713222123
 20
229.4582180499451
 30
0.0
 10
576.6472389802645
 20
229.2711166604875
 30
0.0
 10
576.6608796458924
 20
228.9855743630836
 30
0.0
 10
576.663108064193
 20
228.889578561746
 30
0.0
 10
576.6629279603108
 20
228.6959568879985
 30
0.0
 10
576.6600940722568
 20
228.5894726551819
 30
0.0
 10
576.6213794332713
 20
227.7832297273251
 30
0.0
 10
576.458387558871
 20
227.0559582347187
 30
0.0
 10
576.1668168225021
 20
226.3180756298233
 30
0.0
  0
SPLINE
  5
9A
330
1F
100
AcDbEntity
  8
0
  6
Continuous
 62
     7
370
    15
100
AcDbSpline
210
0.0
220
0.0
230
1.0
 70
     8
 71
     3
 72
    82
 73
    78
 74
     0
 42
0.000000001
 43
0.00000001
 40
0.0000000491150362
 40
0.0000000491150362
 40
0.0000000491150362
 40
0.0000000491150362
 40
0.0625000429922834
 40
0.0625000429922834
 40
0.093750039930907
 40
0.093750039930907
 40
0.1250000368695307
 40
0.1250000368695307
 40
0.1875000307467779
 40
0.1875000307467779
 40
0.2187500276854015
 40
0.2187500276854015
 40
0.2343750261547133
 40
0.2343750261547133
 40
0.2500000246240251
 40
0.2500000246240251
 40
0.3125000185012723
 40
0.3125000185012723
 40
0.3437500154398959
 40
0.3437500154398959
 40
0.3593750139092077
 40
0.3593750139092077
 40
0.3671875131438637
 40
0.3671875131438637
 40
0.3710937627611916
 40
0.3710937627611916
 40
0.3750000123785195
 40
0.3750000123785195
 40
0.4062500093171432
 40
0.4062500093171432
 40
0.4218750077864549
 40
0.4218750077864549
 40
0.4296875070211108
 40
0.4296875070211108
 40
0.4335937566384388
 40
0.4335937566384388
 40
0.4375000062557667
 40
0.4375000062557667
 40
0.5000000001330139
 40
0.5000000001330139
 40
0.5624999940102611
 40
0.5624999940102611
 40
0.566406243627589
 40
0.566406243627589
 40
0.570312493244917
 40
0.570312493244917
 40
0.5781249924795728
 40
0.5781249924795728
 40
0.5937499909488847
 40
0.5937499909488847
 40
0.6249999878875083
 40
0.6249999878875083
 40
0.6289062375048362
 40
0.6289062375048362
 40
0.6328124871221642
 40
0.6328124871221642
 40
0.6406249863568201
 40
0.6406249863568201
 40
0.656249984826132
 40
0.656249984826132
 40
0.6874999817647556
 40
0.6874999817647556
 40
0.7499999756420028
 40
0.7499999756420028
 40
0.7656249741113146
 40
0.7656249741113146
 40
0.7812499725806265
 40
0.7812499725806265
 40
0.8124999695192501
 40
0.8124999695192501
 40
0.8749999633964973
 40
0.8749999633964973
 40
0.906249960335121
 40
0.906249960335121
 40
0.9374999572737446
 40
0.9374999572737446
 40
0.9999999511509917
 40
0.9999999511509917
 40
0.9999999511509917
 40
0.9999999511509917
 10
576.1668169226676
 20
226.3180745227504
 30
0.0
 10
576.2093045203692
 20
225.8484828003238
 30
0.0
 10
576.2161288539226
 20
225.3746705668041
 30
0.0
 10
576.1728704580305
 20
224.6576214498853
 30
0.0
 10
576.1495351766961
 20
224.4175499498057
 30
0.0
 10
576.0850329819531
 20
223.9352966941002
 30
0.0
 10
576.0421107065313
 20
223.6845896772047
 30
0.0
 10
575.8971286228742
 20
222.9804549013406
 30
0.0
 10
575.7715058338529
 20
222.5187903936447
 30
0.0
 10
575.5396195504461
 20
221.8379316464207
 30
0.0
 10
575.455082105998
 20
221.6129183997328
 30
0.0
 10
575.3174129143572
 20
221.2783080332808
 30
0.0
 10
575.2697126796489
 20
221.1672561617269
 30
0.0
 10
575.1706912019092
 20
220.9461222531455
 30
0.0
 10
575.1243085475575
 20
220.8462272525212
 30
0.0
 10
574.8339567514508
 20
220.2473062308732
 30
0.0
 10
574.5835512472255
 20
219.8095579692427
 30
0.0
 10
574.1807568898769
 20
219.2150184103285
 30
0.0
 10
574.0419610872589
 20
219.027185696279
 30
0.0
 10
573.8269708580794
 20
218.7609573335878
 30
0.0
 10
573.7541746941441
 20
218.6748013307545
 30
0.0
 10
573.6432813169281
 20
218.5494475036004
 30
0.0
 10
573.606033669304
 20
218.5083095907316
 30
0.0
 10
573.5497374150393
 20
218.4475727657024
 30
0.0
 10
573.5309011998131
 20
218.427488831405
 30
0.0
 10
573.4930871750845
 20
218.3876443109014
 30
0.0
 10
573.4785187233186
 20
218.3724204662167
 30
0.0
 10
573.2673966666566
 20
218.1551991949117
 30
0.0
 10
573.0789871248561
 20
217.9852866498678
 30
0.0
 10
572.7952545750032
 20
217.7651773764759
 30
0.0
 10
572.700490685527
 20
217.6976008760409
 30
0.0
 10
572.5580652920247
 20
217.6049260114319
 30
0.0
 10
572.5105435676427
 20
217.5754827042362
 30
0.0
 10
572.4391910912475
 20
217.5334902149534
 30
0.0
 10
572.4153952841456
 20
217.519854797111
 30
0.0
 10
572.3677803733341
 20
217.4933081185964
 30
0.0
 10
572.3500885792596
 20
217.4836234751813
 30
0.0
 10
571.8408010307945
 20
217.2154346227967
 30
0.0
 10
571.383591470691
 20
217.1181375092369
 30
0.0
 10
570.4776236985183
 20
217.2385310356167
 30
0.0
 10
570.0539777826243
 20
217.449254994441
 30
0.0
 10
569.6350255903164
 20
217.8330843460537
 30
0.0
 10
569.6199111647306
 20
217.847372444523
 30
0.0
 10
569.580474536773
 20
217.8852660627632
 30
0.0
 10
569.5608635636482
 20
217.9045553193742
 30
0.0
 10
569.5023526668357
 20
217.9634504316795
 30
0.0
 10
569.4637747657104
 20
218.0040836298466
 30
0.0
 10
569.349329152582
 20
218.1300925942379
 30
0.0
 10
569.2747495308275
 20
218.2195777303524
 30
0.0
 10
569.0561630265573
 20
218.504470618257
 30
0.0
 10
568.9173085050347
 20
218.7163158496079
 30
0.0
 10
568.7688257098114
 20
218.9792979542192
 30
0.0
 10
568.7584492983704
 20
218.9980070230363
 30
0.0
 10
568.7319069072812
 20
219.0463414481933
 30
0.0
 10
568.7187464053203
 20
219.0706437181091
 30
0.0
 10
568.6795969801892
 20
219.1439556998688
 30
0.0
 10
568.6539401377703
 20
219.1933705837247
 30
0.0
 10
568.5782979335193
 20
219.3432359233408
 30
0.0
 10
568.5296408946928
 20
219.4453070671493
 30
0.0
 10
568.3889830702356
 20
219.7580032507684
 30
0.0
 10
568.3022955766274
 20
219.9751110427725
 30
0.0
 10
568.063486263893
 20
220.6523654275587
 30
0.0
 10
567.9326176128565
 20
221.1384430291148
 30
0.0
 10
567.8044537458773
 20
221.7892583790166
 30
0.0
 10
567.7849541974617
 20
221.8977794370907
 30
0.0
 10
567.7454178552683
 20
222.1365546041545
 30
0.0
 10
567.7275150073841
 20
222.2559725509155
 30
0.0
 10
567.6794024333702
 20
222.6143174808859
 30
0.0
 10
567.6547886768783
 20
222.8533355537828
 30
0.0
 10
567.6033312859552
 20
223.5707541312229
 30
0.0
 10
567.5988715300762
 20
224.0495189945158
 30
0.0
 10
567.6369496533624
 20
224.7683950069544
 30
0.0
 10
567.6588810019747
 20
225.0207992973451
 30
0.0
 10
567.7186834214066
 20
225.5032590289192
 30
0.0
 10
567.7569774183131
 20
225.7412989199218
 30
0.0
 10
567.8970377706037
 20
226.4458486685769
 30
0.0
 10
568.0239824875592
 20
226.9027886018762
 30
0.0
 10
568.1844983532767
 20
227.3469686360381
 30
0.0
  0
LINE
  5
9B
330
1F
100
AcDbEntity
  8
0
  6
Continuous
 62
     7
370
    15
100
AcDbLine
 10
439.2978521627
 20
263.8640465219
 30
0.0
 11
446.750010767
 21
262.9706427878
 31
0.0
  0
SPLINE
  5
9C
330
1F
100
AcDbEntity
  8
0
  6
Continuous
 62
     7
370
    15
100
AcDbSpline
210
0.0
220
0.0
230
1.0
 70
     8
 71
     3
 72
    12
 73
     8
 74
     0
 42
0.000000001
 43
0.00000001
 40
0.0
 40
0.0
 40
0.0
 40
0.0
 40
0.1772698924360916
 40
0.3659014442178365
 40
0.5658983344209834
 40
0.7772636486386307
 40
0.9999999999999999
 40
0.9999999999999999
 40
0.9999999999999999
 40
0.9999999999999999
 10
434.8264521815358
 20
258.052859831362
 30
0.0
 10
435.0872811282835
 20
258.3988310396415
 30
0.0
 10
435.625656184517
 20
259.1129475939396
 30
0.0
 10
436.4650442353555
 20
260.2122802353691
 30
0.0
 10
437.3594062250863
 20
261.3744661983427
 30
0.0
 10
438.3090237109861
 20
262.5993042243563
 30
0.0
 10
438.9625365509736
 20
263.4351674413811
 30
0.0
 10
439.2978521627036
 20
263.8640465219277
 30
0.0
  0
SPLINE
  5
9D
330
1F
100
AcDbEntity
  8
0
  6
Continuous
 62
     7
370
    15
100
AcDbSpline
210
0.0
220
0.0
230
1.0
 70
     8
 71
     3
 72
    13
 73
     9
 74
     0
 42
0.000000001
 43
0.00000001
 40
0.0
 40
0.0
 40
0.0
 40
0.0
 40
0.1542240724759345
 40
0.3134141034954593
 40
0.4775789634938496
 40
0.6467267402393333
 40
0.8208648272132958
 40
1.0
 40
1.0
 40
1.0
 40
1.0
 10
437.7473771168017
 20
250.884558325801
 30
0.0
 10
437.6046151700152
 20
251.256025920213
 30
0.0
 10
437.3144943941401
 20
252.0109222292727
 30
0.0
 10
436.8610046285401
 20
253.1567940752878
 30
0.0
 10
436.3855714812179
 20
254.3353555588158
 30
0.0
 10
435.8871338119151
 20
255.546194458335
 30
0.0
 10
435.3665617951345
 20
256.789673065977
 30
0.0
 10
435.0081786595541
 20
257.627845213367
 30
0.0
 10
434.8264524090036
 20
258.0528593017512
 30
0.0
  0
LINE
  5
9E
330
1F
100
AcDbEntity
  8
0
  6
Continuous
 62
     7
370
    15
100
AcDbLine
 10
445.200900639
 20
250.0017327055
 30
0.0
 11
437.7473771168
 21
250.8845583258
 31
0.0
  0
SPLINE
  5
9F
330
1F
100
AcDbEntity
  8
0
  6
Continuous
 62
     7
370
    15
100
AcDbSpline
210
0.0
220
0.0
230
1.0
 70
     8
 71
     3
 72
    13
 73
     9
 74
     0
 42
0.000000001
 43
0.00000001
 40
0.0
 40
0.0
 40
0.0
 40
0.0
 40
0.1764475035729111
 40
0.3489732901602542
 40
0.5175840260339879
 40
0.6822868528464504
 40
0.8430894329314155
 40
1.0
 40
1.0
 40
1.0
 40
1.0
 10
449.7316024952418
 20
256.2725089278702
 30
0.0
 10
449.458871774869
 20
255.9082494685977
 30
0.0
 10
448.9194720390321
 20
255.1878265700002
 30
0.0
 10
448.1276165588355
 20
254.1132497614144
 30
0.0
 10
447.3599459546147
 20
253.0585079711709
 30
0.0
 10
446.6172114446168
 20
252.0230489141216
 30
0.0
 10
445.8985271444478
 20
251.0074925839019
 30
0.0
 10
445.4315359134104
 20
250.3342368516588
 30
0.0
 10
445.2009006389981
 20
250.0017327054662
 30
0.0
  0
SPLINE
  5
A0
330
1F
100
AcDbEntity
  8
0
  6
Continuous
 62
     7
370
    15
100
AcDbSpline
210
0.0
220
0.0
230
1.0
 70
     8
 71
     3
 72
     9
 73
     5
 74
     0
 42
0.000000001
 43
0.00000001
 40
0.0
 40
0.0
 40
0.0
 40
0.0
 40
0.5299220057709745
 40
1.0
 40
1.0
 40
1.0
 40
1.0
 10
446.7500107669916
 20
262.9706427878079
 30
0.0
 10
447.2851986542747
 20
261.7912685397634
 30
0.0
 10
448.2951357421007
 20
259.5657065981928
 30
0.0
 10
449.2722720100328
 20
257.3255552900962
 30
0.0
 10
449.7316022669507
 20
256.2725094564167
 30
0.0
  0
SPLINE
  5
A1
330
1F
100
AcDbEntity
  8
0
  6
Continuous
 62
     7
370
    15
100
AcDbSpline
210
0.0
220
0.0
230
1.0
 70
     8
 71
     3
 72
    30
 73
    26
 74
     0
 42
0.000000001
 43
0.00000001
 40
0.0
 40
0.0
 40
0.0
 40
0.0
 40
0.125
 40
0.125
 40
0.1875
 40
0.1875
 40
0.21875
 40
0.21875
 40
0.234375
 40
0.234375
 40
0.25
 40
0.25
 40
0.5
 40
0.5
 40
0.625
 40
0.625
 40
0.6875
 40
0.6875
 40
0.71875
 40
0.71875
 40
0.734375
 40
0.734375
 40
0.75
 40
0.75
 40
1.0
 40
1.0
 40
1.0
 40
1.0
 10
493.1671683990257
 20
256.4305718138217
 30
0.0
 10
493.0787855976434
 20
256.688332688111
 30
0.0
 10
493.0013452740879
 20
256.9198164535276
 30
0.0
 10
492.9015985054947
 20
257.2276264383435
 30
0.0
 10
492.871085202087
 20
257.3236604893974
 30
0.0
 10
492.8294186761605
 20
257.4578576501509
 30
0.0
 10
492.8162137390493
 20
257.5009477177641
 30
0.0
 10
492.7974321906785
 20
257.5631193402272
 30
0.0
 10
492.791342650771
 20
257.5834326345555
 30
0.0
 10
492.779505523388
 20
257.6232380635597
 30
0.0
 10
492.7757600690429
 20
257.6358794762888
 30
0.0
 10
492.6469214144166
 20
258.076728181833
 30
0.0
 10
492.5380095251824
 20
258.4925068165122
 30
0.0
 10
492.3915045774464
 20
259.1246267356486
 30
0.0
 10
492.3457274719799
 20
259.3357035663896
 30
0.0
 10
492.2816486294486
 20
259.6528740990445
 30
0.0
 10
492.2610534845495
 20
259.7586901576867
 30
0.0
 10
492.231307471118
 20
259.9175530672858
 30
0.0
 10
492.2215832506269
 20
259.9705305074248
 30
0.0
 10
492.2072835958697
 20
260.0500313730423
 30
0.0
 10
492.2025648236138
 20
260.0765374458163
 30
0.0
 10
492.1932228377619
 20
260.1295611598339
 30
0.0
 10
492.1874196653148
 20
260.1629189279004
 30
0.0
 10
492.1296965832551
 20
260.4975350050448
 30
0.0
 10
492.0689272187013
 20
260.9246563010251
 30
0.0
 10
492.001716096238
 20
261.4639661144972
 30
0.0
  0
SPLINE
  5
A2
330
1F
100
AcDbEntity
  8
0
  6
Continuous
 62
     7
370
    15
100
AcDbSpline
210
0.0
220
0.0
230
1.0
 70
     8
 71
     3
 72
    80
 73
    76
 74
     0
 42
0.000000001
 43
0.00000001
 40
0.0
 40
0.0
 40
0.0
 40
0.0
 40
0.03125
 40
0.03125
 40
0.0390625
 40
0.0390625
 40
0.046875
 40
0.046875
 40
0.0625
 40
0.0625
 40
0.125
 40
0.125
 40
0.1875
 40
0.1875
 40
0.21875
 40
0.21875
 40
0.234375
 40
0.234375
 40
0.25
 40
0.25
 40
0.3125
 40
0.3125
 40
0.34375
 40
0.34375
 40
0.359375
 40
0.359375
 40
0.3671875
 40
0.3671875
 40
0.375
 40
0.375
 40
0.4375
 40
0.4375
 40
0.46875
 40
0.46875
 40
0.484375
 40
0.484375
 40
0.5
 40
0.5
 40
0.5625
 40
0.5625
 40
0.59375
 40
0.59375
 40
0.609375
 40
0.609375
 40
0.625
 40
0.625
 40
0.6875
 40
0.6875
 40
0.71875
 40
0.71875
 40
0.734375
 40
0.734375
 40
0.7421875
 40
0.7421875
 40
0.75
 40
0.75
 40
0.8125
 40
0.8125
 40
0.84375
 40
0.84375
 40
0.875
 40
0.875
 40
0.9375
 40
0.9375
 40
0.953125
 40
0.953125
 40
0.9609375
 40
0.9609375
 40
0.96484375
 40
0.96484375
 40
0.966796875
 40
0.966796875
 40
0.96875
 40
0.96875
 40
1.0
 40
1.0
 40
1.0
 40
1.0
 10
530.3723115498562
 20
256.5129215398368
 30
0.0
 10
530.1476551412193
 20
255.9496581411863
 30
0.0
 10
529.9434863218087
 20
255.4720890982188
 30
0.0
 10
529.7138847840783
 20
254.9822457391134
 30
0.0
 10
529.6508718383652
 20
254.850615346918
 30
0.0
 10
529.5365204512128
 20
254.617140469916
 30
0.0
 10
529.4787035890209
 20
254.5015796162799
 30
0.0
 10
529.3033294965984
 20
254.1584268099662
 30
0.0
 10
529.1829224197476
 20
253.9326348814861
 30
0.0
 10
528.5569051519893
 20
252.8054337044571
 30
0.0
 10
527.9894819430881
 20
251.9317246240719
 30
0.0
 10
526.7458224370057
 20
250.2676979843387
 30
0.0
 10
526.0743962147071
 20
249.4840115686765
 30
0.0
 10
524.9928621773729
 20
248.3809723014898
 30
0.0
 10
524.6199517142804
 20
248.025374271812
 30
0.0
 10
524.0419873436704
 20
247.510099816372
 30
0.0
 10
523.8462327741383
 20
247.3413620960715
 30
0.0
 10
523.4485240764171
 20
247.0099275184959
 30
0.0
 10
523.2519978351082
 20
246.8514573818279
 30
0.0
 10
522.1995888631186
 20
246.0319416499814
 30
0.0
 10
521.3318250875772
 20
245.4475563816189
 30
0.0
 10
519.9914245273405
 20
244.6778194547475
 30
0.0
 10
519.5381651911074
 20
244.4390473084024
 30
0.0
 10
518.8485874625267
 20
244.1075993328029
 30
0.0
 10
518.6171134322946
 20
244.0015683815894
 30
0.0
 10
518.2674802058887
 20
243.8491995157486
 30
0.0
 10
518.1505321002437
 20
243.7995228206316
 30
0.0
 10
517.9158284952679
 20
243.7023952840575
 30
0.0
 10
517.8051241639681
 20
243.6577096647144
 30
0.0
 10
516.6782308861241
 20
243.2157814340422
 30
0.0
 10
515.6739271405437
 20
242.9137040219534
 30
0.0
 10
514.1635402742614
 20
242.5967094265829
 30
0.0
 10
513.6594227775155
 20
242.5137314819199
 30
0.0
 10
512.9022637204185
 20
242.4232949456161
 30
0.0
 10
512.6497135660566
 20
242.3988211636299
 30
0.0
 10
512.1442856533399
 20
242.3612170598879
 30
0.0
 10
511.8990245758292
 20
242.3483112455686
 30
0.0
 10
510.5957333698545
 20
242.3098957501816
 30
0.0
 10
509.5670249010395
 20
242.3761574912679
 30
0.0
 10
508.0448489417643
 20
242.6210413089912
 30
0.0
 10
507.5409380793303
 20
242.7269177825813
 30
0.0
 10
506.7902934716664
 20
242.9221052944899
 30
0.0
 10
506.5409488834427
 20
242.9932299320467
 30
0.0
 10
506.0440002689912
 20
243.1476034743347
 30
0.0
 10
505.7873148663305
 20
243.2341395952424
 30
0.0
 10
504.5990530223443
 20
243.6642587059529
 30
0.0
 10
503.6770860431699
 20
244.0918180747817
 30
0.0
 10
502.3370993184294
 20
244.8583532484155
 30
0.0
 10
501.8975977008528
 20
245.1347309930252
 30
0.0
 10
501.2490862104934
 20
245.5805966400374
 30
0.0
 10
501.0347058697078
 20
245.7344350273911
 30
0.0
 10
500.7158205925307
 20
245.973017365946
 30
0.0
 10
500.6099730391386
 20
246.053848938385
 30
0.0
 10
500.3991730103547
 20
246.2181203357713
 30
0.0
 10
500.2887143200673
 20
246.3060251977066
 30
0.0
 10
499.3977258266063
 20
247.0285354256244
 30
0.0
 10
498.6520780155742
 20
247.7281740970014
 30
0.0
 10
497.6031192404257
 20
248.8637431405752
 30
0.0
 10
497.2650518056094
 20
249.2566179945179
 30
0.0
 10
496.6120879164435
 20
250.0710713812394
 30
0.0
 10
496.2909386817115
 20
250.5016366543666
 30
0.0
 10
495.3997641305095
 20
251.7824675499118
 30
0.0
 10
494.8627325573663
 20
252.6764104591007
 30
0.0
 10
494.2792694938182
 20
253.8118564754385
 30
0.0
 10
494.1657422306838
 20
254.0422581333822
 30
0.0
 10
494.0001993603453
 20
254.392829302312
 30
0.0
 10
493.9458097409596
 20
254.5105144722909
 30
0.0
 10
493.8654123179718
 20
254.6882843977628
 30
0.0
 10
493.8388110113243
 20
254.7477480680041
 30
0.0
 10
493.7992058028757
 20
254.8372541159918
 30
0.0
 10
493.7860535253134
 20
254.8671412224254
 30
0.0
 10
493.7598478873628
 20
254.9270189495012
 30
0.0
 10
493.7438272442428
 20
254.9638647609988
 30
0.0
 10
493.5732047200665
 20
255.3580469381475
 30
0.0
 10
493.3843306446839
 20
255.8392202267914
 30
0.0
 10
493.1671683990257
 20
256.4305718138217
 30
0.0
  0
ARC
  5
A3
330
1F
100
AcDbEntity
  8
0
  6
Continuous
 62
     7
370
    15
100
AcDbCircle
 10
511.8369789812
 20
264.0256738032
 30
0.0
 40
20.00000000000015
100
AcDbArc
 50
337.9362732986
 51
187.3589679816
  0
LINE
  5
A4
330
1F
100
AcDbEntity
  8
0
  6
Continuous
 62
     7
370
    15
100
AcDbLine
 10
460.3940764605
 20
208.3106358876
 30
0.0
 11
464.6411097169
 21
213.8750503689
 31
0.0
  0
LINE
  5
A5
330
1F
100
AcDbEntity
  8
0
  6
Continuous
 62
     7
370
    15
100
AcDbLine
 10
465.9584909418
 20
204.0636026312
 30
0.0
 11
460.3940764605
 21
208.3106358876
 31
0.0
  0
LINE
  5
A6
330
1F
100
AcDbEntity
  8
0
  6
Continuous
 62
     7
370
    15
100
AcDbLine
 10
470.2055241982
 20
209.6280171124
 30
0.0
 11
465.9584909418
 21
204.0636026312
 31
0.0
  0
LINE
  5
A7
330
1F
100
AcDbEntity
  8
0
  6
Continuous
 62
     7
370
    15
100
AcDbLine
 10
464.6411097169
 20
213.8750503689
 30
0.0
 11
470.2055241982
 21
209.6280171124
 31
0.0
  0
LINE
  5
A8
330
1F
100
AcDbEntity
  8
0
  6
Continuous
 62
     7
370
    15
100
AcDbLine
 10
540.9897359829
 20
194.3821755384
 30
0.0
 11
538.2943283131
 21
200.8424214698
 31
0.0
  0
LINE
  5
A9
330
1F
100
AcDbEntity
  8
0
  6
Continuous
 62
     7
370
    15
100
AcDbLine
 10
547.4499819143
 20
197.0775832081
 30
0.0
 11
540.9897359829
 21
194.3821755384
 31
0.0
  0
LINE
  5
AA
330
1F
100
AcDbEntity
  8
0
  6
Continuous
 62
     7
370
    15
100
AcDbLine
 10
544.7545742445
 20
203.5378291395
 30
0.0
 11
547.4499819143
 21
197.0775832081
 31
0.0
  0
LINE
  5
AB
330
1F
100
AcDbEntity
  8
0
  6
Continuous
 62
     7
370
    15
100
AcDbLine
 10
538.2943283131
 20
200.8424214698
 30
0.0
 11
544.7545742445
 21
203.5378291395
 31
0.0
  0
LINE
  5
AC
330
1F
100
AcDbEntity
  8
0
  6
Continuous
 62
     7
370
    15
100
AcDbLine
 10
600.2511327422
 20
246.7972716315
 30
0.0
 11
600.2857447227
 21
247.0460477576
 31
0.0
  0
SPLINE
  5
AD
330
1F
100
AcDbEntity
  8
0
  6
Continuous
 62
     7
370
    15
100
AcDbSpline
210
0.0
220
0.0
230
1.0
 70
     8
 71
     3
 72
    34
 73
    30
 74
     0
 42
0.000000001
 43
0.00000001
 40
0.0
 40
0.0
 40
0.0
 40
0.0
 40
0.0625
 40
0.0625
 40
0.09375
 40
0.09375
 40
0.109375
 40
0.109375
 40
0.125
 40
0.125
 40
0.25
 40
0.25
 40
0.5
 40
0.5
 40
0.625
 40
0.625
 40
0.6875
 40
0.6875
 40
0.75
 40
0.75
 40
0.8125
 40
0.8125
 40
0.84375
 40
0.84375
 40
0.859375
 40
0.859375
 40
0.875
 40
0.875
 40
1.0
 40
1.0
 40
1.0
 40
1.0
 10
601.2371544514122
 20
240.660374640413
 30
0.0
 10
601.16487807236
 20
240.8159699455322
 30
0.0
 10
601.1022241078398
 20
240.9538329748971
 30
0.0
 10
601.0226767828575
 20
241.1340291053127
 30
0.0
 10
600.9985666114964
 20
241.1896614131794
 30
0.0
 10
600.9660097599041
 20
241.2664602715714
 30
0.0
 10
600.9557588769483
 20
241.2909516238008
 30
0.0
 10
600.9364599128533
 20
241.3377177937902
 30
0.0
 10
600.9307217264712
 20
241.3516983405823
 30
0.0
 10
600.8249125515755
 20
241.6168457340223
 30
0.0
 10
600.7339326705056
 20
241.8743431447789
 30
0.0
 10
600.4984430212755
 20
242.6225666119856
 30
0.0
 10
600.3781256131616
 20
243.1327232935861
 30
0.0
 10
600.2521188299305
 20
243.9183629542471
 30
0.0
 10
600.2197284752792
 20
244.1800371736927
 30
0.0
 10
600.1855608029412
 20
244.5722400016991
 30
0.0
 10
600.1765745554349
 20
244.7029228608408
 30
0.0
 10
600.1634080136354
 20
244.9641857454037
 30
0.0
 10
600.1593099128021
 20
245.0887293722326
 30
0.0
 10
600.155590890508
 20
245.3618593865383
 30
0.0
 10
600.1561223426978
 20
245.4957895566799
 30
0.0
 10
600.1605059659873
 20
245.6927325563753
 30
0.0
 10
600.1625649145848
 20
245.7577215136877
 30
0.0
 10
600.166549948732
 20
245.854216885777
 30
0.0
 10
600.1680277286563
 20
245.8862173324935
 30
0.0
 10
600.171282158922
 20
245.9498888713002
 30
0.0
 10
600.1735915237558
 20
245.9902739707988
 30
0.0
 10
600.1861318632747
 20
246.1954056371151
 30
0.0
 10
600.2115144790574
 20
246.4568073882395
 30
0.0
 10
600.2511327421613
 20
246.7972716315404
 30
0.0
  0
LINE
  5
AE
330
1F
100
AcDbEntity
  8
0
  6
Continuous
 62
     7
370
    15
100
AcDbLine
 10
601.2688257645
 20
240.5940784567
 30
0.0
 11
601.2371544514
 21
240.6603746404
 31
0.0
  0
SPLINE
  5
AF
330
1F
100
AcDbEntity
  8
0
  6
Continuous
 62
     7
370
    15
100
AcDbSpline
210
0.0
220
0.0
230
1.0
 70
     8
 71
     3
 72
    26
 73
    22
 74
     0
 42
0.000000001
 43
0.00000001
 40
0.0
 40
0.0
 40
0.0
 40
0.0
 40
0.125
 40
0.125
 40
0.1875
 40
0.1875
 40
0.21875
 40
0.21875
 40
0.25
 40
0.25
 40
0.5
 40
0.5
 40
0.625
 40
0.625
 40
0.6875
 40
0.6875
 40
0.71875
 40
0.71875
 40
0.75
 40
0.75
 40
1.0
 40
1.0
 40
1.0
 40
1.0
 10
602.730553830814
 20
234.2257265461941
 30
0.0
 10
602.7274990502245
 20
234.5382447673321
 30
0.0
 10
602.7188122973315
 20
234.8316126603574
 30
0.0
 10
602.6973342095365
 20
235.2429390077263
 30
0.0
 10
602.6887668538623
 20
235.3752602081545
 30
0.0
 10
602.6738038307371
 20
235.5665606357544
 30
0.0
 10
602.6684641580931
 20
235.6291305494474
 30
0.0
 10
602.6570808162671
 20
235.7518765858192
 30
0.0
 10
602.6520870992626
 20
235.8023703151485
 30
0.0
 10
602.5850765226071
 20
236.4203248998408
 30
0.0
 10
602.4957779155158
 20
236.9564284514857
 30
0.0
 10
602.3115637150324
 20
237.7656898429879
 30
0.0
 10
602.2425527807269
 20
238.032398651358
 30
0.0
 10
602.1276270780522
 20
238.4278943807172
 30
0.0
 10
602.0874169602911
 20
238.5589650433042
 30
0.0
 10
602.0242494583455
 20
238.7544291663858
 30
0.0
 10
602.0027182368128
 20
238.8193935622798
 30
0.0
 10
601.9587050186462
 20
238.9489417304682
 30
0.0
 10
601.9333752685911
 20
239.0215132027524
 30
0.0
 10
601.7523885917192
 20
239.5291650472938
 30
0.0
 10
601.5375753006207
 20
240.0345515451162
 30
0.0
 10
601.268825764532
 20
240.594078456724
 30
0.0
  0
SPLINE
  5
B0
330
1F
100
AcDbEntity
  8
0
  6
Continuous
 62
     7
370
    15
100
AcDbSpline
210
0.0
220
0.0
230
1.0
 70
     8
 71
     3
 72
    23
 73
    19
 74
     0
 42
0.000000001
 43
0.00000001
 40
0.0
 40
0.0
 40
0.0
 40
0.0
 40
0.0411293103185699
 40
0.08235089004645
 40
0.1236663922382073
 40
0.1650774587007681
 40
0.206585719901289
 40
0.2481927948805381
 40
0.2899002911717522
 40
0.3317098047248754
 40
0.3736229198361405
 40
0.415641209082921
 40
0.4577662332637622
 40
0.4999995413435354
 40
0.6221830889455602
 40
0.7499992973449848
 40
0.8683786865645287
 40
1.0
 40
1.0
 40
1.0
 40
1.0
 10
600.5928246883359
 20
196.7700119163947
 30
0.0
 10
600.6570966342564
 20
197.2806824603443
 30
0.0
 10
600.7857847136472
 20
198.3031691854807
 30
0.0
 10
600.9666594772966
 20
199.8401559204564
 30
0.0
 10
601.1389157203226
 20
201.3816724115883
 30
0.0
 10
601.3016594617044
 20
202.9278328309397
 30
0.0
 10
601.4551310869948
 20
204.4786064743072
 30
0.0
 10
601.5992659249006
 20
206.0340015926856
 30
0.0
 10
601.7340815421314
 20
207.5940159567145
 30
0.0
 10
601.8595725965698
 20
209.1586501783887
 30
0.0
 10
601.9757428848436
 20
210.7279040201242
 30
0.0
 10
602.0825825895529
 20
212.3017777944356
 30
0.0
 10
602.1801273486964
 20
213.8802704623598
 30
0.0
 10
602.323770354097
 20
216.4609796868064
 30
0.0
 10
602.4860510414456
 20
220.1145870866352
 30
0.0
 10
602.6231852421352
 20
224.7226274568035
 30
0.0
 10
602.7047163313999
 20
229.4500971776409
 30
0.0
 10
602.7216424853849
 20
232.5786134775892
 30
0.0
 10
602.7305538308142
 20
234.2257265461941
 30
0.0
  0
LINE
  5
B1
330
1F
100
AcDbEntity
  8
0
  6
Continuous
 62
     7
370
    15
100
AcDbLine
 10
600.5928246883
 20
196.7700119164
 30
0.0
 11
597.4699878079
 21
172.5680260929
 31
0.0
  0
LINE
  5
B2
330
1F
100
AcDbEntity
  8
0
  6
Continuous
 62
     7
370
    15
100
AcDbLine
 10
593.5679349465
 20
143.5484632404
 30
0.0
 11
597.4699878079
 21
172.5680260929
 31
0.0
  0
ARC
  5
B3
330
1F
100
AcDbEntity
  8
0
  6
Continuous
 62
     7
370
    15
100
AcDbCircle
 10
583.7991857074
 20
140.44400827
 30
0.0
 40
7.000000000000036
100
AcDbArc
 50
292.1737598741
 51
318.7985010821
  0
LINE
  5
B4
330
1F
100
AcDbEntity
  8
0
  6
Continuous
 62
     7
370
    15
100
AcDbLine
 10
581.2658555342
 20
131.8524886407
 30
0.0
 11
586.4411027484
 21
133.9617035604
 31
0.0
  0
ARC
  5
B5
330
1F
100
AcDbEntity
  8
0
  6
Continuous
 62
     7
370
    15
100
AcDbCircle
 10
582.3981056947
 20
129.0743580509
 30
0.0
 40
3.000000000000094
100
AcDbArc
 50
112.1737598741
 51
179.8691166431
  0
LINE
  5
B6
330
1F
100
AcDbEntity
  8
0
  6
Continuous
 62
     7
370
    15
100
AcDbLine
 10
579.3677945229
 20
115.808723959
 30
0.0
 11
579.398113522
 21
129.0812110815
 31
0.0
  0
ARC
  5
B7
330
1F
100
AcDbEntity
  8
0
  6
Continuous
 62
     7
370
    15
100
AcDbCircle
 10
569.367820614
 20
115.8315673943
 30
0.0
 40
10.00000000000016
100
AcDbArc
 50
234.7030265726
 51
359.8691166431
  0
ARC
  5
B8
330
1F
100
AcDbEntity
  8
0
  6
Continuous
 62
     7
370
    15
100
AcDbCircle
 10
557.8115303699
 20
99.5082051244
 30
0.0
 40
9.999999999999991
100
AcDbArc
 50
54.7030265726
 51
114.7030265726
  0
LINE
  5
B9
330
1F
100
AcDbEntity
  8
0
  6
Continuous
 62
     7
370
    15
100
AcDbLine
 10
469.0652664434
 20
69.6911275992
 30
0.0
 11
553.6323797305
 21
108.5930661543
 31
0.0
  0
ARC
  5
BA
330
1F
100
AcDbEntity
  8
0
  6
Continuous
 62
     7
370
    15
100
AcDbCircle
 10
473.2444170828
 20
60.6062665693
 30
0.0
 40
10.00000000000002
100
AcDbArc
 50
114.7030265726
 51
177.6673347832
  0
ARC
  5
BB
330
1F
100
AcDbEntity
  8
0
  6
Continuous
 62
     7
370
    15
100
AcDbCircle
 10
451.2626473175
 20
61.5016982994
 30
0.0
 40
11.99999999999998
100
AcDbArc
 50
296.8074972398
 51
357.6673347832
  0
LINE
  5
BC
330
1F
100
AcDbEntity
  8
0
  6
Continuous
 62
     7
370
    15
100
AcDbLine
 10
456.674579314
 20
50.7913765458
 30
0.0
 11
421.1807220149
 21
32.8563091954
 31
0.0
  0
ARC
  5
BD
330
1F
100
AcDbEntity
  8
0
  6
Continuous
 62
     7
370
    15
100
AcDbCircle
 10
416.6707786845
 20
41.7815773234
 30
0.0
 40
10.00000000000003
100
AcDbArc
 50
252.0717356886
 51
296.8074972398
  0
LINE
  5
BE
330
1F
100
AcDbEntity
  8
0
  6
Continuous
 62
     7
370
    15
100
AcDbLine
 10
413.5925186151
 20
32.2671506488
 30
0.0
 11
51.5050093344
 21
149.4155148731
 31
0.0
  0
LINE
  5
BF
330
1F
100
AcDbEntity
  8
0
  6
Continuous
 62
     7
370
    15
100
AcDbLine
 10
42.7883376904
 20
164.4284798803
 30
0.0
 11
51.5050093344
 21
149.4155148731
 31
0.0
  0
ARC
  5
C0
330
1F
100
AcDbEntity
  8
0
  6
Continuous
 62
     7
370
    15
100
AcDbCircle
 10
51.4363606886
 20
169.4496050751
 30
0.0
 40
10.0
100
AcDbArc
 50
190.528153216
 51
210.139861859
  0
LINE
  5
C1
330
1F
100
AcDbEntity
  8
0
  6
Continuous
 62
     7
370
    15
100
AcDbLine
 10
41.6047082439
 20
167.6224186569
 30
0.0
 11
33.0736874915
 21
213.3295522649
 31
0.0
  0
ARC
  5
C2
330
1F
100
AcDbEntity
  8
0
  6
Continuous
 62
     7
370
    15
100
AcDbCircle
 10
23.2434470834
 20
211.494784291
 30
0.0
 40
10.00000000000009
100
AcDbArc
 50
10.5723393104
 51
29.9260161418
  0
LINE
  5
C3
330
1F
100
AcDbEntity
  8
0
  6
Continuous
 62
     7
370
    15
100
AcDbLine
 10
20.9252804991
 20
235.4031428304
 30
0.0
 11
31.9101502092
 21
216.4835974694
 31
0.0
  0
LINE
  5
C4
330
1F
100
AcDbEntity
  8
0
  6
Continuous
 62
     7
370
    15
100
AcDbLine
 10
9.1515365956
 20
272.523335649
 30
0.0
 11
20.9252804991
 21
235.4031428304
 31
0.0
  0
LINE
  5
C5
330
1F
100
AcDbEntity
  8
0
  6
Continuous
 62
     7
370
    15
100
AcDbLine
 10
9.1515365956
 20
272.523335649
 30
0.0
 11
9.2228246883
 21
273.075818368
 31
0.0
  0
SPLINE
  5
C6
330
1F
100
AcDbEntity
  8
0
  6
Continuous
 62
     7
370
    15
100
AcDbSpline
210
0.0
220
0.0
230
1.0
 70
     8
 71
     3
 72
    82
 73
    78
 74
     0
 42
0.000000001
 43
0.00000001
 40
0.0
 40
0.0
 40
0.0
 40
0.0
 40
0.0625
 40
0.0625
 40
0.09375
 40
0.09375
 40
0.109375
 40
0.109375
 40
0.1171875
 40
0.1171875
 40
0.12109375
 40
0.12109375
 40
0.123046875
 40
0.123046875
 40
0.1240234375
 40
0.1240234375
 40
0.125
 40
0.125
 40
0.1875
 40
0.1875
 40
0.21875
 40
0.21875
 40
0.234375
 40
0.234375
 40
0.2421875
 40
0.2421875
 40
0.24609375
 40
0.24609375
 40
0.248046875
 40
0.248046875
 40
0.25
 40
0.25
 40
0.375
 40
0.375
 40
0.4375
 40
0.4375
 40
0.46875
 40
0.46875
 40
0.484375
 40
0.484375
 40
0.4921875
 40
0.4921875
 40
0.49609375
 40
0.49609375
 40
0.498046875
 40
0.498046875
 40
0.5
 40
0.5
 40
0.625
 40
0.625
 40
0.6875
 40
0.6875
 40
0.71875
 40
0.71875
 40
0.734375
 40
0.734375
 40
0.7421875
 40
0.7421875
 40
0.74609375
 40
0.74609375
 40
0.748046875
 40
0.748046875
 40
0.75
 40
0.75
 40
0.8125
 40
0.8125
 40
0.84375
 40
0.84375
 40
0.859375
 40
0.859375
 40
0.8671875
 40
0.8671875
 40
0.875
 40
0.875
 40
0.9375
 40
0.9375
 40
1.0
 40
1.0
 40
1.0
 40
1.0
 10
45.55454441204398
 20
318.0050985197762
 30
0.0
 10
44.34905714741721
 20
317.0536616003342
 30
0.0
 10
43.26333771897261
 20
316.1938784168463
 30
0.0
 10
41.81441033057865
 20
315.0416842455452
 30
0.0
 10
41.36137649349281
 20
314.6805329557666
 30
0.0
 10
40.72673867643228
 20
314.1731761720815
 30
0.0
 10
40.52267822717359
 20
314.0097856026836
 30
0.0
 10
40.22781578792745
 20
313.7732922863324
 30
0.0
 10
40.13139968061918
 20
313.6958932705063
 30
0.0
 10
39.98958257831714
 20
313.5819428812035
 30
0.0
 10
39.9427780539931
 20
313.5443174405086
 30
0.0
 10
39.87327303217236
 20
313.4884163130755
 30
0.0
 10
39.85022165234287
 20
313.4698721095326
 30
0.0
 10
39.81582002376505
 20
313.4421900626206
 30
0.0
 10
39.8043820544336
 20
313.4329850900503
 30
0.0
 10
39.78156459615923
 20
313.4146198977105
 30
0.0
 10
39.77548124593699
 20
313.4097234863528
 30
0.0
 10
38.69346606045077
 20
312.5386161205864
 30
0.0
 10
37.68440623263214
 20
311.717562072233
 30
0.0
 10
36.25527994620204
 20
310.5409584981507
 30
0.0
 10
35.7929817599415
 20
310.1579202231979
 30
0.0
 10
35.12065034437533
 20
309.5971071853807
 30
0.0
 10
34.90005918315747
 20
309.4124602352103
 30
0.0
 10
34.57445140728665
 20
309.1389259036076
 30
0.0
 10
34.46679530965569
 20
309.0483204753489
 30
0.0
 10
34.30663090469832
 20
308.9132713563741
 30
0.0
 10
34.25346272662733
 20
308.8683981539514
 30
0.0
 10
34.17404039489319
 20
308.8013031061706
 30
0.0
 10
34.14762127354387
 20
308.7789738828859
 30
0.0
 10
34.09489300930257
 20
308.7343870216009
 30
0.0
 10
34.07595734928598
 20
308.7183703921019
 30
0.0
 10
31.89016097428354
 20
306.8682848912483
 30
0.0
 10
29.91015997020091
 20
305.1180784707338
 30
0.0
 10
27.1984100656491
 20
302.5998931796816
 30
0.0
 10
26.33753536439393
 20
301.7783521392842
 30
0.0
 10
25.11078621290402
 20
300.5728216636179
 30
0.0
 10
24.71263031247267
 20
300.175441685884
 30
0.0
 10
24.13153718692418
 20
299.5860669905159
 30
0.0
 10
23.9405295992578
 20
299.3907246372652
 30
0.0
 10
23.65805339903271
 20
299.0993849251974
 30
0.0
 10
23.56456719583677
 20
299.002550657476
 30
0.0
 10
23.42534668636148
 20
298.8577177103462
 30
0.0
 10
23.37910798242288
 20
298.8095098037116
 30
0.0
 10
23.31000212534456
 20
298.7373025573726
 30
0.0
 10
23.28700887279012
 20
298.7132509108619
 30
0.0
 10
23.24110643395771
 20
298.6651824890446
 30
0.0
 10
23.22515542418746
 20
298.6484683998535
 30
0.0
 10
21.28650899710311
 20
296.6138367215697
 30
0.0
 10
19.57787679012107
 20
294.6387670727958
 30
0.0
 10
17.31521181533052
 20
291.7185526051699
 30
0.0
 10
16.61103737968067
 20
290.7522127835505
 30
0.0
 10
15.62984656012656
 20
289.3133005525052
 30
0.0
 10
15.31529475926185
 20
288.8354293923873
 30
0.0
 10
14.8622347664451
 20
288.1212720275565
 30
0.0
 10
14.7143427202529
 20
287.8836611351706
 30
0.0
 10
14.49719657808457
 20
287.5279071404282
 30
0.0
 10
14.42559651854869
 20
287.4094328661535
 30
0.0
 10
14.31936941102457
 20
287.2318870407005
 30
0.0
 10
14.28415587214632
 20
287.1727326965427
 30
0.0
 10
14.23162880927426
 20
287.0840425767958
 30
0.0
 10
14.21416866255787
 20
287.0544861029617
 30
0.0
 10
14.17934611760652
 20
286.9953869541237
 30
0.0
 10
14.165060083484
 20
286.9710923614907
 30
0.0
 10
13.49219377597216
 20
285.823225048804
 30
0.0
 10
12.9019907234012
 20
284.7098720919432
 30
0.0
 10
12.11009619479658
 20
283.0394384034504
 30
0.0
 10
11.8616996936371
 20
282.4825597984193
 30
0.0
 10
11.51245745446067
 20
281.6471408275721
 30
0.0
 10
11.39993546016227
 20
281.3686509934063
 30
0.0
 10
11.23699059685551
 20
280.9508909763325
 30
0.0
 10
11.18364866377675
 20
280.8116334263372
 30
0.0
 10
11.07891084033275
 20
280.5331099044046
 30
0.0
 10
11.03024627748572
 20
280.4013879792565
 30
0.0
 10
10.55185850874629
 20
279.080059911983
 30
0.0
 10
10.19335194442783
 20
277.9007398321513
 30
0.0
 10
9.617324084463142
 20
275.5478290851888
 30
0.0
 10
9.389819642426522
 20
274.3316737216347
 30
0.0
 10
9.222824688335574
 20
273.0758183680077
 30
0.0
  0
SPLINE
  5
C7
330
1F
100
AcDbEntity
  8
0
  6
Continuous
 62
     7
370
    15
100
AcDbSpline
210
0.0
220
0.0
230
1.0
 70
     8
 71
     3
 72
    31
 73
    27
 74
     0
 42
0.000000001
 43
0.00000001
 40
0.0
 40
0.0
 40
0.0
 40
0.0
 40
0.0421374787010155
 40
0.0841014930917096
 40
0.1259095493864053
 40
0.1675793503620893
 40
0.2091287755135883
 40
0.2505758601196461
 40
0.2919387733284305
 40
0.3332357953850821
 40
0.3744852941363677
 40
0.4157057009583686
 40
0.4569154862619204
 40
0.4981331347369685
 40
0.5393771205011403
 40
0.5806658823192381
 40
0.6220177990593704
 40
0.6634511655476061
 40
0.70498416897703
 40
0.746634866018529
 40
0.7884211607701753
 40
0.8303607836697048
 40
0.8724712714808474
 40
0.9147699484493311
 40
0.9572739087087129
 40
1.0
 40
1.0
 40
1.0
 40
1.0
 10
57.39516611702867
 20
316.9200111410748
 30
0.0
 10
57.22835732384623
 20
316.8942330793068
 30
0.0
 10
56.8954264271731
 20
316.8427830744529
 30
0.0
 10
56.39513825500564
 20
316.7786051407088
 30
0.0
 10
55.89560478189837
 20
316.7241825335662
 30
0.0
 10
55.39668032465306
 20
316.680424112067
 30
0.0
 10
54.89840401684953
 20
316.6470878449333
 30
0.0
 10
54.40076574852437
 20
316.6242384408401
 30
0.0
 10
53.90376855959544
 20
316.6118587711024
 30
0.0
 10
53.40741199392502
 20
316.6099535196535
 30
0.0
 10
52.91169653947081
 20
316.6185215155485
 30
0.0
 10
52.41662243925204
 20
316.63756312156
 30
0.0
 10
51.92219000580278
 20
316.6670782585338
 30
0.0
 10
51.4283995339293
 20
316.7070669340381
 30
0.0
 10
50.93525131985322
 20
316.7575290986455
 30
0.0
 10
50.44274565579554
 20
316.8184646936215
 30
0.0
 10
49.95088281675114
 20
316.8898736065906
 30
0.0
 10
49.4596631037148
 20
316.9717558062769
 30
0.0
 10
48.96908666912214
 20
317.0641108530734
 30
0.0
 10
48.47915416083581
 20
317.1669397368167
 30
0.0
 10
47.98986429875757
 20
317.2802379965372
 30
0.0
 10
47.50122295656934
 20
317.4040215361654
 30
0.0
 10
47.01320906951845
 20
317.5382297433453
 30
0.0
 10
46.52590266010892
 20
317.6830893308361
 30
0.0
 10
46.03900375988879
 20
317.8377471630212
 30
0.0
 10
45.7163115725927
 20
317.9492177631017
 30
0.0
 10
45.55454497029049
 20
318.005098323405
 30
0.0
  0
LINE
  5
C8
330
1F
100
AcDbEntity
  8
0
  6
Continuous
 62
     7
370
    15
100
AcDbLine
 10
57.528935534
 20
316.9027505711
 30
0.0
 11
57.395166117
 21
316.9200111411
 31
0.0
  0
LINE
  5
C9
330
1F
100
AcDbEntity
  8
0
  6
Continuous
 62
     7
370
    15
100
AcDbLine
 10
59.1226396426
 20
317.3193308182
 30
0.0
 11
57.528935534
 21
316.9027505711
 31
0.0
  0
LINE
  5
CA
330
1F
100
AcDbEntity
  8
0
  6
Continuous
 62
     7
370
    15
100
AcDbLine
 10
59.0279688584
 20
317.3315464032
 30
0.0
 11
59.1226396426
 21
317.3193308182
 31
0.0
  0
LINE
  5
CB
330
1F
100
AcDbEntity
  8
0
  6
Continuous
 62
     7
370
    15
100
AcDbLine
 10
59.0279688584
 20
317.3315464032
 30
0.0
 11
61.1496861723
 21
317.8862422747
 31
0.0
  0
LINE
  5
CC
330
1F
100
AcDbEntity
  8
0
  6
Continuous
 62
     7
370
    15
100
AcDbLine
 10
61.1496861723
 20
317.8862422747
 30
0.0
 11
61.1518507557
 21
317.9030177963
 31
0.0
  0
ARC
  5
CD
330
1F
100
AcDbEntity
  8
0
  6
Continuous
 62
     7
370
    15
100
AcDbCircle
 10
53.3987692056
 20
339.0250377394
 30
0.0
 40
22.50000000000002
100
AcDbArc
 50
290.1562451037
 51
52.5664865473
  0
LINE
  5
CE
330
1F
100
AcDbEntity
  8
0
  6
Continuous
 62
     7
370
    15
100
AcDbLine
 10
67.0751783152
 20
356.8913701517
 30
0.0
 11
72.8356195449
 21
361.724954263
 31
0.0
  0
ARC
  5
CF
330
1F
100
AcDbEntity
  8
0
  6
Continuous
 62
     7
370
    15
100
AcDbCircle
 10
81.0209601522
 20
361.0250377394
 30
0.0
 40
8.215210526713786
100
AcDbArc
 50
84.8873898569
 51
175.1126101431
  0
LINE
  5
D0
330
1F
100
AcDbEntity
  8
0
  6
Continuous
 62
     7
370
    15
100
AcDbLine
 10
81.7530464134
 20
369.2075638594
 30
0.0
 11
441.9755179257
 21
369.2075638594
 31
0.0
  0
LINE
  5
D1
330
1F
100
AcDbEntity
  8
0
  6
Continuous
 62
     7
370
    15
100
AcDbLine
 10
506.5890740169
 20
367.4863664861
 30
0.0
 11
441.9755179257
 21
369.2075638594
 31
0.0
  0
ARC
  5
D2
330
1F
100
AcDbEntity
  8
0
  6
Continuous
 62
     7
370
    15
100
AcDbCircle
 10
506.3760429292
 20
359.4892033794
 30
0.0
 40
8.000000000000021
100
AcDbArc
 50
358.4740968494
 51
88.4740968494
  0
LINE
  5
D3
330
1F
100
AcDbEntity
  8
0
  6
Continuous
 62
     7
370
    15
100
AcDbLine
 10
514.232541882
 20
353.9956557502
 30
0.0
 11
514.373206036
 21
359.2761722917
 31
0.0
  0
ARC
  5
D4
330
1F
100
AcDbEntity
  8
0
  6
Continuous
 62
     7
370
    15
100
AcDbCircle
 10
511.8359421456
 20
264.0275707994
 30
0.0
 40
90.00000000000001
100
AcDbArc
 50
49.8344874681
 51
88.4740968494
  0
ARC
  5
D5
330
1F
100
AcDbEntity
  8
0
  6
Continuous
 62
     7
370
    15
100
AcDbCircle
 10
594.3931825423
 20
326.7256738032
 30
0.0
 40
25.25000000000008
100
AcDbArc
 50
166.0702281669
 51
268.3594850318
  0
ARC
  5
D6
330
1F
100
AcDbEntity
  8
0
  6
Continuous
 62
     7
370
    15
100
AcDbCircle
 10
511.8359421456
 20
264.0275707994
 30
0.0
 40
90.00000000000001
100
AcDbArc
 50
13.2940864579
 51
24.5952257306
  0
ARC
  5
D7
330
1F
100
AcDbEntity
  8
0
  6
Continuous
 62
     7
370
    15
100
AcDbCircle
 10
605.2633928214
 20
286.1027029671
 30
0.0
 40
6.000000000000022
100
AcDbArc
 50
193.2940864579
 51
270.5344611603
  0
ARC
  5
D8
330
1F
100
AcDbEntity
  8
0
  6
Continuous
 62
     7
370
    15
100
AcDbCircle
 10
605.3939844251
 20
272.1033120577
 30
0.0
 40
8.000000000000002
100
AcDbArc
 50
279.3323939831
 51
90.5344611603
  0
ARC
  5
D9
330
1F
100
AcDbEntity
  8
0
  6
Continuous
 62
     7
370
    15
100
AcDbCircle
 10
607.6642488603
 20
258.2886133858
 30
0.0
 40
6.000000000000016
100
AcDbArc
 50
99.3323939831
 51
176.5727686854
  0
ARC
  5
DA
330
1F
100
AcDbEntity
  8
0
  6
Continuous
 62
     7
370
    15
100
AcDbCircle
 10
511.8359421456
 20
264.0275707994
 30
0.0
 40
90.00000000000001
100
AcDbArc
 50
351.3228631315
 51
356.5727686854
  0
LINE
  5
DB
330
1F
100
AcDbEntity
  8
0
  6
Continuous
 62
     7
370
    15
100
AcDbLine
 10
600.805817154
 20
250.4495981602
 30
0.0
 11
600.3530970597
 21
247.4831427644
 31
0.0
  0
LINE
  5
DC
330
1F
100
AcDbEntity
  8
0
  6
Continuous
 62
     7
370
    15
100
AcDbLine
 10
600.2857447227
 20
247.0460477576
 30
0.0
 11
600.3530970597
 21
247.4831427644
 31
0.0
  0
SPLINE
  5
DD
330
1F
100
AcDbEntity
  8
0
  6
Continuous
 62
     7
370
    15
100
AcDbSpline
210
0.0
220
0.0
230
1.0
 70
     8
 71
     3
 72
    26
 73
    22
 74
     0
 42
0.000000001
 43
0.00000001
 40
0.0
 40
0.0
 40
0.0
 40
0.0
 40
0.0547782950280509
 40
0.1086360678415479
 40
0.161681756857421
 40
0.2140288474967615
 40
0.2657954198975646
 40
0.3171035623541664
 40
0.3680786571658018
 40
0.418848554194026
 40
0.4695426558425166
 40
0.5202909443272734
 40
0.5712229869999279
 40
0.6224669573962398
 40
0.6741487083112218
 40
0.7263909287635593
 40
0.779312409869391
 40
0.8330274363663683
 40
0.8876453118761135
 40
0.943270017927646
 40
1.0
 40
1.0
 40
1.0
 40
1.0
 10
577.4338717323745
 20
246.0228275178291
 30
0.0
 10
577.3784186810102
 20
246.0801875580384
 30
0.0
 10
577.2684444394433
 20
246.1939437312888
 30
0.0
 10
577.1143565664713
 20
246.3721188989098
 30
0.0
 10
576.9702301315973
 20
246.5538835091285
 30
0.0
 10
576.8367008391277
 20
246.7398645605589
 30
0.0
 10
576.7136067648561
 20
246.9298969423482
 30
0.0
 10
576.600995204716
 20
247.1240223701556
 30
0.0
 10
576.498858148371
 20
247.3222271597298
 30
0.0
 10
576.4072016763091
 20
247.5245113263557
 30
0.0
 10
576.3260274010556
 20
247.7308704601357
 30
0.0
 10
576.255337168337
 20
247.9413007336778
 30
0.0
 10
576.1951317932836
 20
248.1557978063523
 30
0.0
 10
576.1454109403279
 20
248.374357439424
 30
0.0
 10
576.1061747570277
 20
248.5969754196434
 30
0.0
 10
576.0774176376023
 20
248.8236485057977
 30
0.0
 10
576.0591525108148
 20
249.0543717522431
 30
0.0
 10
576.0513190392271
 20
249.2891492877205
 30
0.0
 10
576.054134993121
 20
249.5279535222745
 30
0.0
 10
576.0667517129134
 20
249.7708814528902
 30
0.0
 10
576.0836845519499
 20
249.9336395480144
 30
0.0
 10
576.0922342588736
 20
250.0158191523791
 30
0.0
  0
SPLINE
  5
DE
330
1F
100
AcDbEntity
  8
0
  6
Continuous
 62
     7
370
    15
100
AcDbSpline
210
0.0
220
0.0
230
1.0
 70
     8
 71
     3
 72
    36
 73
    32
 74
     0
 42
0.000000001
 43
0.00000001
 40
0.0
 40
0.0
 40
0.0
 40
0.0
 40
0.03125
 40
0.03125
 40
0.046875
 40
0.046875
 40
0.0546875
 40
0.0546875
 40
0.0625
 40
0.0625
 40
0.125
 40
0.125
 40
0.1875
 40
0.1875
 40
0.25
 40
0.25
 40
0.375
 40
0.375
 40
0.4375
 40
0.4375
 40
0.5
 40
0.5
 40
0.75
 40
0.75
 40
0.875
 40
0.875
 40
0.90625
 40
0.90625
 40
0.9375
 40
0.9375
 40
1.0
 40
1.0
 40
1.0
 40
1.0
 10
584.522476373511
 20
248.9290973221052
 30
0.0
 10
584.5045507308675
 20
248.8048419466151
 30
0.0
 10
584.4866677013703
 20
248.6938705784659
 30
0.0
 10
584.4599070768434
 20
248.5473395372539
 30
0.0
 10
584.4509975219543
 20
248.5018168586851
 30
0.0
 10
584.4376491695505
 20
248.4385143435849
 30
0.0
 10
584.4332023820707
 20
248.4182437556769
 30
0.0
 10
584.4243141337547
 20
248.3793630807787
 30
0.0
 10
584.4214203226734
 20
248.3669521861513
 30
0.0
 10
584.3675422972445
 20
248.1511409261014
 30
0.0
 10
584.307823178437
 20
247.9620810818309
 30
0.0
 10
584.1639289329745
 20
247.5874207787018
 30
0.0
 10
584.0811360377436
 20
247.4064037671539
 30
0.0
 10
583.8938587022817
 20
247.0569960240913
 30
0.0
 10
583.7941758329284
 20
246.8953531084768
 30
0.0
 10
583.4337804821043
 20
246.3888768862822
 30
0.0
 10
583.1620429543805
 20
246.0952677545495
 30
0.0
 10
582.7072257220328
 20
245.7209165815458
 30
0.0
 10
582.54775148779
 20
245.6071432779771
 30
0.0
 10
582.2130660390504
 20
245.4016175123716
 30
0.0
 10
582.0441618270208
 20
245.312646572484
 30
0.0
 10
581.0972282915666
 20
244.8950287553828
 30
0.0
 10
580.3086162682636
 20
244.802200421037
 30
0.0
 10
579.1294200762932
 20
245.0157442783865
 30
0.0
 10
578.7513220343061
 20
245.1460441506115
 30
0.0
 10
578.3096154555451
 20
245.3752031115274
 30
0.0
 10
578.2232533203653
 20
245.4240829248139
 30
0.0
 10
578.0544874111497
 20
245.5279385935934
 30
0.0
 10
577.9809565128498
 20
245.5771105066499
 30
0.0
 10
577.7560342778232
 20
245.740077615602
 30
0.0
 10
577.5986640437787
 20
245.8705424961116
 30
0.0
 10
577.4338717323744
 20
246.0228275178291
 30
0.0
  0
LINE
  5
DF
330
1F
100
AcDbEntity
  8
0
  6
Continuous
 62
     7
370
    15
100
AcDbLine
 10
584.5570228695
 20
249.5213458857
 30
0.0
 11
584.5224763735
 21
248.9290973221
 31
0.0
  0
ARC
  5
E0
330
1F
100
AcDbEntity
  8
0
  6
Continuous
 62
     7
370
    15
100
AcDbCircle
 10
580.3073110326
 20
249.471855446
 30
0.0
 40
4.249999999999956
100
AcDbArc
 50
0.6672135083
 51
164.6280277719
  0
SPLINE
  5
E1
330
1F
100
AcDbEntity
  8
0
  6
Continuous
 62
     7
370
    15
100
AcDbSpline
210
0.0
220
0.0
230
1.0
 70
     8
 71
     3
 72
    10
 73
     6
 74
     0
 42
0.000000001
 43
0.00000001
 40
0.0
 40
0.0
 40
0.0
 40
0.0
 40
0.3210145760862316
 40
0.6541103268628183
 40
1.0
 40
1.0
 40
1.0
 40
1.0
 10
576.0922342588736
 20
250.0158191523791
 30
0.0
 10
576.1011581022293
 20
250.078838210948
 30
0.0
 10
576.1193416319787
 20
250.2072480093491
 30
0.0
 10
576.1587502086138
 20
250.4016777076926
 30
0.0
 10
576.1922754761113
 20
250.5320500163863
 30
0.0
 10
576.2093539632305
 20
250.5984644542402
 30
0.0
  0
SPLINE
  5
E2
330
1F
100
AcDbEntity
  8
0
  6
Continuous
 62
     7
370
    15
100
AcDbSpline
210
0.0
220
0.0
230
1.0
 70
     8
 71
     3
 72
    29
 73
    25
 74
     0
 42
0.000000001
 43
0.00000001
 40
-0.0011105673030199
 40
-0.0011105673030199
 40
-0.0011105673030199
 40
-0.0011105673030199
 40
0.0
 40
0.0
 40
0.0
 40
0.125
 40
0.125
 40
0.1875
 40
0.1875
 40
0.21875
 40
0.21875
 40
0.25
 40
0.25
 40
0.5
 40
0.5
 40
0.625
 40
0.625
 40
0.6875
 40
0.6875
 40
0.71875
 40
0.71875
 40
0.75
 40
0.75
 40
1.0
 40
1.0
 40
1.0
 40
1.0
 10
591.5511192465962
 20
138.4473618227435
 30
0.0
 10
591.5524262529992
 20
138.4492885791859
 30
0.0
 10
591.5537332594022
 20
138.4512153356284
 30
0.0
 10
591.5550402658051
 20
138.4531420920709
 30
0.0
 10
591.7021504858931
 20
138.6700083321008
 30
0.0
 10
591.8361188906664
 20
138.8764483855159
 30
0.0
 10
592.0173587748553
 20
139.1704691857157
 30
0.0
 10
592.0744866157562
 20
139.2658695724619
 30
0.0
 10
592.1552501963647
 20
139.4050603326006
 30
0.0
 10
592.1813500264439
 20
139.4508056159833
 30
0.0
 10
592.2319069596875
 20
139.540992909422
 30
0.0
 10
592.2524987101689
 20
139.5782735088601
 30
0.0
 10
592.5000085416881
 20
140.0368395649524
 30
0.0
 10
592.6940999135777
 20
140.4536084051104
 30
0.0
 10
592.9476046140811
 20
141.0956433394982
 30
0.0
 10
593.0256934239067
 20
141.3120537598115
 30
0.0
 10
593.1332075031319
 20
141.6402675535576
 30
0.0
 10
593.167442340288
 20
141.7502718453524
 30
0.0
 10
593.216389812144
 20
141.9161778238635
 30
0.0
 10
593.2323048387829
 20
141.9716297401704
 30
0.0
 10
593.2633332974347
 20
142.0828334197238
 30
0.0
 10
593.2804866153216
 20
142.1463358723202
 30
0.0
 10
593.3945413547519
 20
142.5796948486192
 30
0.0
 10
593.486133215524
 20
143.031020305514
 30
0.0
 10
593.5679349464639
 20
143.5484632403714
 30
0.0
  0
ENDSEC
  0
SECTION
  2
OBJECTS
  0
DICTIONARY
  5
C
330
0
100
AcDbDictionary
281
     1
  3
ACAD_GROUP
350
D
  3
ACAD_LAYOUT
350
1A
  3
ACAD_MLINESTYLE
350
17
  3
ACAD_PLOTSETTINGS
350
19
  3
ACAD_PLOTSTYLENAME
350
E
  3
ACAD_SCALELIST
350
47
  0
DICTIONARY
  5
D
102
{ACAD_REACTORS
330
C
102
}
330
C
100
AcDbDictionary
281
     1
  0
DICTIONARY
  5
1A
102
{ACAD_REACTORS
330
C
102
}
330
C
100
AcDbDictionary
281
     1
  3
Layout1
350
1E
  3
Layout2
350
26
  3
Model
350
22
  0
DICTIONARY
  5
17
102
{ACAD_REACTORS
330
C
102
}
330
C
100
AcDbDictionary
281
     1
  3
Standard
350
18
  0
DICTIONARY
  5
19
102
{ACAD_REACTORS
330
C
102
}
330
C
100
AcDbDictionary
281
     1
  0
ACDBDICTIONARYWDFLT
  5
E
102
{ACAD_REACTORS
330
C
102
}
330
C
100
AcDbDictionary
281
     1
  3
Normal
350
F
100
AcDbDictionaryWithDefault
340
F
  0
DICTIONARY
  5
47
102
{ACAD_REACTORS
330
C
102
}
330
C
100
AcDbDictionary
281
     1
  3
A0
350
48
  3
A1
350
49
  3
A2
350
4A
  3
A3
350
4B
  3
A4
350
4C
  3
A5
350
4D
  3
A6
350
4E
  3
A7
350
4F
  3
A8
350
50
  3
A9
350
51
  3
B0
350
52
  3
B1
350
53
  3
B2
350
54
  3
B3
350
55
  3
B4
350
56
  3
B5
350
57
  3
B6
350
58
  3
B7
350
59
  3
B8
350
5A
  3
B9
350
5B
  3
C0
350
5C
  3
C1
350
5D
  3
C2
350
5E
  3
C3
350
5F
  3
C4
350
60
  3
C5
350
61
  3
C6
350
62
  3
C7
350
63
  3
C8
350
64
  3
C9
350
65
  3
D0
350
66
  3
D1
350
67
  3
D2
350
68
  0
LAYOUT
  5
1E
102
{ACAD_REACTORS
330
1A
102
}
330
1A
100
AcDbPlotSettings
  1

  2
none_device
  4

  6

 40
0.0
 41
0.0
 42
0.0
 43
0.0
 44
0.0
 45
0.0
 46
0.0
 47
0.0
 48
0.0
 49
0.0
140
0.0
141
0.0
142
1.0
143
1.0
 70
   688
 72
     1
 73
     0
 74
     5
  7

 75
    16
147
1.0
148
0.0
149
0.0
100
AcDbLayout
  1
Layout1
 70
     1
 71
     1
 10
0.0
 20
0.0
 11
420.0
 21
297.0
 12
0.0
 22
0.0
 32
0.0
 14
1.0000000000E+20
 24
1.0000000000E+20
 34
1.0000000000E+20
 15
-1.0000000000E+20
 25
-1.0000000000E+20
 35
-1.0000000000E+20
146
0.0
 13
0.0
 23
0.0
 33
0.0
 16
1.0
 26
0.0
 36
0.0
 17
0.0
 27
1.0
 37
0.0
 76
     0
330
1B
  0
LAYOUT
  5
26
102
{ACAD_REACTORS
330
1A
102
}
330
1A
100
AcDbPlotSettings
  1

  2
none_device
  4

  6

 40
0.0
 41
0.0
 42
0.0
 43
0.0
 44
0.0
 45
0.0
 46
0.0
 47
0.0
 48
0.0
 49
0.0
140
0.0
141
0.0
142
1.0
143
1.0
 70
   688
 72
     1
 73
     0
 74
     5
  7

 75
    16
147
1.0
148
0.0
149
0.0
100
AcDbLayout
  1
Layout2
 70
     1
 71
     2
 10
0.0
 20
0.0
 11
0.0
 21
0.0
 12
0.0
 22
0.0
 32
0.0
 14
0.0
 24
0.0
 34
0.0
 15
0.0
 25
0.0
 35
0.0
146
0.0
 13
0.0
 23
0.0
 33
0.0
 16
1.0
 26
0.0
 36
0.0
 17
0.0
 27
1.0
 37
0.0
 76
     0
330
23
  0
LAYOUT
  5
22
102
{ACAD_REACTORS
330
1A
102
}
330
1A
100
AcDbPlotSettings
  1

  2
none_device
  4
Letter_(8.50_x_11.00_Inches)
  6

 40
6.35
 41
6.35
 42
6.35000508
 43
6.35000508
 44
215.9
 45
279.4
 46
0.0
 47
0.0
 48
0.0
 49
0.0
140
0.0
141
0.0
142
1.0
143
1.0
 70
  1712
 72
     1
 73
     0
 74
     0
  7

 75
     0
147
1.0
148
0.0
149
0.0
100
AcDbLayout
  1
Model
 70
     1
 71
     0
 10
0.0
 20
0.0
 11
841.0
 21
594.0
 12
0.0
 22
0.0
 32
0.0
 14
0.0
 24
0.0
 34
0.0
 15
841.0
 25
594.0
 35
0.0
146
0.0
 13
0.0
 23
0.0
 33
0.0
 16
1.0
 26
0.0
 36
0.0
 17
0.0
 27
1.0
 37
0.0
 76
     0
330
1F
331
29
  0
MLINESTYLE
  5
18
102
{ACAD_REACTORS
330
17
102
}
330
17
100
AcDbMlineStyle
  2
Standard
 70
     0
  3

 62
   256
 51
90.0
 52
90.0
 71
     2
 49
0.5
 62
   256
  6
BYLAYER
 49
-0.5
 62
   256
  6
BYLAYER
  0
ACDBPLACEHOLDER
  5
F
102
{ACAD_REACTORS
330
E
102
}
330
E
  0
SCALE
  5
48
102
{ACAD_REACTORS
330
47
102
}
330
47
100
AcDbScale
 70
     0
300
1:1
140
1.0
141
1.0
290
     1
  0
SCALE
  5
49
102
{ACAD_REACTORS
330
47
102
}
330
47
100
AcDbScale
 70
     0
300
1:2
140
1.0
141
2.0
290
     0
  0
SCALE
  5
4A
102
{ACAD_REACTORS
330
47
102
}
330
47
100
AcDbScale
 70
     0
300
1:4
140
1.0
141
4.0
290
     0
  0
SCALE
  5
4B
102
{ACAD_REACTORS
330
47
102
}
330
47
100
AcDbScale
 70
     0
300
1:5
140
1.0
141
5.0
290
     0
  0
SCALE
  5
4C
102
{ACAD_REACTORS
330
47
102
}
330
47
100
AcDbScale
 70
     0
300
1:8
140
1.0
141
8.0
290
     0
  0
SCALE
  5
4D
102
{ACAD_REACTORS
330
47
102
}
330
47
100
AcDbScale
 70
     0
300
1:10
140
1.0
141
10.0
290
     0
  0
SCALE
  5
4E
102
{ACAD_REACTORS
330
47
102
}
330
47
100
AcDbScale
 70
     0
300
1:16
140
1.0
141
16.0
290
     0
  0
SCALE
  5
4F
102
{ACAD_REACTORS
330
47
102
}
330
47
100
AcDbScale
 70
     0
300
1:20
140
1.0
141
20.0
290
     0
  0
SCALE
  5
50
102
{ACAD_REACTORS
330
47
102
}
330
47
100
AcDbScale
 70
     0
300
1:30
140
1.0
141
30.0
290
     0
  0
SCALE
  5
51
102
{ACAD_REACTORS
330
47
102
}
330
47
100
AcDbScale
 70
     0
300
1:40
140
1.0
141
40.0
290
     0
  0
SCALE
  5
52
102
{ACAD_REACTORS
330
47
102
}
330
47
100
AcDbScale
 70
     0
300
1:50
140
1.0
141
50.0
290
     0
  0
SCALE
  5
53
102
{ACAD_REACTORS
330
47
102
}
330
47
100
AcDbScale
 70
     0
300
1:100
140
1.0
141
100.0
290
     0
  0
SCALE
  5
54
102
{ACAD_REACTORS
330
47
102
}
330
47
100
AcDbScale
 70
     0
300
2:1
140
2.0
141
1.0
290
     0
  0
SCALE
  5
55
102
{ACAD_REACTORS
330
47
102
}
330
47
100
AcDbScale
 70
     0
300
4:1
140
4.0
141
1.0
290
     0
  0
SCALE
  5
56
102
{ACAD_REACTORS
330
47
102
}
330
47
100
AcDbScale
 70
     0
300
8:1
140
8.0
141
1.0
290
     0
  0
SCALE
  5
57
102
{ACAD_REACTORS
330
47
102
}
330
47
100
AcDbScale
 70
     0
300
10:1
140
10.0
141
1.0
290
     0
  0
SCALE
  5
58
102
{ACAD_REACTORS
330
47
102
}
330
47
100
AcDbScale
 70
     0
300
100:1
140
100.0
141
1.0
290
     0
  0
SCALE
  5
59
102
{ACAD_REACTORS
330
47
102
}
330
47
100
AcDbScale
 70
     0
300
1/128" = 1'-0"
140
0.0078125
141
12.0
290
     0
  0
SCALE
  5
5A
102
{ACAD_REACTORS
330
47
102
}
330
47
100
AcDbScale
 70
     0
300
1/64" = 1'-0"
140
0.015625
141
12.0
290
     0
  0
SCALE
  5
5B
102
{ACAD_REACTORS
330
47
102
}
330
47
100
AcDbScale
 70
     0
300
1/32" = 1'-0"
140
0.03125
141
12.0
290
     0
  0
SCALE
  5
5C
102
{ACAD_REACTORS
330
47
102
}
330
47
100
AcDbScale
 70
     0
300
1/16" = 1'-0"
140
0.0625
141
12.0
290
     0
  0
SCALE
  5
5D
102
{ACAD_REACTORS
330
47
102
}
330
47
100
AcDbScale
 70
     0
300
3/32" = 1'-0"
140
0.09375
141
12.0
290
     0
  0
SCALE
  5
5E
102
{ACAD_REACTORS
330
47
102
}
330
47
100
AcDbScale
 70
     0
300
1/8" = 1'-0"
140
0.125
141
12.0
290
     0
  0
SCALE
  5
5F
102
{ACAD_REACTORS
330
47
102
}
330
47
100
AcDbScale
 70
     0
300
3/16" = 1'-0"
140
0.1875
141
12.0
290
     0
  0
SCALE
  5
60
102
{ACAD_REACTORS
330
47
102
}
330
47
100
AcDbScale
 70
     0
300
1/4" = 1'-0"
140
0.25
141
12.0
290
     0
  0
SCALE
  5
61
102
{ACAD_REACTORS
330
47
102
}
330
47
100
AcDbScale
 70
     0
300
3/8" = 1'-0"
140
0.375
141
12.0
290
     0
  0
SCALE
  5
62
102
{ACAD_REACTORS
330
47
102
}
330
47
100
AcDbScale
 70
     0
300
1/2" = 1'-0"
140
0.5
141
12.0
290
     0
  0
SCALE
  5
63
102
{ACAD_REACTORS
330
47
102
}
330
47
100
AcDbScale
 70
     0
300
3/4" = 1'-0"
140
0.75
141
12.0
290
     0
  0
SCALE
  5
64
102
{ACAD_REACTORS
330
47
102
}
330
47
100
AcDbScale
 70
     0
300
1" = 1'-0"
140
1.0
141
12.0
290
     0
  0
SCALE
  5
65
102
{ACAD_REACTORS
330
47
102
}
330
47
100
AcDbScale
 70
     0
300
1-1/2" = 1'-0"
140
1.5
141
12.0
290
     0
  0
SCALE
  5
66
102
{ACAD_REACTORS
330
47
102
}
330
47
100
AcDbScale
 70
     0
300
3" = 1'-0"
140
3.0
141
12.0
290
     0
  0
SCALE
  5
67
102
{ACAD_REACTORS
330
47
102
}
330
47
100
AcDbScale
 70
     0
300
6" = 1'-0"
140
6.0
141
12.0
290
     0
  0
SCALE
  5
68
102
{ACAD_REACTORS
330
47
102
}
330
47
100
AcDbScale
 70
     0
300
1'-0" = 1'-0"
140
12.0
141
12.0
290
     0
  0
ENDSEC
  0
EOF
