  0
SECTION
  2
HEADER
  9
$ACADVER
  1
AC1015
  9
$ACADMAINTVER
 70
     6
  9
$DWGCODEPAGE
  3
ANSI_1252
  9
$INSBASE
 10
0.0
 20
0.0
 30
0.0
  9
$EXTMIN
 10
0.0
 20
0.0
 30
0.0
  9
$EXTMAX
 10
841.0
 20
594.0
 30
0.0
  9
$LIMMIN
 10
0.0
 20
0.0
  9
$LIMMAX
 10
841.0
 20
594.0
  9
$ORTHOMODE
 70
     0
  9
$REGENMODE
 70
     1
  9
$FILLMODE
 70
     1
  9
$QTEXTMODE
 70
     0
  9
$MIRRTEXT
 70
     1
  9
$LTSCALE
 40
1.0
  9
$ATTMODE
 70
     1
  9
$TEXTSIZE
 40
3.5
  9
$TRACEWID
 40
1.0
  9
$TEXTSTYLE
  7
Standard
  9
$CLAYER
  8
0
  9
$CELTYPE
  6
ByLayer
  9
$CECOLOR
 62
   256
  9
$CELTSCALE
 40
1.0
  9
$DISPSILH
 70
     0
  9
$DIMSCALE
 40
1.0
  9
$DIMASZ
 40
3.556
  9
$DIMEXO
 40
1.0
  9
$DIMDLI
 40
3.75
  9
$DIMRND
 40
0.0
  9
$DIMDLE
 40
0.0
  9
$DIMEXE
 40
1.0
  9
$DIMTP
 40
0.0
  9
$DIMTM
 40
0.0
  9
$DIMTXT
 40
3.5
  9
$DIMCEN
 40
2.5
  9
$DIMTSZ
 40
0.0
  9
$DIMTOL
 70
     0
  9
$DIMLIM
 70
     0
  9
$DIMTIH
 70
     1
  9
$DIMTOH
 70
     1
  9
$DIMSE1
 70
     0
  9
$DIMSE2
 70
     0
  9
$DIMTAD
 70
     1
  9
$DIMZIN
 70
     0
  9
$DIMBLK
  1

  9
$DIMASO
 70
     1
  9
$DIMSHO
 70
     1
  9
$DIMPOST
  1

  9
$DIMAPOST
  1

  9
$DIMALT
 70
     0
  9
$DIMALTD
 70
     3
  9
$DIMALTF
 40
0.0393700787
  9
$DIMLFAC
 40
1.0
  9
$DIMTOFL
 70
     1
  9
$DIMTVP
 40
0.0
  9
$DIMTIX
 70
     0
  9
$DIMSOXD
 70
     0
  9
$DIMSAH
 70
     0
  9
$DIMBLK1
  1

  9
$DIMBLK2
  1

  9
$DIMSTYLE
  2
ISO-25
  9
$DIMCLRD
 70
     0
  9
$DIMCLRE
 70
     0
  9
$DIMCLRT
 70
     0
  9
$DIMTFAC
 40
1.0
  9
$DIMGAP
 40
1.524
  9
$DIMJUST
 70
     0
  9
$DIMSD1
 70
     0
  9
$DIMSD2
 70
     0
  9
$DIMTOLJ
 70
     0
  9
$DIMTZIN
 70
     0
  9
$DIMALTZ
 70
     0
  9
$DIMALTTZ
 70
     0
  9
$DIMUPT
 70
     0
  9
$DIMDEC
 70
     2
  9
$DIMTDEC
 70
     2
  9
$DIMALTU
 70
     2
  9
$DIMALTTD
 70
     3
  9
$DIMTXSTY
  7
Standard
  9
$DIMAUNIT
 70
     0
  9
$DIMADEC
 70
     2
  9
$DIMALTRND
 40
0.0
  9
$DIMAZIN
 70
     0
  9
$DIMDSEP
 70
    44
  9
$DIMATFIT
 70
     3
  9
$DIMFRAC
 70
     0
  9
$DIMLDRBLK
  1

  9
$DIMLUNIT
 70
     2
  9
$DIMLWD
 70
    -2
  9
$DIMLWE
 70
    -2
  9
$DIMTMOVE
 70
     0
  9
$LUNITS
 70
     2
  9
$LUPREC
 70
     5
  9
$SKETCHINC
 40
1.0
  9
$FILLETRAD
 40
10.0
  9
$AUNITS
 70
     0
  9
$AUPREC
 70
     2
  9
$MENU
  1
.
  9
$ELEVATION
 40
0.0
  9
$PELEVATION
 40
0.0
  9
$THICKNESS
 40
0.0
  9
$LIMCHECK
 70
     0
  9
$CHAMFERA
 40
0.0
  9
$CHAMFERB
 40
0.0
  9
$CHAMFERC
 40
0.0
  9
$CHAMFERD
 40
0.0
  9
$SKPOLY
 70
     0
  9
$TDCREATE
 40
2457821.630267153
  9
$TDUCREATE
 40
2457821.630267153
  9
$TDUPDATE
 40
2457821.630267569
  9
$TDUUPDATE
 40
2457821.630267569
  9
$TDINDWG
 40
0.0000000116
  9
$TDUSRTIMER
 40
0.0000000116
  9
$USRTIMER
 70
     1
  9
$ANGBASE
 50
0.0
  9
$ANGDIR
 70
     0
  9
$PDMODE
 70
     0
  9
$PDSIZE
 40
-1.0
  9
$PLINEWID
 40
0.0
  9
$SPLFRAME
 70
     0
  9
$SPLINETYPE
 70
     6
  9
$SPLINESEGS
 70
     8
  9
$HANDSEED
  5
A0
  9
$SURFTAB1
 70
     6
  9
$SURFTAB2
 70
     6
  9
$SURFTYPE
 70
     6
  9
$SURFU
 70
     6
  9
$SURFV
 70
     6
  9
$UCSBASE
  2

  9
$UCSNAME
  2

  9
$UCSORG
 10
0.0
 20
0.0
 30
0.0
  9
$UCSXDIR
 10
1.0
 20
0.0
 30
0.0
  9
$UCSYDIR
 10
0.0
 20
1.0
 30
0.0
  9
$UCSORTHOREF
  2

  9
$UCSORTHOVIEW
 70
     0
  9
$UCSORGTOP
 10
0.0
 20
0.0
 30
0.0
  9
$UCSORGBOTTOM
 10
0.0
 20
0.0
 30
0.0
  9
$UCSORGLEFT
 10
0.0
 20
0.0
 30
0.0
  9
$UCSORGRIGHT
 10
0.0
 20
0.0
 30
0.0
  9
$UCSORGFRONT
 10
0.0
 20
0.0
 30
0.0
  9
$UCSORGBACK
 10
0.0
 20
0.0
 30
0.0
  9
$PUCSBASE
  2

  9
$PUCSNAME
  2

  9
$PUCSORG
 10
0.0
 20
0.0
 30
0.0
  9
$PUCSXDIR
 10
1.0
 20
0.0
 30
0.0
  9
$PUCSYDIR
 10
0.0
 20
1.0
 30
0.0
  9
$PUCSORTHOREF
  2

  9
$PUCSORTHOVIEW
 70
     0
  9
$PUCSORGTOP
 10
0.0
 20
0.0
 30
0.0
  9
$PUCSORGBOTTOM
 10
0.0
 20
0.0
 30
0.0
  9
$PUCSORGLEFT
 10
0.0
 20
0.0
 30
0.0
  9
$PUCSORGRIGHT
 10
0.0
 20
0.0
 30
0.0
  9
$PUCSORGFRONT
 10
0.0
 20
0.0
 30
0.0
  9
$PUCSORGBACK
 10
0.0
 20
0.0
 30
0.0
  9
$USERI1
 70
     0
  9
$USERI2
 70
     0
  9
$USERI3
 70
     0
  9
$USERI4
 70
     0
  9
$USERI5
 70
     0
  9
$USERR1
 40
0.0
  9
$USERR2
 40
0.0
  9
$USERR3
 40
0.0
  9
$USERR4
 40
0.0
  9
$USERR5
 40
0.0
  9
$WORLDVIEW
 70
     1
  9
$SHADEDGE
 70
     3
  9
$SHADEDIF
 70
    70
  9
$TILEMODE
 70
     1
  9
$MAXACTVP
 70
    64
  9
$PINSBASE
 10
0.0
 20
0.0
 30
0.0
  9
$PLIMCHECK
 70
     0
  9
$PEXTMIN
 10
1.0000000000E+20
 20
1.0000000000E+20
 30
1.0000000000E+20
  9
$PEXTMAX
 10
-1.0000000000E+20
 20
-1.0000000000E+20
 30
-1.0000000000E+20
  9
$PLIMMIN
 10
0.0
 20
0.0
  9
$PLIMMAX
 10
420.0
 20
297.0
  9
$UNITMODE
 70
     0
  9
$VISRETAIN
 70
     1
  9
$PLINEGEN
 70
     0
  9
$PSLTSCALE
 70
     1
  9
$TREEDEPTH
 70
  3020
  9
$CMLSTYLE
  2
Standard
  9
$CMLJUST
 70
     0
  9
$CMLSCALE
 40
20.0
  9
$PROXYGRAPHICS
 70
     1
  9
$MEASUREMENT
 70
     1
  9
$CELWEIGHT
370
    -1
  9
$ENDCAPS
280
     0
  9
$JOINSTYLE
280
     0
  9
$LWDISPLAY
290
     1
  9
$INSUNITS
 70
     4
  9
$HYPERLINKBASE
  1

  9
$STYLESHEET
  1

  9
$XEDIT
290
     1
  9
$CEPSNTYPE
380
     0
  9
$PSTYLEMODE
290
     1
  9
$FINGERPRINTGUID
  2
{C2BEF1EB-9758-4ECE-9532-BFE2B6D6E408}
  9
$VERSIONGUID
  2
{FAEB1C32-E019-11D5-929B-00C0DF256EC4}
  9
$EXTNAMES
290
     1
  9
$PSVPSCALE
 40
0.0
  9
$OLESTARTUP
290
     0
  0
ENDSEC
  0
SECTION
  2
CLASSES
  0
CLASS
  1
ACDBDICTIONARYWDFLT
  2
AcDbDictionaryWithDefault
  3
ObjectDBX Classes
 90
        0
280
     0
281
     0
  0
CLASS
  1
VISUALSTYLE
  2
AcDbVisualStyle
  3
ObjectDBX Classes
 90
     4095
280
     0
281
     0
  0
CLASS
  1
MATERIAL
  2
AcDbMaterial
  3
ObjectDBX Classes
 90
     1153
280
     0
281
     0
  0
CLASS
  1
SCALE
  2
AcDbScale
  3
ObjectDBX Classes
 90
     1153
280
     0
281
     0
  0
CLASS
  1
TABLESTYLE
  2
AcDbTableStyle
  3
ObjectDBX Classes
 90
     4095
280
     0
281
     0
  0
CLASS
  1
MLEADERSTYLE
  2
AcDbMLeaderStyle
  3
ACDB_MLEADERSTYLE_CLASS
 90
     4095
280
     0
281
     0
  0
CLASS
  1
SUN
  2
AcDbSun
  3
SCENEOE
 90
     1153
280
     0
281
     0
  0
CLASS
  1
ACDBPLACEHOLDER
  2
AcDbPlaceHolder
  3
ObjectDBX Classes
 90
        0
280
     0
281
     0
  0
CLASS
  1
LAYOUT
  2
AcDbLayout
  3
ObjectDBX Classes
 90
        0
280
     0
281
     0
  0
ENDSEC
  0
SECTION
  2
TABLES
  0
TABLE
  2
VPORT
  5
8
330
0
100
AcDbSymbolTable
 70
     1
  0
VPORT
  5
29
330
8
100
AcDbSymbolTableRecord
100
AcDbViewportTableRecord
  2
*Active
 70
     0
 10
0.0
 20
0.0
 11
1.0
 21
1.0
 12
420.5
 22
297.0
 13
0.0
 23
0.0
 14
10.0
 24
10.0
 15
10.0
 25
10.0
 16
0.0
 26
0.0
 36
1.0
 17
0.0
 27
0.0
 37
0.0
 40
594.0
 41
1.4158249158
 42
50.0
 43
0.0
 44
0.0
 50
0.0
 51
0.0
 71
     0
 72
  2000
 73
     1
 74
     3
 75
     0
 76
     0
 77
     0
 78
     0
281
     0
 65
     1
110
0.0
120
0.0
130
0.0
111
1.0
121
0.0
131
0.0
112
0.0
122
1.0
132
0.0
 79
     0
146
0.0
  0
ENDTAB
  0
TABLE
  2
LTYPE
  5
5
330
0
100
AcDbSymbolTable
 70
     6
  0
LTYPE
  5
14
330
5
100
AcDbSymbolTableRecord
100
AcDbLinetypeTableRecord
  2
ByBlock
 70
     0
  3

 72
    65
 73
     0
 40
0.0
  0
LTYPE
  5
15
330
5
100
AcDbSymbolTableRecord
100
AcDbLinetypeTableRecord
  2
ByLayer
 70
     0
  3

 72
    65
 73
     0
 40
0.0
  0
LTYPE
  5
16
330
5
100
AcDbSymbolTableRecord
100
AcDbLinetypeTableRecord
  2
Continuous
 70
     0
  3
Solid line
 72
    65
 73
     0
 40
0.0
  0
LTYPE
  5
6E
330
5
100
AcDbSymbolTableRecord
100
AcDbLinetypeTableRecord
  2
HIDDEN
 70
     0
  3
Hidden __ __ __ __ __ __ __ __ __ __ __ __ __ __
 72
    65
 73
     2
 40
1.905
 49
1.27
 74
     0
 49
-0.635
 74
     0
  0
LTYPE
  5
6F
330
5
100
AcDbSymbolTableRecord
100
AcDbLinetypeTableRecord
  2
PHANTOM
 70
     0
  3
Phantom ______  __  __  ______  __  __  ______
 72
    65
 73
     6
 40
12.7
 49
6.35
 74
     0
 49
-1.27
 74
     0
 49
1.27
 74
     0
 49
-1.27
 74
     0
 49
1.27
 74
     0
 49
-1.27
 74
     0
  0
LTYPE
  5
70
330
5
100
AcDbSymbolTableRecord
100
AcDbLinetypeTableRecord
  2
CENTER
 70
     0
  3
Center ____ _ ____ _ ____ _ ____ _ ____ _ ____
 72
    65
 73
     4
 40
10.16
 49
6.35
 74
     0
 49
-1.27
 74
     0
 49
1.27
 74
     0
 49
-1.27
 74
     0
  0
LTYPE
  5
71
330
5
100
AcDbSymbolTableRecord
100
AcDbLinetypeTableRecord
  2
CENTERX2
 70
     0
  3
Center (2x) ________  __  ________  __  _____
 72
    65
 73
     4
 40
20.32
 49
12.7
 74
     0
 49
-2.54
 74
     0
 49
2.54
 74
     0
 49
-2.54
 74
     0
  0
LTYPE
  5
72
330
5
100
AcDbSymbolTableRecord
100
AcDbLinetypeTableRecord
  2
DOT2
 70
     0
  3
Dot (.5x) ........................................
 72
    65
 73
     2
 40
0.635
 49
0.0
 74
     0
 49
-0.635
 74
     0
  0
ENDTAB
  0
TABLE
  2
LAYER
  5
2
330
0
100
AcDbSymbolTable
 70
     2
  0
LAYER
  5
10
330
2
100
AcDbSymbolTableRecord
100
AcDbLayerTableRecord
  2
0
 70
     0
 62
     7
  6
Continuous
370
    -3
390
F
  0
LAYER
  5
73
330
2
100
AcDbSymbolTableRecord
100
AcDbLayerTableRecord
  2
FORMAT
 70
     0
 62
     7
  6
Continuous
370
    -3
390
F
  0
ENDTAB
  0
TABLE
  2
STYLE
  5
3
330
0
100
AcDbSymbolTable
 70
     1
  0
STYLE
  5
11
330
3
100
AcDbSymbolTableRecord
100
AcDbTextStyleTableRecord
  2
Standard
 70
     0
 40
0.0
 41
1.0
 50
0.0
 71
     0
 42
3.5
  3
txt
  4

  0
ENDTAB
  0
TABLE
  2
VIEW
  5
6
330
0
100
AcDbSymbolTable
 70
     0
  0
ENDTAB
  0
TABLE
  2
UCS
  5
7
330
0
100
AcDbSymbolTable
 70
     0
  0
ENDTAB
  0
TABLE
  2
APPID
  5
9
330
0
100
AcDbSymbolTable
 70
     1
  0
APPID
  5
12
330
9
100
AcDbSymbolTableRecord
100
AcDbRegAppTableRecord
  2
ACAD
 70
     0
  0
ENDTAB
  0
TABLE
  2
DIMSTYLE
  5
A
330
0
100
AcDbSymbolTable
 70
     1
100
AcDbDimStyleTable
  0
DIMSTYLE
105
27
330
A
100
AcDbSymbolTableRecord
100
AcDbDimStyleTableRecord
  2
ISO-25
 70
     0
 41
2.5
 42
0.625
 43
3.75
 44
1.25
 73
     0
 74
     0
 77
     1
 78
     8
140
2.5
141
2.5
143
0.0393700787
147
0.625
171
     3
172
     1
178
     0
271
     2
272
     2
274
     3
278
    44
283
     0
284
     8
340
11
  0
ENDTAB
  0
TABLE
  2
BLOCK_RECORD
  5
1
330
0
100
AcDbSymbolTable
 70
     1
  0
BLOCK_RECORD
  5
1F
330
1
100
AcDbSymbolTableRecord
100
AcDbBlockTableRecord
  2
*Model_Space
340
22
  0
BLOCK_RECORD
  5
1B
330
1
100
AcDbSymbolTableRecord
100
AcDbBlockTableRecord
  2
*Paper_Space
340
1E
  0
BLOCK_RECORD
  5
23
330
1
100
AcDbSymbolTableRecord
100
AcDbBlockTableRecord
  2
*Paper_Space0
340
26
  0
ENDTAB
  0
ENDSEC
  0
SECTION
  2
BLOCKS
  0
BLOCK
  5
20
330
1F
100
AcDbEntity
  8
0
100
AcDbBlockBegin
  2
*Model_Space
 70
     0
 10
0.0
 20
0.0
 30
0.0
  3
*Model_Space
  1

  0
ENDBLK
  5
21
330
1F
100
AcDbEntity
  8
0
100
AcDbBlockEnd
  0
BLOCK
  5
1C
330
1B
100
AcDbEntity
 67
     1
  8
0
100
AcDbBlockBegin
  2
*Paper_Space
 70
     0
 10
0.0
 20
0.0
 30
0.0
  3
*Paper_Space
  1

  0
ENDBLK
  5
1D
330
1B
100
AcDbEntity
 67
     1
  8
0
100
AcDbBlockEnd
  0
BLOCK
  5
24
330
23
100
AcDbEntity
  8
0
100
AcDbBlockBegin
  2
*Paper_Space0
 70
     0
 10
0.0
 20
0.0
 30
0.0
  3
*Paper_Space0
  1

  0
ENDBLK
  5
25
330
23
100
AcDbEntity
  8
0
100
AcDbBlockEnd
  0
ENDSEC
  0
SECTION
  2
ENTITIES
  0
CIRCLE
  5
74
330
1F
100
AcDbEntity
  8
0
  6
Continuous
 62
     7
370
    15
100
AcDbCircle
 10
213.9866035094
 20
72.2424495175
 30
0.0
 40
10.25
  0
CIRCLE
  5
75
330
1F
100
AcDbEntity
  8
0
  6
Continuous
 62
     7
370
    15
100
AcDbCircle
 10
211.3439395474
 20
90.0474018393
 30
0.0
 40
4.25
  0
CIRCLE
  5
76
330
1F
100
AcDbEntity
  8
0
  6
Continuous
 62
     7
370
    15
100
AcDbCircle
 10
231.7915558313
 20
74.8851134794
 30
0.0
 40
4.25
  0
CIRCLE
  5
77
330
1F
100
AcDbEntity
  8
0
  6
Continuous
 62
     7
370
    15
100
AcDbCircle
 10
216.6292674713
 20
54.4374971956
 30
0.0
 40
4.25
  0
CIRCLE
  5
78
330
1F
100
AcDbEntity
  8
0
  6
Continuous
 62
     7
370
    15
100
AcDbCircle
 10
196.1816511875
 20
69.5997855555
 30
0.0
 40
4.25
  0
CIRCLE
  5
79
330
1F
100
AcDbEntity
  8
0
  6
Continuous
 62
     7
370
    15
100
AcDbCircle
 10
222.9872108884
 20
126.8561515864
 30
0.0
 40
4.25
  0
CIRCLE
  5
7A
330
1F
100
AcDbEntity
  8
0
  6
Continuous
 62
     7
370
    15
100
AcDbCircle
 10
59.323463214
 20
39.3230673386
 30
0.0
 40
4.249999999999979
  0
CIRCLE
  5
7B
330
1F
100
AcDbEntity
  8
0
  6
Continuous
 62
     7
370
    15
100
AcDbCircle
 10
122.3725316619
 20
39.3424495175
 30
0.0
 40
4.25
  0
CIRCLE
  5
7C
330
1F
100
AcDbEntity
  8
0
  6
Continuous
 62
     7
370
    15
100
AcDbCircle
 10
377.8457063147
 20
380.9498882266
 30
0.0
 40
4.24999999999998
  0
CIRCLE
  5
7D
330
1F
100
AcDbEntity
  8
0
  6
Continuous
 62
     7
370
    15
100
AcDbCircle
 10
389.6694048771
 20
400.4695207526
 30
0.0
 40
4.249999999999992
  0
CIRCLE
  5
7E
330
1F
100
AcDbEntity
  8
0
  6
Continuous
 62
     7
370
    15
100
AcDbCircle
 10
401.4931034395
 20
419.9891532785
 30
0.0
 40
4.249999999999992
  0
CIRCLE
  5
7F
330
1F
100
AcDbEntity
  8
0
  6
Continuous
 62
     7
370
    15
100
AcDbCircle
 10
393.3507440911
 20
384.898787257
 30
0.0
 40
4.250000000000048
  0
CIRCLE
  5
80
330
1F
100
AcDbEntity
  8
0
  6
Continuous
 62
     7
370
    15
100
AcDbCircle
 10
405.1744426535
 20
404.4184197829
 30
0.0
 40
4.24999999999988
  0
CIRCLE
  5
81
330
1F
100
AcDbEntity
  8
0
  6
Continuous
 62
     7
370
    15
100
AcDbCircle
 10
381.5270455287
 20
365.379154731
 30
0.0
 40
4.249999999999936
  0
CIRCLE
  5
82
330
1F
100
AcDbEntity
  8
0
  6
Continuous
 62
     7
370
    15
100
AcDbCircle
 10
318.3119948141
 20
251.7840079898
 30
0.0
 40
4.249999999999936
  0
SPLINE
  5
83
330
1F
100
AcDbEntity
  8
0
  6
Continuous
 62
     7
370
    15
100
AcDbSpline
210
0.0
220
0.0
230
1.0
 70
     8
 71
     3
 72
    64
 73
    60
 74
     0
 42
0.000000001
 43
0.00000001
 40
0.0
 40
0.0
 40
0.0
 40
0.0
 40
0.125
 40
0.125
 40
0.1875
 40
0.1875
 40
0.21875
 40
0.21875
 40
0.234375
 40
0.234375
 40
0.2421875
 40
0.2421875
 40
0.24609375
 40
0.24609375
 40
0.25
 40
0.25
 40
0.375
 40
0.375
 40
0.4375
 40
0.4375
 40
0.46875
 40
0.46875
 40
0.484375
 40
0.484375
 40
0.4921875
 40
0.4921875
 40
0.49609375
 40
0.49609375
 40
0.5
 40
0.5
 40
0.625
 40
0.625
 40
0.6875
 40
0.6875
 40
0.71875
 40
0.71875
 40
0.734375
 40
0.734375
 40
0.7421875
 40
0.7421875
 40
0.74609375
 40
0.74609375
 40
0.75
 40
0.75
 40
0.8125
 40
0.8125
 40
0.84375
 40
0.84375
 40
0.859375
 40
0.859375
 40
0.875
 40
0.875
 40
0.90625
 40
0.90625
 40
0.921875
 40
0.921875
 40
0.9375
 40
0.9375
 40
1.0
 40
1.0
 40
1.0
 40
1.0
 10
291.4924151429181
 20
229.8463645477327
 30
0.0
 10
289.7523700210964
 20
229.3783488759026
 30
0.0
 10
288.1136610385582
 20
228.9212241437538
 30
0.0
 10
285.807601773676
 20
228.2518734550524
 30
0.0
 10
285.0642493868696
 20
228.031479293739
 30
0.0
 10
283.9872218588911
 20
227.7049721541493
 30
0.0
 10
283.6345461916036
 20
227.5968171246828
 30
0.0
 10
283.11503295373
 20
227.4356056060782
 30
0.0
 10
282.9434452516151
 20
227.3820386041425
 30
0.0
 10
282.6884387642073
 20
227.3019433576378
 30
0.0
 10
282.6038324460321
 20
227.2752874848694
 30
0.0
 10
282.4775167352104
 20
227.2353674898164
 30
0.0
 10
282.4355104593433
 20
227.2220714604819
 30
0.0
 10
282.3516958297563
 20
227.1955006731798
 30
0.0
 10
282.3198856224102
 20
227.1854054541049
 30
0.0
 10
280.6135368347377
 20
226.6427646352473
 30
0.0
 10
279.0327911001863
 20
226.1098502161338
 30
0.0
 10
276.7725157695103
 20
225.3004026953135
 30
0.0
 10
276.0375645378102
 20
225.0289075396818
 30
0.0
 10
274.9628485080477
 20
224.6191458331967
 30
0.0
 10
274.6092283010916
 20
224.482138768862
 30
0.0
 10
274.0857256951043
 20
224.2759984291008
 30
0.0
 10
273.9123794438497
 20
224.2071800253037
 30
0.0
 10
273.6540919930795
 20
224.1037949837934
 30
0.0
 10
273.568284830508
 20
224.0693070639875
 30
0.0
 10
273.4400070681788
 20
224.0175358253249
 30
0.0
 10
273.3973199776571
 20
224.0002721859451
 30
0.0
 10
273.3120901237895
 20
223.9657317875342
 30
0.0
 10
273.2774085328454
 20
223.9516541156359
 30
0.0
 10
271.6164600515842
 20
223.2757347179853
 30
0.0
 10
270.0895395528562
 20
222.6028252004105
 30
0.0
 10
267.9247031203247
 20
221.5672521351774
 30
0.0
 10
267.2240150287411
 20
221.2176929819546
 30
0.0
 10
266.2043689702556
 20
220.6868020549027
 30
0.0
 10
265.8697179639088
 20
220.5087463796825
 30
0.0
 10
265.3755879741112
 20
220.2400248175477
 30
0.0
 10
265.212185730799
 20
220.1501779552854
 30
0.0
 10
264.9690439957615
 20
220.0149981495659
 30
0.0
 10
264.8883236890708
 20
219.9698699622716
 30
0.0
 10
264.7677336365173
 20
219.9020753032488
 30
0.0
 10
264.7276186869133
 20
219.8794600205609
 30
0.0
 10
264.647552256866
 20
219.834195329158
 30
0.0
 10
264.6129973221867
 20
219.8146139272571
 30
0.0
 10
263.8434703645362
 20
219.3771277920291
 30
0.0
 10
263.1428912077369
 20
218.9578738923977
 30
0.0
 10
262.1275447363748
 20
218.3177396785316
 30
0.0
 10
261.7950162898936
 20
218.1024860465064
 30
0.0
 10
261.3051041861308
 20
217.7767922573638
 30
0.0
 10
261.1432802458698
 20
217.6677587707988
 30
0.0
 10
260.8225925540009
 20
217.4487540173006
 30
0.0
 10
260.6726868178922
 20
217.3450688200667
 30
0.0
 10
260.17366179955
 20
216.9948901396165
 30
0.0
 10
259.8473847523002
 20
216.759168205716
 30
0.0
 10
259.3675786288928
 20
216.4021810844645
 30
0.0
 10
259.2092448290016
 20
216.2826180073138
 30
0.0
 10
258.8957803783751
 20
216.042357112879
 30
0.0
 10
258.751198310462
 20
215.9297409793661
 30
0.0
 10
258.0018708735395
 20
215.3362393977888
 30
0.0
 10
257.3828711294138
 20
214.814936342112
 30
0.0
 10
256.7443335907003
 20
214.2471314960202
 30
0.0
  0
SPLINE
  5
84
330
1F
100
AcDbEntity
  8
0
  6
Continuous
 62
     7
370
    15
100
AcDbSpline
210
0.0
220
0.0
230
1.0
 70
     8
 71
     3
 72
    26
 73
    22
 74
     0
 42
0.000000001
 43
0.00000001
 40
0.0
 40
0.0
 40
0.0
 40
0.0
 40
0.125
 40
0.125
 40
0.25
 40
0.25
 40
0.375
 40
0.375
 40
0.5
 40
0.5
 40
0.75
 40
0.75
 40
0.8125
 40
0.8125
 40
0.84375
 40
0.84375
 40
0.859375
 40
0.859375
 40
0.875
 40
0.875
 40
1.0
 40
1.0
 40
1.0
 40
1.0
 10
297.5665391990652
 20
233.7825096686328
 30
0.0
 10
297.3552912701047
 20
233.5079840462076
 30
0.0
 10
297.1558478175596
 20
233.268389239785
 30
0.0
 10
296.7805698652999
 20
232.8590612589444
 30
0.0
 10
296.543526829655
 20
232.6258379386179
 30
0.0
 10
296.1021052777717
 20
232.2298547229758
 30
0.0
 10
295.8692425882284
 20
232.0386637784546
 30
0.0
 10
295.3792133819386
 20
231.6698832160121
 30
0.0
 10
295.1145301663128
 20
231.4875268647404
 30
0.0
 10
294.3291249719065
 20
230.9894602009272
 30
0.0
 10
293.7930647057893
 20
230.7030359026774
 30
0.0
 10
293.0879608801418
 20
230.3934886894891
 30
0.0
 10
292.9460711687417
 20
230.3343633772568
 30
0.0
 10
292.7319331822355
 20
230.2498516045165
 30
0.0
 10
292.6603366168325
 20
230.2223770462044
 30
0.0
 10
292.5526159138765
 20
230.1822092576383
 30
0.0
 10
292.5166547037493
 20
230.1689940029333
 30
0.0
 10
292.4446236652109
 20
230.1429115098239
 30
0.0
 10
292.399130341767
 20
230.1267330617866
 30
0.0
 10
292.1588245590856
 20
230.0422948761974
 30
0.0
 10
291.8654863736426
 20
229.9519660450532
 30
0.0
 10
291.4924151429181
 20
229.8463645477327
 30
0.0
  0
SPLINE
  5
85
330
1F
100
AcDbEntity
  8
0
  6
Continuous
 62
     7
370
    15
100
AcDbSpline
210
0.0
220
0.0
230
1.0
 70
     8
 71
     3
 72
    14
 73
    10
 74
     0
 42
0.000000001
 43
0.00000001
 40
0.0
 40
0.0
 40
0.0
 40
0.0
 40
0.25
 40
0.25
 40
0.375
 40
0.375
 40
0.5
 40
0.5
 40
1.0
 40
1.0
 40
1.0
 40
1.0
 10
302.728459533037
 20
241.4984149526964
 30
0.0
 10
302.3088798101381
 20
240.7963899144711
 30
0.0
 10
301.8925561175562
 20
240.1181680669303
 30
0.0
 10
301.272954624159
 20
239.1365400816456
 30
0.0
 10
301.0672348006059
 20
238.8152815508886
 30
0.0
 10
300.6574231686583
 20
238.1846660847167
 30
0.0
 10
300.4480537753025
 20
237.8674319897532
 30
0.0
 10
299.4580526960324
 20
236.3897870987774
 30
0.0
 10
298.563547909238
 20
235.126655984469
 30
0.0
 10
297.5665391990652
 20
233.7825096686328
 30
0.0
  0
LINE
  5
86
330
1F
100
AcDbEntity
  8
0
  6
Continuous
 62
     7
370
    15
100
AcDbLine
 10
302.7284593533
 20
241.4984133913
 30
0.0
 11
372.8628290097
 21
357.2825965359
 31
0.0
  0
ARC
  5
87
330
1F
100
AcDbEntity
  8
0
  6
Continuous
 62
     7
370
    15
100
AcDbCircle
 10
366.0202546248
 20
361.4273614791
 30
0.0
 40
8.00000000000006
100
AcDbArc
 50
328.7952993418
 51
13.301999616
  0
LINE
  5
88
330
1F
100
AcDbEntity
  8
0
  6
Continuous
 62
     7
370
    15
100
AcDbLine
 10
370.0603396843
 20
379.1092214062
 30
0.0
 11
373.8056217532
 21
363.2680353596
 31
0.0
  0
ARC
  5
89
330
1F
100
AcDbEntity
  8
0
  6
Continuous
 62
     7
370
    15
100
AcDbCircle
 10
377.8457063147
 20
380.9498882266
 30
0.0
 40
8.000000000000128
100
AcDbArc
 50
148.7952993418
 51
193.301999616
  0
LINE
  5
8A
330
1F
100
AcDbEntity
  8
0
  6
Continuous
 62
     7
370
    15
100
AcDbLine
 10
394.6505301843
 20
424.1339442208
 30
0.0
 11
371.0031324278
 21
385.0946602299
 31
0.0
  0
ARC
  5
8B
330
1F
100
AcDbEntity
  8
0
  6
Continuous
 62
     7
370
    15
100
AcDbCircle
 10
401.4931034395
 20
419.9891532785
 30
0.0
 40
8.000000000000027
100
AcDbArc
 50
13.301999616
 51
148.7952993418
  0
LINE
  5
8C
330
1F
100
AcDbEntity
  8
0
  6
Continuous
 62
     7
370
    15
100
AcDbLine
 10
409.2784711371
 20
421.82983727
 30
0.0
 11
463.0409927319
 21
194.4337961151
 31
0.0
  0
LINE
  5
8D
330
1F
100
AcDbEntity
  8
0
  6
Continuous
 62
     7
370
    15
100
AcDbLine
 10
463.0409927319
 20
194.4337961151
 30
0.0
 11
456.382878239
 21
169.3578389361
 31
0.0
  0
LINE
  5
8E
330
1F
100
AcDbEntity
  8
0
  6
Continuous
 62
     7
370
    15
100
AcDbLine
 10
431.5338657449
 20
132.1836513355
 30
0.0
 11
456.382878239
 21
169.3578389361
 31
0.0
  0
LINE
  5
8F
330
1F
100
AcDbEntity
  8
0
  6
Continuous
 62
     7
370
    15
100
AcDbLine
 10
351.1940789155
 20
64.7705671265
 30
0.0
 11
431.5338657449
 21
132.1836513355
 31
0.0
  0
LINE
  5
90
330
1F
100
AcDbEntity
  8
0
  6
Continuous
 62
     7
370
    15
100
AcDbLine
 10
306.3181528102
 20
37.608677417
 30
0.0
 11
351.1940789155
 21
64.7705671265
 31
0.0
  0
LINE
  5
91
330
1F
100
AcDbEntity
  8
0
  6
Continuous
 62
     7
370
    15
100
AcDbLine
 10
306.3181528102
 20
37.608677417
 30
0.0
 11
289.4489691804
 21
29.7424494176
 31
0.0
  0
LINE
  5
92
330
1F
100
AcDbEntity
  8
0
  6
Continuous
 62
     7
370
    15
100
AcDbLine
 10
289.4489691804
 20
29.7424494176
 30
0.0
 11
55.6273089002
 21
29.7424494176
 31
0.0
  0
ARC
  5
93
330
1F
100
AcDbEntity
  8
0
  6
Continuous
 62
     7
370
    15
100
AcDbCircle
 10
55.6273033357
 20
37.7424495175
 30
0.0
 40
8.00000000000001
100
AcDbArc
 50
130.0
 51
270.0
  0
LINE
  5
94
330
1F
100
AcDbEntity
  8
0
  6
Continuous
 62
     7
370
    15
100
AcDbLine
 10
50.4850075792
 20
43.8708056583
 30
0.0
 11
54.2527959893
 21
47.0323608144
 31
0.0
  0
ARC
  5
95
330
1F
100
AcDbEntity
  8
0
  6
Continuous
 62
     7
370
    15
100
AcDbCircle
 10
59.395099514
 20
40.904005901
 30
0.0
 40
8.000000000000016
100
AcDbArc
 50
90.5130640635
 51
130.0
  0
LINE
  5
96
330
1F
100
AcDbEntity
  8
0
  6
Continuous
 62
     7
370
    15
100
AcDbLine
 10
59.3234525274
 20
48.9036858901
 30
0.0
 11
83.2705424379
 21
49.1181285008
 31
0.0
  0
LINE
  5
97
330
1F
100
AcDbEntity
  8
0
  6
Continuous
 62
     7
370
    15
100
AcDbLine
 10
83.2705424379
 20
49.1181285008
 30
0.0
 11
83.0611811231
 21
48.9424493983
 31
0.0
  0
LINE
  5
98
330
1F
100
AcDbEntity
  8
0
  6
Continuous
 62
     7
370
    15
100
AcDbLine
 10
83.0611811231
 20
48.9424493983
 30
0.0
 11
129.4304059098
 21
48.9424493983
 31
0.0
  0
ARC
  5
99
330
1F
100
AcDbEntity
  8
0
  6
Continuous
 62
     7
370
    15
100
AcDbCircle
 10
129.4303999494
 20
134.9424495175
 30
0.0
 40
85.99999999999994
100
AcDbArc
 50
270.0
 51
8.0085521745
  0
SPLINE
  5
9A
330
1F
100
AcDbEntity
  8
0
  6
Continuous
 62
     7
370
    15
100
AcDbSpline
210
0.0
220
0.0
230
1.0
 70
     8
 71
     3
 72
    14
 73
    10
 74
     0
 42
0.000000001
 43
0.00000001
 40
0.0
 40
0.0
 40
0.0
 40
0.0
 40
0.1458567526862048
 40
0.2906894762273859
 40
0.434512362711092
 40
0.5773399052532
 40
0.719186902065586
 40
0.8600684603503113
 40
1.0
 40
1.0
 40
1.0
 40
1.0
 10
213.7216197655696
 20
153.3898939540772
 30
0.0
 10
213.7739625317208
 20
153.0769776172251
 30
0.0
 10
213.8782805766284
 20
152.4533418623676
 30
0.0
 10
214.0226309732333
 20
151.5192738138604
 30
0.0
 10
214.1573481187727
 20
150.5904368567291
 30
0.0
 10
214.2816845141402
 20
149.6666989790151
 30
0.0
 10
214.3956125030725
 20
148.7480731131087
 30
0.0
 10
214.499973438916
 20
147.834637251359
 30
0.0
 10
214.5611710877552
 20
147.2268922705066
 30
0.0
 10
214.5916663933089
 20
146.9240478109333
 30
0.0
  0
SPLINE
  5
9B
330
1F
100
AcDbEntity
  8
0
  6
Continuous
 62
     7
370
    15
100
AcDbSpline
210
0.0
220
0.0
230
1.0
 70
     8
 71
     3
 72
    12
 73
     8
 74
     0
 42
0.000000001
 43
0.00000001
 40
0.0
 40
0.0
 40
0.0
 40
0.0
 40
0.25
 40
0.25
 40
0.5
 40
0.5
 40
1.0
 40
1.0
 40
1.0
 40
1.0
 10
216.5024977250424
 20
160.9130028203075
 30
0.0
 10
215.9452212910661
 20
160.4369436154527
 30
0.0
 10
215.4666084330641
 20
159.9164704082433
 30
0.0
 10
214.6667098690083
 20
158.7866959891154
 30
0.0
 10
214.3490819173077
 20
158.1872501422861
 30
0.0
 10
213.6102422640104
 20
156.1965384041993
 30
0.0
 10
213.4831815082419
 20
154.8186098679171
 30
0.0
 10
213.7216197655697
 20
153.3898939540771
 30
0.0
  0
LINE
  5
9C
330
1F
100
AcDbEntity
  8
0
  6
Continuous
 62
     7
370
    15
100
AcDbLine
 10
221.3654742788
 20
164.993527241
 30
0.0
 11
216.5024952243
 21
160.9130081608
 31
0.0
  0
SPLINE
  5
9D
330
1F
100
AcDbEntity
  8
0
  6
Continuous
 62
     7
370
    15
100
AcDbSpline
210
0.0
220
0.0
230
1.0
 70
     8
 71
     3
 72
    24
 73
    20
 74
     0
 42
0.000000001
 43
0.00000001
 40
-0.0000001331740646
 40
-0.0000001331740646
 40
-0.0000001331740646
 40
-0.0000001331740646
 40
0.125
 40
0.125
 40
0.25
 40
0.25
 40
0.5
 40
0.5
 40
0.75
 40
0.75
 40
0.8125
 40
0.8125
 40
0.84375
 40
0.84375
 40
0.859375
 40
0.859375
 40
0.875
 40
0.875
 40
1.0
 40
1.0
 40
1.0
 40
1.0
 10
224.6947152983167
 20
170.58493687947
 30
0.0
 10
224.6323502813064
 20
170.2690194955141
 30
0.0
 10
224.5680708808613
 20
169.9944639532906
 30
0.0
 10
224.4356833131012
 20
169.5280765523088
 30
0.0
 10
224.3392323273683
 20
169.2425680127686
 30
0.0
 10
224.0454509003781
 20
168.49143053598
 30
0.0
 10
223.7957860614284
 20
167.9888399716725
 30
0.0
 10
223.2166805380819
 20
167.0262774630857
 30
0.0
 10
222.9003883275349
 20
166.5839380136037
 30
0.0
 10
222.4509253792512
 20
166.0553795271637
 30
0.0
 10
222.3590764950752
 20
165.9517879562977
 30
0.0
 10
222.2183687270323
 20
165.7995807896319
 30
0.0
 10
222.1709770640549
 20
165.7493750990155
 30
0.0
 10
222.099155959144
 20
165.6748616104991
 30
0.0
 10
222.0750933224329
 20
165.6501562888949
 30
0.0
 10
222.0267235121958
 20
165.6010106614895
 30
0.0
 10
221.9960974942772
 20
165.5702829753675
 30
0.0
 10
221.83310211641
 20
165.408099217154
 30
0.0
 10
221.6289325226325
 20
165.2218543219853
 30
0.0
 10
221.3654781154038
 20
164.993527872282
 30
0.0
  0
SPLINE
  5
9E
330
1F
100
AcDbEntity
  8
0
  6
Continuous
 62
     7
370
    15
100
AcDbSpline
210
0.0
220
0.0
230
1.0
 70
     8
 71
     3
 72
    66
 73
    62
 74
     0
 42
0.000000001
 43
0.00000001
 40
0.0
 40
0.0
 40
0.0
 40
0.0
 40
0.0624999953978788
 40
0.0624999953978788
 40
0.0664062451102462
 40
0.0664062451102462
 40
0.0703124948226136
 40
0.0703124948226136
 40
0.0781249942473485
 40
0.0781249942473485
 40
0.0937499930968182
 40
0.0937499930968182
 40
0.1249999907957576
 40
0.1249999907957576
 40
0.1874999861936364
 40
0.1874999861936364
 40
0.2499999815915152
 40
0.2499999815915152
 40
0.2656249804409849
 40
0.2656249804409849
 40
0.2812499792904546
 40
0.2812499792904546
 40
0.312499976989394
 40
0.312499976989394
 40
0.3749999723872728
 40
0.3749999723872728
 40
0.4999999631830304
 40
0.4999999631830304
 40
0.5078124626077652
 40
0.5078124626077652
 40
0.5156249620325001
 40
0.5156249620325001
 40
0.5312499608819697
 40
0.5312499608819697
 40
0.5624999585809092
 40
0.5624999585809092
 40
0.6249999539787879
 40
0.6249999539787879
 40
0.7499999447745456
 40
0.7499999447745456
 40
0.7578124441992804
 40
0.7578124441992804
 40
0.7656249436240152
 40
0.7656249436240152
 40
0.7812499424734849
 40
0.7812499424734849
 40
0.8124999401724243
 40
0.8124999401724243
 40
0.8749999355703031
 40
0.8749999355703031
 40
0.8789061852826705
 40
0.8789061852826705
 40
0.8828124349950379
 40
0.8828124349950379
 40
0.8906249344197728
 40
0.8906249344197728
 40
0.9062499332692425
 40
0.9062499332692425
 40
0.937499930968182
 40
0.937499930968182
 40
0.9999999263660607
 40
0.9999999263660607
 40
0.9999999263660607
 40
0.9999999263660607
 10
238.5668790004358
 20
198.9944360535883
 30
0.0
 10
237.9811474209607
 20
198.494404887222
 30
0.0
 10
237.4807932262612
 20
198.0454269620342
 30
0.0
 10
237.0398803657171
 20
197.6226319852744
 30
0.0
 10
237.0052936873398
 20
197.5893487278709
 30
0.0
 10
236.9449436371699
 20
197.5310073420412
 30
0.0
 10
236.9148261768238
 20
197.5017740421534
 30
0.0
 10
236.8246464900024
 20
197.4138863215713
 30
0.0
 10
236.7647569577437
 20
197.3550440799583
 30
0.0
 10
236.5857791378349
 20
197.1777660714442
 30
0.0
 10
236.4673816270519
 20
197.0585790208682
 30
0.0
 10
236.1149522021711
 20
196.6980127344403
 30
0.0
 10
235.8836833955416
 20
196.4536283638886
 30
0.0
 10
235.2009294055265
 20
195.7084547134341
 30
0.0
 10
234.7729264336297
 20
195.2103422894598
 30
0.0
 10
233.9285464865983
 20
194.1648463581828
 30
0.0
 10
233.5192872958817
 20
193.6252313668447
 30
0.0
 10
233.023876785985
 20
192.9296288455477
 30
0.0
 10
232.9381078213766
 20
192.8072788620464
 30
0.0
 10
232.7552241111614
 20
192.5428036336228
 30
0.0
 10
232.6644380340552
 20
192.4095644287209
 30
0.0
 10
232.3940471367407
 20
192.0068420419451
 30
0.0
 10
232.2164096505367
 20
191.7343540880009
 30
0.0
 10
231.6913665279413
 20
190.9048711378879
 30
0.0
 10
231.3518302275666
 20
190.3358570534382
 30
0.0
 10
230.3646986705099
 20
188.5807384469663
 30
0.0
 10
229.7485807578946
 20
187.3465575718212
 30
0.0
 10
229.1385483798359
 20
185.9671322250553
 30
0.0
 10
229.1108375451954
 20
185.9039811171049
 30
0.0
 10
229.0475983286956
 20
185.7590207006826
 30
0.0
 10
229.0160973266906
 20
185.6863182358825
 30
0.0
 10
228.9219501394104
 20
185.4675440717155
 30
0.0
 10
228.85965977287
 20
185.3208056025818
 30
0.0
 10
228.6742119481879
 20
184.8779231161133
 30
0.0
 10
228.5524777649854
 20
184.5791120197113
 30
0.0
 10
228.1929683151344
 20
183.6720104142365
 30
0.0
 10
227.9608861482425
 20
183.0530515888948
 30
0.0
 10
227.2874120465929
 20
181.1535018477941
 30
0.0
 10
226.8687925108616
 20
179.8302376669595
 30
0.0
 10
226.4562701527674
 20
178.3638156826325
 30
0.0
 10
226.4367311392478
 20
178.2938310307863
 30
0.0
 10
226.3931885971622
 20
178.1369354920918
 30
0.0
 10
226.3715048072205
 20
178.0582707410782
 30
0.0
 10
226.3067158806991
 20
177.8216255430382
 30
0.0
 10
226.2638731874228
 20
177.6629941510126
 30
0.0
 10
226.1363948808082
 20
177.1844961949395
 30
0.0
 10
226.0528090406839
 20
176.8620258508953
 30
0.0
 10
225.8062506131679
 20
175.8841996987765
 30
0.0
 10
225.6474771186326
 20
175.2184287707157
 30
0.0
 10
225.484728995569
 20
174.4962924063372
 30
0.0
 10
225.4780611036314
 20
174.4665738838669
 30
0.0
 10
225.4618000161444
 20
174.3938925616975
 30
0.0
 10
225.453662856202
 20
174.3573903973691
 30
0.0
 10
225.4292315277781
 20
174.2473993946535
 30
0.0
 10
225.4129175106999
 20
174.1734260465354
 30
0.0
 10
225.3638960650782
 20
173.9495679632581
 30
0.0
 10
225.3311092421478
 20
173.7977451891759
 30
0.0
 10
225.2324311958089
 20
173.3345247112373
 30
0.0
 10
225.1662223948527
 20
173.0153748516888
 30
0.0
 10
224.9663256817929
 20
172.0269166502754
 30
0.0
 10
224.8313674594984
 20
171.3265996856422
 30
0.0
 10
224.6947154902825
 20
170.5849378906516
 30
0.0
  0
LINE
  5
9F
330
1F
100
AcDbEntity
  8
0
  6
Continuous
 62
     7
370
    15
100
AcDbLine
 10
256.7443327258
 20
214.2471250965
 30
0.0
 11
238.566875572
 21
198.994430609
 31
0.0
  0
ENDSEC
  0
SECTION
  2
OBJECTS
  0
DICTIONARY
  5
C
330
0
100
AcDbDictionary
281
     1
  3
ACAD_GROUP
350
D
  3
ACAD_LAYOUT
350
1A
  3
ACAD_MLINESTYLE
350
17
  3
ACAD_PLOTSETTINGS
350
19
  3
ACAD_PLOTSTYLENAME
350
E
  3
ACAD_SCALELIST
350
47
  0
DICTIONARY
  5
D
102
{ACAD_REACTORS
330
C
102
}
330
C
100
AcDbDictionary
281
     1
  0
DICTIONARY
  5
1A
102
{ACAD_REACTORS
330
C
102
}
330
C
100
AcDbDictionary
281
     1
  3
Layout1
350
1E
  3
Layout2
350
26
  3
Model
350
22
  0
DICTIONARY
  5
17
102
{ACAD_REACTORS
330
C
102
}
330
C
100
AcDbDictionary
281
     1
  3
Standard
350
18
  0
DICTIONARY
  5
19
102
{ACAD_REACTORS
330
C
102
}
330
C
100
AcDbDictionary
281
     1
  0
ACDBDICTIONARYWDFLT
  5
E
102
{ACAD_REACTORS
330
C
102
}
330
C
100
AcDbDictionary
281
     1
  3
Normal
350
F
100
AcDbDictionaryWithDefault
340
F
  0
DICTIONARY
  5
47
102
{ACAD_REACTORS
330
C
102
}
330
C
100
AcDbDictionary
281
     1
  3
A0
350
48
  3
A1
350
49
  3
A2
350
4A
  3
A3
350
4B
  3
A4
350
4C
  3
A5
350
4D
  3
A6
350
4E
  3
A7
350
4F
  3
A8
350
50
  3
A9
350
51
  3
B0
350
52
  3
B1
350
53
  3
B2
350
54
  3
B3
350
55
  3
B4
350
56
  3
B5
350
57
  3
B6
350
58
  3
B7
350
59
  3
B8
350
5A
  3
B9
350
5B
  3
C0
350
5C
  3
C1
350
5D
  3
C2
350
5E
  3
C3
350
5F
  3
C4
350
60
  3
C5
350
61
  3
C6
350
62
  3
C7
350
63
  3
C8
350
64
  3
C9
350
65
  3
D0
350
66
  3
D1
350
67
  3
D2
350
68
  0
LAYOUT
  5
1E
102
{ACAD_REACTORS
330
1A
102
}
330
1A
100
AcDbPlotSettings
  1

  2
none_device
  4

  6

 40
0.0
 41
0.0
 42
0.0
 43
0.0
 44
0.0
 45
0.0
 46
0.0
 47
0.0
 48
0.0
 49
0.0
140
0.0
141
0.0
142
1.0
143
1.0
 70
   688
 72
     1
 73
     0
 74
     5
  7

 75
    16
147
1.0
148
0.0
149
0.0
100
AcDbLayout
  1
Layout1
 70
     1
 71
     1
 10
0.0
 20
0.0
 11
420.0
 21
297.0
 12
0.0
 22
0.0
 32
0.0
 14
1.0000000000E+20
 24
1.0000000000E+20
 34
1.0000000000E+20
 15
-1.0000000000E+20
 25
-1.0000000000E+20
 35
-1.0000000000E+20
146
0.0
 13
0.0
 23
0.0
 33
0.0
 16
1.0
 26
0.0
 36
0.0
 17
0.0
 27
1.0
 37
0.0
 76
     0
330
1B
  0
LAYOUT
  5
26
102
{ACAD_REACTORS
330
1A
102
}
330
1A
100
AcDbPlotSettings
  1

  2
none_device
  4

  6

 40
0.0
 41
0.0
 42
0.0
 43
0.0
 44
0.0
 45
0.0
 46
0.0
 47
0.0
 48
0.0
 49
0.0
140
0.0
141
0.0
142
1.0
143
1.0
 70
   688
 72
     1
 73
     0
 74
     5
  7

 75
    16
147
1.0
148
0.0
149
0.0
100
AcDbLayout
  1
Layout2
 70
     1
 71
     2
 10
0.0
 20
0.0
 11
0.0
 21
0.0
 12
0.0
 22
0.0
 32
0.0
 14
0.0
 24
0.0
 34
0.0
 15
0.0
 25
0.0
 35
0.0
146
0.0
 13
0.0
 23
0.0
 33
0.0
 16
1.0
 26
0.0
 36
0.0
 17
0.0
 27
1.0
 37
0.0
 76
     0
330
23
  0
LAYOUT
  5
22
102
{ACAD_REACTORS
330
1A
102
}
330
1A
100
AcDbPlotSettings
  1

  2
none_device
  4
Letter_(8.50_x_11.00_Inches)
  6

 40
6.35
 41
6.35
 42
6.35000508
 43
6.35000508
 44
215.9
 45
279.4
 46
0.0
 47
0.0
 48
0.0
 49
0.0
140
0.0
141
0.0
142
1.0
143
1.0
 70
  1712
 72
     1
 73
     0
 74
     0
  7

 75
     0
147
1.0
148
0.0
149
0.0
100
AcDbLayout
  1
Model
 70
     1
 71
     0
 10
0.0
 20
0.0
 11
841.0
 21
594.0
 12
0.0
 22
0.0
 32
0.0
 14
0.0
 24
0.0
 34
0.0
 15
841.0
 25
594.0
 35
0.0
146
0.0
 13
0.0
 23
0.0
 33
0.0
 16
1.0
 26
0.0
 36
0.0
 17
0.0
 27
1.0
 37
0.0
 76
     0
330
1F
331
29
  0
MLINESTYLE
  5
18
102
{ACAD_REACTORS
330
17
102
}
330
17
100
AcDbMlineStyle
  2
Standard
 70
     0
  3

 62
   256
 51
90.0
 52
90.0
 71
     2
 49
0.5
 62
   256
  6
BYLAYER
 49
-0.5
 62
   256
  6
BYLAYER
  0
ACDBPLACEHOLDER
  5
F
102
{ACAD_REACTORS
330
E
102
}
330
E
  0
SCALE
  5
48
102
{ACAD_REACTORS
330
47
102
}
330
47
100
AcDbScale
 70
     0
300
1:1
140
1.0
141
1.0
290
     1
  0
SCALE
  5
49
102
{ACAD_REACTORS
330
47
102
}
330
47
100
AcDbScale
 70
     0
300
1:2
140
1.0
141
2.0
290
     0
  0
SCALE
  5
4A
102
{ACAD_REACTORS
330
47
102
}
330
47
100
AcDbScale
 70
     0
300
1:4
140
1.0
141
4.0
290
     0
  0
SCALE
  5
4B
102
{ACAD_REACTORS
330
47
102
}
330
47
100
AcDbScale
 70
     0
300
1:5
140
1.0
141
5.0
290
     0
  0
SCALE
  5
4C
102
{ACAD_REACTORS
330
47
102
}
330
47
100
AcDbScale
 70
     0
300
1:8
140
1.0
141
8.0
290
     0
  0
SCALE
  5
4D
102
{ACAD_REACTORS
330
47
102
}
330
47
100
AcDbScale
 70
     0
300
1:10
140
1.0
141
10.0
290
     0
  0
SCALE
  5
4E
102
{ACAD_REACTORS
330
47
102
}
330
47
100
AcDbScale
 70
     0
300
1:16
140
1.0
141
16.0
290
     0
  0
SCALE
  5
4F
102
{ACAD_REACTORS
330
47
102
}
330
47
100
AcDbScale
 70
     0
300
1:20
140
1.0
141
20.0
290
     0
  0
SCALE
  5
50
102
{ACAD_REACTORS
330
47
102
}
330
47
100
AcDbScale
 70
     0
300
1:30
140
1.0
141
30.0
290
     0
  0
SCALE
  5
51
102
{ACAD_REACTORS
330
47
102
}
330
47
100
AcDbScale
 70
     0
300
1:40
140
1.0
141
40.0
290
     0
  0
SCALE
  5
52
102
{ACAD_REACTORS
330
47
102
}
330
47
100
AcDbScale
 70
     0
300
1:50
140
1.0
141
50.0
290
     0
  0
SCALE
  5
53
102
{ACAD_REACTORS
330
47
102
}
330
47
100
AcDbScale
 70
     0
300
1:100
140
1.0
141
100.0
290
     0
  0
SCALE
  5
54
102
{ACAD_REACTORS
330
47
102
}
330
47
100
AcDbScale
 70
     0
300
2:1
140
2.0
141
1.0
290
     0
  0
SCALE
  5
55
102
{ACAD_REACTORS
330
47
102
}
330
47
100
AcDbScale
 70
     0
300
4:1
140
4.0
141
1.0
290
     0
  0
SCALE
  5
56
102
{ACAD_REACTORS
330
47
102
}
330
47
100
AcDbScale
 70
     0
300
8:1
140
8.0
141
1.0
290
     0
  0
SCALE
  5
57
102
{ACAD_REACTORS
330
47
102
}
330
47
100
AcDbScale
 70
     0
300
10:1
140
10.0
141
1.0
290
     0
  0
SCALE
  5
58
102
{ACAD_REACTORS
330
47
102
}
330
47
100
AcDbScale
 70
     0
300
100:1
140
100.0
141
1.0
290
     0
  0
SCALE
  5
59
102
{ACAD_REACTORS
330
47
102
}
330
47
100
AcDbScale
 70
     0
300
1/128" = 1'-0"
140
0.0078125
141
12.0
290
     0
  0
SCALE
  5
5A
102
{ACAD_REACTORS
330
47
102
}
330
47
100
AcDbScale
 70
     0
300
1/64" = 1'-0"
140
0.015625
141
12.0
290
     0
  0
SCALE
  5
5B
102
{ACAD_REACTORS
330
47
102
}
330
47
100
AcDbScale
 70
     0
300
1/32" = 1'-0"
140
0.03125
141
12.0
290
     0
  0
SCALE
  5
5C
102
{ACAD_REACTORS
330
47
102
}
330
47
100
AcDbScale
 70
     0
300
1/16" = 1'-0"
140
0.0625
141
12.0
290
     0
  0
SCALE
  5
5D
102
{ACAD_REACTORS
330
47
102
}
330
47
100
AcDbScale
 70
     0
300
3/32" = 1'-0"
140
0.09375
141
12.0
290
     0
  0
SCALE
  5
5E
102
{ACAD_REACTORS
330
47
102
}
330
47
100
AcDbScale
 70
     0
300
1/8" = 1'-0"
140
0.125
141
12.0
290
     0
  0
SCALE
  5
5F
102
{ACAD_REACTORS
330
47
102
}
330
47
100
AcDbScale
 70
     0
300
3/16" = 1'-0"
140
0.1875
141
12.0
290
     0
  0
SCALE
  5
60
102
{ACAD_REACTORS
330
47
102
}
330
47
100
AcDbScale
 70
     0
300
1/4" = 1'-0"
140
0.25
141
12.0
290
     0
  0
SCALE
  5
61
102
{ACAD_REACTORS
330
47
102
}
330
47
100
AcDbScale
 70
     0
300
3/8" = 1'-0"
140
0.375
141
12.0
290
     0
  0
SCALE
  5
62
102
{ACAD_REACTORS
330
47
102
}
330
47
100
AcDbScale
 70
     0
300
1/2" = 1'-0"
140
0.5
141
12.0
290
     0
  0
SCALE
  5
63
102
{ACAD_REACTORS
330
47
102
}
330
47
100
AcDbScale
 70
     0
300
3/4" = 1'-0"
140
0.75
141
12.0
290
     0
  0
SCALE
  5
64
102
{ACAD_REACTORS
330
47
102
}
330
47
100
AcDbScale
 70
     0
300
1" = 1'-0"
140
1.0
141
12.0
290
     0
  0
SCALE
  5
65
102
{ACAD_REACTORS
330
47
102
}
330
47
100
AcDbScale
 70
     0
300
1-1/2" = 1'-0"
140
1.5
141
12.0
290
     0
  0
SCALE
  5
66
102
{ACAD_REACTORS
330
47
102
}
330
47
100
AcDbScale
 70
     0
300
3" = 1'-0"
140
3.0
141
12.0
290
     0
  0
SCALE
  5
67
102
{ACAD_REACTORS
330
47
102
}
330
47
100
AcDbScale
 70
     0
300
6" = 1'-0"
140
6.0
141
12.0
290
     0
  0
SCALE
  5
68
102
{ACAD_REACTORS
330
47
102
}
330
47
100
AcDbScale
 70
     0
300
1'-0" = 1'-0"
140
12.0
141
12.0
290
     0
  0
ENDSEC
  0
EOF
