  0
SECTION
  2
HEADER
  9
$ACADVER
  1
AC1015
  9
$ACADMAINTVER
 70
     6
  9
$DWGCODEPAGE
  3
ANSI_1252
  9
$INSBASE
 10
0.0
 20
0.0
 30
0.0
  9
$EXTMIN
 10
0.0
 20
0.0
 30
0.0
  9
$EXTMAX
 10
841.0
 20
594.0
 30
0.0
  9
$LIMMIN
 10
0.0
 20
0.0
  9
$LIMMAX
 10
841.0
 20
594.0
  9
$ORTHOMODE
 70
     0
  9
$REGENMODE
 70
     1
  9
$FILLMODE
 70
     1
  9
$QTEXTMODE
 70
     0
  9
$MIRRTEXT
 70
     1
  9
$LTSCALE
 40
1.0
  9
$ATTMODE
 70
     1
  9
$TEXTSIZE
 40
3.5
  9
$TRACEWID
 40
1.0
  9
$TEXTSTYLE
  7
Standard
  9
$CLAYER
  8
0
  9
$CELTYPE
  6
ByLayer
  9
$CECOLOR
 62
   256
  9
$CELTSCALE
 40
1.0
  9
$DISPSILH
 70
     0
  9
$DIMSCALE
 40
1.0
  9
$DIMASZ
 40
3.556
  9
$DIMEXO
 40
1.0
  9
$DIMDLI
 40
3.75
  9
$DIMRND
 40
0.0
  9
$DIMDLE
 40
0.0
  9
$DIMEXE
 40
1.0
  9
$DIMTP
 40
0.0
  9
$DIMTM
 40
0.0
  9
$DIMTXT
 40
3.5
  9
$DIMCEN
 40
2.5
  9
$DIMTSZ
 40
0.0
  9
$DIMTOL
 70
     0
  9
$DIMLIM
 70
     0
  9
$DIMTIH
 70
     1
  9
$DIMTOH
 70
     1
  9
$DIMSE1
 70
     0
  9
$DIMSE2
 70
     0
  9
$DIMTAD
 70
     1
  9
$DIMZIN
 70
     0
  9
$DIMBLK
  1

  9
$DIMASO
 70
     1
  9
$DIMSHO
 70
     1
  9
$DIMPOST
  1

  9
$DIMAPOST
  1

  9
$DIMALT
 70
     0
  9
$DIMALTD
 70
     3
  9
$DIMALTF
 40
0.0393700787
  9
$DIMLFAC
 40
1.0
  9
$DIMTOFL
 70
     1
  9
$DIMTVP
 40
0.0
  9
$DIMTIX
 70
     0
  9
$DIMSOXD
 70
     0
  9
$DIMSAH
 70
     0
  9
$DIMBLK1
  1

  9
$DIMBLK2
  1

  9
$DIMSTYLE
  2
ISO-25
  9
$DIMCLRD
 70
     0
  9
$DIMCLRE
 70
     0
  9
$DIMCLRT
 70
     0
  9
$DIMTFAC
 40
1.0
  9
$DIMGAP
 40
1.524
  9
$DIMJUST
 70
     0
  9
$DIMSD1
 70
     0
  9
$DIMSD2
 70
     0
  9
$DIMTOLJ
 70
     0
  9
$DIMTZIN
 70
     0
  9
$DIMALTZ
 70
     0
  9
$DIMALTTZ
 70
     0
  9
$DIMUPT
 70
     0
  9
$DIMDEC
 70
     2
  9
$DIMTDEC
 70
     2
  9
$DIMALTU
 70
     2
  9
$DIMALTTD
 70
     3
  9
$DIMTXSTY
  7
Standard
  9
$DIMAUNIT
 70
     0
  9
$DIMADEC
 70
     2
  9
$DIMALTRND
 40
0.0
  9
$DIMAZIN
 70
     0
  9
$DIMDSEP
 70
    44
  9
$DIMATFIT
 70
     3
  9
$DIMFRAC
 70
     0
  9
$DIMLDRBLK
  1

  9
$DIMLUNIT
 70
     2
  9
$DIMLWD
 70
    -2
  9
$DIMLWE
 70
    -2
  9
$DIMTMOVE
 70
     0
  9
$LUNITS
 70
     2
  9
$LUPREC
 70
     5
  9
$SKETCHINC
 40
1.0
  9
$FILLETRAD
 40
10.0
  9
$AUNITS
 70
     0
  9
$AUPREC
 70
     2
  9
$MENU
  1
.
  9
$ELEVATION
 40
0.0
  9
$PELEVATION
 40
0.0
  9
$THICKNESS
 40
0.0
  9
$LIMCHECK
 70
     0
  9
$CHAMFERA
 40
0.0
  9
$CHAMFERB
 40
0.0
  9
$CHAMFERC
 40
0.0
  9
$CHAMFERD
 40
0.0
  9
$SKPOLY
 70
     0
  9
$TDCREATE
 40
2457821.631170428
  9
$TDUCREATE
 40
2457821.631170428
  9
$TDUPDATE
 40
2457821.631170799
  9
$TDUUPDATE
 40
2457821.631170799
  9
$TDINDWG
 40
0.0000000116
  9
$TDUSRTIMER
 40
0.0000000116
  9
$USRTIMER
 70
     1
  9
$ANGBASE
 50
0.0
  9
$ANGDIR
 70
     0
  9
$PDMODE
 70
     0
  9
$PDSIZE
 40
-1.0
  9
$PLINEWID
 40
0.0
  9
$SPLFRAME
 70
     0
  9
$SPLINETYPE
 70
     6
  9
$SPLINESEGS
 70
     8
  9
$HANDSEED
  5
A0
  9
$SURFTAB1
 70
     6
  9
$SURFTAB2
 70
     6
  9
$SURFTYPE
 70
     6
  9
$SURFU
 70
     6
  9
$SURFV
 70
     6
  9
$UCSBASE
  2

  9
$UCSNAME
  2

  9
$UCSORG
 10
0.0
 20
0.0
 30
0.0
  9
$UCSXDIR
 10
1.0
 20
0.0
 30
0.0
  9
$UCSYDIR
 10
0.0
 20
1.0
 30
0.0
  9
$UCSORTHOREF
  2

  9
$UCSORTHOVIEW
 70
     0
  9
$UCSORGTOP
 10
0.0
 20
0.0
 30
0.0
  9
$UCSORGBOTTOM
 10
0.0
 20
0.0
 30
0.0
  9
$UCSORGLEFT
 10
0.0
 20
0.0
 30
0.0
  9
$UCSORGRIGHT
 10
0.0
 20
0.0
 30
0.0
  9
$UCSORGFRONT
 10
0.0
 20
0.0
 30
0.0
  9
$UCSORGBACK
 10
0.0
 20
0.0
 30
0.0
  9
$PUCSBASE
  2

  9
$PUCSNAME
  2

  9
$PUCSORG
 10
0.0
 20
0.0
 30
0.0
  9
$PUCSXDIR
 10
1.0
 20
0.0
 30
0.0
  9
$PUCSYDIR
 10
0.0
 20
1.0
 30
0.0
  9
$PUCSORTHOREF
  2

  9
$PUCSORTHOVIEW
 70
     0
  9
$PUCSORGTOP
 10
0.0
 20
0.0
 30
0.0
  9
$PUCSORGBOTTOM
 10
0.0
 20
0.0
 30
0.0
  9
$PUCSORGLEFT
 10
0.0
 20
0.0
 30
0.0
  9
$PUCSORGRIGHT
 10
0.0
 20
0.0
 30
0.0
  9
$PUCSORGFRONT
 10
0.0
 20
0.0
 30
0.0
  9
$PUCSORGBACK
 10
0.0
 20
0.0
 30
0.0
  9
$USERI1
 70
     0
  9
$USERI2
 70
     0
  9
$USERI3
 70
     0
  9
$USERI4
 70
     0
  9
$USERI5
 70
     0
  9
$USERR1
 40
0.0
  9
$USERR2
 40
0.0
  9
$USERR3
 40
0.0
  9
$USERR4
 40
0.0
  9
$USERR5
 40
0.0
  9
$WORLDVIEW
 70
     1
  9
$SHADEDGE
 70
     3
  9
$SHADEDIF
 70
    70
  9
$TILEMODE
 70
     1
  9
$MAXACTVP
 70
    64
  9
$PINSBASE
 10
0.0
 20
0.0
 30
0.0
  9
$PLIMCHECK
 70
     0
  9
$PEXTMIN
 10
1.0000000000E+20
 20
1.0000000000E+20
 30
1.0000000000E+20
  9
$PEXTMAX
 10
-1.0000000000E+20
 20
-1.0000000000E+20
 30
-1.0000000000E+20
  9
$PLIMMIN
 10
0.0
 20
0.0
  9
$PLIMMAX
 10
420.0
 20
297.0
  9
$UNITMODE
 70
     0
  9
$VISRETAIN
 70
     1
  9
$PLINEGEN
 70
     0
  9
$PSLTSCALE
 70
     1
  9
$TREEDEPTH
 70
  3020
  9
$CMLSTYLE
  2
Standard
  9
$CMLJUST
 70
     0
  9
$CMLSCALE
 40
20.0
  9
$PROXYGRAPHICS
 70
     1
  9
$MEASUREMENT
 70
     1
  9
$CELWEIGHT
370
    -1
  9
$ENDCAPS
280
     0
  9
$JOINSTYLE
280
     0
  9
$LWDISPLAY
290
     1
  9
$INSUNITS
 70
     4
  9
$HYPERLINKBASE
  1

  9
$STYLESHEET
  1

  9
$XEDIT
290
     1
  9
$CEPSNTYPE
380
     0
  9
$PSTYLEMODE
290
     1
  9
$FINGERPRINTGUID
  2
{F3C3321D-A4A2-47C4-849F-F1C6D2BADFD9}
  9
$VERSIONGUID
  2
{FAEB1C32-E019-11D5-929B-00C0DF256EC4}
  9
$EXTNAMES
290
     1
  9
$PSVPSCALE
 40
0.0
  9
$OLESTARTUP
290
     0
  0
ENDSEC
  0
SECTION
  2
CLASSES
  0
CLASS
  1
ACDBDICTIONARYWDFLT
  2
AcDbDictionaryWithDefault
  3
ObjectDBX Classes
 90
        0
280
     0
281
     0
  0
CLASS
  1
VISUALSTYLE
  2
AcDbVisualStyle
  3
ObjectDBX Classes
 90
     4095
280
     0
281
     0
  0
CLASS
  1
MATERIAL
  2
AcDbMaterial
  3
ObjectDBX Classes
 90
     1153
280
     0
281
     0
  0
CLASS
  1
SCALE
  2
AcDbScale
  3
ObjectDBX Classes
 90
     1153
280
     0
281
     0
  0
CLASS
  1
TABLESTYLE
  2
AcDbTableStyle
  3
ObjectDBX Classes
 90
     4095
280
     0
281
     0
  0
CLASS
  1
MLEADERSTYLE
  2
AcDbMLeaderStyle
  3
ACDB_MLEADERSTYLE_CLASS
 90
     4095
280
     0
281
     0
  0
CLASS
  1
SUN
  2
AcDbSun
  3
SCENEOE
 90
     1153
280
     0
281
     0
  0
CLASS
  1
ACDBPLACEHOLDER
  2
AcDbPlaceHolder
  3
ObjectDBX Classes
 90
        0
280
     0
281
     0
  0
CLASS
  1
LAYOUT
  2
AcDbLayout
  3
ObjectDBX Classes
 90
        0
280
     0
281
     0
  0
ENDSEC
  0
SECTION
  2
TABLES
  0
TABLE
  2
VPORT
  5
8
330
0
100
AcDbSymbolTable
 70
     1
  0
VPORT
  5
29
330
8
100
AcDbSymbolTableRecord
100
AcDbViewportTableRecord
  2
*Active
 70
     0
 10
0.0
 20
0.0
 11
1.0
 21
1.0
 12
420.5
 22
297.0
 13
0.0
 23
0.0
 14
10.0
 24
10.0
 15
10.0
 25
10.0
 16
0.0
 26
0.0
 36
1.0
 17
0.0
 27
0.0
 37
0.0
 40
594.0
 41
1.4158249158
 42
50.0
 43
0.0
 44
0.0
 50
0.0
 51
0.0
 71
     0
 72
  2000
 73
     1
 74
     3
 75
     0
 76
     0
 77
     0
 78
     0
281
     0
 65
     1
110
0.0
120
0.0
130
0.0
111
1.0
121
0.0
131
0.0
112
0.0
122
1.0
132
0.0
 79
     0
146
0.0
  0
ENDTAB
  0
TABLE
  2
LTYPE
  5
5
330
0
100
AcDbSymbolTable
 70
     6
  0
LTYPE
  5
14
330
5
100
AcDbSymbolTableRecord
100
AcDbLinetypeTableRecord
  2
ByBlock
 70
     0
  3

 72
    65
 73
     0
 40
0.0
  0
LTYPE
  5
15
330
5
100
AcDbSymbolTableRecord
100
AcDbLinetypeTableRecord
  2
ByLayer
 70
     0
  3

 72
    65
 73
     0
 40
0.0
  0
LTYPE
  5
16
330
5
100
AcDbSymbolTableRecord
100
AcDbLinetypeTableRecord
  2
Continuous
 70
     0
  3
Solid line
 72
    65
 73
     0
 40
0.0
  0
LTYPE
  5
6E
330
5
100
AcDbSymbolTableRecord
100
AcDbLinetypeTableRecord
  2
HIDDEN
 70
     0
  3
Hidden __ __ __ __ __ __ __ __ __ __ __ __ __ __
 72
    65
 73
     2
 40
1.905
 49
1.27
 74
     0
 49
-0.635
 74
     0
  0
LTYPE
  5
6F
330
5
100
AcDbSymbolTableRecord
100
AcDbLinetypeTableRecord
  2
PHANTOM
 70
     0
  3
Phantom ______  __  __  ______  __  __  ______
 72
    65
 73
     6
 40
12.7
 49
6.35
 74
     0
 49
-1.27
 74
     0
 49
1.27
 74
     0
 49
-1.27
 74
     0
 49
1.27
 74
     0
 49
-1.27
 74
     0
  0
LTYPE
  5
70
330
5
100
AcDbSymbolTableRecord
100
AcDbLinetypeTableRecord
  2
CENTER
 70
     0
  3
Center ____ _ ____ _ ____ _ ____ _ ____ _ ____
 72
    65
 73
     4
 40
10.16
 49
6.35
 74
     0
 49
-1.27
 74
     0
 49
1.27
 74
     0
 49
-1.27
 74
     0
  0
LTYPE
  5
71
330
5
100
AcDbSymbolTableRecord
100
AcDbLinetypeTableRecord
  2
CENTERX2
 70
     0
  3
Center (2x) ________  __  ________  __  _____
 72
    65
 73
     4
 40
20.32
 49
12.7
 74
     0
 49
-2.54
 74
     0
 49
2.54
 74
     0
 49
-2.54
 74
     0
  0
LTYPE
  5
72
330
5
100
AcDbSymbolTableRecord
100
AcDbLinetypeTableRecord
  2
DOT2
 70
     0
  3
Dot (.5x) ........................................
 72
    65
 73
     2
 40
0.635
 49
0.0
 74
     0
 49
-0.635
 74
     0
  0
ENDTAB
  0
TABLE
  2
LAYER
  5
2
330
0
100
AcDbSymbolTable
 70
     2
  0
LAYER
  5
10
330
2
100
AcDbSymbolTableRecord
100
AcDbLayerTableRecord
  2
0
 70
     0
 62
     7
  6
Continuous
370
    -3
390
F
  0
LAYER
  5
73
330
2
100
AcDbSymbolTableRecord
100
AcDbLayerTableRecord
  2
FORMAT
 70
     0
 62
     7
  6
Continuous
370
    -3
390
F
  0
ENDTAB
  0
TABLE
  2
STYLE
  5
3
330
0
100
AcDbSymbolTable
 70
     1
  0
STYLE
  5
11
330
3
100
AcDbSymbolTableRecord
100
AcDbTextStyleTableRecord
  2
Standard
 70
     0
 40
0.0
 41
1.0
 50
0.0
 71
     0
 42
3.5
  3
txt
  4

  0
ENDTAB
  0
TABLE
  2
VIEW
  5
6
330
0
100
AcDbSymbolTable
 70
     0
  0
ENDTAB
  0
TABLE
  2
UCS
  5
7
330
0
100
AcDbSymbolTable
 70
     0
  0
ENDTAB
  0
TABLE
  2
APPID
  5
9
330
0
100
AcDbSymbolTable
 70
     1
  0
APPID
  5
12
330
9
100
AcDbSymbolTableRecord
100
AcDbRegAppTableRecord
  2
ACAD
 70
     0
  0
ENDTAB
  0
TABLE
  2
DIMSTYLE
  5
A
330
0
100
AcDbSymbolTable
 70
     1
100
AcDbDimStyleTable
  0
DIMSTYLE
105
27
330
A
100
AcDbSymbolTableRecord
100
AcDbDimStyleTableRecord
  2
ISO-25
 70
     0
 41
2.5
 42
0.625
 43
3.75
 44
1.25
 73
     0
 74
     0
 77
     1
 78
     8
140
2.5
141
2.5
143
0.0393700787
147
0.625
171
     3
172
     1
178
     0
271
     2
272
     2
274
     3
278
    44
283
     0
284
     8
340
11
  0
ENDTAB
  0
TABLE
  2
BLOCK_RECORD
  5
1
330
0
100
AcDbSymbolTable
 70
     1
  0
BLOCK_RECORD
  5
1F
330
1
100
AcDbSymbolTableRecord
100
AcDbBlockTableRecord
  2
*Model_Space
340
22
  0
BLOCK_RECORD
  5
1B
330
1
100
AcDbSymbolTableRecord
100
AcDbBlockTableRecord
  2
*Paper_Space
340
1E
  0
BLOCK_RECORD
  5
23
330
1
100
AcDbSymbolTableRecord
100
AcDbBlockTableRecord
  2
*Paper_Space0
340
26
  0
ENDTAB
  0
ENDSEC
  0
SECTION
  2
BLOCKS
  0
BLOCK
  5
20
330
1F
100
AcDbEntity
  8
0
100
AcDbBlockBegin
  2
*Model_Space
 70
     0
 10
0.0
 20
0.0
 30
0.0
  3
*Model_Space
  1

  0
ENDBLK
  5
21
330
1F
100
AcDbEntity
  8
0
100
AcDbBlockEnd
  0
BLOCK
  5
1C
330
1B
100
AcDbEntity
 67
     1
  8
0
100
AcDbBlockBegin
  2
*Paper_Space
 70
     0
 10
0.0
 20
0.0
 30
0.0
  3
*Paper_Space
  1

  0
ENDBLK
  5
1D
330
1B
100
AcDbEntity
 67
     1
  8
0
100
AcDbBlockEnd
  0
BLOCK
  5
24
330
23
100
AcDbEntity
  8
0
100
AcDbBlockBegin
  2
*Paper_Space0
 70
     0
 10
0.0
 20
0.0
 30
0.0
  3
*Paper_Space0
  1

  0
ENDBLK
  5
25
330
23
100
AcDbEntity
  8
0
100
AcDbBlockEnd
  0
ENDSEC
  0
SECTION
  2
ENTITIES
  0
CIRCLE
  5
74
330
1F
100
AcDbEntity
  8
0
  6
Continuous
 62
     7
370
    15
100
AcDbCircle
 10
210.6602362849
 20
376.6760224034
 30
0.0
 40
10.25000000000003
  0
CIRCLE
  5
75
330
1F
100
AcDbEntity
  8
0
  6
Continuous
 62
     7
370
    15
100
AcDbCircle
 10
208.0175723229
 20
358.8710700815
 30
0.0
 40
4.250000000000028
  0
CIRCLE
  5
76
330
1F
100
AcDbEntity
  8
0
  6
Continuous
 62
     7
370
    15
100
AcDbCircle
 10
228.4651886067
 20
374.0333584415
 30
0.0
 40
4.25
  0
CIRCLE
  5
77
330
1F
100
AcDbEntity
  8
0
  6
Continuous
 62
     7
370
    15
100
AcDbCircle
 10
213.3029002468
 20
394.4809747253
 30
0.0
 40
4.25
  0
CIRCLE
  5
78
330
1F
100
AcDbEntity
  8
0
  6
Continuous
 62
     7
370
    15
100
AcDbCircle
 10
192.855283963
 20
379.3186863654
 30
0.0
 40
4.25
  0
CIRCLE
  5
79
330
1F
100
AcDbEntity
  8
0
  6
Continuous
 62
     7
370
    15
100
AcDbCircle
 10
219.6608436639
 20
322.0623203345
 30
0.0
 40
4.25
  0
CIRCLE
  5
7A
330
1F
100
AcDbEntity
  8
0
  6
Continuous
 62
     7
370
    15
100
AcDbCircle
 10
55.9970959895
 20
409.5954045823
 30
0.0
 40
4.249999999999972
  0
CIRCLE
  5
7B
330
1F
100
AcDbEntity
  8
0
  6
Continuous
 62
     7
370
    15
100
AcDbCircle
 10
119.0461644374
 20
409.5760224034
 30
0.0
 40
4.25
  0
CIRCLE
  5
7C
330
1F
100
AcDbEntity
  8
0
  6
Continuous
 62
     7
370
    15
100
AcDbCircle
 10
374.5193390902
 20
67.9685836943
 30
0.0
 40
4.249999999999936
  0
CIRCLE
  5
7D
330
1F
100
AcDbEntity
  8
0
  6
Continuous
 62
     7
370
    15
100
AcDbCircle
 10
386.3430376526
 20
48.4489511683
 30
0.0
 40
4.24999999999999
  0
CIRCLE
  5
7E
330
1F
100
AcDbEntity
  8
0
  6
Continuous
 62
     7
370
    15
100
AcDbCircle
 10
398.166736215
 20
28.9293186424
 30
0.0
 40
4.249999999999934
  0
CIRCLE
  5
7F
330
1F
100
AcDbEntity
  8
0
  6
Continuous
 62
     7
370
    15
100
AcDbCircle
 10
390.0243768666
 20
64.0196846639
 30
0.0
 40
4.250000000000046
  0
CIRCLE
  5
80
330
1F
100
AcDbEntity
  8
0
  6
Continuous
 62
     7
370
    15
100
AcDbCircle
 10
401.848075429
 20
44.500052138
 30
0.0
 40
4.249999999999879
  0
CIRCLE
  5
81
330
1F
100
AcDbEntity
  8
0
  6
Continuous
 62
     7
370
    15
100
AcDbCircle
 10
378.2006783042
 20
83.5393171899
 30
0.0
 40
4.249999999999992
  0
CIRCLE
  5
82
330
1F
100
AcDbEntity
  8
0
  6
Continuous
 62
     7
370
    15
100
AcDbCircle
 10
314.9856275896
 20
197.1344639311
 30
0.0
 40
4.249999999999992
  0
LINE
  5
83
330
1F
100
AcDbEntity
  8
0
  6
Continuous
 62
     7
370
    15
100
AcDbLine
 10
453.056512581
 20
279.5606258304
 30
0.0
 11
428.20749941
 21
316.734819774
 31
0.0
  0
LINE
  5
84
330
1F
100
AcDbEntity
  8
0
  6
Continuous
 62
     7
370
    15
100
AcDbLine
 10
459.7146257397
 20
254.4846768242
 30
0.0
 11
453.056512581
 21
279.5606258304
 31
0.0
  0
LINE
  5
85
330
1F
100
AcDbEntity
  8
0
  6
Continuous
 62
     7
370
    15
100
AcDbLine
 10
405.9521029628
 20
27.0886490354
 30
0.0
 11
459.7146257397
 21
254.4846768242
 31
0.0
  0
ARC
  5
86
330
1F
100
AcDbEntity
  8
0
  6
Continuous
 62
     7
370
    15
100
AcDbCircle
 10
398.166736215
 20
28.9293186424
 30
0.0
 40
8.000000000000124
100
AcDbArc
 50
211.2047006582
 51
346.698000384
  0
LINE
  5
87
330
1F
100
AcDbEntity
  8
0
  6
Continuous
 62
     7
370
    15
100
AcDbLine
 10
391.3241621563
 20
24.7845411752
 30
0.0
 11
367.6767650315
 21
63.8238062271
 31
0.0
  0
ARC
  5
88
330
1F
100
AcDbEntity
  8
0
  6
Continuous
 62
     7
370
    15
100
AcDbCircle
 10
374.5193390902
 20
67.9685836943
 30
0.0
 40
8.000000000000126
100
AcDbArc
 50
166.698000384
 51
211.2047006582
  0
LINE
  5
89
330
1F
100
AcDbEntity
  8
0
  6
Continuous
 62
     7
370
    15
100
AcDbLine
 10
366.7339723424
 20
69.8092533013
 30
0.0
 11
370.4792541481
 21
85.6504408348
 31
0.0
  0
ARC
  5
8A
330
1F
100
AcDbEntity
  8
0
  6
Continuous
 62
     7
370
    15
100
AcDbCircle
 10
362.6938874003
 20
87.4911104418
 30
0.0
 40
8.000000000000044
100
AcDbArc
 50
346.698000384
 51
31.2047006582
  0
LINE
  5
8B
330
1F
100
AcDbEntity
  8
0
  6
Continuous
 62
     7
370
    15
100
AcDbLine
 10
299.4020923085
 20
207.4200569682
 30
0.0
 11
369.536461459
 21
91.6358879089
 31
0.0
  0
SPLINE
  5
8C
330
1F
100
AcDbEntity
  8
0
  6
Continuous
 62
     7
370
    15
100
AcDbSpline
210
0.0
220
0.0
230
1.0
 70
     8
 71
     3
 72
    14
 73
    10
 74
     0
 42
0.000000001
 43
0.00000001
 40
0.0
 40
0.0
 40
0.0
 40
0.0
 40
0.25
 40
0.25
 40
0.375
 40
0.375
 40
0.5
 40
0.5
 40
1.0
 40
1.0
 40
1.0
 40
1.0
 10
294.240171974562
 20
215.1359622522627
 30
0.0
 10
294.7391127483588
 20
214.4632153417594
 30
0.0
 10
295.2122088362105
 20
213.8110586858263
 30
0.0
 10
295.8830859390701
 20
212.863709083782
 30
0.0
 10
296.100250468537
 20
212.5530734467431
 30
0.0
 10
296.5216571844981
 20
211.9420972999503
 30
0.0
 10
296.7201682462671
 20
211.6503106323948
 30
0.0
 10
297.7377289449331
 20
210.1315766908477
 30
0.0
 10
298.5638662524443
 20
208.8227410655523
 30
0.0
 10
299.4020923085338
 20
207.4200569681992
 30
0.0
  0
SPLINE
  5
8D
330
1F
100
AcDbEntity
  8
0
  6
Continuous
 62
     7
370
    15
100
AcDbSpline
210
0.0
220
0.0
230
1.0
 70
     8
 71
     3
 72
    32
 73
    28
 74
     0
 42
0.000000001
 43
0.00000001
 40
-0.0000001630142666
 40
-0.0000001630142666
 40
-0.0000001630142666
 40
-0.0000001630142666
 40
0.125
 40
0.125
 40
0.1875
 40
0.1875
 40
0.21875
 40
0.21875
 40
0.25
 40
0.25
 40
0.375
 40
0.375
 40
0.5
 40
0.5
 40
0.625
 40
0.625
 40
0.75
 40
0.75
 40
0.8125
 40
0.8125
 40
0.84375
 40
0.84375
 40
0.859375
 40
0.859375
 40
0.875
 40
0.875
 40
1.0
 40
1.0
 40
1.0
 40
1.0
 10
288.1660463643519
 20
219.072107788863
 30
0.0
 10
288.4891079568401
 20
218.9814549542951
 30
0.0
 10
288.7953501492687
 20
218.8853771594554
 30
0.0
 10
289.2294843378224
 20
218.7331230267881
 30
0.0
 10
289.3699908839921
 20
218.6810154091644
 30
0.0
 10
289.5744434282244
 20
218.600819622627
 30
0.0
 10
289.6415430637981
 20
218.5737486337642
 30
0.0
 10
289.773639909938
 20
218.5189285360045
 30
0.0
 10
289.8327035596225
 20
218.49378573345
 30
0.0
 10
290.1821013543441
 20
218.3403133571703
 30
0.0
 10
290.4571652095984
 20
218.2067538304927
 30
0.0
 10
290.9983841590609
 20
217.9180715258299
 30
0.0
 10
291.2573632412934
 20
217.7674979596927
 30
0.0
 10
291.7951166926155
 20
217.4265907287185
 30
0.0
 10
292.0520686676625
 20
217.2491672485805
 30
0.0
 10
292.5421231165286
 20
216.8803805590029
 30
0.0
 10
292.7685001725262
 20
216.6950481232402
 30
0.0
 10
293.1103548840656
 20
216.3885023515888
 30
0.0
 10
293.2219678935349
 20
216.2835441882042
 30
0.0
 10
293.3858795661729
 20
216.121942583876
 30
0.0
 10
293.4399321501247
 20
216.0673813225581
 30
0.0
 10
293.5201340656608
 20
215.9844983407684
 30
0.0
 10
293.5467218774409
 20
215.9566971652029
 30
0.0
 10
293.5996051808707
 20
215.9007477841346
 30
0.0
 10
293.6312331696146
 20
215.8668240775779
 30
0.0
 10
293.8185846800257
 20
215.6639081028157
 30
0.0
 10
294.0146253368447
 20
215.4278029008499
 30
0.0
 10
294.240171974562
 20
215.1359622522627
 30
0.0
  0
SPLINE
  5
8E
330
1F
100
AcDbEntity
  8
0
  6
Continuous
 62
     7
370
    15
100
AcDbSpline
210
0.0
220
0.0
230
1.0
 70
     8
 71
     3
 72
    62
 73
    58
 74
     0
 42
0.000000001
 43
0.00000001
 40
0.0
 40
0.0
 40
0.0
 40
0.0
 40
0.0624999957790532
 40
0.0624999957790532
 40
0.1249999915581065
 40
0.1249999915581065
 40
0.1328124910304881
 40
0.1328124910304881
 40
0.1406249905028698
 40
0.1406249905028698
 40
0.1562499894476331
 40
0.1562499894476331
 40
0.1874999873371597
 40
0.1874999873371597
 40
0.2499999831162129
 40
0.2499999831162129
 40
0.2539062328524038
 40
0.2539062328524038
 40
0.2578124825885946
 40
0.2578124825885946
 40
0.2656249820609762
 40
0.2656249820609762
 40
0.2812499810057396
 40
0.2812499810057396
 40
0.3124999788952662
 40
0.3124999788952662
 40
0.3749999746743194
 40
0.3749999746743194
 40
0.4999999662324259
 40
0.4999999662324259
 40
0.5039062159686167
 40
0.5039062159686167
 40
0.5078124657048075
 40
0.5078124657048075
 40
0.5156249651771891
 40
0.5156249651771891
 40
0.5312499641219525
 40
0.5312499641219525
 40
0.5624999620114791
 40
0.5624999620114791
 40
0.6249999577905323
 40
0.6249999577905323
 40
0.7499999493486388
 40
0.7499999493486388
 40
0.7539061990848297
 40
0.7539061990848297
 40
0.7578124488210205
 40
0.7578124488210205
 40
0.7656249482934021
 40
0.7656249482934021
 40
0.7812499472381653
 40
0.7812499472381653
 40
0.812499945127692
 40
0.812499945127692
 40
0.8749999409067453
 40
0.8749999409067453
 40
0.9999999324648517
 40
0.9999999324648517
 40
0.9999999324648517
 40
0.9999999324648517
 10
253.4179663661972
 20
234.6713404248753
 30
0.0
 10
254.0627867221173
 20
234.0983586540439
 30
0.0
 10
254.6808082520773
 20
233.5777644648091
 30
0.0
 10
255.8632536600769
 20
232.6413512495327
 30
0.0
 10
256.5117921307398
 20
232.1590358055585
 30
0.0
 10
257.2635028178416
 20
231.6315007803443
 30
0.0
 10
257.3376282568029
 20
231.5798582532349
 30
0.0
 10
257.4963972273109
 20
231.4699461668593
 30
0.0
 10
257.5761550918004
 20
231.4151052678117
 30
0.0
 10
257.8165488229755
 20
231.2509280030897
 30
0.0
 10
257.9783048273676
 20
231.141937069836
 30
0.0
 10
258.4680533913703
 20
230.8163459997577
 30
0.0
 10
258.8005265018072
 20
230.601127592616
 30
0.0
 10
259.8158680364232
 20
229.9609992899224
 30
0.0
 10
260.5166586639074
 20
229.5416163131019
 30
0.0
 10
261.2866384936252
 20
229.1038517017663
 30
0.0
 10
261.3211505470995
 20
229.0842937557496
 30
0.0
 10
261.4012010515222
 20
229.0390360099981
 30
0.0
 10
261.4413081671389
 20
229.0164241436939
 30
0.0
 10
261.5618751042051
 20
228.9486395644961
 30
0.0
 10
261.6425805158707
 20
228.9035178713172
 30
0.0
 10
261.8856791117317
 20
228.7683568706391
 30
0.0
 10
262.0490546567917
 20
228.6785216419987
 30
0.0
 10
262.5431107354293
 20
228.4098322715127
 30
0.0
 10
262.8777207124644
 20
228.2317944451022
 30
0.0
 10
263.8972684174003
 20
227.7009462276108
 30
0.0
 10
264.5979239191315
 20
227.3514010982702
 30
0.0
 10
266.7627615196466
 20
226.3158267572097
 30
0.0
 10
268.2898147137523
 20
225.642858592451
 30
0.0
 10
269.9510360762411
 20
224.9668191121152
 30
0.0
 10
269.9856977887476
 20
224.9527493454423
 30
0.0
 10
270.0709161094154
 20
224.9182131932801
 30
0.0
 10
270.1135975267861
 20
224.9009516426173
 30
0.0
 10
270.2418585500085
 20
224.8491865668834
 30
0.0
 10
270.3276549269705
 20
224.814702618067
 30
0.0
 10
270.585911142298
 20
224.7113290766368
 30
0.0
 10
270.7592380651047
 20
224.6425177890416
 30
0.0
 10
271.2826871712903
 20
224.4363971463309
 30
0.0
 10
271.6362776924344
 20
224.2994010112904
 30
0.0
 10
272.7109226069282
 20
223.8896654864685
 30
0.0
 10
273.4458503513393
 20
223.6181789769869
 30
0.0
 10
275.7061269888176
 20
222.8087309697411
 30
0.0
 10
277.2869692861303
 20
222.2757809931758
 30
0.0
 10
278.9935163360713
 20
221.7330671714914
 30
0.0
 10
279.0252873182723
 20
221.7229842457124
 30
0.0
 10
279.1090691359009
 20
221.6964234219051
 30
0.0
 10
279.1510592708096
 20
221.6831322937965
 30
0.0
 10
279.2773273538182
 20
221.643226760856
 30
0.0
 10
279.3619029802008
 20
221.6165802074093
 30
0.0
 10
279.6168205724799
 20
221.5365119526102
 30
0.0
 10
279.7883532515072
 20
221.4829616567987
 30
0.0
 10
280.307714141113
 20
221.321796391528
 30
0.0
 10
280.6603052042151
 20
221.2136670442325
 30
0.0
 10
281.7371298036172
 20
220.8872214910009
 30
0.0
 10
282.4804147500124
 20
220.6668477737198
 30
0.0
 10
284.7864752295789
 20
219.9974965764963
 30
0.0
 10
286.4254564031315
 20
219.5402890511737
 30
0.0
 10
288.1660450971926
 20
219.072108132011
 30
0.0
  0
LINE
  5
8F
330
1F
100
AcDbEntity
  8
0
  6
Continuous
 62
     7
370
    15
100
AcDbLine
 10
253.4179663662
 20
234.6713404249
 30
0.0
 11
235.2405117759
 21
249.9240358673
 31
0.0
  0
SPLINE
  5
90
330
1F
100
AcDbEntity
  8
0
  6
Continuous
 62
     7
370
    15
100
AcDbSpline
210
0.0
220
0.0
230
1.0
 70
     8
 71
     3
 72
    66
 73
    62
 74
     0
 42
0.000000001
 43
0.00000001
 40
0.0
 40
0.0
 40
0.0
 40
0.0
 40
0.0625
 40
0.0625
 40
0.09375
 40
0.09375
 40
0.109375
 40
0.109375
 40
0.1171875
 40
0.1171875
 40
0.12109375
 40
0.12109375
 40
0.125
 40
0.125
 40
0.1875
 40
0.1875
 40
0.21875
 40
0.21875
 40
0.234375
 40
0.234375
 40
0.2421875
 40
0.2421875
 40
0.25
 40
0.25
 40
0.375
 40
0.375
 40
0.4375
 40
0.4375
 40
0.46875
 40
0.46875
 40
0.484375
 40
0.484375
 40
0.4921875
 40
0.4921875
 40
0.5
 40
0.5
 40
0.625
 40
0.625
 40
0.6875
 40
0.6875
 40
0.71875
 40
0.71875
 40
0.734375
 40
0.734375
 40
0.75
 40
0.75
 40
0.8125
 40
0.8125
 40
0.875
 40
0.875
 40
0.90625
 40
0.90625
 40
0.921875
 40
0.921875
 40
0.9296875
 40
0.9296875
 40
0.93359375
 40
0.93359375
 40
0.9375
 40
0.9375
 40
1.0
 40
1.0
 40
1.0
 40
1.0
 10
221.3683477827926
 20
278.3335366515952
 30
0.0
 10
221.5046066681799
 20
277.593648992522
 30
0.0
 10
221.6393685263012
 20
276.8942196021565
 30
0.0
 10
221.8392657725844
 20
275.9057629196695
 30
0.0
 10
221.9055239311957
 20
275.5863919260175
 30
0.0
 10
222.0043497838879
 20
275.1225072863046
 30
0.0
 10
222.0371981705811
 20
274.9704077148612
 30
0.0
 10
222.0863304043149
 20
274.7460513203875
 30
0.0
 10
222.1026844245084
 20
274.6718980160114
 30
0.0
 10
222.1271803682222
 20
274.5616163001202
 30
0.0
 10
222.1353398350307
 20
274.5250137682686
 30
0.0
 10
222.1516470731222
 20
274.4521247847898
 30
0.0
 10
222.1583686825223
 20
274.4221666858259
 30
0.0
 10
222.3210261343764
 20
273.7004016947898
 30
0.0
 10
222.4797560967755
 20
273.0348073675178
 30
0.0
 10
222.7263119342966
 20
272.0569867259882
 30
0.0
 10
222.8099073624573
 20
271.7344749870413
 30
0.0
 10
222.937415728179
 20
271.2558500909655
 30
0.0
 10
222.9802710539996
 20
271.0971655776644
 30
0.0
 10
223.0450828486007
 20
270.8604244857989
 30
0.0
 10
223.0667749144461
 20
270.7817250681914
 30
0.0
 10
223.1103353147603
 20
270.6247547923385
 30
0.0
 10
223.1299050875542
 20
270.5546554602957
 30
0.0
 10
223.5422406052949
 20
269.0887776792538
 30
0.0
 10
223.9607714235365
 20
267.765770417212
 30
0.0
 10
224.6342431473332
 20
265.8662231454983
 30
0.0
 10
224.8663463046712
 20
265.247201325152
 30
0.0
 10
225.2259199147867
 20
264.3399094999699
 30
0.0
 10
225.3476809305099
 20
264.0410190424654
 30
0.0
 10
225.533177172622
 20
263.597993582543
 30
0.0
 10
225.5954850397472
 20
263.4512034669579
 30
0.0
 10
225.6896605200668
 20
263.2323458501639
 30
0.0
 10
225.7211712934453
 20
263.1596145706631
 30
0.0
 10
225.7844307334129
 20
263.0145945305228
 30
0.0
 10
225.8121804873883
 20
262.9513491719687
 30
0.0
 10
226.4219114261257
 20
261.572463815963
 30
0.0
 10
227.037886073638
 20
260.3385377317527
 30
0.0
 10
228.0250133967808
 20
258.5834211581884
 30
0.0
 10
228.3645833964742
 20
258.0143443924588
 30
0.0
 10
228.8897297339829
 20
257.1846723820523
 30
0.0
 10
229.0674104028139
 20
256.9121055682815
 30
0.0
 10
229.3378792405526
 20
256.5092411321721
 30
0.0
 10
229.4286934922141
 20
256.3759506175601
 30
0.0
 10
229.611637940368
 20
256.1113648498518
 30
0.0
 10
229.6975496343799
 20
255.9888019178828
 30
0.0
 10
230.1925829913201
 20
255.2936522005547
 30
0.0
 10
230.6016943283161
 20
254.7542130178107
 30
0.0
 10
231.446086305196
 20
253.7086958345596
 30
0.0
 10
231.8748450280549
 20
253.2097366038547
 30
0.0
 10
232.5571758405839
 20
252.4649623350685
 30
0.0
 10
232.7883742482156
 20
252.220645320981
 30
0.0
 10
233.1408040648461
 20
251.8600814131117
 30
0.0
 10
233.2592193712534
 20
251.7408787126989
 30
0.0
 10
233.4382503821602
 20
251.5635525653952
 30
0.0
 10
233.4981620610118
 20
251.5046901668465
 30
0.0
 10
233.588381592113
 20
251.4167660448524
 30
0.0
 10
233.6185134379508
 20
251.3875195834925
 30
0.0
 10
233.6788944672343
 20
251.3291498193824
 30
0.0
 10
233.7134221114765
 20
251.2959239677805
 30
0.0
 10
234.1559217661801
 20
250.871617999685
 30
0.0
 10
234.6562751905144
 20
250.4226416910586
 30
0.0
 10
235.2405117759326
 20
249.9240358673072
 30
0.0
  0
SPLINE
  5
91
330
1F
100
AcDbEntity
  8
0
  6
Continuous
 62
     7
370
    15
100
AcDbSpline
210
0.0
220
0.0
230
1.0
 70
     8
 71
     3
 72
    28
 73
    24
 74
     0
 42
0.000000001
 43
0.00000001
 40
0.0
 40
0.0
 40
0.0
 40
0.0
 40
0.125
 40
0.125
 40
0.1875
 40
0.1875
 40
0.25
 40
0.25
 40
0.5
 40
0.5
 40
0.625
 40
0.625
 40
0.75
 40
0.75
 40
0.8125
 40
0.8125
 40
0.84375
 40
0.84375
 40
0.859375
 40
0.859375
 40
0.875
 40
0.875
 40
1.0
 40
1.0
 40
1.0
 40
1.0
 10
218.0391108909008
 20
283.9249440486133
 30
0.0
 10
218.267635154842
 20
283.7278065597457
 30
0.0
 10
218.4798380936975
 20
283.5319444477533
 30
0.0
 10
218.7736605143526
 20
283.240064345078
 30
0.0
 10
218.8675209899662
 20
283.1430898217384
 30
0.0
 10
219.0470812786508
 20
282.9497784634969
 30
0.0
 10
219.125911294666
 20
282.8615233279042
 30
0.0
 10
219.5683576889413
 20
282.3410248779426
 30
0.0
 10
219.8854698851746
 20
281.9000135117475
 30
0.0
 10
220.3269717182825
 20
281.1665213983285
 30
0.0
 10
220.4618144818043
 20
280.9205503880524
 30
0.0
 10
220.706850980486
 20
280.4256610892274
 30
0.0
 10
220.8132956270438
 20
280.1863345958596
 30
0.0
 10
220.9657230914159
 20
279.7963590115598
 30
0.0
 10
221.0132811240507
 20
279.6659195653683
 30
0.0
 10
221.0797414897691
 20
279.4695890189433
 30
0.0
 10
221.1010821644696
 20
279.4040336072787
 30
0.0
 10
221.1318740057119
 20
279.3055326454975
 30
0.0
 10
221.1419347576579
 20
279.272671017523
 30
0.0
 10
221.1616498712805
 20
279.2068918134792
 30
0.0
 10
221.1736170684859
 20
279.1659119904385
 30
0.0
 10
221.2378620476022
 20
278.9419622621312
 30
0.0
 10
221.3003928420335
 20
278.6727982502318
 30
0.0
 10
221.3683477827926
 20
278.3335366515952
 30
0.0
  0
LINE
  5
92
330
1F
100
AcDbEntity
  8
0
  6
Continuous
 62
     7
370
    15
100
AcDbLine
 10
213.1761305005
 20
288.0054691006
 30
0.0
 11
218.0391108909
 21
283.9249440486
 31
0.0
  0
SPLINE
  5
93
330
1F
100
AcDbEntity
  8
0
  6
Continuous
 62
     7
370
    15
100
AcDbSpline
210
0.0
220
0.0
230
1.0
 70
     8
 71
     3
 72
    10
 73
     6
 74
     0
 42
0.000000001
 43
0.00000001
 40
0.0
 40
0.0
 40
0.0
 40
0.0
 40
0.5
 40
0.5
 40
1.0
 40
1.0
 40
1.0
 40
1.0
 10
210.3952525410665
 20
295.5285779668182
 30
0.0
 10
210.1606332773656
 20
294.0906981907638
 30
0.0
 10
210.2877918261995
 20
292.7121352244334
 30
0.0
 10
211.2650827927654
 20
290.0774360094144
 30
0.0
 10
212.0649805231176
 20
288.9476638373024
 30
0.0
 10
213.1761305005393
 20
288.005469100588
 30
0.0
  0
SPLINE
  5
94
330
1F
100
AcDbEntity
  8
0
  6
Continuous
 62
     7
370
    15
100
AcDbSpline
210
0.0
220
0.0
230
1.0
 70
     8
 71
     3
 72
    14
 73
    10
 74
     0
 42
0.000000001
 43
0.00000001
 40
0.0
 40
0.0
 40
0.0
 40
0.0
 40
0.1451019640619813
 40
0.2894311021886272
 40
0.4330019146048711
 40
0.5758291324979709
 40
0.7179277183179975
 40
0.8593128658433321
 40
1.0
 40
1.0
 40
1.0
 40
1.0
 10
211.2652991688058
 20
301.994424109962
 30
0.0
 10
211.2333428549816
 20
301.6804231143872
 30
0.0
 10
211.1696004294961
 20
301.054093520401
 30
0.0
 10
211.0624365525329
 20
300.1183363856251
 30
0.0
 10
210.947104144697
 20
299.1885484858356
 30
0.0
 10
210.822832768398
 20
298.2648012911473
 30
0.0
 10
210.689605584878
 20
297.3471138959065
 30
0.0
 10
210.5482478177676
 20
296.4353402037526
 30
0.0
 10
210.4461667637004
 20
295.8303329974488
 30
0.0
 10
210.3952525410664
 20
295.5285779668182
 30
0.0
  0
ARC
  5
95
330
1F
100
AcDbEntity
  8
0
  6
Continuous
 62
     7
370
    15
100
AcDbCircle
 10
126.1040327249
 20
313.9760224034
 30
0.0
 40
85.99999999999996
100
AcDbArc
 50
351.9914478255
 51
90.0
  0
LINE
  5
96
330
1F
100
AcDbEntity
  8
0
  6
Continuous
 62
     7
370
    15
100
AcDbLine
 10
79.7348213371
 20
399.9760224034
 30
0.0
 11
126.1040327249
 21
399.9760224034
 31
0.0
  0
LINE
  5
97
330
1F
100
AcDbEntity
  8
0
  6
Continuous
 62
     7
370
    15
100
AcDbLine
 10
79.9441878601
 20
399.8003430312
 30
0.0
 11
79.7348213371
 21
399.9760224034
 31
0.0
  0
LINE
  5
98
330
1F
100
AcDbEntity
  8
0
  6
Continuous
 62
     7
370
    15
100
AcDbLine
 10
55.9970959895
 20
400.0147867612
 30
0.0
 11
79.9441878601
 21
399.8003430312
 31
0.0
  0
ARC
  5
99
330
1F
100
AcDbEntity
  8
0
  6
Continuous
 62
     7
370
    15
100
AcDbCircle
 10
56.0687322895
 20
408.0144660198
 30
0.0
 40
7.999999999999988
100
AcDbArc
 50
230.0
 51
269.4869359365
  0
LINE
  5
9A
330
1F
100
AcDbEntity
  8
0
  6
Continuous
 62
     7
370
    15
100
AcDbLine
 10
47.1586352337
 20
405.0476668585
 30
0.0
 11
50.926431412
 21
401.8861104749
 31
0.0
  0
ARC
  5
9B
330
1F
100
AcDbEntity
  8
0
  6
Continuous
 62
     7
370
    15
100
AcDbCircle
 10
52.3009361112
 20
411.1760224034
 30
0.0
 40
8.0
100
AcDbArc
 50
90.0
 51
230.0
  0
LINE
  5
9C
330
1F
100
AcDbEntity
  8
0
  6
Continuous
 62
     7
370
    15
100
AcDbLine
 10
286.1226046077
 20
419.1760224034
 30
0.0
 11
52.3009361112
 21
419.1760224034
 31
0.0
  0
LINE
  5
9D
330
1F
100
AcDbEntity
  8
0
  6
Continuous
 62
     7
370
    15
100
AcDbLine
 10
302.9917857626
 20
411.3097940441
 30
0.0
 11
286.1226046077
 21
419.1760224034
 31
0.0
  0
LINE
  5
9E
330
1F
100
AcDbEntity
  8
0
  6
Continuous
 62
     7
370
    15
100
AcDbLine
 10
347.8677117048
 20
384.1479060064
 30
0.0
 11
302.9917857626
 21
411.3097940441
 31
0.0
  0
LINE
  5
9F
330
1F
100
AcDbEntity
  8
0
  6
Continuous
 62
     7
370
    15
100
AcDbLine
 10
347.8677117048
 20
384.1479060064
 30
0.0
 11
428.20749941
 21
316.734819774
 31
0.0
  0
ENDSEC
  0
SECTION
  2
OBJECTS
  0
DICTIONARY
  5
C
330
0
100
AcDbDictionary
281
     1
  3
ACAD_GROUP
350
D
  3
ACAD_LAYOUT
350
1A
  3
ACAD_MLINESTYLE
350
17
  3
ACAD_PLOTSETTINGS
350
19
  3
ACAD_PLOTSTYLENAME
350
E
  3
ACAD_SCALELIST
350
47
  0
DICTIONARY
  5
D
102
{ACAD_REACTORS
330
C
102
}
330
C
100
AcDbDictionary
281
     1
  0
DICTIONARY
  5
1A
102
{ACAD_REACTORS
330
C
102
}
330
C
100
AcDbDictionary
281
     1
  3
Layout1
350
1E
  3
Layout2
350
26
  3
Model
350
22
  0
DICTIONARY
  5
17
102
{ACAD_REACTORS
330
C
102
}
330
C
100
AcDbDictionary
281
     1
  3
Standard
350
18
  0
DICTIONARY
  5
19
102
{ACAD_REACTORS
330
C
102
}
330
C
100
AcDbDictionary
281
     1
  0
ACDBDICTIONARYWDFLT
  5
E
102
{ACAD_REACTORS
330
C
102
}
330
C
100
AcDbDictionary
281
     1
  3
Normal
350
F
100
AcDbDictionaryWithDefault
340
F
  0
DICTIONARY
  5
47
102
{ACAD_REACTORS
330
C
102
}
330
C
100
AcDbDictionary
281
     1
  3
A0
350
48
  3
A1
350
49
  3
A2
350
4A
  3
A3
350
4B
  3
A4
350
4C
  3
A5
350
4D
  3
A6
350
4E
  3
A7
350
4F
  3
A8
350
50
  3
A9
350
51
  3
B0
350
52
  3
B1
350
53
  3
B2
350
54
  3
B3
350
55
  3
B4
350
56
  3
B5
350
57
  3
B6
350
58
  3
B7
350
59
  3
B8
350
5A
  3
B9
350
5B
  3
C0
350
5C
  3
C1
350
5D
  3
C2
350
5E
  3
C3
350
5F
  3
C4
350
60
  3
C5
350
61
  3
C6
350
62
  3
C7
350
63
  3
C8
350
64
  3
C9
350
65
  3
D0
350
66
  3
D1
350
67
  3
D2
350
68
  0
LAYOUT
  5
1E
102
{ACAD_REACTORS
330
1A
102
}
330
1A
100
AcDbPlotSettings
  1

  2
none_device
  4

  6

 40
0.0
 41
0.0
 42
0.0
 43
0.0
 44
0.0
 45
0.0
 46
0.0
 47
0.0
 48
0.0
 49
0.0
140
0.0
141
0.0
142
1.0
143
1.0
 70
   688
 72
     1
 73
     0
 74
     5
  7

 75
    16
147
1.0
148
0.0
149
0.0
100
AcDbLayout
  1
Layout1
 70
     1
 71
     1
 10
0.0
 20
0.0
 11
420.0
 21
297.0
 12
0.0
 22
0.0
 32
0.0
 14
1.0000000000E+20
 24
1.0000000000E+20
 34
1.0000000000E+20
 15
-1.0000000000E+20
 25
-1.0000000000E+20
 35
-1.0000000000E+20
146
0.0
 13
0.0
 23
0.0
 33
0.0
 16
1.0
 26
0.0
 36
0.0
 17
0.0
 27
1.0
 37
0.0
 76
     0
330
1B
  0
LAYOUT
  5
26
102
{ACAD_REACTORS
330
1A
102
}
330
1A
100
AcDbPlotSettings
  1

  2
none_device
  4

  6

 40
0.0
 41
0.0
 42
0.0
 43
0.0
 44
0.0
 45
0.0
 46
0.0
 47
0.0
 48
0.0
 49
0.0
140
0.0
141
0.0
142
1.0
143
1.0
 70
   688
 72
     1
 73
     0
 74
     5
  7

 75
    16
147
1.0
148
0.0
149
0.0
100
AcDbLayout
  1
Layout2
 70
     1
 71
     2
 10
0.0
 20
0.0
 11
0.0
 21
0.0
 12
0.0
 22
0.0
 32
0.0
 14
0.0
 24
0.0
 34
0.0
 15
0.0
 25
0.0
 35
0.0
146
0.0
 13
0.0
 23
0.0
 33
0.0
 16
1.0
 26
0.0
 36
0.0
 17
0.0
 27
1.0
 37
0.0
 76
     0
330
23
  0
LAYOUT
  5
22
102
{ACAD_REACTORS
330
1A
102
}
330
1A
100
AcDbPlotSettings
  1

  2
none_device
  4
Letter_(8.50_x_11.00_Inches)
  6

 40
6.35
 41
6.35
 42
6.35000508
 43
6.35000508
 44
215.9
 45
279.4
 46
0.0
 47
0.0
 48
0.0
 49
0.0
140
0.0
141
0.0
142
1.0
143
1.0
 70
  1712
 72
     1
 73
     0
 74
     0
  7

 75
     0
147
1.0
148
0.0
149
0.0
100
AcDbLayout
  1
Model
 70
     1
 71
     0
 10
0.0
 20
0.0
 11
841.0
 21
594.0
 12
0.0
 22
0.0
 32
0.0
 14
0.0
 24
0.0
 34
0.0
 15
841.0
 25
594.0
 35
0.0
146
0.0
 13
0.0
 23
0.0
 33
0.0
 16
1.0
 26
0.0
 36
0.0
 17
0.0
 27
1.0
 37
0.0
 76
     0
330
1F
331
29
  0
MLINESTYLE
  5
18
102
{ACAD_REACTORS
330
17
102
}
330
17
100
AcDbMlineStyle
  2
Standard
 70
     0
  3

 62
   256
 51
90.0
 52
90.0
 71
     2
 49
0.5
 62
   256
  6
BYLAYER
 49
-0.5
 62
   256
  6
BYLAYER
  0
ACDBPLACEHOLDER
  5
F
102
{ACAD_REACTORS
330
E
102
}
330
E
  0
SCALE
  5
48
102
{ACAD_REACTORS
330
47
102
}
330
47
100
AcDbScale
 70
     0
300
1:1
140
1.0
141
1.0
290
     1
  0
SCALE
  5
49
102
{ACAD_REACTORS
330
47
102
}
330
47
100
AcDbScale
 70
     0
300
1:2
140
1.0
141
2.0
290
     0
  0
SCALE
  5
4A
102
{ACAD_REACTORS
330
47
102
}
330
47
100
AcDbScale
 70
     0
300
1:4
140
1.0
141
4.0
290
     0
  0
SCALE
  5
4B
102
{ACAD_REACTORS
330
47
102
}
330
47
100
AcDbScale
 70
     0
300
1:5
140
1.0
141
5.0
290
     0
  0
SCALE
  5
4C
102
{ACAD_REACTORS
330
47
102
}
330
47
100
AcDbScale
 70
     0
300
1:8
140
1.0
141
8.0
290
     0
  0
SCALE
  5
4D
102
{ACAD_REACTORS
330
47
102
}
330
47
100
AcDbScale
 70
     0
300
1:10
140
1.0
141
10.0
290
     0
  0
SCALE
  5
4E
102
{ACAD_REACTORS
330
47
102
}
330
47
100
AcDbScale
 70
     0
300
1:16
140
1.0
141
16.0
290
     0
  0
SCALE
  5
4F
102
{ACAD_REACTORS
330
47
102
}
330
47
100
AcDbScale
 70
     0
300
1:20
140
1.0
141
20.0
290
     0
  0
SCALE
  5
50
102
{ACAD_REACTORS
330
47
102
}
330
47
100
AcDbScale
 70
     0
300
1:30
140
1.0
141
30.0
290
     0
  0
SCALE
  5
51
102
{ACAD_REACTORS
330
47
102
}
330
47
100
AcDbScale
 70
     0
300
1:40
140
1.0
141
40.0
290
     0
  0
SCALE
  5
52
102
{ACAD_REACTORS
330
47
102
}
330
47
100
AcDbScale
 70
     0
300
1:50
140
1.0
141
50.0
290
     0
  0
SCALE
  5
53
102
{ACAD_REACTORS
330
47
102
}
330
47
100
AcDbScale
 70
     0
300
1:100
140
1.0
141
100.0
290
     0
  0
SCALE
  5
54
102
{ACAD_REACTORS
330
47
102
}
330
47
100
AcDbScale
 70
     0
300
2:1
140
2.0
141
1.0
290
     0
  0
SCALE
  5
55
102
{ACAD_REACTORS
330
47
102
}
330
47
100
AcDbScale
 70
     0
300
4:1
140
4.0
141
1.0
290
     0
  0
SCALE
  5
56
102
{ACAD_REACTORS
330
47
102
}
330
47
100
AcDbScale
 70
     0
300
8:1
140
8.0
141
1.0
290
     0
  0
SCALE
  5
57
102
{ACAD_REACTORS
330
47
102
}
330
47
100
AcDbScale
 70
     0
300
10:1
140
10.0
141
1.0
290
     0
  0
SCALE
  5
58
102
{ACAD_REACTORS
330
47
102
}
330
47
100
AcDbScale
 70
     0
300
100:1
140
100.0
141
1.0
290
     0
  0
SCALE
  5
59
102
{ACAD_REACTORS
330
47
102
}
330
47
100
AcDbScale
 70
     0
300
1/128" = 1'-0"
140
0.0078125
141
12.0
290
     0
  0
SCALE
  5
5A
102
{ACAD_REACTORS
330
47
102
}
330
47
100
AcDbScale
 70
     0
300
1/64" = 1'-0"
140
0.015625
141
12.0
290
     0
  0
SCALE
  5
5B
102
{ACAD_REACTORS
330
47
102
}
330
47
100
AcDbScale
 70
     0
300
1/32" = 1'-0"
140
0.03125
141
12.0
290
     0
  0
SCALE
  5
5C
102
{ACAD_REACTORS
330
47
102
}
330
47
100
AcDbScale
 70
     0
300
1/16" = 1'-0"
140
0.0625
141
12.0
290
     0
  0
SCALE
  5
5D
102
{ACAD_REACTORS
330
47
102
}
330
47
100
AcDbScale
 70
     0
300
3/32" = 1'-0"
140
0.09375
141
12.0
290
     0
  0
SCALE
  5
5E
102
{ACAD_REACTORS
330
47
102
}
330
47
100
AcDbScale
 70
     0
300
1/8" = 1'-0"
140
0.125
141
12.0
290
     0
  0
SCALE
  5
5F
102
{ACAD_REACTORS
330
47
102
}
330
47
100
AcDbScale
 70
     0
300
3/16" = 1'-0"
140
0.1875
141
12.0
290
     0
  0
SCALE
  5
60
102
{ACAD_REACTORS
330
47
102
}
330
47
100
AcDbScale
 70
     0
300
1/4" = 1'-0"
140
0.25
141
12.0
290
     0
  0
SCALE
  5
61
102
{ACAD_REACTORS
330
47
102
}
330
47
100
AcDbScale
 70
     0
300
3/8" = 1'-0"
140
0.375
141
12.0
290
     0
  0
SCALE
  5
62
102
{ACAD_REACTORS
330
47
102
}
330
47
100
AcDbScale
 70
     0
300
1/2" = 1'-0"
140
0.5
141
12.0
290
     0
  0
SCALE
  5
63
102
{ACAD_REACTORS
330
47
102
}
330
47
100
AcDbScale
 70
     0
300
3/4" = 1'-0"
140
0.75
141
12.0
290
     0
  0
SCALE
  5
64
102
{ACAD_REACTORS
330
47
102
}
330
47
100
AcDbScale
 70
     0
300
1" = 1'-0"
140
1.0
141
12.0
290
     0
  0
SCALE
  5
65
102
{ACAD_REACTORS
330
47
102
}
330
47
100
AcDbScale
 70
     0
300
1-1/2" = 1'-0"
140
1.5
141
12.0
290
     0
  0
SCALE
  5
66
102
{ACAD_REACTORS
330
47
102
}
330
47
100
AcDbScale
 70
     0
300
3" = 1'-0"
140
3.0
141
12.0
290
     0
  0
SCALE
  5
67
102
{ACAD_REACTORS
330
47
102
}
330
47
100
AcDbScale
 70
     0
300
6" = 1'-0"
140
6.0
141
12.0
290
     0
  0
SCALE
  5
68
102
{ACAD_REACTORS
330
47
102
}
330
47
100
AcDbScale
 70
     0
300
1'-0" = 1'-0"
140
12.0
141
12.0
290
     0
  0
ENDSEC
  0
EOF
